<svg id="レイヤー_1" data-name="レイヤー 1" xmlns="http://www.w3.org/2000/svg" xmlns:xlink="http://www.w3.org/1999/xlink" viewBox="0 0 500 500"><defs><style>.cls-1,.cls-18{fill:none;}.cls-2{fill:#f3ac00;}.cls-3{fill:#f2ab00;}.cls-4{fill:#270d84;}.cls-5{fill:#fff;}.cls-6{clip-path:url(#clip-path);}.cls-7{clip-path:url(#clip-path-2);}.cls-8{clip-path:url(#clip-path-3);}.cls-9{fill:#dd2e44;}.cls-10{fill:#fdcb58;}.cls-11{clip-path:url(#clip-path-4);}.cls-12{clip-path:url(#clip-path-6);}.cls-13{clip-path:url(#clip-path-7);}.cls-14{clip-path:url(#clip-path-9);}.cls-15{fill:#5dadec;}.cls-16{clip-path:url(#clip-path-10);}.cls-17{clip-path:url(#clip-path-11);}.cls-18{stroke:#f9dc11;stroke-width:10px;}.cls-19,.cls-20{fill:#29ae00;}.cls-19{stroke:#fff;stroke-miterlimit:10;stroke-width:4.72px;}.cls-21{fill:#dc3045;}.cls-22{fill:#e8586d;}.cls-23{fill:#303035;}.cls-24{fill:#be1931;}.cls-25{fill:#9aaab5;}.cls-26{fill:#99aab5;}.cls-27{fill:#e0e7ec;}.cls-28{fill:#ccd6dd;}.cls-29{fill:#fefdfc;}.cls-30{fill:#ee9746;}.cls-31{fill:#f97642;}.cls-32{fill:#feda5e;}.cls-33{fill:#ef9847;}</style><clipPath id="clip-path"><rect id="SVGID" class="cls-1" x="38.57" y="359.5" width="40.82" height="36.6" transform="translate(-77.26 20.52) rotate(-12)"/></clipPath><clipPath id="clip-path-2"><rect id="SVGID-2" data-name="SVGID" class="cls-1" x="38.57" y="359.5" width="40.82" height="36.6" transform="matrix(0.98, -0.21, 0.21, 0.98, -77.26, 20.52)"/></clipPath><clipPath id="clip-path-3"><rect id="SVGID-3" data-name="SVGID" class="cls-1" x="1.61" y="45.87" width="495.05" height="495.05"/></clipPath><clipPath id="clip-path-4"><rect id="SVGID-4" data-name="SVGID" class="cls-1" x="67.59" y="398.19" width="28.22" height="31.48" transform="translate(-339.6 391.08) rotate(-75.73)"/></clipPath><clipPath id="clip-path-6"><rect id="SVGID-6" data-name="SVGID" class="cls-1" x="5.61" y="47.87" width="495.05" height="495.05"/></clipPath><clipPath id="clip-path-7"><rect id="SVGID-7" data-name="SVGID" class="cls-1" x="443.21" y="145.79" width="27.03" height="27.96" transform="translate(227.48 585.87) rotate(-81)"/></clipPath><clipPath id="clip-path-9"><rect id="SVGID-9" data-name="SVGID" class="cls-1" x="21.01" y="-4.33" width="495.05" height="495.05"/></clipPath><clipPath id="clip-path-10"><rect id="SVGID-10" data-name="SVGID" class="cls-1" x="417.92" y="126.41" width="27.03" height="27.96" transform="translate(171.82 512.48) rotate(-73.12)"/></clipPath><clipPath id="clip-path-11"><rect id="SVGID-11" data-name="SVGID" class="cls-1" x="417.79" y="126.33" width="27.03" height="27.95" transform="translate(171.93 512.37) rotate(-73.14)"/></clipPath></defs><polygon class="cls-2" points="15.34 436.49 31.63 451.07 10.73 457.87 15.34 436.49"/><polygon class="cls-2" points="74.13 457.87 95.14 463.95 79.23 479.13 74.13 457.87"/><path class="cls-3" d="M462.21,369.34h-1.87v-4.55H455.8v-1.85h4.54v-4.41h1.87v4.41h4.53v1.85h-4.53Z"/><path class="cls-3" d="M150.4,484.54h-1.88V480H144v-1.86h4.54v-4.41h1.87v4.41h4.53V480H150.4Z"/><path class="cls-3" d="M208.27,472.91h-1.88v5.23h-4.53v2.14h4.54v5.06h1.87v-5.06h4.53v-2.14h-4.53Z"/><path class="cls-3" d="M401,478.32h-1.87v5.23H394.6v2.13h4.53v5.07H401v-5.07h4.53v-2.13H401Z"/><path class="cls-3" d="M250.94,485.34h-1.88v5.23h-4.53v2.14h4.54v5.07h1.87v-5.07h4.53v-2.14h-4.53Z"/><polygon class="cls-2" points="336.93 21.71 343.02 42.71 321.69 37.39 336.93 21.71"/><polygon class="cls-2" points="475.23 42.71 496.99 44.87 484.12 62.69 475.23 42.71"/><polygon class="cls-2" points="236.14 462.32 257.9 464.48 245.03 482.29 236.14 462.32"/><polygon class="cls-2" points="28.77 338.55 50.53 340.71 37.66 358.53 28.77 338.55"/><path class="cls-3" d="M113.74,28h-1.87V23.47h-4.53V21.61h4.53V17.2h1.87v4.41h4.55v1.86h-4.53Z"/><path class="cls-3" d="M268.8,48.51h-1.87V44H262.4V42.1h4.53V37.69h1.87V42.1h4.54V44H268.8Z"/><path class="cls-3" d="M403.72,12.82h-1.87V8.27h-4.54V6.41h4.54V2h1.87V6.43h4.53V8.31h-4.53Z"/><path class="cls-3" d="M493,120.23h-1.87v-4.55h-4.53v-1.85h4.53v-4.41H493v4.41h4.53v1.85H493Z"/><path class="cls-3" d="M18.3,159.72H16.42v-4.54H11.89v-1.84h4.53v-4.41H18.3v4.41h4.53v1.86H18.3Z"/><path class="cls-3" d="M29.58,57H27.71V52.4H23.18V50.55h4.53V46.14h1.87v4.41h4.53V52.4H29.58Z"/><path class="cls-3" d="M212,22.49h-1.87V17.94h-4.54V16.08h4.54V11.69H212V16.1h4.53V18H212Z"/><path class="cls-3" d="M477.13,186.12h-1.88v-4.55h-4.53v-1.86h4.54V175.3h1.87v4.41h4.53v1.86h-4.53Z"/><path class="cls-2" d="M471.73,277.54a.42.42,0,0,0-.4.18c-.26.4-.55.85-.85,1.33a23.19,23.19,0,0,1-4,5.18,22.5,22.5,0,0,1-5.89,2.84c-.53.2-1,.39-1.48.57a.4.4,0,0,0-.23.54.36.36,0,0,0,.15.19c.39.27.85.56,1.33.87a22.74,22.74,0,0,1,5.17,4,22.43,22.43,0,0,1,2.85,5.9c.19.53.38,1,.56,1.45a.41.41,0,0,0,.54.23h0a.4.4,0,0,0,.19-.15c.27-.39.55-.85.86-1.33a22.56,22.56,0,0,1,4-5.17,22.84,22.84,0,0,1,5.89-2.85c.53-.19,1-.38,1.45-.56a.42.42,0,0,0,.24-.54h0A.33.33,0,0,0,482,290l-1.32-.86a22.34,22.34,0,0,1-5.17-4,22.52,22.52,0,0,1-2.85-5.89c-.2-.54-.39-1-.56-1.45A.42.42,0,0,0,471.73,277.54Z"/><path class="cls-2" d="M21.76,221.81a.35.35,0,0,0-.29.2c-.16.35-.34.74-.52,1.17a17.94,17.94,0,0,1-2.54,4.61,18.74,18.74,0,0,1-4.33,3c-.4.22-.77.43-1.1.63a.33.33,0,0,0-.12.46A.4.4,0,0,0,13,232c.34.16.75.33,1.17.51a18.25,18.25,0,0,1,4.61,2.54,19,19,0,0,1,3,4.33c.22.4.43.78.63,1.11a.34.34,0,0,0,.46.12.36.36,0,0,0,.14-.16c.16-.34.33-.74.51-1.16a18.15,18.15,0,0,1,2.54-4.62,18.25,18.25,0,0,1,4.35-3c.4-.22.78-.43,1.11-.63a.34.34,0,0,0,.11-.47.28.28,0,0,0-.15-.13L30.35,230a18.18,18.18,0,0,1-4.62-2.54,18.42,18.42,0,0,1-3-4.35c-.22-.4-.44-.77-.63-1.1A.35.35,0,0,0,21.76,221.81Z"/><path class="cls-2" d="M442.9,371.31a.42.42,0,0,0-.4.18c-.27.4-.55.84-.85,1.33a22.65,22.65,0,0,1-4,5.17,23,23,0,0,1-5.89,2.85l-1.48.56a.43.43,0,0,0-.23.55.37.37,0,0,0,.16.19c.39.27.84.56,1.33.86a22.78,22.78,0,0,1,5.17,4,22.35,22.35,0,0,1,2.84,5.89c.2.53.39,1,.57,1.48a.41.41,0,0,0,.54.23h0a.45.45,0,0,0,.2-.16c.26-.39.55-.84.85-1.32a14.38,14.38,0,0,1,9.91-8l1.45-.56a.42.42,0,0,0,.23-.55.36.36,0,0,0-.15-.19c-.39-.27-.85-.56-1.33-.86a14.33,14.33,0,0,1-8-9.91c-.2-.53-.38-1-.56-1.45A.42.42,0,0,0,442.9,371.31Z"/><path class="cls-2" d="M11.21,291.65a.32.32,0,0,0-.29.19c-.16.35-.34.75-.52,1.17a18.18,18.18,0,0,1-2.54,4.62,18.32,18.32,0,0,1-4.32,3l-1.11.64a.35.35,0,0,0-.14.47h0a.4.4,0,0,0,.15.14l1.16.51a18.7,18.7,0,0,1,4.63,2.54,18.14,18.14,0,0,1,3,4.35c.22.4.43.78.63,1.11a.34.34,0,0,0,.47.13h0a.4.4,0,0,0,.14-.15c.16-.35.33-.75.51-1.17a18.32,18.32,0,0,1,2.54-4.62,18.11,18.11,0,0,1,4.36-3L21,301a.34.34,0,0,0,.13-.46v0a.4.4,0,0,0-.15-.14l-1.16-.52a18.38,18.38,0,0,1-4.63-2.54,18.22,18.22,0,0,1-3-4.35c-.22-.4-.43-.77-.63-1.1A.32.32,0,0,0,11.21,291.65Z"/><path class="cls-2" d="M474.16,464.12a.39.39,0,0,0-.39.19l-.86,1.32a14.34,14.34,0,0,1-9.9,8c-.53.2-1,.39-1.48.57a.41.41,0,0,0-.23.54.5.5,0,0,0,.15.2l1.33.85a14.27,14.27,0,0,1,8,9.9c.2.53.38,1,.56,1.48a.42.42,0,0,0,.55.23.4.4,0,0,0,.19-.15c.27-.39.56-.85.86-1.33a23.12,23.12,0,0,1,4-5.17,22.43,22.43,0,0,1,5.9-2.85c.53-.19,1-.38,1.47-.56a.43.43,0,0,0,.24-.55h0a.49.49,0,0,0-.16-.19c-.39-.27-.84-.55-1.33-.86a22.34,22.34,0,0,1-5.17-4,22.82,22.82,0,0,1-2.84-5.89c-.21-.53-.39-1-.57-1.45A.42.42,0,0,0,474.16,464.12Z"/><path class="cls-2" d="M320.34,478.31a.23.23,0,0,0-.22.1l-.46.7a12,12,0,0,1-2.15,2.77,12.34,12.34,0,0,1-3.16,1.52l-.8.3a.22.22,0,0,0-.12.29.16.16,0,0,0,.08.1l.71.46a12.35,12.35,0,0,1,2.78,2.14,12.06,12.06,0,0,1,1.53,3.14l.3.79a.24.24,0,0,0,.3.13.28.28,0,0,0,.1-.09c.14-.2.3-.45.46-.7a12.36,12.36,0,0,1,2.16-2.77,12.16,12.16,0,0,1,3.16-1.51l.79-.31a.21.21,0,0,0,.13-.29h0a.39.39,0,0,0-.08-.1l-.72-.46a7.68,7.68,0,0,1-4.3-5.28c-.11-.29-.21-.56-.31-.78A.22.22,0,0,0,320.34,478.31Z"/><path class="cls-2" d="M44.92,76.76a.34.34,0,0,0-.29.2c-.16.34-.33.74-.51,1.16a18.15,18.15,0,0,1-2.54,4.62,18.14,18.14,0,0,1-4.35,3l-1.1.63a.34.34,0,0,0-.15.45h0v0a.32.32,0,0,0,.15.13l1.16.52a17.84,17.84,0,0,1,4.62,2.54,17.86,17.86,0,0,1,3,4.35l.63,1.11a.35.35,0,0,0,.47.12.29.29,0,0,0,.13-.16c.16-.34.34-.74.52-1.16a18.15,18.15,0,0,1,2.54-4.62,18.42,18.42,0,0,1,4.35-3l1.1-.63a.35.35,0,0,0,.15-.46l0,0h0a.29.29,0,0,0-.14-.13l-1.17-.52a18.18,18.18,0,0,1-4.62-2.54,18.42,18.42,0,0,1-3-4.35c-.22-.4-.44-.77-.63-1.1A.36.36,0,0,0,44.92,76.76Z"/><rect class="cls-4" x="56.18" y="70.79" width="387.21" height="397.34"/><rect class="cls-5" x="65.82" y="79.55" width="367.34" height="379.72"/><rect class="cls-4" x="103.38" y="28.98" width="289.42" height="88.41"/><rect class="cls-4" x="115.26" y="43.62" width="289.06" height="83.08"/><rect class="cls-5" x="110.15" y="33.55" width="275.88" height="79.27"/><g class="cls-6"><g class="cls-7"><g class="cls-8"><path class="cls-9" d="M77.48,366.67a11.25,11.25,0,0,0-21.33-2.16,11.24,11.24,0,0,0-17.77,13.08c3.55,9.19,16.25,17,24.4,18.1,7-4.35,15.42-16.63,14.94-26.46a11,11,0,0,0-.24-2.56"/><path class="cls-10" d="M78.62,380.5l-4.6-.67-2.49-3.94a1.14,1.14,0,0,0-2.09.45l-.68,4.6-3.93,2.49a1.14,1.14,0,0,0,.45,2.09l4.6.68,2.49,3.93a1.14,1.14,0,0,0,2.09-.45l.68-4.6,3.93-2.49a1.14,1.14,0,0,0-.45-2.09M49.13,368.09l-2.84-.41-1.54-2.42a1.14,1.14,0,0,0-1.57-.35,1.08,1.08,0,0,0-.52.79l-.44,2.85-2.42,1.54a1.15,1.15,0,0,0,.49,2.1l2.84.42L44.67,375a1.15,1.15,0,0,0,2.1-.45l.41-2.85,2.42-1.54a1.14,1.14,0,0,0,.35-1.57,1.16,1.16,0,0,0-.8-.52"/></g></g></g><g class="cls-11"><g class="cls-11"><g class="cls-12"><path class="cls-9" d="M98.29,412.56a8.68,8.68,0,0,0-14-8.77,8.68,8.68,0,0,0-16.78,3c-.67,7.56,5.45,17.27,10.7,20.85,6.32-.63,16.34-6.24,19.34-13.2a8.21,8.21,0,0,0,.71-1.86"/><path class="cls-10" d="M94.36,422.54l-3-2L91,416.93a.88.88,0,0,0-1-.78.85.85,0,0,0-.63.38l-2,3-3.57.38a.88.88,0,0,0-.78,1,.86.86,0,0,0,.37.62l2.94,2.05.38,3.57a.88.88,0,0,0,1,.79.92.92,0,0,0,.63-.38l2-3,3.57-.37a.87.87,0,0,0,.78-1,.83.83,0,0,0-.37-.63M78.2,403.92l-1.83-1.26-.23-2.21a.88.88,0,0,0-1-.78.83.83,0,0,0-.63.37l-1.25,1.79-2.2.24a.88.88,0,0,0-.78,1,.87.87,0,0,0,.37.63l1.83,1.26.23,2.2a.88.88,0,0,0,1,.78.83.83,0,0,0,.63-.37l1.26-1.83,2.2-.23a.89.89,0,0,0,.79-1,.88.88,0,0,0-.38-.63"/></g></g></g><g class="cls-13"><g class="cls-13"><g class="cls-14"><path class="cls-15" d="M471.27,148.4l-17.51-.74a1.62,1.62,0,0,0-1.62,1.33l-2.28,14.4a6.11,6.11,0,0,0-2.23-.81c-3-.48-5.7,1.21-6.1,3.75s1.68,5,4.64,5.45,5.7-1.21,6.1-3.75l2.24-14.16,14.06.59L467,164.53a6.17,6.17,0,0,0-2.23-.81c-3-.49-5.7,1.2-6.1,3.75s1.67,5,4.64,5.45,5.7-1.21,6.1-3.75l3.06-19.34a1.22,1.22,0,0,0-1-1.42h-.2"/></g></g></g><g class="cls-16"><g class="cls-17"><g class="cls-14"><path class="cls-15" d="M447.41,131.14,430.17,128a1.62,1.62,0,0,0-1.79,1.09l-4.23,14a6.07,6.07,0,0,0-2.1-1.11c-2.87-.87-5.8.41-6.56,2.87s1,5.17,3.87,6,5.8-.41,6.55-2.9l4.16-13.71,13.85,2.51-3,9.76a6,6,0,0,0-2.1-1.12c-2.87-.87-5.8.42-6.55,2.9s1,5.17,3.87,6,5.8-.42,6.55-2.9l5.66-18.7a1.24,1.24,0,0,0-.78-1.55l-.19,0"/></g></g></g><path class="cls-2" d="M486.11,214.15a.37.37,0,0,0-.29.19c-.16.35-.33.75-.51,1.17a18.46,18.46,0,0,1-2.54,4.62,17.86,17.86,0,0,1-4.35,3l-1.11.63a.33.33,0,0,0-.14.44h0v0a.47.47,0,0,0,.15.13l1.17.52a18.32,18.32,0,0,1,4.62,2.54,17.86,17.86,0,0,1,3,4.35l.63,1.1a.35.35,0,0,0,.47.14h0a.4.4,0,0,0,.14-.15l.52-1.17a18.79,18.79,0,0,1,2.53-4.62,18.17,18.17,0,0,1,4.36-3l1.1-.64A.34.34,0,0,0,496,223h0v0a.32.32,0,0,0-.15-.13c-.34-.16-.74-.33-1.16-.51a18.46,18.46,0,0,1-4.62-2.54,17.86,17.86,0,0,1-3-4.35c-.23-.4-.44-.78-.63-1.1A.35.35,0,0,0,486.11,214.15Z"/><path class="cls-4" d="M153.79,60.82a79.43,79.43,0,0,1,.51,8.41c.36,19.18-1.75,25.77-4.23,31.47l-7-2c2.6-5.46,4.84-11.39,4.59-24.86,0-1-.25-10.28-1.31-19l20-.37-.12-6.79,7.64.34c1.69.09,1.87.32,1.88.8,0,.19,0,.49-.7.86-.48.31-.78.44-.77.74l.07,3.9,22.13-.4.11,6.13ZM164.45,78c-.47.61-.59.73-.64,1-1.16,8.74-1.48,11.51-3.43,16.48l-6.66-2.4c2.54-5.82,3.4-14.62,3.41-17.63l6.09,1.15c.55.11,1.45.28,1.46.88A.59.59,0,0,1,164.45,78Zm16.28,21.6-10.53.19c-3.3.06-4.5-2.74-4.54-5.27l-.46-24.65L172,70c1.21,0,2.17.21,2.18.81,0,.36-.17.48-.88,1.1a.88.88,0,0,0-.35.72l.32,17.26c0,2.1.41,2.88,1.92,2.85l2.52,0a2.2,2.2,0,0,0,2.19-2.2c0-.18,0-4,0-4.57l6.66,2.4C186.22,94.32,185.78,99.5,180.73,99.6Zm-.09-24.3a42.19,42.19,0,0,0-10.1-9.68l5-5.14a65.63,65.63,0,0,1,10.77,10.14Zm10.84,20.25a78.7,78.7,0,0,0-7.6-17.3l6.55-3.61a88.58,88.58,0,0,1,8.15,18.07Z"/><path class="cls-4" d="M243.63,87.86a31.06,31.06,0,0,1-5.45-2.61,40.67,40.67,0,0,1-1.28,6.24c-1.23,4.62-3.29,4.81-9.58,4.91L225,90.9a29.66,29.66,0,0,0,4.42.59c1.42,0,2.31-.74,2.75-3.88h-7.81a14.59,14.59,0,0,1-4.87,5.4c-3.83,2.61-7.46,3.1-10.51,3.54l-3.14-4.67c7.22-.14,9.92-1.86,12.33-4.27h-6.73V86.09a30.11,30.11,0,0,1-3.88,2.21l-3.05-3.54a25.45,25.45,0,0,0,6.34-3.83h-6.58v-4h10.85a20.11,20.11,0,0,0,1.48-1.81H209.1V62.56h7.07V60.5H204.24V56.62h11.93v-3l5.31.3c.88,0,1.18.39,1.18.68s-.25.45-.4.59c-.58.49-.58.64-.58,1.43h7.41V53.87l5.41.14c.39,0,1,.05,1,.59,0,.2,0,.45-.49.79s-.45.39-.45.54v.69h12.09V60.5H234.54v2.06H242V75.09h-19.5a12.73,12.73,0,0,1-1.32,1.81h25.39v4h-5.94c.93,1,3.19,2,6.43,2.8Zm-7-22.25H214.46v1.76h22.15Zm0,4.51H214.46V72h22.15ZM217.79,80.93c-.93.88-1.52,1.47-2.75,2.46h5.36a14.44,14.44,0,0,0,.39-2.46Zm11.3-20.43h-7.41v2.06h7.41Zm2.8,20.43h-6a18.66,18.66,0,0,1-.39,2.46h9.62A21.32,21.32,0,0,1,231.89,80.93Z"/><path class="cls-4" d="M274.28,63a37.94,37.94,0,0,1-.49,5.1H289c.15,6,.25,11.15-1.18,16.36-1.77,6.44-4.37,8.25-11.15,8.45l-2.55-5.45a36.69,36.69,0,0,0,3.78.14c1.92,0,3-.39,4-2.4s1.67-6.49,1.42-12.13H272.76a31.57,31.57,0,0,1-5.89,11.64,30.44,30.44,0,0,1-9.58,7.71l-4.37-4.18c3.63-1.76,8-3.93,11.54-9.53,3.78-5.94,3.83-11.19,3.88-15.71H253.16V57.75H271v-7l6.29.49c.2,0,.88.14.88.59,0,.29-.59.68-1.08,1.13v4.76H295V63Z"/><path class="cls-4" d="M304.71,73.36a31.43,31.43,0,0,0-6.58-5.87l3.41-3.89a30.06,30.06,0,0,1,6.81,5.57Zm-1,19a7.09,7.09,0,0,0-.77,1.58c0,.16.17.8.16,1s-.14.57-.51.55a2.82,2.82,0,0,1-1.16-.64l-4.57-3.5A59.49,59.49,0,0,0,305.13,77l4.46,3.65C308,84.18,304.73,90.64,303.69,92.36Zm5.25-31A38.3,38.3,0,0,0,303,55.05l3.88-3.81a38.22,38.22,0,0,1,6.29,6.27Zm29,35.35c-1.06-2.62-1.82-4-2.38-5.21-8.22.9-13.06,1.36-21.32,2-1.05.1-1.21.09-1.33.45-.3.67-.42.87-.73.85s-.58-.82-.67-1.14l-1.17-6.19c2.14.12,4.76.11,6.07.14,2.42-4.84,4-8.36,5.58-11.68l-10.7-.6.29-5.22,12.84.72.37-6.47-10.08-.57.31-5.37L325.1,59l.41-7.21,5.45.78c.93.16,1.87.26,1.83.94,0,.26-.24.51-.67.75-.6.38-.76.53-.77.74l-.25,4.33,11.59.66-.31,5.37-11.58-.65-.37,6.47,14,.79-.29,5.22-15.35-.86c-1.83,3.77-3.72,7.48-5.75,11.14,5.4-.17,7.08-.28,9.82-.55A40.4,40.4,0,0,0,329.2,82L334,79.25a63,63,0,0,1,9.59,14.63Z"/><rect class="cls-18" x="131.68" y="191.01" width="100.41"/><rect class="cls-18" x="133.52" y="288.59" width="140"/><rect class="cls-19" x="388.43" y="394.29" width="102.83" height="102.83" rx="22.28" transform="translate(-20.94 869.72) rotate(-88)"/><g id="TYPE_A" data-name="TYPE A"><path class="cls-5" d="M477.25,442.48c.58-16.74-15.73-30.94-36.36-31.67S403,423.13,402.42,439.87c-.52,15,12.35,28,30.24,31.05,1.21.31,2.85.9,3.23,2a7.46,7.46,0,0,1,0,3.39s-.53,2.62-.64,3.18c-.2.94-.88,3.67,3.17,2.13s22-11.93,30.15-20.69h0c5.63-5.76,8.44-11.71,8.67-18.41"/><path class="cls-20" d="M432.51,432.82l-2.62-.09a.73.73,0,0,0-.75.7h0l-.57,16.3a.73.73,0,0,0,.7.76l2.62.09a.74.74,0,0,0,.76-.7l.57-16.31a.73.73,0,0,0-.71-.75"/><path class="cls-20" d="M450.58,433.45l-2.63-.09a.73.73,0,0,0-.75.7l-.34,9.69-7.12-10.35a.35.35,0,0,0-.05-.08h0l0-.05h0l0,0,0,0,0,0,0,0,0,0h0l0,0h0l0,0h-.2l-2.62-.09a.73.73,0,0,0-.76.7l-.56,16.3a.72.72,0,0,0,.7.75l2.62.1a.74.74,0,0,0,.76-.71h0l.34-9.68,7.12,10.37a.77.77,0,0,0,.18.18h0l0,0h0l0,0h0l.05,0h0a.63.63,0,0,0,.19,0l2.62.09a.73.73,0,0,0,.76-.7l.57-16.3a.73.73,0,0,0-.71-.75h0"/><path class="cls-20" d="M425.71,446.28l-7.13-.25.45-12.95a.72.72,0,0,0-.7-.75h0l-2.63-.1a.73.73,0,0,0-.75.71l-.57,16.3h0a.69.69,0,0,0,.19.51h0a.66.66,0,0,0,.49.22h0l10.49.37a.73.73,0,0,0,.75-.7h0l.09-2.62a.73.73,0,0,0-.7-.75"/><path class="cls-20" d="M464.93,438a.73.73,0,0,0,.75-.7h0l.09-2.63a.72.72,0,0,0-.7-.75l-10.48-.37h0a.74.74,0,0,0-.51.19h0a.68.68,0,0,0-.22.49h0l-.57,16.3h0a.71.71,0,0,0,.18.51v0h0a.77.77,0,0,0,.5.22h0l10.48.36a.73.73,0,0,0,.76-.7l.09-2.62a.74.74,0,0,0-.7-.76l-7.13-.25.09-2.76,7.13.25a.72.72,0,0,0,.75-.7h0l.1-2.63a.73.73,0,0,0-.7-.75h0l-7.13-.25.1-2.76Z"/></g><path class="cls-4" d="M106.91,296.88a23.28,23.28,0,1,1,23.28-23.28A23.26,23.26,0,0,1,106.91,296.88Zm0-44.84a21.56,21.56,0,1,0,21.56,21.56A21.56,21.56,0,0,0,106.91,252ZM99.1,287.4c.64-5.74,2.06-7.66,6.88-12.62,2.9-3,3.58-4.62,3.58-7,0-.93-.14-4.66-2.65-4.66s-2.5,4-2.55,6.09H99.74c.1-2.6.34-10.31,7.37-10.31,4.81,0,7.46,4.07,7.46,8.3,0,4.42-2,6.58-4.37,9.08-3.83,4-4.27,4.47-5.2,7h9.72v4.07Z"/><path class="cls-4" d="M141.8,286.45a50.37,50.37,0,0,0-6.15.22v-6.55a37.29,37.29,0,0,0,6.26.29h14.4V266.33h-14c-3.31,0-4.68,0-6.19.18V260a38,38,0,0,0,6.3.32H159c1.94,0,2.95,0,4-.1-.08,1.26-.11,1.87-.11,3.67v18.79a54.64,54.64,0,0,0,.21,5.94h-6.76v-2.13Z"/><path class="cls-4" d="M197.89,260a26.36,26.36,0,0,0-1.52,3.34,63,63,0,0,1-4.78,9.51,77.33,77.33,0,0,1,7.84,7.56l-4.89,5.11a55.24,55.24,0,0,0-6.8-7.38,43.33,43.33,0,0,1-13.93,11.44,18.51,18.51,0,0,0-4.54-5.43,36.21,36.21,0,0,0,9.75-6.26,37.91,37.91,0,0,0,3.86-4,78.11,78.11,0,0,0-9.36-6.41l4.42-4.35a82.08,82.08,0,0,1,8.5,5.65,39.13,39.13,0,0,0,4.68-11Z"/><path class="cls-4" d="M210.89,259.42a52.13,52.13,0,0,1,9.89,7.06l-4.24,5.61a38.6,38.6,0,0,0-9.79-7.59Zm-3.78,22.35a35.65,35.65,0,0,0,10.83-2.59,21.61,21.61,0,0,0,10.55-8.89,32.93,32.93,0,0,0,3.52-7.05,23.5,23.5,0,0,0,5.3,4.82c-3.28,7.09-6.7,11.34-11.74,14.58-3.89,2.52-7.31,3.85-14,5.4-1.4.32-1.62.36-2.59.64Z"/><path class="cls-4" d="M248.15,289.4a52.58,52.58,0,0,0,.21-5.5V263a34.84,34.84,0,0,0-.25-5.22h6.95a45,45,0,0,0-.18,5.25v4.94a75.74,75.74,0,0,1,16.37,7.48l-3.42,6.12a66.93,66.93,0,0,0-11.33-6.26,9.66,9.66,0,0,1-1.62-.72v9.36a54.05,54.05,0,0,0,.21,5.5Z"/><path class="cls-4" d="M278.82,260.43a35.05,35.05,0,0,0,7.45.5h1a12.91,12.91,0,0,0,1.11-4l6.59.5a11.17,11.17,0,0,0-.76,1.69c-.46,1.05-.68,1.62-.72,1.69l2.2-.14a53.23,53.23,0,0,0,9.11-1.15l.21,5.72-3.24.33c-2.55.25-7,.5-10.72.61a20.58,20.58,0,0,1-1.73,2.66,10.61,10.61,0,0,1,4.57-1.08c3,0,4.79,1.15,5.51,3.49l2.52-.86c.1,0,1.08-.36,2.23-.72A15.29,15.29,0,0,0,307,268.6l2.19,5.69a60.22,60.22,0,0,0-9.18,2.44c0,1,0,1,0,2.6a23.68,23.68,0,0,0,.14,3.09l-5.86.18a29.82,29.82,0,0,0,.18-3.81l-.33.14a8.37,8.37,0,0,0-2.52,1.51,2.49,2.49,0,0,0-.93,1.84c0,1.37,1.33,1.91,4.82,1.91a34.15,34.15,0,0,0,11.52-1.8l.4,6.48a21.76,21.76,0,0,0-3.21.32,71,71,0,0,1-8.67.54c-4.07,0-6.63-.51-8.57-1.66a5.78,5.78,0,0,1-2.84-5.11,6.69,6.69,0,0,1,1.76-4.53,15.88,15.88,0,0,1,5.18-3.86c.87-.43,1.23-.57,2.67-1.22a1.5,1.5,0,0,0-1.44-.9c-1.84,0-4.32,1.26-6.84,3.46a23.06,23.06,0,0,0-3.46,3.63L277.52,275a24.79,24.79,0,0,0,3.82-3.75c.79-1,2.23-3.06,2.77-3.92s.54-.9.68-1.15h-1.15c-1.55,0-1.55,0-3.1,0-.5,0-.75,0-1.25,0h-.54Z"/><path class="cls-4" d="M326.66,261.69h-7.24c-1.69,0-2.59,0-3.59.11v-3.57a34.55,34.55,0,0,0,4.28.22h6.55a9.73,9.73,0,0,0-.22-1.77h5.76a7.88,7.88,0,0,0-.21,1.77h7.23a29.61,29.61,0,0,0,3.85-.18,18.62,18.62,0,0,0-.14,2.84v1.48h.4a21.85,21.85,0,0,0,2.84-.15v3.71a21.32,21.32,0,0,0-3-.14h-.22v1.15a20.54,20.54,0,0,0,.11,2.63c-.9-.08-2.09-.11-3.53-.11H332v.86h8.42a34.43,34.43,0,0,0,3.85-.14v3.06a36.53,36.53,0,0,0-3.85-.15H332v.9h9.79c1.8,0,3-.07,4.28-.17v4c-1.44-.14-2.88-.22-4.28-.22H317c-1.44,0-2.88.08-4.28.22v-4c1.22.1,2.59.17,4.28.17h9.65v-.9H318.6a36.51,36.51,0,0,0-3.89.15V270.4a36.5,36.5,0,0,0,3.89.14h8.06v-.86h-7.24c-1.58,0-2.7,0-3.59.11v-3c1,.07,1.9.11,3.59.11h7.24V266h-9.72a36.56,36.56,0,0,0-4.28.18v-3.78c1.19.11,2.52.18,4.28.18h9.72Zm-10.19,20.48c0-2.12,0-2.77-.1-3.6.86.07,1.33.07,3.45.07H339c2.2,0,2.77,0,3.53-.07a27.27,27.27,0,0,0-.15,3.6v4.36a24.38,24.38,0,0,0,.22,3.88H337v-1H321.76v1h-5.47a38.06,38.06,0,0,0,.18-3.81Zm5.29.5H337v-.93H321.76Zm0,3.64H337v-1H321.76Zm15.88-23.72v-.9H332v.9ZM332,266.91h5.65V266H332Z"/><path class="cls-4" d="M375.55,260.86c-.87.54-1.23.86-4.58,3.85-2.08,1.84-5,4.18-8.81,7-1,.72-1.19.93-1.19,1.26s0,.43,3.38,2.91c3.93,2.84,7,5.33,11,8.82.22.18.54.43,1.12.93l-5.15,5.26a27.43,27.43,0,0,0-3.56-3.92,116,116,0,0,0-10.62-8.82c-1.8-1.41-2.45-2.05-2.92-2.95a6,6,0,0,1-.54-2.38,5.25,5.25,0,0,1,1.33-3.45,25.49,25.49,0,0,1,3.28-2.7,80.21,80.21,0,0,0,9.47-8,13.16,13.16,0,0,0,1.8-2.09Z"/><path class="cls-4" d="M396,279.15a16.88,16.88,0,0,0,.07-1.88c0-.39,0-.39-.15-2.55l-.71-11.41c-.11-1.8-.29-3.75-.44-4.86h8.39c-.18,1.4-.29,2.91-.43,4.86L402,274.72c-.07,1.44-.11,2.27-.11,2.84,0,.4,0,.72.07,1.59Zm-.61,9.25v-6.81h7.23v6.81Z"/><path class="cls-4" d="M409.06,279.15a14.78,14.78,0,0,0,.08-1.88c0-.39,0-.39-.15-2.55l-.72-11.41c-.1-1.8-.29-3.75-.43-4.86h8.39c-.18,1.4-.29,2.91-.43,4.86l-.72,11.41c-.08,1.44-.11,2.27-.11,2.84,0,.4,0,.72.07,1.59Zm-.61,9.25v-6.81h7.24v6.81Z"/><rect class="cls-18" x="129.25" y="391.69" width="119.28"/><path class="cls-4" d="M106.91,195.81a23.28,23.28,0,1,1,23.28-23.28A23.26,23.26,0,0,1,106.91,195.81Zm0-44.85a21.57,21.57,0,1,0,21.56,21.57A21.56,21.56,0,0,0,106.91,151ZM105,186.53V167H99.35v-3.64h1.77c1.71,0,3.92-1.47,4.47-4.86h4.07v28Z"/><path class="cls-4" d="M133.29,183.68v-5.36h30.4c0-.06.13-1.42.39-4.07H146.94c-.1.29-.25.72-.46,1.27s-.37,1-.47,1.23l-6.63-1a169.32,169.32,0,0,0,5.6-19h-4V164h-6V151.55h42.24v12h-4.52v2H149.69c-.29,1.08-.67,2.39-1.13,3.93h22.65c-.23,3.8-.45,6.75-.64,8.84h8.2v5.36h-8.84a37.62,37.62,0,0,1-1.2,5.69,7.09,7.09,0,0,1-1.87,3.15,5.42,5.42,0,0,1-2.53,1.35,20.08,20.08,0,0,1-3.78.27c-2.79,0-7.07-.12-12.87-.35l-.15-5.4c4.59.23,8.43.35,11.54.35a3.64,3.64,0,0,0,2.73-.79c.47-.52.89-1.95,1.25-4.27ZM151,160.59h20.14v-3.78h-19.3C151.61,157.82,151.33,159.09,151,160.59Z"/><path class="cls-4" d="M182.55,185.69v-5.11h45.19v5.11H214.09A89.83,89.83,0,0,1,227,190.6l-2.7,4.82a110.78,110.78,0,0,0-16.11-6.49l1.57-3.24h-9.43l1.82,2.8a38.72,38.72,0,0,1-7.19,3.66,65.87,65.87,0,0,1-9.41,3l-2.21-5a76.91,76.91,0,0,0,13.26-4.42Zm11.2-6.68h-6.53V159.66h14.39V158H183.54v-5.31h18.07v-2.94h6.73v2.94h18.42V158H208.34v1.62h14.74V179Zm0-13.85h22.79v-1.67H193.75Zm0,3.29v1.67h22.79v-1.67Zm0,5v1.67h22.79v-1.67Z"/><path class="cls-4" d="M270.77,186.13l.54,5.55a84.5,84.5,0,0,1-12.77,1q-9.24,0-13.31-2.19a7.22,7.22,0,0,1-4.08-6.8q0-3.69,3.41-6.81t10.29-5.33a4.18,4.18,0,0,0-4.17-2.4q-5.2,0-12.33,10l-5.16-3.1a90.87,90.87,0,0,0,9-15.12h-8.4v-5.21h10.56c.66-1.74,1.3-3.55,1.92-5.45l6.33,1.18c-.39,1.17-.91,2.6-1.57,4.27h20.44v5.21H248.91c-.39.91-1,2.29-1.86,4.12l0,.1a13.72,13.72,0,0,1,5.06-1.08q6.59,0,8.89,5.89,5.26-1.08,10.42-1.67l.49,5.41c-2.88.32-6.09.85-9.63,1.57a56.27,56.27,0,0,1,.44,7.61h-6.53q0-3.78-.2-5.94a21.89,21.89,0,0,0-6.16,2.92c-1.43,1.07-2.14,2.12-2.14,3.17a3.3,3.3,0,0,0,.74,2.23,6.17,6.17,0,0,0,3.19,1.45,30.64,30.64,0,0,0,6.88.59A80.31,80.31,0,0,0,270.77,186.13Z"/><path class="cls-4" d="M310.36,179.31v-5.16h15v5.16a26.28,26.28,0,0,1-3.88,7.71,30.21,30.21,0,0,0,5.75,2.85l-2.12,5a28.73,28.73,0,0,1-7.36-4,31.87,31.87,0,0,1-6.73,4L309.28,191v4.43h-5.5V191q-6.39,1.34-12.68,2.17l-.39-5.11,3-.44V172.18h-1.43l.2,4.62a14.24,14.24,0,0,1-1.5.59,13.59,13.59,0,0,0-1.3.49v8.74c0,2,0,3.43-.12,4.4a4.79,4.79,0,0,1-.74,2.33,2.46,2.46,0,0,1-1.47,1.08,13.27,13.27,0,0,1-2.68.2,39.72,39.72,0,0,1-4.08-.25l-.34-5.25a25.3,25.3,0,0,0,2.8.24c.36,0,.57-.09.64-.29a10.66,10.66,0,0,0,.1-2V179.8c-1.51.39-2.61.67-3.29.83l-.4-5.75q1.38-.28,3.69-.93V163.59h-3.59v-5.41h3.59v-7.9h5.89v7.9h3.44v5.41h-3.44V172a8.81,8.81,0,0,0,.83-.35l.79-.34V167h35.56v5.15H309.28v17.59a23.37,23.37,0,0,0,4.32-2.56,37.35,37.35,0,0,1-4-5.2l3.14-2.7Zm-9.53-14h-6.39V150.82h30v14.49Zm2.95,6.87h-4.87v2.21h4.87Zm-4.87,8.26h4.87v-2.22h-4.87Zm4.87,5.4v-1.57h-4.87v2.5C301.07,186.38,302.7,186.07,303.78,185.84Zm-2.95-29H318v-1.57H300.83Zm0,3.24v1.57H318v-1.57Zm16.45,23.48a19.36,19.36,0,0,0,2.51-4.22h-5.65A21,21,0,0,0,317.28,183.53Z"/><path class="cls-4" d="M359.43,186.62a7.57,7.57,0,0,0,5.25-7.61,5.89,5.89,0,0,0-2.38-5.11c-1.59-1.14-4.12-1.72-7.59-1.72a39.25,39.25,0,0,0-9.7,1.16,50.8,50.8,0,0,0-10,3.9l-2.26-4.52,22.93-13.9v0H336.05v-5.4h31.28l.05,5.55-16.11,8.94.05,0a30.83,30.83,0,0,1,6-.64q7,0,10.64,2.9a10,10,0,0,1,3.61,8.25q0,7-5.06,10.78T352.11,193q-7.32,0-10.95-2.24a7.13,7.13,0,0,1-3.64-6.45,6.57,6.57,0,0,1,3.1-5.48q3.09-2.24,8.54-2.24c3.73,0,6.44.63,8.11,1.87a6.43,6.43,0,0,1,2.5,5.5A10.41,10.41,0,0,1,359.43,186.62Zm-6,1.08a7.7,7.7,0,0,0,.83-3,2.64,2.64,0,0,0-1.18-2.33,7.88,7.88,0,0,0-4.22-.81,7.17,7.17,0,0,0-3.76.81,2.33,2.33,0,0,0-1.3,2q0,3.44,8.35,3.43c.13,0,.34,0,.64,0Z"/><path class="cls-4" d="M394.69,154.35h8.21l-1,25.05h-6.23Zm.49,35.86v-6.88h7.23v6.88Z"/><path class="cls-4" d="M413.6,154.35h8.21l-1,25.05h-6.23Zm.49,35.86v-6.88h7.23v6.88Z"/><path class="cls-4" d="M106.91,396.3A23.28,23.28,0,1,1,130.19,373,23.26,23.26,0,0,1,106.91,396.3Zm0-44.84A21.57,21.57,0,1,0,128.47,373,21.56,21.56,0,0,0,106.91,351.46ZM99.1,386.83c.64-5.75,2.06-7.67,6.88-12.63,2.9-3,3.58-4.62,3.58-7,0-.94-.14-4.67-2.65-4.67s-2.5,4-2.55,6.09H99.74c.1-2.6.34-10.31,7.37-10.31,4.81,0,7.46,4.07,7.46,8.3,0,4.42-2,6.58-4.37,9.08-3.83,4-4.27,4.47-5.2,7h9.72v4.08Z"/><path class="cls-4" d="M140.5,390.7c-3,0-4.73,0-6.36.13a39.73,39.73,0,0,0,.34-6.28V361.84a53.5,53.5,0,0,0-.34-6.92h9.37a42.82,42.82,0,0,0-.34,6.79V383h10.4a50.36,50.36,0,0,0,7.14-.3V391a55.15,55.15,0,0,0-7.14-.3Z"/><path class="cls-4" d="M173.09,354.92a40.89,40.89,0,0,0-.34,6.36v23.05a42.82,42.82,0,0,0,.34,6.37h-9.46a40.94,40.94,0,0,0,.35-6.37V361.28a39.74,39.74,0,0,0-.35-6.36Z"/><path class="cls-4" d="M199,372.51a56.92,56.92,0,0,1,3.09,5.11c-.17-2-.25-3.95-.25-6.36v-9.8a46.41,46.41,0,0,0-.35-6.54h9.16a46.6,46.6,0,0,0-.34,6.54v22.83a54,54,0,0,0,.34,6.41h-9.42a45,45,0,0,0-3.22-5.46l-8-12a50.32,50.32,0,0,1-3.09-5.29,62.93,62.93,0,0,1,.3,6.41V384a48.42,48.42,0,0,0,.34,6.71h-9.15a45.62,45.62,0,0,0,.34-6.75V361.33a49.43,49.43,0,0,0-.34-6.41h9.33a28.58,28.58,0,0,0,3.05,5.38Z"/><path class="cls-4" d="M243,391a54.44,54.44,0,0,0-7.1-.3H222.33c-3.27,0-4.47,0-6.32.13a39.57,39.57,0,0,0,.34-6.28V361.07a45.34,45.34,0,0,0-.34-6.28c1.76.09,3,.13,6.32.13H236a53.85,53.85,0,0,0,6.41-.3v8a53.85,53.85,0,0,0-6.41-.3H224.86v6.32h9.29a51.14,51.14,0,0,0,6.45-.3v7.95a54.13,54.13,0,0,0-6.45-.3h-9.29v7.23H236a59.34,59.34,0,0,0,7-.3Z"/><path class="cls-4" d="M257.93,358c.73,0,1.29,0,1.64,0,1.11,0,2.66-.09,7.35-.39,6.19-.39,10.36-.6,18.53-.9l4.43-.18,1.81-.08c1.46,0,1.72-.09,1.93-.09a3.6,3.6,0,0,0,1-.17L295,364a7.13,7.13,0,0,0-1.21-.08,20.1,20.1,0,0,0-9.84,3c-4.3,2.62-6.84,6.23-6.84,9.76,0,2.49,1.16,4.17,3.61,5.33a22.69,22.69,0,0,0,8.21,1.55c.35,0,.65,0,1.29,0l-1,8.16a13.77,13.77,0,0,0-1.6-.21c-4.9-.43-8.12-1.16-10.88-2.41-5.07-2.36-7.69-6.32-7.69-11.78a14.73,14.73,0,0,1,3.65-9.72,17.71,17.71,0,0,1,4.22-3.65l-2,.21c-.95.09-2.46.22-10.5.86a47,47,0,0,0-6.06.82Zm30.49,9.81a27.81,27.81,0,0,1,4.17,6.23l-4.13,1.89a26.84,26.84,0,0,0-4.17-6.36Zm5.76-2.5a29.51,29.51,0,0,1,4.21,6.07l-4,1.85a30.46,30.46,0,0,0-4.08-6.2Z"/><path class="cls-4" d="M329.57,386.74c.9.09,2.75.13,4.39.13s4.68-.17,6.75-.34a28.4,28.4,0,0,0-1.42,6.27c-3.19.09-4.35.13-5.08.13-8.47,0-12.12-1.12-15.73-4.81a27.22,27.22,0,0,1-3.83,5.54,22.2,22.2,0,0,0-3.87-3.82c-.56,2.62-2,3.39-6.41,3.39-1.12,0-1.8,0-3.18-.13a20.76,20.76,0,0,0-1.38-6.1,26.14,26.14,0,0,0,3.31.21c1.17,0,1.38-.21,1.38-1.37v-7.1l-2.36.65-1.08.34a2,2,0,0,1-.52.13l-.6-6.54a23,23,0,0,0,4.56-.9v-6.23h-1.2a27,27,0,0,0-3.06.17V360a18.9,18.9,0,0,0,3.14.21h1.12v-2.88a28.82,28.82,0,0,0-.21-4.43h6.83a29.19,29.19,0,0,0-.21,4.39v2.92H312a9.84,9.84,0,0,0,1.93-.13v6.15c-.69,0-1.25-.08-1.93-.08h-1.12v4.38l2.58-.9v6c-1.34.56-1.64.64-2.58,1v11.44a18.12,18.12,0,0,0,4.86-10.71l6.23,1.38c-.13.3-.34,1-.64,2.06a16.17,16.17,0,0,1-.56,1.85,7.75,7.75,0,0,0,2.45,2.28v-8.39H317.4c-1.33,0-2.24.05-3.1.13v-5.85c1.08.09,2.2.13,3.87.13h17.46a36,36,0,0,0,4.13-.17v5.93a39.47,39.47,0,0,0-4.13-.17h-6.06v2.15h5.07a32.53,32.53,0,0,0,3.92-.17v5.59a33.38,33.38,0,0,0-3.92-.17h-5.07Zm-11.09-17.11c-1.55,0-2.46,0-3.32.08,0-.17,0-1.67.13-4.47v-7.4a35.49,35.49,0,0,0-.17-4.08c1.33.13,2.8.21,4.3.21h13.93a38,38,0,0,0,4.17-.21,38.91,38.91,0,0,0-.21,4.39v7.13c0,1.85,0,2.88.17,4.48-1.38-.09-2.58-.13-4.43-.13Zm3-9.42H331v-1.42h-9.54Zm0,5.16H331V364h-9.54Z"/><path class="cls-4" d="M359.24,357.72a31.76,31.76,0,0,0-.26-4.65h7.35a28.41,28.41,0,0,0-.25,4.65v8h7.18v-6a28.49,28.49,0,0,0-.18-3.61h7a29.18,29.18,0,0,0-.21,4.13v8.51a22.08,22.08,0,0,0,.17,3.31,25.34,25.34,0,0,0-3.4-.17H366.08v12.77h8.55v-6.24a31,31,0,0,0-.17-3.69h7a40.5,40.5,0,0,0-.22,4.42V388a33.85,33.85,0,0,0,.26,4.94h-6.88v-1.84H351.24V393h-6.88a39.66,39.66,0,0,0,.26-4.94V379.3a39.73,39.73,0,0,0-.22-4.47h7a27.25,27.25,0,0,0-.17,3.74v6.15h8V372h-9.85a26.53,26.53,0,0,0-3.52.17,24.28,24.28,0,0,0,.17-3.31v-8.47c0-.78-.13-3.36-.22-4.17h7a26.6,26.6,0,0,0-.17,3.65v5.94h6.58Z"/><path class="cls-4" d="M402.37,379.86a17.17,17.17,0,0,0,.08-1.94c0-.81,0-.81-.17-3.35l-.86-13.63c-.08-1.76-.3-3.7-.51-5.8h10c-.12,1-.38,4-.51,5.8l-.86,13.63c-.09,1.81-.13,2.67-.13,3.31,0,.43,0,.91,0,2Zm-.78,11.05v-8.13h8.65v8.13Z"/><path class="cls-4" d="M143.1,401.28l.37.39-4.16,4.19,4.16,4.16-.37.39-4.17-4.13-4.15,4.13-.39-.39,4.17-4.16-4.17-4.19.39-.39,4.15,4.17Zm-6.63,4.56a.9.9,0,0,1-.89.91.91.91,0,0,1-.91-.91.9.9,0,0,1,1.8,0Zm3.35,3.43a.91.91,0,0,1-.89.9.9.9,0,0,1-.08-1.8h.06l0,0A.89.89,0,0,1,139.82,409.27Zm0-6.82a.89.89,0,0,1-.89.91.91.91,0,0,1-.9-.91.9.9,0,0,1,.9-.89A.89.89,0,0,1,139.83,402.45Zm3.35,3.41a.89.89,0,1,1-.89-.9A.89.89,0,0,1,143.18,405.86Z"/><path class="cls-4" d="M147.26,410.68c-.81,0-1.29,0-1.73,0a10.6,10.6,0,0,0,.09-1.71v-6.2a14.2,14.2,0,0,0-.09-1.88h2.55a11.87,11.87,0,0,0-.09,1.85v5.82h2.84a14,14,0,0,0,1.95-.08v2.25a15.22,15.22,0,0,0-1.95-.08Z"/><path class="cls-4" d="M156.16,400.92a10.71,10.71,0,0,0-.1,1.73v6.29a11.28,11.28,0,0,0,.1,1.74h-2.58a11.43,11.43,0,0,0,.09-1.74v-6.29a11,11,0,0,0-.09-1.73Z"/><path class="cls-4" d="M163.22,405.71a15.84,15.84,0,0,1,.85,1.4c0-.54-.07-1.08-.07-1.74V402.7a12.6,12.6,0,0,0-.1-1.78h2.5a12.8,12.8,0,0,0-.09,1.78v6.23a14.15,14.15,0,0,0,.09,1.75h-2.57a12,12,0,0,0-.88-1.49l-2.17-3.28a14.57,14.57,0,0,1-.84-1.44,16.45,16.45,0,0,1,.08,1.75v2.63a13,13,0,0,0,.09,1.83h-2.5a12.05,12.05,0,0,0,.1-1.84v-6.18a13,13,0,0,0-.1-1.74h2.55a8.64,8.64,0,0,0,.83,1.46Z"/><path class="cls-4" d="M175.23,410.76a15,15,0,0,0-1.94-.08H169.6c-.9,0-1.22,0-1.73,0A10.91,10.91,0,0,0,168,409v-6.41a12.62,12.62,0,0,0-.09-1.71c.48,0,.81,0,1.73,0h3.74a13.92,13.92,0,0,0,1.75-.09V403a14.19,14.19,0,0,0-1.75-.08h-3.05v1.72h2.53a14.06,14.06,0,0,0,1.76-.08v2.17a14.26,14.26,0,0,0-1.76-.08h-2.53v2h3a18.1,18.1,0,0,0,1.91-.08Z"/><path class="cls-4" d="M180,402.12a11.2,11.2,0,0,0-.1-1.56h2a8.27,8.27,0,0,0-.06,1.24v.32l.06,5.24a25,25,0,0,0,2.76-1.5l.31,1.72a32.2,32.2,0,0,1-5.14,2.71l-.35.18-.48-1.94a9.51,9.51,0,0,0,1.06-.36Zm9.15-1.58c0,.22,0,.3,0,.74a13.44,13.44,0,0,1-1.27,6.19,6.64,6.64,0,0,0,2.21,2.06,9.29,9.29,0,0,0-1,1.88,9.23,9.23,0,0,1-2.23-2.37,9.21,9.21,0,0,1-3.59,2.46,5.12,5.12,0,0,0-1-1.63c2.15-.85,3.33-1.8,4.07-3.25a11.61,11.61,0,0,0,1-5.21,4.51,4.51,0,0,0-.07-.87Zm-5.17.6a19.79,19.79,0,0,1,2.38,2.93l-1.68,1.15a16.13,16.13,0,0,0-2.28-3.11Z"/><path class="cls-4" d="M197.74,406.11a12.41,12.41,0,0,1-1.15-1.23,10.05,10.05,0,0,1-4.41,6.5,5.11,5.11,0,0,0-1.27-1.46,9,9,0,0,0,2.92-2.75,8.11,8.11,0,0,0-1.26-1.33,10.77,10.77,0,0,1-.82,1,6.07,6.07,0,0,0-1.05-1.66,8.43,8.43,0,0,0,2.2-4.91l1.89.31c-.07.21-.07.21-.29,1.07H196c.48,0,.65,0,1,0,0,.2-.05.33-.08.65s0,.36-.05.61a8,8,0,0,0,.85,1.08v-2.14a9.74,9.74,0,0,0-.07-1.48h1.94a11.27,11.27,0,0,0-.07,1.48v3.59a10.2,10.2,0,0,0,2.5,1.19,7.75,7.75,0,0,0-.88,1.83c-.58-.3-1-.55-1.62-.92v2.18a13,13,0,0,0,.09,1.68h-2a14,14,0,0,0,.09-1.68ZM194,403.23a12.42,12.42,0,0,1-.54,1.18,9.85,9.85,0,0,1,1.18,1.15,10.16,10.16,0,0,0,.54-2.33Z"/><path class="cls-4" d="M209.84,405.69a6.36,6.36,0,0,0,1.93-.37,4,4,0,0,1,1,2.62,2.92,2.92,0,0,1-1.2,2.33,4.65,4.65,0,0,1-2.85.83,4.07,4.07,0,0,1-2.83-.93,2.78,2.78,0,0,1-.82-2.18c0-.26,0-.52,0-.87a12,12,0,0,1-1.51-.23,2.4,2.4,0,0,0-.5-.07l.14-1.88a8.1,8.1,0,0,0,2,.41c0-.12.07-.52.16-1.17-.47-.05-.85-.12-1.62-.27l-.42-.08.13-1.82a10.69,10.69,0,0,0,2.12.4,10.41,10.41,0,0,0,.18-1.68v-.17l2.17.18a8.65,8.65,0,0,0-.34,1.71,11.56,11.56,0,0,0,2.55-.29l-.07,1.95-.85.07a17.51,17.51,0,0,1-1.92.08,3.58,3.58,0,0,1-.09.57l-.08.64h.25a10.25,10.25,0,0,0,2.43-.27Zm0,1.4-.37,0a13.8,13.8,0,0,1-1.85.12h-.52a4.86,4.86,0,0,0,0,.56,1.25,1.25,0,0,0,.37,1,1.81,1.81,0,0,0,1.26.39c1.28,0,2-.56,2-1.5a2.89,2.89,0,0,0-.86-1.87Z"/><path class="cls-4" d="M216.31,401.44a7.79,7.79,0,0,0-.05-1h1.85a6,6,0,0,0-.06,1V402h.54a7.66,7.66,0,0,0,1.16-.06v1.73a5.2,5.2,0,0,0-.75,0,12.21,12.21,0,0,1-.73,3.44c.58.68,1,1.2,1.6,2l-1.24,1.52c-.52-.79-.72-1.08-1.22-1.74a14.22,14.22,0,0,1-2.14,2.63,4.76,4.76,0,0,0-1.18-1.61,7.58,7.58,0,0,0,2.15-2.46,26.87,26.87,0,0,0-1.91-2l1.16-1.27c1,.95,1.07,1.06,1.47,1.49a9.54,9.54,0,0,0,.29-2h-1.87c-.4,0-.77,0-1.15.06V401.9a9.13,9.13,0,0,0,1.24.07h.84Zm4.39,3.21a16.83,16.83,0,0,1,1.58,2.79l-1.49,1a12.8,12.8,0,0,0-1.58-3Zm.38-.5a10.31,10.31,0,0,0-1.12.05v-1.78a8.15,8.15,0,0,0,1.12.06h1.31v-.54a11.28,11.28,0,0,0-.07-1.51h1.94a11.48,11.48,0,0,0-.07,1.51v.54a5.34,5.34,0,0,0,1-.07v1.8h-.13a6.28,6.28,0,0,0-.91-.05v5.5c0,1.36-.46,1.68-2.36,1.68l-1,0a6.48,6.48,0,0,0-.5-1.76,12.78,12.78,0,0,0,1.47.13c.53,0,.62-.05.62-.27v-5.26Z"/><path class="cls-4" d="M235.42,410.62a9.43,9.43,0,0,0-.38-2.12c0,.11,0,.11,0,.31-.14,2.19-.41,2.49-2.22,2.49-1.58,0-2-.19-2-1V406a6.53,6.53,0,0,0-.07-1.13h1.67a10.65,10.65,0,0,0-1.94-1.15l.82-.69h-2.93a28.87,28.87,0,0,1-.34,5.63,9.19,9.19,0,0,1-.9,2.71,9.56,9.56,0,0,0-1.44-1.47c.73-1.39.93-2.85.93-6.84,0-.85,0-1.32,0-1.76a11.44,11.44,0,0,0,1.27.05h2.88v-.41a2.65,2.65,0,0,0-.05-.59h1.94a2.43,2.43,0,0,0,0,.6v.4h2.76a11.44,11.44,0,0,0,1.49-.07v1.81a12.76,12.76,0,0,0-1.49-.06h-2.88a17.78,17.78,0,0,1,2.32,1.56l-1.23,1.25a7.6,7.6,0,0,0-1-.86,9.2,9.2,0,0,0,0,1v3.27c0,.21.06.26.35.26s.43,0,.49-.15a6.84,6.84,0,0,0,.11-1.75,6.09,6.09,0,0,0,1.47.52,14.56,14.56,0,0,0-.83-2.18l1.5-.7a18.51,18.51,0,0,1,1.48,4.51Zm-7.32-.72a8.23,8.23,0,0,0,.62-2.39,18.67,18.67,0,0,0,.16-2.14l1.61.42a19.72,19.72,0,0,1-.81,5Z"/><path class="cls-4" d="M247.76,401.82l-.41.37a20.58,20.58,0,0,1-2.6,2c.34.22.34.22.63.43h1.07a8,8,0,0,0,1.35-.07l1,1.08a2,2,0,0,0-.28.36,15.16,15.16,0,0,1-2.63,3.08,5.48,5.48,0,0,0-1.39-1.29,8.19,8.19,0,0,0,1.65-1.48h-2.05v3.51c0,.7-.18,1.07-.61,1.28a5.71,5.71,0,0,1-2.21.23h-.74a6.23,6.23,0,0,0-.49-1.83,12.66,12.66,0,0,0,1.78.12c.34,0,.4,0,.4-.32v-3h-2.55a15.85,15.85,0,0,0-1.76.07v-1.82a15.29,15.29,0,0,0,1.79.07h2.58c-.8-.54-1.28-.83-2.07-1.27l1.13-1h-.81a13,13,0,0,0-1.63.06v-1.81a12.37,12.37,0,0,0,1.67.07h5a8.12,8.12,0,0,0,1.15-.05Zm-6,.56c.62.33.62.33,1.49.84a6.88,6.88,0,0,0,1.22-.84Z"/><path class="cls-4" d="M254.27,405.34h-2.08a10.16,10.16,0,0,0-1.23.05v-1h-1.33a6.26,6.26,0,0,0,.06-1v-1.09a7.39,7.39,0,0,0-.05-.92c.47,0,.91,0,1.41,0h2.86v-.23a3.39,3.39,0,0,0-.06-.76h2a3.35,3.35,0,0,0-.06.75v.24h3c.48,0,.94,0,1.4,0a7.09,7.09,0,0,0-.05.92v1.11a6.9,6.9,0,0,0,.06,1h-1.3v1a10.4,10.4,0,0,0-1.26-.05H256v1.09h2.09a7.6,7.6,0,0,0,1.21-.06v1.69c-.35,0-.63-.05-1.21-.05H256v1.42c.45,0,.78.05,1.2.05,1,0,1.88,0,3.28-.15a10.22,10.22,0,0,0-.39,1.82c-1.24,0-1.71,0-2.36,0a10.5,10.5,0,0,1-3.79-.44,4.14,4.14,0,0,1-1.77-1.32,8.59,8.59,0,0,1-1.44,2,6.3,6.3,0,0,0-1.4-1.37,6.69,6.69,0,0,0,1.92-3.08,7.15,7.15,0,0,0,.28-1.18l1.79.33c-.07.29-.12.48-.15.58-.07.28-.17.63-.32,1.09a3.38,3.38,0,0,0,.59.74,3,3,0,0,0,.83.51Zm4.14-2.35h-7v.75h7Z"/><path class="cls-4" d="M261.46,401.75h.45c.3,0,.72,0,2-.11,1.69-.1,2.83-.16,5.06-.24l1.21-.05.49,0c.4,0,.47,0,.53,0a1.16,1.16,0,0,0,.27,0l.1,2.12-.32,0a5.43,5.43,0,0,0-2.69.82,3.39,3.39,0,0,0-1.87,2.66,1.51,1.51,0,0,0,1,1.46,6.3,6.3,0,0,0,2.24.42h.35L270,411a2.11,2.11,0,0,0-.43-.06,8.92,8.92,0,0,1-3-.66,3.32,3.32,0,0,1-2.1-3.21,4,4,0,0,1,1-2.65,4.36,4.36,0,0,1,1.15-1l-.56.06-2.86.23a14.78,14.78,0,0,0-1.65.22Zm8.32,2.67a7.78,7.78,0,0,1,1.14,1.7l-1.13.52a7.11,7.11,0,0,0-1.14-1.73Zm1.57-.68a8.25,8.25,0,0,1,1.15,1.66l-1.09.5a9,9,0,0,0-1.11-1.69Z"/><path class="cls-4" d="M273.14,401.83c.29,0,.42,0,.71,0l4.57-.12a6.23,6.23,0,0,0-.09-1.25h2.08a7.61,7.61,0,0,0-.06,1.2c1.95,0,2.82,0,3.29-.08v1.92c-.53,0-.76-.05-2.11-.05h-1.18v1.73a3.68,3.68,0,0,1,.47,2,3.78,3.78,0,0,1-1.93,3.25,9,9,0,0,1-2.36.95,5.33,5.33,0,0,0-1.12-1.85,5.94,5.94,0,0,0,2.42-.72,1.89,1.89,0,0,0,.87-.92,2.13,2.13,0,0,1-1.57.55,2.16,2.16,0,0,1-2.33-2.15c0-1.34,1.11-2.25,2.73-2.25a2.5,2.5,0,0,1,.91.13v-.37a2.27,2.27,0,0,0,0-.28c-2.43.07-4.34.18-5.24.31Zm3.65,4.38a.69.69,0,0,0,.77.63.8.8,0,0,0,.89-.7c0-.37-.3-.61-.77-.61S276.79,405.81,276.79,406.21Z"/><path class="cls-4" d="M289.1,409.16a2.23,2.23,0,1,1-2.23-2.22A2.23,2.23,0,0,1,289.1,409.16Zm-3.25,0a1,1,0,1,0,1-1A1,1,0,0,0,285.85,409.16Z"/><path class="cls-21" d="M422.7,285.79a48.61,48.61,0,0,0,3.18-6.48,34,34,0,0,0,2.63-7,1.93,1.93,0,0,0,0-1.21c-.77-1.88-.76-1.92.58-3.31.17-.18.35-.34.53-.5.51,0,.76.42,1.06.74l12.83,13.44c.3.32.7.58.71,1.11-.39.42-.75.86-1.16,1.24a1.4,1.4,0,0,1-1.86.29,2.62,2.62,0,0,0-2.71-.12,75.15,75.15,0,0,0-11,5.22c-.91.5-1.47.54-2.19-.33a11.68,11.68,0,0,0-2.56-2.55Z"/><path class="cls-21" d="M467.63,227.44l1.68-1.75h1.2a27.59,27.59,0,0,1,3,3c3,3.08,5.9,6.18,8.86,9.27,2.08,2.18,2.06,2.67-.16,4.76-3.34-3.45-6.69-6.9-10-10.37C470.67,230.73,469.16,229.08,467.63,227.44Z"/><path class="cls-22" d="M434.62,262c.26-.3.51-.62.79-.92q13.38-14,26.77-28c.19-.2.4-.39.61-.58.28.35.54.71.85,1q6.41,6.72,12.82,13.43c.3.32.65.59,1,.89q-9.22,9.69-18.45,19.39c-3.24,3.39-6.5,6.75-9.74,10.12Zm31.25-20.52a9.78,9.78,0,0,0-4.34,1.2,39.28,39.28,0,0,0-14.76,13.48,21.34,21.34,0,0,0-3.67,8.19c-.58,3.14,1.19,5,4.18,4.51a16.83,16.83,0,0,0,6.05-2.53,40.65,40.65,0,0,0,10.72-10c2.39-3.13,4.49-6.46,5.15-10.55C469.62,243.18,468.33,241.46,465.87,241.46Z"/><path class="cls-23" d="M434.62,262l14.63,15.33c-.8.83-1.59,1.67-2.38,2.5-2.37-2.45-4.76-4.89-7.11-7.36-2.53-2.64-5-5.31-7.53-8Z"/><path class="cls-22" d="M432.23,264.48c2.51,2.66,5,5.33,7.53,8,2.35,2.47,4.74,4.91,7.11,7.36a22.07,22.07,0,0,1-2.65,2.73c0-.53-.41-.79-.71-1.11L430.68,268c-.3-.32-.55-.73-1.06-.74A22.1,22.1,0,0,1,432.23,264.48Z"/><path class="cls-22" d="M467.63,227.44c1.53,1.64,3,3.29,4.59,4.91,3.32,3.47,6.67,6.92,10,10.37a16.33,16.33,0,0,1-2.42,2.56L465.19,230A16.24,16.24,0,0,1,467.63,227.44Z"/><path class="cls-23" d="M465.19,230l14.62,15.31-2.37,2.52c-.33-.3-.68-.57-1-.89q-6.42-6.71-12.82-13.43c-.31-.32-.57-.68-.85-1Z"/><path class="cls-24" d="M465.87,241.46c2.46,0,3.75,1.72,3.33,4.29-.66,4.09-2.76,7.42-5.15,10.55a40.65,40.65,0,0,1-10.72,10,16.83,16.83,0,0,1-6.05,2.53c-3,.5-4.76-1.37-4.18-4.51a21.34,21.34,0,0,1,3.67-8.19,39.28,39.28,0,0,1,14.76-13.48A9.78,9.78,0,0,1,465.87,241.46Z"/><path class="cls-25" d="M37.15,116.41l.89-.19A2,2,0,0,1,39.3,118c.22,1.28.52,2.54.78,3.81.29,1.43.56,2.86.86,4.28a1.27,1.27,0,1,0,2.49-.45c-.38-2-.82-4-1.24-6-.12-.71-.2-1.43-.38-2.13a2.25,2.25,0,0,1,.34-2.11l1.07-.22c.9.44,1.05,1.3,1.22,2.16.61,3,1.21,6.07,1.82,9.11l.21,1.84c0,2.26-.34,4.42-2.24,6-.29.24-.2.55-.14.85q.66,3.19,1.31,6.38l.69,3.6,2.38,11.79c.14.71.31,1.42.4,2.13a2.6,2.6,0,0,1-3.19,3,2.83,2.83,0,0,1-2.06-2.5c-.51-2.55-.93-5.11-1.59-7.63q-1.58-7.94-3.14-15.87a.72.72,0,0,0-.55-.64,6.11,6.11,0,0,1-2.73-1.73,16.3,16.3,0,0,1-2.42-6.39c-.49-2.55-1-5.1-1.55-7.64a2.45,2.45,0,0,1,.33-2.14l1.07-.22A2.24,2.24,0,0,1,34.17,119c.49,2.62,1,5.23,1.57,7.83.14.65.26,1.36,1.17,1.36s1.5-.35,1.42-1.22a10,10,0,0,0-.3-1.42c-.3-2.36-.88-4.68-1.35-7A2.1,2.1,0,0,1,37.15,116.41Z"/><path class="cls-26" d="M71.45,109.49l1.08-.22a3.7,3.7,0,0,1,2,1.51,7.61,7.61,0,0,1,.8,2.21c.61,3,1.24,5.94,1.86,8.91,0,.38.1.78.18,1.16q1.64,8.19,3.3,16.38c.14.71.32,1.42.48,2.13.07.44.12.9.21,1.34.58,2.88,1.16,5.75,1.75,8.63a3.24,3.24,0,0,1-.13,2.13,2.56,2.56,0,0,1-2.58,1.47A2.7,2.7,0,0,1,78,152.86c-.23-1-.41-2-.61-2.93l-3-15c.06-1.25-.7-1.86-1.76-2.24a9,9,0,0,1-2.4-2.78,20.57,20.57,0,0,1-1.76-4.73l-.33-1.82a24.93,24.93,0,0,1,.45-8.82C69.13,112.63,69.76,110.75,71.45,109.49Z"/><path class="cls-27" d="M74.35,134.92l3,15a23.43,23.43,0,0,1-11.73,8.13c-.24.08-.45.18-.49.46l-.36.08a5,5,0,0,0-2.86.57l-.35.07c-.18-.29-.45-.25-.73-.22a21.5,21.5,0,0,1-5.07-.05,28.65,28.65,0,0,1-7.32-2.09q-1.19-5.9-2.38-11.79c.21.22.42.43.62.66,4.58,5.1,10.24,6.9,16.76,4.86,6-1.89,9.56-6.26,10.62-12.53C74.27,137,74.27,136,74.35,134.92Z"/><path class="cls-27" d="M68.55,114.53a24.93,24.93,0,0,0-.45,8.82c-.29-.16-.58-.32-.86-.5-4.82-3.09-9.86-3.29-15.07-1.1a16.49,16.49,0,0,0-5.91,4.7c-.61-3-1.21-6.08-1.82-9.11,1.13-.71,2.23-1.47,3.41-2.09s2.51-1.18,3.77-1.76l5-1a2.3,2.3,0,0,0,1.16.08,23,23,0,0,1,9,1.39A4.94,4.94,0,0,0,68.55,114.53Z"/><path class="cls-27" d="M42,151.86a1.41,1.41,0,0,1-.85-.64,22.67,22.67,0,0,1-4.65-8.36c-.08-.27-.15-.53-.49-.58l-.07-.36a5,5,0,0,0-.58-2.86l-.07-.36c.4-.26.19-.63.18-1a12.54,12.54,0,0,1,.11-4.1,6.11,6.11,0,0,0,2.73,1.73.72.72,0,0,1,.55.64Q40.45,143.93,42,151.86Z"/><path class="cls-27" d="M77.16,121.9c.44.07.61.45.82.77a23.7,23.7,0,0,1,2.56,5,2.24,2.24,0,0,0,.52.94l1.08,5.35a14,14,0,0,0-.12,3,29.54,29.54,0,0,1-.46,3.75c-.07.35-.08.73-.44.95-.16-.71-.34-1.42-.48-2.13q-1.67-8.19-3.3-16.38C77.26,122.68,77.21,122.28,77.16,121.9Z"/><path class="cls-27" d="M68.43,125.17a20.57,20.57,0,0,0,1.76,4.73,9,9,0,0,0,2.4,2.78,17.38,17.38,0,0,1,.38,2.7,14.24,14.24,0,0,1-27,6.78c-.14-.26-.21-.59-.57-.67q-.65-3.18-1.31-6.38c-.06-.3-.15-.61.14-.85,1.9-1.55,2.21-3.71,2.24-6,.56-.31.75-.93,1.13-1.39a14.3,14.3,0,0,1,19.25-2.77C67.38,124.48,67.78,125,68.43,125.17Z"/><path class="cls-28" d="M45.4,141.49c.36.08.43.41.57.67a14.24,14.24,0,0,0,27-6.78,17.38,17.38,0,0,0-.38-2.7c1.06.38,1.82,1,1.76,2.24-.08,1.05-.08,2.12-.26,3.16-1.06,6.27-4.58,10.64-10.62,12.53-6.52,2-12.18.24-16.76-4.86-.2-.23-.41-.44-.62-.66Z"/><path class="cls-28" d="M68.43,125.17c-.65-.16-1.05-.69-1.58-1A14.3,14.3,0,0,0,47.6,126.9c-.38.46-.57,1.08-1.13,1.39l-.21-1.84a16.49,16.49,0,0,1,5.91-4.7c5.21-2.19,10.25-2,15.07,1.1.28.18.57.34.86.5Z"/><path class="cls-27" d="M40.08,121.76c.75-.66,1.15-1.67,2.11-2.12.42,2,.86,4,1.24,6a1.27,1.27,0,1,1-2.49.45C40.64,124.62,40.37,123.19,40.08,121.76Z"/><path class="cls-27" d="M36.91,128.15A4.15,4.15,0,0,1,38,125.51a10,10,0,0,1,.3,1.42C38.41,127.8,37.84,128.26,36.91,128.15Z"/><path class="cls-29" d="M72.55,241a.82.82,0,0,0,.65-.24c1.5-1.49,3-3,4.48-4.51A1.18,1.18,0,0,0,76,234.59c-1.53,1.47-3,3-4.5,4.49a1.08,1.08,0,0,0-.12,1.28A1.12,1.12,0,0,0,72.55,241Z"/><path class="cls-29" d="M43.43,270a1.07,1.07,0,0,0-.65-1.11,1.23,1.23,0,0,0-1.47.3c-1.34,1.34-2.69,2.67-4,4a1.28,1.28,0,0,0-.2,1.88c.52.54,1.25.49,1.93-.17,1.31-1.29,2.6-2.6,3.9-3.9A1.3,1.3,0,0,0,43.43,270Z"/><path class="cls-29" d="M48.51,272.15a1.21,1.21,0,0,0-.78-1.21,1,1,0,0,0-1.36.36A15.15,15.15,0,0,0,45,275.44c-.1.56.31.94.85,1.11a1,1,0,0,0,1.26-.45A30.5,30.5,0,0,0,48.51,272.15Z"/><path class="cls-29" d="M79.08,243.71a1.24,1.24,0,0,0-1.71-1.14c-.94.3-1.87.63-2.79,1a1.22,1.22,0,1,0,.8,2.29c.94-.3,1.86-.65,2.79-1A1.3,1.3,0,0,0,79.08,243.71Z"/><path class="cls-30" d="M35.59,255.42c.28-.15.3-.46.46-.69.9-1.33,1.93-1.54,3.61-.71a2.5,2.5,0,0,0,.87,1.85q6.64,6.63,13.29,13.26a12.4,12.4,0,0,0,4.09,2.66,14.75,14.75,0,0,0,4.19,1c1.76.18,3,1.43,4.6,2-1,1.22-2.34,1.19-3.72.81a3.63,3.63,0,0,1-1.08-.49,8.54,8.54,0,0,0-4.23-1.3,11.79,11.79,0,0,1-7.24-3.16c-4.61-4.22-9.17-8.49-13.76-12.73-.47-.43-.65-1-1.08-1.48Z"/><path class="cls-31" d="M68.74,233.15c1.07.53,1.24.94.85,2.08q-.48,1.41-1,2.79a1.21,1.21,0,0,1-1.58.88,1.23,1.23,0,0,1-.68-1.68c.29-.91.64-1.81.92-2.72a2,2,0,0,1,1.14-1.35Z"/><path class="cls-31" d="M35.59,265.79a2.34,2.34,0,0,1,1.39-1c.78-.24,1.54-.56,2.32-.8a1.23,1.23,0,0,1,1.69.67,1.21,1.21,0,0,1-.86,1.59c-.92.36-1.86.67-2.78,1s-1.33-.15-1.76-.77Z"/><path class="cls-32" d="M66.7,274.79c-1.57-.61-2.84-1.86-4.6-2a14.75,14.75,0,0,1-4.19-1,12.4,12.4,0,0,1-4.09-2.66q-6.66-6.61-13.29-13.26a2.5,2.5,0,0,1-.87-1.85c-.06-.49.28-.87.36-1.32,1.82-1.48,2.73-1.43,4.43.27q3.39,3.39,6.79,6.77c.16.17.32.6.65.26s.56-.62.23-1.05c-.14-.17-.31-.33-.47-.49q-5.1-5.1-10.21-10.19a2.9,2.9,0,0,1-.93-1.84c-.08-.48.24-.9.21-1.38a1.63,1.63,0,0,0,.38-.17c1.61-1.36,2.43-1.33,3.91.14l8.77,8.76c.32.31.69.57,1,.89s.45.19.71,0c.52-.46.23-.76-.12-1.11Q49.7,247.88,44,242.2a3,3,0,0,1-1-1.64c-.11-.75.38-1.32.59-2,2.09-1.06,2.61-1,4.34.76q5.38,5.37,10.74,10.74c.4.4.75.58,1.21.1s-.11-.69-.32-.9q-5-5-10-10A5,5,0,0,1,48.16,237a2.56,2.56,0,0,1,1.77-2.44,2.45,2.45,0,0,1,2.67.83q2.17,2.19,4.37,4.36a1.71,1.71,0,0,0,.73.57c.09.46.47.7.78,1,2,1.71,3.71,3.65,5.57,5.45a19.13,19.13,0,0,0,2.31,2.11,3.13,3.13,0,0,0,2.27.9,1.55,1.55,0,0,0-.55-.69c-2-2-4-4-6-6a2.94,2.94,0,0,1-1-2.33,3.23,3.23,0,0,1,1.24-1.67,2.19,2.19,0,0,1,2.75.22c3.47,3.45,7.15,6.71,10.3,10.46a11.41,11.41,0,0,1,2.56,7.31c0,.82,0,1.65,0,2.47a5.16,5.16,0,0,0,.68,2.84,2.42,2.42,0,0,1-.47,3.43c-2.71,2.74-5.45,5.45-8.16,8.18C69,274.94,67.86,274.84,66.7,274.79Z"/><path class="cls-30" d="M40.51,246.43a2.9,2.9,0,0,0,.93,1.84q5.12,5.08,10.21,10.19c.16.16.33.32.47.49.33.43,0,.78-.23,1.05s-.49-.09-.65-.26q-3.41-3.37-6.79-6.77c-1.7-1.7-2.61-1.75-4.43-.27-1-.91-2-1.79-3-2.75a2.44,2.44,0,0,1,1.09-4.15A3.16,3.16,0,0,1,40.51,246.43Z"/><path class="cls-33" d="M43.06,240.56a3,3,0,0,0,1,1.64q5.67,5.67,11.35,11.33c.35.35.64.65.12,1.11-.26.22-.44.3-.71,0s-.69-.58-1-.89L45,245c-1.48-1.47-2.3-1.5-3.91-.14a1.63,1.63,0,0,1-.38.17c-.41-.38-.85-.74-1.24-1.14a2.31,2.31,0,0,1-.16-3.46,2.28,2.28,0,0,1,3.4-.13Z"/><path class="cls-30" d="M48.16,237a5,5,0,0,0,1.44,2.25q5,5,10,10c.21.21.84.36.32.9s-.81.3-1.21-.1Q53.38,244.72,48,239.35c-1.73-1.73-2.25-1.82-4.34-.76a2.47,2.47,0,0,1,1.56-2.37,2.3,2.3,0,0,1,2.62.55Z"/><path class="cls-31" d="M72.55,241a1.12,1.12,0,0,1-1.16-.63,1.08,1.08,0,0,1,.12-1.28c1.48-1.51,3-3,4.5-4.49a1.18,1.18,0,0,1,1.67,1.65c-1.46,1.54-3,3-4.48,4.51A.82.82,0,0,1,72.55,241Z"/><path class="cls-31" d="M43.43,270a1.3,1.3,0,0,1-.51,1c-1.3,1.3-2.59,2.61-3.9,3.9-.68.66-1.41.71-1.93.17a1.28,1.28,0,0,1,.2-1.88c1.33-1.34,2.68-2.67,4-4a1.23,1.23,0,0,1,1.47-.3A1.07,1.07,0,0,1,43.43,270Z"/><path class="cls-30" d="M61.08,240.75a2.94,2.94,0,0,0,1,2.33c2,2,4,4,6,6a1.55,1.55,0,0,1,.55.69,3.13,3.13,0,0,1-2.27-.9,19.13,19.13,0,0,1-2.31-2.11c-1.86-1.8-3.6-3.74-5.57-5.45-.31-.26-.69-.5-.78-1C59,239.56,59.61,239.63,61.08,240.75Z"/><path class="cls-31" d="M48.51,272.15a30.5,30.5,0,0,1-1.45,4,1,1,0,0,1-1.26.45c-.54-.17-.95-.55-.85-1.11a15.15,15.15,0,0,1,1.42-4.14,1,1,0,0,1,1.36-.36A1.21,1.21,0,0,1,48.51,272.15Z"/><path class="cls-31" d="M79.08,243.71a1.3,1.3,0,0,1-.91,1.15c-.93.33-1.85.68-2.79,1a1.22,1.22,0,1,1-.8-2.29c.92-.35,1.85-.68,2.79-1A1.24,1.24,0,0,1,79.08,243.71Z"/></svg>