<svg id="レイヤー_1" data-name="レイヤー 1" xmlns="http://www.w3.org/2000/svg" xmlns:xlink="http://www.w3.org/1999/xlink" viewBox="0 0 1024 1024"><defs><style>.cls-1,.cls-14,.cls-17{fill:none;}.cls-2{clip-path:url(#clip-path);}.cls-3{clip-path:url(#clip-path-2);}.cls-4{fill:#124a83;}.cls-5{clip-path:url(#clip-path-3);}.cls-6{fill:#fff;}.cls-7{fill:#f3ac00;}.cls-8{fill:#f2ab00;}.cls-9{fill:#270d84;}.cls-10{clip-path:url(#clip-path-5);}.cls-11{clip-path:url(#clip-path-7);}.cls-12{fill:#dd2e44;}.cls-13{fill:#fdcb58;}.cls-14{stroke:#f9dc11;stroke-width:25px;}.cls-15{clip-path:url(#clip-path-9);}.cls-16{clip-path:url(#clip-path-12);}.cls-17{stroke:#000;stroke-width:2px;}.cls-18{clip-path:url(#clip-path-13);}.cls-19{clip-path:url(#clip-path-15);}.cls-20{fill:#5dadec;}.cls-21{clip-path:url(#clip-path-18);}.cls-22{fill:#292f33;}.cls-23{fill:#ffdb5e;}.cls-24{fill:#a88dc1;}.cls-25{fill:#7355a2;}.cls-26{fill:#522e8d;}.cls-27{fill:#f8c954;}.cls-28{fill:#f4abba;}.cls-29{fill:#de2032;}.cls-30{fill:#c1694f;}.cls-31{fill:#662213;}.cls-32{fill:#424143;}.cls-33{fill:#59595c;}.cls-34{clip-path:url(#clip-path-21);}.cls-35{fill:#ccd6dd;}.cls-36{fill:#f7dece;}.cls-37{fill:#eec2ad;}.cls-38{fill:#662113;}.cls-39{fill:#269;}.cls-40{fill:#3b88c3;}.cls-41{fill:#55acee;}.cls-42{fill:#f5f8fa;}.cls-43{fill:#66757f;}.cls-44{clip-path:url(#clip-path-23);}.cls-45{fill:#f3d2a2;}.cls-46{fill:#e2c196;}.cls-47{fill:#ffe51e;}.cls-48{clip-path:url(#clip-path-25);}.cls-49{fill:#77b255;}.cls-50{fill:#3e721d;}.cls-51{fill:#df1f32;}.cls-52{clip-path:url(#clip-path-27);}.cls-53{fill:#af7e57;}.cls-54{fill:#9b6a49;}.cls-55{fill:#60352a;}.cls-56{fill:#915a34;}.cls-57{opacity:0.4;}.cls-58{clip-path:url(#clip-path-33);}.cls-59{clip-path:url(#clip-path-34);}.cls-60{fill:#9266cc;}.cls-61{fill:#a8bccc;}.cls-62{fill:#e1e8ed;}.cls-63{clip-path:url(#clip-path-35);}.cls-64{fill:#ea596e;}.cls-65{fill:#be1931;}.cls-66{fill:#7c533e;}.cls-67{fill:#664131;}.cls-68{fill:#3d2e24;}.cls-69{fill:#0b0200;}.cls-70{fill:#ffcc4d;}.cls-71{fill:#ffac33;}.cls-72{fill:#ffdc5d;}.cls-73{fill:#250d85;}.cls-74{clip-path:url(#clip-path-38);}.cls-75{clip-path:url(#clip-path-39);}</style><clipPath id="clip-path"><rect class="cls-1" x="-2089" y="-215.1" width="3012.61" height="1240.1"/></clipPath><clipPath id="clip-path-2"><rect class="cls-1" x="-2088" width="1024" height="1024"/></clipPath><clipPath id="clip-path-3"><rect class="cls-1" x="-2007.88" y="-212.91" width="2931.43" height="1154.22"/></clipPath><clipPath id="clip-path-5"><rect class="cls-1" x="76.44" y="648.75" width="84.44" height="75.7" transform="translate(-140.16 39.67) rotate(-12)"/></clipPath><clipPath id="clip-path-7"><rect class="cls-1" width="1024" height="1024"/></clipPath><clipPath id="clip-path-9"><rect class="cls-1" x="128.2" y="724.64" width="58.37" height="65.11" transform="translate(-615.24 723.08) rotate(-75.73)"/></clipPath><clipPath id="clip-path-12"><rect class="cls-1" x="180.22" y="682.97" width="233.26" height="4"/></clipPath><clipPath id="clip-path-13"><rect class="cls-1" x="616.18" y="682.97" width="227.59" height="4"/></clipPath><clipPath id="clip-path-15"><rect class="cls-1" x="873.31" y="310.52" width="55.91" height="57.83" transform="translate(425.02 1176.5) rotate(-81)"/></clipPath><clipPath id="clip-path-18"><rect class="cls-1" x="205.23" y="807.66" width="172.18" height="162.42"/></clipPath><clipPath id="clip-path-21"><rect class="cls-1" x="73.53" y="806.11" width="163.96" height="163.96"/></clipPath><clipPath id="clip-path-23"><rect class="cls-1" x="382.24" y="807.66" width="130.03" height="162.41"/></clipPath><clipPath id="clip-path-25"><rect class="cls-1" x="497.97" y="814.74" width="155.34" height="155.34"/></clipPath><clipPath id="clip-path-27"><rect class="cls-1" x="639.71" y="818.6" width="154.61" height="151.48"/></clipPath><clipPath id="clip-path-33"><rect class="cls-1" x="703" y="861" width="63" height="24"/></clipPath><clipPath id="clip-path-34"><rect class="cls-1" x="703.07" y="861.63" width="62.27" height="22.55"/></clipPath><clipPath id="clip-path-35"><rect class="cls-1" x="761.61" y="814.12" width="156.16" height="155.95"/></clipPath><clipPath id="clip-path-38"><rect class="cls-1" x="821" y="270.45" width="55.91" height="57.83" transform="translate(315.98 1024.81) rotate(-73.12)"/></clipPath><clipPath id="clip-path-39"><rect class="cls-1" x="820.73" y="270.27" width="55.91" height="57.82" transform="translate(316.21 1024.61) rotate(-73.14)"/></clipPath></defs><g class="cls-2"><g class="cls-3"><polygon class="cls-4" points="-2088 1024 -555.14 900.66 -456.98 892.79 922.61 781.8 922.61 -214.09 -166.32 -126.62 -739.08 -80.48 -1797.22 4.7 -2088 1024"/></g></g><g class="cls-5"><g class="cls-3"><polygon class="cls-6" points="-2006.88 940.32 -467.02 818.58 -374.73 811.3 922.55 708.65 922.55 -211.91 -101.37 -130.99 -639.93 -88.38 -1733.53 -1.85 -2006.88 940.32"/></g></g><polygon class="cls-7" points="0.39 900.69 34.09 930.85 -9.15 944.9 0.39 900.69"/><polygon class="cls-7" points="148.65 944.9 192.1 957.49 159.21 988.88 148.65 944.9"/><path class="cls-8" d="M951.38,761.79h-3.87v-9.41h-9.38v-3.84h9.38v-9.12h3.87v9.12h9.37v3.84h-9.37Z"/><path class="cls-8" d="M918.53,898.07h-3.88v-9.41h-9.37v-3.84h9.38V875.7h3.87v9.12h9.37v3.84h-9.37Z"/><polygon class="cls-7" points="692.24 42.72 704.84 86.16 660.72 75.16 692.24 42.72"/><polygon class="cls-7" points="978.32 86.16 1023.33 90.63 996.7 127.48 978.32 86.16"/><path class="cls-8" d="M230.59,55.77h-3.87V46.36h-9.38V42.52h9.38V33.4h3.87v9.12H240v3.84h-9.38Z"/><path class="cls-8" d="M551.33,98.15h-3.87V88.74h-9.37V84.9h9.37V75.78h3.87V84.9h9.38v3.84h-9.38Z"/><path class="cls-8" d="M830.4,24.33h-3.87V14.92h-9.38V11.08h9.38V2h3.87v9.11h9.38V15H830.4Z"/><path class="cls-8" d="M1015.09,246.51h-3.87V237.1h-9.37v-3.84h9.37v-9.12h3.87v9.12h9.38v3.84h-9.38Z"/><path class="cls-8" d="M33.16,328.2H29.29v-9.4H19.92V315h9.37v-9.12h3.87V315h9.38v3.84H33.16Z"/><path class="cls-8" d="M56.51,115.61H52.64v-9.4H43.26v-3.84h9.38V93.25h3.87v9.12h9.37v3.84H56.51Z"/><path class="cls-8" d="M433.73,44.33h-3.87V34.92h-9.38V31.08h9.38V22h3.87v9.11h9.37V35h-9.37Z"/><path class="cls-8" d="M982.24,382.79h-3.87v-9.41H969v-3.84h9.38v-9.12h3.87v9.12h9.37v3.84h-9.37Z"/><path class="cls-7" d="M971.08,571.9a.86.86,0,0,0-.82.38c-.55.81-1.14,1.75-1.77,2.75-2.33,3.65-5.22,8.2-8.3,10.7s-8.12,4.37-12.18,5.88c-1.1.41-2.15.8-3.06,1.17a.87.87,0,0,0-.48,1.13.83.83,0,0,0,.32.4c.81.55,1.75,1.14,2.75,1.78,3.65,2.32,8.2,5.21,10.7,8.29s4.37,8.13,5.88,12.19c.41,1.1.8,2.14,1.17,3a.86.86,0,0,0,1.11.49h0a.83.83,0,0,0,.4-.32c.55-.81,1.14-1.75,1.78-2.74,2.32-3.66,5.21-8.21,8.29-10.7s8.13-4.38,12.19-5.89c1.1-.41,2.14-.8,3-1.17a.86.86,0,0,0,.49-1.11v0a.83.83,0,0,0-.32-.4c-.81-.54-1.75-1.14-2.74-1.77-3.66-2.33-8.21-5.22-10.7-8.3s-4.37-8.13-5.89-12.19c-.41-1.1-.8-2.14-1.16-3A.86.86,0,0,0,971.08,571.9Z"/><path class="cls-7" d="M40.32,456.63a.69.69,0,0,0-.6.41c-.33.71-.69,1.53-1.07,2.41-1.38,3.2-3.11,7.19-5.25,9.55s-5.91,4.5-8.95,6.23c-.83.46-1.61.9-2.29,1.31a.7.7,0,0,0,.07,1.24c.71.33,1.54.69,2.41,1.06,3.2,1.39,7.19,3.12,9.55,5.26s4.51,5.91,6.23,8.95c.46.83.9,1.61,1.31,2.29a.7.7,0,0,0,1.24-.07c.33-.71.69-1.54,1.06-2.41,1.39-3.2,3.12-7.19,5.26-9.56s5.92-4.5,9-6.22c.82-.46,1.6-.9,2.28-1.31a.7.7,0,0,0-.07-1.24c-.71-.33-1.53-.69-2.4-1.07-3.2-1.39-7.19-3.11-9.56-5.25s-4.5-5.92-6.22-9c-.47-.82-.91-1.6-1.31-2.28A.72.72,0,0,0,40.32,456.63Z"/><path class="cls-7" d="M911.44,765.85a.92.92,0,0,0-.82.38c-.55.82-1.14,1.75-1.77,2.75-2.33,3.66-5.22,8.21-8.3,10.7s-8.12,4.37-12.18,5.89c-1.1.41-2.15.8-3.06,1.16a.87.87,0,0,0-.48,1.13.75.75,0,0,0,.32.4c.81.55,1.75,1.15,2.75,1.78,3.65,2.32,8.2,5.22,10.7,8.29s4.37,8.13,5.88,12.19c.41,1.1.8,2.14,1.17,3.05a.87.87,0,0,0,1.13.49h0a.92.92,0,0,0,.4-.33c.55-.81,1.14-1.75,1.77-2.74,2.33-3.66,5.22-8.21,8.3-10.7s8.13-4.37,12.19-5.89c1.1-.41,2.14-.8,3-1.16a.87.87,0,0,0,.48-1.13.75.75,0,0,0-.32-.4c-.81-.55-1.75-1.15-2.74-1.78-3.66-2.33-8.21-5.22-10.7-8.29s-4.37-8.13-5.89-12.2c-.41-1.1-.8-2.14-1.16-3A.89.89,0,0,0,911.44,765.85Z"/><path class="cls-7" d="M18.5,601.08a.7.7,0,0,0-.6.4c-.33.72-.69,1.54-1.07,2.41-1.39,3.2-3.11,7.19-5.25,9.56s-5.91,4.5-8.95,6.22c-.83.47-1.61.91-2.29,1.31a.72.72,0,0,0-.27,1l0,0a.79.79,0,0,0,.32.28c.71.34,1.53.69,2.4,1.07,3.2,1.39,7.19,3.12,9.56,5.25s4.51,5.92,6.23,9c.46.82.9,1.61,1.31,2.28a.72.72,0,0,0,1,.27l0,0a.76.76,0,0,0,.28-.31c.33-.72.69-1.54,1.06-2.41,1.39-3.2,3.12-7.19,5.26-9.56s5.92-4.5,9-6.22l2.28-1.31a.7.7,0,0,0,.27-.95l0-.05a.7.7,0,0,0-.31-.28c-.71-.34-1.53-.69-2.4-1.07-3.2-1.39-7.2-3.12-9.57-5.25s-4.5-5.92-6.22-9c-.46-.83-.9-1.6-1.31-2.28A.66.66,0,0,0,18.5,601.08Z"/><path class="cls-7" d="M922.81,923.66a.86.86,0,0,0-.82.38c-.54.81-1.14,1.75-1.77,2.74-2.33,3.66-5.22,8.21-8.3,10.7s-8.12,4.38-12.18,5.89c-1.1.41-2.15.8-3.06,1.17a.87.87,0,0,0-.48,1.13,1,1,0,0,0,.32.4c.82.55,1.75,1.14,2.75,1.77,3.65,2.33,8.2,5.22,10.7,8.3s4.37,8.12,5.88,12.18c.42,1.1.8,2.15,1.17,3.06a.87.87,0,0,0,1.13.48,1,1,0,0,0,.4-.32c.55-.81,1.15-1.75,1.78-2.75,2.32-3.65,5.22-8.2,8.29-10.7s8.13-4.37,12.19-5.88c1.1-.41,2.14-.8,3.05-1.17a.87.87,0,0,0,.49-1.13h0a.92.92,0,0,0-.33-.4c-.81-.55-1.74-1.14-2.74-1.78-3.66-2.32-8.21-5.21-10.7-8.29s-4.37-8.13-5.88-12.19c-.42-1.1-.8-2.14-1.17-3A.88.88,0,0,0,922.81,923.66Z"/><path class="cls-7" d="M1012.13,836.65a.71.71,0,0,0-.6.41c-.33.71-.68,1.54-1.06,2.41-1.39,3.2-3.12,7.19-5.25,9.55s-5.92,4.5-9,6.23c-.83.46-1.61.9-2.28,1.31a.68.68,0,0,0-.29.93.25.25,0,0,0,0,.07.7.7,0,0,0,.31.28c.72.33,1.54.69,2.41,1.07,3.2,1.38,7.19,3.11,9.56,5.25s4.5,5.91,6.22,9c.47.83.91,1.61,1.31,2.29a.7.7,0,0,0,1.24-.07c.33-.71.69-1.54,1.07-2.41,1.39-3.2,3.12-7.19,5.25-9.55s5.92-4.5,9-6.23c.83-.46,1.6-.9,2.28-1.31a.7.7,0,0,0,.27-1l0,0a.73.73,0,0,0-.3-.28c-.72-.33-1.54-.69-2.41-1.07-3.2-1.38-7.19-3.11-9.56-5.25s-4.5-5.92-6.22-9c-.47-.82-.91-1.6-1.32-2.28A.7.7,0,0,0,1012.13,836.65Z"/><rect class="cls-9" x="111.53" y="144.23" width="800.93" height="821.88"/><rect class="cls-6" x="131.46" y="162.35" width="759.84" height="785.44"/><rect class="cls-9" x="209.16" y="57.76" width="598.65" height="182.88"/><rect class="cls-9" x="233.72" y="88.04" width="597.92" height="171.85"/><rect class="cls-6" x="223.16" y="67.22" width="570.65" height="163.97"/><path class="cls-9" d="M376.42,129.06c-.08,33.06-1.45,42.71-7.83,54.57a29.1,29.1,0,0,0-6.84-6.54,37,37,0,0,0,4.94-13.22c1.06-5.7,1.6-16.8,1.6-32.15,0-5.47-.08-8.06-.3-10.64a61.29,61.29,0,0,0,7.9.38h19.38v-3.35a19.66,19.66,0,0,0-.38-4.33h9.2a17.21,17.21,0,0,0-.38,4.41v3.27H423.4a66,66,0,0,0,9-.46v8.44a73.27,73.27,0,0,0-8.89-.38h-25.2c10.18,5.7,11.7,6.69,19,12.62l-5.86,6.46c-5.7-5.7-10-8.82-19.3-13.91l5.85-5.17Zm-.61,44.61a46.38,46.38,0,0,0,4.1-12.46,93.88,93.88,0,0,0,1.67-14.67l7.9,2.05c-1.22,14.06-2.35,19.84-6,30Zm26.07-31.61a54.92,54.92,0,0,0-.38,7.14v23.86c0,2.06.61,2.36,5.17,2.36,6,0,6.08-.3,6.08-14a33.08,33.08,0,0,0,8.05,2.66c-.61,10.41-1.29,14.21-3,16.34s-4.79,3-11.25,3c-10.56,0-13.22-1.14-13.22-5.7v-28.6a34.08,34.08,0,0,0-.46-7.06Zm23.56,35.19c-2.13-11.71-4-17.79-8.74-27.52l7.22-3.57c5,11.1,7.07,16.87,9.65,27.21Z"/><path class="cls-9" d="M453.79,166.91a79.74,79.74,0,0,1-10.65,4.94,24.45,24.45,0,0,0-4.4-6.61,54.14,54.14,0,0,0,17-7.53h-8a80.51,80.51,0,0,0-8.36.38v-7.22a85,85,0,0,0,8.59.38h15a12.43,12.43,0,0,0,1.9-2.43H454.62c-2.51,0-4.26.08-6,.15.15-1.75.23-3.27.23-5.24V132.86c0-2-.08-3.57-.23-5.32a52.25,52.25,0,0,0,6,.23H458v-2.89h-9.88a54.3,54.3,0,0,0-8.35.53V118a67.21,67.21,0,0,0,8.51.45H458v-.38a20.85,20.85,0,0,0-.29-4.1h8.51a20.12,20.12,0,0,0-.3,4.1v.38h15.66v-.38a33,33,0,0,0-.23-4.1h8.43a21.65,21.65,0,0,0-.3,4.1v.38H499.7a70.42,70.42,0,0,0,8.59-.45v7.37a54.35,54.35,0,0,0-8.36-.53h-10.5v2.89h4.18a52.25,52.25,0,0,0,6-.23c-.15,1.67-.23,3.19-.23,5.32v10.87c0,1.75.07,3.5.23,5.24-1.75-.07-3.57-.15-6.08-.15H473.32a24.24,24.24,0,0,1-1.6,2.43h28.42a85,85,0,0,0,8.59-.38v7.22a64.9,64.9,0,0,0-8.36-.38h-8.21A36.34,36.34,0,0,0,500.3,162a46.3,46.3,0,0,0,9.95,2.74,31.38,31.38,0,0,0-3.87,7.22,64.64,64.64,0,0,1-10.49-4.48c-1.44,14.74-2.74,16.34-13.45,16.34-1.45,0-2.89-.08-5.85-.23a19.05,19.05,0,0,0-2.44-7.37,47.28,47.28,0,0,0,7.6.76c5,0,5.48-.46,6.16-7.45h-13.6c-4.49,8.36-12.62,13.07-26,15.12a27.52,27.52,0,0,0-4.1-6.69c10.26-1,17-3.65,21.2-8.43h-5a37.49,37.49,0,0,0-6.61.38Zm2.66-31.47h35.26V133H456.45Zm0,7.76h35.26v-2.66H456.45Zm9.8,14.51a54.23,54.23,0,0,1-7.07,5.85h9.58a11.63,11.63,0,0,0,.68-4.33l8.51.3c-.07.3-.53,1.67-1.14,4h12.54a46,46,0,0,1-7.06-5.85Zm15.28-32.83H465.87v2.89h15.66Z"/><path class="cls-9" d="M521.5,121.46a38.78,38.78,0,0,0-.38-6.46h8.28a39.88,39.88,0,0,0-.38,6.46v1.29h11v-1.29a35.82,35.82,0,0,0-.38-6.46h8.28a37.74,37.74,0,0,0-.38,6.46v1.29a33.14,33.14,0,0,0,5.17-.38v7.68a27.11,27.11,0,0,0-5.17-.31v29.34a29,29,0,0,0,4.56-.3v7.6q-3.18-.27-6.38-.23h-25a35.79,35.79,0,0,0-5.85.3v-7.67a35.18,35.18,0,0,0,5.62.3h1V129.74a31.92,31.92,0,0,0-5.78.31v-7.68a24.92,24.92,0,0,0,5.78.38Zm10.94,49.32c-3.87,6.39-5.92,8.75-11.7,13.84a28.21,28.21,0,0,0-5.85-6A35,35,0,0,0,526,166.84Zm7.53-36v-5H529v5Zm0,11.86v-5.17H529v5.17Zm0,12.46v-5.77H529v5.77Zm1.82,7.9c2.66,4.1,2.81,4.26,7.07,8.13a29,29,0,0,0-5.7,5.63c-4.33-4.79-4.33-4.79-7.37-9.8Zm20.07-6.53c-1.14,12-3,17.55-8.36,24.39a50.07,50.07,0,0,0-6.46-6.15c3.72-4.18,5.47-8.06,6.53-14.14,1.07-6.54,1.52-17.78,1.52-37.32a75.78,75.78,0,0,0-.38-9.88,82,82,0,0,0,8.44.31h11a72.6,72.6,0,0,0,8.21-.31,72.92,72.92,0,0,0-.3,8.36V176.1c0,3.73-1.07,6.08-3.19,7a20.49,20.49,0,0,1-7.53,1.06c-.91,0-1.06,0-4.79-.23a32.58,32.58,0,0,0-2-8.36,35,35,0,0,0,6.69.76c2.35,0,2.88-.3,2.88-1.67V160.45Zm.91-17.94c-.08,4.48-.15,7.3-.38,10.71h11.78V142.51Zm11.4-17.33H562.85v10h11.32Z"/><path class="cls-9" d="M602.14,174.74a66.4,66.4,0,0,0,.45,9.35H593.7a69.1,69.1,0,0,0,.46-9.43V125q.06-4.26-.3-8.51a68.07,68.07,0,0,0,7.82.3h13.46a62.61,62.61,0,0,0,7.75-.3c-.15,2.43-.23,4.1-.23,7.07v11.63c0,3.5.08,5.24.23,6.91q-3-.22-7-.23H602.14Zm0-48h13.07V123H602.14Zm0,9.27h13.07v-3.87H602.14Zm39,32.68c0,2.89.07,4.64.22,6.62,1.68.15,4.41.38,5.78.38,2.13,0,2.81-.54,2.81-2.06V141.9H635c-2.66,0-5.09.08-7,.23.15-2.2.23-3.65.23-6.92V123.59c0-2.59-.08-4.72-.23-7.07a66.86,66.86,0,0,0,7.75.3h14.59a68.24,68.24,0,0,0,7.83-.3c-.23,2.73-.3,4.63-.3,8.43v49.79c0,4.56-.91,6.53-3.65,7.67-1.59.69-3.87.92-8.59.92-1.06,0-1.36,0-5.24-.23a28.64,28.64,0,0,0-2-7.83c-2.2-.08-3.65-.08-4.25-.08H618v4.26h-8a53.74,53.74,0,0,0,.54-7.6V153.3c0-2.66-.08-4.78-.23-6.84a59.63,59.63,0,0,0,7.07.3h17a59.46,59.46,0,0,0,7.06-.3c-.15,2-.22,3.88-.22,6.84Zm-23.11-11h15.5v-4.56H618Zm0,11.1h15.5v-4.94H618Zm17.71-42H650V123H635.73Zm0,9.28H650v-3.88H635.73Z"/><rect class="cls-1" width="1024" height="1024"/><g class="cls-10"><g class="cls-10"><g class="cls-11"><path class="cls-12" d="M156.93,663.58a23.27,23.27,0,0,0-44.11-4.48,23.26,23.26,0,0,0-36.77,27.07c7.34,19,33.61,35.08,50.48,37.44,14.45-9,31.9-34.4,30.89-54.73a23.14,23.14,0,0,0-.49-5.31"/><path class="cls-13" d="M159.3,692.18l-9.52-1.39-5.15-8.14a2.36,2.36,0,0,0-4.33.92l-1.4,9.52-8.13,5.15a2.36,2.36,0,0,0,.92,4.33l9.52,1.4,5.15,8.13a2.36,2.36,0,0,0,4.33-.92l1.4-9.52,8.13-5.15a2.36,2.36,0,0,0-.92-4.33m-61-25.66-5.89-.86-3.18-5a2.36,2.36,0,0,0-4.33.92L84,667.47l-5,3.18A2.37,2.37,0,0,0,80,675l5.89.86,3.18,5a2.36,2.36,0,0,0,4.33-.92l.86-5.89,5-3.19a2.36,2.36,0,0,0-.92-4.33"/></g></g></g><g class="cls-11"><line class="cls-14" x1="148.65" y1="408.05" x2="875.35" y2="408.05"/></g><g class="cls-15"><g class="cls-15"><g class="cls-11"><path class="cls-12" d="M191.7,754.37a17.95,17.95,0,0,0-29-18.15A17.94,17.94,0,0,0,128,742.39c-1.4,15.63,11.27,35.72,22.13,43.12,13.07-1.31,33.8-12.9,40-27.3a17.73,17.73,0,0,0,1.48-3.84"/><path class="cls-13" d="M183.57,775l-6.11-4.21-.78-7.38a1.82,1.82,0,0,0-2-1.62,1.8,1.8,0,0,0-1.31.78l-4.21,6.1-7.38.79a1.82,1.82,0,0,0-.85,3.3L167,777l.79,7.38a1.82,1.82,0,0,0,3.31.84l4.21-6.11,7.38-.78a1.82,1.82,0,0,0,.84-3.31m-33.39-38.54-3.78-2.6-.48-4.57a1.82,1.82,0,0,0-3.31-.84L140,732.17l-4.56.49a1.82,1.82,0,0,0-.84,3.31l3.77,2.6.49,4.56a1.82,1.82,0,0,0,3.31.84l2.6-3.78,4.56-.48a1.82,1.82,0,0,0,.84-3.31"/></g></g></g><g class="cls-16"><line class="cls-17" x1="181.22" y1="684.97" x2="412.48" y2="684.97"/></g><g class="cls-18"><line class="cls-17" x1="617.18" y1="684.97" x2="842.78" y2="684.97"/></g><path d="M441.57,676.49c0,13.92-.6,18-3.3,23a12,12,0,0,0-2.88-2.75,15.29,15.29,0,0,0,2.08-5.57,88.7,88.7,0,0,0,.67-13.53,42.18,42.18,0,0,0-.12-4.48,26.52,26.52,0,0,0,3.33.16h8.16v-1.41a8.56,8.56,0,0,0-.16-1.82h3.87a6.78,6.78,0,0,0-.16,1.85v1.38h8.29a27.92,27.92,0,0,0,3.77-.19v3.55a31.11,31.11,0,0,0-3.74-.16H450.79a40.73,40.73,0,0,1,8,5.31l-2.47,2.72a30.92,30.92,0,0,0-8.12-5.86l2.46-2.17Zm-.25,18.78a19.86,19.86,0,0,0,1.73-5.25,41.33,41.33,0,0,0,.7-6.17l3.33.86c-.52,5.92-1,8.35-2.53,12.64Zm11-13.31a23.2,23.2,0,0,0-.16,3v10c0,.87.26,1,2.18,1,2.53,0,2.56-.13,2.56-5.89a14.05,14.05,0,0,0,3.39,1.12c-.26,4.38-.54,6-1.25,6.88s-2,1.25-4.73,1.25c-4.45,0-5.57-.48-5.57-2.4v-12a14.37,14.37,0,0,0-.19-3Zm9.92,14.81a38.1,38.1,0,0,0-3.68-11.58l3-1.5a57.46,57.46,0,0,1,4.07,11.46Z"/><path d="M474.15,692.42a33.7,33.7,0,0,1-4.48,2.08,10.18,10.18,0,0,0-1.86-2.78,23,23,0,0,0,7.17-3.17h-3.36a34.42,34.42,0,0,0-3.52.16v-3c1.2.11,2.41.17,3.62.16H478a5.09,5.09,0,0,0,.8-1h-4.3c-1.06,0-1.79,0-2.53.06.07-.73.1-1.47.1-2.21v-4.57a16.13,16.13,0,0,0-.1-2.24,23.78,23.78,0,0,0,2.53.1h1.41v-1.22h-4.16a23,23,0,0,0-3.52.23v-3.1a30.55,30.55,0,0,0,3.58.19h4.1V672a9.1,9.1,0,0,0-.13-1.73h3.59a9.1,9.1,0,0,0-.13,1.73v.16h6.59V672a12.46,12.46,0,0,0-.1-1.73h3.56a8.35,8.35,0,0,0-.13,1.73v.16h4.32a31.07,31.07,0,0,0,3.61-.19V675a23,23,0,0,0-3.52-.23h-4.41V676h1.76a23.78,23.78,0,0,0,2.53-.1,20.87,20.87,0,0,0-.1,2.24v4.57a20.31,20.31,0,0,0,.1,2.21c-.74,0-1.5-.06-2.56-.06h-8.52a9.68,9.68,0,0,1-.67,1h12a33.61,33.61,0,0,0,3.62-.16v3a27.72,27.72,0,0,0-3.53-.16h-3.45a15.39,15.39,0,0,0,3.42,1.82,19.58,19.58,0,0,0,4.19,1.16,13.21,13.21,0,0,0-1.63,3,27.23,27.23,0,0,1-4.41-1.89c-.61,6.21-1.15,6.88-5.67,6.88-.6,0-1.21,0-2.46-.1a8.13,8.13,0,0,0-1-3.1,20.29,20.29,0,0,0,3.2.32c2.11,0,2.3-.19,2.59-3.14h-5.73c-1.89,3.52-5.31,5.5-10.94,6.37a11.5,11.5,0,0,0-1.73-2.82c4.32-.41,7.16-1.53,8.92-3.55H477a16.15,16.15,0,0,0-2.78.16Zm1.12-13.25h14.85v-1H475.27Zm0,3.27h14.85v-1.12H475.27Zm4.13,6.11a22.82,22.82,0,0,1-3,2.46h4a4.89,4.89,0,0,0,.29-1.82l3.59.13c0,.13-.23.7-.48,1.7h5.27a19.7,19.7,0,0,1-3-2.47Zm6.43-13.82h-6.59v1.21h6.59Z"/><path d="M506.12,673.38a15.87,15.87,0,0,0-.19-3h3.71a25.13,25.13,0,0,0-.16,3v1.8h2.27a17.54,17.54,0,0,0,3.07-.2v3.43a23.22,23.22,0,0,0-2.5-.1,32.91,32.91,0,0,1-2.17,9.69c2,2.56,2.27,2.91,4.54,6.11l-2.53,2.82a46.29,46.29,0,0,0-3.68-5.54,31.52,31.52,0,0,1-6.36,7.9,11.77,11.77,0,0,0-2.44-3,22,22,0,0,0,6.56-7.84,56.15,56.15,0,0,0-5.44-5.89l2.34-2.37c.64.64.64.64,2.53,2.59.25.26.8.87,2,2.28a30.78,30.78,0,0,0,1.25-6.79H503a21.46,21.46,0,0,0-3,.16V675a22.26,22.26,0,0,0,3.16.2h2.91ZM516.77,682a41.08,41.08,0,0,1,4.52,7.39l-2.92,1.92a28.38,28.38,0,0,0-4.48-7.74Zm1.79-2a18.8,18.8,0,0,0-3,.16v-3.52a18.8,18.8,0,0,0,3,.16h4.07v-2.53a21.14,21.14,0,0,0-.23-3.81h3.84a30.29,30.29,0,0,0-.19,3.81v2.53h.39a18.82,18.82,0,0,0,3-.19v3.58l-.74-.1a18.56,18.56,0,0,0-2.24-.1H526v15.46c0,1.66-.1,2.2-.57,2.78-.61.77-1.76,1.09-3.87,1.09a36.34,36.34,0,0,1-3.78-.13,10.76,10.76,0,0,0-1-3.55,33.36,33.36,0,0,0,3.87.38c1.73,0,1.92-.1,1.92-.77V680Z"/><path d="M551.81,684a19.72,19.72,0,0,0,1.44,3.49,14.06,14.06,0,0,0,3.52-3.23l3,2.11a8.6,8.6,0,0,0-.8.67,30.42,30.42,0,0,1-4.07,3.08A15.51,15.51,0,0,0,562,695.3a13.69,13.69,0,0,0-2.15,3.42,19.47,19.47,0,0,1-7.87-6.94,31.82,31.82,0,0,1-3.55-7.78h-.87c-.51.36-.7.52-1.31.9a11.9,11.9,0,0,1,2.85,4.68,12.38,12.38,0,0,1,.86,5c0,4-1.34,5.24-5.59,5.24-.39,0-.93,0-1.67-.06a8.24,8.24,0,0,0-1.22-3.39,20.83,20.83,0,0,0,2.73.25c2,0,2.4-.38,2.4-2.56a2.46,2.46,0,0,0-.07-.6,49.15,49.15,0,0,1-12.64,5.6,9.11,9.11,0,0,0-1.85-2.88,46.26,46.26,0,0,0,13.88-5.44,11.42,11.42,0,0,0-.45-1.15A47.9,47.9,0,0,1,534,693.9a9,9,0,0,0-1.57-2.62,44.53,44.53,0,0,0,11.78-3.94,8.9,8.9,0,0,0-.74-1,39.43,39.43,0,0,1-9.47,3.07,8.56,8.56,0,0,0-1.53-2.69,37.37,37.37,0,0,0,10-2.78h-4.12a30.7,30.7,0,0,0-3.14.1,20.48,20.48,0,0,0,.13-2.82V678.9a24.88,24.88,0,0,1-2.18,1.28,9,9,0,0,0-1.57-3,23.6,23.6,0,0,0,6-3.74,17.11,17.11,0,0,0,3.48-3.87l3.94.63-1.21,1.41H549c1.09,0,2.72-.06,3.07-.12l1.79,1.63c-.29.32-.41.41-.77.83-.86.86-1.34,1.34-2.3,2.21h4.84A29,29,0,0,0,559,676a23.92,23.92,0,0,0-.13,2.81v2.4a24.2,24.2,0,0,0,.13,2.82c-.84-.06-1.67-.1-3-.1Zm-6.56-3v-2h-6.5v2Zm1.57-4.86a14.07,14.07,0,0,0,1.86-1.92h-7.27a20.83,20.83,0,0,1-2.17,1.92Zm8.67,4.86v-2h-6.94v2Z"/><path d="M568.23,682.47a32.92,32.92,0,0,0-3.84.19v-3.52a28.23,28.23,0,0,0,3.9.2h7.3v-2.79h-4.8a34.06,34.06,0,0,0-3.64.13v-3.36a26.38,26.38,0,0,0,3.77.19h4.67V673a16.64,16.64,0,0,0-.19-2.82h3.9a13.34,13.34,0,0,0-.19,2.82v.54h2.3a25.33,25.33,0,0,0,3.59-.19v2.75a22.76,22.76,0,0,0,3.71-4.86l3.17,2.08c-.22.22-.7.77-1.44,1.63a45.27,45.27,0,0,1-4.35,4.41h3.3a26.18,26.18,0,0,0,3.65-.19v3.52a35.59,35.59,0,0,0-4-.19h-6.88c-1.22.86-2,1.41-3.46,2.34H586a31.23,31.23,0,0,0,3.36-.1,31.32,31.32,0,0,0-.13,3.49v7.9a24.34,24.34,0,0,0,.2,3.62h-3.72v-1.37H574.12v1.38h-3.74a31.24,31.24,0,0,0,.19-3.62v-6.79a52.89,52.89,0,0,1-5.09,2.24,11.5,11.5,0,0,0-1.89-3.2,52.68,52.68,0,0,0,13.18-5.89Zm5.89,7.58H585.7v-2.36H574.12Zm0,5.25H585.7v-2.46H574.12Zm7.23-16a31.43,31.43,0,0,0,3.07-2.69c-.86-.07-1.41-.1-2.69-.1h-2.62v2.78Z"/><rect class="cls-1" x="426.16" y="660.97" width="177" height="64"/><g class="cls-11"><path class="cls-9" d="M186.78,352.1c0,.45-.09,1.35-.27,2.88,4.05-3,8.73-4.32,14.58-4.32,8,0,14.58,2.52,19.35,7.38,4.5,4.59,6.75,10.44,6.75,18,0,17.28-11.34,27.54-30.42,27.54-11.34,0-20.25-3.87-25.47-11.07-2.07-2.79-3.15-5.4-4.5-10.08l18.09-2.79c1.53,5.94,5.31,8.73,11.79,8.73,7.56,0,12.6-4.77,12.6-12s-4.86-11.88-12.42-11.88c-5.67,0-9.36,2.25-11.34,6.66l-16.74-1.62c.36-2.7.63-4.86.9-7.38l2.43-28.08c.18-1.89.27-4.05.36-7.47,3.78.18,4.68.18,9,.18h26.91a111.58,111.58,0,0,0,14.85-.63V341.9a143.72,143.72,0,0,0-14.67-.63H187.68Z"/><path class="cls-9" d="M281.55,326.81l-32.31,87.74H233.13l32.4-87.74Z"/><path class="cls-9" d="M296,326.18a59.13,59.13,0,0,0,10.8.63h11.43a90.41,90.41,0,0,0,11.16-.36,140.22,140.22,0,0,0-.63,14.49v47.15a102.88,102.88,0,0,0,.72,13.59H309.81a102.88,102.88,0,0,0,.72-13.59V342.2h-3.6a96.19,96.19,0,0,0-11,.63Z"/><path class="cls-9" d="M366.45,407.69a41.16,41.16,0,0,1-5.3-9.5,38.26,38.26,0,0,1-2.9-14.9,39.57,39.57,0,0,1,1.95-12.45c1.35-4.15,2.8-6.9,6.25-11.85l5.3,3.4c-2.9,4.2-4.1,6.45-5.2,9.95a34.84,34.84,0,0,0-1.7,11.05,36.23,36.23,0,0,0,1.6,10.85c1.1,3.4,2.3,5.65,5.2,9.9Z"/><path class="cls-9" d="M390.25,375.29a34.9,34.9,0,0,0-4.9.25v-2.4a52.67,52.67,0,0,1-8.15,4.1,22.14,22.14,0,0,0-2.9-5.15c9.3-3.25,16.8-8.65,20.4-14.65h6.2a29.67,29.67,0,0,0,7.7,7.7,41.33,41.33,0,0,0,13.25,6.75,26.24,26.24,0,0,0-2.7,5.5,51.19,51.19,0,0,1-8.75-4.4v2.55a34.9,34.9,0,0,0-4.9-.25h-5.1v4.85h12.65a35.5,35.5,0,0,0,5.45-.3v5.55a38.84,38.84,0,0,0-5.5-.3H400.4v11.2H414a44.76,44.76,0,0,0,5.9-.3v5.75a48.07,48.07,0,0,0-6-.35H382.3a51.43,51.43,0,0,0-6.2.35V396a53.51,53.51,0,0,0,6.2.3h12.55V385.1H383a40.64,40.64,0,0,0-5.4.3v-5.55a35.5,35.5,0,0,0,5.45.3h11.8V375.3Zm-3.55,10.25a57.62,57.62,0,0,1,4,8.3l-5,2a36.54,36.54,0,0,0-3.95-8.3Zm3.4-15,15.5,0c.45,0,.45,0,1.2,0a39.48,39.48,0,0,1-9-8.4,35.1,35.1,0,0,1-8.75,8.4Zm23.9,17c-.65,1.15-.65,1.15-2.5,4.8-.15.3-.35.65-2.05,3.55l-4.7-1.75a41.32,41.32,0,0,0,3.95-8.6Z"/><path class="cls-9" d="M424.25,404.14c2.9-4.25,4.1-6.5,5.2-9.9a35.61,35.61,0,0,0,1.6-10.85,34.29,34.29,0,0,0-1.7-11.05c-1.1-3.5-2.3-5.75-5.2-9.95l5.3-3.4c3.45,4.95,4.9,7.7,6.3,11.85a40.51,40.51,0,0,1,1.9,12.46,38.8,38.8,0,0,1-2.85,14.9,43.75,43.75,0,0,1-5.35,9.5Z"/><path class="cls-9" d="M501.56,372.79c-3.3,3.7-5.2,5.2-8.2,6.6a18.48,18.48,0,0,1-7.9,1.8c-3.2,0-6.7-.8-12.2-2.9-5.2-2-7.5-2.6-9.8-2.6-3.8,0-6.4,1.3-10,5l-7.6-9.8c3.4-3.7,5.2-5.2,8.2-6.5a19.78,19.78,0,0,1,7.6-1.8c3.3,0,6.4.8,12.5,3.2,4.5,1.7,7.3,2.4,9.7,2.4,3.9,0,6.4-1.3,10.1-5Z"/><path class="cls-9" d="M528.81,352.1c0,.45-.09,1.35-.27,2.88,4.05-3,8.73-4.32,14.58-4.32,8,0,14.58,2.52,19.35,7.38,4.5,4.59,6.75,10.44,6.75,18,0,17.28-11.34,27.54-30.42,27.54-11.34,0-20.25-3.87-25.47-11.07-2.07-2.79-3.15-5.4-4.5-10.08l18.09-2.79c1.53,5.94,5.31,8.73,11.79,8.73,7.56,0,12.6-4.77,12.6-12s-4.86-11.88-12.42-11.88c-5.67,0-9.36,2.25-11.34,6.66l-16.74-1.62c.36-2.7.63-4.86.9-7.38l2.43-28.08c.18-1.89.27-4.05.36-7.47,3.78.18,4.68.18,9,.18h26.91a111.58,111.58,0,0,0,14.85-.63V341.9a143.72,143.72,0,0,0-14.67-.63H529.71Z"/><path class="cls-9" d="M623.58,326.81l-32.31,87.74H575.16l32.4-87.74Z"/><path class="cls-9" d="M647.34,378.82c.54,3,1.08,4.23,2.52,5.76,2.43,2.52,6,3.87,10.35,3.87,7,0,11.43-3.51,11.43-9,0-3.68-1.8-6.56-4.86-7.74a26.07,26.07,0,0,0-8.37-1.17c-3.51,0-7.56.18-11.07.54V355.6a78,78,0,0,0,9.54.55c8.55,0,12.78-2.88,12.78-8.64,0-4.86-3.42-7.65-9.36-7.65-6.39,0-9.63,2.52-11,8.28l-19.44-2.79c1.71-5.58,3.15-8.28,6-11.43,5.49-5.94,13.77-9,24.75-9,9.81,0,17.91,2.7,23,7.64a17.46,17.46,0,0,1,5,12.78c0,9.54-5.13,15.48-15.48,17.91,5.49.81,8.46,2.07,11.61,4.77a17.73,17.73,0,0,1,5.94,13.32,20.07,20.07,0,0,1-3.6,12,22.46,22.46,0,0,1-8.46,6.75c-4.68,2.16-12,3.51-18.72,3.51-8.1,0-16.2-1.89-21-5A24.41,24.41,0,0,1,629.63,387a33.11,33.11,0,0,1-1.53-4.77Z"/><path class="cls-9" d="M707.55,326.18a59.13,59.13,0,0,0,10.8.63h11.43a90.41,90.41,0,0,0,11.16-.36,140.22,140.22,0,0,0-.63,14.49v47.15a102.88,102.88,0,0,0,.72,13.59H721.41a102.88,102.88,0,0,0,.72-13.59V342.2h-3.6a96.19,96.19,0,0,0-11,.63Z"/><path class="cls-9" d="M778.05,407.69a41.71,41.71,0,0,1-5.29-9.5,38.08,38.08,0,0,1-2.91-14.9,39.33,39.33,0,0,1,2-12.45c1.34-4.15,2.8-6.9,6.25-11.85l5.3,3.4c-2.9,4.2-4.1,6.45-5.2,9.95a34.29,34.29,0,0,0-1.7,11.05,35.61,35.61,0,0,0,1.6,10.85c1.1,3.4,2.3,5.65,5.2,9.9Z"/><path class="cls-9" d="M792.2,364.39c0-1.95-.1-3.7-.25-5.35a44.73,44.73,0,0,0,5.55.25h24.2a39,39,0,0,0,5.4-.25,45.71,45.71,0,0,0-.25,5.1v32.3a51,51,0,0,0,.3,6.05h-6v-3h-23.3v3h-6a51,51,0,0,0,.3-6.05Zm5.65,11.8H821.1v-11.6H797.85Zm0,18.05H821.1v-12.8H797.85Z"/><path class="cls-9" d="M835.85,404.14c2.9-4.25,4.1-6.5,5.2-9.9a35.61,35.61,0,0,0,1.6-10.85,34.29,34.29,0,0,0-1.7-11.05c-1.1-3.5-2.3-5.75-5.2-9.95l5.3-3.4c3.45,4.95,4.9,7.7,6.3,11.85a40.51,40.51,0,0,1,1.9,12.46,38.43,38.43,0,0,1-2.85,14.9,43.75,43.75,0,0,1-5.35,9.5Z"/></g><g class="cls-19"><g class="cls-19"><g class="cls-11"><path class="cls-20" d="M931.35,315.92l-36.22-1.53a3.35,3.35,0,0,0-3.35,2.74l-4.71,29.8a12.48,12.48,0,0,0-4.62-1.68c-6.13-1-11.78,2.5-12.61,7.76s3.47,10.3,9.6,11.27,11.78-2.5,12.61-7.76l4.64-29.28,29.08,1.22-3.3,20.83a12.69,12.69,0,0,0-4.61-1.69c-6.13-1-11.78,2.5-12.61,7.76s3.46,10.31,9.59,11.28,11.79-2.5,12.62-7.76l6.33-40a2.53,2.53,0,0,0-2-2.94h-.41"/></g></g></g><path class="cls-9" d="M323.76,523.26a40.45,40.45,0,0,0-5.82-.28H305.8c-2.3,0-3.73,0-5.21.12a32.63,32.63,0,0,0,.33-5.41V496.41a38.48,38.48,0,0,0-.33-6.07h6.19a36.46,36.46,0,0,0-.32,6V518h11.47a45.44,45.44,0,0,0,5.83-.29Z"/><path class="cls-9" d="M333.19,490.34a31.2,31.2,0,0,0-.33,5.29v22.06a31.2,31.2,0,0,0,.33,5.29H327a31.2,31.2,0,0,0,.33-5.29V495.63a31.2,31.2,0,0,0-.33-5.29Z"/><path class="cls-9" d="M360.33,523a39.73,39.73,0,0,0-2.62-4.39l-10.58-16c-.78-1.23-1.8-3-2.79-4.92a14,14,0,0,0,.17,2.09c0,.78.12,2.63.12,3.57V516.8A44.38,44.38,0,0,0,345,523h-6a42.66,42.66,0,0,0,.33-6.19V495.63a33.41,33.41,0,0,0-.33-5.29h6.4a22.62,22.62,0,0,0,2.5,4.35l10.37,15.62c1,1.47,2.3,3.6,3.2,5.24-.16-1.59-.29-4-.29-5.78V496a35.75,35.75,0,0,0-.32-5.66h6a35.69,35.69,0,0,0-.33,5.66v21.69a31.2,31.2,0,0,0,.33,5.29Z"/><path class="cls-9" d="M395.92,523.26a34.61,34.61,0,0,0-5.29-.28H377.84c-2.46,0-3.57,0-5.21.12a32.63,32.63,0,0,0,.33-5.41V495.5a35.83,35.83,0,0,0-.33-5.28c1.64.08,2.71.12,5.21.12h12.38a44.54,44.54,0,0,0,5.29-.29v5.41a37.36,37.36,0,0,0-5.29-.28H378.41v8.44h10a43.16,43.16,0,0,0,5.33-.28v5.37a31.7,31.7,0,0,0-5.33-.29h-10v9.68h12.3a38.27,38.27,0,0,0,5.24-.29Z"/><path class="cls-9" d="M416.13,490.83c-.13.2-.25.41-.36.62s-.13.27-.2.41a5.29,5.29,0,0,0-.54,1.06,48.15,48.15,0,0,1-6.8,10.05,43.07,43.07,0,0,1-6.32,5.9,18.86,18.86,0,0,0-3.11-4.26A32.69,32.69,0,0,0,408.92,494a15.5,15.5,0,0,0,2.18-5Zm14.8,35c-1-2.21-1.39-2.91-2.13-4.3a211.46,211.46,0,0,1-22.18,2.26,29.76,29.76,0,0,0-4.8.45L401,519c.9.08,1.85.13,3,.13.94,0,1.18,0,2.33,0a106.75,106.75,0,0,0,6-12.13,33.64,33.64,0,0,0,2.38-7.05l5.41,1.39c-.25.49-.41.82-.82,1.8a130.63,130.63,0,0,1-7.67,15.79,125.13,125.13,0,0,0,14.84-1.36,60.38,60.38,0,0,0-5.2-7.3l4-2.25a106.31,106.31,0,0,1,10,15.29Zm-6-36.9A26.44,26.44,0,0,0,429.5,497a32.91,32.91,0,0,0,4.51,4.63,39.39,39.39,0,0,0,3.89,2.79,21,21,0,0,0-3,4.51c-4.67-3.73-6.89-5.9-9.47-9.47a42.44,42.44,0,0,1-3.77-6.19c-.08-.2-.25-.49-.45-.94a9,9,0,0,0-.41-.82l-.33-.66Z"/><path class="cls-9" d="M473.62,495.14a19.83,19.83,0,0,0,4-.25v4.59a35,35,0,0,0-4.8-.24h-6c.37,7.13,1.27,12,2.87,15.78a13.18,13.18,0,0,0,2.46,4.06,2.94,2.94,0,0,0,.94.74c.49,0,1-2,1.52-6.23a19.06,19.06,0,0,0,3.89,2.3c-.61,3.93-1.31,6.23-2.33,7.7a3.54,3.54,0,0,1-2.83,1.73c-1.56,0-3.65-1.56-5.45-4-2.1-2.91-3.65-7.05-4.56-12.34a65.24,65.24,0,0,1-1-9.76h-16.4a40.51,40.51,0,0,0-4.8.25v-4.6a36.67,36.67,0,0,0,4.8.25h16.24C462,493,462,493,462,491.76a22.86,22.86,0,0,0-.24-3.2h5a28.29,28.29,0,0,0-.17,3.32v3.24h4.83a25.19,25.19,0,0,0-3.89-4.84l3.57-1.68a37.18,37.18,0,0,1,4.06,4.63l-3.33,1.89Zm-26.86,13.12a38.25,38.25,0,0,0-4.14.2v-4.34a37.15,37.15,0,0,0,4.22.2h9.92a35.93,35.93,0,0,0,4.15-.2v4.34a37.4,37.4,0,0,0-4.1-.2H454v9.3c2.87-.57,4.47-.9,8.4-1.88v4.18c-6.93,1.68-13.41,3-18.9,3.81-.37.08-.82.17-1.51.29l-.74-4.63a58.48,58.48,0,0,0,8.24-1V508.26Z"/><path class="cls-9" d="M501.54,499.4a18.43,18.43,0,0,0-.17,3.32c-.16,7-1.27,10.95-4.06,14.51-2.46,3.16-5.45,5.25-10.58,7.38a14.23,14.23,0,0,0-3.23-4.67,19.07,19.07,0,0,0,7.17-3.48c4.18-3.32,5.5-6.85,5.5-14.6a10.71,10.71,0,0,0-.2-2.46Zm16.64-5.17a11.85,11.85,0,0,0-1.64,2.87,25.69,25.69,0,0,1-6.31,8.24,24.8,24.8,0,0,1-4.92,3.4,13.79,13.79,0,0,0-3.69-3.73,19.08,19.08,0,0,0,6-3.77,16.89,16.89,0,0,0,3.9-5.21H490a41.61,41.61,0,0,0-5.58.25v-5.12a33.48,33.48,0,0,0,5.66.33h21.4a11.26,11.26,0,0,0,4-.37Z"/><path class="cls-9" d="M557,498.25a6.45,6.45,0,0,0-.45,2.75c-.12,4.63-.57,10.95-1,13.65-1.07,7.1-2.5,8.78-7.43,8.78A32.08,32.08,0,0,1,543,523a12.41,12.41,0,0,0-.94-5.25,21.61,21.61,0,0,0,5.41.94c1.76,0,2.38-.9,3-4.47a91.44,91.44,0,0,0,.9-13.12h-9.55a30.06,30.06,0,0,1-3.28,11.73c-2.25,4.35-5.91,8.08-11.07,11.36a16.05,16.05,0,0,0-3.69-4.35c5.13-2.71,8.49-6,10.66-10.33a21.28,21.28,0,0,0,2.09-7.14c.08-.57.16-1,.2-1.27H530a29.68,29.68,0,0,0-4.42.21l0-5a24,24,0,0,0,4.56.32h7.17c.13-1.56.21-3.93.21-5.12v-1a7.8,7.8,0,0,0-.13-1.6l5.5.12c-.08.43-.13.85-.17,1.27v.78c-.08.87-.08.87-.16,3a16.36,16.36,0,0,1-.16,2.58h9.1a8.22,8.22,0,0,0,3.23-.37Z"/><path class="cls-9" d="M598.58,497.52a6.55,6.55,0,0,0-.61,2.25,34.41,34.41,0,0,1-2.58,9.92A24.1,24.1,0,0,1,585.26,521a37.48,37.48,0,0,1-8.16,3.69,15,15,0,0,0-3.28-4.88,27.14,27.14,0,0,0,8.73-3.4c6-3.69,9.06-8.9,9.84-16.44h-20v5.29a26.83,26.83,0,0,0,.12,3.28H567a28.4,28.4,0,0,0,.21-3.45v-5.94a31.81,31.81,0,0,0-.17-3.9,32.77,32.77,0,0,0,4.43.2h8v-3.53a15.1,15.1,0,0,0-.21-3H585a19.41,19.41,0,0,0-.2,2.95v3.53h7.38c3,0,3,0,4-.33Z"/><path class="cls-9" d="M607.73,517.56a38.78,38.78,0,0,0,12.13-3,27.43,27.43,0,0,0,12.18-10,34.35,34.35,0,0,0,4.18-8.21,17.26,17.26,0,0,0,4.35,4c-3.49,7.5-7.38,12.34-13,16.07A44.29,44.29,0,0,1,612,522.53a14.2,14.2,0,0,0-2.71.7Zm3.48-25.46a57.5,57.5,0,0,1,10.58,7.9l-3.53,4.47a43.19,43.19,0,0,0-10.45-8.33Z"/><path class="cls-9" d="M654.67,524.33a28.2,28.2,0,0,0,.25-4.59V493.46a26.71,26.71,0,0,0-.25-4.19h5.62a28.2,28.2,0,0,0-.17,4.31v7.62a120.59,120.59,0,0,1,18.62,8.66l-2.87,4.83a98.58,98.58,0,0,0-14.52-7.83,13.89,13.89,0,0,1-1.39-.7,20.08,20.08,0,0,1,.16,2.79v10.82a41.25,41.25,0,0,0,.17,4.56Z"/><path class="cls-9" d="M690.67,523.75a12.41,12.41,0,0,0-.2-1.92,72,72,0,0,1-1.07-12.26,79.6,79.6,0,0,1,1.68-16,26,26,0,0,0,.62-3.82l5.41.58a56.46,56.46,0,0,0-2.58,12.26,68.61,68.61,0,0,0-.62,9.06,22.3,22.3,0,0,1-.08,2.25,43.4,43.4,0,0,1,2.13-5.41l3.28,1.48c-2.25,4.75-3.65,9.51-3.65,12.42a10.27,10.27,0,0,0,0,1.11Zm17.47-16.19c-2,2.38-2.92,4.14-2.92,5.9,0,2.34,2.26,3.57,6.52,3.57a28.92,28.92,0,0,0,9.76-1.56l.41,5.21a13.59,13.59,0,0,0-1.68.24,50.3,50.3,0,0,1-8.49.78c-5.08,0-8.36-1.15-10.16-3.57a6.8,6.8,0,0,1-1.23-4c0-2.67,1.23-5.42,3.77-8.45ZM701.37,494a29.76,29.76,0,0,0,7.59.65,45,45,0,0,0,11.15-1.1l.24,5-2.91.37a73.43,73.43,0,0,1-8.77.49,47.88,47.88,0,0,1-7.38-.45Z"/><path class="cls-9" d="M232.87,555.25a50.08,50.08,0,0,0-5.05.25V551a46.37,46.37,0,0,0,5,.24h27.06a47.3,47.3,0,0,0,5.05-.24v4.51a49.09,49.09,0,0,0-5-.25H248.32v3.65h4.88a25.2,25.2,0,0,0,3.36-.16,22.47,22.47,0,0,0-.16,3.07V576.5a18.8,18.8,0,0,0,.16,3,27.11,27.11,0,0,0-3.6-.16H239.71a26.74,26.74,0,0,0-3.69.16,20,20,0,0,0,.17-3V561.81a22.48,22.48,0,0,0-.17-3.07,25.27,25.27,0,0,0,3.37.16h4.75v-3.65Zm31.07,4.27a44,44,0,0,0-.24,4.59v18.36A46.47,46.47,0,0,0,264,588h-4.75v-2H233.36v2h-4.68a52.18,52.18,0,0,0,.25-5.45V564.07a40.86,40.86,0,0,0-.25-4.56h4.76a27.79,27.79,0,0,0-.17,3.65v18.9h26.08v-19a20.31,20.31,0,0,0-.2-3.57Zm-23.78,3.2V567h4v-4.3Zm0,8v5h4v-5Zm8.16-3.69h4.14v-4.31h-4.14Zm0,8.69h4.14v-5h-4.14Z"/><path class="cls-9" d="M280.18,562.26l-1.56,1.15a11.58,11.58,0,0,0-2.3-3v22.52a43.91,43.91,0,0,0,.2,5h-4.71a36.77,36.77,0,0,0,.24-4.92v-11.2c0-1.43,0-2.21.13-5.25a42.51,42.51,0,0,1-2.87,4.19,26.83,26.83,0,0,0-1.8-4.92A36.53,36.53,0,0,0,273.78,555a24.53,24.53,0,0,0,1.47-5.25l4.75,1c-2.42,6.56-2.42,6.56-3.69,9.39a31.84,31.84,0,0,0,4.47-3.36,19.91,19.91,0,0,0,5.37-7.06l4.8.74c-.53.86-.53.86-1.15,1.77h5.29a26.51,26.51,0,0,0,3.45-.13l1.88,1.73a12.08,12.08,0,0,0-1.31,1.64c-.12.12-.37.45-.82.94-.21.24-.53.61-.9,1.06l-.66.74h4.8a24.06,24.06,0,0,0,3.24-.12c-.08.94-.12,1.76-.12,3.24v3a30.61,30.61,0,0,0,.12,3.32,29.24,29.24,0,0,0-3.24-.12h-3.89a22,22,0,0,0,1.15,4.3,18.15,18.15,0,0,0,4.38-3.77l3.36,2.91-.53.45a38.73,38.73,0,0,1-5.45,4,18.1,18.1,0,0,0,3.36,4.14,17.13,17.13,0,0,0,3.4,2.46,33.38,33.38,0,0,0-2.22,4.23c-4.18-3.49-6.19-5.87-8.11-9.64a30.15,30.15,0,0,1-3-9.1h-1.6c-1.35,1-1.47,1.15-2.17,1.6,3.73,3.65,5.82,8.16,5.82,12.59,0,2.79-.65,4.55-1.88,5.37-1,.57-2.46.82-4.92.82h-2.75a13.74,13.74,0,0,0-1.23-3.9,44,44,0,0,1-6.52,2.87,12.38,12.38,0,0,0-1.8-3.48,48.22,48.22,0,0,0,14.19-6.65,19.43,19.43,0,0,0-.9-1.76,56.16,56.16,0,0,1-11.44,5.33,13.81,13.81,0,0,0-1.85-3.2,41.08,41.08,0,0,0,11.6-4.59,17.16,17.16,0,0,0-1.35-1.48,39.33,39.33,0,0,1-8.32,3.24,15,15,0,0,0-1.85-3.11,31.24,31.24,0,0,0,10.13-3.61h-3.81a28.45,28.45,0,0,0-3.28.12c.08-.9.12-1.72.12-3Zm4.1,2.22h5.66v-3.24h-5.66Zm7.54-6.32a23.65,23.65,0,0,0,2.1-2.58H287.4a28.66,28.66,0,0,1-2.34,2.58Zm-6.39,25.67a23.89,23.89,0,0,0,3.77.33c2.34,0,2.75-.54,2.75-3.29v-.94a45.27,45.27,0,0,1-6.48,3.9ZM294,564.48h6.4v-3.24H294Z"/><path class="cls-9" d="M325.32,550.78A68.54,68.54,0,0,0,328,563.61c2.66-1,2.66-1,10.62-3.6a12.22,12.22,0,0,0,1.55-.62l1.77,5.17a100.68,100.68,0,0,0-13.53,3.93c-6,2.22-9,4.84-9,7.79s2.78,4.27,9.39,4.27c5.12,0,10.17-.62,13.24-1.68l.45,5.61a26.41,26.41,0,0,0-3.32.29,87.72,87.72,0,0,1-9.59.62c-5.7,0-9.27-.7-11.89-2.26a7.77,7.77,0,0,1-3.57-6.85,9.65,9.65,0,0,1,3.65-7.34,25.67,25.67,0,0,1,5.57-3.52,105.94,105.94,0,0,1-2.74-11.11,17.36,17.36,0,0,0-.66-2.67Z"/><path class="cls-9" d="M359.56,582.47a47.25,47.25,0,0,0-5.05.17v-5.29a26.68,26.68,0,0,0,5.13.29h18.65V559.76h-18a38.21,38.21,0,0,0-5.24.21v-5.33a27.53,27.53,0,0,0,5.29.28H380.1c2.13,0,2.13,0,3.57-.08a25.77,25.77,0,0,0-.13,3.4v22.51a28.34,28.34,0,0,0,.2,4.22h-5.49v-2.5Z"/><path class="cls-9" d="M422.94,553.57a25.05,25.05,0,0,0-1.43,2.95c-2.59,6.11-4.18,9.23-5.78,11.6a98.72,98.72,0,0,1,9.14,8.69L420.93,581a60.77,60.77,0,0,0-8.32-8.65,46.57,46.57,0,0,1-6.4,6.84,52.17,52.17,0,0,1-9.76,6.77,12.65,12.65,0,0,0-3.6-4.26A44.34,44.34,0,0,0,408.67,569a73.36,73.36,0,0,0-10.86-7.38l3.61-3.61c3,1.76,4.75,2.91,6.76,4.34,3.08,2.22,3.08,2.22,3.4,2.42,2.63-4.3,5.25-10.25,5.78-13.2Z"/><path class="cls-9" d="M435.69,579.56a38.91,38.91,0,0,0,12.14-3,27.43,27.43,0,0,0,12.18-10,34.66,34.66,0,0,0,4.18-8.2,17.58,17.58,0,0,0,4.34,4c-3.48,7.5-7.38,12.34-13,16.08a44.54,44.54,0,0,1-15.62,6.15,13.24,13.24,0,0,0-2.7.7Zm3.49-25.46a58.19,58.19,0,0,1,10.58,7.9l-3.53,4.47a42.76,42.76,0,0,0-10.46-8.33Z"/><path class="cls-9" d="M482.64,586.33a27.12,27.12,0,0,0,.24-4.59V555.46a26.7,26.7,0,0,0-.24-4.19h5.62a26.86,26.86,0,0,0-.17,4.3v7.63a120.54,120.54,0,0,1,18.62,8.65l-2.87,4.84a96.74,96.74,0,0,0-14.52-7.83,13.89,13.89,0,0,1-1.39-.7,21.75,21.75,0,0,1,.16,2.79v10.82a43.15,43.15,0,0,0,.17,4.55Z"/><path class="cls-9" d="M517.36,555c1.69.37,4.31.53,9.52.53a16.52,16.52,0,0,0,1.64-5.08l5.37.57a29,29,0,0,0-1.64,3.69c-.21.45-.29.58-.37.74.33,0,.33,0,2.58-.16a55.52,55.52,0,0,0,10.74-1.39l.29,4.67c-1.15.09-1.15.09-3.24.33-3,.37-8.2.7-12.34.82a21.32,21.32,0,0,1-3.77,5.45v.09l.82-.62a9.84,9.84,0,0,1,5.78-1.84c3.2,0,5.2,1.51,5.86,4.34,3.16-1.15,5.25-1.88,6.27-2.21a12.89,12.89,0,0,0,3-1.23l1.92,4.71a35.51,35.51,0,0,0-4.55,1.11q-.86.24-6.15,2.09v5.09a17.44,17.44,0,0,0,.13,2.17l-4.76.12a32.8,32.8,0,0,0,.25-4.75v-1a25.83,25.83,0,0,0-3.94,2.13c-1.43,1.07-2.13,2.18-2.13,3.37,0,2.13,2,3,6.93,3A35.91,35.91,0,0,0,547.7,580l.41,5.29a12,12,0,0,0-1.89.16,75.33,75.33,0,0,1-10.5.74c-4.34,0-7.05-.49-9.14-1.72a6,6,0,0,1-3-5.29,6.54,6.54,0,0,1,1.8-4.55c1.84-2.3,4.18-3.86,8.82-5.78a2.27,2.27,0,0,0-2.28-2.23h-.22c-2.38,0-5.25,1.44-8.41,4.23a18.3,18.3,0,0,0-3.57,3.73L516,570.92a25.46,25.46,0,0,0,3.69-3.65,54,54,0,0,0,4.92-7,1.87,1.87,0,0,1,.33-.54h-.7c-.66,0-4.27-.09-5.17-.09h-1.8Z"/><path class="cls-9" d="M582.31,582.84a33.87,33.87,0,0,0,4.39.2c2.54,0,4.63-.08,6.8-.28a17.54,17.54,0,0,0-1.06,4.34H588.3c-5.87,0-9.1-.49-11.6-1.72a14.8,14.8,0,0,1-4.6-3.72,26.55,26.55,0,0,1-4.31,6.35,15.16,15.16,0,0,0-3.11-2.82c-.41,1.88-1.52,2.46-4.8,2.46-.9,0-1.93,0-3.4-.13a12,12,0,0,0-1-4.22,33.91,33.91,0,0,0,3.49.25c1.19,0,1.44-.21,1.44-1.23v-9.23c-1,.37-1.44.53-2.22.78-1,.37-1.56.57-2.13.82l-.66-4.55a27.88,27.88,0,0,0,5-1.31v-7.3h-1.76a23.2,23.2,0,0,0-3,.16V557.3a14.36,14.36,0,0,0,3,.25h1.68v-3.24a22.46,22.46,0,0,0-.24-4.18H565a22.09,22.09,0,0,0-.25,4.14v3.28h3.49a1.32,1.32,0,0,1,.33-.08v4.26c-.8-.08-1.61-.12-2.42-.12h-1.39v5.74c1.51-.58,1.92-.74,3.56-1.48v1.8a27.56,27.56,0,0,0,3.4.17h17.06a23.77,23.77,0,0,0,3.77-.21v4.18a25,25,0,0,0-3.77-.2h-6.56V575h5.13a22.16,22.16,0,0,0,3.64-.2v4a23.32,23.32,0,0,0-3.64-.2h-5.13Zm-7.34-8.9c-.12.33-.29.82-.74,2.38-.16.53-.29.9-.49,1.6a10.12,10.12,0,0,0,4.31,3.86V571.57H571.4a22.23,22.23,0,0,0-3.16.16v-1.68c-1.39.62-1.84.82-3.4,1.44v12.17a8.34,8.34,0,0,1,0,1,17.51,17.51,0,0,0,3.57-4.51,20,20,0,0,0,2.34-7.26Zm-1.44-8.16c-1.63,0-2.3,0-3.44.09,0-.62.08-2,.12-4.19v-6.47a35.7,35.7,0,0,0-.12-3.86,38.11,38.11,0,0,0,4,.17h12.22a36.9,36.9,0,0,0,3.93-.17A24.77,24.77,0,0,0,590,555v6.77c0,1.51,0,1.64.17,4.1-1.07-.08-2.38-.13-4.06-.13Zm.87-8.81h11.44v-1.89H574.4Zm0,5.33h11.44v-2H574.4Z"/><path class="cls-9" d="M612.69,554.31a23.94,23.94,0,0,0-.25-4.06h5.13a26.2,26.2,0,0,0-.25,4.06v9h8.78V556.6a25.11,25.11,0,0,0-.16-3.24h4.92a23.68,23.68,0,0,0-.21,3.57v8.16a23,23,0,0,0,.12,2.62c-.9-.08-1.88-.12-2.87-.12H617.32V581h10.13v-6.81a21.33,21.33,0,0,0-.21-3.48h5a31.59,31.59,0,0,0-.21,3.89v8.86a25.58,25.58,0,0,0,.25,4.1h-4.8v-2.13h-24.4v2.13h-4.8a29.59,29.59,0,0,0,.24-4.1v-8.69a34.54,34.54,0,0,0-.2-3.94h5a20.85,20.85,0,0,0-.21,3.53V581h9.64V567.59h-9.83a24.18,24.18,0,0,0-3,.12c.08-.9.12-1.68.12-2.62V557a22.94,22.94,0,0,0-.2-3.61h4.91a25.8,25.8,0,0,0-.16,3.29v6.64h8.12Z"/><path class="cls-9" d="M649.88,551.81a36.66,36.66,0,0,0-.49,5.53c-.17,3.82-.41,12.14-.41,15,0,3.89.24,5.37,1.06,6.6s2.91,2.13,5.49,2.13c4.43,0,8-2.5,9.93-7a27.38,27.38,0,0,0,1.88-6.89,18,18,0,0,0,5,3.16c-1.64,5.53-2.87,8.2-4.88,10.45-3.07,3.49-7.13,5.21-12.3,5.21a13.35,13.35,0,0,1-7.17-1.8c-2.83-1.88-4-5-4-10.54,0-2.13.08-6.23.33-16.52v-2.66a20.08,20.08,0,0,0-.16-2.79Z"/><path class="cls-9" d="M678,556h1.56c.74,0,.74,0,6.76-.41,2.3-.12,9.1-.49,20.46-1a23.39,23.39,0,0,0,4.72-.4l.29,5.24h-.87a18.27,18.27,0,0,0-8.11,2.22c-5.21,2.7-8.29,6.8-8.29,10.94,0,3.2,2,5.66,5.46,6.69a25.41,25.41,0,0,0,6.11,1.06h.82l-.74,5.58a9.55,9.55,0,0,0-1.4-.25c-4.51-.57-7.09-1.31-9.59-2.7a11,11,0,0,1-5.86-9.89,14.42,14.42,0,0,1,3.9-9.67,18,18,0,0,1,5.7-4.1c-3.32.49-4.92.61-13.82,1.27a57.78,57.78,0,0,0-6.81.82Z"/><path class="cls-9" d="M718.31,558.16h1.27c1,0,3.24-.12,5.29-.28.08-2.42.08-3.08.08-4.88v-2.3l5.16.08c-.24,1.15-.24,1.15-.49,6.68a2.69,2.69,0,0,0,.62-.16l1.51,1.76a16.24,16.24,0,0,0-2.3,2.46l-.12,2.87a26.61,26.61,0,0,1,3.61-3c4.43-3.2,6.85-4.22,10-4.22,6,0,9.35,4.92,9.35,13.73a29.91,29.91,0,0,1-.53,5.9c.61.41.9.66,2.71,2a6.88,6.88,0,0,1,.77.66l.5.37-1.93,4.92a22.43,22.43,0,0,0-3.69-3.4,5.94,5.94,0,0,1-1.89,2.46,10.47,10.47,0,0,1-6.35,2c-4.72,0-7.91-2.54-7.91-6.31s3.11-6.27,7.62-6.27a13.45,13.45,0,0,1,5.62,1.23,17.06,17.06,0,0,0,.33-3.49c0-6.07-1.73-9.06-5.21-9.06-1.89,0-3.85.82-6.64,2.79a52.34,52.34,0,0,0-6.28,5.33c0,12.05,0,14.35.33,16.65h-5.37c.2-1.52.2-1.52.25-11.24a9.81,9.81,0,0,1,.08-1.51c-.41.53-1.23,1.51-2.17,2.54-1.93,2.13-2.26,2.54-2.91,3.36l-2.47-4.8c1-.57,2-1.56,7.55-7,0-2.54,0-2.54.12-5.9a44.29,44.29,0,0,0-6.19.61Zm23.33,19.11c-1.93,0-3.29,1-3.29,2.38,0,1.22,1.44,2.13,3.37,2.13a5.72,5.72,0,0,0,2.62-.66,4.08,4.08,0,0,0,1.64-1.8,2,2,0,0,0,.25-.53,8,8,0,0,0-4.59-1.52Z"/><path class="cls-9" d="M774.84,576.24c0-.86.09-1.27.09-1.76s0-.45-.13-2.91l-.57-13.94c-.08-1.8-.21-3.86-.37-5h6.72c-.12,1.11-.28,3.24-.36,5l-.58,13.94c-.08,2.38-.08,2.38-.08,2.95a14.15,14.15,0,0,0,.08,1.72Zm-.57,9V579.6h6v5.62Z"/><rect class="cls-1" width="1024" height="1024"/><g class="cls-21"><g class="cls-21"><g class="cls-21"><path class="cls-22" d="M338.82,921.6H280.64c-16.06,0-34.54,10.6-34.54,26.66v21.82h126V948.26c0-16.06-17.26-26.66-33.33-26.66"/><polygon class="cls-23" points="309.13 921.2 279.13 924.11 309.13 963.11 334.48 924.11 309.13 921.2"/><path class="cls-24" d="M309.12,970.08h43.64c19.39-17,24.65-31.51,24.65-31.51S361.25,921.6,330,916c0,5.94,4.8,15.19,4.8,15.19l-25.7,31.88Z"/><path class="cls-25" d="M363.67,928.42a93.7,93.7,0,0,0-20.15-10c-14.82-4.94-11.51,8.82-11.51,8.82s-18.52,29.26-22.89,35.88c0,0,31.68-26.33,54.55-34.7"/><path class="cls-26" d="M309.13,963.12s35.55-36.26,58.78-40.5c-19.8-16.57-49.09-14.75-49.09-14.75,0,5.93,7.22,9,7.22,16.39,0,12-12.56,30.07-16.92,36.69Z"/><path class="cls-24" d="M309.12,970.08H265.48c-19.39-17-24.64-31.51-24.64-31.51S257,921.6,288.21,916c0,5.94-4.79,15.19-4.79,15.19l25.7,31.88Z"/><path class="cls-25" d="M254.58,928.42a93.7,93.7,0,0,1,20.15-10c14.82-4.94,11.51,8.82,11.51,8.82s18.52,29.26,22.88,35.88c0,0-31.67-26.33-54.54-34.7"/><path class="cls-26" d="M309.12,963.12s-35.55-36.26-58.79-40.5c19.8-16.57,49.09-14.75,49.09-14.75,0,5.93-7.21,9-7.21,16.39,0,12,12.56,30.07,16.91,36.69Z"/><path class="cls-23" d="M292.16,924.11c7.11,5.16,13.54,4.75,17,4.75s10.63.41,16.91-4.6l.06-20.07h-34Z"/><path class="cls-27" d="M292.16,912.66c4.73,5.34,10.59,6.78,17,6.78s12.25-1.44,17-6.78V899.07h-34Z"/><path class="cls-28" d="M353.38,901a17.51,17.51,0,0,1-3.57,4.51,129.53,129.53,0,0,1,16.29,4.58,23.23,23.23,0,0,1-3.37-9.09c-.36-2-1.9-4-2.22-6.66-.38-3.16-.8-6.76-1-10.71-.25-4.61-.58-8.77-.4-14.34,1.4-43.1-30.33-54.45-50.23-54.45s-54.48,10-53.08,53.08c.18,5.57.09,10.7-.15,15.3-.22,4-.55,7.53-.94,10.69-.33,2.67-.69,5-1,7.08a86,86,0,0,1-2,9.11s33.48-12.57,57.23-4.65c10.83-3.61,23.66-3,34.45-1.17q5.1-1.39,10.06-3.28"/><path class="cls-23" d="M308.86,815.25c-22,0-39.81,22.92-39.81,51.21a62.4,62.4,0,0,0,2.76,18.45c.24.76.48,1.51.74,2.25a54.16,54.16,0,0,0,4.2,9A47.55,47.55,0,0,0,280,901c7.25,9.5,17.49,15.3,28.87,15.3,22,0,39.8-21.58,39.8-49.86s-17.83-51.21-39.8-51.21"/><path class="cls-12" d="M299.51,864.06,312,846.17l-21.15-8.6L271.8,884.91c.24.76.48,1.51.74,2.25l9.44-3.87-5.24,12.88A44.89,44.89,0,0,0,280,901l33.07-39.93Z"/><path class="cls-29" d="M308.86,904.4c-7.78,0-11.86-3.85-12.3-4.29a3.32,3.32,0,0,1,4.66-4.72c.17.15,2.67,2.38,7.64,2.38s7.54-2.3,7.64-2.39a3.35,3.35,0,0,1,4.67.09,3.27,3.27,0,0,1,0,4.63c-.43.45-4.51,4.3-12.29,4.3"/><path class="cls-30" d="M313.18,889.64H305a2,2,0,0,1-2.05-1.95v-.05h0v-.74a2.05,2.05,0,0,1,2-2.1h8.24a2.07,2.07,0,0,1,2.06,2.05v.74a2.06,2.06,0,0,1-2.06,2"/><path class="cls-31" d="M325.48,877a4.12,4.12,0,0,1-4.1-4.1v-4.1a4.1,4.1,0,1,1,8.2,0v4.1a4.12,4.12,0,0,1-4.1,4.1m-32.8,0a4.12,4.12,0,0,1-4.1-4.1v-4.1a4.11,4.11,0,1,1,8.21-.41,2.81,2.81,0,0,1,0,.41h0v4.1a4.11,4.11,0,0,1-4.11,4.1"/><path class="cls-28" d="M362.12,878.07V866.85a66,66,0,0,0-5.56-27.57,20.18,20.18,0,0,0,6,.45,142,142,0,0,1-11.41-9.66c-11.44-15.86-29.47-22.4-42.14-22.4-18.2,0-47.43,13.28-52.3,48.53l-.07-.53a164.68,164.68,0,0,1-7.09,15.1,23.21,23.21,0,0,0,6.38-3.68c0,3.55-.08,6,0,15.29h3.49c-.1-4.85-.22-1.09-.22-2.26,0-16.59,10,2.4,10-9.42s6.63-13,13.27-19.64c1.6-1.6,4-3.95,6-5.95,6.77,3.07,15.85,5.38,27.81,6a36.76,36.76,0,0,1,15.12,9.22,14.89,14.89,0,0,0-2.93-8.34c9.44,1.93,15.26,8.36,16.51,19.25v.35a32.93,32.93,0,0,1-4.43,15,13.57,13.57,0,0,0,6.38-4.27c5.84,23.15,19.06,27.79,19.06,27.79a177.6,177.6,0,0,1-4-32"/><path class="cls-23" d="M277.34,867.52c0,7-3.56,12.71-7.94,12.71s-7.95-5.69-7.95-12.71S265,854.8,269.4,854.8s8,5.7,8,12.72"/><path class="cls-32" d="M254.65,893.92a14.89,14.89,0,0,0-14.88,14.89h0a14.69,14.69,0,0,0,1.52,6.44l-1.12-1.13a4,4,0,0,0-5.6-.08l-.28.3-26.61,30.17c-2.63,3-3.86,8,.06,11.88s8.76,2.79,11.9.07l4.32-4V970h8.65V944.6l16.69-15.25a4,4,0,0,0,.51-5.55h0a4.12,4.12,0,0,0-.28-.31l-1.32-1.32a14.57,14.57,0,0,0,6.45,1.53,14.89,14.89,0,1,0,.77-29.77h-.77"/><path class="cls-33" d="M262.64,923.18a1.85,1.85,0,0,1-2.62,0h0l-19.74-19.73a1.86,1.86,0,0,1,0-2.62h0l2.64-2.63a1.85,1.85,0,0,1,2.62,0h0l19.73,19.73a1.85,1.85,0,0,1,0,2.62h0Z"/></g></g></g><g class="cls-34"><g class="cls-34"><path class="cls-35" d="M237.49,970.07V961a27.32,27.32,0,0,0-27.32-27.32H137.29A27.32,27.32,0,0,0,110,961v9.11Z"/><path class="cls-36" d="M153.87,933.81c0,13,39.72,13.49,39.72,0V916.73H153.87Z"/><path class="cls-37" d="M153.83,924.4c5.54,6.26,12.41,8,19.88,8s14.33-1.7,19.87-8V908.5H153.83Z"/><path class="cls-36" d="M143.87,878.69c0,6.6-3.34,11.94-7.47,11.94s-7.46-5.34-7.46-11.94,3.34-12,7.46-12,7.47,5.35,7.47,12m74.64,0c0,6.6-3.34,11.94-7.46,11.94s-7.47-5.34-7.47-11.94,3.34-12,7.47-12,7.46,5.35,7.46,12"/><path class="cls-36" d="M134.91,883.35c0-25.46,17.38-46.1,38.82-46.1s38.81,20.64,38.81,46.1-17.37,46.1-38.81,46.1-38.82-20.64-38.82-46.1"/><path class="cls-30" d="M173.73,914.52c-12.54,0-16.4-3.22-17-3.87a3,3,0,0,1,4.11-4.32c.24.16,3.28,2.21,12.93,2.21,10,0,12.91-2.2,12.94-2.23a2.92,2.92,0,0,1,4.11,0h.05a3,3,0,0,1,0,4.24l0,0c-.65.65-4.5,3.86-17,3.86"/><path class="cls-22" d="M173.73,822c25.72,0,41.8,19,41.8,34.8s-3.22,22.15-6.43,15.82L202.67,860s-19.29,0-25.72-6.33c0,0,9.64,19-9.65,0,0,0,3.22,12.65-16.08-3.17,0,0-9.64,6.33-12.86,22.15-.89,4.39-6.43,0-6.43-15.82s12.86-34.8,41.8-34.8"/><path class="cls-38" d="M155.51,883.54A4.57,4.57,0,0,1,151,879v-4.55a4.56,4.56,0,0,1,9.11-.14V879a4.58,4.58,0,0,1-4.56,4.56m36.44,0a4.58,4.58,0,0,1-4.56-4.56v-4.55a4.56,4.56,0,1,1,9.11-.43,3.08,3.08,0,0,1,0,.43V879a4.58,4.58,0,0,1-4.55,4.56"/><path class="cls-30" d="M177.14,896.06h-6.83a3.42,3.42,0,0,1,0-6.83h6.83a3.42,3.42,0,1,1,.47,6.82h-.47"/><path class="cls-39" d="M132.74,933.64H146.4v36.43H132.74Zm68.31,0h13.67v36.43H201.05Z"/><polygon class="cls-39" points="210.16 947.3 137.29 947.3 133.31 970.07 214.72 970.07 210.16 947.3"/><path class="cls-40" d="M215,849.38c0,6-18.63,0-41,0s-41,6-41,0c0-16.16,4.56-38.71,41-38.71,31.88,0,41,22.55,41,38.71"/><path class="cls-39" d="M133.24,849.38S131,863,140.07,863c4.56,0,11.39-9.11,34.16-9.11s29.6,9.11,34.16,9.11c9.11,0,6.83-13.66,6.83-13.66s-6.83,2.28-41,2.28-41-2.28-41-2.28"/><path class="cls-41" d="M133,847.1s-2.28,13.66,6.83,13.66c4.56,0,11.39-9.1,34.16-9.1s29.6,9.1,34.16,9.1c9.11,0,6.83-13.66,6.83-13.66s-6.83,2.28-41,2.28-41-2.28-41-2.28"/><path class="cls-39" d="M167.15,812.94s0-6.83,6.83-6.83,6.83,6.83,6.83,6.83Z"/><path class="cls-42" d="M199.92,954.13c5.65,0,10.24,2.55,10.24,5.69s-4.59,5.7-10.24,5.7-10.25-2.56-10.25-5.7,4.59-5.69,10.25-5.69"/><path class="cls-43" d="M105.37,894.84v20.07c0,2.53-4.58,4.57-10.24,4.58s-10.25-2-10.25-4.53l0-20.07a21.63,21.63,0,1,0,20.49,0"/><rect class="cls-43" x="88.33" y="930.88" width="13.66" height="39.19"/></g></g><g class="cls-44"><g class="cls-44"><path class="cls-40" d="M512.27,970.07V951.5a27.87,27.87,0,0,0-27.85-27.87H410.1a27.87,27.87,0,0,0-27.86,27.87v18.57Z"/><polygon class="cls-45" points="428.68 923.63 447.25 946.86 465.83 923.63 465.83 905.06 428.68 905.06 428.68 923.63"/><path class="cls-46" d="M428.68,914.34c5.65,6.39,10.93,8,18.56,8s12.94-1.61,18.59-8V895.77H428.68Z"/><path class="cls-47" d="M464,809.25c-8.93-2.9-30-2.1-35.23,4.73-13.67.26-29.71,12.62-31.81,28.92-2.09,16.14,2.55,23.63,4.2,35.76,1.87,13.75,9.6,18.14,15.77,20,8.89,11.74,18.34,11.24,34.21,11.24,31,0,45.74-20.73,47.05-55.95.79-21.3-11.71-37.42-34.19-44.7"/><path class="cls-45" d="M481.68,855.45c-3-4.15-6.84-7.5-15.25-8.67,3.16,1.44,6.18,6.44,6.57,9.2s.79,5-1.71,2.23c-10-11.06-20.9-6.7-31.7-13.46-7.54-4.72-9.84-9.94-9.84-9.94s-.92,7-12.35,14.06c-3.32,2.06-7.28,6.64-9.47,13.41-1.58,4.87-1.08,9.2-1.08,16.62a40,40,0,0,0,39.83,39.83c22,0,39.84-18.35,39.84-39.83,0-13.46-1.42-18.72-4.84-23.45"/><path class="cls-30" d="M451.09,890h-8.85a2.22,2.22,0,0,1,0-4.43h8.86a2.22,2.22,0,0,1,.3,4.43h-.3"/><path class="cls-38" d="M429,874.48a4.42,4.42,0,0,1-4.42-4.42h0v-4.42a4.43,4.43,0,0,1,8.85,0v4.42a4.43,4.43,0,0,1-4.43,4.43m35.41,0a4.44,4.44,0,0,1-4.42-4.43v-4.42a4.43,4.43,0,1,1,8.85-.42,2.94,2.94,0,0,1,0,.42v4.42a4.43,4.43,0,0,1-4.43,4.43"/><path class="cls-30" d="M447.25,908.45c-12.79,0-16.71-3.27-17.37-3.94a3,3,0,0,1,4.19-4.41c.24.17,3.35,2.26,13.18,2.26,10.22,0,13.17-2.25,13.2-2.27a3,3,0,0,1,4.19,0l.05.06a3.11,3.11,0,0,1-.06,4.35c-.66.67-4.59,3.94-17.38,3.94"/><path class="cls-22" d="M410.1,953.82h-9.29c0-19,8.72-39.47,27.87-39.47v9.28c-14.7,0-18.58,19.75-18.58,30.19M489,935.24h-9.28c0-1.91-2.42-11.61-13.93-11.61v-9.28c16.41,0,23.22,13.61,23.22,20.9"/><path class="cls-35" d="M405.46,939.89a13.93,13.93,0,1,1-13.93,13.93h0a13.93,13.93,0,0,1,13.93-13.93h0"/><path class="cls-42" d="M405.46,944.53a9.29,9.29,0,1,1-9.29,9.29h0a9.29,9.29,0,0,1,9.29-9.29"/><path class="cls-22" d="M503,960.78h-9.29c0-3.87-.5-23.22-10.45-23.22s-10.45,19.35-10.45,23.22h-9.28c0-20.35,7.38-32.5,19.73-32.5S503,940.43,503,960.78"/><path class="cls-35" d="M468.15,956.14a4.65,4.65,0,1,1-4.64,4.66v0h0a4.63,4.63,0,0,1,4.62-4.64h0"/><path class="cls-35" d="M498.33,956.14a4.65,4.65,0,1,1-4.64,4.66v0h0a4.63,4.63,0,0,1,4.62-4.64h0"/></g></g><g class="cls-48"><g class="cls-48"><path class="cls-49" d="M631.73,933.73a35.81,35.81,0,0,0-12.94-2.48H567a36.17,36.17,0,0,0-13,2.48c-9.46,3.68-17.2,11.27-17.2,21.27v15.1H649V955c0-10-7.73-17.57-17.26-21.25"/><path class="cls-39" d="M618.79,931.25v32.36H567V931.25a35.71,35.71,0,0,0-13,2.48v36.35h77.67V933.73a35.81,35.81,0,0,0-12.94-2.48"/><polygon class="cls-50" points="575.64 931.25 610.16 931.25 592.9 961.45 575.64 931.25"/><path class="cls-47" d="M592.66,836.61c17.71,0,47.23,8.86,47.23,47.24s0,47.24-8.85,47.24-20.67-8.86-38.38-8.86-29.28,8.86-38.38,8.86c-9.87,0-8.86-35.43-8.86-47.24,0-38.38,29.53-47.24,47.24-47.24"/><path class="cls-45" d="M577.05,931.32c6.33,4.6,12.79,4.23,15.85,4.23s9.46.37,15.79-4.23V917.51H577.05Z"/><path class="cls-46" d="M577,923.39c4.41,5,9.88,6.34,15.82,6.34s11.43-1.36,15.84-6.34V910.72H577Z"/><path class="cls-45" d="M557.23,882.56c0-25.17,15.86-45.57,35.43-45.57s35.42,20.4,35.42,45.57-15.86,44.38-35.42,44.38-35.43-19.21-35.43-44.38"/><path class="cls-51" d="M592.66,916.33c-6.93,0-10.56-3.43-10.95-3.82a3,3,0,0,1,4.15-4.2c.15.14,2.38,2.12,6.8,2.12s6.71-2,6.8-2.12a3,3,0,0,1,4.16.08,2.93,2.93,0,0,1,0,4.12c-.39.4-4,3.82-10.94,3.82"/><path class="cls-47" d="M548.56,896.73c-.09-4.32-.19-1-.19-2,0-14.77,8.86,2.13,8.86-8.38s5.9-11.58,11.81-17.48c3-3,8.86-8.75,8.86-8.75S592.66,869,604.47,869s23.62,5.94,23.62,17.75,8.85-6.84,8.85,7.92c0,1.06-.1-2.29-.17,2h3.1V882.85c0-38.38-29.51-46.3-47.23-46.3s-47.24,7.68-47.24,46.06c0,3.42-.08,5.43,0,14.06Z"/><path class="cls-38" d="M578.26,891.92a3.67,3.67,0,0,1-3.65-3.65v-3.65a3.66,3.66,0,0,1,7.31,0h0v3.65a3.66,3.66,0,0,1-3.66,3.65m29.19,0a3.67,3.67,0,0,1-3.65-3.65v-3.65a3.65,3.65,0,0,1,7.3,0v3.65a3.64,3.64,0,0,1-3.65,3.65h0"/><path class="cls-30" d="M596.51,903.2h-7.3a1.83,1.83,0,0,1-1.82-1.83v-.65a1.81,1.81,0,0,1,1.81-1.83h7.31a1.84,1.84,0,0,1,1.83,1.83v.65a1.84,1.84,0,0,1-1.83,1.83m-68.34,48.54a5.39,5.39,0,0,0-10.78-.14h0v18.48h10.78Z"/><path class="cls-43" d="M544.35,873a3.24,3.24,0,0,0-3.23,3.24V913A18.35,18.35,0,0,1,526,931V876.3a3.24,3.24,0,0,0-6.48,0V931a18.35,18.35,0,0,1-15.11-18V876.23a3.24,3.24,0,0,0-6.47-.36,2.16,2.16,0,0,0,0,.36V912.9a24.8,24.8,0,0,0,21.57,24.58v11a3.24,3.24,0,0,0,6.48,0v-11a24.79,24.79,0,0,0,21.57-24.57V876.23a3.25,3.25,0,0,0-3.24-3.24"/><path class="cls-30" d="M627.42,852.71c0,5.7-13.34,9.5-34.52,9.5s-34.52-3.8-34.52-9.5c0-15.3,17.26-38,23-38s9.59,7.6,11.51,7.6,5.75-7.6,11.51-7.6,23,22.67,23,38"/><path class="cls-30" d="M653.31,849.26c0,7.15-15.1,25.89-60.41,25.89s-60.41-18.74-60.41-25.89S561.92,845,592.9,845s60.41-2.84,60.41,4.31"/><path class="cls-22" d="M627.42,852.71c0,5.7-13.34,9.5-34.52,9.5s-34.52-3.8-34.52-9.5a28.74,28.74,0,0,1,1.2-7.76c10.3,8.63,56.33,8.63,66.64,0a29.47,29.47,0,0,1,1.2,7.75"/><path class="cls-45" d="M564.61,883.51c0,6.24-3.17,11.31-7.07,11.31s-7.08-5.07-7.08-11.31,3.17-11.32,7.08-11.32,7.07,5.06,7.07,11.32m70.72,0c0,6.24-3.17,11.31-7.07,11.31s-7.08-5.07-7.08-11.31,3.17-11.32,7.08-11.32,7.07,5.06,7.07,11.32"/></g></g><g class="cls-52"><g class="cls-52"><g class="cls-52"><path class="cls-35" d="M794.32,970.08V952.9a25.76,25.76,0,0,0-25.75-25.77H699.84a25.77,25.77,0,0,0-25.77,25.77h0v17.18Z"/><polygon class="cls-53" points="717.02 931.42 734.2 948.6 751.38 931.42 751.38 909.95 717.02 909.95 717.02 931.42"/><path class="cls-54" d="M717,918.54c5.22,5.9,10.11,7.38,17.16,7.38s12-1.48,17.2-7.38V901.36H717Z"/><path class="cls-55" d="M749.64,820.06c-8.26-2.67-27.72-1.94-32.59,4.38-12.64.24-27.47,11.67-29.41,26.75-1.93,14.92,2.36,21.85,3.88,33.07,1.73,12.71,8.88,16.78,14.59,18.48,8.22,10.86,17,10.4,31.64,10.4,28.65,0,42.3-19.17,43.51-51.74.73-19.7-10.83-34.61-31.62-41.33"/><path class="cls-53" d="M766,862.8c-2.77-3.84-6.32-6.93-14.1-8,2.92,1.33,5.72,6,6.09,8.51s.72,4.62-1.59,2.06c-9.25-10.23-19.33-6.2-29.32-12.45-7-4.36-9.1-9.2-9.1-9.2s-.85,6.45-11.43,13c-3.07,1.9-6.72,6.14-8.75,12.4-1.46,4.5-1,8.51-1,15.37a36.84,36.84,0,0,0,73.68,0c0-12.45-1.31-17.31-4.47-21.69"/><path class="cls-56" d="M737.75,894.72h-8.19a2.05,2.05,0,1,1,0-4.1h8.2a2,2,0,1,1,0,4.1"/><path class="cls-38" d="M717.28,880.39a4.09,4.09,0,0,1-4.09-4.09h0v-4.09a4.09,4.09,0,0,1,8.18,0v4.09a4.09,4.09,0,0,1-4.09,4.09h0m32.75,0a4.09,4.09,0,0,1-4.09-4.09h0v-4.09a4.09,4.09,0,1,1,8.18-.13v4.22a4.09,4.09,0,0,1-4.09,4.09h0"/><path class="cls-56" d="M734.2,911.81c-11.83,0-15.46-3-16.07-3.64a2.81,2.81,0,1,1,3.87-4.08c.22.16,3.1,2.09,12.19,2.09,9.45,0,12.18-2.08,12.21-2.1a2.73,2.73,0,0,1,3.86,0h.06a2.86,2.86,0,0,1-.06,4c-.61.62-4.24,3.65-16.07,3.65"/><path class="cls-43" d="M721.56,970.08,717,930.48a23.56,23.56,0,0,0,17.17,7.07,27.19,27.19,0,0,0,18.12-7.07L747,970.08Z"/><path class="cls-42" d="M717.36,923.91c2.44,2.43,12.54,46.17,12.54,46.17H716.35l-7.32-11,7.32-12.18-8.67-2.72,1.1-17s7.42-4.43,8.58-3.27m33.67,0c-2.43,2.43-12.54,46.17-12.54,46.17H752l7.32-11L752,946.9l8.67-2.72-1.09-17s-7.43-4.43-8.59-3.27"/></g></g></g><g class="cls-52"><g class="cls-52"><g class="cls-52"><g class="cls-57"><g class="cls-58"><g class="cls-59"><rect class="cls-6" x="703.07" y="861.63" width="62.27" height="22.55"/></g></g></g><path class="cls-42" d="M764.26,858.41H704.13c-4.29,0-4.29,4.3-4.29,4.3v17.18c0,6.27,10,8.58,17.18,8.58s11.16-4.29,17.18-4.29,10,4.29,17.18,4.29,17.17-2.31,17.17-8.58V862.71c0-4.3-4.29-4.3-4.29-4.3m0,17.18c0,5.69-3.66,8.59-12.88,8.59-6.61,0-12-4.3-17.18-4.3s-10.57,4.3-17.18,4.3c-9.23,0-12.89-2.9-12.89-8.59V862.71h60.13Z"/><path class="cls-60" d="M669.77,858.41a4.3,4.3,0,1,1-4.29,4.31h0a4.3,4.3,0,0,1,4.29-4.3"/><path class="cls-60" d="M678.36,879.89a4.3,4.3,0,1,1-4.3,4.3h0a4.28,4.28,0,0,1,4.26-4.3h0"/><path class="cls-60" d="M663.33,871.3a6.45,6.45,0,1,1-6.44,6.46v0h0a6.44,6.44,0,0,1,6.44-6.44h0"/><path class="cls-61" d="M682.66,892.77H661.18s-8.59,0-8.59,8.59,8.59,8.59,8.59,8.59v21.47L644,952.9c-3.8,4.74-4.3,7.82-4.3,8.59,0,8.59,8.59,8.59,8.59,8.59h47.24s8.59,0,8.59-8.59c0-.58.66-2.4-4.29-8.59l-17.18-21.47V910s8.59,0,8.59-8.59-8.59-8.59-8.59-8.59"/><path class="cls-62" d="M678.36,932.93V905.65h4.3c1.93,0,4.29-.83,4.29-4.3s-2.35-4.24-4.33-4.29H661.18c-1.93.05-4.29.84-4.29,4.29s2.36,4.25,4.35,4.3l4.18.11.06,27.17-8.13,10.17,14.57,15,14.58-15Z"/><path class="cls-60" d="M644,961.63c0,3.32,2.37,4.1,4.35,4.15h47.19c1.93,0,4.3-.83,4.3-4.3V961s-.23-1.44-3.38-5.37l-10-12.48H657.34l-10,12.48c-3.09,3.86-3.36,6-3.36,6"/></g></g></g><g class="cls-63"><g class="cls-63"><g class="cls-11"><path class="cls-62" d="M917.78,970.07v-8.75a26.23,26.23,0,0,0-26.23-26.23h-70a26.23,26.23,0,0,0-26.24,26.22h0v8.75Z"/><path class="cls-22" d="M892.46,935.39c0,6.58-16.07,11.92-35.91,11.92s-35.91-5.34-35.91-11.92,16.08-11.93,35.91-11.93,35.91,5.35,35.91,11.93"/><path class="cls-64" d="M890.66,935.64c0,6-15.27,10.64-34.11,10.64s-34.1-4.63-34.1-10.58c0-.27.07-.62.13-.62h-3.21l-3.09.44V940c.5,10.52,18.3,14.84,40.25,14.84s39.59-4.41,40.22-14.93l.07-4.26s-6.19-.25-6.19,0"/><path class="cls-65" d="M856.55,920.36c-22.25,0-40.29,6.73-40.29,15s18,15,40.29,15,40.3-6.73,40.3-15-18-15-40.3-15"/><path class="cls-22" d="M856.55,946.16c-18.83,0-34.1-4.82-34.1-10.77s15.27-10.77,34.1-10.77,34.11,4.83,34.11,10.77-15.27,10.77-34.11,10.77"/><path class="cls-66" d="M837.48,934.82c7.63,5.54,12.46,6.6,19.07,6.6s11.44-1.07,19.06-6.6V918.14H837.48Z"/><path class="cls-67" d="M837.45,926.22c5.32,6,11.91,7.63,19.08,7.63s13.76-1.63,19.09-7.63V911H837.44v15.22Z"/><path class="cls-66" d="M827.88,882.33c0,6.33-3.21,11.46-7.17,11.46s-7.16-5.13-7.16-11.46,3.21-11.47,7.16-11.47,7.17,5.13,7.17,11.47m71.67,0c0,6.33-3.2,11.46-7.16,11.46s-7.17-5.13-7.17-11.46,3.2-11.47,7.17-11.47,7.16,5.13,7.16,11.47"/><path class="cls-66" d="M819.28,886.8c0-24.44,16.69-44.26,37.27-44.26s37.27,19.82,37.27,44.26-16.68,44.26-37.27,44.26-37.27-19.81-37.27-44.26"/><path class="cls-68" d="M856.55,916.73c-12,0-15.74-3.09-16.36-3.71a2.87,2.87,0,0,1,3.95-4.16c.22.16,3.15,2.13,12.41,2.13,9.62,0,12.4-2.12,12.43-2.14a2.79,2.79,0,0,1,3.95,0h0a2.92,2.92,0,0,1-.06,4.1c-.62.62-4.31,3.7-16.36,3.7"/><path class="cls-69" d="M856.55,827.86c24.7,0,40.14,18.22,40.14,33.41s-3.09,21.27-6.18,15.19l-6.17-12.15s-18.52,0-24.7-6.08c0,0,9.27,18.23-9.26,0,0,0,3.09,12.16-15.44-3,0,0-9.26,6.07-12.35,21.26-.85,4.22-6.17,0-6.17-15.19s12.35-33.41,40.13-33.41"/><path d="M839.06,887a4.39,4.39,0,0,1-4.37-4.37v-4.37a4.37,4.37,0,1,1,8.74,0h0v4.4a4.39,4.39,0,0,1-4.37,4.37m35,0a4.39,4.39,0,0,1-4.37-4.37v-4.37a4.38,4.38,0,0,1,8.75,0v4.4A4.39,4.39,0,0,1,874,887"/><path class="cls-68" d="M859.83,899h-6.56a3.28,3.28,0,0,1,0-6.56h6.56a3.28,3.28,0,0,1,.11,6.56h-.11"/><path class="cls-41" d="M904.66,957v13.12h13.12v-8.75a26.6,26.6,0,0,0-.4-4.37Z"/><rect class="cls-70" x="909.03" y="961.32" width="8.75" height="8.75"/><path class="cls-62" d="M865.32,970.07c-5.24-22.5-26.45-39.36-51.86-39.36s-46.61,16.86-51.85,39.36Z"/><path class="cls-22" d="M859.48,970.07c-5.13-19.52-23.76-34-46-34s-40.88,14.49-46,34Z"/><path class="cls-71" d="M855,970.07c-5-17.22-21.68-29.88-41.5-29.88S777,952.85,772,970.07Z"/><path class="cls-72" d="M839.91,965.91l.45-.27a6.19,6.19,0,0,0,2.12-8.49,6,6,0,0,0-.81-1.06,37.21,37.21,0,0,0-6.84-5.54,36.14,36.14,0,0,0-7.8-3.62,6.26,6.26,0,0,0-7.94,3.92h0a5.17,5.17,0,0,0-.22.86,6.14,6.14,0,0,0,3.73,6.9,25.24,25.24,0,0,1,9.77,6.44,6.07,6.07,0,0,0,7.54.87"/><path class="cls-60" d="M788.09,875l-6.75-2.5-2.62-9.62a2.92,2.92,0,0,0-5.63,0l-2.62,9.62-6.75,2.5a2.91,2.91,0,0,0-1.72,3.74,2.87,2.87,0,0,0,1.72,1.72l6.71,2.49,2.65,10.56a2.91,2.91,0,0,0,5.65,0L781.38,883l6.71-2.49a2.92,2.92,0,0,0,1.72-3.75,3,3,0,0,0-1.72-1.72"/><path class="cls-20" d="M809.67,832.9l-11.41-4.22L794,817.26a4.83,4.83,0,0,0-9,0l-4.22,11.42-11.41,4.22a4.82,4.82,0,0,0,0,9.05l11.41,4.23L785,857.59a4.83,4.83,0,0,0,9,0l4.23-11.41L809.67,842a4.83,4.83,0,0,0,0-9"/></g></g></g><path class="cls-73" d="M393.39,757.17a50.72,50.72,0,0,0-5.23.24V754a42.63,42.63,0,0,1-5.23,2.74,30.72,30.72,0,0,0-3.17-5.09,46.81,46.81,0,0,0,11.62-6.33,44.56,44.56,0,0,0,5.28-5,20.81,20.81,0,0,0,2.59-3.46h6.1a34.83,34.83,0,0,0,8.54,8.5,43.57,43.57,0,0,0,11.76,6.1,23,23,0,0,0-3.07,5.52c-2.16-1-3.55-1.78-5.71-3v3.5a43.26,43.26,0,0,0-5.09-.24H405v5.42h7.78a46.54,46.54,0,0,0,5.28-.24v5.38a46.54,46.54,0,0,0-5.28-.24H405V774h12.48a51.8,51.8,0,0,0,6.1-.29v5.61a41.47,41.47,0,0,0-6-.34h-30a41.47,41.47,0,0,0-6,.34V773.7a48.61,48.61,0,0,0,6.15.29h11.9v-6.48h-7.06a47.42,47.42,0,0,0-5.33.24v-5.38a39.55,39.55,0,0,0,5.33.24h7.06v-5.42ZM412,752.33c1,0,1.34,0,2.25-.05a43.21,43.21,0,0,1-11.81-10.9c-2.78,4.13-6.24,7.39-11.56,10.9,1,.05,1.39.05,2.11.05Z"/><path class="cls-73" d="M430.06,743.59a56.37,56.37,0,0,0-.29-5.81,44.74,44.74,0,0,0,5.67.24h30.29a48.79,48.79,0,0,0,5.67-.24,48.2,48.2,0,0,0-.29,5.76v30.82a37.65,37.65,0,0,0,.29,6.19h-5.48v-2.74H435.25v2.74h-5.48a44.88,44.88,0,0,0,.29-6.24Zm5.19,29.57h30.67V742.68H435.25Zm7.2-22.95a26.63,26.63,0,0,0-4.37.24V745.6a26.63,26.63,0,0,0,4.37.24h16.32a25.61,25.61,0,0,0,4.46-.24v4.85a27.73,27.73,0,0,0-4.46-.24h-6.1v5h4.94a22,22,0,0,0,4.13-.24v4.75a19.75,19.75,0,0,0-3.07-.24,23.3,23.3,0,0,1,3,4.66l-2.59,1.44a24.64,24.64,0,0,0,4.7-.29v5a30.92,30.92,0,0,0-4.51-.24H441.92a29,29,0,0,0-4.56.24v-5a24,24,0,0,0,4.56.29h5.76v-6.1h-4.13a23.8,23.8,0,0,0-4.13.24V755a23.8,23.8,0,0,0,4.13.24h4.13v-5Zm10.22,15.36h5.19a21.13,21.13,0,0,0-3-4.8l2.55-1.3h-4.7Z"/><path class="cls-73" d="M497.36,765.48c-2.74,6.19-5.81,9-9.75,9-5.47,0-9.4-5.57-9.4-13.3a20.6,20.6,0,0,1,5.28-14c4-4.41,9.7-6.72,16.51-6.72,11.52,0,19,7,19,17.81,0,8.3-4.32,14.93-11.66,17.91a31.21,31.21,0,0,1-7.54,2,15.55,15.55,0,0,0-2.93-5.61c4.42-.58,7.3-1.35,9.55-2.64a13.4,13.4,0,0,0,6.67-12,11.85,11.85,0,0,0-5.9-10.66,10.45,10.45,0,0,0-4.84-1.44A69.18,69.18,0,0,1,497.36,765.48Zm-7.06-17.19a16.1,16.1,0,0,0-6.53,13c0,3.94,1.68,7.06,3.79,7.06,1.59,0,3.22-2,4.95-6.14a63.54,63.54,0,0,0,4-16.23A12.27,12.27,0,0,0,490.3,748.29Z"/><rect class="cls-1" width="1024" height="1024"/><g class="cls-74"><g class="cls-75"><g class="cls-11"><path class="cls-20" d="M882,280.21l-35.67-6.49a3.34,3.34,0,0,0-3.69,2.26l-8.76,28.87a12.61,12.61,0,0,0-4.34-2.3c-5.94-1.8-12,.86-13.56,5.95s2,10.69,8,12.49,12-.86,13.55-6l8.61-28.37,28.64,5.2L868.64,312a12.78,12.78,0,0,0-4.34-2.3c-5.94-1.8-12,.86-13.56,6s2,10.68,8,12.49,12-.87,13.56-6L884,283.5a2.54,2.54,0,0,0-1.61-3.19,1.8,1.8,0,0,0-.4-.1"/></g></g></g><rect class="cls-1" width="1024" height="1024"/><path class="cls-73" d="M543.1,741.65a32.06,32.06,0,0,0-.29-5.27h6.08a35.83,35.83,0,0,0-.28,5.07v3.14h13.23a35.74,35.74,0,0,0,4.39-.19,35.46,35.46,0,0,0-.19,4.25v14.73a32.5,32.5,0,0,0,.24,4.83h-5.7v-2.9h-12v9.8a37.6,37.6,0,0,0,.33,6h-6.18a40.1,40.1,0,0,0,.34-6v-9.8H531.7v2.9H526a35.45,35.45,0,0,0,.25-4.83V748.6a36.8,36.8,0,0,0-.2-4.2,37.24,37.24,0,0,0,4.35.19h12.7Zm-11.4,8.06v10.48h11.4V749.71Zm28.88,10.48V749.71h-12v10.48Z"/><path class="cls-73" d="M591.06,739.28a15.1,15.1,0,0,0-.29-3h5.94a15.89,15.89,0,0,0-.29,3v.63h14.25a37.39,37.39,0,0,0,5.07-.29v4.88a38,38,0,0,0-5-.24H577.39a34.82,34.82,0,0,0-5,.24v-4.88a40.23,40.23,0,0,0,5.26.29H591ZM573.77,763a32.8,32.8,0,0,0-.19-4.39c1.54.14,2.95.19,5,.19h31.3a39.3,39.3,0,0,0,4.73-.19,39.28,39.28,0,0,0-.19,4.34v12.32c0,2.41-.25,3.33-1.16,4.15s-2.42,1.16-5.8,1.16c-1,0-1.25,0-2.8-.1h-1.55a10.77,10.77,0,0,0-1.06-4.83c2.66.29,4.74.43,6.09.43.92,0,1.16-.24,1.16-1V763H578.89v12.85a32.55,32.55,0,0,0,.29,5.31h-5.7a35,35,0,0,0,.29-5.31Zm6-13.57a26.55,26.55,0,0,0-.14-3.52,43.08,43.08,0,0,0,4.68.19H604.4a36.3,36.3,0,0,0,4.3-.19c-.1,1.25-.15,2-.15,3.52v4.16a30.45,30.45,0,0,0,.15,3.57,36.21,36.21,0,0,0-4.54-.19h-20a40.45,40.45,0,0,0-4.54.19c.09-1,.14-1.93.14-3.57Zm24.63,22.51a29,29,0,0,0,.15,3.23c-.92-.09-2.71-.14-4-.14H588.36v2.41h-5a24.34,24.34,0,0,0,.2-3.91v-5.6a28.27,28.27,0,0,0-.15-3.19c1.11.1,2.13.15,3.91.15h13.24a32.74,32.74,0,0,0,4-.15,26.64,26.64,0,0,0-.15,3.09Zm-19.61-19h18.69v-3h-18.7Zm3.58,18.25h11.39v-2.65h-11.4Z"/><path class="cls-73" d="M630.38,750.77a42.35,42.35,0,0,1-6.57,10.15,14.63,14.63,0,0,0-4-4.11,34.94,34.94,0,0,0,8.16-14.1,25.49,25.49,0,0,0,1.06-4.49l5.51,1.35a8.14,8.14,0,0,1-.43,1.26,10.06,10.06,0,0,0-.49,1.59c-.24.72-.67,1.93-1.3,3.62h7.87v-3.67a38.63,38.63,0,0,0-.34-5.79H646a45.88,45.88,0,0,0-.29,5.74V746h10c2.46,0,4.54-.1,6.52-.29V751c-2.08-.19-4.06-.29-6.38-.29H645.78v8.89h8.36a51.25,51.25,0,0,0,5.94-.29v5.31a56.12,56.12,0,0,0-5.94-.29h-8.36v10.24h11.6a53.76,53.76,0,0,0,6.71-.34v5.51a57.71,57.71,0,0,0-6.57-.34H628a62.72,62.72,0,0,0-6.85.34v-5.51a55.75,55.75,0,0,0,6.71.34h12.41v-10.2h-7.44a51.79,51.79,0,0,0-5.84.29v-5.31a45,45,0,0,0,5.8.29h7.48v-8.89Z"/><path class="cls-7" d="M1000.83,440.77a.72.72,0,0,0-.6.41c-.34.72-.69,1.54-1.07,2.41-1.39,3.2-3.12,7.19-5.25,9.56s-5.92,4.5-9,6.22c-.83.47-1.61.91-2.28,1.31a.68.68,0,0,0-.29.93.43.43,0,0,1,0,.07.7.7,0,0,0,.31.28c.72.33,1.54.69,2.41,1.07,3.2,1.39,7.19,3.12,9.56,5.25s4.5,5.92,6.22,9c.47.82.91,1.6,1.31,2.28a.72.72,0,0,0,1,.27l0,0a.83.83,0,0,0,.28-.31c.34-.72.69-1.54,1.07-2.41,1.39-3.2,3.12-7.19,5.25-9.56s5.92-4.5,9-6.22c.83-.47,1.6-.91,2.28-1.32a.7.7,0,0,0,.28-.95l0-.05a.63.63,0,0,0-.31-.27c-.72-.34-1.54-.69-2.41-1.07-3.2-1.39-7.19-3.12-9.56-5.25s-4.5-5.92-6.22-9c-.47-.83-.91-1.6-1.31-2.28A.7.7,0,0,0,1000.83,440.77Z"/></svg>