<?xml version="1.0" encoding="utf-8"?>
<!-- Generator: Adobe Illustrator 24.1.2, SVG Export Plug-In . SVG Version: 6.00 Build 0)  -->
<svg version="1.1" id="レイヤー_1" xmlns="http://www.w3.org/2000/svg" xmlns:xlink="http://www.w3.org/1999/xlink" x="0px"
	 y="0px" viewBox="0 0 1024 1024" style="enable-background:new 0 0 1024 1024;" xml:space="preserve">
<style type="text/css">
	.st0{fill:#F3AC00;}
	.st1{fill:#F2AB00;}
	.st2{fill:#270D84;}
	.st3{fill:#FFFFFF;}
	.st4{fill:none;}
	.st5{clip-path:url(#SVGID_2_);}
	.st6{clip-path:url(#SVGID_4_);}
	.st7{clip-path:url(#SVGID_6_);}
	.st8{fill:#DD2E44;}
	.st9{fill:#FDCB58;}
	.st10{clip-path:url(#SVGID_8_);}
	.st11{fill:none;stroke:#F9DC11;stroke-width:25;}
	.st12{clip-path:url(#SVGID_10_);}
	.st13{clip-path:url(#SVGID_12_);}
	.st14{clip-path:url(#SVGID_14_);}
	.st15{clip-path:url(#SVGID_16_);}
	.st16{fill:none;stroke:#000000;stroke-width:2;}
	.st17{clip-path:url(#SVGID_18_);}
	.st18{clip-path:url(#SVGID_20_);}
	.st19{clip-path:url(#SVGID_22_);}
	.st20{clip-path:url(#SVGID_24_);}
	.st21{clip-path:url(#SVGID_26_);}
	.st22{fill:#5DADEC;}
	.st23{clip-path:url(#SVGID_28_);}
	.st24{clip-path:url(#SVGID_30_);}
	.st25{clip-path:url(#SVGID_32_);}
	.st26{fill:#292F33;}
	.st27{fill:#FFDB5E;}
	.st28{fill:#A88DC1;}
	.st29{fill:#7355A2;}
	.st30{fill:#522E8D;}
	.st31{fill:#F8C954;}
	.st32{fill:#F4ABBA;}
	.st33{fill:#DE2032;}
	.st34{fill:#C1694F;}
	.st35{fill:#662213;}
	.st36{fill:#424143;}
	.st37{fill:#59595C;}
	.st38{clip-path:url(#SVGID_34_);}
	.st39{clip-path:url(#SVGID_36_);}
	.st40{fill:#CCD6DD;}
	.st41{fill:#F7DECE;}
	.st42{fill:#EEC2AD;}
	.st43{fill:#662113;}
	.st44{fill:#226699;}
	.st45{fill:#3B88C3;}
	.st46{fill:#55ACEE;}
	.st47{fill:#F5F8FA;}
	.st48{fill:#66757F;}
	.st49{clip-path:url(#SVGID_38_);}
	.st50{clip-path:url(#SVGID_40_);}
	.st51{fill:#F3D2A2;}
	.st52{fill:#E2C196;}
	.st53{fill:#FFE51E;}
	.st54{clip-path:url(#SVGID_42_);}
	.st55{clip-path:url(#SVGID_44_);}
	.st56{fill:#77B255;}
	.st57{fill:#3E721D;}
	.st58{fill:#DF1F32;}
	.st59{clip-path:url(#SVGID_46_);}
	.st60{clip-path:url(#SVGID_48_);}
	.st61{clip-path:url(#SVGID_50_);}
	.st62{fill:#AF7E57;}
	.st63{fill:#9B6A49;}
	.st64{fill:#60352A;}
	.st65{fill:#915A34;}
	.st66{clip-path:url(#SVGID_52_);}
	.st67{clip-path:url(#SVGID_54_);}
	.st68{clip-path:url(#SVGID_56_);}
	.st69{opacity:0.4;}
	.st70{clip-path:url(#SVGID_58_);}
	.st71{clip-path:url(#SVGID_60_);}
	.st72{fill:#9266CC;}
	.st73{fill:#A8BCCC;}
	.st74{fill:#E1E8ED;}
	.st75{clip-path:url(#SVGID_62_);}
	.st76{clip-path:url(#SVGID_64_);}
	.st77{clip-path:url(#SVGID_66_);}
	.st78{fill:#EA596E;}
	.st79{fill:#BE1931;}
	.st80{fill:#7C533E;}
	.st81{fill:#664131;}
	.st82{fill:#3D2E24;}
	.st83{fill:#0B0200;}
	.st84{fill:#FFCC4D;}
	.st85{fill:#FFAC33;}
	.st86{fill:#FFDC5D;}
	.st87{fill:#250D85;}
	.st88{clip-path:url(#SVGID_68_);}
	.st89{clip-path:url(#SVGID_70_);}
	.st90{clip-path:url(#SVGID_72_);}
</style>
<polygon class="st0" points="0.4,900.7 34.1,930.8 -9.1,944.9 "/>
<polygon class="st0" points="148.6,944.9 192.1,957.5 159.2,988.9 "/>
<path class="st1" d="M951.4,761.8h-3.9v-9.4h-9.4v-3.8h9.4v-9.1h3.9v9.1h9.4v3.8h-9.4V761.8z"/>
<path class="st1" d="M918.5,898.1h-3.9v-9.4h-9.4v-3.8h9.4v-9.1h3.9v9.1h9.4v3.8h-9.4V898.1z"/>
<polygon class="st0" points="692.2,42.7 704.8,86.2 660.7,75.2 "/>
<polygon class="st0" points="978.3,86.2 1023.3,90.6 996.7,127.5 "/>
<path class="st1" d="M230.6,55.8h-3.9v-9.4h-9.4v-3.8h9.4v-9.1h3.9v9.1h9.4v3.8h-9.4L230.6,55.8z"/>
<path class="st1" d="M551.3,98.2h-3.9v-9.4h-9.4v-3.8h9.4v-9.1h3.9v9.1h9.4v3.8h-9.4V98.2z"/>
<path class="st1" d="M830.4,24.3h-3.9v-9.4h-9.4v-3.8h9.4V2h3.9v9.1h9.4V15h-9.4V24.3z"/>
<path class="st1" d="M1015.1,246.5h-3.9v-9.4h-9.4v-3.8h9.4v-9.1h3.9v9.1h9.4v3.8h-9.4L1015.1,246.5z"/>
<path class="st1" d="M33.2,328.2h-3.9v-9.4h-9.4V315h9.4v-9.1h3.9v9.1h9.4v3.8h-9.4V328.2z"/>
<path class="st1" d="M56.5,115.6h-3.9v-9.4h-9.4v-3.8h9.4v-9.1h3.9v9.1h9.4v3.8h-9.4V115.6z"/>
<path class="st1" d="M433.7,44.3h-3.9v-9.4h-9.4v-3.8h9.4V22h3.9v9.1h9.4V35h-9.4V44.3z"/>
<path class="st1" d="M982.2,382.8h-3.9v-9.4H969v-3.8h9.4v-9.1h3.9v9.1h9.4v3.8h-9.4L982.2,382.8z"/>
<path class="st0" d="M971.1,571.9c-0.3,0-0.6,0.1-0.8,0.4c-0.5,0.8-1.1,1.8-1.8,2.8c-2.3,3.7-5.2,8.2-8.3,10.7s-8.1,4.4-12.2,5.9
	c-1.1,0.4-2.2,0.8-3.1,1.2c-0.4,0.2-0.7,0.7-0.5,1.1c0.1,0.2,0.2,0.3,0.3,0.4c0.8,0.5,1.8,1.1,2.8,1.8c3.7,2.3,8.2,5.2,10.7,8.3
	s4.4,8.1,5.9,12.2c0.4,1.1,0.8,2.1,1.2,3c0.2,0.4,0.7,0.7,1.1,0.5l0,0c0.2-0.1,0.3-0.2,0.4-0.3c0.5-0.8,1.1-1.8,1.8-2.7
	c2.3-3.7,5.2-8.2,8.3-10.7s8.1-4.4,12.2-5.9c1.1-0.4,2.1-0.8,3-1.2c0.4-0.2,0.7-0.7,0.5-1.1l0,0c-0.1-0.2-0.2-0.3-0.3-0.4
	c-0.8-0.5-1.8-1.1-2.7-1.8c-3.7-2.3-8.2-5.2-10.7-8.3s-4.4-8.1-5.9-12.2c-0.4-1.1-0.8-2.1-1.2-3C971.6,572.2,971.4,572,971.1,571.9z
	"/>
<path class="st0" d="M40.3,456.6c-0.3,0-0.5,0.2-0.6,0.4c-0.3,0.7-0.7,1.5-1.1,2.4c-1.4,3.2-3.1,7.2-5.2,9.5s-5.9,4.5-9,6.2
	c-0.8,0.5-1.6,0.9-2.3,1.3c-0.3,0.2-0.4,0.6-0.2,1c0.1,0.1,0.2,0.2,0.3,0.3c0.7,0.3,1.5,0.7,2.4,1.1c3.2,1.4,7.2,3.1,9.5,5.3
	s4.5,5.9,6.2,9c0.5,0.8,0.9,1.6,1.3,2.3c0.2,0.3,0.6,0.4,1,0.2c0.1-0.1,0.2-0.2,0.3-0.3c0.3-0.7,0.7-1.5,1.1-2.4
	c1.4-3.2,3.1-7.2,5.3-9.6s5.9-4.5,9-6.2c0.8-0.5,1.6-0.9,2.3-1.3c0.3-0.2,0.4-0.6,0.2-1c-0.1-0.1-0.2-0.2-0.3-0.3
	c-0.7-0.3-1.5-0.7-2.4-1.1c-3.2-1.4-7.2-3.1-9.6-5.2s-4.5-5.9-6.2-9c-0.5-0.8-0.9-1.6-1.3-2.3C40.9,456.7,40.6,456.6,40.3,456.6z"/>
<path class="st0" d="M911.4,765.8c-0.3,0-0.6,0.1-0.8,0.4c-0.5,0.8-1.1,1.8-1.8,2.8c-2.3,3.7-5.2,8.2-8.3,10.7s-8.1,4.4-12.2,5.9
	c-1.1,0.4-2.2,0.8-3.1,1.2c-0.4,0.2-0.7,0.7-0.5,1.1c0.1,0.2,0.2,0.3,0.3,0.4c0.8,0.5,1.8,1.2,2.8,1.8c3.7,2.3,8.2,5.2,10.7,8.3
	s4.4,8.1,5.9,12.2c0.4,1.1,0.8,2.1,1.2,3c0.2,0.4,0.7,0.7,1.1,0.5c0,0,0,0,0,0l0,0c0.2-0.1,0.3-0.2,0.4-0.3c0.5-0.8,1.1-1.8,1.8-2.7
	c2.3-3.7,5.2-8.2,8.3-10.7s8.1-4.4,12.2-5.9c1.1-0.4,2.1-0.8,3-1.2c0.4-0.2,0.7-0.7,0.5-1.1c-0.1-0.2-0.2-0.3-0.3-0.4
	c-0.8-0.5-1.8-1.2-2.7-1.8c-3.7-2.3-8.2-5.2-10.7-8.3s-4.4-8.1-5.9-12.2c-0.4-1.1-0.8-2.1-1.2-3C912,766.1,911.8,765.9,911.4,765.8z
	"/>
<path class="st0" d="M18.5,601.1c-0.3,0-0.5,0.2-0.6,0.4c-0.3,0.7-0.7,1.5-1.1,2.4c-1.4,3.2-3.1,7.2-5.2,9.6s-5.9,4.5-8.9,6.2
	c-0.8,0.5-1.6,0.9-2.3,1.3c-0.3,0.2-0.5,0.6-0.3,1c0,0,0,0,0,0l0,0c0.1,0.1,0.2,0.2,0.3,0.3c0.7,0.3,1.5,0.7,2.4,1.1
	c3.2,1.4,7.2,3.1,9.6,5.2s4.5,5.9,6.2,9c0.5,0.8,0.9,1.6,1.3,2.3c0.2,0.3,0.6,0.5,1,0.3c0,0,0,0,0,0l0,0c0.1-0.1,0.2-0.2,0.3-0.3
	c0.3-0.7,0.7-1.5,1.1-2.4c1.4-3.2,3.1-7.2,5.3-9.6s5.9-4.5,9-6.2l2.3-1.3c0.3-0.2,0.5-0.6,0.3-1v0c-0.1-0.1-0.2-0.2-0.3-0.3
	c-0.7-0.3-1.5-0.7-2.4-1.1c-3.2-1.4-7.2-3.1-9.6-5.2s-4.5-5.9-6.2-9c-0.5-0.8-0.9-1.6-1.3-2.3C19.1,601.2,18.8,601,18.5,601.1z"/>
<path class="st0" d="M922.8,923.7c-0.3,0-0.6,0.1-0.8,0.4c-0.5,0.8-1.1,1.8-1.8,2.7c-2.3,3.7-5.2,8.2-8.3,10.7s-8.1,4.4-12.2,5.9
	c-1.1,0.4-2.2,0.8-3.1,1.2c-0.4,0.2-0.7,0.7-0.5,1.1c0.1,0.2,0.2,0.3,0.3,0.4c0.8,0.5,1.8,1.1,2.8,1.8c3.7,2.3,8.2,5.2,10.7,8.3
	s4.4,8.1,5.9,12.2c0.4,1.1,0.8,2.2,1.2,3.1c0.2,0.4,0.7,0.7,1.1,0.5c0.2-0.1,0.3-0.2,0.4-0.3c0.5-0.8,1.2-1.8,1.8-2.8
	c2.3-3.7,5.2-8.2,8.3-10.7s8.1-4.4,12.2-5.9c1.1-0.4,2.1-0.8,3-1.2c0.4-0.2,0.7-0.7,0.5-1.1c0,0,0,0,0,0l0,0
	c-0.1-0.2-0.2-0.3-0.3-0.4c-0.8-0.5-1.7-1.1-2.7-1.8c-3.7-2.3-8.2-5.2-10.7-8.3s-4.4-8.1-5.9-12.2c-0.4-1.1-0.8-2.1-1.2-3
	C923.4,923.9,923.1,923.7,922.8,923.7z"/>
<path class="st0" d="M1012.1,836.7c-0.3,0-0.5,0.2-0.6,0.4c-0.3,0.7-0.7,1.5-1.1,2.4c-1.4,3.2-3.1,7.2-5.2,9.5s-5.9,4.5-9,6.2
	c-0.8,0.5-1.6,0.9-2.3,1.3c-0.3,0.2-0.5,0.6-0.3,0.9c0,0,0,0,0,0c0,0,0,0,0,0.1c0.1,0.1,0.2,0.2,0.3,0.3c0.7,0.3,1.5,0.7,2.4,1.1
	c3.2,1.4,7.2,3.1,9.6,5.2s4.5,5.9,6.2,9c0.5,0.8,0.9,1.6,1.3,2.3c0.2,0.3,0.6,0.4,1,0.2c0.1-0.1,0.2-0.2,0.3-0.3
	c0.3-0.7,0.7-1.5,1.1-2.4c1.4-3.2,3.1-7.2,5.2-9.5s5.9-4.5,9-6.2c0.8-0.5,1.6-0.9,2.3-1.3c0.3-0.2,0.5-0.6,0.3-0.9c0,0,0,0,0-0.1
	l0,0c-0.1-0.1-0.2-0.2-0.3-0.3c-0.7-0.3-1.5-0.7-2.4-1.1c-3.2-1.4-7.2-3.1-9.6-5.2s-4.5-5.9-6.2-9c-0.5-0.8-0.9-1.6-1.3-2.3
	C1012.6,836.8,1012.4,836.6,1012.1,836.7z"/>
<rect x="111.5" y="144.2" class="st2" width="800.9" height="821.9"/>
<rect x="131.5" y="162.4" class="st3" width="759.8" height="785.4"/>
<rect x="209.2" y="57.8" class="st2" width="598.7" height="182.9"/>
<rect x="233.7" y="88" class="st2" width="597.9" height="171.9"/>
<rect x="223.2" y="67.2" class="st3" width="570.7" height="164"/>
<path class="st2" d="M376.4,129.1c-0.1,33.1-1.5,42.7-7.8,54.6c-1.9-2.5-4.2-4.7-6.8-6.5c2.5-4,4.2-8.5,4.9-13.2
	c1.1-5.7,1.6-16.8,1.6-32.2c0-5.5-0.1-8.1-0.3-10.6c2.6,0.3,5.3,0.4,7.9,0.4h19.4v-3.3c0-1.5-0.1-2.9-0.4-4.3h9.2
	c-0.3,1.4-0.4,2.9-0.4,4.4v3.3h19.7c3,0.1,6-0.1,9-0.5v8.4c-3-0.3-5.9-0.4-8.9-0.4h-25.2c10.2,5.7,11.7,6.7,19,12.6l-5.9,6.5
	c-5.7-5.7-10-8.8-19.3-13.9l5.9-5.2H376.4z M375.8,173.7c2-3.9,3.3-8.1,4.1-12.5c0.9-4.8,1.5-9.7,1.7-14.7l7.9,2.1
	c-1.2,14.1-2.4,19.8-6,30L375.8,173.7z M401.9,142.1c-0.3,2.4-0.4,4.8-0.4,7.1v23.9c0,2.1,0.6,2.4,5.2,2.4c6,0,6.1-0.3,6.1-14
	c2.6,1.2,5.3,2.1,8,2.7c-0.6,10.4-1.3,14.2-3,16.3s-4.8,3-11.2,3c-10.6,0-13.2-1.1-13.2-5.7v-28.6c0.1-2.4-0.1-4.7-0.5-7.1H401.9z
	 M425.4,177.2c-2.1-11.7-4-17.8-8.7-27.5l7.2-3.6c5,11.1,7.1,16.9,9.6,27.2L425.4,177.2z"/>
<path class="st2" d="M453.8,166.9c-3.4,1.9-7,3.6-10.6,4.9c-1.1-2.4-2.6-4.7-4.4-6.6c6.1-1.5,11.8-4.1,17-7.5h-8
	c-2.8,0-5.6,0.1-8.4,0.4v-7.2c2.9,0.3,5.7,0.4,8.6,0.4h15c0.7-0.7,1.4-1.5,1.9-2.4h-10.3c-2.5,0-4.3,0.1-6,0.1
	c0.1-1.8,0.2-3.3,0.2-5.2v-10.9c0-2-0.1-3.6-0.2-5.3c2,0.2,4,0.3,6,0.2h3.4v-2.9h-9.9c-2.8,0-5.6,0.1-8.4,0.5V118
	c2.8,0.3,5.7,0.5,8.5,0.4h9.7v-0.4c0-1.4-0.1-2.7-0.3-4.1h8.5c-0.2,1.4-0.3,2.7-0.3,4.1v0.4h15.7v-0.4c0-1.4-0.1-2.7-0.2-4.1h8.4
	c-0.2,1.4-0.3,2.7-0.3,4.1v0.4h10.2c2.9,0,5.7-0.1,8.6-0.4v7.4c-2.8-0.4-5.6-0.6-8.4-0.5h-10.5v2.9h4.2c2,0,4,0,6-0.2
	c-0.1,1.7-0.2,3.2-0.2,5.3v10.9c0,1.8,0.1,3.5,0.2,5.2c-1.8-0.1-3.6-0.1-6.1-0.1h-20.2c-0.5,0.8-1,1.7-1.6,2.4h28.4
	c2.9,0,5.7-0.1,8.6-0.4v7.2c-2.8-0.3-5.6-0.4-8.4-0.4h-8.2c2.5,1.8,5.3,3.2,8.1,4.3c3.2,1.3,6.5,2.2,10,2.7
	c-1.6,2.2-2.9,4.7-3.9,7.2c-3.6-1.2-7.1-2.7-10.5-4.5c-1.4,14.7-2.7,16.3-13.5,16.3c-1.5,0-2.9-0.1-5.9-0.2
	c-0.3-2.6-1.1-5.1-2.4-7.4c2.5,0.5,5.1,0.7,7.6,0.8c5,0,5.5-0.5,6.2-7.4h-13.6c-4.5,8.4-12.6,13.1-26,15.1c-1-2.4-2.4-4.7-4.1-6.7
	c10.3-1,17-3.6,21.2-8.4h-5c-2.2-0.1-4.4,0.1-6.6,0.4L453.8,166.9z M456.5,135.4h35.3V133h-35.3V135.4z M456.5,143.2h35.3v-2.7
	h-35.3V143.2z M466.2,157.7c-2.2,2.1-4.6,4.1-7.1,5.9h9.6c0.5-1.4,0.7-2.9,0.7-4.3l8.5,0.3c-0.1,0.3-0.5,1.7-1.1,4h12.5
	c-2.5-1.7-4.9-3.7-7.1-5.9L466.2,157.7z M481.5,124.9h-15.7v2.9h15.7V124.9z"/>
<path class="st2" d="M521.5,121.5c0.1-2.2-0.1-4.3-0.4-6.5h8.3c-0.3,2.1-0.4,4.3-0.4,6.5v1.3h11v-1.3c0.1-2.2-0.1-4.3-0.4-6.5h8.3
	c-0.3,2.1-0.4,4.3-0.4,6.5v1.3c1.7,0,3.5-0.1,5.2-0.4v7.7c-1.7-0.3-3.4-0.4-5.2-0.3v29.3c1.5,0,3.1-0.1,4.6-0.3v7.6
	c-2.1-0.2-4.2-0.3-6.4-0.2h-25c-2-0.1-3.9,0-5.8,0.3v-7.7c1.9,0.2,3.7,0.4,5.6,0.3h1v-29.3c-1.9-0.1-3.9,0-5.8,0.3v-7.7
	c1.9,0.4,3.8,0.5,5.8,0.4L521.5,121.5z M532.4,170.8c-3.9,6.4-5.9,8.8-11.7,13.8c-1.6-2.3-3.6-4.3-5.8-6c4.6-3,8.4-7,11.1-11.8
	L532.4,170.8z M540,134.8v-5h-11v5H540z M540,146.6v-5.2h-11v5.2H540z M540,159.1v-5.8h-11v5.8H540z M541.8,167
	c2.7,4.1,2.8,4.3,7.1,8.1c-2.2,1.6-4.1,3.5-5.7,5.6c-4.3-4.8-4.3-4.8-7.4-9.8L541.8,167z M561.9,160.5c-1.1,12-3,17.6-8.4,24.4
	c-2-2.2-4.1-4.3-6.5-6.1c3.7-4.2,5.5-8.1,6.5-14.1c1.1-6.5,1.5-17.8,1.5-37.3c0.1-3.3,0-6.6-0.4-9.9c2.8,0.2,5.6,0.4,8.4,0.3h11
	c2.7,0.1,5.5-0.1,8.2-0.3c-0.3,2.8-0.4,5.6-0.3,8.4v50.4c0,3.7-1.1,6.1-3.2,7c-2.4,0.8-5,1.2-7.5,1.1c-0.9,0-1.1,0-4.8-0.2
	c-0.3-2.9-1-5.7-2-8.4c2.2,0.5,4.4,0.7,6.7,0.8c2.3,0,2.9-0.3,2.9-1.7v-14.2L561.9,160.5z M562.8,142.5c-0.1,4.5-0.2,7.3-0.4,10.7
	h11.8v-10.7L562.8,142.5z M574.2,125.2h-11.3v10h11.3L574.2,125.2z"/>
<path class="st2" d="M602.1,174.7c-0.1,3.1,0.1,6.2,0.5,9.4h-8.9c0.4-3.1,0.5-6.3,0.5-9.4V125c0-2.8-0.1-5.7-0.3-8.5
	c2.6,0.2,5.2,0.4,7.8,0.3h13.5c2.6,0.1,5.2,0,7.8-0.3c-0.2,2.4-0.2,4.1-0.2,7.1v11.6c0,3.5,0.1,5.2,0.2,6.9c-2-0.1-4.3-0.2-7-0.2
	h-13.8V174.7z M602.1,126.7h13.1V123h-13.1V126.7z M602.1,136h13.1v-3.9h-13.1V136z M641.1,168.7c0,2.9,0.1,4.6,0.2,6.6
	c1.7,0.1,4.4,0.4,5.8,0.4c2.1,0,2.8-0.5,2.8-2.1v-31.7h-15c-2.7,0-5.1,0.1-7,0.2c0.2-2.2,0.2-3.6,0.2-6.9v-11.6
	c0-2.6-0.1-4.7-0.2-7.1c2.6,0.2,5.2,0.4,7.8,0.3h14.6c2.6,0.1,5.2-0.1,7.8-0.3c-0.2,2.7-0.3,4.6-0.3,8.4v49.8c0,4.6-0.9,6.5-3.7,7.7
	c-1.6,0.7-3.9,0.9-8.6,0.9c-1.1,0-1.4,0-5.2-0.2c-0.3-2.7-1-5.3-2-7.8c-2.2-0.1-3.7-0.1-4.2-0.1H618v4.3h-8c0.4-2.5,0.5-5.1,0.5-7.6
	v-18.5c0-2.7-0.1-4.8-0.2-6.8c2.3,0.2,4.7,0.3,7.1,0.3h17c2.4,0,4.7-0.1,7.1-0.3c-0.2,2-0.2,3.9-0.2,6.8L641.1,168.7z M618,157.7
	h15.5v-4.6H618L618,157.7z M618,168.8h15.5v-4.9H618L618,168.8z M635.7,126.8H650V123h-14.3L635.7,126.8z M635.7,136.1H650v-3.9
	h-14.3L635.7,136.1z"/>
<rect class="st4" width="1024" height="1024"/>
<g>
	<defs>
		
			<rect id="SVGID_1_" x="76.4" y="648.7" transform="matrix(0.9781 -0.2079 0.2079 0.9781 -140.1582 39.6744)" width="84.4" height="75.7"/>
	</defs>
	<clipPath id="SVGID_2_">
		<use xlink:href="#SVGID_1_"  style="overflow:visible;"/>
	</clipPath>
	<g class="st5">
		<g>
			<defs>
				
					<rect id="SVGID_3_" x="76.4" y="648.7" transform="matrix(0.9781 -0.2079 0.2079 0.9781 -140.1582 39.6744)" width="84.4" height="75.7"/>
			</defs>
			<clipPath id="SVGID_4_">
				<use xlink:href="#SVGID_3_"  style="overflow:visible;"/>
			</clipPath>
			<g class="st6">
				<g>
					<defs>
						<rect id="SVGID_5_" x="0" y="0" width="1024" height="1024"/>
					</defs>
					<clipPath id="SVGID_6_">
						<use xlink:href="#SVGID_5_"  style="overflow:visible;"/>
					</clipPath>
					<g class="st7">
						<path class="st8" d="M156.9,663.6c-2.7-12.6-15-20.6-27.6-18c-7.4,1.6-13.5,6.6-16.5,13.5c-9.5-8.7-24.2-8.1-32.9,1.4
							c-6.4,7-8,17.1-3.9,25.7c7.3,19,33.6,35.1,50.5,37.4c14.4-9,31.9-34.4,30.9-54.7C157.5,667.1,157.3,665.3,156.9,663.6"/>
						<path class="st9" d="M159.3,692.2l-9.5-1.4l-5.1-8.1c-0.7-1.1-2.2-1.4-3.3-0.7c-0.6,0.4-1,1-1.1,1.7l-1.4,9.5l-8.1,5.2
							c-1.1,0.7-1.4,2.2-0.7,3.3c0.4,0.6,1,1,1.7,1.1l9.5,1.4l5.1,8.1c0.7,1.1,2.2,1.4,3.3,0.7c0.6-0.4,1-1,1.1-1.7l1.4-9.5l8.1-5.2
							c1.1-0.7,1.4-2.2,0.7-3.3C160.6,692.7,160,692.3,159.3,692.2 M98.3,666.5l-5.9-0.9l-3.2-5c-0.7-1.1-2.2-1.4-3.3-0.7
							c-0.6,0.4-1,1-1.1,1.7l-0.9,5.9l-5,3.2c-1.1,0.7-1.4,2.2-0.7,3.3c0.4,0.6,1,1,1.7,1.1l5.9,0.9l3.2,5c0.7,1.1,2.2,1.4,3.3,0.7
							c0.6-0.4,1-1,1.1-1.7l0.9-5.9l5-3.2c1.1-0.7,1.4-2.2,0.7-3.3C99.6,667,99,666.6,98.3,666.5"/>
					</g>
				</g>
			</g>
		</g>
	</g>
</g>
<g>
	<defs>
		<rect id="SVGID_7_" width="1024" height="1024"/>
	</defs>
	<clipPath id="SVGID_8_">
		<use xlink:href="#SVGID_7_"  style="overflow:visible;"/>
	</clipPath>
	<g class="st10">
		<line class="st11" x1="148.6" y1="408" x2="875.3" y2="408"/>
	</g>
</g>
<g>
	<defs>
		
			<rect id="SVGID_9_" x="128.2" y="724.6" transform="matrix(0.2465 -0.9691 0.9691 0.2465 -615.2385 723.0812)" width="58.4" height="65.1"/>
	</defs>
	<clipPath id="SVGID_10_">
		<use xlink:href="#SVGID_9_"  style="overflow:visible;"/>
	</clipPath>
	<g class="st12">
		<g>
			<defs>
				
					<rect id="SVGID_11_" x="128.2" y="724.6" transform="matrix(0.2465 -0.9691 0.9691 0.2465 -615.2386 723.0812)" width="58.4" height="65.1"/>
			</defs>
			<clipPath id="SVGID_12_">
				<use xlink:href="#SVGID_11_"  style="overflow:visible;"/>
			</clipPath>
			<g class="st13">
				<g>
					<defs>
						<rect id="SVGID_13_" x="0" y="0" width="1024" height="1024"/>
					</defs>
					<clipPath id="SVGID_14_">
						<use xlink:href="#SVGID_13_"  style="overflow:visible;"/>
					</clipPath>
					<g class="st14">
						<path class="st8" d="M191.7,754.4c2.5-9.6-3.3-19.4-12.9-21.8c-5.6-1.4-11.6-0.1-16.1,3.7c-3.5-9.3-13.9-13.9-23.2-10.4
							c-6.9,2.6-11.5,9.2-11.5,16.5c-1.4,15.6,11.3,35.7,22.1,43.1c13.1-1.3,33.8-12.9,40-27.3C190.8,757,191.3,755.7,191.7,754.4"
							/>
						<path class="st9" d="M183.6,775l-6.1-4.2l-0.8-7.4c-0.1-1-1-1.7-2-1.6c-0.5,0.1-1,0.3-1.3,0.8l-4.2,6.1l-7.4,0.8
							c-1,0.1-1.7,1-1.6,2c0.1,0.5,0.3,1,0.8,1.3l6.1,4.2l0.8,7.4c0.1,1,1,1.7,2,1.6c0.5-0.1,1-0.3,1.3-0.8l4.2-6.1l7.4-0.8
							c1-0.1,1.7-1,1.6-2C184.3,775.8,184,775.3,183.6,775 M150.1,736.5l-3.8-2.6l-0.5-4.6c-0.1-1-1-1.7-2-1.6
							c-0.5,0.1-1,0.3-1.3,0.8l-2.6,3.7l-4.6,0.5c-1,0.1-1.7,1-1.6,2c0.1,0.5,0.3,1,0.8,1.3l3.8,2.6l0.5,4.6c0.1,1,1,1.7,2,1.6
							c0.5-0.1,1-0.3,1.3-0.8l2.6-3.8l4.6-0.5c1-0.1,1.7-1,1.6-2C150.9,737.2,150.6,736.7,150.1,736.5"/>
					</g>
				</g>
			</g>
		</g>
	</g>
</g>
<g>
	<defs>
		<rect id="SVGID_15_" x="180.2" y="683" width="233.3" height="4"/>
	</defs>
	<clipPath id="SVGID_16_">
		<use xlink:href="#SVGID_15_"  style="overflow:visible;"/>
	</clipPath>
	<g class="st15">
		<line class="st16" x1="181.2" y1="685" x2="412.5" y2="685"/>
	</g>
</g>
<g>
	<defs>
		<rect id="SVGID_17_" x="616.2" y="683" width="227.6" height="4"/>
	</defs>
	<clipPath id="SVGID_18_">
		<use xlink:href="#SVGID_17_"  style="overflow:visible;"/>
	</clipPath>
	<g class="st17">
		<line class="st16" x1="617.2" y1="685" x2="842.8" y2="685"/>
	</g>
</g>
<path d="M441.6,676.5c0,13.9-0.6,18-3.3,23c-0.8-1.1-1.8-2-2.9-2.8c1.1-1.7,1.8-3.6,2.1-5.6c0.6-4.5,0.8-9,0.7-13.5
	c0-1.5,0-3-0.1-4.5c1.1,0.1,2.2,0.2,3.3,0.2h8.2v-1.4c0-0.6,0-1.2-0.2-1.8h3.9c-0.1,0.6-0.2,1.2-0.2,1.8v1.4h8.3
	c1.3,0,2.5,0,3.8-0.2v3.5c-1.2-0.1-2.5-0.2-3.7-0.2h-10.6c2.9,1.4,5.6,3.2,8,5.3l-2.5,2.7c-2.4-2.4-5.1-4.4-8.1-5.9l2.5-2.2
	L441.6,676.5z M441.3,695.3c0.8-1.7,1.4-3.4,1.7-5.2c0.4-2,0.6-4.1,0.7-6.2l3.3,0.9c-0.5,5.9-1,8.3-2.5,12.6L441.3,695.3z
	 M452.3,682c-0.1,1-0.2,2-0.2,3v10c0,0.9,0.3,1,2.2,1c2.5,0,2.6-0.1,2.6-5.9c1.1,0.5,2.2,0.9,3.4,1.1c-0.3,4.4-0.5,6-1.2,6.9
	s-2,1.2-4.7,1.2c-4.5,0-5.6-0.5-5.6-2.4v-12c0-1,0-2-0.2-3L452.3,682z M462.2,696.8c-0.6-4-1.8-7.9-3.7-11.6l3-1.5
	c1.8,3.7,3.1,7.5,4.1,11.5L462.2,696.8z"/>
<path d="M474.1,692.4c-1.4,0.8-2.9,1.5-4.5,2.1c-0.5-1-1.1-2-1.9-2.8c2.6-0.6,5-1.7,7.2-3.2h-3.4c-1.2,0-2.4,0-3.5,0.2v-3
	c1.2,0.1,2.4,0.2,3.6,0.2h6.3c0.3-0.3,0.6-0.6,0.8-1h-4.3c-1.1,0-1.8,0-2.5,0.1c0.1-0.7,0.1-1.5,0.1-2.2v-4.6c0-0.7,0-1.5-0.1-2.2
	c0.8,0.1,1.7,0.1,2.5,0.1h1.4v-1.2h-4.2c-1.2,0-2.4,0.1-3.5,0.2v-3.1c1.2,0.1,2.4,0.2,3.6,0.2h4.1V672c0-0.6,0-1.2-0.1-1.7h3.6
	c-0.1,0.6-0.1,1.2-0.1,1.7v0.2h6.6V672c0-0.6,0-1.2-0.1-1.7h3.6c-0.1,0.6-0.1,1.2-0.1,1.7v0.2h4.3c1.2,0,2.4-0.1,3.6-0.2v3
	c-1.2-0.2-2.3-0.2-3.5-0.2h-4.4v1.2h1.8c0.8,0,1.7,0,2.5-0.1c-0.1,0.7-0.1,1.5-0.1,2.2v4.6c0,0.7,0,1.5,0.1,2.2
	c-0.7,0-1.5-0.1-2.6-0.1h-8.5c-0.2,0.3-0.4,0.7-0.7,1h12c1.2,0,2.4,0,3.6-0.2v3c-1.2-0.1-2.4-0.2-3.5-0.2h-3.5
	c1.1,0.7,2.2,1.4,3.4,1.8c1.3,0.5,2.8,0.9,4.2,1.2c-0.7,0.9-1.2,1.9-1.6,3c-1.5-0.5-3-1.1-4.4-1.9c-0.6,6.2-1.1,6.9-5.7,6.9
	c-0.6,0-1.2,0-2.5-0.1c-0.1-1.1-0.5-2.1-1-3.1c1.1,0.2,2.1,0.3,3.2,0.3c2.1,0,2.3-0.2,2.6-3.1h-5.7c-1.9,3.5-5.3,5.5-10.9,6.4
	c-0.4-1-1-2-1.7-2.8c4.3-0.4,7.2-1.5,8.9-3.5H477c-0.9,0-1.9,0-2.8,0.2L474.1,692.4z M475.3,679.2h14.9v-1h-14.9V679.2z
	 M475.3,682.4h14.9v-1.1h-14.9V682.4z M479.4,688.5c-0.9,0.9-1.9,1.7-3,2.5h4c0.2-0.6,0.3-1.2,0.3-1.8l3.6,0.1
	c0,0.1-0.2,0.7-0.5,1.7h5.3c-1.1-0.7-2.1-1.5-3-2.5L479.4,688.5z M485.8,674.7h-6.6v1.2h6.6V674.7z"/>
<path d="M506.1,673.4c0-1,0-2-0.2-3h3.7c-0.1,1-0.2,2-0.2,3v1.8h2.3c1,0,2.1,0,3.1-0.2v3.4c-0.8-0.1-1.7-0.1-2.5-0.1
	c-0.2,3.3-1,6.6-2.2,9.7c2,2.6,2.3,2.9,4.5,6.1l-2.5,2.8c-1.1-1.9-2.3-3.8-3.7-5.5c-1.7,3-3.8,5.6-6.4,7.9c-0.6-1.1-1.5-2.1-2.4-3
	c2.8-2.1,5-4.7,6.6-7.8c-1.7-2.1-3.5-4.1-5.4-5.9l2.3-2.4c0.6,0.6,0.6,0.6,2.5,2.6c0.2,0.3,0.8,0.9,2,2.3c0.7-2.2,1.1-4.5,1.2-6.8
	H503c-1,0-2,0-3,0.2V675c1,0.1,2.1,0.2,3.2,0.2h2.9L506.1,673.4z M516.8,682c1.8,2.3,3.3,4.8,4.5,7.4l-2.9,1.9
	c-1.1-2.8-2.6-5.4-4.5-7.7L516.8,682z M518.6,680c-1,0-2,0-3,0.2v-3.5c1,0.1,2,0.2,3,0.2h4.1v-2.5c0-1.3,0-2.5-0.2-3.8h3.8
	c-0.1,1.3-0.2,2.5-0.2,3.8v2.5h0.4c1,0,2,0,3-0.2v3.6l-0.7-0.1c-0.7-0.1-1.5-0.1-2.2-0.1H526v15.5c0,1.7-0.1,2.2-0.6,2.8
	c-0.6,0.8-1.8,1.1-3.9,1.1c-1.3,0-2.5,0-3.8-0.1c-0.1-1.2-0.5-2.4-1-3.5c1.3,0.2,2.6,0.3,3.9,0.4c1.7,0,1.9-0.1,1.9-0.8V680H518.6z"
	/>
<path d="M551.8,684c0.4,1.2,0.8,2.4,1.4,3.5c1.3-0.9,2.5-2,3.5-3.2l3,2.1c-0.3,0.2-0.5,0.4-0.8,0.7c-1.3,1.1-2.6,2.2-4.1,3.1
	c1.8,2.4,4.3,4.2,7.1,5.2c-0.9,1-1.6,2.2-2.2,3.4c-3.2-1.5-5.9-4-7.9-6.9c-1.5-2.4-2.7-5-3.5-7.8h-0.9c-0.5,0.4-0.7,0.5-1.3,0.9
	c1.3,1.3,2.3,2.9,2.8,4.7c0.6,1.6,0.9,3.3,0.9,5c0,4-1.3,5.2-5.6,5.2c-0.4,0-0.9,0-1.7-0.1c-0.2-1.2-0.6-2.4-1.2-3.4
	c0.9,0.1,1.8,0.2,2.7,0.2c2,0,2.4-0.4,2.4-2.6c0-0.2,0-0.4-0.1-0.6c-3.9,2.5-8.2,4.3-12.6,5.6c-0.4-1.1-1.1-2-1.8-2.9
	c4.9-1.1,9.6-2.9,13.9-5.4c-0.1-0.4-0.3-0.8-0.5-1.2c-3.6,1.9-7.5,3.4-11.5,4.3c-0.4-1-0.9-1.8-1.6-2.6c4.1-0.8,8.1-2.1,11.8-3.9
	c-0.2-0.4-0.5-0.7-0.7-1c-3,1.4-6.2,2.5-9.5,3.1c-0.3-1-0.9-1.9-1.5-2.7c3.4-0.5,6.8-1.4,10-2.8h-4.1c-1,0-2.1,0-3.1,0.1
	c0.1-0.9,0.2-1.9,0.1-2.8v-2.3c-0.7,0.5-1.4,0.9-2.2,1.3c-0.3-1.1-0.9-2.1-1.6-3c2.2-0.9,4.2-2.2,6-3.7c1.4-1.1,2.5-2.4,3.5-3.9
	l3.9,0.6l-1.2,1.4h5.2c1.1,0,2.7-0.1,3.1-0.1l1.8,1.6c-0.3,0.3-0.4,0.4-0.8,0.8c-0.9,0.9-1.3,1.3-2.3,2.2h4.8c1.1,0,2.3,0,3.4-0.2
	c-0.1,0.9-0.1,1.9-0.1,2.8v2.4c0,0.9,0,1.9,0.1,2.8c-0.8-0.1-1.7-0.1-3-0.1L551.8,684z M545.2,681v-2h-6.5v2H545.2z M546.8,676.1
	c0.7-0.6,1.3-1.2,1.9-1.9h-7.3c-0.7,0.7-1.4,1.3-2.2,1.9H546.8z M555.5,681v-2h-6.9v2H555.5z"/>
<path d="M568.2,682.5c-1.3,0-2.6,0.1-3.8,0.2v-3.5c1.3,0.2,2.6,0.2,3.9,0.2h7.3v-2.8h-4.8c-1.2,0-2.4,0-3.6,0.1v-3.4
	c1.3,0.2,2.5,0.2,3.8,0.2h4.7V673c0-0.9,0-1.9-0.2-2.8h3.9c-0.2,0.9-0.2,1.9-0.2,2.8v0.5h2.3c1.2,0,2.4,0,3.6-0.2v2.8
	c1.4-1.4,2.7-3.1,3.7-4.9l3.2,2.1c-0.2,0.2-0.7,0.8-1.4,1.6c-1.3,1.6-2.8,3-4.3,4.4h3.3c1.2,0,2.4,0,3.7-0.2v3.5
	c-1.3-0.1-2.7-0.2-4-0.2h-6.9c-1.2,0.9-2,1.4-3.5,2.3h7.3c1.1,0,2.2,0,3.4-0.1c-0.1,1.2-0.2,2.3-0.1,3.5v7.9c0,1.2,0,2.4,0.2,3.6
	h-3.7v-1.4h-11.6v1.4h-3.7c0.1-1.2,0.2-2.4,0.2-3.6v-6.8c-1.7,0.8-3.4,1.6-5.1,2.2c-0.5-1.2-1.1-2.2-1.9-3.2
	c4.6-1.3,9.1-3.3,13.2-5.9L568.2,682.5z M574.1,690h11.6v-2.4h-11.6V690z M574.1,695.3h11.6v-2.5h-11.6V695.3z M581.3,679.3
	c1.1-0.8,2.1-1.7,3.1-2.7c-0.9-0.1-1.4-0.1-2.7-0.1h-2.6v2.8L581.3,679.3z"/>
<rect x="426.2" y="661" class="st4" width="177" height="64"/>
<g>
	<defs>
		<rect id="SVGID_19_" width="1024" height="1024"/>
	</defs>
	<clipPath id="SVGID_20_">
		<use xlink:href="#SVGID_19_"  style="overflow:visible;"/>
	</clipPath>
	<g class="st18">
		<path class="st2" d="M186.8,352.1c0,0.5-0.1,1.4-0.3,2.9c4.1-3,8.7-4.3,14.6-4.3c8,0,14.6,2.5,19.4,7.4c4.5,4.6,6.8,10.4,6.8,18
			c0,17.3-11.3,27.5-30.4,27.5c-11.3,0-20.2-3.9-25.5-11.1c-2.1-2.8-3.1-5.4-4.5-10.1l18.1-2.8c1.5,5.9,5.3,8.7,11.8,8.7
			c7.6,0,12.6-4.8,12.6-12s-4.9-11.9-12.4-11.9c-5.7,0-9.4,2.2-11.3,6.7l-16.7-1.6c0.4-2.7,0.6-4.9,0.9-7.4l2.4-28.1
			c0.2-1.9,0.3-4,0.4-7.5c3.8,0.2,4.7,0.2,9,0.2h26.9c5,0.1,9.9-0.1,14.9-0.6v15.7c-4.9-0.5-9.8-0.7-14.7-0.6h-20.9L186.8,352.1z"/>
		<path class="st2" d="M281.5,326.8l-32.3,87.7h-16.1l32.4-87.7H281.5z"/>
		<path class="st2" d="M296,326.2c3.6,0.5,7.2,0.8,10.8,0.6h11.4c3.7,0.1,7.5,0,11.2-0.4c-0.5,4.8-0.7,9.7-0.6,14.5v47.1
			c-0.1,4.5,0.2,9.1,0.7,13.6h-19.7c0.5-4.5,0.8-9,0.7-13.6v-45.9h-3.6c-3.7,0-7.3,0.2-11,0.6L296,326.2z"/>
		<path class="st2" d="M366.5,407.7c-2.2-2.9-4-6.1-5.3-9.5c-2-4.7-2.9-9.8-2.9-14.9c0-4.2,0.6-8.4,2-12.5c1.4-4.1,2.8-6.9,6.2-11.9
			l5.3,3.4c-2.9,4.2-4.1,6.5-5.2,10c-1.2,3.6-1.7,7.3-1.7,11c0,3.7,0.5,7.3,1.6,10.9c1.1,3.4,2.3,5.6,5.2,9.9L366.5,407.7z"/>
		<path class="st2" d="M390.2,375.3c-1.6,0-3.3,0.1-4.9,0.2v-2.4c-2.6,1.6-5.3,3-8.1,4.1c-0.7-1.8-1.7-3.6-2.9-5.1
			c9.3-3.2,16.8-8.6,20.4-14.6h6.2c2.1,3,4.7,5.6,7.7,7.7c4,3,8.5,5.3,13.2,6.8c-1.1,1.7-2,3.6-2.7,5.5c-3.1-1.2-6-2.7-8.8-4.4v2.5
			c-1.6-0.2-3.3-0.3-4.9-0.2h-5.1v4.9h12.6c1.8,0,3.6-0.1,5.5-0.3v5.5c-1.8-0.2-3.7-0.3-5.5-0.3h-12.6v11.2H414c2,0,3.9-0.1,5.9-0.3
			v5.8c-2-0.2-4-0.4-6-0.4h-31.6c-2.1,0-4.1,0.1-6.2,0.4V396c2.1,0.2,4.1,0.3,6.2,0.3h12.5v-11.2H383c-1.8,0-3.6,0.1-5.4,0.3v-5.5
			c1.8,0.2,3.6,0.3,5.5,0.3h11.8v-4.9L390.2,375.3z M386.7,385.5c1.6,2.7,2.9,5.4,4,8.3l-5,2c-1-2.9-2.3-5.7-4-8.3L386.7,385.5z
			 M390.1,370.5h15.5c0.5,0,0.5,0,1.2,0c-3.4-2.3-6.5-5.1-9-8.4c-2.4,3.3-5.4,6.1-8.8,8.4H390.1z M414,387.5
			c-0.6,1.1-0.6,1.1-2.5,4.8c-0.1,0.3-0.4,0.6-2,3.5l-4.7-1.8c1.6-2.7,3-5.6,4-8.6L414,387.5z"/>
		<path class="st2" d="M424.2,404.1c2.9-4.2,4.1-6.5,5.2-9.9c1.1-3.5,1.6-7.2,1.6-10.9c0-3.8-0.5-7.5-1.7-11
			c-1.1-3.5-2.3-5.8-5.2-10l5.3-3.4c3.5,5,4.9,7.7,6.3,11.9c1.3,4,1.9,8.2,1.9,12.5c0,5.1-0.9,10.2-2.9,14.9
			c-1.4,3.4-3.2,6.6-5.4,9.5L424.2,404.1z"/>
		<path class="st2" d="M501.6,372.8c-3.3,3.7-5.2,5.2-8.2,6.6c-2.5,1.2-5.2,1.8-7.9,1.8c-3.2,0-6.7-0.8-12.2-2.9
			c-5.2-2-7.5-2.6-9.8-2.6c-3.8,0-6.4,1.3-10,5l-7.6-9.8c3.4-3.7,5.2-5.2,8.2-6.5c2.4-1.1,5-1.7,7.6-1.8c3.3,0,6.4,0.8,12.5,3.2
			c4.5,1.7,7.3,2.4,9.7,2.4c3.9,0,6.4-1.3,10.1-5L501.6,372.8z"/>
		<path class="st2" d="M528.8,352.1c0,0.5-0.1,1.4-0.3,2.9c4-3,8.7-4.3,14.6-4.3c8,0,14.6,2.5,19.3,7.4c4.5,4.6,6.8,10.4,6.8,18
			c0,17.3-11.3,27.5-30.4,27.5c-11.3,0-20.2-3.9-25.5-11.1c-2.1-2.8-3.1-5.4-4.5-10.1l18.1-2.8c1.5,5.9,5.3,8.7,11.8,8.7
			c7.6,0,12.6-4.8,12.6-12s-4.9-11.9-12.4-11.9c-5.7,0-9.4,2.2-11.3,6.7l-16.7-1.6c0.4-2.7,0.6-4.9,0.9-7.4l2.4-28.1
			c0.2-1.9,0.3-4,0.4-7.5c3.8,0.2,4.7,0.2,9,0.2h26.9c5,0.1,9.9-0.1,14.8-0.6v15.7c-4.9-0.5-9.8-0.7-14.7-0.6h-20.9L528.8,352.1z"/>
		<path class="st2" d="M623.6,326.8l-32.3,87.7h-16.1l32.4-87.7H623.6z"/>
		<path class="st2" d="M647.3,378.8c0.5,3,1.1,4.2,2.5,5.8c2.4,2.5,6,3.9,10.3,3.9c7,0,11.4-3.5,11.4-9c0-3.7-1.8-6.6-4.9-7.7
			c-2.7-0.8-5.5-1.2-8.4-1.2c-3.5,0-7.6,0.2-11.1,0.5v-15.5c3.2,0.4,6.4,0.6,9.5,0.5c8.5,0,12.8-2.9,12.8-8.6c0-4.9-3.4-7.6-9.4-7.6
			c-6.4,0-9.6,2.5-11,8.3l-19.4-2.8c1.7-5.6,3.2-8.3,6-11.4c5.5-5.9,13.8-9,24.8-9c9.8,0,17.9,2.7,23,7.6c3.3,3.4,5.1,8,5,12.8
			c0,9.5-5.1,15.5-15.5,17.9c5.5,0.8,8.5,2.1,11.6,4.8c3.8,3.4,6,8.2,5.9,13.3c0.1,4.3-1.2,8.5-3.6,12c-2.2,2.9-5.1,5.2-8.5,6.8
			c-4.7,2.2-12,3.5-18.7,3.5c-8.1,0-16.2-1.9-21-5c-4.2-2.8-7.5-6.9-9.3-11.6c-0.6-1.5-1.1-3.1-1.5-4.8L647.3,378.8z"/>
		<path class="st2" d="M707.5,326.2c3.6,0.5,7.2,0.8,10.8,0.6h11.4c3.7,0.1,7.5,0,11.2-0.4c-0.5,4.8-0.7,9.7-0.6,14.5v47.1
			c-0.1,4.5,0.2,9.1,0.7,13.6h-19.6c0.5-4.5,0.8-9,0.7-13.6v-45.9h-3.6c-3.7,0-7.3,0.2-11,0.6L707.5,326.2z"/>
		<path class="st2" d="M778,407.7c-2.2-2.9-3.9-6.1-5.3-9.5c-2-4.7-2.9-9.8-2.9-14.9c0-4.2,0.7-8.4,2-12.5c1.3-4.1,2.8-6.9,6.2-11.9
			l5.3,3.4c-2.9,4.2-4.1,6.5-5.2,10c-1.2,3.6-1.7,7.3-1.7,11c0,3.7,0.5,7.3,1.6,10.9c1.1,3.4,2.3,5.6,5.2,9.9L778,407.7z"/>
		<path class="st2" d="M792.2,364.4c0-2-0.1-3.7-0.2-5.4c1.8,0.2,3.7,0.3,5.5,0.2h24.2c1.8,0,3.6,0,5.4-0.2
			c-0.2,1.7-0.3,3.4-0.2,5.1v32.3c0,2,0.1,4,0.3,6h-6v-3h-23.3v3h-6c0.2-2,0.3-4,0.3-6L792.2,364.4z M797.9,376.2h23.2v-11.6h-23.2
			L797.9,376.2z M797.9,394.2h23.2v-12.8h-23.2L797.9,394.2z"/>
		<path class="st2" d="M835.8,404.1c2.9-4.2,4.1-6.5,5.2-9.9c1.1-3.5,1.6-7.2,1.6-10.9c0-3.8-0.5-7.5-1.7-11
			c-1.1-3.5-2.3-5.8-5.2-10l5.3-3.4c3.5,5,4.9,7.7,6.3,11.9c1.3,4,1.9,8.2,1.9,12.5c0,5.1-0.9,10.2-2.8,14.9
			c-1.4,3.4-3.2,6.6-5.3,9.5L835.8,404.1z"/>
	</g>
</g>
<g>
	<defs>
		
			<rect id="SVGID_21_" x="873.3" y="310.5" transform="matrix(0.1564 -0.9877 0.9877 0.1564 425.0245 1176.5006)" width="55.9" height="57.8"/>
	</defs>
	<clipPath id="SVGID_22_">
		<use xlink:href="#SVGID_21_"  style="overflow:visible;"/>
	</clipPath>
	<g class="st19">
		<g>
			<defs>
				
					<rect id="SVGID_23_" x="873.3" y="310.5" transform="matrix(0.1564 -0.9877 0.9877 0.1564 425.0246 1176.5005)" width="55.9" height="57.8"/>
			</defs>
			<clipPath id="SVGID_24_">
				<use xlink:href="#SVGID_23_"  style="overflow:visible;"/>
			</clipPath>
			<g class="st20">
				<g>
					<defs>
						<rect id="SVGID_25_" x="0" y="0" width="1024" height="1024"/>
					</defs>
					<clipPath id="SVGID_26_">
						<use xlink:href="#SVGID_25_"  style="overflow:visible;"/>
					</clipPath>
					<g class="st21">
						<path class="st22" d="M931.3,315.9l-36.2-1.5c-1.6,0-3.1,1.1-3.3,2.7l-4.7,29.8c-1.4-0.9-3-1.4-4.6-1.7
							c-6.1-1-11.8,2.5-12.6,7.8s3.5,10.3,9.6,11.3s11.8-2.5,12.6-7.8l4.6-29.3l29.1,1.2l-3.3,20.8c-1.4-0.9-3-1.4-4.6-1.7
							c-6.1-1-11.8,2.5-12.6,7.8s3.5,10.3,9.6,11.3s11.8-2.5,12.6-7.8l6.3-40c0.3-1.4-0.6-2.7-2-2.9L931.3,315.9"/>
					</g>
				</g>
			</g>
		</g>
	</g>
</g>
<path class="st2" d="M323.8,523.3c-1.9-0.2-3.9-0.3-5.8-0.3h-12.1c-2.3,0-3.7,0-5.2,0.1c0.3-1.8,0.4-3.6,0.3-5.4v-21.3
	c0.1-2-0.1-4.1-0.3-6.1h6.2c-0.3,2-0.4,4-0.3,6V518h11.5c1.9,0,3.9-0.1,5.8-0.3L323.8,523.3z"/>
<path class="st2" d="M333.2,490.3c-0.3,1.8-0.4,3.5-0.3,5.3v22.1c0,1.8,0.1,3.5,0.3,5.3H327c0.3-1.8,0.4-3.5,0.3-5.3v-22.1
	c0-1.8-0.1-3.5-0.3-5.3H333.2z"/>
<path class="st2" d="M360.3,523c-0.8-1.5-1.7-3-2.6-4.4l-10.6-16c-0.8-1.2-1.8-3-2.8-4.9c0,0.7,0.1,1.4,0.2,2.1
	c0,0.8,0.1,2.6,0.1,3.6v13.5c0,2.1,0.1,4.1,0.4,6.2h-6c0.3-2.1,0.4-4.1,0.3-6.2v-21.2c0-1.8-0.1-3.5-0.3-5.3h6.4
	c0.7,1.5,1.5,3,2.5,4.4l10.4,15.6c1,1.5,2.3,3.6,3.2,5.2c-0.2-1.6-0.3-4-0.3-5.8V496c0-1.9-0.1-3.8-0.3-5.7h6
	c-0.3,1.9-0.4,3.8-0.3,5.7v21.7c0,1.8,0.1,3.5,0.3,5.3L360.3,523z"/>
<path class="st2" d="M395.9,523.3c-1.8-0.2-3.5-0.3-5.3-0.3h-12.8c-2.5,0-3.6,0-5.2,0.1c0.3-1.8,0.4-3.6,0.3-5.4v-22.2
	c0-1.8-0.1-3.5-0.3-5.3c1.6,0.1,2.7,0.1,5.2,0.1h12.4c1.8,0,3.5-0.1,5.3-0.3v5.4c-1.8-0.2-3.5-0.3-5.3-0.3h-11.8v8.4h10
	c1.8,0,3.6-0.1,5.3-0.3v5.4c-1.8-0.2-3.5-0.3-5.3-0.3h-10v9.7h12.3c1.8,0,3.5-0.1,5.2-0.3L395.9,523.3z"/>
<path class="st2" d="M416.1,490.8c-0.1,0.2-0.2,0.4-0.4,0.6s-0.1,0.3-0.2,0.4c-0.2,0.3-0.4,0.7-0.5,1.1c-1.8,3.6-4.1,7-6.8,10
	c-1.9,2.2-4,4.2-6.3,5.9c-0.8-1.6-1.9-3-3.1-4.3c4.1-2.7,7.6-6.4,10.1-10.6c1-1.5,1.8-3.2,2.2-5L416.1,490.8z M430.9,525.8
	c-1-2.2-1.4-2.9-2.1-4.3c-7.3,1.1-14.8,1.9-22.2,2.3c-1.6,0-3.2,0.2-4.8,0.5L401,519c0.9,0.1,1.9,0.1,3,0.1c0.9,0,1.2,0,2.3,0
	c2.3-3.9,4.3-8,6-12.1c1.1-2.3,1.8-4.6,2.4-7l5.4,1.4c-0.2,0.5-0.4,0.8-0.8,1.8c-2.2,5.4-4.8,10.7-7.7,15.8c5-0.2,9.9-0.6,14.8-1.4
	c-1.6-2.6-3.3-5-5.2-7.3l4-2.2c3.8,4.8,7.1,9.9,10,15.3L430.9,525.8z M424.9,488.9c1,2.9,2.6,5.7,4.6,8.1c1.3,1.7,2.9,3.2,4.5,4.6
	c1.2,1,2.5,1.9,3.9,2.8c-1.2,1.4-2.2,2.9-3,4.5c-4.7-3.7-6.9-5.9-9.5-9.5c-1.4-2-2.7-4-3.8-6.2c-0.1-0.2-0.2-0.5-0.5-0.9
	c-0.1-0.3-0.3-0.6-0.4-0.8l-0.3-0.7L424.9,488.9z"/>
<path class="st2" d="M473.6,495.1c1.3,0.1,2.7,0,4-0.2v4.6c-1.6-0.2-3.2-0.3-4.8-0.2h-6c0.4,7.1,1.3,12,2.9,15.8
	c0.6,1.5,1.4,2.9,2.5,4.1c0.3,0.3,0.6,0.6,0.9,0.7c0.5,0,1-2,1.5-6.2c1.2,0.9,2.5,1.7,3.9,2.3c-0.6,3.9-1.3,6.2-2.3,7.7
	c-0.6,1-1.7,1.7-2.8,1.7c-1.6,0-3.6-1.6-5.5-4c-2.1-2.9-3.6-7-4.6-12.3c-0.6-3.2-0.9-6.5-1-9.8h-16.4c-1.6,0-3.2,0.1-4.8,0.2v-4.6
	c1.6,0.2,3.2,0.3,4.8,0.2h16.2c-0.2-2.1-0.2-2.1-0.2-3.4c0-1.1-0.1-2.1-0.2-3.2h5c-0.1,1.1-0.2,2.2-0.2,3.3v3.2h4.8
	c-1.1-1.8-2.4-3.4-3.9-4.8l3.6-1.7c1.5,1.4,2.8,3,4.1,4.6l-3.3,1.9L473.6,495.1z M446.8,508.3c-1.4,0-2.8,0.1-4.1,0.2v-4.3
	c1.4,0.1,2.8,0.2,4.2,0.2h9.9c1.4,0,2.8-0.1,4.1-0.2v4.3c-1.4-0.1-2.7-0.2-4.1-0.2H454v9.3c2.9-0.6,4.5-0.9,8.4-1.9v4.2
	c-6.9,1.7-13.4,3-18.9,3.8c-0.4,0.1-0.8,0.2-1.5,0.3l-0.7-4.6c2.8-0.1,5.5-0.5,8.2-1v-10.1H446.8z"/>
<path class="st2" d="M501.5,499.4c-0.2,1.1-0.2,2.2-0.2,3.3c-0.2,7-1.3,10.9-4.1,14.5c-2.5,3.2-5.5,5.2-10.6,7.4
	c-0.8-1.8-1.9-3.3-3.2-4.7c2.6-0.6,5.1-1.8,7.2-3.5c4.2-3.3,5.5-6.9,5.5-14.6c0-0.8,0-1.7-0.2-2.5L501.5,499.4z M518.2,494.2
	c-0.7,0.9-1.2,1.8-1.6,2.9c-1.5,3.1-3.7,6-6.3,8.2c-1.5,1.3-3.1,2.5-4.9,3.4c-1-1.5-2.2-2.7-3.7-3.7c2.2-0.9,4.3-2.1,6-3.8
	c1.6-1.5,3-3.2,3.9-5.2H490c-1.9,0-3.7,0-5.6,0.2v-5.1c1.9,0.3,3.8,0.4,5.7,0.3h21.4c1.3,0.1,2.7,0,4-0.4L518.2,494.2z"/>
<path class="st2" d="M557,498.2c-0.3,0.9-0.5,1.8-0.5,2.8c-0.1,4.6-0.6,11-1,13.7c-1.1,7.1-2.5,8.8-7.4,8.8c-1.7,0-3.4-0.2-5.1-0.4
	c0.1-1.8-0.2-3.6-0.9-5.2c1.8,0.5,3.6,0.9,5.4,0.9c1.8,0,2.4-0.9,3-4.5c0.6-4.3,0.9-8.7,0.9-13.1h-9.5c-0.3,4.1-1.4,8.1-3.3,11.7
	c-2.2,4.3-5.9,8.1-11.1,11.4c-1-1.7-2.2-3.1-3.7-4.3c5.1-2.7,8.5-6,10.7-10.3c1.1-2.2,1.8-4.7,2.1-7.1c0.1-0.6,0.2-1,0.2-1.3H530
	c-1.5,0-3,0-4.4,0.2v-5c1.5,0.3,3,0.4,4.6,0.3h7.2c0.1-1.6,0.2-3.9,0.2-5.1v-1c0-0.5,0-1.1-0.1-1.6l5.5,0.1
	c-0.1,0.4-0.1,0.9-0.2,1.3v0.8c-0.1,0.9-0.1,0.9-0.2,3c0,0.9,0,1.7-0.2,2.6h9.1c1.1,0.1,2.2,0,3.2-0.4L557,498.2z"/>
<path class="st2" d="M598.6,497.5c-0.3,0.7-0.5,1.5-0.6,2.2c-0.4,3.4-1.2,6.8-2.6,9.9c-2.1,4.8-5.6,8.7-10.1,11.3
	c-2.6,1.6-5.3,2.8-8.2,3.7c-0.8-1.8-1.9-3.5-3.3-4.9c3.1-0.6,6-1.8,8.7-3.4c6-3.7,9.1-8.9,9.8-16.4h-20v5.3c0,1.1,0,2.2,0.1,3.3H567
	c0.1-1.1,0.2-2.3,0.2-3.5v-5.9c0-1.3,0-2.6-0.2-3.9c1.5,0.2,3,0.2,4.4,0.2h8v-3.5c0-1,0-2-0.2-3h5.7c-0.1,1-0.2,2-0.2,3v3.5h7.4
	c3,0,3,0,4-0.3L598.6,497.5z"/>
<path class="st2" d="M607.7,517.6c4.2-0.3,8.3-1.4,12.1-3c5-2.1,9.2-5.5,12.2-10c1.8-2.5,3.2-5.3,4.2-8.2c1.2,1.6,2.7,2.9,4.3,4
	c-3.5,7.5-7.4,12.3-13,16.1c-4.8,3-10,5.1-15.6,6.1c-0.9,0.1-1.8,0.4-2.7,0.7L607.7,517.6z M611.2,492.1c3.8,2.2,7.4,4.9,10.6,7.9
	l-3.5,4.5c-3-3.3-6.6-6.1-10.5-8.3L611.2,492.1z"/>
<path class="st2" d="M654.7,524.3c0.2-1.5,0.3-3.1,0.2-4.6v-26.3c0-1.4-0.1-2.8-0.2-4.2h5.6c-0.2,1.4-0.2,2.9-0.2,4.3v7.6
	c6.4,2.4,12.7,5.2,18.6,8.7l-2.9,4.8c-4.6-3-9.5-5.6-14.5-7.8c-0.5-0.2-0.9-0.4-1.4-0.7c0.1,0.9,0.2,1.9,0.2,2.8v10.8
	c0,1.5,0,3,0.2,4.6H654.7z"/>
<path class="st2" d="M690.7,523.8c0-0.6-0.1-1.3-0.2-1.9c-0.7-4-1.1-8.2-1.1-12.3c0-5.4,0.6-10.7,1.7-16c0.3-1.3,0.5-2.5,0.6-3.8
	l5.4,0.6c-1.3,4-2.2,8.1-2.6,12.3c-0.4,3-0.6,6-0.6,9.1c0,0.8,0,1.5-0.1,2.3c0.6-1.8,1.3-3.7,2.1-5.4l3.3,1.5
	c-2.2,4.8-3.7,9.5-3.7,12.4c0,0.4,0,0.7,0,1.1L690.7,523.8z M708.1,507.6c-2,2.4-2.9,4.1-2.9,5.9c0,2.3,2.3,3.6,6.5,3.6
	c3.3,0,6.6-0.5,9.8-1.6l0.4,5.2c-0.6,0-1.1,0.1-1.7,0.2c-2.8,0.5-5.6,0.8-8.5,0.8c-5.1,0-8.4-1.2-10.2-3.6c-0.8-1.2-1.3-2.6-1.2-4
	c0-2.7,1.2-5.4,3.8-8.5L708.1,507.6z M701.4,494c2.5,0.5,5,0.8,7.6,0.6c3.7,0.1,7.5-0.3,11.2-1.1l0.2,5l-2.9,0.4
	c-2.9,0.3-5.8,0.5-8.8,0.5c-2.5,0-4.9-0.1-7.4-0.5L701.4,494z"/>
<path class="st2" d="M232.9,555.2c-1.7,0-3.4,0.1-5.1,0.2V551c1.7,0.2,3.3,0.3,5,0.2h27.1c1.7,0,3.4-0.1,5-0.2v4.5
	c-1.7-0.2-3.3-0.3-5-0.2h-11.6v3.7h4.9c1.1,0,2.2,0,3.4-0.2c-0.1,1-0.2,2-0.2,3.1v14.7c0,1,0,2,0.2,3c-1.2-0.1-2.4-0.2-3.6-0.2
	h-13.2c-1.2,0-2.5,0-3.7,0.2c0.1-1,0.2-2,0.2-3v-14.7c0-1,0-2.1-0.2-3.1c1.1,0.1,2.2,0.2,3.4,0.2h4.8v-3.7L232.9,555.2z
	 M263.9,559.5c-0.2,1.5-0.2,3.1-0.2,4.6v18.4c0,1.8,0.1,3.7,0.3,5.5h-4.8v-2h-25.9v2h-4.7c0.2-1.8,0.3-3.6,0.2-5.5v-18.5
	c0-1.5-0.1-3-0.2-4.6h4.8c-0.1,1.2-0.2,2.4-0.2,3.7v18.9h26.1v-19c0-1.2,0-2.4-0.2-3.6L263.9,559.5z M240.2,562.7v4.3h4v-4.3
	L240.2,562.7z M240.2,570.7v5h4v-5H240.2z M248.3,567h4.1v-4.3h-4.1V567z M248.3,575.7h4.1v-5h-4.1V575.7z"/>
<path class="st2" d="M280.2,562.3l-1.6,1.2c-0.6-1.1-1.4-2.1-2.3-3v22.5c0,1.7,0,3.3,0.2,5h-4.7c0.2-1.6,0.3-3.3,0.2-4.9v-11.2
	c0-1.4,0-2.2,0.1-5.2c-0.9,1.5-1.8,2.9-2.9,4.2c-0.4-1.7-1-3.3-1.8-4.9c2.7-3.2,4.8-6.9,6.3-10.8c0.7-1.7,1.2-3.5,1.5-5.2l4.8,1
	c-2.4,6.6-2.4,6.6-3.7,9.4c1.6-1,3.1-2.1,4.5-3.4c2.3-1.9,4.1-4.3,5.4-7.1l4.8,0.7c-0.5,0.9-0.5,0.9-1.1,1.8h5.3
	c1.2,0,2.3,0,3.5-0.1l1.9,1.7c-0.5,0.5-0.9,1.1-1.3,1.6c-0.1,0.1-0.4,0.5-0.8,0.9c-0.2,0.2-0.5,0.6-0.9,1.1l-0.7,0.7h4.8
	c1.1,0,2.2,0,3.2-0.1c-0.1,0.9-0.1,1.8-0.1,3.2v3c0,1.1,0,2.2,0.1,3.3c-1.1-0.1-2.2-0.1-3.2-0.1h-3.9c0.2,1.5,0.6,2.9,1.1,4.3
	c1.7-1,3.1-2.3,4.4-3.8l3.4,2.9l-0.5,0.5c-1.7,1.5-3.5,2.8-5.5,4c0.9,1.5,2,2.9,3.4,4.1c1,1,2.2,1.8,3.4,2.5
	c-0.8,1.4-1.6,2.8-2.2,4.2c-4.2-3.5-6.2-5.9-8.1-9.6c-1.5-2.9-2.5-5.9-3-9.1h-1.6c-1.4,1-1.5,1.2-2.2,1.6c3.7,3.7,5.8,8.2,5.8,12.6
	c0,2.8-0.6,4.5-1.9,5.4c-1,0.6-2.5,0.8-4.9,0.8h-2.8c-0.2-1.4-0.6-2.7-1.2-3.9c-2.1,1.1-4.3,2.1-6.5,2.9c-0.4-1.2-1-2.4-1.8-3.5
	c5.1-1.4,9.9-3.7,14.2-6.7c-0.3-0.6-0.6-1.2-0.9-1.8c-3.6,2.2-7.4,4-11.4,5.3c-0.5-1.1-1.1-2.2-1.9-3.2c4.1-0.9,8-2.5,11.6-4.6
	c-0.4-0.5-0.9-1-1.4-1.5c-2.6,1.4-5.4,2.5-8.3,3.2c-0.5-1.1-1.1-2.2-1.9-3.1c3.6-0.6,7-1.8,10.1-3.6h-3.8c-1.1,0-2.2,0-3.3,0.1
	c0.1-0.9,0.1-1.7,0.1-3L280.2,562.3z M284.3,564.5h5.7v-3.2h-5.7V564.5z M291.8,558.2c0.8-0.8,1.5-1.7,2.1-2.6h-6.5
	c-0.7,0.9-1.5,1.8-2.3,2.6H291.8z M285.4,583.8c1.2,0.2,2.5,0.3,3.8,0.3c2.3,0,2.8-0.5,2.8-3.3v-0.9
	C289.9,581.4,287.7,582.7,285.4,583.8L285.4,583.8z M294,564.5h6.4v-3.2H294V564.5z"/>
<path class="st2" d="M325.3,550.8c0.5,4.4,1.4,8.6,2.7,12.8c2.7-1,2.7-1,10.6-3.6c0.5-0.2,1-0.4,1.5-0.6l1.8,5.2
	c-4.6,1-9.1,2.3-13.5,3.9c-6,2.2-9,4.8-9,7.8s2.8,4.3,9.4,4.3c5.1,0,10.2-0.6,13.2-1.7l0.5,5.6c-1.1,0-2.2,0.1-3.3,0.3
	c-3.2,0.4-6.4,0.6-9.6,0.6c-5.7,0-9.3-0.7-11.9-2.3c-2.3-1.5-3.7-4.1-3.6-6.8c0.1-2.9,1.4-5.6,3.6-7.3c1.7-1.4,3.6-2.6,5.6-3.5
	c-1.1-3.7-2-7.4-2.7-11.1c-0.1-0.9-0.4-1.8-0.7-2.7L325.3,550.8z"/>
<path class="st2" d="M359.6,582.5c-1.7,0-3.4,0-5,0.2v-5.3c1.7,0.3,3.4,0.4,5.1,0.3h18.6v-17.9h-18c-1.7-0.1-3.5,0-5.2,0.2v-5.3
	c1.8,0.3,3.5,0.4,5.3,0.3h19.8c2.1,0,2.1,0,3.6-0.1c-0.1,1.1-0.2,2.3-0.1,3.4v22.5c0,1.4,0,2.8,0.2,4.2h-5.5v-2.5L359.6,582.5z"/>
<path class="st2" d="M422.9,553.6c-0.5,1-1,1.9-1.4,3c-2.6,6.1-4.2,9.2-5.8,11.6c3.2,2.7,6.3,5.6,9.1,8.7l-3.9,4.2
	c-2.5-3.2-5.3-6-8.3-8.7c-1.9,2.5-4,4.8-6.4,6.8c-3,2.6-6.3,4.9-9.8,6.8c-0.9-1.7-2.1-3.1-3.6-4.3c6.2-3,11.6-7.3,15.8-12.7
	c-3.4-2.8-7-5.2-10.9-7.4l3.6-3.6c3,1.8,4.8,2.9,6.8,4.3c3.1,2.2,3.1,2.2,3.4,2.4c2.6-4.3,5.2-10.2,5.8-13.2L422.9,553.6z"/>
<path class="st2" d="M435.7,579.6c4.2-0.3,8.3-1.4,12.1-3c5-2.1,9.2-5.5,12.2-10c1.8-2.5,3.2-5.3,4.2-8.2c1.2,1.6,2.7,2.9,4.3,4
	c-3.5,7.5-7.4,12.3-13,16.1c-4.8,3-10.1,5.1-15.6,6.2c-0.9,0.1-1.8,0.4-2.7,0.7L435.7,579.6z M439.2,554.1c3.8,2.2,7.4,4.9,10.6,7.9
	l-3.5,4.5c-3-3.3-6.6-6.1-10.5-8.3L439.2,554.1z"/>
<path class="st2" d="M482.6,586.3c0.2-1.5,0.3-3.1,0.2-4.6v-26.3c0-1.4-0.1-2.8-0.2-4.2h5.6c-0.2,1.4-0.2,2.9-0.2,4.3v7.6
	c6.4,2.3,12.7,5.2,18.6,8.7l-2.9,4.8c-4.6-3-9.5-5.6-14.5-7.8c-0.5-0.2-0.9-0.4-1.4-0.7c0.1,0.9,0.2,1.9,0.2,2.8v10.8
	c0,1.5,0,3,0.2,4.5L482.6,586.3z"/>
<path class="st2" d="M517.4,555c1.7,0.4,4.3,0.5,9.5,0.5c0.8-1.6,1.4-3.3,1.6-5.1l5.4,0.6c-0.6,1.2-1.2,2.4-1.6,3.7
	c-0.2,0.5-0.3,0.6-0.4,0.7c0.3,0,0.3,0,2.6-0.2c3.6-0.1,7.2-0.6,10.7-1.4l0.3,4.7c-1.2,0.1-1.2,0.1-3.2,0.3c-3,0.4-8.2,0.7-12.3,0.8
	c-1,2-2.2,3.8-3.8,5.5v0.1l0.8-0.6c1.7-1.2,3.7-1.9,5.8-1.8c3.2,0,5.2,1.5,5.9,4.3c3.2-1.2,5.2-1.9,6.3-2.2c1-0.3,2.1-0.7,3-1.2
	l1.9,4.7c-1.5,0.3-3.1,0.6-4.5,1.1c-0.6,0.2-2.6,0.9-6.2,2.1v5.1c0,0.7,0,1.5,0.1,2.2l-4.8,0.1c0.2-1.6,0.3-3.2,0.2-4.8v-1
	c-1.4,0.6-2.7,1.3-3.9,2.1c-1.4,1.1-2.1,2.2-2.1,3.4c0,2.1,2,3,6.9,3c4.1,0.1,8.2-0.5,12.1-1.7l0.4,5.3c-0.6,0-1.3,0.1-1.9,0.2
	c-3.5,0.5-7,0.7-10.5,0.7c-4.3,0-7-0.5-9.1-1.7c-1.9-1.1-3-3.1-3-5.3c0-1.7,0.6-3.3,1.8-4.5c1.8-2.3,4.2-3.9,8.8-5.8
	c0-1.2-1-2.2-2.3-2.2h-0.2c-2.4,0-5.2,1.4-8.4,4.2c-1.4,1.1-2.6,2.3-3.6,3.7l-3.7-3.7c1.4-1.1,2.6-2.3,3.7-3.7
	c1.8-2.2,3.5-4.5,4.9-7c0.1-0.2,0.2-0.4,0.3-0.5h-0.7c-0.7,0-4.3-0.1-5.2-0.1h-1.8L517.4,555z"/>
<path class="st2" d="M582.3,582.8c1.5,0.2,2.9,0.2,4.4,0.2c2.5,0,4.6-0.1,6.8-0.3c-0.5,1.4-0.9,2.9-1.1,4.3h-4.1
	c-5.9,0-9.1-0.5-11.6-1.7c-1.8-0.9-3.3-2.2-4.6-3.7c-1.1,2.3-2.6,4.5-4.3,6.3c-0.9-1.1-1.9-2-3.1-2.8c-0.4,1.9-1.5,2.5-4.8,2.5
	c-0.9,0-1.9,0-3.4-0.1c-0.1-1.5-0.4-2.9-1-4.2c1.2,0.1,2.3,0.2,3.5,0.2c1.2,0,1.4-0.2,1.4-1.2v-9.2c-1,0.4-1.4,0.5-2.2,0.8
	c-1,0.4-1.6,0.6-2.1,0.8l-0.7-4.5c1.7-0.3,3.4-0.7,5-1.3v-7.3h-1.8c-1,0-2,0-3,0.2v-4.4c1,0.2,2,0.3,3,0.2h1.7v-3.2
	c0.1-1.4,0-2.8-0.2-4.2h4.9c-0.2,1.4-0.3,2.8-0.2,4.1v3.3h3.5c0.1,0,0.2-0.1,0.3-0.1v4.3c-0.8-0.1-1.6-0.1-2.4-0.1h-1.4v5.7
	c1.5-0.6,1.9-0.7,3.6-1.5v1.8c1.1,0.1,2.3,0.2,3.4,0.2h17.1c1.3,0,2.5,0,3.8-0.2v4.2c-1.2-0.2-2.5-0.2-3.8-0.2h-6.6v3.4h5.1
	c1.2,0,2.4,0,3.6-0.2v4c-1.2-0.2-2.4-0.2-3.6-0.2h-5.1L582.3,582.8z M575,573.9c-0.1,0.3-0.3,0.8-0.7,2.4c-0.2,0.5-0.3,0.9-0.5,1.6
	c1,1.7,2.5,3,4.3,3.9v-10.2h-6.6c-1.1,0-2.1,0-3.2,0.2V570c-1.4,0.6-1.8,0.8-3.4,1.4v12.2c0,0.3,0,0.7,0,1c1.4-1.3,2.6-2.8,3.6-4.5
	c1.2-2.2,2-4.7,2.3-7.3L575,573.9z M573.5,565.8c-1.6,0-2.3,0-3.4,0.1c0-0.6,0.1-2,0.1-4.2v-6.5c0-1.3,0-2.6-0.1-3.9
	c1.3,0.1,2.7,0.2,4,0.2h12.2c1.3,0,2.6,0,3.9-0.2c-0.2,1.2-0.2,2.4-0.2,3.6v6.8c0,1.5,0,1.6,0.2,4.1c-1.1-0.1-2.4-0.1-4.1-0.1
	L573.5,565.8z M574.4,557h11.4v-1.9h-11.4L574.4,557z M574.4,562.3h11.4v-2h-11.4L574.4,562.3z"/>
<path class="st2" d="M612.7,554.3c0-1.4-0.1-2.7-0.2-4.1h5.1c-0.2,1.3-0.3,2.7-0.2,4.1v9h8.8v-6.7c0-1.1,0-2.2-0.2-3.2h4.9
	c-0.2,1.2-0.2,2.4-0.2,3.6v8.2c0,0.9,0,1.7,0.1,2.6c-0.9-0.1-1.9-0.1-2.9-0.1h-10.6V581h10.1v-6.8c0-1.2,0-2.3-0.2-3.5h5
	c-0.1,1.3-0.2,2.6-0.2,3.9v8.9c0,1.4,0.1,2.7,0.2,4.1h-4.8v-2.1h-24.4v2.1h-4.8c0.2-1.4,0.3-2.7,0.2-4.1v-8.7c0-1.3-0.1-2.6-0.2-3.9
	h5c-0.2,1.2-0.2,2.3-0.2,3.5v6.6h9.6v-13.4h-9.8c-1,0-2,0-3,0.1c0.1-0.9,0.1-1.7,0.1-2.6V557c0-1.2,0-2.4-0.2-3.6h4.9
	c-0.1,1.1-0.2,2.2-0.2,3.3v6.6h8.1L612.7,554.3z"/>
<path class="st2" d="M649.9,551.8c-0.3,1.8-0.5,3.7-0.5,5.5c-0.2,3.8-0.4,12.1-0.4,15c0,3.9,0.2,5.4,1.1,6.6s2.9,2.1,5.5,2.1
	c4.4,0,8-2.5,9.9-7c0.9-2.2,1.6-4.5,1.9-6.9c1.5,1.3,3.2,2.4,5,3.2c-1.6,5.5-2.9,8.2-4.9,10.5c-3.1,3.5-7.1,5.2-12.3,5.2
	c-2.5,0.1-5-0.5-7.2-1.8c-2.8-1.9-4-5-4-10.5c0-2.1,0.1-6.2,0.3-16.5v-2.7c0-0.9,0-1.9-0.2-2.8L649.9,551.8z"/>
<path class="st2" d="M678,556h1.6c0.7,0,0.7,0,6.8-0.4c2.3-0.1,9.1-0.5,20.5-1c1.6,0,3.2-0.1,4.7-0.4l0.3,5.2h-0.9
	c-2.8,0.1-5.6,0.9-8.1,2.2c-5.2,2.7-8.3,6.8-8.3,10.9c0,3.2,2,5.7,5.5,6.7c2,0.6,4,1,6.1,1.1h0.8l-0.7,5.6c-0.5-0.1-0.9-0.2-1.4-0.2
	c-4.5-0.6-7.1-1.3-9.6-2.7c-3.7-1.9-5.9-5.8-5.9-9.9c0-3.6,1.4-7,3.9-9.7c1.6-1.7,3.5-3.1,5.7-4.1c-3.3,0.5-4.9,0.6-13.8,1.3
	c-2.3,0.1-4.6,0.4-6.8,0.8L678,556z"/>
<path class="st2" d="M718.3,558.2h1.3c1,0,3.2-0.1,5.3-0.3c0.1-2.4,0.1-3.1,0.1-4.9v-2.3l5.2,0.1c-0.2,1.2-0.2,1.2-0.5,6.7
	c0.2,0,0.4-0.1,0.6-0.2l1.5,1.8c-0.8,0.7-1.6,1.6-2.3,2.5l-0.1,2.9c1.1-1.1,2.3-2.1,3.6-3c4.4-3.2,6.8-4.2,10-4.2
	c6,0,9.3,4.9,9.3,13.7c0,2-0.2,4-0.5,5.9c0.6,0.4,0.9,0.7,2.7,2c0.3,0.2,0.5,0.4,0.8,0.7l0.5,0.4l-1.9,4.9c-1.1-1.3-2.3-2.4-3.7-3.4
	c-0.4,1-1.1,1.8-1.9,2.5c-1.8,1.3-4.1,2-6.3,2c-4.7,0-7.9-2.5-7.9-6.3s3.1-6.3,7.6-6.3c1.9,0,3.9,0.4,5.6,1.2
	c0.2-1.1,0.3-2.3,0.3-3.5c0-6.1-1.7-9.1-5.2-9.1c-1.9,0-3.8,0.8-6.6,2.8c-2.2,1.6-4.3,3.4-6.3,5.3c0,12,0,14.3,0.3,16.7h-5.4
	c0.2-1.5,0.2-1.5,0.2-11.2c0-0.5,0-1,0.1-1.5c-0.4,0.5-1.2,1.5-2.2,2.5c-1.9,2.1-2.3,2.5-2.9,3.4l-2.5-4.8c1-0.6,2-1.6,7.5-7
	c0-2.5,0-2.5,0.1-5.9c-2.1,0.1-4.1,0.3-6.2,0.6L718.3,558.2z M741.6,577.3c-1.9,0-3.3,1-3.3,2.4c0,1.2,1.4,2.1,3.4,2.1
	c0.9,0,1.8-0.2,2.6-0.7c0.7-0.4,1.3-1,1.6-1.8c0.1-0.2,0.2-0.3,0.2-0.5C744.9,577.8,743.3,577.3,741.6,577.3z"/>
<path class="st2" d="M774.8,576.2c0-0.9,0.1-1.3,0.1-1.8s0-0.5-0.1-2.9l-0.6-13.9c-0.1-1.8-0.2-3.9-0.4-5h6.7
	c-0.1,1.1-0.3,3.2-0.4,5l-0.6,13.9c-0.1,2.4-0.1,2.4-0.1,3c0,0.6,0,1.1,0.1,1.7H774.8z M774.3,585.2v-5.6h6v5.6L774.3,585.2z"/>
<rect class="st4" width="1024" height="1024"/>
<g>
	<defs>
		<rect id="SVGID_27_" x="205.2" y="807.7" width="172.2" height="162.4"/>
	</defs>
	<clipPath id="SVGID_28_">
		<use xlink:href="#SVGID_27_"  style="overflow:visible;"/>
	</clipPath>
	<g class="st23">
		<g>
			<defs>
				<rect id="SVGID_29_" x="205.2" y="807.7" width="172.2" height="162.4"/>
			</defs>
			<clipPath id="SVGID_30_">
				<use xlink:href="#SVGID_29_"  style="overflow:visible;"/>
			</clipPath>
			<g class="st24">
				<g>
					<defs>
						<rect id="SVGID_31_" x="205.2" y="807.7" width="172.2" height="162.4"/>
					</defs>
					<clipPath id="SVGID_32_">
						<use xlink:href="#SVGID_31_"  style="overflow:visible;"/>
					</clipPath>
					<g class="st25">
						<path class="st26" d="M338.8,921.6h-58.2c-16.1,0-34.5,10.6-34.5,26.7v21.8h126v-21.8C372.1,932.2,354.8,921.6,338.8,921.6"/>
						<polygon class="st27" points="309.1,921.2 279.1,924.1 309.1,963.1 334.5,924.1 						"/>
						<path class="st28" d="M309.1,970.1h43.6c19.4-17,24.6-31.5,24.6-31.5s-16.2-17-47.4-22.6c0,5.9,4.8,15.2,4.8,15.2l-25.7,31.9
							L309.1,970.1z"/>
						<path class="st29" d="M363.7,928.4c-6.3-4.1-13.1-7.5-20.1-10c-14.8-4.9-11.5,8.8-11.5,8.8s-18.5,29.3-22.9,35.9
							C309.1,963.1,340.8,936.8,363.7,928.4"/>
						<path class="st30" d="M309.1,963.1c0,0,35.5-36.3,58.8-40.5c-19.8-16.6-49.1-14.8-49.1-14.8c0,5.9,7.2,9,7.2,16.4
							c0,12-12.6,30.1-16.9,36.7L309.1,963.1z"/>
						<path class="st28" d="M309.1,970.1h-43.6c-19.4-17-24.6-31.5-24.6-31.5s16.2-17,47.4-22.6c0,5.9-4.8,15.2-4.8,15.2l25.7,31.9
							V970.1z"/>
						<path class="st29" d="M254.6,928.4c6.3-4.1,13.1-7.5,20.2-10c14.8-4.9,11.5,8.8,11.5,8.8s18.5,29.3,22.9,35.9
							C309.1,963.1,277.5,936.8,254.6,928.4"/>
						<path class="st30" d="M309.1,963.1c0,0-35.5-36.3-58.8-40.5c19.8-16.6,49.1-14.8,49.1-14.8c0,5.9-7.2,9-7.2,16.4
							c0,12,12.6,30.1,16.9,36.7V963.1z"/>
						<path class="st27" d="M292.2,924.1c7.1,5.2,13.5,4.8,17,4.8s10.6,0.4,16.9-4.6l0.1-20.1h-34L292.2,924.1z"/>
						<path class="st31" d="M292.2,912.7c4.7,5.3,10.6,6.8,17,6.8s12.2-1.4,17-6.8v-13.6h-34V912.7z"/>
						<path class="st32" d="M353.4,901c-0.9,1.7-2.1,3.2-3.6,4.5c5.5,1.2,11,2.7,16.3,4.6c-1.8-2.8-2.9-5.9-3.4-9.1
							c-0.4-2-1.9-4-2.2-6.7c-0.4-3.2-0.8-6.8-1-10.7c-0.2-4.6-0.6-8.8-0.4-14.3c1.4-43.1-30.3-54.5-50.2-54.5s-54.5,10-53.1,53.1
							c0.2,5.6,0.1,10.7-0.1,15.3c-0.2,4-0.6,7.5-0.9,10.7c-0.3,2.7-0.7,5-1,7.1c-0.5,3.1-1.2,6.1-2,9.1c0,0,33.5-12.6,57.2-4.7
							c10.8-3.6,23.7-3,34.5-1.2C346.8,903.4,350.1,902.3,353.4,901"/>
						<path class="st27" d="M308.9,815.2c-22,0-39.8,22.9-39.8,51.2c0,6.3,0.9,12.5,2.8,18.5c0.2,0.8,0.5,1.5,0.7,2.2
							c1.1,3.1,2.5,6.1,4.2,9c1,1.7,2.1,3.3,3.2,4.8c7.2,9.5,17.5,15.3,28.9,15.3c22,0,39.8-21.6,39.8-49.9S330.8,815.2,308.9,815.2
							"/>
						<path class="st8" d="M299.5,864.1l12.5-17.9l-21.1-8.6l-19.1,47.3c0.2,0.8,0.5,1.5,0.7,2.2l9.4-3.9l-5.2,12.9
							c1,1.7,2.1,3.3,3.3,4.8l33.1-39.9L299.5,864.1z"/>
						<path class="st33" d="M308.9,904.4c-7.8,0-11.9-3.8-12.3-4.3c-1.2-1.3-1.2-3.4,0.2-4.7c1.3-1.2,3.2-1.2,4.5,0
							c0.2,0.2,2.7,2.4,7.6,2.4s7.5-2.3,7.6-2.4c1.3-1.2,3.4-1.2,4.7,0.1c1.3,1.3,1.3,3.3,0,4.6c0,0,0,0,0,0
							C320.7,900.6,316.7,904.4,308.9,904.4"/>
						<path class="st34" d="M313.2,889.6H305c-1.1,0-2-0.8-2-1.9c0,0,0,0,0,0v0l0,0v-0.7c0-1.1,0.9-2.1,2-2.1c0,0,0,0,0,0h8.2
							c1.1,0,2,0.9,2.1,2v0.7C315.2,888.7,314.3,889.6,313.2,889.6"/>
						<path class="st35" d="M325.5,877c-2.3,0-4.1-1.8-4.1-4.1v-4.1c0-2.3,1.8-4.1,4.1-4.1s4.1,1.8,4.1,4.1v4.1
							C329.6,875.2,327.7,877,325.5,877 M292.7,877c-2.3,0-4.1-1.8-4.1-4.1v-4.1c-0.1-2.3,1.6-4.2,3.9-4.3c2.3-0.1,4.2,1.6,4.3,3.9
							l0,0c0,0.1,0,0.3,0,0.4l0,0v4.1C296.8,875.2,294.9,877,292.7,877"/>
						<path class="st32" d="M362.1,878.1v-11.2c0.1-9.5-1.7-18.9-5.6-27.6c2,0.4,4,0.6,6,0.5c-4-3-7.8-6.2-11.4-9.7
							c-11.4-15.9-29.5-22.4-42.1-22.4c-18.2,0-47.4,13.3-52.3,48.5l-0.1-0.5c-2.1,5.1-4.5,10.2-7.1,15.1c2.3-0.9,4.5-2.1,6.4-3.7
							c0,3.5-0.1,6,0,15.3h3.5c-0.1-4.8-0.2-1.1-0.2-2.3c0-16.6,10,2.4,10-9.4s6.6-13,13.3-19.6c1.6-1.6,4-4,6-6
							c6.8,3.1,15.9,5.4,27.8,6c5.7,1.8,10.9,5,15.1,9.2c-0.1-3-1.1-5.9-2.9-8.3c9.4,1.9,15.3,8.4,16.5,19.2v0.3
							c-0.3,5.3-1.8,10.4-4.4,15c2.5-0.8,4.7-2.3,6.4-4.3c5.8,23.2,19.1,27.8,19.1,27.8c-2.3-10.5-3.6-21.2-4-32"/>
						<path class="st27" d="M277.3,867.5c0,7-3.6,12.7-7.9,12.7s-8-5.7-8-12.7s3.6-12.7,8-12.7S277.4,860.5,277.3,867.5"/>
						<path class="st36" d="M254.6,893.9c-8.2,0-14.9,6.7-14.9,14.9l0,0c0,2.2,0.5,4.4,1.5,6.4l-1.1-1.1c-1.5-1.5-4-1.6-5.6-0.1
							l-0.3,0.3l-26.6,30.2c-2.6,3-3.9,8,0.1,11.9s8.8,2.8,11.9,0.1l4.3-4V970h8.6v-25.4l16.7-15.2c1.6-1.4,1.9-3.9,0.5-5.5l0,0
							c-0.1-0.1-0.2-0.2-0.3-0.3l-1.3-1.3c2,1,4.2,1.5,6.4,1.5c8.2,0.2,15.1-6.3,15.3-14.5c0.2-8.2-6.3-15.1-14.5-15.3c0,0,0,0,0,0
							L254.6,893.9"/>
						<path class="st37" d="M262.6,923.2c-0.7,0.7-1.9,0.7-2.6,0c0,0,0,0,0,0l0,0l-19.7-19.7c-0.7-0.7-0.7-1.9,0-2.6l0,0l2.6-2.6
							c0.7-0.7,1.9-0.7,2.6,0c0,0,0,0,0,0l0,0l19.7,19.7c0.7,0.7,0.7,1.9,0,2.6c0,0,0,0,0,0l0,0L262.6,923.2z"/>
					</g>
				</g>
			</g>
		</g>
	</g>
</g>
<g>
	<defs>
		<rect id="SVGID_33_" x="73.5" y="806.1" width="164" height="164"/>
	</defs>
	<clipPath id="SVGID_34_">
		<use xlink:href="#SVGID_33_"  style="overflow:visible;"/>
	</clipPath>
	<g class="st38">
		<g>
			<defs>
				<rect id="SVGID_35_" x="73.5" y="806.1" width="164" height="164"/>
			</defs>
			<clipPath id="SVGID_36_">
				<use xlink:href="#SVGID_35_"  style="overflow:visible;"/>
			</clipPath>
			<g class="st39">
				<path class="st40" d="M237.5,970.1V961c0-15.1-12.2-27.3-27.3-27.3h-72.9c-15.1,0-27.3,12.2-27.3,27.3v9.1L237.5,970.1z"/>
				<path class="st41" d="M153.9,933.8c0,13,39.7,13.5,39.7,0v-17.1h-39.7V933.8z"/>
				<path class="st42" d="M153.8,924.4c5.5,6.3,12.4,8,19.9,8s14.3-1.7,19.9-8v-15.9h-39.8V924.4z"/>
				<path class="st41" d="M143.9,878.7c0,6.6-3.3,11.9-7.5,11.9s-7.5-5.3-7.5-11.9s3.3-12,7.5-12S143.9,872,143.9,878.7
					 M218.5,878.7c0,6.6-3.3,11.9-7.5,11.9s-7.5-5.3-7.5-11.9s3.3-12,7.5-12S218.5,872,218.5,878.7"/>
				<path class="st41" d="M134.9,883.3c0-25.5,17.4-46.1,38.8-46.1s38.8,20.6,38.8,46.1s-17.4,46.1-38.8,46.1
					S134.9,908.8,134.9,883.3"/>
				<path class="st34" d="M173.7,914.5c-12.5,0-16.4-3.2-17-3.9c-1.1-1.3-0.9-3.2,0.4-4.2c1.1-0.9,2.6-0.9,3.7-0.1
					c0.2,0.2,3.3,2.2,12.9,2.2c10,0,12.9-2.2,12.9-2.2c1.1-1.1,3-1.1,4.1,0h0.1c1.2,1.2,1.2,3.1,0,4.2l0,0c-0.6,0.7-4.5,3.9-17,3.9"
					/>
				<path class="st26" d="M173.7,822c25.7,0,41.8,19,41.8,34.8s-3.2,22.2-6.4,15.8l-6.4-12.6c0,0-19.3,0-25.7-6.3c0,0,9.6,19-9.6,0
					c0,0,3.2,12.7-16.1-3.2c0,0-9.6,6.3-12.9,22.2c-0.9,4.4-6.4,0-6.4-15.8S144.8,822,173.7,822"/>
				<path class="st43" d="M155.5,883.5c-2.5,0-4.5-2.1-4.5-4.5v-4.5c0.1-2.5,2.2-4.5,4.7-4.4c2.4,0.1,4.3,1.9,4.4,4.3v4.7
					C160.1,881.5,158.1,883.5,155.5,883.5 M192,883.6c-2.5,0-4.5-2-4.6-4.6v-4.5c-0.1-2.5,1.8-4.7,4.3-4.8c2.5-0.1,4.7,1.8,4.8,4.3
					l0,0c0,0.1,0,0.3,0,0.4v4.5C196.5,881.5,194.5,883.5,192,883.6"/>
				<path class="st34" d="M177.1,896.1h-6.8c-1.9-0.1-3.3-1.7-3.2-3.6c0.1-1.7,1.5-3.1,3.2-3.2h6.8c1.9-0.2,3.6,1.2,3.8,3.1
					c0.2,1.9-1.2,3.6-3.1,3.8c-0.1,0-0.2,0-0.2,0L177.1,896.1"/>
				<path class="st44" d="M132.7,933.6h13.7v36.4h-13.7V933.6z M201.1,933.6h13.7v36.4h-13.7V933.6z"/>
				<polygon class="st44" points="210.2,947.3 137.3,947.3 133.3,970.1 214.7,970.1 				"/>
				<path class="st45" d="M215,849.4c0,6-18.6,0-41,0s-41,6-41,0c0-16.2,4.6-38.7,41-38.7C205.9,810.7,215,833.2,215,849.4"/>
				<path class="st44" d="M133.2,849.4c0,0-2.2,13.6,6.8,13.6c4.6,0,11.4-9.1,34.2-9.1s29.6,9.1,34.2,9.1c9.1,0,6.8-13.7,6.8-13.7
					s-6.8,2.3-41,2.3S133.2,849.3,133.2,849.4"/>
				<path class="st46" d="M133,847.1c0,0-2.3,13.7,6.8,13.7c4.6,0,11.4-9.1,34.2-9.1s29.6,9.1,34.2,9.1c9.1,0,6.8-13.7,6.8-13.7
					s-6.8,2.3-41,2.3S133,847.1,133,847.1"/>
				<path class="st44" d="M167.1,812.9c0,0,0-6.8,6.8-6.8s6.8,6.8,6.8,6.8H167.1z"/>
				<path class="st47" d="M199.9,954.1c5.6,0,10.2,2.5,10.2,5.7s-4.6,5.7-10.2,5.7s-10.2-2.6-10.2-5.7S194.3,954.1,199.9,954.1"/>
				<path class="st48" d="M105.4,894.8v20.1c0,2.5-4.6,4.6-10.2,4.6s-10.2-2-10.2-4.5v-20.1c-10.5,5.7-14.5,18.8-8.8,29.3
					s18.8,14.5,29.3,8.8c10.5-5.7,14.5-18.8,8.8-29.3C112.2,900,109.1,896.9,105.4,894.8"/>
				<rect x="88.3" y="930.9" class="st48" width="13.7" height="39.2"/>
			</g>
		</g>
	</g>
</g>
<g>
	<defs>
		<rect id="SVGID_37_" x="382.2" y="807.7" width="130" height="162.4"/>
	</defs>
	<clipPath id="SVGID_38_">
		<use xlink:href="#SVGID_37_"  style="overflow:visible;"/>
	</clipPath>
	<g class="st49">
		<g>
			<defs>
				<rect id="SVGID_39_" x="382.2" y="807.7" width="130" height="162.4"/>
			</defs>
			<clipPath id="SVGID_40_">
				<use xlink:href="#SVGID_39_"  style="overflow:visible;"/>
			</clipPath>
			<g class="st50">
				<path class="st45" d="M512.3,970.1v-18.6c0-15.4-12.5-27.9-27.9-27.9h-74.3c-15.4,0-27.9,12.5-27.9,27.9v18.6H512.3z"/>
				<polygon class="st51" points="428.7,923.6 447.2,946.9 465.8,923.6 465.8,905.1 428.7,905.1 				"/>
				<path class="st52" d="M428.7,914.3c5.6,6.4,10.9,8,18.6,8s12.9-1.6,18.6-8v-18.6h-37.1V914.3z"/>
				<path class="st53" d="M464,809.2c-8.9-2.9-30-2.1-35.2,4.7c-13.7,0.3-29.7,12.6-31.8,28.9c-2.1,16.1,2.5,23.6,4.2,35.8
					c1.9,13.8,9.6,18.1,15.8,20c8.9,11.7,18.3,11.2,34.2,11.2c31,0,45.7-20.7,47-56C499,832.6,486.5,816.5,464,809.2"/>
				<path class="st51" d="M481.7,855.5c-3-4.2-6.8-7.5-15.2-8.7c3.2,1.4,6.2,6.4,6.6,9.2s0.8,5-1.7,2.2c-10-11.1-20.9-6.7-31.7-13.5
					c-7.5-4.7-9.8-9.9-9.8-9.9s-0.9,7-12.4,14.1c-3.3,2.1-7.3,6.6-9.5,13.4c-1.6,4.9-1.1,9.2-1.1,16.6c0.1,22,17.9,39.7,39.8,39.8
					c22,0,39.8-18.3,39.8-39.8C486.5,865.4,485.1,860.2,481.7,855.5"/>
				<path class="st34" d="M451.1,890h-8.9c-1.2-0.1-2.1-1.1-2.1-2.4c0.1-1.1,1-2,2.1-2.1h8.9c1.2-0.1,2.3,0.8,2.4,2.1
					s-0.8,2.3-2.1,2.4H451.1"/>
				<path class="st43" d="M429,874.5c-2.4,0-4.4-2-4.4-4.4l0,0v-4.4c0.1-2.4,2.2-4.3,4.6-4.2c2.3,0.1,4.1,1.9,4.2,4.2v4.4
					C433.4,872.5,431.4,874.5,429,874.5 M464.4,874.5c-2.4,0-4.4-2-4.4-4.4v-4.4c-0.1-2.4,1.8-4.5,4.2-4.6s4.5,1.8,4.6,4.2
					c0,0,0,0,0,0c0,0.1,0,0.3,0,0.4v4.4C468.8,872.5,466.9,874.5,464.4,874.5"/>
				<path class="st34" d="M447.2,908.5c-12.8,0-16.7-3.3-17.4-3.9c-1.2-1.2-1.3-3.1-0.1-4.3s3.1-1.3,4.3-0.1
					c0.2,0.2,3.4,2.3,13.2,2.3c10.2,0,13.2-2.2,13.2-2.3c1.2-1.1,3-1.1,4.2,0l0,0.1c1.2,1.2,1.1,3.2-0.1,4.3
					C464,905.2,460,908.4,447.2,908.5"/>
				<path class="st26" d="M410.1,953.8h-9.3c0-19,8.7-39.5,27.9-39.5v9.3C414,923.6,410.1,943.4,410.1,953.8 M489,935.2h-9.3
					c0-1.9-2.4-11.6-13.9-11.6v-9.3C482.2,914.3,489,928,489,935.2"/>
				<path class="st40" d="M405.5,939.9c7.7,0,13.9,6.2,13.9,13.9c0,7.7-6.2,13.9-13.9,13.9c-7.7,0-13.9-6.2-13.9-13.9l0,0l0,0
					C391.5,946.1,397.8,939.9,405.5,939.9L405.5,939.9"/>
				<path class="st47" d="M405.5,944.5c5.1,0,9.3,4.2,9.3,9.3c0,5.1-4.2,9.3-9.3,9.3c-5.1,0-9.3-4.2-9.3-9.3l0,0l0,0
					C396.2,948.7,400.3,944.5,405.5,944.5"/>
				<path class="st26" d="M503,960.8h-9.3c0-3.9-0.5-23.2-10.5-23.2s-10.5,19.3-10.5,23.2h-9.3c0-20.3,7.4-32.5,19.7-32.5
					S503,940.4,503,960.8"/>
				<path class="st40" d="M468.1,956.1c2.6,0,4.7,2.1,4.7,4.6c0,2.6-2.1,4.7-4.6,4.7s-4.7-2.1-4.7-4.6l0,0l0,0
					C463.5,958.2,465.6,956.2,468.1,956.1L468.1,956.1L468.1,956.1"/>
				<path class="st40" d="M498.3,956.1c2.6,0,4.7,2.1,4.7,4.6c0,2.6-2.1,4.7-4.6,4.7s-4.7-2.1-4.7-4.6l0,0l0,0
					C493.7,958.2,495.8,956.2,498.3,956.1L498.3,956.1L498.3,956.1"/>
			</g>
		</g>
	</g>
</g>
<g>
	<defs>
		<rect id="SVGID_41_" x="498" y="814.7" width="155.3" height="155.3"/>
	</defs>
	<clipPath id="SVGID_42_">
		<use xlink:href="#SVGID_41_"  style="overflow:visible;"/>
	</clipPath>
	<g class="st54">
		<g>
			<defs>
				<rect id="SVGID_43_" x="498" y="814.7" width="155.3" height="155.3"/>
			</defs>
			<clipPath id="SVGID_44_">
				<use xlink:href="#SVGID_43_"  style="overflow:visible;"/>
			</clipPath>
			<g class="st55">
				<path class="st56" d="M631.7,933.7c-4.1-1.6-8.5-2.5-12.9-2.5H567c-4.4,0-8.9,0.9-13,2.5c-9.5,3.7-17.2,11.3-17.2,21.3v15.1H649
					V955C649,945,641.3,937.4,631.7,933.7"/>
				<path class="st44" d="M618.8,931.2v32.4H567v-32.4c-4.5,0-8.9,0.9-13,2.5v36.3h77.7v-36.3C627.5,932.1,623.2,931.3,618.8,931.2"
					/>
				<polygon class="st57" points="575.6,931.2 610.2,931.2 592.9,961.5 				"/>
				<path class="st53" d="M592.7,836.6c17.7,0,47.2,8.9,47.2,47.2s0,47.2-8.8,47.2s-20.7-8.9-38.4-8.9s-29.3,8.9-38.4,8.9
					c-9.9,0-8.9-35.4-8.9-47.2C545.4,845.5,575,836.6,592.7,836.6"/>
				<path class="st51" d="M577,931.3c6.3,4.6,12.8,4.2,15.8,4.2s9.5,0.4,15.8-4.2v-13.8H577V931.3z"/>
				<path class="st52" d="M577,923.4c4.4,5,9.9,6.3,15.8,6.3s11.4-1.4,15.8-6.3v-12.7H577V923.4z"/>
				<path class="st51" d="M557.2,882.6c0-25.2,15.9-45.6,35.4-45.6s35.4,20.4,35.4,45.6s-15.9,44.4-35.4,44.4
					S557.2,907.7,557.2,882.6"/>
				<path class="st58" d="M592.7,916.3c-6.9,0-10.6-3.4-11-3.8c-1-1.4-0.6-3.2,0.7-4.2c1-0.7,2.4-0.7,3.4,0c0.2,0.1,2.4,2.1,6.8,2.1
					s6.7-2,6.8-2.1c1.2-1.1,3-1.1,4.2,0.1c1.1,1.1,1.1,3,0,4.1C603.2,912.9,599.6,916.3,592.7,916.3"/>
				<path class="st53" d="M548.6,896.7c-0.1-4.3-0.2-1-0.2-2c0-14.8,8.9,2.1,8.9-8.4s5.9-11.6,11.8-17.5c3-3,8.9-8.8,8.9-8.8
					s14.8,8.9,26.6,8.9s23.6,5.9,23.6,17.8s8.8-6.8,8.8,7.9c0,1.1-0.1-2.3-0.2,2h3.1v-13.8c0-38.4-29.5-46.3-47.2-46.3
					s-47.2,7.7-47.2,46.1c0,3.4-0.1,5.4,0,14.1L548.6,896.7z"/>
				<path class="st43" d="M578.3,891.9c-2,0-3.6-1.6-3.7-3.7v-3.7c0.1-2,1.8-3.6,3.8-3.5c1.9,0.1,3.4,1.6,3.5,3.5l0,0v3.7
					C581.9,890.3,580.3,891.9,578.3,891.9 M607.5,891.9c-2,0-3.6-1.6-3.7-3.7v-3.7c0-2,1.6-3.6,3.7-3.6c2,0,3.6,1.6,3.6,3.6v3.7
					C611.1,890.3,609.5,891.9,607.5,891.9C607.5,891.9,607.5,891.9,607.5,891.9L607.5,891.9"/>
				<path class="st34" d="M596.5,903.2h-7.3c-1,0-1.8-0.8-1.8-1.8v-0.7c0-1,0.8-1.8,1.8-1.8c0,0,0,0,0,0h7.3c1,0,1.8,0.8,1.8,1.8
					v0.7C598.3,902.4,597.5,903.2,596.5,903.2 M528.2,951.7c0-3-2.3-5.4-5.3-5.5s-5.4,2.3-5.5,5.3l0,0l0,0v18.5h10.8V951.7z"/>
				<path class="st48" d="M544.3,873c-1.8,0-3.2,1.5-3.2,3.2V913c0,8.9-6.4,16.4-15.1,18v-54.7c0-1.8-1.5-3.2-3.2-3.2
					c-1.8,0-3.2,1.4-3.2,3.2V931c-8.7-1.6-15.1-9.1-15.1-18v-36.8c0.1-1.8-1.3-3.3-3.1-3.4c-1.8-0.1-3.3,1.3-3.4,3.1l0,0
					c0,0.1,0,0.2,0,0.4v36.7c0,12.4,9.2,23,21.6,24.6v11c0,1.8,1.5,3.2,3.2,3.2c1.8,0,3.2-1.4,3.2-3.2v-11
					c12.3-1.6,21.6-12.1,21.6-24.6v-36.7C547.6,874.4,546.1,873,544.3,873"/>
				<path class="st34" d="M627.4,852.7c0,5.7-13.3,9.5-34.5,9.5s-34.5-3.8-34.5-9.5c0-15.3,17.3-38,23-38s9.6,7.6,11.5,7.6
					s5.8-7.6,11.5-7.6S627.4,837.4,627.4,852.7"/>
				<path class="st34" d="M653.3,849.3c0,7.2-15.1,25.9-60.4,25.9s-60.4-18.7-60.4-25.9s29.4-4.3,60.4-4.3S653.3,842.2,653.3,849.3"
					/>
				<path class="st26" d="M627.4,852.7c0,5.7-13.3,9.5-34.5,9.5s-34.5-3.8-34.5-9.5c0-2.6,0.4-5.2,1.2-7.8c10.3,8.6,56.3,8.6,66.6,0
					C627,847.5,627.4,850.1,627.4,852.7"/>
				<path class="st51" d="M564.6,883.5c0,6.2-3.2,11.3-7.1,11.3s-7.1-5.1-7.1-11.3s3.2-11.3,7.1-11.3S564.6,877.2,564.6,883.5
					 M635.3,883.5c0,6.2-3.2,11.3-7.1,11.3s-7.1-5.1-7.1-11.3s3.2-11.3,7.1-11.3S635.3,877.2,635.3,883.5"/>
			</g>
		</g>
	</g>
</g>
<g>
	<defs>
		<rect id="SVGID_45_" x="639.7" y="818.6" width="154.6" height="151.5"/>
	</defs>
	<clipPath id="SVGID_46_">
		<use xlink:href="#SVGID_45_"  style="overflow:visible;"/>
	</clipPath>
	<g class="st59">
		<g>
			<defs>
				<rect id="SVGID_47_" x="639.7" y="818.6" width="154.6" height="151.5"/>
			</defs>
			<clipPath id="SVGID_48_">
				<use xlink:href="#SVGID_47_"  style="overflow:visible;"/>
			</clipPath>
			<g class="st60">
				<g>
					<defs>
						<rect id="SVGID_49_" x="639.7" y="818.6" width="154.6" height="151.5"/>
					</defs>
					<clipPath id="SVGID_50_">
						<use xlink:href="#SVGID_49_"  style="overflow:visible;"/>
					</clipPath>
					<g class="st61">
						<path class="st40" d="M794.3,970.1v-17.2c0-14.2-11.5-25.8-25.8-25.8l0,0h-68.7c-14.2,0-25.8,11.5-25.8,25.8c0,0,0,0,0,0l0,0
							v17.2H794.3z"/>
						<polygon class="st62" points="717,931.4 734.2,948.6 751.4,931.4 751.4,910 717,910 						"/>
						<path class="st63" d="M717,918.5c5.2,5.9,10.1,7.4,17.2,7.4s12-1.5,17.2-7.4v-17.2H717V918.5z"/>
						<path class="st64" d="M749.6,820.1c-8.3-2.7-27.7-1.9-32.6,4.4c-12.6,0.2-27.5,11.7-29.4,26.8c-1.9,14.9,2.4,21.8,3.9,33.1
							c1.7,12.7,8.9,16.8,14.6,18.5c8.2,10.9,17,10.4,31.6,10.4c28.7,0,42.3-19.2,43.5-51.7C782,841.7,770.4,826.8,749.6,820.1"/>
						<path class="st62" d="M766,862.8c-2.8-3.8-6.3-6.9-14.1-8c2.9,1.3,5.7,6,6.1,8.5s0.7,4.6-1.6,2.1
							c-9.2-10.2-19.3-6.2-29.3-12.5c-7-4.4-9.1-9.2-9.1-9.2s-0.8,6.5-11.4,13c-3.1,1.9-6.7,6.1-8.8,12.4c-1.5,4.5-1,8.5-1,15.4
							c0,20.3,16.5,36.8,36.9,36.8c20.3,0,36.8-16.5,36.8-36.8C770.5,872,769.2,867.2,766,862.8"/>
						<path class="st65" d="M737.8,894.7h-8.2c-1.1,0-2.1-0.9-2.1-2c0-1.1,0.9-2.1,2-2.1c0,0,0,0,0,0h8.2c1.1,0,2,0.9,2,2
							S738.9,894.7,737.8,894.7"/>
						<path class="st43" d="M717.3,880.4c-2.3,0-4.1-1.8-4.1-4.1v0l0,0v-4.1c0-2.3,1.8-4.1,4.1-4.1c2.3,0,4.1,1.8,4.1,4.1v4.1
							C721.4,878.6,719.5,880.4,717.3,880.4L717.3,880.4L717.3,880.4 M750,880.4c-2.3,0-4.1-1.8-4.1-4.1v0l0,0v-4.1
							c0-2.3,1.8-4.1,4-4.2c2.3,0,4.1,1.8,4.2,4v4.2C754.1,878.6,752.3,880.4,750,880.4L750,880.4L750,880.4"/>
						<path class="st65" d="M734.2,911.8c-11.8,0-15.5-3-16.1-3.6c-1.1-1.1-1.2-2.8-0.1-4c1.1-1.1,2.8-1.2,4-0.1
							c0.2,0.2,3.1,2.1,12.2,2.1c9.5,0,12.2-2.1,12.2-2.1c1.1-1.1,2.8-1.1,3.9,0h0.1c1.1,1.1,1,2.9-0.1,4
							C749.7,908.7,746,911.7,734.2,911.8"/>
						<path class="st48" d="M721.6,970.1l-4.6-39.6c4.5,4.6,10.7,7.2,17.2,7.1c6.7,0,13.2-2.6,18.1-7.1l-5.3,39.6H721.6z"/>
						<path class="st47" d="M717.4,923.9c2.4,2.4,12.5,46.2,12.5,46.2h-13.5l-7.3-11l7.3-12.2l-8.7-2.7l1.1-17
							C708.8,927.2,716.2,922.8,717.4,923.9 M751,923.9c-2.4,2.4-12.5,46.2-12.5,46.2H752l7.3-11l-7.3-12.2l8.7-2.7l-1.1-17
							C759.6,927.2,752.1,922.8,751,923.9"/>
					</g>
				</g>
			</g>
		</g>
	</g>
</g>
<g>
	<defs>
		<rect id="SVGID_51_" x="639.7" y="818.6" width="154.6" height="151.5"/>
	</defs>
	<clipPath id="SVGID_52_">
		<use xlink:href="#SVGID_51_"  style="overflow:visible;"/>
	</clipPath>
	<g class="st66">
		<g>
			<defs>
				<rect id="SVGID_53_" x="639.7" y="818.6" width="154.6" height="151.5"/>
			</defs>
			<clipPath id="SVGID_54_">
				<use xlink:href="#SVGID_53_"  style="overflow:visible;"/>
			</clipPath>
			<g class="st67">
				<g>
					<defs>
						<rect id="SVGID_55_" x="639.7" y="818.6" width="154.6" height="151.5"/>
					</defs>
					<clipPath id="SVGID_56_">
						<use xlink:href="#SVGID_55_"  style="overflow:visible;"/>
					</clipPath>
					<g class="st68">
						<g class="st69">
							<g>
								<defs>
									<rect id="SVGID_57_" x="703" y="861" width="63" height="24"/>
								</defs>
								<clipPath id="SVGID_58_">
									<use xlink:href="#SVGID_57_"  style="overflow:visible;"/>
								</clipPath>
								<g class="st70">
									<g>
										<defs>
											<rect id="SVGID_59_" x="703.1" y="861.6" width="62.3" height="22.5"/>
										</defs>
										<clipPath id="SVGID_60_">
											<use xlink:href="#SVGID_59_"  style="overflow:visible;"/>
										</clipPath>
										<g class="st71">
											<rect x="703.1" y="861.6" class="st3" width="62.3" height="22.5"/>
										</g>
									</g>
								</g>
							</g>
						</g>
						<path class="st47" d="M764.3,858.4h-60.1c-4.3,0-4.3,4.3-4.3,4.3v17.2c0,6.3,10,8.6,17.2,8.6s11.2-4.3,17.2-4.3
							s10,4.3,17.2,4.3s17.2-2.3,17.2-8.6v-17.2C768.5,858.4,764.3,858.4,764.3,858.4 M764.3,875.6c0,5.7-3.7,8.6-12.9,8.6
							c-6.6,0-12-4.3-17.2-4.3s-10.6,4.3-17.2,4.3c-9.2,0-12.9-2.9-12.9-8.6v-12.9h60.1V875.6z"/>
						<path class="st72" d="M669.8,858.4c2.4,0,4.3,1.9,4.3,4.3s-1.9,4.3-4.3,4.3s-4.3-1.9-4.3-4.3l0,0l0,0
							C665.5,860.3,667.4,858.4,669.8,858.4"/>
						<path class="st72" d="M678.4,879.9c2.4,0,4.3,1.9,4.3,4.3c0,2.4-1.9,4.3-4.3,4.3c-2.4,0-4.3-1.9-4.3-4.3l0,0l0,0
							C674,881.8,676,879.9,678.4,879.9L678.4,879.9L678.4,879.9"/>
						<path class="st72" d="M663.3,871.3c3.6,0,6.5,2.9,6.5,6.4c0,3.6-2.9,6.5-6.4,6.5c-3.6,0-6.5-2.9-6.5-6.4l0,0l0,0
							C656.9,874.2,659.8,871.3,663.3,871.3L663.3,871.3L663.3,871.3"/>
						<path class="st73" d="M682.7,892.8h-21.5c0,0-8.6,0-8.6,8.6s8.6,8.6,8.6,8.6v21.5L644,952.9c-3.8,4.7-4.3,7.8-4.3,8.6
							c0,8.6,8.6,8.6,8.6,8.6h47.2c0,0,8.6,0,8.6-8.6c0-0.6,0.7-2.4-4.3-8.6l-17.2-21.5V910c0,0,8.6,0,8.6-8.6
							S682.7,892.8,682.7,892.8"/>
						<path class="st74" d="M678.4,932.9v-27.3h4.3c1.9,0,4.3-0.8,4.3-4.3s-2.3-4.2-4.3-4.3h-21.4c-1.9,0-4.3,0.8-4.3,4.3
							s2.4,4.2,4.3,4.3l4.2,0.1l0.1,27.2l-8.1,10.2l14.6,15l14.6-15L678.4,932.9z"/>
						<path class="st72" d="M644,961.6c0,3.3,2.4,4.1,4.3,4.2h47.2c1.9,0,4.3-0.8,4.3-4.3V961c0,0-0.2-1.4-3.4-5.4l-10-12.5h-29.1
							l-10,12.5C644.2,959.5,644,961.6,644,961.6"/>
					</g>
				</g>
			</g>
		</g>
	</g>
</g>
<g>
	<defs>
		<rect id="SVGID_61_" x="761.6" y="814.1" width="156.2" height="156"/>
	</defs>
	<clipPath id="SVGID_62_">
		<use xlink:href="#SVGID_61_"  style="overflow:visible;"/>
	</clipPath>
	<g class="st75">
		<g>
			<defs>
				<rect id="SVGID_63_" x="761.6" y="814.1" width="156.2" height="156"/>
			</defs>
			<clipPath id="SVGID_64_">
				<use xlink:href="#SVGID_63_"  style="overflow:visible;"/>
			</clipPath>
			<g class="st76">
				<g>
					<defs>
						<rect id="SVGID_65_" width="1024" height="1024"/>
					</defs>
					<clipPath id="SVGID_66_">
						<use xlink:href="#SVGID_65_"  style="overflow:visible;"/>
					</clipPath>
					<g class="st77">
						<path class="st74" d="M917.8,970.1v-8.8c0-14.5-11.7-26.2-26.2-26.2h-70c-14.5,0-26.2,11.7-26.2,26.2l0,0v8.8L917.8,970.1z"/>
						<path class="st26" d="M892.5,935.4c0,6.6-16.1,11.9-35.9,11.9s-35.9-5.3-35.9-11.9s16.1-11.9,35.9-11.9
							S892.5,928.8,892.5,935.4"/>
						<path class="st78" d="M890.7,935.6c0,6-15.3,10.6-34.1,10.6s-34.1-4.6-34.1-10.6c0-0.3,0.1-0.6,0.1-0.6h-3.2l-3.1,0.4v4.5
							c0.5,10.5,18.3,14.8,40.2,14.8s39.6-4.4,40.2-14.9l0.1-4.3C896.8,935.7,890.6,935.4,890.7,935.6"/>
						<path class="st79" d="M856.5,920.4c-22.2,0-40.3,6.7-40.3,15s18,15,40.3,15s40.3-6.7,40.3-15S878.8,920.4,856.5,920.4"/>
						<path class="st26" d="M856.5,946.2c-18.8,0-34.1-4.8-34.1-10.8s15.3-10.8,34.1-10.8s34.1,4.8,34.1,10.8
							S875.4,946.2,856.5,946.2"/>
						<path class="st80" d="M837.5,934.8c7.6,5.5,12.5,6.6,19.1,6.6s11.4-1.1,19.1-6.6v-16.7h-38.1V934.8z"/>
						<path class="st81" d="M837.5,926.2c5.3,6,11.9,7.6,19.1,7.6s13.8-1.6,19.1-7.6V911h-38.2L837.5,926.2L837.5,926.2z"/>
						<path class="st80" d="M827.9,882.3c0,6.3-3.2,11.5-7.2,11.5s-7.2-5.1-7.2-11.5s3.2-11.5,7.2-11.5S827.9,876,827.9,882.3
							 M899.5,882.3c0,6.3-3.2,11.5-7.2,11.5s-7.2-5.1-7.2-11.5s3.2-11.5,7.2-11.5S899.5,876,899.5,882.3"/>
						<path class="st80" d="M819.3,886.8c0-24.4,16.7-44.3,37.3-44.3s37.3,19.8,37.3,44.3s-16.7,44.3-37.3,44.3
							S819.3,911.2,819.3,886.8"/>
						<path class="st82" d="M856.5,916.7c-12,0-15.7-3.1-16.4-3.7c-1.1-1.1-1.1-2.9,0-4.1c1.1-1.1,2.8-1.1,3.9-0.1
							c0.2,0.2,3.2,2.1,12.4,2.1c9.6,0,12.4-2.1,12.4-2.1c1.1-1.1,2.9-1.1,3.9,0c0,0,0,0,0,0l0,0c1.1,1.2,1.1,3-0.1,4.1
							C872.2,913.6,868.6,916.6,856.5,916.7"/>
						<path class="st83" d="M856.5,827.9c24.7,0,40.1,18.2,40.1,33.4s-3.1,21.3-6.2,15.2l-6.2-12.2c0,0-18.5,0-24.7-6.1
							c0,0,9.3,18.2-9.3,0c0,0,3.1,12.2-15.4-3c0,0-9.3,6.1-12.3,21.3c-0.8,4.2-6.2,0-6.2-15.2S828.8,827.9,856.5,827.9"/>
						<path d="M839.1,887c-2.4,0-4.4-2-4.4-4.4v-4.4c0-2.4,2-4.4,4.4-4.4c2.4,0,4.4,2,4.4,4.4c0,0,0,0,0,0l0,0v4.4
							C843.4,885.1,841.5,887,839.1,887 M874.1,887c-2.4,0-4.4-2-4.4-4.4v-4.4c0.1-2.4,2.2-4.3,4.6-4.2c2.3,0.1,4.1,1.9,4.2,4.2v4.4
							C878.4,885.1,876.4,887,874.1,887"/>
						<path class="st82" d="M859.8,899h-6.6c-1.8,0-3.3-1.5-3.3-3.3c0-1.8,1.5-3.3,3.3-3.3h6.6c1.8,0,3.3,1.4,3.3,3.2
							c0,1.8-1.4,3.3-3.2,3.3H859.8"/>
						<path class="st46" d="M904.7,957v13.1h13.1v-8.8c0-1.5-0.1-2.9-0.4-4.4H904.7z"/>
						<rect x="909" y="961.3" class="st84" width="8.8" height="8.8"/>
						<path class="st74" d="M865.3,970.1c-5.2-22.5-26.5-39.4-51.9-39.4s-46.6,16.9-51.8,39.4H865.3z"/>
						<path class="st26" d="M859.5,970.1c-5.1-19.5-23.8-34-46-34s-40.9,14.5-46,34H859.5z"/>
						<path class="st85" d="M855,970.1c-5-17.2-21.7-29.9-41.5-29.9S777,952.8,772,970.1H855z"/>
						<path class="st86" d="M839.9,965.9l0.5-0.3c2.9-1.8,3.9-5.6,2.1-8.5c-0.2-0.4-0.5-0.7-0.8-1.1c-2.1-2.1-4.3-4-6.8-5.5
							c-2.4-1.5-5.1-2.7-7.8-3.6c-3.3-1.1-6.8,0.6-7.9,3.9c0,0,0,0,0,0l0,0c-0.1,0.3-0.2,0.6-0.2,0.9c-0.6,2.9,1,5.8,3.7,6.9
							c3.7,1.4,7.1,3.6,9.8,6.4C834.4,967.1,837.5,967.4,839.9,965.9"/>
						<path class="st72" d="M788.1,875l-6.8-2.5l-2.6-9.6c-0.4-1.6-2-2.5-3.6-2c-1,0.3-1.8,1-2,2l-2.6,9.6l-6.8,2.5
							c-1.5,0.6-2.3,2.2-1.7,3.7c0,0,0,0,0,0c0.3,0.8,0.9,1.4,1.7,1.7l6.7,2.5l2.7,10.6c0.4,1.6,2,2.5,3.5,2.1
							c1-0.3,1.9-1.1,2.1-2.1l2.6-10.5l6.7-2.5c1.5-0.6,2.3-2.2,1.7-3.8C789.5,876,788.9,875.3,788.1,875"/>
						<path class="st22" d="M809.7,832.9l-11.4-4.2l-4.3-11.4c-1-2.5-3.8-3.7-6.3-2.7c-1.3,0.5-2.3,1.5-2.7,2.7l-4.2,11.4l-11.4,4.2
							c-2.5,0.9-3.8,3.7-2.9,6.2c0.5,1.3,1.5,2.4,2.9,2.9l11.4,4.2l4.2,11.4c1,2.5,3.8,3.7,6.3,2.7c1.3-0.5,2.3-1.5,2.7-2.7
							l4.2-11.4l11.4-4.2c2.5-1,3.7-3.8,2.7-6.3C811.9,834.5,810.9,833.5,809.7,832.9"/>
					</g>
				</g>
			</g>
		</g>
	</g>
</g>
<path class="st87" d="M393.4,757.2c-1.7,0-3.5,0.1-5.2,0.2V754c-1.7,1-3.4,1.9-5.2,2.7c-0.9-1.8-1.9-3.5-3.2-5.1
	c4.2-1.5,8.1-3.7,11.6-6.3c1.9-1.5,3.7-3.2,5.3-5c1-1.1,1.8-2.2,2.6-3.5h6.1c2.3,3.3,5.2,6.2,8.5,8.5c3.6,2.6,7.6,4.7,11.8,6.1
	c-1.3,1.7-2.3,3.5-3.1,5.5c-2.2-1-3.5-1.8-5.7-3v3.5c-1.7-0.2-3.4-0.3-5.1-0.2H405v5.4h7.8c1.8,0,3.5-0.1,5.3-0.2v5.4
	c-1.8-0.2-3.5-0.3-5.3-0.2H405v6.4h12.5c2,0,4.1-0.1,6.1-0.3v5.6c-2-0.3-4-0.4-6-0.3h-30c-2,0-4,0.1-6,0.3v-5.6
	c2,0.2,4.1,0.3,6.1,0.3h11.9v-6.5h-7.1c-1.8,0-3.6,0.1-5.3,0.2v-5.4c1.8,0.2,3.5,0.3,5.3,0.2h7.1v-5.4L393.4,757.2z M412,752.3
	c1,0,1.3,0,2.2,0c-4.6-2.9-8.6-6.6-11.8-10.9c-2.8,4.1-6.2,7.4-11.6,10.9c1,0,1.4,0,2.1,0H412z"/>
<path class="st87" d="M430.1,743.6c0-1.9-0.1-3.9-0.3-5.8c1.9,0.2,3.8,0.3,5.7,0.2h30.3c1.9,0,3.8-0.1,5.7-0.2
	c-0.2,1.9-0.3,3.8-0.3,5.8v30.8c-0.1,2.1,0,4.1,0.3,6.2h-5.5v-2.7h-30.7v2.7h-5.5c0.2-2.1,0.3-4.2,0.3-6.2V743.6z M435.2,773.2h30.7
	v-30.5h-30.7V773.2z M442.5,750.2c-1.5,0-2.9,0-4.4,0.2v-4.9c1.4,0.2,2.9,0.3,4.4,0.2h16.3c1.5,0.1,3,0,4.5-0.2v4.8
	c-1.5-0.2-3-0.3-4.5-0.2h-6.1v5h4.9c1.4,0,2.8,0,4.1-0.2v4.8c-1-0.2-2-0.2-3.1-0.2c1.2,1.4,2.2,3,3,4.7l-2.6,1.4
	c1.6,0.1,3.1,0,4.7-0.3v5c-1.5-0.2-3-0.3-4.5-0.2h-17.4c-1.5,0-3,0-4.6,0.2v-5c1.5,0.2,3,0.3,4.6,0.3h5.8v-6.1h-4.1
	c-1.4,0-2.8,0-4.1,0.2V755c1.4,0.2,2.7,0.3,4.1,0.2h4.1v-5L442.5,750.2z M452.7,765.6h5.2c-0.8-1.7-1.8-3.3-3-4.8l2.5-1.3h-4.7
	L452.7,765.6z"/>
<path class="st87" d="M497.4,765.5c-2.7,6.2-5.8,9-9.8,9c-5.5,0-9.4-5.6-9.4-13.3c-0.1-5.2,1.8-10.2,5.3-14c4-4.4,9.7-6.7,16.5-6.7
	c11.5,0,19,7,19,17.8c0,8.3-4.3,14.9-11.7,17.9c-2.4,1-5,1.7-7.5,2c-0.6-2.1-1.6-4-2.9-5.6c4.4-0.6,7.3-1.3,9.5-2.6
	c4.3-2.5,6.8-7.1,6.7-12c0.2-4.4-2.1-8.5-5.9-10.7c-1.5-0.9-3.1-1.4-4.8-1.4C501.7,752.6,500,759.2,497.4,765.5z M490.3,748.3
	c-4.1,3-6.5,7.9-6.5,13c0,3.9,1.7,7.1,3.8,7.1c1.6,0,3.2-2,5-6.1c2-5.2,3.4-10.7,4-16.2C494.3,746.2,492.1,747,490.3,748.3z"/>
<rect class="st4" width="1024" height="1024"/>
<g>
	<defs>
		
			<rect id="SVGID_67_" x="821" y="270.4" transform="matrix(0.2904 -0.9569 0.9569 0.2904 315.986 1024.8134)" width="55.9" height="57.8"/>
	</defs>
	<clipPath id="SVGID_68_">
		<use xlink:href="#SVGID_67_"  style="overflow:visible;"/>
	</clipPath>
	<g class="st88">
		<g>
			<defs>
				
					<rect id="SVGID_69_" x="820.7" y="270.3" transform="matrix(0.29 -0.957 0.957 0.29 316.2148 1024.6039)" width="55.9" height="57.8"/>
			</defs>
			<clipPath id="SVGID_70_">
				<use xlink:href="#SVGID_69_"  style="overflow:visible;"/>
			</clipPath>
			<g class="st89">
				<g>
					<defs>
						<rect id="SVGID_71_" x="0" y="0" width="1024" height="1024"/>
					</defs>
					<clipPath id="SVGID_72_">
						<use xlink:href="#SVGID_71_"  style="overflow:visible;"/>
					</clipPath>
					<g class="st90">
						<path class="st22" d="M882,280.2l-35.7-6.5c-1.6-0.3-3.2,0.7-3.7,2.3l-8.8,28.9c-1.3-1-2.8-1.8-4.3-2.3
							c-5.9-1.8-12,0.9-13.6,6s2,10.7,8,12.5s12-0.9,13.5-6l8.6-28.4l28.6,5.2l-6.1,20.2c-1.3-1-2.8-1.8-4.3-2.3
							c-5.9-1.8-12,0.9-13.6,6s2,10.7,8,12.5s12-0.9,13.6-6l11.7-38.7c0.4-1.3-0.3-2.7-1.6-3.2C882.3,280.3,882.1,280.2,882,280.2"
							/>
					</g>
				</g>
			</g>
		</g>
	</g>
</g>
<rect class="st4" width="1024" height="1024"/>
<path class="st87" d="M543.1,741.7c0-1.8,0-3.5-0.3-5.3h6.1c-0.2,1.7-0.3,3.4-0.3,5.1v3.1h13.2c1.5,0,2.9,0,4.4-0.2
	c-0.1,1.4-0.2,2.8-0.2,4.2v14.7c0,1.6,0,3.2,0.2,4.8h-5.7v-2.9h-12v9.8c-0.1,2,0.1,4,0.3,6h-6.2c0.3-2,0.4-4,0.3-6v-9.8h-11.4v2.9
	H526c0.2-1.6,0.3-3.2,0.2-4.8v-14.8c0-1.4-0.1-2.8-0.2-4.2c1.4,0.1,2.9,0.2,4.3,0.2h12.7V741.7z M531.7,749.7v10.5h11.4v-10.5H531.7
	z M560.6,760.2v-10.5h-12v10.5H560.6z"/>
<path class="st87" d="M591.1,739.3c0-1-0.1-2-0.3-3h5.9c-0.2,1-0.3,2-0.3,3v0.6h14.2c1.7,0,3.4-0.1,5.1-0.3v4.9
	c-1.7-0.2-3.3-0.3-5-0.2h-33.4c-1.7,0-3.3,0-5,0.2v-4.9c1.7,0.2,3.5,0.3,5.3,0.3H591L591.1,739.3z M573.8,763c0-1.5,0-2.9-0.2-4.4
	c1.5,0.1,3,0.2,5,0.2h31.3c1.6,0,3.2,0,4.7-0.2c-0.1,1.4-0.2,2.9-0.2,4.3v12.3c0,2.4-0.2,3.3-1.2,4.2s-2.4,1.2-5.8,1.2
	c-1,0-1.2,0-2.8-0.1h-1.5c0-1.7-0.3-3.3-1.1-4.8c2.7,0.3,4.7,0.4,6.1,0.4c0.9,0,1.2-0.2,1.2-1V763h-30.4v12.8c0,1.8,0,3.6,0.3,5.3
	h-5.7c0.2-1.8,0.3-3.5,0.3-5.3L573.8,763z M579.8,749.4c0-1.2,0-2.4-0.1-3.5c1.6,0.1,3.1,0.2,4.7,0.2h20.1c1.4,0,2.9,0,4.3-0.2
	c-0.1,1.2-0.2,2-0.2,3.5v4.2c0,1.2,0,2.4,0.2,3.6c-1.5-0.2-3-0.2-4.5-0.2h-20c-1.5,0-3,0-4.5,0.2c0.1-1,0.1-1.9,0.1-3.6L579.8,749.4
	z M604.4,771.9c0,1.1,0,2.2,0.2,3.2c-0.9-0.1-2.7-0.1-4-0.1h-12.2v2.4h-5c0.2-1.3,0.2-2.6,0.2-3.9v-5.6c0-1.1,0-2.1-0.2-3.2
	c1.1,0.1,2.1,0.2,3.9,0.2h13.2c1.3,0,2.7,0,4-0.2c-0.1,1-0.2,2.1-0.2,3.1L604.4,771.9z M584.8,752.9h18.7v-3h-18.7L584.8,752.9z
	 M588.4,771.2h11.4v-2.7h-11.4L588.4,771.2z"/>
<path class="st87" d="M630.4,750.8c-1.7,3.7-3.9,7.1-6.6,10.2c-1-1.6-2.4-3-4-4.1c3.8-4,6.6-8.8,8.2-14.1c0.5-1.5,0.8-3,1.1-4.5
	l5.5,1.3c-0.1,0.4-0.3,0.9-0.4,1.3c-0.2,0.5-0.4,1-0.5,1.6c-0.2,0.7-0.7,1.9-1.3,3.6h7.9v-3.7c0-1.9-0.1-3.9-0.3-5.8h6.2
	c-0.2,1.9-0.3,3.8-0.3,5.7v3.7h10c2.5,0,4.5-0.1,6.5-0.3v5.3c-2.1-0.2-4.1-0.3-6.4-0.3h-10.1v8.9h8.4c2,0,4-0.1,5.9-0.3v5.3
	c-2-0.2-4-0.3-5.9-0.3h-8.4v10.2h11.6c2.2,0,4.5-0.1,6.7-0.3v5.5c-2.2-0.2-4.4-0.4-6.6-0.3H628c-2.3,0-4.6,0.1-6.8,0.3v-5.5
	c2.2,0.2,4.5,0.4,6.7,0.3h12.4v-10.2h-7.4c-2,0-3.9,0.1-5.8,0.3v-5.3c1.9,0.2,3.9,0.3,5.8,0.3h7.5v-8.9L630.4,750.8z"/>
<path class="st0" d="M1000.8,440.8c-0.3,0-0.5,0.2-0.6,0.4c-0.3,0.7-0.7,1.5-1.1,2.4c-1.4,3.2-3.1,7.2-5.2,9.6s-5.9,4.5-9,6.2
	c-0.8,0.5-1.6,0.9-2.3,1.3c-0.3,0.2-0.5,0.6-0.3,0.9c0,0,0,0,0,0c0,0,0,0,0,0.1c0.1,0.1,0.2,0.2,0.3,0.3c0.7,0.3,1.5,0.7,2.4,1.1
	c3.2,1.4,7.2,3.1,9.6,5.2s4.5,5.9,6.2,9c0.5,0.8,0.9,1.6,1.3,2.3c0.2,0.3,0.6,0.5,1,0.3c0,0,0,0,0,0l0,0c0.1-0.1,0.2-0.2,0.3-0.3
	c0.3-0.7,0.7-1.5,1.1-2.4c1.4-3.2,3.1-7.2,5.2-9.6s5.9-4.5,9-6.2c0.8-0.5,1.6-0.9,2.3-1.3c0.3-0.2,0.5-0.6,0.3-0.9c0,0,0,0,0,0v0
	c-0.1-0.1-0.2-0.2-0.3-0.3c-0.7-0.3-1.5-0.7-2.4-1.1c-3.2-1.4-7.2-3.1-9.6-5.2s-4.5-5.9-6.2-9c-0.5-0.8-0.9-1.6-1.3-2.3
	C1001.4,440.9,1001.1,440.7,1000.8,440.8z"/>
</svg>
