<svg id="レイヤー_1" data-name="レイヤー 1" xmlns="http://www.w3.org/2000/svg" xmlns:xlink="http://www.w3.org/1999/xlink" viewBox="0 0 1024 1024"><defs><style>.cls-1{fill:none;}.cls-2{clip-path:url(#clip-path);}.cls-3{fill:#f3ac00;}.cls-4{fill:#f2ab00;}.cls-5{fill:#124a83;}.cls-6{fill:#fff;}.cls-7{clip-path:url(#clip-path-5);}.cls-8{clip-path:url(#clip-path-6);}.cls-9{fill:#77b255;}.cls-10{fill:#553788;}.cls-11{fill:#9266cc;}.cls-12{fill:#aa8dd8;}.cls-13{fill:#744eaa;}.cls-14{clip-path:url(#clip-path-8);}.cls-15{clip-path:url(#clip-path-9);}.cls-16{fill:#c1694f;}.cls-17{fill:#a6d388;}.cls-18{fill:#c6e5b3;}.cls-19{fill:#292f33;}.cls-20{fill:#3d5fbf;}.cls-21{fill:#55acee;}.cls-22{clip-path:url(#clip-path-11);}.cls-23{clip-path:url(#clip-path-12);}.cls-24{fill:#5c913b;}.cls-25{fill:#be1931;}.cls-26{clip-path:url(#clip-path-14);}.cls-27{clip-path:url(#clip-path-15);}.cls-28{fill:#d99e82;}.cls-29{fill:#662113;}.cls-30{fill:#ffcc4d;}.cls-31{fill:#dd2e44;}.cls-32{fill:#ffe8b6;}.cls-33{clip-path:url(#clip-path-17);}.cls-34{clip-path:url(#clip-path-18);}.cls-35{fill:#edb97f;}.cls-36{fill:#ffd983;}.cls-37{fill:#ea596e;}.cls-38{fill:#e5a157;}.cls-39{clip-path:url(#clip-path-19);}.cls-40{clip-path:url(#clip-path-20);}.cls-41{clip-path:url(#clip-path-21);}.cls-42{clip-path:url(#clip-path-22);}.cls-43{fill:#ffac33;}.cls-44{fill:#f4900c;}.cls-45{fill:#d82068;}.cls-46{fill:#00a5ff;}.cls-47{clip-path:url(#clip-path-24);}.cls-48{clip-path:url(#clip-path-25);}.cls-49{fill:#eee;}.cls-50{fill:#ccd6dd;}</style><clipPath id="clip-path"><rect class="cls-1" width="1024" height="1024"/></clipPath><clipPath id="clip-path-5"><rect class="cls-1" x="598.78" y="241.66" width="222.46" height="228.83" transform="translate(-17.66 37.65) rotate(-3)"/></clipPath><clipPath id="clip-path-6"><rect class="cls-1" x="598.78" y="241.66" width="222.46" height="228.82" transform="translate(-17.66 37.65) rotate(-3)"/></clipPath><clipPath id="clip-path-8"><rect class="cls-1" x="799.19" y="501.84" width="99.58" height="94.19"/></clipPath><clipPath id="clip-path-9"><rect class="cls-1" x="799.19" y="501.84" width="99.58" height="94.19"/></clipPath><clipPath id="clip-path-11"><rect class="cls-1" x="919.17" y="615.43" width="73.49" height="85.34"/></clipPath><clipPath id="clip-path-12"><rect class="cls-1" x="919.17" y="615.43" width="73.49" height="85.34"/></clipPath><clipPath id="clip-path-14"><rect class="cls-1" x="758.15" y="22.87" width="235.1" height="239.5" transform="translate(461.11 927.04) rotate(-71.39)"/></clipPath><clipPath id="clip-path-15"><rect class="cls-1" x="758.16" y="22.87" width="235.1" height="239.5" transform="translate(461.11 927.04) rotate(-71.39)"/></clipPath><clipPath id="clip-path-17"><rect class="cls-1" x="879.39" y="726.41" width="98.93" height="94.19"/></clipPath><clipPath id="clip-path-18"><rect class="cls-1" x="879.39" y="726.41" width="98.93" height="94.19"/></clipPath><clipPath id="clip-path-19"><rect class="cls-1" x="627.84" y="151.89" width="95.29" height="95.29"/></clipPath><clipPath id="clip-path-20"><rect class="cls-1" x="627.84" y="151.89" width="95.29" height="95.29"/></clipPath><clipPath id="clip-path-21"><rect class="cls-1" x="875.71" y="324.36" width="94.18" height="94.18"/></clipPath><clipPath id="clip-path-22"><rect class="cls-1" x="875.71" y="324.36" width="94.18" height="94.18"/></clipPath><clipPath id="clip-path-24"><rect id="SVGID" class="cls-1" x="148.1" y="148.84" width="297.25" height="301.28" transform="translate(-12.92 585.57) rotate(-88)"/></clipPath><clipPath id="clip-path-25"><rect id="SVGID-2" data-name="SVGID" class="cls-1" x="148.1" y="148.83" width="297.25" height="301.28" transform="matrix(0.03, -1, 1, 0.03, -12.92, 585.57)"/></clipPath></defs><g class="cls-2"><polygon class="cls-3" points="538.45 -7 572.15 23.17 528.91 37.22 538.45 -7"/><polygon class="cls-3" points="692.24 42.72 704.84 86.16 660.72 75.16 692.24 42.72"/><polygon class="cls-3" points="978.32 86.16 1023.33 90.63 996.7 127.48 978.32 86.16"/><path class="cls-4" d="M230.59,55.77h-3.87V46.36h-9.38V42.52h9.38V33.4h3.87v9.12H240v3.84h-9.38Z"/><path class="cls-4" d="M551.33,98.15h-3.87V88.74h-9.37V84.9h9.37V75.78h3.87V84.9h9.38v3.84h-9.38Z"/><path class="cls-4" d="M830.4,24.33h-3.87v-9.4h-9.38V11.09h9.38V2h3.87v9.12h9.38v3.84H830.4Z"/><path class="cls-4" d="M1015.09,246.51h-3.87V237.1h-9.37v-3.84h9.37v-9.12h3.87v9.12h9.38v3.84h-9.38Z"/><path class="cls-4" d="M33.16,328.2H29.29v-9.4H19.92V315h9.37v-9.12h3.87V315h9.38v3.84H33.16Z"/><path class="cls-4" d="M56.51,115.61H52.64v-9.4H43.26v-3.84h9.38V93.25h3.87v9.12h9.37v3.84H56.51Z"/><path class="cls-4" d="M433.73,44.33h-3.87V34.92h-9.38V31.08h9.38V22h3.87v9.11h9.37v3.84h-9.37Z"/><path class="cls-4" d="M982.24,382.79h-3.87v-9.41H969v-3.84h9.38v-9.12h3.87v9.12h9.37v3.84h-9.37Z"/><path class="cls-3" d="M971.08,571.9a.87.87,0,0,0-.82.38c-.55.81-1.14,1.75-1.77,2.75-2.33,3.65-5.22,8.2-8.3,10.7s-8.12,4.37-12.18,5.88c-1.1.41-2.15.8-3.06,1.17a.87.87,0,0,0-.48,1.13.83.83,0,0,0,.32.4c.81.55,1.75,1.14,2.75,1.78,3.65,2.32,8.2,5.21,10.7,8.29s4.37,8.13,5.88,12.19c.41,1.1.8,2.14,1.17,3a.86.86,0,0,0,1.13.48.83.83,0,0,0,.4-.32c.55-.81,1.14-1.75,1.78-2.74,2.32-3.66,5.21-8.21,8.29-10.7s8.13-4.38,12.19-5.89c1.1-.41,2.14-.8,3-1.17a.86.86,0,0,0,.48-1.13.83.83,0,0,0-.32-.4c-.81-.54-1.75-1.14-2.74-1.77-3.66-2.33-8.21-5.22-10.7-8.3s-4.37-8.13-5.89-12.19c-.41-1.1-.8-2.14-1.16-3A.87.87,0,0,0,971.08,571.9Z"/><path class="cls-3" d="M40.32,456.63a.69.69,0,0,0-.6.41c-.33.71-.69,1.53-1.07,2.41-1.38,3.2-3.11,7.19-5.25,9.55s-5.91,4.5-8.95,6.23c-.83.46-1.61.9-2.29,1.31a.7.7,0,0,0,.07,1.24c.71.33,1.54.69,2.41,1.06,3.2,1.39,7.19,3.12,9.55,5.26s4.51,5.91,6.23,8.95c.46.83.9,1.61,1.31,2.29a.7.7,0,0,0,1.24-.07c.33-.71.69-1.54,1.06-2.41,1.39-3.2,3.12-7.19,5.26-9.56s5.92-4.5,9-6.22c.82-.46,1.6-.9,2.28-1.31a.7.7,0,0,0-.07-1.24c-.71-.33-1.53-.69-2.4-1.07-3.2-1.39-7.19-3.11-9.56-5.25s-4.5-5.92-6.22-9c-.47-.82-.91-1.6-1.31-2.28A.72.72,0,0,0,40.32,456.63Z"/><path class="cls-3" d="M893.84,744a.85.85,0,0,0-.81.38c-.55.81-1.15,1.75-1.78,2.74-2.33,3.66-5.22,8.21-8.29,10.7s-8.13,4.37-12.19,5.89c-1.1.41-2.15.8-3,1.16a.87.87,0,0,0-.49,1.13.94.94,0,0,0,.32.41c.82.54,1.76,1.14,2.75,1.77,3.66,2.33,8.21,5.22,10.7,8.29s4.37,8.13,5.89,12.19c.41,1.1.8,2.15,1.16,3.05a.87.87,0,0,0,1.13.49.85.85,0,0,0,.4-.32c.55-.82,1.15-1.76,1.78-2.75,2.33-3.66,5.22-8.21,8.29-10.7s8.13-4.37,12.19-5.89c1.1-.41,2.15-.8,3-1.16a.87.87,0,0,0,.49-1.13.85.85,0,0,0-.32-.4c-.82-.55-1.75-1.15-2.75-1.78-3.65-2.32-8.21-5.22-10.7-8.29s-4.37-8.13-5.88-12.19c-.41-1.1-.8-2.15-1.17-3.05A.87.87,0,0,0,893.84,744Z"/><path class="cls-3" d="M18.5,601.08a.7.7,0,0,0-.6.4c-.33.72-.69,1.54-1.07,2.41-1.39,3.2-3.11,7.19-5.25,9.56s-5.91,4.5-8.95,6.22c-.83.47-1.61.91-2.29,1.31a.71.71,0,0,0-.25,1,.79.79,0,0,0,.32.28c.71.34,1.53.69,2.4,1.07,3.2,1.39,7.19,3.12,9.56,5.25s4.51,5.92,6.23,9c.46.82.9,1.61,1.31,2.28a.71.71,0,0,0,1,.25.76.76,0,0,0,.28-.31c.33-.72.69-1.54,1.06-2.41,1.39-3.2,3.12-7.19,5.26-9.56s5.92-4.5,9-6.22l2.28-1.31a.7.7,0,0,0,.24-1,.65.65,0,0,0-.31-.28c-.71-.34-1.53-.69-2.4-1.07-3.2-1.39-7.2-3.12-9.57-5.25s-4.5-5.92-6.22-9c-.46-.83-.9-1.6-1.31-2.28A.67.67,0,0,0,18.5,601.08Z"/><path class="cls-3" d="M922.81,923.66a.86.86,0,0,0-.82.38c-.54.81-1.14,1.75-1.77,2.74-2.33,3.66-5.22,8.21-8.3,10.7s-8.12,4.38-12.18,5.89c-1.1.41-2.15.8-3.06,1.17a.87.87,0,0,0-.48,1.13.89.89,0,0,0,.32.4c.82.55,1.75,1.14,2.75,1.77,3.65,2.33,8.2,5.22,10.7,8.3s4.37,8.12,5.88,12.18c.42,1.1.8,2.15,1.17,3.06a.87.87,0,0,0,1.13.48.89.89,0,0,0,.4-.32c.55-.81,1.15-1.75,1.78-2.75,2.32-3.65,5.22-8.2,8.29-10.7s8.13-4.37,12.19-5.88c1.1-.41,2.14-.8,3.05-1.17a.87.87,0,0,0,.49-1.13.92.92,0,0,0-.33-.4c-.81-.55-1.74-1.14-2.74-1.78-3.66-2.32-8.21-5.21-10.7-8.29s-4.37-8.13-5.88-12.19c-.42-1.1-.8-2.14-1.17-3A.87.87,0,0,0,922.81,923.66Z"/><path class="cls-3" d="M59.85,820.6a.69.69,0,0,0-.6.41c-.34.71-.69,1.53-1.07,2.4-1.39,3.2-3.12,7.19-5.25,9.56s-5.92,4.5-9,6.23c-.83.46-1.61.9-2.28,1.31a.69.69,0,0,0-.25,1,.7.7,0,0,0,.31.28c.72.33,1.54.69,2.41,1.06,3.2,1.39,7.19,3.12,9.56,5.26s4.5,5.91,6.22,8.95c.47.83.91,1.61,1.31,2.29a.7.7,0,0,0,1,.24.65.65,0,0,0,.28-.31c.34-.71.69-1.54,1.07-2.41,1.39-3.2,3.12-7.19,5.25-9.56s5.92-4.5,9-6.22c.83-.46,1.6-.9,2.28-1.31a.71.71,0,0,0,.25-1,.76.76,0,0,0-.31-.28c-.72-.33-1.54-.69-2.41-1.07-3.2-1.39-7.19-3.11-9.56-5.25s-4.5-5.92-6.22-9c-.47-.82-.91-1.6-1.31-2.28A.72.72,0,0,0,59.85,820.6Z"/></g><g class="cls-2"><polygon class="cls-5" points="0 1024 1532.86 900.66 1631.02 892.79 3010.61 781.8 3010.61 -214.09 1921.68 -126.62 1348.92 -80.48 290.78 4.7 0 1024"/></g><g class="cls-2"><polygon class="cls-6" points="81.12 940.32 1620.98 818.58 1713.27 811.3 3010.55 708.65 3010.55 -211.91 1986.63 -130.99 1448.07 -88.38 354.47 -1.85 81.12 940.32"/></g><rect class="cls-1" x="8.52" y="1.34" width="532.24" height="532.24" transform="translate(-2.27 532.56) rotate(-87.99)"/><path class="cls-3" d="M58.8,710.05a.85.85,0,0,0-.81.38c-.55.81-1.15,1.75-1.78,2.74-2.33,3.66-5.22,8.21-8.29,10.7s-8.13,4.38-12.19,5.89c-1.1.41-2.15.8-3,1.17a.87.87,0,0,0-.49,1.13,1,1,0,0,0,.32.4c.82.55,1.76,1.14,2.75,1.77,3.66,2.33,8.21,5.22,10.7,8.3s4.37,8.12,5.89,12.18c.41,1.1.8,2.15,1.16,3.06a.87.87,0,0,0,1.13.48.8.8,0,0,0,.4-.32c.55-.81,1.15-1.75,1.78-2.75,2.33-3.65,5.22-8.2,8.29-10.7s8.13-4.37,12.19-5.88c1.1-.41,2.15-.8,3-1.17a.87.87,0,0,0,.49-1.13,1,1,0,0,0-.32-.4c-.82-.55-1.75-1.14-2.75-1.78-3.65-2.32-8.21-5.21-10.7-8.29s-4.37-8.13-5.88-12.19c-.41-1.1-.8-2.14-1.17-3A.87.87,0,0,0,58.8,710.05Z"/><path class="cls-3" d="M731.51,975.74a.86.86,0,0,0-.82.38c-.54.81-1.14,1.75-1.77,2.74-2.33,3.66-5.22,8.21-8.29,10.7s-8.13,4.38-12.19,5.89c-1.1.41-2.15.8-3.06,1.17a.87.87,0,0,0-.48,1.13.89.89,0,0,0,.32.4c.82.54,1.75,1.14,2.75,1.77,3.66,2.33,8.21,5.22,10.7,8.29s4.37,8.13,5.89,12.19c.41,1.1.8,2.15,1.16,3.06a.87.87,0,0,0,1.13.48.8.8,0,0,0,.4-.32c.55-.82,1.15-1.75,1.78-2.75,2.32-3.66,5.22-8.21,8.29-10.7s8.13-4.37,12.19-5.89c1.1-.41,2.14-.8,3-1.16a.87.87,0,0,0,.49-1.13.82.82,0,0,0-.33-.4c-.81-.55-1.74-1.15-2.74-1.78-3.65-2.32-8.21-5.22-10.7-8.29s-4.37-8.13-5.88-12.19c-.41-1.1-.8-2.15-1.17-3.05A.87.87,0,0,0,731.51,975.74Z"/><path class="cls-5" d="M206.06,851.93l24.49-1.71,9.27-.85.62.36.36,8,1.35,19.35.79,8.48-.42.56-9.1.44-25.08,1.75-8.68.8-.5-.49-.62-8.82.57-.44,8.31-.38,23.63-1.65-1.23-17.65L207,861.26l-9,.83-.5-.49-.62-8.83.56-.43Zm28.85-9.29,3.26-2.68.65-.11a42.39,42.39,0,0,1,7.2,6.51l0,.66-3.44,2.82-.66,0a41.71,41.71,0,0,0-7-6.66Zm5.9-4.58,3.19-2.67.65-.12a40.08,40.08,0,0,1,7,6.33l0,.66L248.38,845l-.66,0a40,40,0,0,0-6.93-6.4Z"/><path class="cls-5" d="M281.44,855.06c-4.6,10.91-10.75,20.34-17.39,26.62a1.5,1.5,0,0,1-1,.53,2,2,0,0,1-1.08-.32l-9.19-4.71c8.14-6.53,14.48-16.17,18.24-26.75l.58-.17,9.55,4.09Zm6.25-1.36,8-5.13.74.08a80.7,80.7,0,0,1,17.68,20.07l-.1.6-9.33,6.54-.6-.09a84.16,84.16,0,0,0-16.51-21.34Z"/><path class="cls-5" d="M324.77,847.47l5.89-7.62.64-.18a69.44,69.44,0,0,1,14,8.15l.05.66-6.29,8.44-.59.11a77.19,77.19,0,0,0-13.59-9Zm51.4,1.9a3.48,3.48,0,0,1,.35,1.23c0,.46-.14.74-.57,1.23-10.82,13.73-24.43,24.34-41.26,33.45l-.67-.09-6.54-8.47.08-.67c15.89-7.39,31.93-20.16,44.27-36.76Z"/><path class="cls-5" d="M386.78,861.92c7-6.51,11.8-11.94,15.22-17.93-3.14.48-6.43.78-9.52,1l-.42-.37-.83-8.08.43-.43c4.94-.34,9.8-.82,14.65-1.48a69.51,69.51,0,0,0,2.48-9l.5-.37,9.11.69.43.43c-.63,2.36-1.28,4.39-1.87,6.35,3.25-.76,6.5-1.58,9.74-2.6l.61.29,1.2,7.72-.35.62c-4.74,1.32-10.08,2.56-15.49,3.6a62.69,62.69,0,0,1-3.46,5.47,19.51,19.51,0,0,1,6.13-1.29,8.09,8.09,0,0,1,8.47,5.76c4-1.87,8.6-3.84,13.62-5.91l.67.21,4.65,7.82-.29.61c-6.53,2.18-12.07,4.29-16.82,6.4.32,2.56.6,5.78.89,8.94l-.43.42-8.67.94-.55-.36c-.14-1.91-.27-3.88-.38-5.4-3.88,2.19-6,4.19-5.83,6.43s2.83,2.65,8.69,2.3a117.51,117.51,0,0,0,17.09-2.58l.68.35,1.21,8.71-.36.56c-6.22,1-11.73,1.68-19.43,2.21-13.3.93-17.17-4.42-17.57-10.08-.44-6.32,4.58-11.1,10.46-15q1.71-1.11,3.81-2.25c-.44-1.62-1.49-2.41-3.47-2.27a12.66,12.66,0,0,0-7.34,2.83,97.59,97.59,0,0,0-10.71,11.46l-.65.11-6.25-6Z"/><path class="cls-5" d="M466.41,845.37a78,78,0,0,0,11.93-27.1l.51-.17,8.68,2,.19.72c-.79,3-1.88,6.22-3.05,9.41l16.06-1.13,9.27-.84.56.42.53,7.64-.49.5-9.3.45-9.87.69.42,6,8.35-.58,7.89-.75.56.42.53,7.57-.49.5-7.92.36-8.36.58.46,6.52,8.62-.6,8.22-.77.56.42.52,7.57-.49.5-8.24.38-8.5.59,1.22,13.74-9.87.69L483.7,859l-1.42-20.34-1.12.08a86.19,86.19,0,0,1-6.27,11.62,1.76,1.76,0,0,1-1.2.87,1.83,1.83,0,0,1-1-.45l-6.23-4.93L469,882.17l-9.28.65-1.1-20.36-.63-9a37.32,37.32,0,0,1-3,5.77c-.3.41-.56.63-.82.65s-.54-.23-.77-.61l-4.23-7.58c5.67-8.8,9.48-19.51,11.46-32l.56-.37,8.38,1.47.37.57a128.25,128.25,0,0,1-4.09,15.3Z"/><path class="cls-5" d="M523.45,851.17c15.42-8.42,22.56-11.3,28.88-11.74,10.07-.7,16.7,5.12,17.34,14.27.49,7-2.81,12.76-9.06,16.11a59.18,59.18,0,0,1-14.56,4.66,7.56,7.56,0,0,1-1,.14c-.85.06-1.14-.19-1.65-.88l-4.79-6.94c8.2-1,11.71-1.95,15.55-3.87,4.47-2.23,6.12-5.19,5.81-9.6-.28-4-3-5.81-7.4-5.5-5.27.37-10.73,2.74-24.37,11l-.66,0-4.13-7Z"/><path class="cls-5" d="M582.24,837.53,579.46,829l.22-.54c18.06-5.77,32.53-9.82,50.86-14.48l.61.29,2.53,8.62-.42.63c-7.28,1-13.57,2.8-17.35,6.37-5.78,5.37-8.79,11.6-8.35,17.79.35,5.06,3,7.52,7,8.44,3.7.86,9,.89,15.84.34l.49.43.17,10.05-.5.43c-8.21.71-15.45.35-21-1.57-6.71-2.31-11.18-7.56-11.81-16.51a25.12,25.12,0,0,1,7.53-19.19c-6.34,2-13.26,4.37-22.42,7.65Z"/><path class="cls-5" d="M670.74,860.92A25,25,0,0,0,685,845.64a39.66,39.66,0,0,0-13.82-2.8c-2.46,7.38-3.83,11.51-5.36,14.2a11.18,11.18,0,0,1-9.82,6.11c-6.06.42-9.78-4.54-10.14-9.68-.67-9.61,5.13-16.43,18.05-19,1.68-5.34,2.52-8.51,3.92-14-2.92.8-6.49,1.78-10.58,2.86l-.63-.42-2.41-8.1.28-.62c7.15-1.82,13-3.22,17-4.16a13.88,13.88,0,0,1,2.22-.36c3.69-.26,5.94,1.64,6.14,4.54a8.15,8.15,0,0,1-.3,2.4c-1.41,5.25-3.29,10.61-5.58,17.59a60.12,60.12,0,0,1,12.65,2,53.55,53.55,0,0,0-.49-7.9l.36-.49,8.91.64.37.57a61,61,0,0,1,.41,10.55,64.89,64.89,0,0,1,8.24,4.26l.18.71-4,8.29-.64.31c-2.15-1.44-4.22-2.55-6-3.55-2.66,6.54-7.37,12.89-13.55,16.36a2.51,2.51,0,0,1-1.81-.34Zm-16.5-8.9c.1,1.38.54,2,1.33,2s1.6-.71,2.3-2.22c.84-2,1.57-3.94,2.94-8.07a8.22,8.22,0,0,0-6.57,8.33Z"/><path class="cls-5" d="M759.14,822.26a77.91,77.91,0,0,1-16.06,4c.51,4.46,1.06,8.52,1.74,12.51a84.73,84.73,0,0,1,21.14,10l.12.72-5.4,7.92-.72.11a56.43,56.43,0,0,0-14.32-8.86c-.36,6.12-4.76,11.45-14.5,12.13-9.08.64-15.72-2.54-16.29-10.63-.48-6.85,6.46-11.77,15.41-12.39a33.63,33.63,0,0,1,4.49-.12c-1.48-9.88-2.64-18.8-3.7-32.16l.49-.5,9.15-.64.56.43c.3,4.34.59,8.36.92,12.11a67.43,67.43,0,0,0,14.21-3.91l.68.29,2.37,8.23Zm-29.69,23.9c-3.49.25-5.5,1.71-5.39,3.36.16,2.17,2.39,2.94,6,2.69s5.32-2.36,5-5.65A15.94,15.94,0,0,0,729.45,846.16Z"/><path class="cls-5" d="M788.85,828.91l-3.1-8.45.28-.62c4.47-1.37,9.3-3.3,13.3-4.7,3.81-1.32,6.46-2.3,8.83-2.47,8.42-.58,14.32,5.16,15.18,17.53,1.11,15.87-6.84,23.3-20.42,27.76a1.07,1.07,0,0,1-1.15-.45L795,850.44c13-3.68,18.27-9.21,17.66-18-.52-7.44-2.09-10-4.85-9.79a25.07,25.07,0,0,0-6.6,2.12c-3.42,1.3-7.54,2.91-11.74,4.39Zm4.66-23.22,1.86-8.4.58-.24a92.31,92.31,0,0,0,20,1.78l.43.44-.88,9.12-.5.37a143,143,0,0,1-21.15-2.56Z"/><path class="cls-5" d="M877.27,831.26l-10.33.72-2.47-35.22,10.34-.72Zm2,11.64a6.37,6.37,0,1,1-6.8-5.91,6.37,6.37,0,0,1,6.8,5.91Z"/><rect class="cls-1" width="1024" height="1024"/><g class="cls-7"><g class="cls-8"><g class="cls-2"><path class="cls-9" d="M654.06,320.82a6.14,6.14,0,0,1-2.87-.52c-28.53-12.44-50-45.28-57.48-64.31a6.36,6.36,0,0,1,11.83-4.65c6.45,16.41,25.91,46.48,50.74,57.31a6.35,6.35,0,0,1-2.22,12.17"/><path class="cls-10" d="M714.52,381.3a44.49,44.49,0,1,1-42.1,46.76h0a44.49,44.49,0,0,1,42.1-46.76"/><path class="cls-11" d="M652.73,295.44a44.49,44.49,0,1,1-42.1,46.76h0a44.49,44.49,0,0,1,42.1-46.75h0"/><path class="cls-12" d="M708.86,273.4a44.49,44.49,0,1,1-42.1,46.76h0a44.5,44.5,0,0,1,42.1-46.76"/><path class="cls-13" d="M761.64,308.82a44.49,44.49,0,1,1-42.1,46.76h0a44.49,44.49,0,0,1,42.1-46.76"/><path class="cls-13" d="M650,365.59a44.49,44.49,0,1,1-42.1,46.76h0A44.5,44.5,0,0,1,650,365.59"/><path class="cls-11" d="M705.51,330.86a44.49,44.49,0,1,1-42.1,46.76h0a44.48,44.48,0,0,1,42.1-46.76"/><path class="cls-11" d="M778,378a44.49,44.49,0,1,1-42.1,46.76h0A44.48,44.48,0,0,1,778,378"/></g></g></g><g class="cls-14"><g class="cls-15"><path class="cls-16" d="M872.83,541.26c6.16,24.83-5,49-24.81,53.88s-41-11.21-47.13-36,5-49,24.82-53.89,41,11.2,47.12,36"/><path class="cls-16" d="M897.56,535.12c7.21,29-19,52.44-45,58.91s-43.22-10.65-49.38-35.48,1-48,27.06-54.44,59.67,0,67.36,31"/><path class="cls-9" d="M868.34,542.37c5.39,21.73-4.34,42.84-21.72,47.15s-35.84-9.8-41.23-31.53,4.33-42.83,21.71-47.15,35.84,9.81,41.24,31.53"/><path class="cls-17" d="M833.45,513.08c14.2,0,27.64,12.62,32,30,2.45,9.84,1.69,19.83-2.13,28.12-3.71,8-9.88,13.51-17.38,15.37a23.21,23.21,0,0,1-5.63.69c-14.2,0-27.64-12.62-32-30-5-20.07,3.78-39.59,19.52-43.49a23.12,23.12,0,0,1,5.62-.69m0-3a26.16,26.16,0,0,0-6.35.78c-17.38,4.31-27.1,25.42-21.71,47.15,4.73,19.09,19.56,32.31,34.88,32.31a26.16,26.16,0,0,0,6.35-.78c17.38-4.31,27.1-25.42,21.71-47.15-4.74-19.09-19.57-32.31-34.88-32.31"/><polygon class="cls-17" points="851.84 551.29 843.4 555.24 848.39 567.75 839.49 560.75 837.39 573.31 833.24 560.96 825.25 566.22 828.28 554.24 819.11 549.12 827.55 545.15 822.55 532.65 831.47 539.02 833.57 526.45 837.72 539.44 845.69 534.18 842.67 546.15 851.84 551.29"/><path class="cls-17" d="M837.39,576.33a3,3,0,0,1-2.86-2.06l-2.9-8.64-4.73,3.11a3,3,0,0,1-4.57-3.26l2.46-9.74-7.15-4a3,3,0,0,1,.19-5.35l5.86-2.76-3.94-9.86a3,3,0,0,1,4.56-3.57l5,3.56,1.3-7.8a3,3,0,0,1,5.84-.42l2.94,9.2,4.66-3.07a3,3,0,0,1,4.17.85,3,3,0,0,1,.41,2.4l-2.45,9.73,7.15,4a3,3,0,0,1,1.15,4.11,3.05,3.05,0,0,1-1.34,1.25l-5.87,2.75,3.94,9.87a3,3,0,0,1-4.66,3.48l-4.9-3.86-1.26,7.55a3,3,0,0,1-2.74,2.51ZM833.24,558a3,3,0,0,1,2.85,2.06l.31.92.12-.68a3,3,0,0,1,3.46-2.48,2.93,2.93,0,0,1,1.37.61l.08.06-.83-2.08a3,3,0,0,1,1.52-3.85l3.12-1.46-4-2.26a3,3,0,0,1-1.45-3.37l1.12-4.45-1.49,1a3,3,0,0,1-4.17-.85,2.67,2.67,0,0,1-.36-.74l-.36-1.13,0,.29A3,3,0,0,1,831,542a3.1,3.1,0,0,1-1.26-.52l-.54-.39,1.18,2.95a3,3,0,0,1-1.52,3.85l-3.13,1.46,4,2.26A3,3,0,0,1,831.2,555l-1.13,4.46,1.51-1a3.1,3.1,0,0,1,1.65-.5"/><polygon class="cls-18" points="845.25 549.79 840.1 552.24 843.34 559.88 837.78 556 836.64 563.7 833.9 555.77 829.06 559.01 830.77 551.67 825.03 548.55 830.18 546.1 826.93 538.45 832.51 542.33 833.63 534.63 836.38 542.57 841.23 539.32 839.52 546.67 845.25 549.79"/><path class="cls-18" d="M836.64,565.21a1.51,1.51,0,0,1-1.42-1l-2.1-6.1-3.21,2.16a1.51,1.51,0,0,1-2.31-1.59l1.45-6.22-4.73-2.57a1.52,1.52,0,0,1-.61-2,1.56,1.56,0,0,1,.68-.64l3.84-1.83L825.54,539a1.52,1.52,0,0,1,.8-2,1.5,1.5,0,0,1,1.45.16l3.58,2.48.77-5.29a1.51,1.51,0,0,1,2.92-.27l2.11,6.1,3.23-2.17a1.51,1.51,0,0,1,2.09.43,1.54,1.54,0,0,1,.21,1.17l-1.45,6.22,4.73,2.58a1.5,1.5,0,0,1,.6,2,1.46,1.46,0,0,1-.68.64L842.05,553l2.69,6.32a1.52,1.52,0,0,1-.8,2,1.5,1.5,0,0,1-1.45-.16l-3.57-2.49-.79,5.3a1.49,1.49,0,0,1-1.35,1.28Zm-2.74-11a1.61,1.61,0,0,1,.48.08,1.49,1.49,0,0,1,.94.94l.73,2.11.24-1.61a1.5,1.5,0,0,1,1.7-1.27,1.42,1.42,0,0,1,.65.26l1.27.88-1.2-2.82a1.5,1.5,0,0,1,.74-2l2.48-1.18L838.8,548a1.51,1.51,0,0,1-.75-1.66l.85-3.63-1.69,1.12a1.51,1.51,0,0,1-1.32.18,1.49,1.49,0,0,1-.94-.94l-.73-2.1-.23,1.59a1.49,1.49,0,0,1-1.69,1.27,1.38,1.38,0,0,1-.65-.26l-1.3-.9,1.21,2.85a1.5,1.5,0,0,1-.74,2l-2.47,1.18,3.14,1.7a1.49,1.49,0,0,1,.74,1.66l-.84,3.63,1.67-1.12a1.48,1.48,0,0,1,.84-.25"/><path class="cls-19" d="M822.71,540.56c.69,1.5.44,3.09-.56,3.55s-2.37-.38-3.06-1.88-.44-3.09.56-3.55,2.36.39,3.06,1.88m20.18-8.85c-.39,1.6-1.57,2.7-2.64,2.44s-1.62-1.77-1.23-3.38,1.57-2.7,2.64-2.43,1.62,1.77,1.23,3.37m-8,29.88c-.39,1.6-1.57,2.7-2.64,2.44s-1.62-1.77-1.23-3.38,1.57-2.7,2.64-2.43,1.62,1.77,1.23,3.37m9.69,6.56c.69,1.5.45,3.08-.55,3.56s-2.37-.39-3.06-1.89-.45-3.08.55-3.55,2.37.39,3.06,1.88M848,545c-.91.88-2,1.18-2.54.68s-.13-1.64.78-2.52,2-1.19,2.54-.67.14,1.63-.78,2.51m-15.89-7.13c.55,1.15.48,2.32-.16,2.63s-1.6-.39-2.14-1.54-.47-2.31.17-2.62,1.59.39,2.13,1.53m-12,21.38c-.91.88-2,1.18-2.54.68s-.13-1.64.78-2.52,2-1.18,2.54-.67.14,1.63-.78,2.51m32-2.8c1,1.07,1.15,2.54.35,3.3s-2.26.47-3.26-.59-1.16-2.54-.35-3.3,2.26-.48,3.26.59"/></g></g><g class="cls-2"><path class="cls-20" d="M807.82,703.29c2.3-6.31,23.9-35.69,37-41.79s7.29-20-2.33-23.48C821,630.19,769,660.53,759.78,685.77c-11.5,31.54,12.19,79,33.67,86.78,9.61,3.51,22.45-1.84,16.35-15s-6.58-41.68-2-54.3"/><path class="cls-20" d="M684,589.4c7-19.22,23.46-35,33.07-31.49,28.82,10.51,72.94,61.08,65,112.63S684,589.4,684,589.4M672.58,715.88c6.11,13.11,21.82,29.74,41,36.75s-10-33.59,4.41-41.94c19.78-11.49-45.45,5.19-45.45,5.19"/><path d="M607.17,663.89c10.05-12.66,10.25-24.39,5.63-37.86s28.81-3.1,34.36,15.26,21.59,52.77-.7,44.21a177.17,177.17,0,0,1-39.3-21.61"/><path class="cls-21" d="M607.22,626.47c4,7.72,35.65,43.8,33.38,48.89s-14.18-5.8-19-8.91c-8.58-5.57-10.64-8.15-13.4-8.64-6,.08-6.26,6.3-5.45,10.19,3.44,19.91,35.24,46.17,66,57.38,53.07,19.36,123.51-9.37,130.53-28.6S764.9,608,711.83,588.66s-94,9-104.61,37.8"/><path d="M665.25,601.25a13.43,13.43,0,1,1-17.22,8h0a13.42,13.42,0,0,1,17.21-8h0"/><path class="cls-20" d="M686.35,701.73a6.7,6.7,0,0,1-4-8.6,6.64,6.64,0,0,1,1.79-2.67c17-15.48,27.26-31.28,22.24-58a6.72,6.72,0,1,1,13.2-2.5c6.55,34.81-9.66,55.11-26.4,70.37a6.7,6.7,0,0,1-6.83,1.35"/></g><rect class="cls-1" x="631.08" y="538.37" width="184.12" height="239.48" transform="translate(-142.91 1111.97) rotate(-69.96)"/><rect class="cls-1" x="631.08" y="538.37" width="184.12" height="239.48" transform="translate(-142.91 1111.97) rotate(-69.96)"/><g class="cls-22"><g class="cls-23"><g class="cls-22"><path class="cls-9" d="M973.69,672.33a2.33,2.33,0,0,1-1.35-.43c-15.51-10.86-28.84-29.32-36.5-41.34,4,25,2.36,39,2.28,39.69a2.37,2.37,0,0,1-4.7-.59c0-.18,2.22-19-4.71-51.36a2.37,2.37,0,0,1,4.41-1.61c.19.35,19,35.26,41.94,51.33a2.37,2.37,0,0,1-1.37,4.31"/><path class="cls-24" d="M975,636.34c-8.24,2.27-12,6-25.48,1.58-11.19-3.69-16.68-10-15-14.95s7.54-7.5,18.73-3.81S963,627.38,975,636.34"/><path class="cls-25" d="M973.7,662.84a19,19,0,1,1-19,19h0a19,19,0,0,1,19-19"/><path class="cls-25" d="M938.14,662.84a19,19,0,1,1-19,19h0a19,19,0,0,1,19-19"/></g></g></g><g class="cls-26"><g class="cls-27"><g class="cls-2"><path class="cls-28" d="M870.33,159.87c-60.56-20.39-109.16-38.38-123.64,4.62s31.33,69.28,91.9,89.67S951.53,281.3,966,238.33s-35.11-58.07-95.67-78.46"/><path class="cls-29" d="M975.67,199s-51-24.24-104.21-42.47c-53.41-17.68-108.67-29.2-108.67-29.2-19.34,40.07,18.48,72,86.55,94.91S966.84,242.59,975.67,199"/><path class="cls-30" d="M977.53,181,770.25,115.84c-7.11-2.4-17.91,10-11.63,16.31,50.38,36.45,89.66,69.39,89.66,69.39,5.06,5.53,7.15,6.25,14.53,4.92,0,0,70.89-4,114.55-1,6.19.43,7.28-22.13.17-24.52"/><path class="cls-9" d="M982.77,183.35c-8.46-15.45-9.79-9.19-18.3-15-3.23-2.21-17.68-43.88-76-63.5l-.13,0c-58.29-19.62-95,4.82-98.91,4.63-10.3-.52-7.56-6.3-23.66.88-7.37,3.3-9.82,5.49-4.32,8.83,8.27,5,5.63,10.19,11.42,14.24,7,4.9,11.59,1.8,23.54,7.73,10.2,5.05,6.24,19.14,17,22.77S826,162.33,836.76,166,849.23,185.6,860,189.23s21.81-8.1,32.59-4.47,9,8.8,19.82,12.43,16.14-10,27.32-7.85c13.09,2.51,14.89,7.75,23.42,8.09,7.06.27,8.07-5.42,17.7-4.43,6.4.66,5.8-2.55,1.9-9.65"/><path class="cls-31" d="M982.7,169.71c-6.49,19.28-56.08,12.73-113.46-6.59S768.4,119,774.9,99.74c11.76-34.92,18-32.82,115.66.07s103.9,35,92.15,69.9"/><path class="cls-28" d="M913.61,31.35C853,11,794.4,22.8,779.92,65.79c-13.32,39.58,35.22,57.73,95.79,78.12s110.2,35.3,123.52-4.28c14.48-43-25.06-87.89-85.62-108.28"/><path class="cls-32" d="M860.07,36.14a7.29,7.29,0,0,0-11.37,9.14c2.53,3.14,10.17,7.43,13.31,4.9s.59-10.9-1.94-14m65.16,14.49c-4-.05-12.2,3.13-12.24,7.16s8,7.38,12.07,7.42a7.29,7.29,0,1,0,.22-14.58h0m55.2,69.21c-2.1-3.45-10.74-2-14.18.09a7.29,7.29,0,1,0,7.58,12.46c3.46-2.1,8.7-9.11,6.6-12.55M967.76,79.59a7.3,7.3,0,0,0-11.58,8.88l.22.27c2.52,3.14,10.16,7.43,13.3,4.9s.59-10.91-1.93-14M855.59,92.19a7.3,7.3,0,1,0-11.46,9l.1.11c2.52,3.14,10.16,7.44,13.3,4.9s.59-10.9-1.94-14m30.15-24.45c-3.23,2.41-7.79,9.89-5.38,13.12s10.88,1,14.11-1.43a7.3,7.3,0,1,0-8.73-11.69h0m40.94,48.38a7.3,7.3,0,0,0-11.46,9,.52.52,0,0,0,.1.11c2.52,3.15,10.15,7.44,13.3,4.9s.59-10.9-1.94-14M813.4,50c-3.51,2-9,8.84-7,12.34s10.67,2.34,14.17.35A7.29,7.29,0,1,0,813.4,50"/></g></g></g><g class="cls-33"><g class="cls-34"><path class="cls-35" d="M973,740.36c-9.67-12.21-83.2-5.08-93.36,22.26-2.54,28.66,18.41,61.4,55,57.69,38.21-3.87,52.48-36,38.33-79.95"/><path class="cls-36" d="M888.18,756.45c8-6.82,37.74-23.22,72.57-17.42,23.22,2.18-2,21.89-28.18,27.7-22.84,5.08-58.9,2.18-44.39-10.28"/><path class="cls-9" d="M962.66,746.65c4.17-4.35,3.44-17.6,1.53-19.77-2.8-2.36-5.62,4.77-14,7a14.06,14.06,0,0,0-4.35-5.41c-2.42-1.72-7.62-1.48-9.08,5.53-5-4.35-15.45-4.75-16.08-2.42-3.87,14.22-9.19,16.09-15,22-8.74,8.91,7.86,10.7,24.73,5.44a301.27,301.27,0,0,0,32.2-12.34"/><path class="cls-9" d="M912.13,752.22c-1.45-10.16-19.88-12.08-24-9-5.8,4.47-2.41,18.5,3.63,20.44,10.57,3.37,20.32-11.49,20.32-11.49"/><path class="cls-29" d="M891.81,763.71c-3.88-1.54,1.82-10.16,8-11.86s9.08,1.46,10.29,3.15c.12-1.7,2.54-4.6,4.6-5.2s4.47.48,5.68,3c0-2.66.12-11.25,9.67-14,2.54-.85,9.8-1.09,11.37,2.9,2.42-2.05,10.4-3.87,12.34,1.09.84-1.45,7.62-4,10.28.85,1.93,2.66-1,5.23-5.93,8.47-15.84,10.51-51.27,17.53-66.27,11.6"/><path class="cls-16" d="M899.31,754.15a3.63,3.63,0,1,1-3.63,3.63h0a3.63,3.63,0,0,1,3.63-3.63"/><path class="cls-16" d="M945.76,748.34a3.63,3.63,0,1,1-3.63,3.63h0a3.64,3.64,0,0,1,3.63-3.63"/><path class="cls-16" d="M939.71,747.14a4.6,4.6,0,1,1-4.61-4.6h0a4.6,4.6,0,0,1,4.6,4.6M911.41,762a2.06,2.06,0,1,1-2.06-2h0a2.05,2.05,0,0,1,2.06,2"/><path class="cls-31" d="M925.19,750.82c.86-1.75,9.7,6.16,7.44,11.25-2.18,1.09-9.8,2.45-17.78,3.27,3.57-2.54,8.41-10.58,10.34-14.52"/><path class="cls-37" d="M922.84,755.18c1.41-2.83,6.71,4.9,4.9,8.07a125.52,125.52,0,0,1-13.34,2.27c1.81-2.36,7-7.44,8.44-10.34"/><path class="cls-9" d="M939.16,760.53c2.18-.64,13-3.63,20.23-9.26.18-3.71-2.81-8.43-7.71-.45-3.27-2-11.34,1.82-12.52,9.71"/><path class="cls-38" d="M952,782.57a5.8,5.8,0,1,1-5.8,5.8,5.8,5.8,0,0,1,5.8-5.8"/><path class="cls-38" d="M943.33,800a2.9,2.9,0,1,1-2.9,2.9,2.9,2.9,0,0,1,2.9-2.9h0"/><path class="cls-38" d="M921.57,788.38a4.36,4.36,0,1,1-4.36,4.35,4.35,4.35,0,0,1,4.36-4.35h0"/></g></g><g class="cls-39"><g class="cls-40"><path class="cls-36" d="M663.93,179,648.2,163.29A7,7,0,1,0,636,160.07a7,7,0,1,0,3.22,12.18L655,188ZM696,211.09l15.73,15.73A6.95,6.95,0,1,1,715,239a7,7,0,1,1-12.18-3.22L687,220.05Z"/><path class="cls-16" d="M707,193.85c-4.39-4.4-11.07-4.16-16.78-9.87s-5.47-12.38-9.86-16.77c-9.46-9.46-18.88-4-30.44,7.61s-17.07,21-7.62,30.44c4.4,4.4,11.08,4.16,16.78,9.86s5.47,12.39,9.86,16.78c9.46,9.46,18.89,3.95,30.45-7.61s17.07-21,7.61-30.44"/><path class="cls-29" d="M663.88,213a2.69,2.69,0,0,1-2.68-2.71,2.63,2.63,0,0,1,.13-.84c3-9,14.28-20.24,23.23-23.22a2.69,2.69,0,1,1,1.9,5l-.2.07c-7.23,2.41-17.42,12.6-19.83,19.82a2.7,2.7,0,0,1-2.55,1.85"/></g></g><g class="cls-41"><g class="cls-42"><g class="cls-41"><path class="cls-19" d="M882.22,412c6.3,6.3,13.35,9.49,20.11,2.72,4.8-4.8,3.58-13.8-2.73-20.11s-15.31-7.53-20.11-2.73c-6.77,6.76-3.58,13.8,2.73,20.12m17.14-17.15c4.73,4.73,5.64,11.49,2,15.09-5.07,5.07-10.35,2.68-15.08-2.05s-7.12-10-2.05-15.08c3.6-3.6,10.36-2.69,15.09,2m64-64c-6.3-6.31-13.35-9.49-20.11-2.73-4.8,4.8-3.58,13.81,2.72,20.12s15.31,7.52,20.12,2.72c6.76-6.76,3.57-13.81-2.73-20.11M946.23,348c-4.72-4.73-5.64-11.48-2-15.08,5.07-5.07,10.35-2.68,15.09,2s7.11,10,2,15.09c-3.6,3.6-10.35,2.68-15.09-2.05"/><path class="cls-19" d="M922.8,327a44.48,44.48,0,1,1-44.47,44.47h0A44.47,44.47,0,0,1,922.8,327h0"/><path class="cls-43" d="M958.37,371.45a35.58,35.58,0,1,1-35.58-35.58,35.58,35.58,0,0,1,35.58,35.58h0"/><path class="cls-32" d="M926.58,352.26l-6.65-6.64a5.8,5.8,0,1,0-3.78,3.78l6.64,6.64Z"/><path class="cls-16" d="M948.09,377.56c1.89-1.89,6.67-10,0-16.62-4.61-4.62-8.32-4.35-15.24-6.07-2.84-.94-6.53-4.35-7.48-5.3-.95.95-.61,4.4-.61,4.4s-4.12.34-5.07,1.28c.94.95,5.34,5.1,6.11,7.05,2.06,6.56,1.83,9.9,6.44,14.51,7.57,7.56,13.91,2.64,15.8.75"/><path class="cls-9" d="M900.12,367.53c0,5.06,8.11,9.15,3,9.15a9.16,9.16,0,0,1,0-18.31c5.06,0-3,4.1-3,9.16m22.72,24.82c4.18,2,10.82-3.05,8.8,1.14a8.42,8.42,0,0,1-15.16-7.32h0c2-4.19,2.18,4.16,6.36,6.18"/><path class="cls-44" d="M915,363.6a5.23,5.23,0,1,1-5.23,5.23h0A5.23,5.23,0,0,1,915,363.6"/><path class="cls-44" d="M938.49,384.53a2.62,2.62,0,1,1-2.61,2.62h0a2.6,2.6,0,0,1,2.61-2.62h0"/><path class="cls-44" d="M904.48,381.92a2.62,2.62,0,1,1-2.61,2.61,2.61,2.61,0,0,1,2.61-2.61h0"/></g></g></g><path class="cls-45" d="M248.92,611.51l.57.49.19,5.74.22,3,.7,7.1-.5.5-10,.5-36.47,2.55-10.06.9-.49-.43-.3-7.12-.21-3-.61-5.85.43-.42,10.09-.51,36.47-2.55Zm-8.63,50.62A93.29,93.29,0,0,1,255.38,665l.24.58-4.53,6.2-.58.24a158.56,158.56,0,0,0-21.59-4.18l-.23-.45,4-4.84-16.79,1.18,5.09,3.74,0,.6a97.62,97.62,0,0,1-21.12,7.43c-1,.2-1.57.18-2.08-.45l-4.56-5.57a94.12,94.12,0,0,0,18.08-5.43l-8.35.78-.5-.56-.25-9.31-.87-12.51-.76-8,.42-.62,8.24-.38,25.94-1.81,8.22-.78.5.56.36,8,.87,12.51.84,9.2-.41.69Zm-38.5-40.64.26,3.68,6.64-.46-.25-3.69Zm32.88,18.93-.18-2.56-24.16,1.69.18,2.56Zm.55,7.9-.18-2.57-24.16,1.69.18,2.57ZM211.62,658l24.16-1.69-.18-2.63-24.16,1.68Zm12.62-38.06-6.78.47.26,3.69,6.78-.48Zm16.26,2.56-.26-3.68-7,.49.26,3.68Z"/><path class="cls-45" d="M265.06,643.59c15.42-8.42,22.56-11.3,28.89-11.74,10.07-.7,16.7,5.11,17.33,14.26.5,7-2.81,12.77-9.06,16.12a59,59,0,0,1-14.56,4.65,5.21,5.21,0,0,1-1.05.14c-.85.06-1.13-.18-1.64-.87l-4.79-6.94c8.2-1,11.71-2,15.54-3.87,4.48-2.23,6.12-5.19,5.81-9.6-.27-4-3-5.81-7.4-5.5-5.26.37-10.72,2.74-24.36,11l-.67,0-4.12-7Z"/><path class="cls-45" d="M323.85,630l-2.78-8.53.23-.55c18.05-5.76,32.52-9.81,50.85-14.47l.62.29,2.52,8.62-.42.62c-7.27,1-13.56,2.8-17.35,6.38-5.78,5.36-8.78,11.6-8.35,17.78.36,5.07,3,7.53,7,8.44,3.7.87,9,.89,15.83.35l.5.43.17,10-.5.43c-8.22.71-15.46.36-21-1.57-6.71-2.31-11.18-7.55-11.8-16.51a25.1,25.1,0,0,1,7.52-19.18c-6.34,2-13.25,4.37-22.42,7.66Z"/><path class="cls-5" d="M410.27,598l.43-.49,8.83-.62.49.43.48,6.92,12.38-.87,10.91-1,.5.43.51,7.37-.43.49-10.94.57-36.67,2.56,1,14.09c1,14.49-.08,24.49-4.58,33-.23.42-.42.56-.68.58a1.15,1.15,0,0,1-.82-.34l-6.52-5.3c3.55-7.86,4.17-15,3.32-27.16l-.77-11.13-.95-10.71.43-.5,10.94-.56,12.64-.89Zm-1.13,33.89.43.5a62.07,62.07,0,0,1-2.69,19.24l-.57.37-8-2.08-.31-.64a56.94,56.94,0,0,0,3-18.21l.5-.43Zm12.6,16.52c.13,1.84.47,2,3.17,1.83s3.29-.3,4.28-1.3,1-2.05,1-6.94l8,2.42c.75.21.83.47.82,1.26.12,4.56-.31,7.9-2.36,9.76s-4,2.6-12,3.16c-10.07.7-11.74-.44-12.15-6.23l-.4-8.58-1.21-17.31.43-.56,8.36-.58.57.55ZM417.54,613l.64-.25a51.14,51.14,0,0,1,11.9,6.45l.05.66-5,6.57-.66,0a52.2,52.2,0,0,0-11.5-7.33l-.05-.66ZM438,625.48l.67.15A68.11,68.11,0,0,1,448.34,640l-.22.68-7.44,4.29-.54-.16a68.09,68.09,0,0,0-9.05-15l.22-.61Z"/><path class="cls-5" d="M467.6,648.55c.14,6.67-2.83,8.66-10.4,9.2-.79,0-1-.07-1.31-.7l-3.86-8a39.41,39.41,0,0,0,4.85-.6c1.37-.23,1.74-.65,1.63-2.23l-.79-11.33c-1.29.49-2.65.92-4.14,1.42L453,636l-3.17-7.52.28-.61c2.6-.72,4.87-1.34,7-2l-.75-10.73-6.11.63-.49-.36-.5-7.18.37-.42,6.2-.24L454.92,595l.49-.57,7.44-.52.63.42.88,12.58,4.93-.48.41.3.52,7.31-.38.36-4.94.21.58,8.43c1.42-.57,2.9-1.13,4.38-1.77l.47,6.65a1.78,1.78,0,0,1-1.24,2.14c-1,.47-2,.93-3,1.4l.09,1.25,1.11,12a46.62,46.62,0,0,0,10.57-13.37c.4-.83.75-1.64,1.09-2.46l-6.64.6-.49-.37-.44-6.32.37-.42,8.7-.41.53,0a21.19,21.19,0,0,0,.4-2.75l-.53,0-8.28.78-.49-.36-.43-6.19.36-.43,3.76-.2a28.7,28.7,0,0,0-3.19-5.86l.16-.54,6.37-2.56.6.09a28,28,0,0,1,4,5.94l-.15.6-5,2.2,1.85-.06,20.54-1.43-5.41-1.68a39.3,39.3,0,0,0,2.48-8.91l.5-.36,8.15,2.07.24.58A57.94,57.94,0,0,1,503.2,611l5.85-.54.42.3.44,6.32-.37.36-8.37.39-11.06.77c-.14.94-.34,1.81-.47,2.75l13.5-1,8.34-.78.42.3.45,6.45-.37.36-8.37.39-15.74,1.1c-.28.74-.55,1.56-.83,2.3l12.38-.86,4.45-.64,3.57,2.79a1.48,1.48,0,0,1,.74,1.07,2.46,2.46,0,0,1-.38,1.29,35.26,35.26,0,0,1-6.87,9.61,73.31,73.31,0,0,0,14.19,2.31L511.64,653a1,1,0,0,1-.95.72,5.81,5.81,0,0,1-.93-.06,58.73,58.73,0,0,1-15.52-4.47A65.72,65.72,0,0,1,479.63,656a4.83,4.83,0,0,1-1.18.28c-.52,0-.8-.14-1.3-.7l-4.58-4.9-.25.21a2.19,2.19,0,0,1-1,.6,1.32,1.32,0,0,1-1-.46Zm36-56.57a67.49,67.49,0,0,1,5.53,5.3l-.09.6c-9.81,2.61-26.16,5.27-36,6.42a1.23,1.23,0,0,1-1.3-.63l-3.57-5.7c12-1.3,26.61-3.52,34.77-6.07Zm-16.68,52.83a38.29,38.29,0,0,1-5-4.81,46.61,46.61,0,0,1-8.62,10.06,67.71,67.71,0,0,0,13.59-5.24Zm.41-33-.62-.22a29.26,29.26,0,0,0-2.86-7l.23-.48,6.26-2.22.61.16a22.64,22.64,0,0,1,3.43,6.5l-.22.62Zm1.32,24.65a26.23,26.23,0,0,0,4.76,3.77,22.13,22.13,0,0,0,3.93-4.38Z"/><path class="cls-5" d="M553.05,628.28l-10.34.73-2.46-35.22,10.33-.73Zm2,11.64a6.32,6.32,0,1,1,0-.16A.86.86,0,0,0,555.05,639.92Z"/><path class="cls-45" d="M208,751.19A78,78,0,0,0,220,724.09l.52-.17,8.68,2,.18.72c-.78,3-1.88,6.21-3.05,9.41L242.35,735l9.27-.84.56.42.53,7.64-.5.5-9.3.45-9.87.69.42,6,8.36-.58,7.89-.76.56.43.53,7.57-.5.5-7.91.35-8.36.59.45,6.52,8.62-.6,8.22-.78.56.43.53,7.57-.5.5-8.24.38-8.49.59,1.22,13.74-9.87.69-1.22-22.15-1.42-20.34-1.12.07a84.94,84.94,0,0,1-6.26,11.62,1.3,1.3,0,0,1-2.22.42l-6.24-4.92L210.6,788l-9.29.65-1.09-20.37-.63-9a36.93,36.93,0,0,1-3,5.77c-.3.42-.55.64-.81.66s-.55-.23-.77-.61l-4.24-7.58c5.67-8.8,9.49-19.52,11.46-32l.57-.37,8.37,1.47.37.57a126.38,126.38,0,0,1-4.09,15.3Z"/><path class="cls-45" d="M265.06,757c15.42-8.42,22.56-11.3,28.89-11.74,10.07-.7,16.7,5.12,17.33,14.27.5,7-2.81,12.76-9.06,16.11a59,59,0,0,1-14.56,4.66,7.17,7.17,0,0,1-1.05.14c-.85.06-1.13-.19-1.64-.88l-4.79-6.94c8.2-1,11.71-2,15.54-3.87,4.48-2.23,6.12-5.19,5.81-9.6-.27-3.95-3-5.81-7.4-5.5-5.26.37-10.72,2.74-24.36,11l-.67,0-4.12-7Z"/><path class="cls-45" d="M323.85,743.35l-2.78-8.53.23-.55c18.05-5.76,32.52-9.81,50.85-14.47l.62.29,2.52,8.62-.42.63c-7.27,1-13.56,2.8-17.35,6.37-5.78,5.37-8.78,11.6-8.35,17.78.36,5.07,3,7.53,7,8.44,3.7.87,9,.9,15.83.35l.5.43.17,10-.5.43c-8.22.7-15.46.35-21-1.58-6.71-2.3-11.18-7.55-11.8-16.5a25.12,25.12,0,0,1,7.52-19.19c-6.34,2-13.25,4.37-22.42,7.66Z"/><path class="cls-5" d="M410.27,711.45l.43-.5,8.83-.61.49.42.48,6.92,12.38-.87,10.91-1,.5.43.51,7.37-.43.5-10.94.56-36.67,2.57,1,14.08c1,14.49-.08,24.49-4.58,33-.23.42-.42.56-.68.58a1.15,1.15,0,0,1-.82-.34l-6.52-5.3c3.55-7.85,4.17-15,3.32-27.16L387.7,731l-.95-10.72.43-.49,10.94-.57,12.64-.88Zm-1.13,33.88.43.5a62,62,0,0,1-2.69,19.24l-.57.37-8-2.08-.31-.64a56.93,56.93,0,0,0,3-18.2l.5-.44Zm12.6,16.52c.13,1.84.47,2,3.17,1.83s3.29-.3,4.28-1.29,1-2.06,1-6.95l8,2.42c.75.21.83.47.82,1.27.12,4.55-.31,7.89-2.36,9.75s-4,2.6-12,3.16c-10.07.7-11.74-.44-12.15-6.23l-.4-8.57-1.21-17.32.43-.56,8.36-.58.57.55Zm-4.2-35.43.64-.25a51.51,51.51,0,0,1,11.9,6.45l.05.66-5,6.57-.66,0a51.88,51.88,0,0,0-11.5-7.34l0-.66ZM438,738.88l.67.15a68.11,68.11,0,0,1,9.67,14.34l-.22.68-7.44,4.29-.54-.16a68.32,68.32,0,0,0-9.05-15l.22-.61Z"/><path class="cls-5" d="M467.6,762c.14,6.67-2.83,8.67-10.4,9.2-.79.06-1-.06-1.31-.7l-3.86-8a39.41,39.41,0,0,0,4.85-.6c1.37-.23,1.74-.65,1.63-2.23l-.79-11.32c-1.29.48-2.65.91-4.14,1.41l-.61-.29-3.17-7.52.28-.61c2.6-.71,4.87-1.33,7-2l-.75-10.73-6.11.62-.49-.36-.5-7.18.37-.42,6.2-.23-.88-12.58.49-.56,7.44-.52.63.42.88,12.57,4.93-.48.41.3.52,7.31-.38.36-4.94.21.58,8.43c1.42-.56,2.9-1.13,4.38-1.76l.47,6.64a1.78,1.78,0,0,1-1.24,2.14c-1,.47-2,.94-3,1.4l.09,1.25,1.11,12a46.66,46.66,0,0,0,10.57-13.37c.4-.82.75-1.64,1.09-2.46l-6.64.6-.49-.36-.44-6.32.37-.42,8.7-.41.53,0a21.29,21.29,0,0,0,.4-2.74l-.53,0-8.28.78-.49-.36-.43-6.19.36-.42,3.76-.2a28.78,28.78,0,0,0-3.19-5.87l.16-.54,6.37-2.56.6.09a28.22,28.22,0,0,1,4,5.94l-.15.61-5,2.2,1.85-.06,20.54-1.44L495.5,723a40.15,40.15,0,0,0,2.49-8.91l.5-.37,8.15,2.08.23.58a57.31,57.31,0,0,1-3.67,8.06l5.85-.54.42.3.44,6.32-.37.36-8.37.38-11.06.78c-.14.93-.34,1.81-.47,2.74l13.5-.94,8.34-.78.42.3.45,6.45-.37.36-8.37.38-15.74,1.1c-.28.75-.55,1.56-.83,2.31l12.38-.86,4.45-.65,3.57,2.8a1.48,1.48,0,0,1,.74,1.07,2.41,2.41,0,0,1-.37,1.28,35,35,0,0,1-6.88,9.61,72.7,72.7,0,0,0,14.19,2.32l-3.48,6.92a1,1,0,0,1-.94.73,5.86,5.86,0,0,1-.94-.07,58,58,0,0,1-15.52-4.47,65.31,65.31,0,0,1-14.61,6.78,4.72,4.72,0,0,1-1.18.28c-.52,0-.8-.14-1.3-.7l-4.58-4.9-.25.21a2.14,2.14,0,0,1-1,.6,1.32,1.32,0,0,1-1-.46Zm36-56.57a67.49,67.49,0,0,1,5.53,5.3l-.09.6c-9.81,2.61-26.16,5.27-36,6.42a1.23,1.23,0,0,1-1.3-.63l-3.57-5.71c12-1.3,26.61-3.51,34.77-6.07Zm-16.68,52.84a37.72,37.72,0,0,1-5-4.82,46.91,46.91,0,0,1-8.62,10.07A68.34,68.34,0,0,0,486.92,758.22Zm.41-33-.62-.22a29,29,0,0,0-2.86-6.94l.23-.48,6.26-2.22.61.15a22.69,22.69,0,0,1,3.43,6.51l-.22.61Zm1.32,24.65a26.58,26.58,0,0,0,4.76,3.77,22.35,22.35,0,0,0,3.93-4.37Z"/><path class="cls-5" d="M553.05,741.68l-10.34.73-2.46-35.22,10.33-.73Zm2,11.64a6.35,6.35,0,1,1,0-.15A.76.76,0,0,0,555.05,753.32Z"/><rect class="cls-1" width="1024" height="1024"/><rect class="cls-1" width="1024" height="1024"/><path class="cls-46" d="M156.68,21.47,455.83,31.91c33.77,1.18,54,1.89,67.34,8A70.14,70.14,0,0,1,563.59,83.3c5.17,13.71,4.46,34,3.28,67.77l-10.44,299c-1.18,33.79-1.89,54.07-8,67.38a70.14,70.14,0,0,1-43.35,40.46c-13.71,5.17-34,4.47-67.73,3.29L138.19,550.74c-33.76-1.18-54-1.89-67.33-8a70.16,70.16,0,0,1-40.43-43.39c-5.16-13.71-4.46-34-3.28-67.77l10.45-299c1.18-33.79,1.88-54.06,8-67.38A70.15,70.15,0,0,1,89,24.75C102.65,19.58,122.91,20.29,156.68,21.47Z"/><g class="cls-47"><g class="cls-48"><path class="cls-49" d="M444.87,373.49c-2.9,83.2-70.16,77.4-153.33,74.5s-150.66-1.81-147.76-85c2.48-70.9,76.73-165.9,122.24-199.81,25-16.87,46.06-16.59,70.85,2.48,60.44,46.47,109.55,163.54,108,207.85"/><path class="cls-50" d="M375.19,403.36a9,9,0,0,1-9.62-15.14l15.15-9.62a9,9,0,1,1,9.59,15.13ZM399,341.24a8.86,8.86,0,0,1,7.26-16.17l16.17,7.27a8.86,8.86,0,0,1-7.26,16.17Zm-38.17-48a9,9,0,0,1,7.32-16.37l16.37,7.36a9,9,0,0,1-7.35,16.36ZM172.66,348.81A9,9,0,0,1,180,332.44l16.36,7.35A9,9,0,0,1,189,356.16Zm33.4-53.39a9,9,0,0,1-9.61-15.14l15.14-9.63a9,9,0,0,1,9.6,15.15Zm78.79,35.93a13.31,13.31,0,0,1,10.89-24.28L320,318a13.29,13.29,0,0,1-10.89,24.25Zm-56.63,51.72A9,9,0,1,1,234,400l-17,5.8a9,9,0,0,1-5.76-17Z"/><path class="cls-19" d="M349,325.77l-106.27-3.71a17.73,17.73,0,0,0-18.33,17.11l-3.65,104.68c21,2.72,45.16,3.24,70.78,4.14s49.72,2.05,70.91.81l3.65-104.68A17.74,17.74,0,0,0,349,325.77"/></g></g><path class="cls-6" d="M94.94,496.74a3.93,3.93,0,0,1-1.24,2.78,3.86,3.86,0,0,1-2.88,1.07l-2.1-.08s-.06,0-.07.07,0,.07.06.07c2.8,1.1,5.51,2.24,8.12,3.4a1.56,1.56,0,0,1,1,1.63,1.59,1.59,0,0,1-1.06,1.52l-.23.09a8.17,8.17,0,0,1-3.37.61,8.92,8.92,0,0,1-3.8-1q-2.66-1.32-5.54-2.57a1.9,1.9,0,0,1-1.22-1.69v-.28a1.86,1.86,0,0,1,1-1.57l.29-.17a.13.13,0,0,0,0-.14.1.1,0,0,0-.11-.09L72.72,500a.12.12,0,0,0-.12.09c0,.06,0,.09.07.09l.13.05a2,2,0,0,1,1.17,2,1.71,1.71,0,0,1-1.11,1.61,60,60,0,0,1-8.57,3.14,5.31,5.31,0,0,1-1.66.22,4.9,4.9,0,0,1-1.45-.28,6.07,6.07,0,0,1-2.65-1.7,1.69,1.69,0,0,1-.5-1.25,1.79,1.79,0,0,1,.11-.55,1.65,1.65,0,0,1,1.37-1.23A51.61,51.61,0,0,0,67.87,500a.17.17,0,0,0,0-.12s0-.07-.09-.07L66,499.72a4,4,0,0,1-3.84-4.12l.46-12.94a4,4,0,0,1,4.11-3.85l24.82.87A3.78,3.78,0,0,1,94.34,481a3.84,3.84,0,0,1,1,2.85Zm-.4-30.69a4,4,0,0,1,3.84,4.12l-.15,4.29a4,4,0,0,1-4.11,3.85l-29.81-1.05a4,4,0,0,1-3.83-4.11l.15-4.3A4,4,0,0,1,64.74,465ZM70.8,472.5a.41.41,0,0,0,.47-.44l0-1.37a.41.41,0,0,0-.44-.48l-3.52-.12a.41.41,0,0,0-.48.44l0,1.37a.4.4,0,0,0,.44.48Zm-.92,10.64a.4.4,0,0,0-.48.44l0,.64a.41.41,0,0,0,.44.47l17.92.63a.41.41,0,0,0,.47-.44l0-.64a.4.4,0,0,0-.44-.48Zm-.19,5.44a.41.41,0,0,0-.48.44l0,.69a.4.4,0,0,0,.44.47l17.92.63a.41.41,0,0,0,.47-.44l0-.69a.4.4,0,0,0-.44-.47Zm-.2,5.49a.41.41,0,0,0-.47.44l0,.73a.4.4,0,0,0,.44.48l17.91.62a.4.4,0,0,0,.48-.44l0-.73a.4.4,0,0,0-.44-.47ZM80.9,472.85a.4.4,0,0,0,.47-.44l0-1.37a.4.4,0,0,0-.44-.47l-3.57-.13a.41.41,0,0,0-.47.44l0,1.37a.41.41,0,0,0,.44.48Zm10.28.36a.41.41,0,0,0,.48-.44l0-1.37a.4.4,0,0,0-.44-.48l-3.75-.13a.41.41,0,0,0-.47.44L87,472.61a.41.41,0,0,0,.44.47ZM104,483.69q-.54-3.09,1.83-3.83a30.53,30.53,0,0,1,5.7-1.54,33.72,33.72,0,0,1,6.77-.5,16.7,16.7,0,0,1,6.65,1.63,10.55,10.55,0,0,1,4.54,4.17,12.73,12.73,0,0,1,1.6,6.6q0,8.16-5.54,11.85t-14.44,3.57c-1.74-.06-2.62-1.05-2.65-3a2.47,2.47,0,0,1,2.84-2.74,18.71,18.71,0,0,0,6.86-.95,9.45,9.45,0,0,0,5.2-3.43,9.56,9.56,0,0,0,1.56-5.44,5.49,5.49,0,0,0-1.55-4.2q-1.63-1.68-5.78-2.06a16,16,0,0,0-4.38.26c-1.43.29-3.23.76-5.38,1.41q-2.93,1.1-3.83-1.82Zm59.5-10.75a3.18,3.18,0,0,1,3.28,3q.26,3.17-1.87,3.91a29.22,29.22,0,0,0-5.74,2.48,22,22,0,0,0-5.5,4.21,12.72,12.72,0,0,0-3,4.77,6.91,6.91,0,0,0,0,5,6,6,0,0,0,2.57,2.79,8.71,8.71,0,0,0,3.15,1.05c1.22.1,2.8.14,4.75.12,2.2,0,3.29,1.2,3.26,3.64s-1.32,3.78-3.51,3.68-3.93-.19-5.3-.33a18.08,18.08,0,0,1-4.45-1,13.9,13.9,0,0,1-4.55-2.66,10.79,10.79,0,0,1-3-4.64,14.29,14.29,0,0,1-.37-7,17.14,17.14,0,0,1,1.94-5.2,19.69,19.69,0,0,1,2.88-3.86,26.07,26.07,0,0,1,2.62-2.4,7.62,7.62,0,0,1,1.18-.83l-11-.39q-3.48-.12-3.35-3.59t3.59-3.4Zm18.51,6a.4.4,0,0,0-.47.44l-.17,4.76q-.54,15.42-4.46,24.25a2.53,2.53,0,0,1-1.93,1.49,3.06,3.06,0,0,1-.73.07,3.2,3.2,0,0,1-1.77-.61,4.31,4.31,0,0,1-1.57-2.26,5.12,5.12,0,0,1-.14-1.28,4.23,4.23,0,0,1,.33-1.46q3-6.9,3.46-20.44l.27-7.68A3.89,3.89,0,0,1,176,473.4a3.81,3.81,0,0,1,2.87-1.06l12,.42a.41.41,0,0,0,.48-.45l0-1.14a3.57,3.57,0,0,1,7.13.25l0,1.14a.4.4,0,0,0,.44.48l12.75.44a3.11,3.11,0,0,1,2.28,1,3.19,3.19,0,0,1,.85,2.32,3.08,3.08,0,0,1-1,2.23,3.13,3.13,0,0,1-2.34.86l-14.81-.52a.12.12,0,0,0-.12.09.11.11,0,0,0,.06.14,67.69,67.69,0,0,1,6.64,4,2.61,2.61,0,0,1,1.2,2.2v.27a3,3,0,0,1-.94,2.12,3.48,3.48,0,0,1-2.55,1h-.23a4.09,4.09,0,0,1-2.44-.86,57.76,57.76,0,0,0-4.92-3.42,2.93,2.93,0,0,1-1.43-2.25,4.63,4.63,0,0,1,0-.51,2.78,2.78,0,0,1,.94-2l.66-.62c.06,0,.08-.08.05-.18a.16.16,0,0,0-.17-.14Zm6.46,16.85a50.38,50.38,0,0,1-1.93,9.32,2.85,2.85,0,0,1-1.75,1.77,3.38,3.38,0,0,1-1.2.19,3.39,3.39,0,0,1-3-2.21,3.72,3.72,0,0,1-.27-1.48,4,4,0,0,1,.22-1.13,42.42,42.42,0,0,0,1.84-8,2.71,2.71,0,0,1,1.21-1.93,2.6,2.6,0,0,1,1.62-.49,4.48,4.48,0,0,1,.59.07,3.66,3.66,0,0,1,2.72,3.53,2.25,2.25,0,0,1-.06.36Zm22.68-2.14a63.28,63.28,0,0,1,3.3,9.18,3.63,3.63,0,0,1-.38,2.88,4.42,4.42,0,0,1-2.26,1.93,4,4,0,0,1-1.15.15,3,3,0,0,1-1.36-.42,2.91,2.91,0,0,1-1.49-2.07c-.18-.83-.39-1.7-.64-2.63a.14.14,0,0,0-.11-.05s-.07,0-.07.09c-.46,3.5-1.2,5.88-2.22,7.16s-2.63,1.88-4.82,1.8l-4.25-.15c-2.68-.09-4.47-.73-5.36-1.9s-1.28-3.28-1.17-6.3l.41-11.93a3.27,3.27,0,0,1,1.09-2.37,3.36,3.36,0,0,1,2.44-.9,3.22,3.22,0,0,1,2.34,1.07,3.29,3.29,0,0,1,.9,2.43l-.42,11.9a3.89,3.89,0,0,0,.15,1.63c.13.23.45.36,1,.37l2.47.09a1,1,0,0,0,.94-.63,10.88,10.88,0,0,0,.55-2.62,2.29,2.29,0,0,1,1.3-1.92,2.68,2.68,0,0,1,1.34-.32,2.73,2.73,0,0,1,1.09.27c.54.23,1.06.43,1.58.6a.2.2,0,0,0,.28-.26c-.49-1.64-1.06-3.27-1.7-4.92a3.09,3.09,0,0,1-.23-1.29,2.8,2.8,0,0,1,.27-1.13,2.74,2.74,0,0,1,1.75-1.64,3.35,3.35,0,0,1,1.33-.22,3.57,3.57,0,0,1,1.27.27,3.38,3.38,0,0,1,1.86,1.85Zm17.72-2.77a3.37,3.37,0,0,1,.69-.07,2.7,2.7,0,0,1,1.49.51,2.55,2.55,0,0,1,1.12,2,4.6,4.6,0,0,1,0,.5,3.61,3.61,0,0,1-2.68,3.3l-.83.15a.57.57,0,0,0-.48.58l-.3,8.69a11.62,11.62,0,0,1-.58,3.6,4.18,4.18,0,0,1-1.68,2.05,8.4,8.4,0,0,1-3.6,1,1.61,1.61,0,0,1-.37,0,3.11,3.11,0,0,1-2-.85,4.39,4.39,0,0,1-1.38-2.39,2.57,2.57,0,0,1,.09-1.43,2.25,2.25,0,0,1,.87-1.12,2.46,2.46,0,0,1,1.39-.43h.32a.6.6,0,0,0,.75-.71l.25-7a.38.38,0,0,0-.13-.3.29.29,0,0,0-.27-.08l-.56.12a2.41,2.41,0,0,1-.78.11,2.71,2.71,0,0,1-1.58-.56,2.83,2.83,0,0,1-1.21-2.1,4.6,4.6,0,0,1,0-.5,3.43,3.43,0,0,1,.72-2,3.59,3.59,0,0,1,2.24-1.39l1.38-.27a.51.51,0,0,0,.48-.54l.27-7.77a.41.41,0,0,0-.44-.48l-.82,0a3.11,3.11,0,0,1,.21-6.22l.83,0a.4.4,0,0,0,.47-.44l.17-4.94a3,3,0,0,1,1-2.19,3.06,3.06,0,0,1,2.23-.81,3,3,0,0,1,2.16,1,3,3,0,0,1,.84,2.25l-.18,5a.37.37,0,0,0,.4.43h.23a3.11,3.11,0,0,1-.22,6.22h-.23a.36.36,0,0,0-.42.4l-.23,6.4a.3.3,0,0,0,.11.23.24.24,0,0,0,.25.06Zm24.44,5a11.17,11.17,0,0,1,3.78.68,2.15,2.15,0,0,1,1.1,1.1,2,2,0,0,1,.2.92,3,3,0,0,1-.11.64,22.68,22.68,0,0,1-4.24,7.31.41.41,0,0,0-.08.3.24.24,0,0,0,.2.21,31.6,31.6,0,0,0,4.34,1.39,2,2,0,0,1,1.42,1.33,2.49,2.49,0,0,1,.11.78,2,2,0,0,1-.45,1.18,5.12,5.12,0,0,1-2.35,1.79,3.94,3.94,0,0,1-1.66.31,4.66,4.66,0,0,1-1.14-.18,33.24,33.24,0,0,1-5.5-2.43.85.85,0,0,0-.82,0,27.2,27.2,0,0,1-4,1.73,4.57,4.57,0,0,1-1.52.23,4.3,4.3,0,0,1-1.67-.43,6.14,6.14,0,0,1-2.67-2.2l-.6-.73a.36.36,0,0,0-.61,0,24,24,0,0,1-2,1.8,2.83,2.83,0,0,1-1.8.58,3.31,3.31,0,0,1-.55-.06,3.78,3.78,0,0,1-2.15-1.36,2.84,2.84,0,0,1,.42-4.15q5.13-4.12,7-11.94a.31.31,0,0,0-.06-.32.34.34,0,0,0-.29-.15l-2.05-.07a2.6,2.6,0,0,1-1.9-.87,2.68,2.68,0,0,1-.71-2,2.65,2.65,0,0,1,.85-1.89,2.57,2.57,0,0,1,1.95-.74l2.74.1a.41.41,0,0,0,.47-.44l.06-.37a.51.51,0,0,0-.1-.32.38.38,0,0,0-.3-.15l-2-.07a2.55,2.55,0,0,1-1.8-.84,2.59,2.59,0,0,1-.72-1.9l0-.37a2.16,2.16,0,0,1,.72-1.56,2.13,2.13,0,0,1,1.6-.6c.15,0,.21-.07.19-.23s-.11-.44-.16-.69a3.52,3.52,0,0,1-.15-1.1,3.6,3.6,0,0,1,.52-1.73,3.47,3.47,0,0,1,2.26-1.7s0,0,.05-.07,0-.07-.05-.07c-.7,0-1.26,0-1.69,0h-.05a3,3,0,0,1-1.89-.76,3.44,3.44,0,0,1-1.13-1.87,2.25,2.25,0,0,1-.07-.6,1.86,1.86,0,0,1,.41-1.08,1.71,1.71,0,0,1,1.49-.77,162.14,162.14,0,0,0,18.15-.93,7.66,7.66,0,0,1,.83,0,5.19,5.19,0,0,1,1.9.43,4.87,4.87,0,0,1,2.14,1.72,1.9,1.9,0,0,1,.33,1.11,2.1,2.1,0,0,1-.17.73,1.73,1.73,0,0,1-1.45,1.14l-1.93.21c-.06,0-.1,0-.1.09s0,.09,0,.09l.45.15a2.78,2.78,0,0,1,1.9,1.85,2.92,2.92,0,0,1,.19,1.11,2.63,2.63,0,0,1-.55,1.49c-.46.69-.89,1.31-1.31,1.88a.26.26,0,0,0,0,.21q0,.11.18.12l.73,0a2.5,2.5,0,0,1,1.82.84,2.66,2.66,0,0,1-.13,3.71,2.47,2.47,0,0,1-1.88.71L246,487.73a.45.45,0,0,0-.52.44v.37a.31.31,0,0,0,.08.34.51.51,0,0,0,.31.13l12.71.44a2.73,2.73,0,0,1,2.6,2.82,2.73,2.73,0,0,1-2.79,2.62L245,494.43a.5.5,0,0,0-.56.44l-.1.22a.5.5,0,0,0,.1.33.33.33,0,0,0,.25.14Zm-12.48,8.91a20.49,20.49,0,0,1-2.37,3.49.13.13,0,0,0,0,.18c.05.06.1.08.16.05a30.64,30.64,0,0,0,4.44-1.22.35.35,0,0,0,.17-.24.29.29,0,0,0-.06-.26c-.53-.53-1.13-1.21-1.81-2a.25.25,0,0,0-.25-.12.33.33,0,0,0-.25.15Zm3.08-22.84c0-.27,0-.58-.06-.92a3.75,3.75,0,0,1,0-.59,4,4,0,0,1,.86-2.35,3.62,3.62,0,0,1,2.57-1.56l.41,0v-.05q-3.34.12-6.69.13a.27.27,0,0,0-.23.13.29.29,0,0,0-.06.28c.31.86.61,1.74.91,2.64a1.79,1.79,0,0,1,.12.69,2.09,2.09,0,0,1-1.53,1.91v.05l3.29.12a.44.44,0,0,0,.32-.13.3.3,0,0,0,.1-.32Zm5,21.75A14,14,0,0,0,251,501a.27.27,0,0,0,0-.27.28.28,0,0,0-.25-.15l-5.44-.19a.23.23,0,0,0-.21.13.18.18,0,0,0,0,.23,17.55,17.55,0,0,0,3,2.95.47.47,0,0,0,.68,0ZM248.47,481a3.08,3.08,0,0,1-2.15,1.34s0,.06,0,.1l3.61.12a.75.75,0,0,0,.7-.39,45.69,45.69,0,0,0,2.9-5.76.28.28,0,0,0-.06-.27.21.21,0,0,0-.25-.1c-1.77.12-3.18.21-4.22.26a.32.32,0,0,0-.28.15.51.51,0,0,0-.06.34c.14.59.25,1.19.35,1.8a3.09,3.09,0,0,1,.07.74,2.9,2.9,0,0,1-.61,1.67Zm20.23,24.8a4.83,4.83,0,0,1,1.71-3.63,5.48,5.48,0,0,1,4-1.35,5.56,5.56,0,0,1,3.91,1.62,4.9,4.9,0,0,1,1.44,3.74,4.78,4.78,0,0,1-1.7,3.63,6.15,6.15,0,0,1-7.91-.28A4.75,4.75,0,0,1,268.7,505.84Zm2.62-10.72-1.09-11.95v-3.8a3.56,3.56,0,0,1,1.15-2.77,3.71,3.71,0,0,1,2.78-1.08l2.33.09a3.68,3.68,0,0,1,2.71,1.26,3.58,3.58,0,0,1,.95,2.85l-.27,3.79L278,495.35a3.37,3.37,0,0,1-1.2,2,3.26,3.26,0,0,1-4.38-.15A3.37,3.37,0,0,1,271.32,495.12ZM290,485.28a49.25,49.25,0,0,0,6.68-10.57,3.92,3.92,0,0,1,2-1.9,3.61,3.61,0,0,1,1.61-.31,3.26,3.26,0,0,1,1.09.22,3.14,3.14,0,0,1,1.9,1.76,3,3,0,0,1,.28,1.34,3,3,0,0,1-.32,1.22c-.92,2-1.94,3.92-3,5.8a2.14,2.14,0,0,0-.21.87l-1,28.72a3.27,3.27,0,0,1-1.09,2.39,3.45,3.45,0,0,1-5.81-2.63l.64-18.34a.11.11,0,0,0-.06-.12.1.1,0,0,0-.12,0,1.58,1.58,0,0,1-1.2.51h-.32a1.72,1.72,0,0,1-1.25-1.05c-.23-.5-.44-1-.63-1.49a5.61,5.61,0,0,1-.55-2.63,4.88,4.88,0,0,1,.07-.69,5.85,5.85,0,0,1,1.39-3.11Zm39.27,1.19-9-.31a.4.4,0,0,0-.47.44l-.1,3a.4.4,0,0,0,.44.47l7.86.28a3,3,0,0,1,2.16,1,2.91,2.91,0,0,1,.84,2.2,3.11,3.11,0,0,1-3.22,3l-7.86-.27a.41.41,0,0,0-.47.44l-.12,3.29a.41.41,0,0,0,.44.48l8.41.29a3.16,3.16,0,1,1-.22,6.31l-8.41-.29a.41.41,0,0,0-.47.44l-.21,5.9a3.37,3.37,0,0,1-1.11,2.46,3.42,3.42,0,0,1-2.53.94,3.52,3.52,0,0,1-3.39-3.64l.92-26.53c0-.28-.13-.42-.42-.43a.72.72,0,0,0-.67.34,56.22,56.22,0,0,1-3.72,5.46,2.9,2.9,0,0,1-2.28,1.11h-.14a3.26,3.26,0,0,1-2.25-1,3.44,3.44,0,0,1-1.06-2.46v-.28a3.59,3.59,0,0,1,.86-2.21,45.71,45.71,0,0,0,6.76-11.49,3.54,3.54,0,0,1,1.85-2,3.41,3.41,0,0,1,1.71-.4,3.25,3.25,0,0,1,.91.17,2.92,2.92,0,0,1,1.91,1.62,3,3,0,0,1,.32,1.39,2.69,2.69,0,0,1-.27,1.09l-.79,1.8a.23.23,0,0,0,0,.28.28.28,0,0,0,.27.14l13.75.49a3,3,0,0,1,2.23,1,3.2,3.2,0,0,1,.86,2.32,3.16,3.16,0,0,1-1,2.26A3,3,0,0,1,329.24,486.47Zm5.72,5.28q-.54-3.08,1.82-3.83a32,32,0,0,1,5.71-1.54,33.68,33.68,0,0,1,6.77-.49,16.49,16.49,0,0,1,6.64,1.63,10.55,10.55,0,0,1,4.55,4.16,12.87,12.87,0,0,1,1.6,6.61q0,8.15-5.54,11.85t-14.45,3.57c-1.74-.06-2.62-1.05-2.64-3a2.47,2.47,0,0,1,2.84-2.74,18.66,18.66,0,0,0,6.85-.95,9.37,9.37,0,0,0,5.2-3.44,9.62,9.62,0,0,0,1.57-5.44,5.55,5.55,0,0,0-1.55-4.2q-1.63-1.68-5.79-2a15.62,15.62,0,0,0-4.38.26q-2.15.42-5.38,1.41-2.92,1.1-3.82-1.83ZM394.46,481a3.18,3.18,0,0,1,3.28,2.95q.25,3.17-1.88,3.92a29.42,29.42,0,0,0-5.73,2.48,21.59,21.59,0,0,0-5.51,4.2,12.92,12.92,0,0,0-3,4.78,6.89,6.89,0,0,0,0,5,6,6,0,0,0,2.58,2.8,8.39,8.39,0,0,0,3.14,1,47.13,47.13,0,0,0,4.76.12c2.2,0,3.28,1.2,3.26,3.64s-1.32,3.79-3.52,3.68-3.93-.18-5.29-.32a18.15,18.15,0,0,1-4.45-1,13.77,13.77,0,0,1-4.55-2.65,11,11,0,0,1-3.05-4.64,14.41,14.41,0,0,1-.37-7,17.06,17.06,0,0,1,1.95-5.2,19.4,19.4,0,0,1,2.88-3.86,26.48,26.48,0,0,1,2.62-2.41,8.24,8.24,0,0,1,1.17-.83l-11-.38q-3.47-.12-3.35-3.6c.08-2.34,1.28-3.48,3.6-3.4ZM413,487a.4.4,0,0,0-.48.44l-.16,4.76q-.54,15.4-4.47,24.25a2.5,2.5,0,0,1-1.92,1.49,3.78,3.78,0,0,1-.74.07,3.16,3.16,0,0,1-1.76-.62,4.14,4.14,0,0,1-1.57-2.25,4.73,4.73,0,0,1-.14-1.29,4.23,4.23,0,0,1,.33-1.45q3-6.9,3.46-20.44l.26-7.69a3.92,3.92,0,0,1,1.24-2.77,3.82,3.82,0,0,1,2.88-1.07l12,.42a.4.4,0,0,0,.47-.44l0-1.14a3.56,3.56,0,0,1,6.17-2.31,3.41,3.41,0,0,1,1,2.56l0,1.14a.4.4,0,0,0,.45.47l12.75.45a3.09,3.09,0,0,1,2.27,1,3.18,3.18,0,0,1,.86,2.32,3.07,3.07,0,0,1-1,2.23,3.14,3.14,0,0,1-2.34.86l-14.81-.52a.1.1,0,0,0-.11.09.11.11,0,0,0,.06.14,65.57,65.57,0,0,1,6.63,4,2.59,2.59,0,0,1,1.21,2.2v.27a3,3,0,0,1-.95,2.12,3.48,3.48,0,0,1-2.55,1h-.23a4.18,4.18,0,0,1-2.44-.86,58.16,58.16,0,0,0-4.91-3.43A2.87,2.87,0,0,1,423,490.8a2.31,2.31,0,0,1,0-.51,2.74,2.74,0,0,1,.94-2l.66-.62c.06,0,.08-.09.05-.18a.18.18,0,0,0-.18-.14Zm6.45,16.85a50.67,50.67,0,0,1-1.92,9.32,2.91,2.91,0,0,1-1.76,1.77,3.33,3.33,0,0,1-1.19.19,3.38,3.38,0,0,1-3-2.22,3.48,3.48,0,0,1-.27-1.47,3.7,3.7,0,0,1,.22-1.14,42.11,42.11,0,0,0,1.84-8,2.69,2.69,0,0,1,1.21-1.93,2.6,2.6,0,0,1,1.62-.49,4.37,4.37,0,0,1,.59.06,3.32,3.32,0,0,1,2.05,1.45,3.17,3.17,0,0,1,.66,2.08,1.19,1.19,0,0,1-.06.37Zm22.69-2.14a63.14,63.14,0,0,1,3.29,9.18,3.54,3.54,0,0,1,.15,1.11,3.93,3.93,0,0,1-.52,1.76,4.42,4.42,0,0,1-2.27,1.94,3.89,3.89,0,0,1-1.15.14,2.85,2.85,0,0,1-1.36-.41,2.94,2.94,0,0,1-1.48-2.07c-.18-.83-.4-1.71-.64-2.63a.16.16,0,0,0-.11-.05s-.07,0-.07.09q-.69,5.24-2.22,7.16t-4.82,1.8l-4.26-.15q-4-.13-5.35-1.91t-1.18-6.29l.42-11.94a3.23,3.23,0,0,1,1.09-2.36,3.32,3.32,0,0,1,2.43-.9,3.28,3.28,0,0,1,2.35,1.06,3.25,3.25,0,0,1,.89,2.44l-.41,11.89a3.84,3.84,0,0,0,.15,1.63c.13.24.45.36,1,.38l2.47.09a.94.94,0,0,0,.93-.63,10.88,10.88,0,0,0,.55-2.62,2.3,2.3,0,0,1,1.31-1.92,2.56,2.56,0,0,1,1.33-.32,2.69,2.69,0,0,1,1.09.27c.54.23,1.07.43,1.58.6a.21.21,0,0,0,.23,0,.2.2,0,0,0,.06-.22q-.74-2.46-1.71-4.92a3.26,3.26,0,0,1-.23-1.29,3.12,3.12,0,0,1,.27-1.13,2.74,2.74,0,0,1,1.75-1.64,3.41,3.41,0,0,1,1.34-.23,3.87,3.87,0,0,1,1.27.28,3.35,3.35,0,0,1,1.86,1.85Zm17.71-2.77a2.88,2.88,0,0,1,.69-.07,2.65,2.65,0,0,1,1.49.51,2.51,2.51,0,0,1,1.12,2,2.31,2.31,0,0,1,0,.51,3.58,3.58,0,0,1-2.68,3.29l-.82.16a.57.57,0,0,0-.48.58l-.31,8.69a11.21,11.21,0,0,1-.58,3.59,4,4,0,0,1-1.67,2,8.35,8.35,0,0,1-3.61,1,1.1,1.1,0,0,1-.36,0,3.08,3.08,0,0,1-2-.84,4.51,4.51,0,0,1-1.39-2.39,2.62,2.62,0,0,1,.1-1.44,2.22,2.22,0,0,1,.86-1.11,2.57,2.57,0,0,1,1.39-.44l.32,0a.81.81,0,0,0,.58-.14.84.84,0,0,0,.18-.57l.24-7a.37.37,0,0,0-.12-.3.28.28,0,0,0-.28-.08l-.55.12a2.49,2.49,0,0,1-.78.11,2.76,2.76,0,0,1-1.58-.56,2.8,2.8,0,0,1-1.21-2.1,3.09,3.09,0,0,1,0-.51,3.47,3.47,0,0,1,.71-2,3.64,3.64,0,0,1,2.25-1.38c.46-.08.92-.17,1.38-.28a.51.51,0,0,0,.47-.53l.28-7.78a.41.41,0,0,0-.45-.47l-.82,0a3.11,3.11,0,0,1,.22-6.22l.82,0a.41.41,0,0,0,.48-.44l.17-4.94a3,3,0,0,1,1-2.19,3.17,3.17,0,0,1,4.39.15,3,3,0,0,1,.83,2.26l-.17,5a.36.36,0,0,0,.4.43h.23a3.11,3.11,0,0,1-.22,6.22h-.23a.37.37,0,0,0-.43.4l-.22,6.4a.27.27,0,0,0,.11.23.25.25,0,0,0,.25.06Zm24.45,5a10.86,10.86,0,0,1,3.77.68,2.18,2.18,0,0,1,1.11,1.09,1.94,1.94,0,0,1,.19.93,2,2,0,0,1-.11.63,22.62,22.62,0,0,1-4.24,7.32.39.39,0,0,0-.07.29.24.24,0,0,0,.19.22,35.31,35.31,0,0,0,4.35,1.39,2,2,0,0,1,1.42,1.33,2.77,2.77,0,0,1,.11.78,2.08,2.08,0,0,1-.46,1.17,5,5,0,0,1-2.35,1.8,4.07,4.07,0,0,1-1.66.31,4.65,4.65,0,0,1-1.13-.18,32.88,32.88,0,0,1-5.5-2.43.87.87,0,0,0-.83,0,26.06,26.06,0,0,1-4,1.74,4.34,4.34,0,0,1-1.52.22,4.17,4.17,0,0,1-1.68-.42,6.25,6.25,0,0,1-2.67-2.2l-.59-.73a.38.38,0,0,0-.62,0,22.46,22.46,0,0,1-2,1.81,2.87,2.87,0,0,1-1.81.58,3.33,3.33,0,0,1-.54-.07,3.69,3.69,0,0,1-2.15-1.35,2.7,2.7,0,0,1-.71-1.95,2.78,2.78,0,0,1,1.13-2.21q5.13-4.12,7-11.94a.37.37,0,0,0-.06-.32.4.4,0,0,0-.29-.15l-2.06-.07a2.55,2.55,0,0,1-1.89-.86,2.67,2.67,0,0,1-.71-1.95,2.72,2.72,0,0,1,.84-1.9,2.59,2.59,0,0,1,1.95-.73l2.74.1a.41.41,0,0,0,.48-.45L470,496a.46.46,0,0,0-.11-.32.34.34,0,0,0-.29-.15l-2.06-.07a2.52,2.52,0,0,1-1.8-.85,2.57,2.57,0,0,1-.71-1.9v-.36a2.27,2.27,0,0,1,2.32-2.17c.15,0,.22-.07.19-.22s-.1-.45-.16-.69a3.53,3.53,0,0,1-.14-1.11,3.76,3.76,0,0,1,2.77-3.43s0,0,0-.06,0-.07,0-.07c-.7,0-1.27,0-1.7,0h0a3,3,0,0,1-1.9-.75,3.48,3.48,0,0,1-1.12-1.87,1.71,1.71,0,0,1-.07-.6,1.8,1.8,0,0,1,.4-1.08,1.75,1.75,0,0,1,1.49-.78,160.25,160.25,0,0,0,18.16-.92,7.48,7.48,0,0,1,.82,0,5.47,5.47,0,0,1,1.91.44,4.92,4.92,0,0,1,2.14,1.72,1.78,1.78,0,0,1,.32,1.11,2.13,2.13,0,0,1-.16.73,1.74,1.74,0,0,1-1.46,1.14c-.58.07-1.22.14-1.93.2a.08.08,0,0,0-.09.09c0,.06,0,.09,0,.1l.45.15a2.77,2.77,0,0,1,1.91,1.85,2.89,2.89,0,0,1,.19,1.11,2.67,2.67,0,0,1-.56,1.49c-.45.69-.88,1.31-1.3,1.88a.23.23,0,0,0,0,.2.17.17,0,0,0,.18.12l.73,0a2.5,2.5,0,0,1,1.83.84,2.66,2.66,0,0,1-.13,3.71,2.51,2.51,0,0,1-1.88.71L477,495.8a.44.44,0,0,0-.51.44l0,.36a.35.35,0,0,0,.08.35.47.47,0,0,0,.32.12l12.71.45a2.55,2.55,0,0,1,1.86.86,2.71,2.71,0,0,1-.13,3.85,2.58,2.58,0,0,1-1.92.73L476,502.49a.52.52,0,0,0-.57.44l-.1.23a.46.46,0,0,0,.11.32.3.3,0,0,0,.24.15Zm-12.49,8.91a20.28,20.28,0,0,1-2.36,3.49.13.13,0,0,0,0,.18.12.12,0,0,0,.16,0,30.5,30.5,0,0,0,4.43-1.22.34.34,0,0,0,.17-.25.27.27,0,0,0-.06-.25c-.53-.54-1.13-1.21-1.8-2a.24.24,0,0,0-.25-.13.4.4,0,0,0-.26.16ZM474.87,490c0-.28,0-.58-.06-.92a5.47,5.47,0,0,1,0-.6,4.08,4.08,0,0,1,.86-2.35,3.7,3.7,0,0,1,2.58-1.56l.41,0v0c-2.23.07-4.46.12-6.69.13a.28.28,0,0,0-.23.13.3.3,0,0,0,0,.27c.3.87.61,1.75.91,2.64a2,2,0,0,1,.11.7,1.93,1.93,0,0,1-.26.9,2.07,2.07,0,0,1-1.27,1v.05l3.29.11a.47.47,0,0,0,.33-.12.35.35,0,0,0,.1-.32Zm5,21.74a13.61,13.61,0,0,0,2.15-2.67.25.25,0,0,0,0-.27.26.26,0,0,0-.25-.15l-5.44-.19a.23.23,0,0,0-.21.13.18.18,0,0,0,0,.23,17.15,17.15,0,0,0,3,2.94.46.46,0,0,0,.69,0Zm-.35-22.63a3.14,3.14,0,0,1-2.16,1.34.06.06,0,0,0,0,.09l3.61.13a.73.73,0,0,0,.7-.39,44.38,44.38,0,0,0,2.9-5.76.26.26,0,0,0-.06-.28.23.23,0,0,0-.24-.1l-4.22.27a.27.27,0,0,0-.28.15.41.41,0,0,0-.06.34c.13.58.25,1.18.35,1.8a3,3,0,0,1,.06.73,2.92,2.92,0,0,1-.6,1.68Zm20.23,24.79a4.86,4.86,0,0,1,1.7-3.62,6,6,0,0,1,7.91.27,4.85,4.85,0,0,1,1.45,3.74,4.77,4.77,0,0,1-1.71,3.63,6.14,6.14,0,0,1-7.9-.28A4.77,4.77,0,0,1,499.71,513.9Zm2.61-10.71-1.09-11.95v-3.8a3.55,3.55,0,0,1,1.15-2.78,3.67,3.67,0,0,1,2.78-1.07l2.33.08a3.68,3.68,0,0,1,2.7,1.27,3.58,3.58,0,0,1,1,2.85l-.27,3.79L509,503.42a3.4,3.4,0,0,1-1.19,2,3.28,3.28,0,0,1-4.39-.15A3.49,3.49,0,0,1,502.32,503.19Z"/><path class="cls-6" d="M255.43,62.84q.1-3,3.15-2.94t3,3.15l-.23,6.8q-.11,3-3.15,2.94h-.36q3.09,4.05,2.83,11.3l-1.16,33.29q-.57,16.11-16.66,15.54l-31.93-1.11q-7-.24-6.73-7.23t7.22-6.82l28.08,1c3.58.12,5.43-1.6,5.56-5.18L246,86.88c.12-3.58-1.6-5.43-5.18-5.56l-28.08-1q-7-.24-6.73-7.22V73q.24-7,7.22-6.74l31.93,1.11q6.26.22,10,2.86l0-.62Zm9.66.33c.07-2,1.12-3,3.15-2.93s3.09,1.12,3,3.15l-.23,6.8q-.12,3-3.15,2.94t-3-3.16Zm14.68,72q-6.36-2.55-4-9.1a177.35,177.35,0,0,0,6-20.89,123.51,123.51,0,0,0,2.47-20.48l.41-11.81q.24-6.9,7.12-6.65t6.74,7.13l-.41,11.81a163.14,163.14,0,0,1-2.07,21.89A138.78,138.78,0,0,1,289.62,130q-2.76,7.34-9.85,5.21ZM331.41,128q1.92,6.71-4.6,8.8-7.23,1.63-9.47-5.89a139.46,139.46,0,0,1-4.87-23.28,164.39,164.39,0,0,1-.53-22l.41-11.82q.24-6.89,7.22-6.64t6.64,7.13l-.41,11.81a122.84,122.84,0,0,0,1,20.6A176,176,0,0,0,331.41,128Zm12.17-51.1q.24-7,7.22-6.73l15.38.53q7,.26,6.73,7.23t-7.22,6.74l-15.38-.54q-7-.24-6.73-7.23Zm52.73,10.36q5.9,3,3.64,8.73-2.7,8.24-10,17.79a71.71,71.71,0,0,1-15.58,15.41q-8.31,5.85-24.26,8.78-6.21.94-7.67-6-.65-7.09,6-8,11.61-1.57,18.5-6.61a65.3,65.3,0,0,0,12.37-11.89,50.77,50.77,0,0,0,8.25-14.54q2.43-5.39,8.72-3.64Z"/></svg>