<svg id="レイヤー_1" data-name="レイヤー 1" xmlns="http://www.w3.org/2000/svg" xmlns:xlink="http://www.w3.org/1999/xlink" viewBox="0 0 1024 1024"><defs><style>.cls-1{fill:none;}.cls-2{clip-path:url(#clip-path);}.cls-3{fill:#ff24cb;}.cls-4{fill:#c13d8e;}.cls-5{fill:#ff6ab5;}.cls-6{fill:#df348e;}.cls-7{fill:gold;}.cls-8{fill:#250f74;}.cls-9{fill:#4617eb;}.cls-10{fill:#fff;}.cls-11{fill:#f3ac00;}.cls-12{fill:#f2ab00;}</style><clipPath id="clip-path"><rect class="cls-1" width="1024" height="1024"/></clipPath></defs><g class="cls-2"><polygon class="cls-3" points="512 1023.144 431.156 962.179 304.563 1010.687 277.406 943.249 117.469 974.573 146.625 907.261 0 916.372 0 895.526 50.406 858.564 0 858.564 0 854.715 0 800.064 0 799.137 0 738.517 0 737.59 0 682.94 0 646.165 5.5 646.165 5.25 645.992 1018.75 645.992 1018.5 646.165 1024 646.165 1024 682.94 1024 737.59 1024 738.517 1024 799.137 1024 800.064 1024 854.715 1024 858.564 973.594 858.564 1024 895.526 1024 916.372 877.375 907.261 906.531 974.573 746.594 943.249 719.438 1010.687 592.844 962.179 512 1023.144"/><polygon class="cls-3" points="512 281.38 431.156 353.645 304.563 296.146 277.406 376.082 117.469 338.954 146.625 418.741 0 407.941 0 432.65 50.406 476.463 0 476.463 0 481.025 0 545.805 0 546.903 0 618.759 0 619.857 0 684.637 0 728.226 5.5 728.226 5.25 728.431 1018.75 728.431 1018.5 728.226 1024 728.226 1024 684.637 1024 619.857 1024 618.759 1024 546.903 1024 545.805 1024 481.025 1024 476.463 973.594 476.463 1024 432.65 1024 407.941 877.375 418.741 906.531 338.954 746.594 376.082 719.438 296.146 592.844 353.645 512 281.38"/><rect class="cls-1" width="1024" height="1024"/><g class="cls-2"><path class="cls-4" d="M34.055,227.067a80.334,80.334,0,1,0,94.633,62.841,80.332,80.332,0,0,0-94.633-62.841M60.548,358.309a53.564,53.564,0,1,1,41.908-63.1,53.565,53.565,0,0,1-41.908,63.1"/><path class="cls-5" d="M-139.484,194.108l.046.276c-12.538,5.517-18.36,29.585-12.908,56.647,5.451,27.047,20.168,46.984,33.875,47.189l.06.29,397.818,28.576L216.128,13.616Z"/><path class="cls-6" d="M319.637,153.3C301.746,67.526,258.643,4.16,222.723,11.389c-23.178,4.69-37.677,37.731-40.55,83.675l15.139-1.915c21.631-2.735,35.56-1.675,47.935,7.222,10.143,7.409,15.772,17.671,17.525,31.5.836,6.545.679,13.455-2.526,20.515a28.178,28.178,0,0,1-11.116,13.162,46.45,46.45,0,0,1,23.173,9.332c10.257,8.406,13.714,19.746,15.032,30.042,1.514,12.068-.282,22.016-7.258,31.555-11.541,15.791-32.135,20.686-44.964,22.3l-20.385,2.589c20.7,43.383,47.71,69.86,71.592,65.032,24.629-4.965,39.463-41.881,40.982-92.309-9.918-8.815-16.507-21.6-18.358-36.24-2.011-15.9,1.62-31.956,10.693-44.541"/><path class="cls-6" d="M261.83,205.333c-.867-6.781-4.193-13.006-9-16.75-7.912-5.909-18.318-5.353-27.369-4.21L209.364,186.4l6.37,50.291,15.583-1.964c7.279-.932,18.7-3.642,24.573-9.749,4.537-4.657,6.9-12.1,5.94-19.646"/><path class="cls-6" d="M234.542,155.126c5.078-6.275,4.843-14.162,4.118-19.947-.643-5.037-2.147-10.975-8.062-15.338-6.491-4.768-13.867-4.612-21.175-3.708l-8.787,1.125,6.053,48.021,7.792-.968c6.3-.8,14.752-2.643,20.061-9.185"/><path class="cls-7" d="M280.081,236.472c6.962-9.539,8.772-19.488,7.258-31.555-1.317-10.3-4.775-21.637-15.046-30.043a46.557,46.557,0,0,0-23.159-9.332,28.022,28.022,0,0,0,11.1-13.148c3.22-7.06,3.363-13.97,2.527-20.529-1.74-13.825-7.383-24.087-17.512-31.5-12.375-8.9-26.3-9.957-47.935-7.222l-15.139,1.915c-1.63,25.854.4,55.762,6.721,87.08,6,29.729,15.081,56.713,25.82,79.216l20.4-2.589c12.829-1.6,33.423-6.506,44.964-22.3M200.636,117.249l8.788-1.11c7.307-.918,14.683-1.075,21.174,3.708,5.915,4.362,7.419,10.3,8.062,15.337.725,5.785.96,13.659-4.118,19.947-5.309,6.528-13.765,8.368-20.061,9.171l-7.792.982ZM215.73,236.693l-6.37-50.29,16.109-2.029c9.037-1.142,19.443-1.7,27.355,4.21,4.808,3.744,8.149,9.969,9,16.75.964,7.542-1.4,14.99-5.94,19.646-5.871,6.108-17.294,8.818-24.573,9.749Z"/><path class="cls-7" d="M382.22,215.672c-4.542,4.393-9.372,6.544-16.181,7.384-6.02.771-13.206.66-19.7-4.386-5.961-4.611-10.306-12.76-11.754-20.224l75.934-9.62-.372-3.031c-1.4-11.043-5.137-30.506-20.485-42.873-7.118-5.743-18.871-11.668-35.713-9.529-15.1,1.9-25.961,8.885-33.653,18.8-.257.351-.4.756-.66,1.107.167.788.36,1.561.513,2.335a347.768,347.768,0,0,1,7.152,78.446c.818.734,1.5,1.61,2.357,2.289,11.332,8.775,23.337,10.84,37.425,9.055,11.306-1.432,22.305-5.382,30.165-12,6.249-5.129,11.9-13.009,15.42-21.628l-22.084-8.948a38.824,38.824,0,0,1-8.362,12.822m-42.615-52.113c2.862-3.7,7.948-7.905,16.515-8.97,8.04-1.014,13.7,1.314,17.35,3.927a25.82,25.82,0,0,1,9.359,13.374L333.8,178.1a27.881,27.881,0,0,1,5.807-14.54"/><path class="cls-7" d="M320.152,155.637c-.166-.788-.346-1.547-.512-2.335-9.073,12.585-12.7,28.64-10.693,44.541,1.851,14.642,8.44,27.425,18.358,36.24a348.584,348.584,0,0,0-7.153-78.446"/><polygon class="cls-7" points="482.348 182.819 444.345 124.773 414.66 128.509 471.222 212.084 441.632 291.199 469.296 287.693 532.872 113.561 505.194 117.068 482.348 182.819"/><path class="cls-7" d="M595.43,102.862c-31.955,4.039-53.674,30.3-49.539,62.972,4.09,32.452,31.729,52.982,63.669,48.944s53.609-30.8,49.492-63.236c-4.121-32.687-31.682-52.719-63.622-48.68m11.344,89.773c-19.36,2.446-33.131-9.352-35.705-29.723-3.043-24.149,11.55-35.957,27.16-37.922,15.583-1.978,32.667,5.824,35.724,29.973,2.575,20.384-7.818,35.24-27.179,37.672"/><path class="cls-7" d="M763.75,96.126c-3.83-4.094-13.373-12.859-33-10.367-6.034.757-18,3.033-27.068,16.186l-1.253-9.8L677.8,95.255l13.374,105.868,24.647-3.107-6.406-50.789c-4.342-34.2,6.785-37.15,17.856-38.55,9.3-1.175,19.458-1.685,22.854,25.218l7.434,58.843,24.662-3.107L774,124.74c-2.047-16.344-5.484-23.316-10.25-28.614"/><path class="cls-7" d="M892.348-10.563,867.7-7.442l11.346,89.787c-11.7-11.806-25.537-12.106-33.343-11.124-27.913,3.525-48.879,27.649-44.533,62.081,3.7,29.172,25.727,54,58.429,49.853a40.985,40.985,0,0,0,29.873-18.343l1.4,11.085,24.648-3.121ZM860.066,160.623c-17.866,2.254-31.354-11.63-33.685-29.98-2.382-18.849,7.274-35.411,25.14-37.665,15.61-1.992,31.333,7.276,34.248,30.428,2.813,22.129-10.092,35.239-25.7,37.217"/><path class="cls-7" d="M499.036,247.245l119.778-2.955,2.9,117.449-119.778,2.954-.493-19.963,97.654-2.408L597.182,264.8l-97.654,2.409Z"/><path class="cls-7" d="M687.313,362.451l-23.29.575-3.012-122.107,130.758-3.226L794.78,359.8Zm-.5-20.3,84.178-2.076-2.011-81.515L684.8,260.64Z"/><path class="cls-7" d="M822.9,258.066l64.214-1.584-.767-31.109,23.291-.575.767,31.109,53.235-1.313.52,21.128-53.234,1.313.095,3.826q.915,37.1-14.246,56.865t-50.093,27.453l-7.5-20.457q27.813-6.178,38.539-20.093t10-43.193l-.094-3.827-64.214,1.584Z"/></g><circle class="cls-7" cx="328.201" cy="160.7" r="10.909"/><rect class="cls-1" x="316.292" y="148.791" width="23.818" height="23.818"/><circle class="cls-7" cx="322.518" cy="180.767" r="10.909"/><rect class="cls-1" x="310.609" y="168.858" width="23.818" height="23.818"/><circle class="cls-7" cx="322.518" cy="202.585" r="10.909"/><rect class="cls-1" x="310.609" y="190.676" width="23.818" height="23.818"/><circle class="cls-7" cx="329.337" cy="217.817" r="10.909"/><rect class="cls-1" x="317.428" y="205.908" width="23.818" height="23.818"/><circle class="cls-7" cx="334.564" cy="225.317" r="10.909"/><rect class="cls-1" x="322.655" y="213.408" width="23.818" height="23.818"/><g class="cls-2"><polygon class="cls-8" points="-54.714 557.831 84.36 903.363 651.304 943.008 651.446 943.435 1153.55 978.545 1014.48 632.961 539.456 599.745 539.311 599.369 -54.714 557.831"/></g><g class="cls-2"><polygon class="cls-9" points="-54.723 557.801 69.134 865.56 574.099 900.87 574.224 901.224 1103.362 938.225 979.431 630.46 474.466 595.15 474.341 594.796 -54.723 557.801"/></g><path class="cls-10" d="M74.867,647.823q-1.605,2.827-5.193,1.911L42.9,639.964q-3.208-1.26-1.729-5.184l24.89-75.817q1.5-4.287,6.845-2.188l36.568,17.2q3.579,1.1,1.548,5.174L74.867,647.823Z"/><path class="cls-10" d="M83.273,581.146l84.619,23.533q4.094,1.673,2.588,6.138L137.826,723.7q-1.536,5.008-6.72,3.285L86.147,713.713q-5.033-1.176-2.416-5.947l41.892-80.929L63.35,628.121Z"/><path class="cls-10" d="M136.824,593.593q-3.773-.923-2.293-4.849l7.917-33.053q1.134-4.306,5.231-2.636l22.313,8.081q3.569,1.278,2.1,5.021l-10.9,31.077q-.927,3.771-5.384,2.083l-18.98-5.724Z"/><path class="cls-10" d="M166.583,601.882q-3.771-.922-2.292-4.849l9.111-28.079q1.1-3.762,5.04-2.464l15.63,7.185q3.377,1.452,1.929,4.83l-9.522,25.511q-1.306,4.119-5.775,2.608l-14.121-4.742Z"/><path class="cls-10" d="M267.772,670.3l-57.8,13.159q-4.252,1.236-5.29-3.187L193.5,633.3q-1.227-4.429,3.865-4.345l110.725,4.348q6.376-.211,4.125,4.581L281.9,730.338q-1.072,3.034-4.477,2.13l-18.1-5.132q-2.856-1.062-2.121-4.659Z"/><path class="cls-10" d="M214.424,626.216q-4.4.683-4.908-3.531l-5.443-48.85q-.462-5.113,5.307-4.087l84.855,12.087q5.22,1,4.249,5.679l-4.577,24.861q-.622,4.878-5.182,5.185l-74.3,8.656Z"/><path class="cls-10" d="M387.166,651.64q-1.223,2.484-4.621,1.394L324.526,639.08q-4.315-.951-3.037-4.524l16.468-46.974q1.115-3.94,5.336-1.176l52,35.1a3.811,3.811,0,0,1,1.757,4.639l-9.884,25.493Z"/><path class="cls-10" d="M344.933,707.813q-2.962-2.517-.659-4.764L434.52,619.2q2.31-2.424,4.563-.306L452.147,633.4q1.879,2.282-.247,4.716l-73.1,96.755q-2.357,3.329-5.308.631l-28.561-27.689Z"/><path class="cls-10" d="M464.685,657.7q-4.223.692-4.488-4.6l-4.211-48.057q-.317-4.383,6-3.324L556.517,616.5q-.466,15.8,16.112,29.22l-40.62,94.818q-2.025,3.893-5.747,2.064L491.8,723.331q-3.573-1.278-1.366-5.164l50.125-67.947L464.685,657.7Z"/><path class="cls-10" d="M551.163,628.4q-2.877-11.065-.209-18.564t7.563-10.7a18.081,18.081,0,0,1,11.867-2.561q6.966.637,13.118,6.508a34.064,34.064,0,0,1,8.9,14.2,30.534,30.534,0,0,1,1.374,15.441q-1.375,7.116-4.852,11.023A17.173,17.173,0,0,1,579.732,649a17.957,17.957,0,0,1-10.7-.561,29.579,29.579,0,0,1-9.758-6.422Q554.5,637.494,551.163,628.4Z"/><path class="cls-10" d="M563.4,623.952a11.554,11.554,0,0,0,2.756,4.692,10.128,10.128,0,0,0,3.342,2.176,5.893,5.893,0,0,0,3.537.185,5.729,5.729,0,0,0,3-1.753,7.9,7.9,0,0,0,1.651-3.733,9.925,9.925,0,0,0-.455-5.207,11.255,11.255,0,0,0-3.027-4.706,7.977,7.977,0,0,0-4.34-2.229,5.692,5.692,0,0,0-3.952.794,6.643,6.643,0,0,0-2.553,3.595A11.052,11.052,0,0,0,563.4,623.952Z"/><path class="cls-10" d="M611.422,686.492q-3.486.548-3.848-2.93l-9.743-67.446q-.692-4.218,4.047-4.335l41.4-2.195q4.372-.134,4.154,4.037l-6.678,64.949a3.135,3.135,0,0,1-2.711,3.131l-26.625,4.789Z"/><path class="cls-10" d="M672.886,606.954q.923-3.773,4.878-2.837L722.877,621.4q2.823,1.607,1.538,5.356L672.651,750.271q-1.053,2.673-4.286,1.958l-22.2-6.8q-2.875-.7-2.12-4.659l28.839-133.814Z"/><path class="cls-10" d="M288.205,794.765c.221-4.219-2.226-6.286-8.026-6.59-5.624-.295-8.708,1.394-10.252,5.632L253.285,790.2c2.029-5.093,4.11-7.8,7.939-10.246,4.92-3.091,11.511-4.419,20.035-3.973,6.5.341,12.766,1.9,16.095,3.928,5.464,3.37,7.671,8.332,7.257,16.241l-1.244,23.728a101.722,101.722,0,0,0-.038,12.51L286.28,831.5l.212-4.042c-5.119,3.522-10.118,4.757-17.324,4.379-6.679-.351-11.605-2.193-14.95-5.63a15.839,15.839,0,0,1-4.207-12.2c.29-5.536,2.718-9.814,7.088-12.494,4.648-2.93,10.632-4.466,18.577-4.754,3.446-.171,6.087-.122,12.423.034Zm-.695,13.268c-7.83-.234-11.632.007-15.3.961-3.218.889-5.267,2.984-5.4,5.532-.166,3.164,2.374,5.148,6.944,5.387a16.291,16.291,0,0,0,10.105-2.818,8.868,8.868,0,0,0,3.518-6.6Z"/><path class="cls-10" d="M312.645,832.878a96.956,96.956,0,0,0,1.4-13.232l1.419-27.067a81.82,81.82,0,0,0-.007-13.306l17.4.912-.193,3.69a9.236,9.236,0,0,1-.153,1.228s-.009.174-.023.438c0,.088-.014.265-.023.439,4.74-4.686,10.22-6.69,17.162-6.327,4.57.241,8.294,1.493,11.083,3.754a10.822,10.822,0,0,1,3.372,4.582c5.73-5.074,11.21-7.078,18.855-6.677,12.567.659,18.623,7.848,17.927,21.118l-1.142,21.794a97.1,97.1,0,0,0,.012,13.217l-18.278-.958a93.622,93.622,0,0,0,1.4-13.231l.949-18.1c.345-6.59-1.454-9.24-6.464-9.5-4.481-.235-8.708,3.068-11.213,8.841l-.94,17.927a99.677,99.677,0,0,0,.012,13.218l-18.277-.958a95.426,95.426,0,0,0,1.4-13.232l.949-18.1c.193-3.691-.071-5.378-1.135-6.933a5.679,5.679,0,0,0-4.719-2.45c-4.745-.249-8.967,2.966-11.741,8.814l-.93,17.751a99.208,99.208,0,0,0,.008,13.305Z"/><path class="cls-10" d="M446.034,803.036c.221-4.219-2.226-6.286-8.025-6.59-5.624-.3-8.709,1.395-10.253,5.632l-16.641-3.6c2.029-5.093,4.11-7.8,7.938-10.246,4.921-3.091,11.511-4.419,20.035-3.973,6.5.341,12.766,1.9,16.1,3.928,5.463,3.37,7.67,8.332,7.256,16.241L461.2,828.151a102.121,102.121,0,0,0-.038,12.51l-17.049-.893.212-4.042C439.2,839.247,434.2,840.482,427,840.1c-6.679-.35-11.605-2.193-14.95-5.629a15.836,15.836,0,0,1-4.206-12.2c.29-5.537,2.717-9.815,7.087-12.5,4.648-2.929,10.632-4.465,18.577-4.754,3.447-.17,6.087-.122,12.423.035Zm-.695,13.269c-7.83-.235-11.632.007-15.3.961-3.218.888-5.267,2.983-5.4,5.532-.166,3.164,2.373,5.147,6.943,5.387a16.289,16.289,0,0,0,10.105-2.819,8.867,8.867,0,0,0,3.518-6.6Z"/><path class="cls-10" d="M515.605,802.188c-3.523,3.339-6.21,5.842-7.889,7.605l-15.564,16.19c-.744.755-1.027,1.092-1.766,1.758a24.371,24.371,0,0,1,2.641.051l9.578.5a115.145,115.145,0,0,0,13.3.08l-.824,15.73a110.1,110.1,0,0,0-13.326-1.316l-21.968-1.151c-7.031-.368-9.052-.474-11.878-.357l.7-13.357c3.6-3.16,5.924-5.417,7.88-7.43l15.11-15.95a22.41,22.41,0,0,1,1.767-1.759l-2.548-.133-5.888-.308a113.851,113.851,0,0,0-13.3-.081l.806-15.379a121.431,121.431,0,0,0,13.237,1.311l18.542.972c7.47.391,9.227.483,12.053.367Z"/><path class="cls-10" d="M521.006,816.834c.922-17.575,12.755-28.146,30.506-27.217s28.414,12.681,27.5,30.08c-.916,17.488-13.123,28.48-30.612,27.563C530.74,846.334,520.08,834.5,521.006,816.834Zm16.789.792c-.511,9.754,3.75,15.881,11.4,16.281s12.339-5.081,12.85-14.835c.517-9.842-3.662-15.876-11.132-16.267C543.176,802.4,538.3,807.96,537.795,817.626Z"/><path class="cls-10" d="M584.716,847.137a98.489,98.489,0,0,0,1.4-13.233l1.419-27.066a87.45,87.45,0,0,0-.007-13.307l17.487.917-.194,3.691c-.027.528-.183,1.841-.216,2.456,5.813-4.983,11.289-6.9,18.494-6.521,6.064.318,10.809,2.24,13.89,5.662,3.331,3.7,4.6,8.084,4.237,15.028l-1.157,22.056a112.649,112.649,0,0,0,.012,13.218L621.8,849.08a100.189,100.189,0,0,0,1.4-13.232l.945-18.016c.183-3.515-.09-5.027-1.067-6.576-1.058-1.642-3.033-2.626-5.67-2.764-4.922-.258-9.476,2.587-13.578,8.541l-.93,17.751a107.3,107.3,0,0,0,.008,13.306Z"/><path class="cls-10" d="M719.971,803.557c-3.09.1-3.441.085-11.946.96l-12.048,1.219,1.529,11.184,16.39-1.7a78.086,78.086,0,0,0,12.792-1.973l1.859,14.989c-2.471.047-3.178.1-4.506.2-.526-.028-3.186.274-7.968.728L699.33,830.85l1.8,12.783c1.01,7.631,1.129,8.694,2.018,11.913L686.3,857.483c.137-2.636-.025-4.583-.943-12.3l-1.621-12.773L666.2,834.224a88.509,88.509,0,0,0-12.164,1.742l-1.6-14.975a97.167,97.167,0,0,0,12.641-.748L682,818.486l-1.441-11.178-12.224,1.21a124.249,124.249,0,0,0-13.223,1.774l-1.59-15.063a99.559,99.559,0,0,0,12.993-.729l12.316-1.294-.645-4.527c-.889-6.568-1.1-7.549-1.763-10.05l16.3-1.614a70.885,70.885,0,0,0,.718,9.819l.718,4.8,11.956-1.136,6.2-.643a52.447,52.447,0,0,0-4.572-8.611l8.848-2.357a54.94,54.94,0,0,1,6.59,13.828l-4.3,1.272Zm9.133-27.984a62.679,62.679,0,0,1,6.607,13.477l-8.509,2.638a69.732,69.732,0,0,0-6.5-13.823Z"/><path class="cls-10" d="M815.862,796.511c-1.044,1.442-1.243,1.873-2.1,4.824-4.812,16.138-10.66,26.847-19.621,36.422-8.684,9.326-18.894,15.84-34.734,22.147-3.077-6.857-4.8-9.327-10.3-15.342,12.87-3.468,22.379-8.345,30.516-15.673a54.363,54.363,0,0,0,15.951-25.246l-36.469-1.912a121.766,121.766,0,0,0-14.791-.247l.834-15.905c3.747.813,6.378,1.038,14.991,1.489l41.74,2.188a13.773,13.773,0,0,0,6.475-.8Z"/><path class="cls-10" d="M841.369,863.055a125.855,125.855,0,0,0,1.232-13.417l2.68-51.146a83.464,83.464,0,0,0,.053-12.774l16.959.888a114.08,114.08,0,0,0-1.11,12.808l-.632,12.039a186.6,186.6,0,0,1,39.026,20.375l-9.132,14.5a163.17,163.17,0,0,0-26.879-16.741,21.141,21.141,0,0,1-3.862-1.964l-1.2,22.849a129.172,129.172,0,0,0-.179,13.471Z"/><path class="cls-10" d="M980.924,831.6a45.314,45.314,0,0,0,15.58,10.422,55.033,55.033,0,0,0-7.8,12.631,73.836,73.836,0,0,1-10.362-7.415c-1.154,10.249-2.738,16.952-4.65,19.76-2.481,3.658-6.334,4.866-14.242,4.452a69.1,69.1,0,0,1-6.93-.628,43.814,43.814,0,0,0-2.5-12.819,63.041,63.041,0,0,0,7.7,1.021c3.953.207,4.763-.105,5.3-1.838a50.574,50.574,0,0,0,1.87-10.476l-10.457-.549c-2.159,7.554-5.219,12.152-10.737,16.532-5.327,4.128-10.461,6.238-20.074,8.114a43.911,43.911,0,0,0-6.133-12.483c7.7-.654,12.173-1.919,16.364-4.518,3.555-2.281,5.062-4.14,6.607-8.376-3.168-.078-5.545-.116-7.757.034l.226-4.307c-4.231,3.392-6.964,5.1-14.22,9.035a45.149,45.149,0,0,0-7.776-11.333A71.721,71.721,0,0,0,927.76,828.81l-4.131-.216a75.726,75.726,0,0,0-9.865-.077l.654-12.479a59.224,59.224,0,0,0,9.814,1.044l13.269.7c1.152-1.79,1.638-2.645,2.7-4.44l-10.633-.558c-4.216-.22-6.859-.272-9.859-.164l.658-12.566a56.014,56.014,0,0,0,8.848.992,56.793,56.793,0,0,0-5.08-8.99l12.75-2.856a71.951,71.951,0,0,1,5.775,12.551l2.637.138a50,50,0,0,0,3.1-13.848l14.422,2.254c-.527,1.646-.739,2.34-1.395,4.772-.439,1.652-1.368,4.248-2.511,7.536l6.328.332a59.635,59.635,0,0,0,7.152-12.051L985.486,795a86.426,86.426,0,0,1-6.269,8.659l1.845.1a58.494,58.494,0,0,0,10.045,0l-.658,12.566c-2.974-.421-5.693-.65-10-.876l-10.193-.534A43.821,43.821,0,0,0,972.3,819.6l13.006.681a59.669,59.669,0,0,0,9.957-.007l-.655,12.479a78.884,78.884,0,0,0-9.906-.96Zm-12.986,3.99a52.512,52.512,0,0,1-3.182-4.837l-20.3-1.064a51.5,51.5,0,0,1-4.023,4.46Zm-8.819-16.676c-.615-1.706-.767-2.155-1.517-4.661l-3.252-.171c-.791,1.632-1.377,2.748-2.349,4.459Z"/><polygon class="cls-11" points="692.24 42.719 704.838 86.158 660.723 75.159 692.24 42.719"/><polygon class="cls-11" points="978.32 86.158 1023.326 90.631 996.699 127.483 978.32 86.158"/><path class="cls-12" d="M230.591,55.767h-3.872V46.359h-9.375V42.52h9.375V33.4h3.872v9.12h9.375v3.839h-9.375Z"/><path class="cls-12" d="M551.332,98.148H547.46V88.741h-9.375V84.9h9.375V75.782h3.872V84.9h9.375v3.84h-9.375Z"/><path class="cls-12" d="M830.4,24.332h-3.872V14.925h-9.375v-3.84h9.375V1.966H830.4v9.119h9.375v3.84H830.4Z"/><path class="cls-12" d="M1015.093,246.506h-3.872V237.1h-9.375v-3.84h9.375V224.14h3.872v9.119h9.375v3.84h-9.375Z"/><path class="cls-12" d="M33.162,328.2H29.29V318.8H19.915v-3.84H29.29v-9.119h3.872v9.119h9.375v3.84H33.162Z"/><path class="cls-12" d="M243.99,351.387h-3.872V341.98h-9.375v-3.84h9.375v-9.119h3.872v9.119h9.375v3.84H243.99Z"/><path class="cls-12" d="M433.73,44.332h-3.872V34.925h-9.375v-3.84h9.375V21.966h3.872v9.119h9.375v3.84H433.73Z"/><path class="cls-12" d="M982.242,382.786H978.37v-9.407H969v-3.84h9.375V360.42h3.872v9.119h9.375v3.84h-9.375Z"/><path class="cls-11" d="M731.508,704.3a.874.874,0,0,0-.814.382c-.546.812-1.144,1.751-1.775,2.744-2.325,3.657-5.218,8.208-8.293,10.7s-8.127,4.373-12.187,5.887c-1.1.411-2.146.8-3.054,1.166a.87.87,0,0,0-.161,1.531c.812.546,1.751,1.144,2.745,1.775,3.657,2.325,8.207,5.218,10.7,8.293s4.373,8.127,5.887,12.188c.411,1.1.8,2.145,1.166,3.053a.87.87,0,0,0,1.531.161c.547-.812,1.144-1.751,1.776-2.744,2.324-3.657,5.218-8.208,8.292-10.7s8.131-4.373,12.192-5.886c1.1-.411,2.141-.8,3.049-1.167a.87.87,0,0,0,.161-1.531c-.812-.546-1.747-1.144-2.74-1.775-3.657-2.325-8.212-5.218-10.7-8.293s-4.372-8.131-5.886-12.192c-.411-1.1-.8-2.141-1.167-3.049A.871.871,0,0,0,731.508,704.3Z"/><path class="cls-11" d="M339.163,902.992a.7.7,0,0,0-.6.406c-.333.715-.69,1.537-1.068,2.408-1.389,3.2-3.117,7.19-5.251,9.559s-5.917,4.5-8.957,6.221c-.827.466-1.607.908-2.284,1.313a.7.7,0,0,0,.065,1.239c.715.332,1.538.69,2.408,1.067,3.2,1.389,7.19,3.118,9.559,5.251s4.5,5.917,6.222,8.958c.466.826.907,1.607,1.313,2.283a.7.7,0,0,0,1.238-.065c.333-.715.69-1.538,1.068-2.408,1.389-3.2,3.118-7.19,5.251-9.559s5.92-4.5,8.961-6.221c.826-.467,1.6-.908,2.28-1.313a.7.7,0,0,0-.065-1.239c-.715-.333-1.535-.69-2.4-1.067-3.2-1.39-7.193-3.118-9.562-5.251s-4.5-5.92-6.222-8.961c-.466-.826-.907-1.6-1.313-2.28A.7.7,0,0,0,339.163,902.992Z"/><path class="cls-11" d="M788.1,602.441a.641.641,0,0,0-.6.28c-.4.6-.839,1.284-1.3,2.013-1.7,2.682-3.827,6.02-6.082,7.845s-5.961,3.208-8.939,4.318c-.809.3-1.573.587-2.239.855a.638.638,0,0,0-.118,1.123c.6.4,1.284.839,2.013,1.3,2.682,1.7,6.019,3.827,7.845,6.082s3.208,5.96,4.318,8.939c.3.808.587,1.573.855,2.239a.638.638,0,0,0,1.123.118c.4-.6.839-1.284,1.3-2.013,1.7-2.682,3.827-6.019,6.082-7.845s5.963-3.207,8.941-4.317c.809-.3,1.571-.588,2.237-.856a.638.638,0,0,0,.118-1.123c-.6-.4-1.281-.839-2.01-1.3-2.682-1.705-6.022-3.827-7.848-6.082s-3.208-5.963-4.318-8.941c-.3-.809-.587-1.571-.855-2.237A.641.641,0,0,0,788.1,602.441Z"/><path class="cls-11" d="M17.5,601.076a.7.7,0,0,0-.6.406c-.332.715-.689,1.537-1.067,2.408-1.389,3.2-3.118,7.19-5.251,9.559s-5.917,4.5-8.957,6.221c-.827.466-1.607.908-2.284,1.313a.7.7,0,0,0-.341.639.7.7,0,0,0,.406.6c.715.332,1.538.69,2.408,1.067,3.2,1.389,7.19,3.118,9.559,5.251s4.5,5.917,6.222,8.958c.466.826.907,1.607,1.313,2.283a.7.7,0,0,0,1.238-.065c.333-.715.69-1.538,1.067-2.408,1.39-3.2,3.119-7.19,5.252-9.559s5.92-4.5,8.961-6.221c.825-.467,1.6-.908,2.28-1.313a.7.7,0,0,0-.065-1.239c-.715-.333-1.535-.69-2.405-1.067-3.2-1.39-7.193-3.118-9.562-5.251s-4.5-5.92-6.222-8.961c-.466-.826-.907-1.6-1.313-2.28A.7.7,0,0,0,17.5,601.076Z"/><path class="cls-11" d="M995.21,959.87a.87.87,0,0,0-.814.381c-.547.813-1.144,1.751-1.776,2.745-2.325,3.657-5.218,8.207-8.292,10.7s-8.127,4.373-12.188,5.887c-1.1.411-2.146.8-3.054,1.166a.87.87,0,0,0-.161,1.531c.812.547,1.752,1.144,2.745,1.776,3.657,2.325,8.207,5.217,10.7,8.292s4.374,8.127,5.887,12.188c.411,1.1.8,2.145,1.166,3.054a.87.87,0,0,0,1.531.16c.547-.812,1.144-1.751,1.776-2.744,2.325-3.657,5.218-8.208,8.292-10.7s8.131-4.372,12.192-5.886c1.1-.411,2.142-.8,3.05-1.167a.87.87,0,0,0,.161-1.531c-.812-.546-1.748-1.143-2.741-1.775-3.657-2.325-8.211-5.218-10.7-8.292s-4.373-8.131-5.887-12.193c-.411-1.1-.8-2.141-1.167-3.049A.869.869,0,0,0,995.21,959.87Z"/><path class="cls-11" d="M59.846,820.6a.706.706,0,0,0-.6.406c-.332.716-.689,1.538-1.067,2.408-1.389,3.2-3.118,7.19-5.251,9.559s-5.917,4.5-8.957,6.222c-.827.466-1.607.907-2.284,1.313a.7.7,0,0,0,.065,1.238c.715.333,1.538.69,2.408,1.068,3.2,1.389,7.19,3.118,9.559,5.251s4.5,5.916,6.222,8.957c.466.826.907,1.607,1.313,2.284a.7.7,0,0,0,1.238-.065c.333-.716.69-1.538,1.067-2.408,1.39-3.2,3.119-7.19,5.252-9.559s5.92-4.5,8.961-6.222c.825-.466,1.6-.907,2.28-1.313a.7.7,0,0,0-.065-1.238c-.716-.333-1.535-.69-2.405-1.068-3.2-1.389-7.193-3.117-9.562-5.251s-4.5-5.92-6.222-8.961c-.466-.825-.907-1.6-1.313-2.28A.7.7,0,0,0,59.846,820.6Z"/><path class="cls-10" d="M178.715,829.705a103.629,103.629,0,0,1-18.186-17.841l-.629,12.012-18.078-.947-1.045,19.935-14.488-.759,1.045-19.935-17.087-.9.649-12.382,17.087.895,1.473-28.107c-8.273,15.708-24.281,34.486-37.638,45.334L80.49,818.1c17.124-11.644,34.031-33.355,41.221-49.74L84.317,766.4l.7-13.374,45.814,2.4,1.084-20.679,12.1,1.256c1.6.207,4.549.859,4.478,2.222-.026.5-.417.847-1.186,1.3-.776.58-1.166.932-1.192,1.428l-.8,15.23,45.32,2.374-.7,13.375L151.057,769.9c7,20.358,21.4,37,38.331,50.433Zm-34.842-45.9-1.4,26.745,17.83.934C150.054,798.527,146.416,789.77,143.873,783.8Z"/><path class="cls-10" d="M225.55,824.461l-10.194-.534.859-16.391-16.333-.855.532-10.137,16.333.855.843-16.1,10.194.534-.844,16.1,16.333.856-.531,10.137-16.333-.857Z"/><path class="cls-10" d="M683.267,941.054c.592,4.625,1.323,6.612,3.421,9.088,3.544,4.085,8.988,6.458,15.651,6.806,10.827.568,17.913-4.49,18.356-12.958.3-5.691-2.244-10.279-6.87-12.331a40.019,40.019,0,0,0-12.815-2.481c-5.413-.283-11.675-.334-17.117-.062l1.251-23.876a122.058,122.058,0,0,0,14.67,1.6c13.188.691,19.945-3.409,20.411-12.294.392-7.5-4.657-12.076-13.819-12.556-9.856-.516-15.057,3.108-17.6,11.884L659.042,888c3.089-8.469,5.528-12.517,10.225-17.142,8.948-8.718,21.966-12.77,38.9-11.882,15.131.792,27.406,5.613,34.919,13.663,4.867,5.4,7.155,12.207,6.74,20.119-.77,14.715-9.163,23.462-25.324,26.373,8.4,1.693,12.882,3.878,17.522,8.3a27.374,27.374,0,0,1,8.085,21.025c-.371,7.079-2.656,13.5-6.52,18.172A34.824,34.824,0,0,1,730,976.354c-7.393,2.954-18.747,4.447-29.158,3.9-12.493-.654-24.834-4.225-31.937-9.469a37.63,37.63,0,0,1-13.359-18.657,51.771,51.771,0,0,1-1.976-7.482Z"/><path class="cls-10" d="M780.069,905.353c-5.66-.3-11.548-.388-16.469-.208l.924-17.634c4.766.686,9.979,1.179,16.291,1.51l66.94,3.508c6.1.32,11.114.364,16.252.2l-.924,17.633c-4.875-.693-10.523-1.206-15.966-1.491L809.566,906.9c-.548,6.3-.8,9.018-1.326,12.81l29.714,1.558a140.944,140.944,0,0,0,15.267.254c-.589,2.915-.589,2.915-1.7,15.845-1.486,17.931-4.375,33.5-7.227,40-3.836,8.641-9.083,10.876-23.45,10.123-3.484-.182-7.281-.6-13.028-1.338a50.607,50.607,0,0,0-3.154-16.863,107.513,107.513,0,0,0,16.556,2.722c4.137.217,6.25-.546,7.561-2.658,2.165-3.817,4.471-16.576,5.761-32.878l-28.952-1.518c-2.547,11.108-6.05,19.655-11.4,28-6.885,10.554-13.431,16.759-25.036,23.682a59.718,59.718,0,0,0-11.088-15.425c9.1-4.98,13.662-8.67,18.569-14.852,6.769-8.378,11.143-18.953,13.484-32.365a128.037,128.037,0,0,0,2.035-18.01Z"/><path class="cls-10" d="M888.785,978.174c-.376,7.182-.461,10.889-.174,13.742l-18.176-.952a107.257,107.257,0,0,0,1.508-14.219l3.794-72.381a105.854,105.854,0,0,0,.153-11.234c4.009.537,7.16.811,14.235,1.182l65.959,3.457a127.741,127.741,0,0,0,13.737.284,102.777,102.777,0,0,0-1.262,13.686l-3.686,70.313c-.33,6.313-3.159,10.312-8.132,11.47-2.434.636-6.587.747-12.247.45-2.938-.155-7.395-.5-12.506-.874a54.006,54.006,0,0,0-4.163-16.372c7.151,1.031,12.031,1.614,15.3,1.785,4.245.222,5.139-.168,5.241-2.128l1.056-20.135L890.1,953.14Zm24.458-66.823-20.9-1.1-1.438,27.428,20.9,1.1Zm36.985,29.44,1.437-27.428-21.986-1.151-1.438,27.428Z"/><path class="cls-11" d="M902.11,465.879a.7.7,0,0,0-.645.33c-.417.669-.872,1.442-1.353,2.26-1.769,3.01-3.97,6.756-6.376,8.848s-6.422,3.75-9.65,5.083c-.876.362-1.705.705-2.426,1.025a.7.7,0,0,0-.086,1.237c.669.418,1.442.872,2.26,1.353,3.01,1.769,6.756,3.971,8.848,6.377s3.75,6.421,5.083,9.649c.362.876.705,1.7,1.025,2.426a.7.7,0,0,0,1.237.087c.418-.67.872-1.442,1.353-2.26,1.769-3.011,3.971-6.757,6.377-8.848s6.425-3.75,9.652-5.083c.877-.362,1.7-.7,2.423-1.025a.7.7,0,0,0,.087-1.238c-.669-.417-1.439-.872-2.257-1.352-3.011-1.769-6.759-3.971-8.851-6.377s-3.75-6.425-5.083-9.653c-.362-.876-.7-1.7-1.025-2.423A.7.7,0,0,0,902.11,465.879Z"/><path class="cls-10" d="M463.046,490.987a96.9,96.9,0,0,0-10.008-.124l.675-12.884c3.38.479,7.364.888,11.758,1.119l21.772,1.14.2-3.895c-19.107-.4-19.107-.4-29.4-.84a58.955,58.955,0,0,0-4.118-13.134c4.488.335,6.885.461,9.182.581,28.662,1.5,53.53.9,64.573-1.522l8.091,13.742c-1.1.043-4.42.269-10.044.576-9.64.5-14.055.666-22.869.7l-.241,4.594,23.069,1.209a104.6,104.6,0,0,0,11.811.118l-.675,12.884a98.654,98.654,0,0,0-10.066-.928l-1.5-.079-.241,4.594,3.3.173a104.839,104.839,0,0,0,11.811.118l-.707,13.482a91.936,91.936,0,0,0-11.758-1.116l-3.3-.173-.251,4.793,1.6.084a97.8,97.8,0,0,0,10.008.124l-.681,12.983c-3.48-.483-7.364-.887-11.758-1.118l-13.382-.7a50.254,50.254,0,0,0,12.006,7.84,67.528,67.528,0,0,0,18.693,6.388,89.858,89.858,0,0,0-8.17,14.494,94.187,94.187,0,0,1-18.667-8.79,66.329,66.329,0,0,1-14.226-11.361c.027,1.4-.067,3.2-.082,5.4l-.2,3.894a52.807,52.807,0,0,0,.165,10.224l-16.777-.88a63,63,0,0,0,1.233-10.149l.214-4.1a19.447,19.447,0,0,1,.225-2.392c.2-1.891.2-1.891.247-2.791-9.029,7.94-18.9,12.829-34.036,16.944a62.52,62.52,0,0,0-6.567-14.164,84.844,84.844,0,0,0,21.17-6.5,50.812,50.812,0,0,0,10.022-5.884l-12.084-.633c-4.1-.215-8.3-.234-11.811-.119l.681-12.982a95.277,95.277,0,0,0,9.966.922l.6.032.251-4.793-2.6-.136a90.4,90.4,0,0,0-11.811-.118l.707-13.483c3.579.488,7.263.881,11.758,1.117l2.6.135.241-4.593Zm14.134,22.672,8.289.435.251-4.793-8.289-.435Zm.9-17.277,8.29.434.24-4.593-8.289-.435Zm31.6,14.175-8.588-.451-.251,4.793,8.589.451Zm.9-17.078L502,493.028l-.241,4.594,8.589.45Z"/><path class="cls-10" d="M575.25,484.652c-1.294,3.3-2.524,8.441-4.171,16.926,5.683-9.076,12.389-13.21,20.937-12.763a18.913,18.913,0,0,1,14.08,8.029c4.18,5.826,5.957,13.21,5.466,22.557q-1.029,19.655-13.755,28.6a48.123,48.123,0,0,1-18.651,7.354,82.048,82.048,0,0,1-9.524,1.345,47.419,47.419,0,0,0-5.675-14c23-.157,32.661-7.181,33.565-24.437.524-9.987-2.383-15.667-8.055-15.964-2.956-.156-5.748,1.139-8.871,4.181a33.926,33.926,0,0,0-9.84,18.071,41.171,41.171,0,0,0-.663,6.535l-13.43-.546a9.141,9.141,0,0,0,.151-1.353c.017-.319.046-.878.083-1.6,0-3.125.175-7.922.292-10.159a230.763,230.763,0,0,1,3.367-29.065,39.828,39.828,0,0,0,.549-4.377c.008-.16.021-.4.034-.638Z"/><path class="cls-10" d="M706.862,512.634a39.987,39.987,0,0,0-2.308,4.615,165.814,165.814,0,0,1-8.264,14.724c.841,2.025,1.953,3.8,2.383,3.827.515.027,1.3-3.463,1.8-8a25.261,25.261,0,0,0,7.2,5.545c-.862,4.949-1.422,7.417-2.5,9.943-1.482,3.626-3.9,5.394-7.163,5.223-3.35-.175-6.582-2.584-9.453-6.954a93.345,93.345,0,0,1-8.478,7.306,37.854,37.854,0,0,0-5.8-9.261c-4.058,1.854-6.874,3-10.39,4.364-2.111.838-2.811,1.059-3.873,1.606l-1.43-8.859c-1.37-.158-2.31-.293-4.027-.383l-.86-.046-.54,10.306c4.891,1.98,9.167,2.548,25.4,3.4a240.187,240.187,0,0,0,27.558-.019,48.083,48.083,0,0,0-3.952,12.969c-6.025-.059-20.2-.628-27.161-.993-18.034-.945-24.589-2.408-30.557-6.855a34.728,34.728,0,0,1-7.671-8.067,62.419,62.419,0,0,1-5.2,13.679,47.471,47.471,0,0,0-8.3-9.3c4.017-7.626,6.09-15.957,6.653-26.692a32.473,32.473,0,0,0-.042-4.136l10.582,1.847a40.674,40.674,0,0,0-.4,4.371c-.194,2.057-.406,4.456-.834,7.707a19.506,19.506,0,0,0,2.965,4.2l1.081-20.611-8.245-.432a48.425,48.425,0,0,0-8.009.011l.639-12.195a46.711,46.711,0,0,0,7.964.848l5.5.288.315-6.011-3.435-.181a47.609,47.609,0,0,0-7.752.025l.635-12.11a43.9,43.9,0,0,0,7.707.834l3.434.181.068-1.288a36.43,36.43,0,0,0-.151-6.984l13.312.7a31.05,31.05,0,0,0-.88,6.929l-.068,1.288,2.061.108a37.978,37.978,0,0,0,7.494-.037l-.635,12.109a42.3,42.3,0,0,0-7.448-.821l-2.061-.108-.316,6.012,2.577.135a44.786,44.786,0,0,0,7.838-.021l-.638,12.2a46.836,46.836,0,0,0-7.793-.839l-.774-.041-.364,6.956.944.05a37.274,37.274,0,0,0,6.893-.069L661.7,533c1.225-.367,1.225-.367,2.188-.66L665.534,501c.207-3.951.229-6.017.129-9.036a83.536,83.536,0,0,0,9.257.829l6.184.324.03-5.509a29.752,29.752,0,0,0-.024-4.479l12.281.644a56.339,56.339,0,0,0-1.037,9.934l5.839.306a50.959,50.959,0,0,0-4.806-6.882l7.525-3.912a39.633,39.633,0,0,1,5.8,7.71l-5.938,3.22a43.811,43.811,0,0,0,5.939.052l-.616,11.767a57.1,57.1,0,0,0-6.939-.709l-6.957-.364a114.714,114.714,0,0,0,.7,12.868,52.524,52.524,0,0,0,3.885-10.044ZM680.6,533.992a39.475,39.475,0,0,0,3.353-3.183c-1.964-6.906-2.915-15.051-3.089-26.513l-3.692-.193-1.237,23.617c1.5-.7,2.3-1.086,4.415-2.1Z"/><path class="cls-10" d="M721.836,512.442c2.229.279,3.1.4,4.781.493a281.985,281.985,0,0,0,30.137-.264,31.106,31.106,0,0,0,7.5-.889l6.7,9.644a44.015,44.015,0,0,0-6.915,5.086c-3.347,2.708-11.363,8.937-13.192,10.2a8.44,8.44,0,0,1,3.225-.391,7.8,7.8,0,0,1,6.547,3.467c1.254,2.069,1.447,2.959,1.545,8.732.11,4.012,1.086,5.265,4.2,5.428a44.552,44.552,0,0,0,16.71-2.408l.629,13.972a66.9,66.9,0,0,0-7.552.4,71.166,71.166,0,0,1-12.2.4c-7.11-.373-11.025-2.1-13.153-5.816-1.174-2.065-1.409-3.678-1.407-8.325,0-3.124-.173-4.336-.771-5.168a3.55,3.55,0,0,0-2.661-1.181c-3.275-.171-6.832,1.966-13.475,7.946a144.064,144.064,0,0,0-11.065,10.877l-9.686-12.365c5.205-3.012,14.466-10.057,28.705-21.888,3.772-3.167,4.861-4.072,7.7-6.327-4.433.489-8.772.743-19.528,1.14-2.888.09-4.5.246-6.753.448Zm11.517-21.025c8.655,3.017,20.411,4.915,34.632,5.66l-2.651,12.359c-17.938-1.663-25.485-2.859-36.377-5.993Z"/><path class="cls-10" d="M838.225,497.393c-.5,3.5-1.049,9.318-1.355,15.15-.009.16-.034.64-.058,1.119,9.347.49,18.26.076,23.449-1.1l.184,13.308c-1.6,0-2.326.039-5.618.187-8.111.376-11.235.373-18.434.156-.037,3.763-.037,3.763.033,14.662,8,3.223,13.284,6.384,22.053,13.333,1.388,1.034,1.62,1.207,2.469,1.811l-9.287,12.091c-3.364-4.582-9.037-9.446-15.8-13.406a9.286,9.286,0,0,1,.008,1.363,12.258,12.258,0,0,1-3.828,8.852c-3.531,3.18-9.7,4.779-16.974,4.4-6.471-.34-12.064-2.155-15.521-4.979a14.8,14.8,0,0,1-4.889-12.194,14.481,14.481,0,0,1,6.86-11.657c4.225-2.663,9.17-3.765,15.8-3.418a34.586,34.586,0,0,1,5.572.694c.015-6.409.394-22.812.8-33.686a59.382,59.382,0,0,0,0-7.53Zm-21.294,51.678c-4.794-.251-7.913,1.187-8.043,3.664-.139,2.636,2.255,4.364,6.249,4.574,3.275.17,5.894-.892,6.79-2.69a8.067,8.067,0,0,0,.58-3.413c.02-.4.054-1.039.054-1.039A18.055,18.055,0,0,0,816.931,549.071Z"/><path class="cls-10" d="M878.432,525.057c2.476.129,2.476.129,10.616-.807a154.754,154.754,0,0,1,26.973-1.069c10.466.548,17.111,3.7,20.552,9.889a19.992,19.992,0,0,1,2.47,10.946c-.515,9.826-7.312,18.762-17.982,23.651-7.144,3.311-14.434,4.851-27.621,5.763a44.284,44.284,0,0,0-4.793-14.032c9.29.087,16.462-.738,22.416-2.75,5.458-1.716,9.2-4.245,11.208-7.5a11.916,11.916,0,0,0,1.8-5.353c.251-4.793-3.134-7.455-9.764-7.8-9.348-.489-25.23,1.4-33.538,4.012Zm14.47-25.439c9.512,3.462,20.382,5.474,32.845,6.127,1.439.075,2.8.147,5.518.209l-2.47,13.489c-16.193-1.328-28.182-3.4-40.73-7.02Z"/><path class="cls-10" d="M979.107,574.394l.791-15.1,16.059.842-.791,15.1Zm2.514-20.457a29.722,29.722,0,0,0,.349-3.586c.079-1.519.079-1.519.007-6.248l-.271-25.411c.012-3.284-.2-6.9-.394-10.837l18.616.976c-.336,1.825-1.109,7.394-1.525,10.736l-2.925,25.243c-.334,3.347-.5,4.94-.561,6.138-.042.8-.088,1.678-.112,3.68Z"/><path class="cls-10" d="M91.339,376.836a62.3,62.3,0,0,0-5.22-8.962l12.79-2.609a91.505,91.505,0,0,1,6.612,11.571h5.83a53.309,53.309,0,0,0-4.524-10.093l13.224-2.348a72.713,72.713,0,0,1,5.134,12.441h5.133a62.03,62.03,0,0,0,5.394-12.094l13.312,2.871a97.234,97.234,0,0,1-4.872,9.223h1.74c5.394,0,7.918-.087,10.876-.348a54.351,54.351,0,0,0-.349,7.309v9.657a58.377,58.377,0,0,0,.435,7.135H143.63V388.32H91.6v12.269H78.375a40.826,40.826,0,0,0,.436-7.222V383.8a56.708,56.708,0,0,0-.349-7.309c3.133.261,5.395.348,10.7.348Zm33.846,58.815c0,8.44-2.958,10.355-16.444,10.355-1.479,0-3.828-.088-7.918-.262A51.128,51.128,0,0,0,97,432.954c4.785.436,8.091.7,10.527.7,3.481,0,4.09-.26,4.09-1.827v-8.265H90.382a109.187,109.187,0,0,0-12.007.522V410.855a96.53,96.53,0,0,0,11.833.609h21.4a26.851,26.851,0,0,0-.261-4.089h4.785a31.771,31.771,0,0,0,5.916-4.437h-18.01a88.5,88.5,0,0,0-9.222.347V391.54a92.485,92.485,0,0,0,9.309.348h26.015a43.065,43.065,0,0,0,6.874-.348l6.351,7.222c-.957.782-1.305,1.131-2.61,2.348a143.99,143.99,0,0,1-12.181,10.354h16.1a112.226,112.226,0,0,0,12.268-.609V424.08a113.661,113.661,0,0,0-12.442-.522H125.185Z"/><path class="cls-10" d="M182.777,392.323a79.053,79.053,0,0,1-11.92,18.01,46.4,46.4,0,0,0-8.7-11.311c8-7.831,14.531-21.577,15.226-32.279l13.573,3.22c-1.044,2.958-1.044,2.958-1.74,5.307-.435,1.74-.87,3.045-1.479,4.959h10.441v-4a98.125,98.125,0,0,0-.522-11.659h14.878a80.176,80.176,0,0,0-.522,11.659v4h15.138c5.134,0,9.4-.174,13.574-.522v13.138c-4.351-.348-8.44-.522-13.139-.522H212.011v13.051H224.8a119.646,119.646,0,0,0,12.181-.522v13.137c-3.915-.347-7.482-.521-12.093-.521H212.011v14.181h17.923a128.054,128.054,0,0,0,13.834-.609v13.486c-4.959-.435-8.614-.609-13.4-.609H179.645c-4.96,0-9.31.174-14.356.609V431.04a138.172,138.172,0,0,0,13.834.609h19.054V417.468H187.388c-4.611,0-8.179.174-11.92.521V404.938a106.432,106.432,0,0,0,11.659.436h11.05V392.323Z"/><path class="cls-10" d="M286.072,401.557a110.372,110.372,0,0,1,17.225-.976c.455,0,1.821,0,3.185.065l.2,10.986a58.59,58.59,0,0,0-8.516-.455A87.187,87.187,0,0,0,279.9,412.8l-.649-9.231c-3.121.325-3.9.391-5.915.521-1.106,6.11-2.276,10.92-4.1,17.68-1.625,5.72-2.015,7.151-4.81,15.536-1.04,3.12-1.04,3.12-1.5,4.68l-11.961-4.355c4.291-8.321,8.516-21.256,10.921-33.281h-1.04c-2.08,0-3.445-.065-6.24-.2h-.651a12.911,12.911,0,0,0-1.5.066l.2-10.6a67.508,67.508,0,0,0,9.88.65h1.235a62.687,62.687,0,0,0,1.1-9.751v-.974l12.156.91a20.541,20.541,0,0,0-.846,3.77c-.065.39-.455,2.275-1.04,5.59a73.294,73.294,0,0,0,10.661-1.69Zm2.275,17.876c-2.47,2.924-3.51,5.069-3.51,7.085,0,2.99,2.665,4.42,8.125,4.42A48.926,48.926,0,0,0,308.3,428.4l.78,11.376c-1.3.13-1.885.195-3.445.39a79.637,79.637,0,0,1-12.676,1.04q-19.11,0-19.111-12.285c0-3.771,1.5-7.41,5.07-12.611Z"/><path class="cls-10" d="M318.246,392.392c2.859.714,7.215,1.04,14.04,1.1a49.891,49.891,0,0,0,1.5-9.815l12.091.975c-.715,2.34-.715,2.34-2.275,8.71,12.805-.52,20.28-1.365,24.18-2.665l.455,11.115c-1.69.066-2.34.066-4.615.326-9.1.91-15.08,1.3-22.62,1.5a69.2,69.2,0,0,1-3.771,9.75,31.36,31.36,0,0,1,14.236-2.925c6.11,0,10.6,1.1,14.04,3.445a13.169,13.169,0,0,1,5.46,10.986c0,10.53-9.945,17.1-25.936,17.1a68,68,0,0,1-16.51-2.08,46.206,46.206,0,0,0-1.105-11.246,59.041,59.041,0,0,0,17.485,2.99c8.711,0,14.171-2.665,14.171-6.889,0-3.056-3.25-4.745-9.165-4.745a28.44,28.44,0,0,0-13.261,2.99,9.619,9.619,0,0,0-4.16,3.38L321.5,422.877c2.405-3.64,6.695-13.65,8.32-19.436-.65,0-.65,0-2.4-.064-1.3,0-1.365,0-6.435-.391-.911-.064-1.625-.064-2.145-.064a3.548,3.548,0,0,0-.715.064Z"/><path class="cls-10" d="M381.36,390.636c1.1.065,1.951.065,2.471.065,1.69,0,4.03-.13,11.115-.585,9.36-.585,15.666-.91,28.016-1.365l6.695-.26,2.73-.13c2.211-.065,2.6-.13,2.925-.13a5.487,5.487,0,0,0,1.5-.26l.585,11.765a9.89,9.89,0,0,0-1.82-.13,30.466,30.466,0,0,0-14.886,4.55c-6.5,3.966-10.335,9.426-10.335,14.756,0,3.771,1.754,6.306,5.46,8.061,2.6,1.3,8.32,2.339,12.415,2.339.52,0,.975,0,1.95-.064l-1.5,12.35a16.624,16.624,0,0,0-2.405-.325c-7.41-.65-12.285-1.755-16.445-3.64-7.671-3.575-11.636-9.556-11.636-17.811a22.252,22.252,0,0,1,5.525-14.69,26.641,26.641,0,0,1,6.37-5.526l-3.054.326c-1.431.13-3.7.325-15.861,1.3a72.071,72.071,0,0,0-9.166,1.236Zm46.087,14.821a41.869,41.869,0,0,1,6.305,9.425l-6.24,2.86a40.4,40.4,0,0,0-6.305-9.62Zm8.711-3.77a44.9,44.9,0,0,1,6.37,9.165l-6.046,2.794a46.442,46.442,0,0,0-6.175-9.359Z"/><path class="cls-10" d="M451.886,420.992a83.2,83.2,0,0,1,15.86,14.561l-8.255,8.385a84.136,84.136,0,0,0-15.341-15.47Z"/><path class="cls-10" d="M130.858,533.265c-8.372-.147-11.467-.11-15.569.274l.289-16.56c4.357.712,6.811.846,15.819,1l36.4.636.621-35.576-35.3-.618c-8.371-.145-11.83-.115-15.658.183l.289-16.561c4.357.713,7.265.946,15.908,1.1l41.765.73c4.913.086,7.463.039,10.105-.1-.238,3.182-.356,4.727-.436,9.276l-.828,47.5a137.173,137.173,0,0,0,.284,15.023l-17.106-.3.093-5.368Z"/><path class="cls-10" d="M221.856,534.124l-.109,6.278-16.561-.289a115.7,115.7,0,0,0,.987-14.818l.816-46.769c.069-3.913.027-6.734-.18-10.47a107.053,107.053,0,0,0,11,.556l49.042.855a103.431,103.431,0,0,0,11.291-.166c-.238,3.182-.386,6.455-.461,10.733l-.805,46.131a122.624,122.624,0,0,0,.374,15.024l-16.469-.287.107-6.1Zm39.922-50.182-39.034-.682-.634,36.305,39.035.682Z"/><path class="cls-10" d="M358.78,485.089c7.188.125,9.464.075,13.661-.489l-.28,16.015a132.733,132.733,0,0,0-13.368-.689l-16.105-.281c-1.118,11.9-2.769,17.882-6.8,24.729a50.507,50.507,0,0,1-14.837,15.669,87.987,87.987,0,0,1-9.382,5.662c-3.264-5.974-5.85-9.023-11.768-14.132,10.724-4.273,17.458-9.434,21.767-16.459a28.518,28.518,0,0,0,4.022-11.4c.206-1.362.206-1.362.531-4.359l-19.471-.34c-6.552-.114-8.646-.059-13.2.226l.28-16.016c4.083.709,5.9.831,13.454.963l20.018.35c.022-1.274.022-1.274.154-3.637l.083-4.733c.009-.545.009-.545.038-2.183a73.789,73.789,0,0,0-.378-9.654l17.47.3c-.411,2.633-.415,2.906-.72,9.908-.151,3.456-.151,3.456-.215,7.1-.02,1.182-.13,2.272-.146,3.182Z"/><path class="cls-10" d="M384.556,491.286c2.783.7,6.678,1.027,13.438,1.145l1.819.031a23.52,23.52,0,0,0,2.141-7.178l11.878,1.118a18.881,18.881,0,0,0-1.418,3.03c-.878,1.869-1.287,2.9-1.353,3.032.65-.053.65-.053,3.968-.191a95.184,95.184,0,0,0,16.48-1.793l.21,10.342q-3.027.238-5.86.482c-4.623.375-12.755.689-19.387.767a35.447,35.447,0,0,1-3.2,4.755,19.175,19.175,0,0,1,8.287-1.806c5.394.094,8.608,2.23,9.834,6.479,1.112-.373,1.112-.373,4.577-1.482.2-.061,1.961-.614,4.052-1.228,3.726-1.171,4.184-1.293,5.234-1.86l3.785,10.339a107.341,107.341,0,0,0-16.65,4.13c.034,1.755.033,1.821-.017,4.681a40.225,40.225,0,0,0,.163,5.593l-10.6.14a53.349,53.349,0,0,0,.445-6.883l-.589.25c-3.015,1.378-3.409,1.631-4.6,2.65a4.485,4.485,0,0,0-1.747,3.285c-.043,2.47,2.345,3.488,8.649,3.6,7.8.136,15.293-.9,20.854-2.888l.51,11.711a41.523,41.523,0,0,0-5.794.485,128.6,128.6,0,0,1-15.68.7c-7.344-.129-11.942-1.119-15.416-3.261a10.446,10.446,0,0,1-4.973-9.318,12.091,12.091,0,0,1,3.327-8.133,28.637,28.637,0,0,1,9.48-6.791c1.574-.752,2.228-1,4.848-2.125a2.684,2.684,0,0,0-2.571-1.671c-3.315-.058-7.839,2.139-12.457,6.023a41.3,41.3,0,0,0-6.354,6.456l-8.112-8.334a44.483,44.483,0,0,0,7.008-6.638c1.461-1.731,4.126-5.454,5.128-7,1-1.607,1-1.607,1.271-2.057l-2.08-.037c-2.794-.048-2.794-.048-5.587-.162-.91-.081-1.365-.089-2.275-.105l-.974-.017Z"/><path class="cls-12" d="M830.4,422.786h-3.872v-9.407h-9.375v-3.84h9.375V400.42H830.4v9.119h9.375v3.84H830.4Z"/><path class="cls-12" d="M664.2,436.106h-3.872V426.7h-9.375v-3.84h9.375V413.74H664.2v9.119h9.375v3.84H664.2Z"/><path class="cls-11" d="M52,456.745a.978.978,0,0,0-.782.635c-.374,1.032-.769,2.215-1.187,3.467-1.536,4.607-3.449,10.34-6.117,13.881s-7.653,6.96-11.658,9.707c-1.088.746-2.116,1.452-3,2.1a.976.976,0,0,0,.24,1.709c1.032.374,2.215.769,3.466,1.187,4.608,1.536,10.341,3.448,13.882,6.117S53.8,503.2,56.547,507.2c.746,1.088,1.452,2.116,2.1,3a.976.976,0,0,0,1.709-.241c.374-1.031.769-2.214,1.186-3.466,1.537-4.607,3.449-10.34,6.118-13.881s7.657-6.961,11.662-9.708c1.088-.746,2.112-1.452,3-2.1a.974.974,0,0,0-.24-1.708c-1.031-.374-2.21-.77-3.461-1.187-4.608-1.537-10.345-3.448-13.887-6.117s-6.96-7.657-9.707-11.663c-.746-1.087-1.452-2.112-2.1-3A.976.976,0,0,0,52,456.745Z"/></g></svg>