<svg id="レイヤー_1" data-name="レイヤー 1" xmlns="http://www.w3.org/2000/svg" xmlns:xlink="http://www.w3.org/1999/xlink" viewBox="0 0 1024 1024"><defs><style>.cls-1{fill:none;}.cls-2{clip-path:url(#clip-path);}.cls-3{fill:#f3ac00;}.cls-4{fill:#f2ab00;}.cls-5{clip-path:url(#clip-path-2);}.cls-6{fill:#124a83;}.cls-7{clip-path:url(#clip-path-3);}.cls-8{fill:#fff;}.cls-9{clip-path:url(#clip-path-4);}.cls-10{fill:#d82068;}.cls-11{clip-path:url(#clip-path-6);}.cls-12{fill:#292f33;}.cls-13{fill:#ffdb5e;}.cls-14{fill:#a88dc1;}.cls-15{fill:#7355a2;}.cls-16{fill:#522e8d;}.cls-17{fill:#f8c954;}.cls-18{fill:#f4abba;}.cls-19{fill:#dd2e44;}.cls-20{fill:#de2032;}.cls-21{fill:#c1694f;}.cls-22{fill:#662213;}.cls-23{fill:#424143;}.cls-24{fill:#59595c;}.cls-25{clip-path:url(#clip-path-10);}.cls-26{clip-path:url(#clip-path-11);}.cls-27{fill:#fa743e;}.cls-28{fill:#f3d2a2;}.cls-29{fill:#e2c196;}.cls-30{fill:#ffe51e;}.cls-31{fill:#662113;}.cls-32{fill:#e1e8ed;}.cls-33{fill:#99aab5;}.cls-34{clip-path:url(#clip-path-13);}.cls-35{fill:#31373d;}.cls-36{fill:#66757f;}.cls-37{fill:#ccd6dd;}.cls-38{fill:#8899a6;}.cls-39{clip-path:url(#clip-path-17);}.cls-40{fill:#269;}.cls-41{fill:#f7dece;}.cls-42{fill:#eec2ad;}.cls-43{clip-path:url(#clip-path-21);}.cls-44{clip-path:url(#clip-path-22);}.cls-45{fill:#5dadec;}.cls-46{clip-path:url(#clip-path-24);}.cls-47{fill:#929497;}.cls-48{fill:#ccd6dc;}.cls-49{fill:#f19020;}.cls-50{fill:#faaa35;}.cls-51{fill:#e18524;}.cls-52{fill:#e5922e;}.cls-53{fill:#d17a28;}.cls-54{fill:#ffd882;}.cls-55{fill:#00c0f8;}.cls-56{clip-path:url(#clip-path-27);}.cls-57{clip-path:url(#clip-path-28);}.cls-58{fill:#f6c555;}.cls-59{fill:#e0a33a;}</style><clipPath id="clip-path"><rect class="cls-1" width="1024" height="1024"/></clipPath><clipPath id="clip-path-2"><rect class="cls-1" y="0.47" width="1024" height="1023.53"/></clipPath><clipPath id="clip-path-3"><rect class="cls-1" y="7.94" width="943.2" height="1014.59"/></clipPath><clipPath id="clip-path-4"><rect class="cls-1" x="454.27" y="3.42" width="531.95" height="531.96" transform="translate(-13.11 38.06) rotate(-3)"/></clipPath><clipPath id="clip-path-6"><rect class="cls-1" x="8.36" y="121.3" width="257.02" height="242.45" transform="translate(-24.46 15.54) rotate(-5.97)"/></clipPath><clipPath id="clip-path-10"><rect class="cls-1" x="212.4" y="391.91" width="252.47" height="246.7" transform="matrix(0.11, -0.99, 0.99, 0.11, -210.22, 796.21)"/></clipPath><clipPath id="clip-path-11"><rect class="cls-1" x="212.4" y="391.91" width="252.47" height="246.7" transform="translate(-210.22 796.21) rotate(-83.79)"/></clipPath><clipPath id="clip-path-13"><rect class="cls-1" x="467.33" y="564.31" width="131.98" height="112.57" transform="translate(-176.76 213.96) rotate(-19.53)"/></clipPath><clipPath id="clip-path-17"><rect class="cls-1" x="27.32" y="481.49" width="158.79" height="163.33" transform="translate(-39.02 8.82) rotate(-4)"/></clipPath><clipPath id="clip-path-21"><rect class="cls-1" x="5.85" y="120.19" width="70.99" height="68.64" transform="matrix(0.91, -0.41, 0.41, 0.91, -60.11, 30.86)"/></clipPath><clipPath id="clip-path-22"><rect class="cls-1" x="5.85" y="120.19" width="70.99" height="68.64" transform="matrix(0.91, -0.41, 0.41, 0.91, -60.11, 30.85)"/></clipPath><clipPath id="clip-path-24"><rect class="cls-1" x="149.08" y="389.02" width="77.57" height="93.24" transform="translate(-267.42 569) rotate(-83)"/></clipPath><clipPath id="clip-path-27"><rect id="SVGID" class="cls-1" x="604.53" y="153.04" width="283.06" height="297.11" transform="translate(-14.76 39.46) rotate(-3)"/></clipPath><clipPath id="clip-path-28"><rect id="SVGID-2" data-name="SVGID" class="cls-1" x="604.53" y="153.04" width="283.06" height="297.11" transform="matrix(1, -0.05, 0.05, 1, -14.76, 39.46)"/></clipPath></defs><g class="cls-2"><polygon class="cls-3" points="692.24 42.72 704.84 86.16 660.72 75.16 692.24 42.72"/><polygon class="cls-3" points="978.32 86.16 1023.33 90.63 996.7 127.48 978.32 86.16"/><path class="cls-4" d="M230.59,55.77h-3.87V46.36h-9.38V42.52h9.38V33.4h3.87v9.12H240v3.84h-9.38Z"/><path class="cls-4" d="M551.33,98.15h-3.87V88.74h-9.37V84.9h9.37V75.78h3.87V84.9h9.38v3.84h-9.38Z"/><path class="cls-4" d="M830.4,24.33h-3.87v-9.4h-9.38V11.09h9.38V2h3.87v9.12h9.38v3.84H830.4Z"/><path class="cls-4" d="M1015.09,246.51h-3.87V237.1h-9.37v-3.84h9.37v-9.12h3.87v9.12h9.38v3.84h-9.38Z"/><path class="cls-4" d="M33.16,328.2H29.29v-9.4H19.92V315h9.37v-9.12h3.87V315h9.38v3.84H33.16Z"/><path class="cls-4" d="M56.51,115.61H52.64v-9.4H43.26v-3.84h9.38V93.25h3.87v9.12h9.37v3.84H56.51Z"/><path class="cls-4" d="M433.73,44.33h-3.87V34.92h-9.38V31.08h9.38V22h3.87v9.11h9.37v3.84h-9.37Z"/><path class="cls-4" d="M982.24,382.79h-3.87v-9.41H969v-3.84h9.38v-9.12h3.87v9.12h9.37v3.84h-9.37Z"/><path class="cls-3" d="M971.08,571.9a.87.87,0,0,0-.82.38c-.55.81-1.14,1.75-1.77,2.75-2.33,3.65-5.22,8.2-8.3,10.7s-8.12,4.37-12.18,5.88c-1.1.41-2.15.8-3.06,1.17a.87.87,0,0,0-.48,1.13.83.83,0,0,0,.32.4c.81.55,1.75,1.14,2.75,1.78,3.65,2.32,8.2,5.21,10.7,8.29s4.37,8.13,5.88,12.19c.41,1.1.8,2.14,1.17,3a.86.86,0,0,0,1.13.48.83.83,0,0,0,.4-.32c.55-.81,1.14-1.75,1.78-2.74,2.32-3.66,5.21-8.21,8.29-10.7s8.13-4.38,12.19-5.89c1.1-.41,2.14-.8,3-1.17a.86.86,0,0,0,.48-1.13.83.83,0,0,0-.32-.4c-.81-.54-1.75-1.14-2.74-1.77-3.66-2.33-8.21-5.22-10.7-8.3s-4.37-8.13-5.89-12.19c-.41-1.1-.8-2.14-1.16-3A.87.87,0,0,0,971.08,571.9Z"/><path class="cls-3" d="M40.32,456.63a.69.69,0,0,0-.6.41c-.33.71-.69,1.53-1.07,2.41-1.38,3.2-3.11,7.19-5.25,9.55s-5.91,4.5-8.95,6.23c-.83.46-1.61.9-2.29,1.31a.7.7,0,0,0,.07,1.24c.71.33,1.54.69,2.41,1.06,3.2,1.39,7.19,3.12,9.55,5.26s4.51,5.91,6.23,8.95c.46.83.9,1.61,1.31,2.29a.7.7,0,0,0,1.24-.07c.33-.71.69-1.54,1.06-2.41,1.39-3.2,3.12-7.19,5.26-9.56s5.92-4.5,9-6.22c.82-.46,1.6-.9,2.28-1.31a.7.7,0,0,0-.07-1.24c-.71-.33-1.53-.69-2.4-1.07-3.2-1.39-7.19-3.11-9.56-5.25s-4.5-5.92-6.22-9c-.47-.82-.91-1.6-1.31-2.28A.72.72,0,0,0,40.32,456.63Z"/><path class="cls-3" d="M893.84,744a.85.85,0,0,0-.81.38c-.55.81-1.15,1.75-1.78,2.74-2.33,3.66-5.22,8.21-8.29,10.7s-8.13,4.37-12.19,5.89c-1.1.41-2.15.8-3,1.16a.87.87,0,0,0-.49,1.13.94.94,0,0,0,.32.41c.82.54,1.76,1.14,2.75,1.77,3.66,2.33,8.21,5.22,10.7,8.29s4.37,8.13,5.89,12.19c.41,1.1.8,2.15,1.16,3.05a.87.87,0,0,0,1.13.49.85.85,0,0,0,.4-.32c.55-.82,1.15-1.76,1.78-2.75,2.33-3.66,5.22-8.21,8.29-10.7s8.13-4.37,12.19-5.89c1.1-.41,2.15-.8,3-1.16a.87.87,0,0,0,.49-1.13.85.85,0,0,0-.32-.4c-.82-.55-1.75-1.15-2.75-1.78-3.65-2.32-8.21-5.22-10.7-8.29s-4.37-8.13-5.88-12.19c-.41-1.1-.8-2.15-1.17-3.05A.87.87,0,0,0,893.84,744Z"/><path class="cls-3" d="M18.5,601.08a.7.7,0,0,0-.6.4c-.33.72-.69,1.54-1.07,2.41-1.39,3.2-3.11,7.19-5.25,9.56s-5.91,4.5-8.95,6.22c-.83.47-1.61.91-2.29,1.31a.71.71,0,0,0-.25,1,.79.79,0,0,0,.32.28c.71.34,1.53.69,2.4,1.07,3.2,1.39,7.19,3.12,9.56,5.25s4.51,5.92,6.23,9c.46.82.9,1.61,1.31,2.28a.71.71,0,0,0,1,.25.76.76,0,0,0,.28-.31c.33-.72.69-1.54,1.06-2.41,1.39-3.2,3.12-7.19,5.26-9.56s5.92-4.5,9-6.22l2.28-1.31a.7.7,0,0,0,.24-1,.65.65,0,0,0-.31-.28c-.71-.34-1.53-.69-2.4-1.07-3.2-1.39-7.2-3.12-9.57-5.25s-4.5-5.92-6.22-9c-.46-.83-.9-1.6-1.31-2.28A.67.67,0,0,0,18.5,601.08Z"/><path class="cls-3" d="M922.81,923.66a.86.86,0,0,0-.82.38c-.54.81-1.14,1.75-1.77,2.74-2.33,3.66-5.22,8.21-8.3,10.7s-8.12,4.38-12.18,5.89c-1.1.41-2.15.8-3.06,1.17a.87.87,0,0,0-.48,1.13.89.89,0,0,0,.32.4c.82.55,1.75,1.14,2.75,1.77,3.65,2.33,8.2,5.22,10.7,8.3s4.37,8.12,5.88,12.18c.42,1.1.8,2.15,1.17,3.06a.87.87,0,0,0,1.13.48.89.89,0,0,0,.4-.32c.55-.81,1.15-1.75,1.78-2.75,2.32-3.65,5.22-8.2,8.29-10.7s8.13-4.37,12.19-5.88c1.1-.41,2.14-.8,3.05-1.17a.87.87,0,0,0,.49-1.13.92.92,0,0,0-.33-.4c-.81-.55-1.74-1.14-2.74-1.78-3.66-2.32-8.21-5.21-10.7-8.29s-4.37-8.13-5.88-12.19c-.42-1.1-.8-2.14-1.17-3A.87.87,0,0,0,922.81,923.66Z"/><path class="cls-3" d="M59.85,820.6a.69.69,0,0,0-.6.41c-.34.71-.69,1.53-1.07,2.4-1.39,3.2-3.12,7.19-5.25,9.56s-5.92,4.5-9,6.23c-.83.46-1.61.9-2.28,1.31a.69.69,0,0,0-.25,1,.7.7,0,0,0,.31.28c.72.33,1.54.69,2.41,1.06,3.2,1.39,7.19,3.12,9.56,5.26s4.5,5.91,6.22,8.95c.47.83.91,1.61,1.31,2.29a.7.7,0,0,0,1,.24.65.65,0,0,0,.28-.31c.34-.71.69-1.54,1.07-2.41,1.39-3.2,3.12-7.19,5.25-9.56s5.92-4.5,9-6.22c.83-.46,1.6-.9,2.28-1.31a.71.71,0,0,0,.25-1,.76.76,0,0,0-.31-.28c-.72-.33-1.54-.69-2.41-1.07-3.2-1.39-7.19-3.11-9.56-5.25s-4.5-5.92-6.22-9c-.47-.82-.91-1.6-1.31-2.28A.72.72,0,0,0,59.85,820.6Z"/></g><g class="cls-5"><polygon class="cls-6" points="1023.33 1.47 -509.73 124.83 -607.9 132.7 -1987.67 243.7 -1987.67 1239.73 -898.61 1152.24 -325.77 1106.09 732.51 1020.9 1023.33 1.47"/></g><g class="cls-7"><polygon class="cls-8" points="941.97 5.85 -598.09 127.61 -690.39 134.89 -1987.83 237.54 -1987.83 1158.22 -963.78 1077.29 -425.16 1034.68 668.59 948.14 941.97 5.85"/></g><path class="cls-6" d="M95.85,743.22l.55.47.51,7.36-.47.54L88,752l-18.13,1.27L61.7,754l-.54-.47-.52-7.36.48-.54,7.37-.3c-.59-2.08-1.32-4.16-1.94-5.72l.39-.69,7.18-2,.7.54a56.74,56.74,0,0,1,2.56,7.29l3.56-.25c.55-2.6,1-5.19,1.29-7.78l.63-.41,7.84,1.21.55.55c-.45,1.86-.9,3.87-1.43,5.73ZM84.52,727.69l9.16-.86.54.4.5,7.14-.47.54-9.19.43-13.84,1-8.87.83-.54-.47-.5-7.06.48-.55,8.9-.4L73,728.5l-.49-7L73,721l8.81-.62.48.56.48,6.92Zm1.16,42.73,2.58-2.89.72-.2A54,54,0,0,1,96.91,773l.12.72-4.71,5.89-.72,0A65.73,65.73,0,0,0,86,774.42l1.5,15.11-10.41.73L76.86,776a49.08,49.08,0,0,1-7.79,10.06,2.41,2.41,0,0,1-1.13.66c-.36,0-.66-.17-1.14-.65l-5.37-5.7A61.14,61.14,0,0,0,73.5,766.73l-1.53.11-8.14.79-.54-.4-.52-7.43.41-.47,8.24-.35,3.93-.28-.28-4.08.33-.39,8.67-.6.46.33.29,4.08,3.13-.22,8.5-.81.47.33.53,7.57-.42.4-8.53.38-3.13.21Zm22.46-17.89c1.29,18.5-.69,26.76-7.11,35.4-.41.47-.68.78-1,.81a2,2,0,0,1-1-.37l-7-4.19c6.51-8.43,7.82-14.82,6.84-28.87l-1.27-18.14L96.41,725.1l.48-.55,7.15.75a64.3,64.3,0,0,0,15.26-5.68l.66,0a45.66,45.66,0,0,1,7.08,6l0,.73a104.59,104.59,0,0,1-20.31,6.76l.65,9.25,13.1-.92,7.49-.74.47.48.54,7.65-.4.54-5.69.25,1.39,19.88,1.58,17.45-10.41.73-.86-17.5-1.4-19.95-5.24.36Z"/><path class="cls-6" d="M146.2,720.23l10.27-.64.62.47c.27,9.05.34,15.27.5,22.8.15,6.35.29,14.54.68,20.22.37,5.24,3,7.4,7.38,7.09,8.37-.58,17.38-7.8,22.78-19.52l6.93,8a1.71,1.71,0,0,1,.38,2.32c-6.41,11.93-17.38,19.43-28.52,20.21S148.37,777.3,147.51,765c-.71-10.12-.68-16.93-.92-23.57-.18-5.7-.26-12.13-.86-20.65Z"/><path class="cls-6" d="M211.2,721.47l10.29-.36.55.48c-.09,8.13.19,15.35.49,19.58a52.84,52.84,0,0,0,2.68,14.3c1,2.78,2.1,4.83,3.7,4.71,2-.13,4.17-4.24,5.38-11.06l7.92,8.67a1.56,1.56,0,0,1,.35,1.81c-2.39,7.77-6.74,13.56-12.64,14-4.73.33-9.12-2.73-12.44-8.43-2.58-4.42-5.11-12.44-5.81-22.35-.41-5.9-.75-12.9-.94-20.86Zm35.4,10.25,6.6-6.1.79-.2a55.13,55.13,0,0,1,20.94,22.18l-.17.67-8.85,6.4-.74-.17c-4.64-9.77-10.72-17.32-18.67-22.11Z"/><path class="cls-6" d="M287.48,751.26l8.82-3.62.6.25c1.77,7.49,5.79,8.38,18,7.53A161,161,0,0,0,338.17,752l.69.46,1.78,10.85-.39.69a234.11,234.11,0,0,1-25.33,2.94c-21.77,1.52-26.32-7-27.77-15.11Zm6-35.92a125.48,125.48,0,0,0,13-.25,164.28,164.28,0,0,0,22.38-3.39l.54.4,1,10.25-.54.55a130.51,130.51,0,0,1-22.67,3.41c-4.08.29-8.82.4-13.22.27l-.62-.47-.36-10.37Z"/><path class="cls-6" d="M411.56,760.22c-6.66,1-13.71,1.76-22.88,2.4-17.48,1.23-26.23-3.51-27-14.94-.47-6.62,4.55-13.34,11.89-19.34a199,199,0,0,1-11.84-16.59l.09-.74,8.49-5.2.74.17q5.36,8.4,11.53,16.24a211.55,211.55,0,0,1,20.69-10.66l.75.24,5,9.23-.25.6c-6.19,2.56-12.5,5.49-16.6,7.6a4.75,4.75,0,0,0-1.71,3.78,5.38,5.38,0,0,1-4.91,5.1,7.51,7.51,0,0,1-5.16-1.61c-5.45,3.67-7.79,6.91-7.55,10.33.34,4.88,6.61,5.54,15.2,4.94a215.4,215.4,0,0,0,22.33-3l.61.41,1,10.39Z"/><path class="cls-6" d="M433.92,702.16l10.14.68.48.56c.08,4.23-.58,8.45-2.24,16a66.73,66.73,0,0,0-1.51,17.08,34.16,34.16,0,0,0,.95,7.33c.28.93,1,.95,2-.22a58.24,58.24,0,0,0,3.38-5l2.19.94c-1.75,6.35-2.52,11-2.35,15.6.16,3.29-1.3,5.44-4.64,5.75-2.91.27-4.77-1.2-6.65-4-1.79-2.59-4.24-8.34-5-18.83-.45-6.55.45-15.54,1.66-22.36a61.21,61.21,0,0,0,1-13.1Zm56.42,50.2a112.53,112.53,0,0,1-17,2.36c-14.64,1-19-6.06-21.33-14l.32-.68,7.54-4.11.67.17c1.86,6.75,4.86,8.74,14.61,8a85,85,0,0,0,13.51-2.48l.69.39,1.33,9.71Zm-35-44.31c2.4-.1,4.74-.18,7-.34a118.42,118.42,0,0,0,20.41-3.19l.54.4,1.08,9.15-.4.61A107.9,107.9,0,0,1,463.06,718c-2.33.17-4.59.33-6.93.34l-.56-.62-.63-9Z"/><path class="cls-10" d="M92.51,882.8l-.41.4-5.76.25.61,8.67c2.64-.92,5-1.89,7.11-2.84l.66,7.27c.09,1.31-.16,1.84-1.3,2.36-1.56.77-3.62,1.65-5.82,2.6l.14,2,1.47,15.85c.6,8.59-1.27,11.14-11.1,11.82-.8.06-1-.07-1.37-.78l-4.57-8.83a35.47,35.47,0,0,0,5.44-.67c1.45-.25,1.85-.72,1.73-2.46l-.91-13.11c-1.64.63-3.28,1.25-4.85,1.8l-.68-.32-3.37-8.32.32-.69c2.66-.77,5.31-1.54,7.89-2.38L76.94,884l-6.76.7-.53-.4-.56-7.94.41-.47,6.86-.26-1-13.91.47-.61,8.3-.58.62.46,1,13.91,5.75-.54.46.33.07,1,4.85-2.9.73.09a38.89,38.89,0,0,1,4.29,5.77L100.72,862l.47-.62,8.66-.61.62.47,2.33,33.28c1.43,20.46-2.12,27.22-14.54,35a2.88,2.88,0,0,1-.85.35A1.73,1.73,0,0,1,96,929l-5.69-6c8.53-4.62,12-8.75,12.88-16.78-2.1,1.39-4.42,2.8-7.37,4.46l-.67-.1-4.35-7.81.24-.68c3.64-1.43,7.76-3.18,12.14-5.39l-.68-9.75L98.2,889.8l-.67-.17a76.56,76.56,0,0,0-5.22-9.74ZM125,878.85a56,56,0,0,0,5.06-9.28l.72-.2,8,5,.05.73a73.49,73.49,0,0,1-8.4,10.61,1.61,1.61,0,0,1-.92.5,2,2,0,0,1-1.05-.37l-3.07-2.12.69,9.9,3.14-3.15h.88a59,59,0,0,1,10.51,9l0,.74-6.32,5.92-.73,0a95.61,95.61,0,0,0-7.14-7.91l1.11,15.87c.15,2.19.46,2.39,2.21,2.26,2.47-.17,3.2-.3,3.08-9.29l7.62,3.28c.9.37,1.14.65,1.13,1.53-.08,6.15-.56,8.67-2.33,10.7-1.89,2.25-4.07,3.43-10.41,3.87-9,.63-10.73-.71-11.26-8.28l-.73-13.49-3-43.62.47-.62,8.89-.62.62.47Z"/><path class="cls-10" d="M146.78,872.94l-.74-.17a56.85,56.85,0,0,0-5.17-11.13l.25-.67,6.86-3.41.67.24a56.85,56.85,0,0,1,5.87,10.64l-.25.68Zm20.7,31.33,5.1-.36,8.94-.84.55.47.52,7.5-.47.55-9,.41-5,.35,1.16,12.43-10,.7L158.73,913l-5.17.36-8.87.84-.62-.47-.53-7.58.48-.47,9-.41,5.24-.36L158,901l-3,.21-8.65.83-.47-.48-.18-7.89-.9-12.82-.72-7.12.47-.55,8.47-.3,15.58-1.08,3.93-.43-6.76-1.42a78.51,78.51,0,0,0,3.91-14.11l.56-.48,9,2.23.33.63a84.65,84.65,0,0,1-5.05,12.5c-.13.23-.19.38-.33.47l2.83-.28.55.48.28,7.15.9,12.82.76,7.77-.47.62-8.46.37-3.35.24Zm-9.34-34.18-.68-.24A57.81,57.81,0,0,0,153,859l.25-.6,6.9-2.9.74.17a47.87,47.87,0,0,1,5.12,10.4l-.32.68Zm-1.41,9.17-3.57.25.3,4.23,3.57-.25Zm-2.83,10.81.32,4.52,3.57-.25-.32-4.52Zm15.43-7.44L169,878.4l-3.64.26.3,4.22Zm-2.88,11.1,3.64-.26-.31-4.51-3.64.25Zm29.89-13.14a110.84,110.84,0,0,0,2.28,12.79,50.77,50.77,0,0,0,4.25-11.56l.63-.34,8,3.9.34.71a74.34,74.34,0,0,1-9.42,19c1.58,3.77,2.48,5.24,3.07,5.2.87-.06,1.61-1,2-9.94l6.28,5c.7.61,1,1,.93,1.84-.45,10.35-3.47,14.15-8.5,14.5-3.86.27-7.19-1.32-10.82-8.31a68,68,0,0,1-11.86,9.39,3.12,3.12,0,0,1-1.21.45,1.57,1.57,0,0,1-1.28-.5l-6.13-6a63.77,63.77,0,0,0,16.44-12.86c-2.39-7-3.5-14.47-4.6-21.78l-6.35,1.18-.62-.4-1.24-8.33.41-.47,6.67-.83c-.6-5.52-1.18-11.62-1.73-18.47l.4-.61,9-.63.55.48c.4,6.7.88,12.67,1.4,17.9l6.88-1,8.24-1.45.55.47,1.21,7.89-.4.54-8.27,1ZM204,869.15l-.59,0a48.14,48.14,0,0,0-8.35-7.46l-.19-.64,5-5.18.72-.2a56.66,56.66,0,0,1,8.81,6.77l.12.65Z"/><path class="cls-6" d="M228.82,855.2l10.27-.65.62.47c.27,9.06.33,15.27.5,22.8.15,6.36.28,14.55.68,20.23.37,5.24,3,7.4,7.38,7.1,8.37-.59,17.38-7.8,22.78-19.53l6.93,8a1.71,1.71,0,0,1,.38,2.32C272,907.88,261,915.37,249.84,916.15S231,912.28,230.12,900c-.7-10.12-.67-16.93-.91-23.57-.18-5.7-.27-12.13-.86-20.65Z"/><path class="cls-6" d="M289.5,875.32l-3.08-9.44.26-.6c20-6.37,36-10.86,56.25-16l.68.32,2.79,9.54-.47.69c-8,1.15-15,3.1-19.19,7-6.39,5.93-9.71,12.82-9.23,19.67.39,5.61,3.36,8.33,7.75,9.34,4.09,1,9.94,1,17.51.38l.55.48.19,11.11-.55.47c-9.09.79-17.1.39-23.25-1.74-7.42-2.55-12.36-8.35-13.06-18.26A27.73,27.73,0,0,1,315,867.11c-7,2.24-14.67,4.83-24.8,8.46Z"/><path class="cls-6" d="M387.39,901.19a27.69,27.69,0,0,0,15.72-16.91,44.26,44.26,0,0,0-15.29-3.1c-2.72,8.17-4.23,12.74-5.92,15.71-2.28,4-5.49,6.38-10.88,6.76-6.7.47-10.81-5-11.21-10.7-.74-10.63,5.68-18.18,20-21,1.86-5.91,2.78-9.41,4.34-15.45-3.23.89-7.18,2-11.71,3.16l-.69-.46-2.67-9,.31-.68c7.91-2,14.39-3.57,18.78-4.61a14.65,14.65,0,0,1,2.46-.39c4.08-.29,6.57,1.81,6.79,5a9.16,9.16,0,0,1-.33,2.66c-1.56,5.82-3.64,11.74-6.17,19.46a65.63,65.63,0,0,1,14,2.24,58.17,58.17,0,0,0-.54-8.75l.4-.54,9.85.7.41.63a67.07,67.07,0,0,1,.45,11.68,70.71,70.71,0,0,1,9.11,4.71l.2.79-4.48,9.16-.71.35c-2.38-1.59-4.66-2.82-6.64-3.93C410,896,404.78,903,398,906.82a2.76,2.76,0,0,1-2-.37Zm-18.25-9.85c.11,1.53.59,2.23,1.47,2.17s1.77-.79,2.54-2.45c.93-2.26,1.74-4.37,3.25-8.93A9.09,9.09,0,0,0,369.14,891.34Z"/><path class="cls-6" d="M485.17,858.42a85.05,85.05,0,0,1-17.77,4.46c.57,4.94,1.18,9.43,1.92,13.84a94.17,94.17,0,0,1,23.39,11.1l.13.8-6,8.77-.8.12a62.55,62.55,0,0,0-15.84-9.8c-.4,6.76-5.26,12.67-16,13.42-10,.7-17.39-2.81-18-11.77-.54-7.57,7.13-13,17-13.7a39.24,39.24,0,0,1,5-.13c-1.65-10.93-2.92-20.8-4.1-35.57l.54-.55,10.13-.7.61.47c.34,4.8.65,9.24,1,13.39a74.69,74.69,0,0,0,15.73-4.32l.75.31,2.61,9.11Zm-32.84,26.44c-3.86.28-6.09,1.89-6,3.71.17,2.4,2.64,3.26,6.57,3s5.9-2.6,5.57-6.24A17.39,17.39,0,0,0,452.33,884.86Z"/><path class="cls-6" d="M518,865.78l-3.44-9.34.32-.69c4.94-1.51,10.28-3.64,14.71-5.2,4.22-1.46,7.14-2.54,9.76-2.73,9.32-.65,15.84,5.7,16.8,19.39,1.23,17.55-7.56,25.77-22.58,30.7a1.19,1.19,0,0,1-1.28-.5l-7.5-7.82c14.35-4.07,20.21-10.2,19.53-20-.57-8.23-2.31-11-5.37-10.82a28,28,0,0,0-7.3,2.34c-3.77,1.43-8.33,3.22-13,4.86Zm5.15-25.68,2.06-9.29.64-.26a103,103,0,0,0,22.09,2l.47.47-1,10.1-.56.4a157.09,157.09,0,0,1-23.39-2.83Z"/><path class="cls-6" d="M615.83,868.38l-11.43.8-2.73-39,11.43-.8ZM618,881.25a7,7,0,1,1-14,1h0a7,7,0,0,1,14-1Z"/><rect class="cls-1" width="1024" height="1024"/><g class="cls-11"><g class="cls-11"><g class="cls-11"><g class="cls-2"><path class="cls-12" d="M212.48,283.74l-86.38,9c-23.85,2.5-49.64,21.1-47.15,44.95l3.38,32.39,187.15-19.55-3.38-32.4c-2.49-23.85-29.76-36.91-53.62-34.41"/><polygon class="cls-13" points="168.32 287.75 124.24 296.73 174.83 349.98 206.42 288.14 168.32 287.75"/><path class="cls-14" d="M175.9,360.33l64.79-6.77c26.16-28.2,31.7-50.61,31.7-50.61s-26.62-22.69-73.83-26.1c.92,8.81,9.47,21.8,9.47,21.8L174.82,350Z"/><path class="cls-15" d="M250.42,290s-15-8.09-31.46-11.73c-22.78-5-15.73,14.9-15.73,14.9s-23,46.3-28.41,56.8c0,0,43-44,75.6-60"/><path class="cls-16" d="M174.83,350s47.16-59.34,81-69.25c-32-21.52-75.17-14.28-75.17-14.28.92,8.8,12.12,12.33,13.26,23.22,1.87,17.89-14,46.6-19.43,57.1Z"/><path class="cls-14" d="M175.9,360.33l-64.79,6.76c-31.42-22.18-41.48-43-41.48-43s21.36-27.7,66.84-40.79c.92,8.81-4.76,23.29-4.76,23.29L174.81,350Z"/><path class="cls-15" d="M88.45,306.93s13.06-11,28.37-18c21.24-9.62,18.46,11.33,18.46,11.33s32,40.55,39.54,49.7c0,0-51.11-34.17-86.37-43.05"/><path class="cls-16" d="M174.81,350s-58.4-48.32-93.56-51c26.82-27.66,70.6-29.51,70.6-29.51.92,8.8-9.31,14.57-8.17,25.46,1.87,17.9,23.31,42.7,30.81,51.85Z"/><path class="cls-13" d="M143.58,294.7c11.36,6.56,20.84,4.95,25.93,4.42s15.86-1,24.4-9.45l-3-29.8-50.39,5.26Z"/><path class="cls-17" d="M141.81,277.7c7.84,7.2,16.78,8.43,26.24,7.44s17.95-4,24.14-12.7l-2.1-20.17-50.39,5.26Z"/><path class="cls-18" d="M230.89,250.88a25.94,25.94,0,0,1-4.6,7.25,196.15,196.15,0,0,1,24.89,4.28s-4-4.4-6.41-13c-.85-3-3.44-5.66-4.33-9.56-1.06-4.62-2.23-9.9-3.16-15.73-1.09-6.81-2.23-12.93-2.82-21.23-4.61-64.21-53.48-76.13-83-73s-79.34,23.26-70.58,87c1.14,8.24,1.81,15.86,2.15,22.75.3,5.9.35,11.26.27,16-.07,4-.24,7.57-.45,10.67a123.68,123.68,0,0,1-1.59,13.84S129,256.32,165.49,264.4c15.52-7,34.68-8.06,51-7.09a157.84,157.84,0,0,0,14.44-6.43"/><path class="cls-13" d="M151.5,130.49C118.85,133.9,96,170.7,100.34,212.7a92.84,92.84,0,0,0,7,27c.47,1.09.95,2.17,1.45,3.23a80.8,80.8,0,0,0,7.63,12.73,72.6,72.6,0,0,0,5.57,6.69c12.25,13,28.34,20,45.24,18.25,32.62-3.41,55.74-38.23,51.35-80.21s-34.41-73.27-67-69.86"/><path class="cls-19" d="M145.18,204.42l15.8-28.5-32.74-9.5-21,73.24c.47,1.09,1,2.17,1.45,3.22l13.41-7.21-5.78,19.94a67.27,67.27,0,0,0,5.58,6.69l42.9-64.41Z"/><path class="cls-20" d="M165.32,262.85c-11.56,1.2-18.21-3.88-18.92-4.47a4.95,4.95,0,0,1,6.18-7.73c.28.2,4.34,3.12,11.72,2.35s10.83-4.57,11-4.73a5,5,0,0,1,6.95-.58,4.91,4.91,0,0,1,.69,6.87c-.58.73-6,7.08-17.59,8.29"/><path class="cls-21" d="M169.45,240.27l-12.16,1.27a3.06,3.06,0,0,1-3.37-2.72h0l-.11-1.1a3.05,3.05,0,0,1,2.73-3.37h0l12.16-1.27a3.07,3.07,0,0,1,3.37,2.73l.11,1.1a3.06,3.06,0,0,1-2.73,3.36"/><path class="cls-22" d="M185.74,219.55a6.14,6.14,0,0,1-6.72-5.46l-.64-6.08a6.13,6.13,0,0,1,12.17-1.4s0,.09,0,.13l.64,6.08a6.15,6.15,0,0,1-5.46,6.73m-48.69,5.09a6.15,6.15,0,0,1-6.73-5.46l-.63-6.08a6.12,6.12,0,1,1,12.18-1.27l.64,6.08a6.15,6.15,0,0,1-5.46,6.73"/><path class="cls-18" d="M240.32,215.5c-.82-8-.94-9.14-1.72-16.67-1.69-16.1-6.23-29.33-12.54-40.06a31.06,31.06,0,0,0,9-.26c-6-3.42-15-10-18.45-12.58-19.44-21.77-47.22-28.69-66-26.73-27,2.83-68.37,27.08-70.12,80.17l-.2-.78s-4.5,15.33-8.17,23.51a34.89,34.89,0,0,0,8.9-6.44c.53,5.27.8,9,2.43,22.68l5.18-.54c-.9-7.18-.48-1.58-.66-3.31-2.58-24.63,15.15,2,13.31-15.53s7.83-20.34,16.66-31.22c2.13-2.63,5.29-6.48,8-9.76,10.52,3.5,24.36,5.52,42.2,4.52A55.07,55.07,0,0,1,192,193.85a22.21,22.21,0,0,0-5.65-11.93c14.32,1.41,24,10.05,27.51,26l.13.51a49.41,49.41,0,0,1-4.25,23,20.15,20.15,0,0,0,8.8-7.33c12.27,33.47,32.61,38.3,32.61,38.3a265.35,265.35,0,0,1-10.87-46.93"/><path class="cls-13" d="M112.81,213c1.08,10.42-3.32,19.43-9.83,20.11s-12.68-7.22-13.77-17.64S92.52,196,99,195.33s12.69,7.23,13.78,17.65"/><path class="cls-23" d="M83.21,255.71a22.21,22.21,0,0,0-19.78,24.4h0a21.92,21.92,0,0,0,3.26,9.32l-1.85-1.5a5.91,5.91,0,0,0-8.32.74c-.13.16-.25.32-.37.49L21.33,338.09c-3.44,4.93-4.51,12.43,1.92,17.64s13.44,2.78,17.68-1.75l5.81-6.54,2.72,26.1L62.3,372.2l-3.95-37.83,22.42-25.23a5.92,5.92,0,0,0-.12-8.35l-.47-.41L78,298.64a22,22,0,0,0,9.81,1.26,22.22,22.22,0,0,0-4.63-44.19"/><path class="cls-24" d="M99.61,297.91a2.79,2.79,0,0,1-3.91.41L63.35,272.08a2.77,2.77,0,0,1-.42-3.89h0l3.5-4.31a2.78,2.78,0,0,1,3.91-.41h0l32.35,26.23a2.77,2.77,0,0,1,.41,3.91h0Z"/></g></g></g></g><g class="cls-25"><g class="cls-26"><g class="cls-2"><path class="cls-27" d="M447.61,654.09,451.42,619A42.29,42.29,0,0,0,414,572.42h0L301.8,560.22a42.32,42.32,0,0,0-46.63,37.48h0l-3.81,35Z"/><path class="cls-28" d="M327.23,563.74c-.68,6.27,15,15.76,29,17.29s31.38-4.38,32.06-10.64l2.91-26.75L330.14,537l-2.91,26.75Z"/><path class="cls-29" d="M328.69,549.82c7.47,10.56,17.77,14.32,29.26,15.57s22.33-.22,31.91-8.92L392.52,532l-61.18-6.66-2.66,24.47Z"/><path class="cls-30" d="M402.67,397.66c-13-5.83-44.9-8.1-54,1.36C328,397.18,301.8,413.2,296,437.45c-5.79,24,0,36.08.48,54.67.57,21,11.51,29,20.53,32.75,11.48,19.18,25.83,20,49.78,22.58,46.76,5.08,72.44-23.78,80.18-76.72,4.69-32-11.52-58.4-44.25-73.07"/><path class="cls-28" d="M421.83,470.31c-3.84-6.76-9.08-12.43-21.59-15.6,4.53,2.7,8.27,10.73,8.41,15s.38,7.67-2.94,3.09c-13.29-18.34-30.46-13.55-45.64-25.52-10.61-8.36-13.22-16.62-13.22-16.62s-2.53,10.36-21,19.2c-5.34,2.56-12.07,8.83-16.49,18.69-3.18,7.08-3.15,13.71-4.36,24.9-3.55,32.66,20.38,63.05,53.58,66.66s63.14-21.17,66.66-53.59c2.19-20.31.93-28.48-3.45-36.19"/><path class="cls-21" d="M370,517.39l-13.36-1.45a3.36,3.36,0,0,1,.73-6.69l13.36,1.45a3.37,3.37,0,0,1-.64,6.7H370"/><path class="cls-31" d="M339.15,490.37a6.71,6.71,0,0,1-5.95-7.4l.72-6.68a6.72,6.72,0,0,1,13.36,1.45l-.72,6.68a6.72,6.72,0,0,1-7.39,6h0m53.45,5.82a6.72,6.72,0,0,1-6-7.41l.72-6.68a6.72,6.72,0,0,1,13.36,1.45h0l-.73,6.68a6.72,6.72,0,0,1-7.4,6"/><path class="cls-21" d="M361.18,544.65c-19.3-2.1-24.7-7.68-25.58-8.8a4.62,4.62,0,0,1,7-6c.34.3,4.68,4,19.53,5.58,15.42,1.68,20.24-1.24,20.29-1.27a4.49,4.49,0,0,1,6.31.71l.08.1a4.72,4.72,0,0,1-.82,6.56c-1.1.9-7.56,5.19-26.86,3.09"/><path class="cls-32" d="M434.36,645.55a7,7,0,0,1-7.76,6.25h0l-70.09-7.62a7.05,7.05,0,1,1,1.52-14h0l70.09,7.62a7,7,0,0,1,6.25,7.76h0"/><path class="cls-32" d="M354.83,544.71,239.32,532.15c-10.68-1.16-25,2.76-20.06,22.86l15.07,61.75s1.27,14.27,17,16L391.54,648l-19.46-81.83c-2.07-9.6-6.56-20.28-17.25-21.45"/><path class="cls-33" d="M347.83,544,232.31,531.39c-10.68-1.16-25,2.76-20.06,22.86L227.33,616s1.26,14.28,17,16l140.18,15.24L365.07,565.4c-2.07-9.6-6.56-20.29-17.24-21.45"/><path class="cls-32" d="M305.68,591c2.48,11.42-1.69,22-9.3,23.66s-15.79-6.26-18.26-17.68,1.69-22,9.3-23.66,15.79,6.26,18.26,17.68m38.37-28L231.9,550.85A5.29,5.29,0,0,1,233,540.34h0l112.15,12.19A5.29,5.29,0,0,1,344.05,563"/></g></g></g><g class="cls-34"><g class="cls-34"><g class="cls-2"><path class="cls-35" d="M587.78,611.58l1.3,3.66-7.32,2.59-1.3-3.65a15.12,15.12,0,0,0-2.47-4.35,23.29,23.29,0,1,0-34.68-29.2,27.16,27.16,0,1,0-28.73,40.44l-1.5.53a15.53,15.53,0,0,0-9.45,19.82l-3.66,1.3-27.14-6.85-3.66,1.3,18.17,51.22,3.66-1.3,16.76-22.42,3.66-1.3,2.59,7.32a15.54,15.54,0,0,0,19.82,9.45h0l47.57-16.87a15.53,15.53,0,0,0,9.44-19.83l-3.89-11,7.32-2.6,1.3,3.66,11-3.89-7.78-21.95Z"/><path class="cls-36" d="M538.22,588a19.41,19.41,0,1,1-24.78-11.8h0A19.41,19.41,0,0,1,538.22,588"/><path class="cls-37" d="M517.33,587.14a7.77,7.77,0,1,1-4.72,9.91h0a7.77,7.77,0,0,1,4.72-9.91"/><path class="cls-36" d="M558.87,576.53a15.53,15.53,0,1,1-9.44,19.82,15.52,15.52,0,0,1,9.44-19.82"/><path class="cls-37" d="M561.46,583.85a7.76,7.76,0,1,1-4.72,9.91h0a7.76,7.76,0,0,1,4.72-9.91"/><rect class="cls-38" x="536.98" y="619.78" width="38.82" height="38.82" transform="translate(-181.65 222.74) rotate(-19.53)"/><rect class="cls-35" x="544.74" y="627.54" width="23.29" height="23.29" transform="translate(-181.65 222.74) rotate(-19.53)"/><path class="cls-38" d="M524.75,654.53a7.76,7.76,0,1,1-4.72,9.91h0a7.76,7.76,0,0,1,4.72-9.91"/></g></g></g><g class="cls-2"><path class="cls-4" d="M809.9,903.52H806v-9.41h-9.38v-3.84H806v-9.11h3.87v9.11h9.38v3.84H809.9Z"/><path class="cls-4" d="M1015.09,837.53h-3.87v-9.4h-9.37v-3.84h9.37v-9.12h3.87v9.12h9.38v3.84h-9.38Z"/><path class="cls-4" d="M858.9,651.93H855v-9.41h-9.38v-3.84H855v-9.12h3.87v9.12h9.38v3.84H858.9Z"/></g><g class="cls-39"><g class="cls-39"><g class="cls-39"><g class="cls-2"><path class="cls-32" d="M191.62,639.09,191,630a27.22,27.22,0,0,0-29.05-25.25h0l-72.41,5.06A27.23,27.23,0,0,0,64.26,638.9L64.9,648Z"/><polygon class="cls-40" points="128.26 643.52 148.36 605.73 103.1 608.89 128.26 643.52"/><path class="cls-41" d="M106,608.86c.62,8.88,40.08,6.12,39.46-2.76l-1.18-17-39.47,2.76Z"/><path class="cls-42" d="M105.32,599.52c5.93,5.83,12.88,7,20.3,6.52s14.12-2.69,19.2-9.29L143.71,581l-39.51,2.77,1.1,15.8Z"/><path class="cls-12" d="M124.31,511.83c-8.91-2.22,5.36-17.2.71-10.19-13.31,1.19-33.63,16.72-42.47,30.12-9.53,14.45-6.7,22.9-4.26,34.62,2.76,13.28,10.59,17,16.73,18.4,9.47,10.84,18.64,9.71,34.1,8.63,30.2-2.11,40.27-25.16,36.7-53.08-2.16-13.41-19.11-23-41.51-28.5"/><path class="cls-41" d="M155.22,538.27c-3.2-3.84-7.17-6.84-15.45-7.42,3.17,1.19,8.35,7.27,8.92,9.93s.93,7.9-1.4,5.1c-10.17-12.25-22.83-9.32-33.82-15.17-7.67-4.08-10.27-9-10.27-9s-.42,6.85-11.08,14.55c-3.09,2.24-6.64,7-8.31,13.72-1.21,4.85-.43,9,.07,16.27a39.15,39.15,0,0,0,41.54,36.11c21.44-1.5,37.57-20.61,36.11-41.54-.93-13.12-2.65-18.15-6.3-22.53"/><path class="cls-21" d="M127.77,574l-8.63.6a2.16,2.16,0,1,1-.3-4.31h0l8.63-.6a2.16,2.16,0,1,1,.3,4.31h0"/><path class="cls-31" d="M105.14,560.4a4.32,4.32,0,0,1-4.61-4l-.3-4.31a4.32,4.32,0,0,1,8.62-.6l.3,4.31a4.31,4.31,0,0,1-4,4.61h0M139.66,558a4.33,4.33,0,0,1-4.62-4l-.3-4.31a4.33,4.33,0,0,1,8.62-.74s0,.09,0,.14l.3,4.31a4.32,4.32,0,0,1-4,4.61"/><path class="cls-21" d="M125.28,592.27c-12.46.87-16.51-2-17.2-2.66a3,3,0,0,1,3.78-4.58c.25.15,3.42,2,13,1.3,10-.7,12.69-3.1,12.71-3.12a2.89,2.89,0,0,1,4.08-.27l.06,0a3,3,0,0,1,.23,4.25c-.59.7-4.2,4.15-16.66,5"/><path class="cls-37" d="M162.2,532s-11.55,5.36-41.22,7.43-41.86-1.62-41.86-1.62l-1.9-27.16,83.07-5.8,1.9,27.15Z"/><path class="cls-33" d="M93.27,533.4a2.27,2.27,0,0,1-4.53.32l-.95-13.58a2.27,2.27,0,1,1,4.52-.41.28.28,0,0,1,0,.09Zm58.84-4.11a2.27,2.27,0,0,1-4.52.4.28.28,0,0,1,0-.09l-1-13.58a2.27,2.27,0,0,1,4.52-.41s0,.07,0,.1Zm-45.14,5a2.27,2.27,0,0,1-4.52.41v-.09l-1-13.58a2.27,2.27,0,0,1,4.52-.41.28.28,0,0,0,0,.09Zm15.88-.66a2.27,2.27,0,1,1-4.53.32h0l-.95-13.58a2.27,2.27,0,0,1,4.52-.41s0,.07,0,.1ZM138.66,532a2.27,2.27,0,0,1-4.53.32l-.95-13.58a2.27,2.27,0,0,1,4.53-.31Z"/><path class="cls-32" d="M145.15,478.61a28.13,28.13,0,0,0-14.06,4.93,28.19,28.19,0,0,0-28.3,1.75,28.32,28.32,0,0,0-40.52,27.54c1.09,15.62,52.15,11.13,57.22,10.78,5.24-.37,57-3.07,55.93-18.7a28.34,28.34,0,0,0-30.27-26.3"/><path class="cls-33" d="M70.39,596.4c1.09,15.62-7.46,24.4-18.7,25.19s-20.94-6.72-22-22.34S36.48,565.8,47.73,565s21.56,15.76,22.66,31.39"/><rect class="cls-33" x="47.77" y="612.49" width="9.07" height="36.3" transform="matrix(1, -0.07, 0.07, 1, -43.85, 5.18)"/><path class="cls-21" d="M70.39,596.4c1.09,15.62-7.46,24.4-18.7,25.19s-20.94-6.72-22-22.34S36.48,565.8,47.73,565s21.56,15.76,22.66,31.39"/><rect class="cls-21" x="47.77" y="612.49" width="9.07" height="36.3" transform="matrix(1, -0.07, 0.07, 1, -43.85, 5.18)"/><path class="cls-37" d="M86.12,503.15a2.68,2.68,0,0,0,.49,0,2.28,2.28,0,0,0,2.08-1.94c.1-.67,1.06-6.63,5.27-10.43a37.47,37.47,0,0,1,8.74-5.54,28.06,28.06,0,0,0-5.91-2,35.6,35.6,0,0,0-5.87,4.19c-5.29,4.77-6.53,11.79-6.72,13.15a2.27,2.27,0,0,0,1.92,2.57m54.2-15.55c4.71,3.18,6.49,8.94,6.67,9.59a2.29,2.29,0,0,0,2.35,1.63,2.46,2.46,0,0,0,.46-.08,2.27,2.27,0,0,0,1.55-2.81c-.38-1.32-2.58-8.1-8.49-12.09a35.28,35.28,0,0,0-6.17-3.25,28.72,28.72,0,0,0-5.44,2.84,37.3,37.3,0,0,1,9.07,4.17"/></g></g></g></g><g class="cls-43"><g class="cls-44"><g class="cls-2"><path class="cls-45" d="M56.3,110.08,18.14,133a4.11,4.11,0,0,0-1.58,5.07l15.29,33.73A15.63,15.63,0,0,0,26,173.17c-6.94,3.15-10.39,10.52-7.69,16.48s10.52,8.22,17.46,5.07,10.38-10.52,7.68-16.47l-15-33.16L59.05,126.7l10.69,23.58a15.49,15.49,0,0,0-5.87,1.39c-6.94,3.14-10.38,10.52-7.69,16.47s10.52,8.23,17.46,5.08S84,162.7,81.33,156.74L60.81,111.49a3.09,3.09,0,0,0-4.06-1.65,3.21,3.21,0,0,0-.45.24"/></g></g></g><g class="cls-46"><g class="cls-46"><g class="cls-2"><path class="cls-47" d="M189.44,422.72c25.56,3.13,44.86,17.19,43.12,31.38s-23.87,23.16-49.43,20-44.86-17.2-43.11-31.39,23.87-23.16,49.42-20"/><path class="cls-48" d="M190,418.22c25.55,3.13,44.86,17.19,43.11,31.38s-23.87,23.17-49.42,20-44.86-17.19-43.12-31.39,23.87-23.16,49.43-20"/><path class="cls-49" d="M223.4,443.7c-1.36,11-18.57,18-38.44,15.58s-34.89-13.37-33.54-24.42,18.57-18,38.45-15.57,34.89,13.37,33.53,24.41"/><path class="cls-50" d="M224.08,438.16c-1.36,11-18.57,18-38.45,15.58s-34.88-13.38-33.53-24.42,18.57-18,38.44-15.57,34.89,13.37,33.54,24.41"/><path class="cls-49" d="M224.76,432.62c-1.36,11.05-18.57,18-38.45,15.58s-34.88-13.37-33.53-24.41,18.57-18,38.44-15.58,34.89,13.37,33.54,24.41"/><path class="cls-50" d="M225.44,427.09c-1.36,11-18.57,18-38.45,15.58s-34.89-13.38-33.53-24.42,18.57-18,38.44-15.57,34.89,13.37,33.54,24.41"/><path class="cls-49" d="M226.12,421.55c-1.36,11-18.57,18-38.45,15.58s-34.89-13.37-33.53-24.42,18.57-18,38.44-15.57,34.89,13.37,33.54,24.41"/><path class="cls-51" d="M213,450.52a39.68,39.68,0,0,1-6.62,2.24,2.4,2.4,0,0,0,2,2.45c1.54.19,3.6-1.25,4.65-4.69"/><path class="cls-52" d="M213.86,444.87a38.57,38.57,0,0,1-7,2.39c-.19,1.83-.34,3.26-.47,4.36a5.44,5.44,0,0,0,0,1.14,39.68,39.68,0,0,0,6.62-2.24,15.46,15.46,0,0,0,.53-2.59l.38-3.06"/><path class="cls-51" d="M214.57,439.32a38.38,38.38,0,0,1-7.15,2.43c-.24,2.15-.43,4-.59,5.51a38.83,38.83,0,0,0,7-2.39c.27-2.13.51-4,.71-5.55"/><path class="cls-52" d="M215.31,433.74l-7.23,2.46q-.37,3.07-.66,5.55a39.12,39.12,0,0,0,7.15-2.43c.46-3.6.74-5.58.74-5.58"/><path class="cls-53" d="M185,402.36c-9.83-4.36-14.32-3.32-14.64,4.79-.08,2.1-3.36,5.21-6.46,6.85-7.21,3.81-5.3,11.9,6.8,7.6,6.06-2.15,14.36-.94,24.08,3.4,8.16,3.63,13.07,7.31,13.3,11.2a27.24,27.24,0,0,0,7.23-2.47,19.19,19.19,0,0,0-7.71-9.45c-8.82-5.23.91-10,8.07-10.6,6.47-.52.83-6-8.8-7.05s-7.55,2.1-21.87-4.26"/><path class="cls-50" d="M201.74,410.19s-.12,3.24-1.28,3.72l-8.38,3.5a4.37,4.37,0,0,1-3.91-.48l-7.29-5.42c-1-.75-.33-4-.33-4Z"/><path class="cls-54" d="M201.07,408.91a1.36,1.36,0,0,1,.67,1.28,1.41,1.41,0,0,1-.94,1l-8.38,3.5a4.43,4.43,0,0,1-3.92-.49l-7.28-5.42a1.18,1.18,0,0,1,.28-2.23l8.37-3.5a4.4,4.4,0,0,1,3.92.48Z"/></g></g></g><rect class="cls-1" width="1024" height="1024"/><path class="cls-55" d="M583.73,36.91,879.84,21.39c34.11-1.79,54.58-2.86,68.52,2.06A70.55,70.55,0,0,1,992.88,63.1c6.41,13.2,7.47,33.45,9.24,67.2l15.65,298.61c1.77,33.75,2.83,54-2.16,67.79a70.53,70.53,0,0,1-40.14,44.09c-13.35,6.35-33.82,7.42-67.93,9.21l-296.1,15.52c-34.12,1.79-54.59,2.86-68.53-2.06a70.55,70.55,0,0,1-44.52-39.65c-6.4-13.2-7.47-33.45-9.23-67.2L473.51,158c-1.77-33.75-2.83-54,2.16-67.79A70.52,70.52,0,0,1,515.8,46.12C529.15,39.77,549.62,38.7,583.73,36.91Z"/><g class="cls-56"><g class="cls-57"><path class="cls-58" d="M881.73,354.38l-.11-.16c4.26,24.27,2.53,26.9-22.77,34.84-4.59,1.44-9.14,3-13.6,4.76-37.41,14.64-76.57,22.4-116.06,28.91-30,4.94-60.64,4.17-90.55,10.18-11.69,2.36-17.72-4.56-13.58-15.6,3.57-9.52,3.05-18.92.36-28.08-13.39-45.64-.69-85.89,25.76-123.42,2.88-4.09,6.71-8.27,11.35-2.14,4,5.29,9,10.85,10.32,17,7.92,35.67,5.56,70.58-11.39,103.71-2.4,4.69-4.06,9-.18,13.1s8.89,3,13.56,1.27c3.39-1.24,5.85-6.36,10.16-3.48,12.09,8.08,15.33-1.41,18.85-9.21a417.74,417.74,0,0,1,24.43-45.48c12.28-20.12,28.74-33.13,53.82-32.81,4.18.06,8.92.8,12-3.37,34.16-1.76,65.47,22.76,87.07,46.51"/><path class="cls-59" d="M794.15,304.38c-3.13,4.18-7.87,3.43-12,3.38-25.09-.33-41.55,12.68-53.83,32.81A416.68,416.68,0,0,0,703.85,386c-3.52,7.8-6.76,17.29-18.85,9.21-4.31-2.88-6.76,2.24-10.15,3.48-4.68,1.72-9.75,2.76-13.57-1.27s-2.22-8.41.18-13.1c16.95-33.13,19.31-68,11.39-103.7-1.36-6.14-6.3-11.7-10.32-17-4.64-6.13-8.46-1.95-11.35,2.14-26.45,37.53-39.15,77.78-25.76,123.42,2.69,9.16,3.21,18.55-.36,28.08-4.14,11,1.9,18,13.58,15.6,29.9-6,60.55-5.24,90.55-10.18,39.49-6.51,78.64-14.27,116.06-28.91,4.47-1.75,9-3.32,13.6-4.76,25.3-7.94,27-10.57,22.77-34.84,9,5.54,11,14.9,9.2,23.48C887.1,395,879.28,409.85,862,419.09c-47.52,25.44-98.61,33.36-151.7,31.67-23.25-.73-46.36-2-69.59,1.3-22.73,3.25-31.11-4.27-29.27-26.44,3.13-37.81-3.34-76.55,10.87-113.31,13-33.73,19.84-68.64,21.78-104.59.33-6.17,1.81-12.25,6.71-16.84,0,14.83,6.1,28.85,5.58,43.8-.37,10.38,7.58,12.63,14.85,9.74,16.93-6.72,35.27-10.84,49.85-22.45,4.3-3.43,8-6.91,13.92-6.13-4.93,16.64-15.46,28.68-32,34.28-9.87,3.33-12,9.52-11.7,18.45.74,23.35.52,46.76,2,70.06.79,12.12-6.5,23.74-1.22,38.32,11.25-19.66,22.1-37.21,37-51.84,18.17-17.82,40.33-23.1,65.06-20.73"/><path class="cls-58" d="M735,215.83c-5.95-.77-9.63,2.72-13.93,6.14-14.59,11.61-32.92,15.73-49.85,22.45-7.27,2.89-15.22.64-14.85-9.74.52-15-5.62-29-5.59-43.8l0,.26c6.38-.3,5.89-4.91,5.93-9.18,3-4.9,6-9.77,9-14.7,6-10.07,14.42-13.28,25.83-9.65,12.4,3.93,25.19,6.79,37.38,11.22,8.82,3.21,18.38,7.77,7.92,19.28-3.64,4,.83,4.54,2.42,6.07,3.6,3.43,6.72,6.92,5.54,12.37-3.81.49-5.19,2.75-4.74,6.34l.08-.36L737,215.41l-.95.47Zm-4.48-23.76c-8.5,4.15-14,7.78-20.13,9.57-6.51,1.91-14.2,3-14.54-7.51-.09-2.94,3.17-7.74-2.52-7.36-7.44.5-2.66,9-6.7,12.58-2.16,1.9-3.11,4.82.7,6.85,7.72,4.12,34.58-3.3,43.19-14.13"/><path class="cls-59" d="M656.7,182c0,4.27.45,8.88-5.93,9.18A10.19,10.19,0,0,1,656.7,182"/><path class="cls-59" d="M740,212.89c-.44-3.59.93-5.85,4.75-6.34.83,3.86-1.13,5.7-4.75,6.34"/><path class="cls-59" d="M737,215.41l3.06-2.88c-.27,1.74-1.17,2.83-3.06,2.88"/><path class="cls-59" d="M730.54,192.07c-8.61,10.83-35.47,18.25-43.19,14.13-3.81-2-2.86-4.95-.7-6.85,4-3.54-.74-12.08,6.7-12.58,5.69-.38,2.43,4.42,2.52,7.36.34,10.54,8,9.42,14.54,7.51,6.09-1.79,11.63-5.42,20.13-9.57"/></g></g><path class="cls-8" d="M571.06,109.74q-.36-7,6.68-7.34l17.17-.9-.53-10.1-14.64.77q-7.05.36-7.41-6.61T579,78.22l40-2.09q7.05-.37,7.41,6.6t-6.68,7.34l-11,.58.53,10.1,13.64-.72q7.05-.36,7.41,6.6T623.65,114l-13.73.72a29.87,29.87,0,0,1-4.29,15,42.34,42.34,0,0,1-8.84,10.23,54.35,54.35,0,0,1-13.06,7.5q-6.12,2.48-8.9-3.84-2.45-6.67,3.87-9.16,9.13-3.52,12.61-8.19a21,21,0,0,0,4.06-10.79l-16.9.88q-7.05.38-7.41-6.6Zm72.8-2.74c-3.38.18-5.31-1.6-5.81-5.34-.2-3.87,1.43-6,4.92-6.44L646.4,95l-.74-5.34q-1-5.77,5.18-6.73,5.77-.39,6.43,5.13l1,6,19.85-1.49q6.78-.43,10.45,3.89T690,107.63a47.67,47.67,0,0,1-5.1,9.9,40.27,40.27,0,0,1-7.82,8.16q-4.12,4.26-8.34-.19-2.16-4.73,1.12-7.94a42.07,42.07,0,0,0,7.82-9.82q1.08-3.64-1.81-3.4l-15.6,1.35L666.15,140q1,5.24-4.56,6.33-5.76.75-7-4.83l-6.18-34.9ZM754,93q5.63,3.73,3,9.17-1.81,5.19-8.3,14.41A61.32,61.32,0,0,1,735,131q-7.25,5.27-10.1,6.13-7.9,3.2-13.41-.91t-6-12L703,78q-.36-7.06,6.77-7.44t7.6,6.68l2.18,41.66q.4,4.27,4.07,3.19a41.58,41.58,0,0,0,5.64-3.88,40.52,40.52,0,0,0,8.91-9.66,66.36,66.36,0,0,0,6.59-11.86Q747.53,90.18,754,93ZM768.18,76.2q-.36-7,6.69-7.34L790.41,68q7.05-.36,7.41,6.6T791.14,82l-15.54.82c-4.7.25-7.17-2-7.42-6.6Zm54,5.68q6.19,2.46,4.43,8.37-2,8.44-8.5,18.6a71.75,71.75,0,0,1-14.34,16.7q-7.86,6.55-23.67,10.88-6.18,1.48-8.25-5.31-1.27-7,5.35-8.52,11.55-2.58,18-8.21a65.09,65.09,0,0,0,11.42-12.92,50.37,50.37,0,0,0,7-15.2q2-5.58,8.47-4.39ZM892,78.22q6.19,2.46,4.42,8.38-2,8.43-8.49,18.59a68.12,68.12,0,0,1-14.71,16.73q-8.22,6.57-24,10.89-6.17,1.49-8.25-5.3-1.27-7,5.35-8.53,11.57-2.58,18.42-8.23a60.32,60.32,0,0,0,11.78-12.94,50.37,50.37,0,0,0,7-15.2q2-5.56,8.47-4.39Zm-54.08-6.75q-.37-7,6.68-7.34l13.82-.73q7.05-.36,7.42,6.61t-6.68,7.43l-13.83.72q-7,.38-7.41-6.6ZM839,93.19q-.36-7,6.69-7.34l13.82-.73q7.05-.36,7.41,6.6t-6.67,7.44l-13.83.72q-7.05.38-7.41-6.6ZM883.3,64.88q-.16-3,2.91-3.2c2.11-.11,3.21.84,3.32,2.87l.36,6.79q.15,3-2.92,3.2c-2.11.11-3.21-.84-3.32-2.87Zm9.75-.52q-.15-3,2.92-3.2c2.11-.11,3.21.85,3.32,2.88l.36,6.79c.1,2-.87,3.09-2.92,3.2s-3.21-.85-3.32-2.87Z"/><path class="cls-8" d="M590,510.61q1.2.67,3.88,2.46a2.69,2.69,0,0,1,1.31,1.95,2.25,2.25,0,0,1,.07.4,2.83,2.83,0,0,1-.6,1.87,2.48,2.48,0,0,1-1.94,1.06h0a2.53,2.53,0,0,1-2-.76l0,0a.16.16,0,0,0-.19,0,.13.13,0,0,0-.08.14l.27,5.16a3.34,3.34,0,0,1-5.56,2.63,3.11,3.11,0,0,1-1.09-2.28l-.21-4c0-.06,0-.1-.13-.13s-.13,0-.16.06c-.66.95-1.35,1.85-2.08,2.72a2.73,2.73,0,0,1-1.94.92h-.23a3.42,3.42,0,0,1-2.32-1,2.84,2.84,0,0,1-.85-1.92,3,3,0,0,1,.9-2.34,30,30,0,0,0,4.87-6.07.26.26,0,0,0,0-.28.25.25,0,0,0-.26-.12l-3.24.17a2.78,2.78,0,0,1-2.07-.72,2.72,2.72,0,0,1-.94-1.94,2.82,2.82,0,0,1,.73-2.06,2.74,2.74,0,0,1,2-.95l4.52-.24a.4.4,0,0,0,.44-.48l-.1-1.92a.41.41,0,0,0-.48-.43l-4.76.25a2.69,2.69,0,0,1-2-.7,2.77,2.77,0,0,1,1.72-4.83l.65,0a.35.35,0,0,0,.27-.13.28.28,0,0,0,0-.25,9.61,9.61,0,0,0-.46-1.67,2.29,2.29,0,0,1-.12-.59,2.32,2.32,0,0,1,.22-1.11,2.11,2.11,0,0,1,1.28-1.08v-.05l-1.57.09a2.79,2.79,0,0,1-2.91-2.62,2.59,2.59,0,0,1,.7-2,2.69,2.69,0,0,1,1.92-.9l4.25-.23a.37.37,0,0,0,.4-.43l0-.27a3.19,3.19,0,0,1,.85-2.39,3.24,3.24,0,0,1,2.31-1.08,3.2,3.2,0,0,1,2.4.84,3.11,3.11,0,0,1,1.09,2.28l0,.27a.36.36,0,0,0,.43.39l4.25-.22a2.72,2.72,0,0,1,2,.69,2.76,2.76,0,0,1-1.72,4.79l-.83,0h0a1.38,1.38,0,0,1,1,.7,1.4,1.4,0,0,1,.12,1.26c-.55,1.43-.86,2.26-.94,2.47a.3.3,0,0,0,0,.25.23.23,0,0,0,.21.11l.88-.05a2.78,2.78,0,0,1,2.21,4.63,2.69,2.69,0,0,1-1.92.9L590,502a.42.42,0,0,0-.44.49l.1,1.91a.42.42,0,0,0,.49.44l3.92-.21a2.87,2.87,0,0,1,3,2.71,2.73,2.73,0,0,1-.73,2,2.86,2.86,0,0,1-2,.93l-4.34.22s0,0,0,0a.12.12,0,0,0,0,.06Zm-2.09-17c.13-.49.24-1,.34-1.44a.34.34,0,0,0-.06-.27.31.31,0,0,0-.29-.12L583,492a.3.3,0,0,0-.25.13.36.36,0,0,0,0,.29,15.33,15.33,0,0,1,.79,1.93,3.43,3.43,0,0,1,.08.5,1.91,1.91,0,0,1-.23,1,2,2,0,0,1-1.2,1v0l7.58-.4s0,0,0,0,0,0,0,0a2.26,2.26,0,0,1-1.53-1,2.08,2.08,0,0,1-.38-1.08,1.92,1.92,0,0,1,.1-.74Zm27.12-6.5a77.82,77.82,0,0,1-10.15,3.41.51.51,0,0,0-.43.58l.24,4.66a.41.41,0,0,0,.49.43l10.57-.56a3,3,0,0,1,2.27.82,3.13,3.13,0,0,1,.23,4.44,3,3,0,0,1-2.17,1.05l-.46,0a.36.36,0,0,0-.39.44l1,18.91a3.16,3.16,0,0,1-.85,2.38,3.39,3.39,0,0,1-4.71.25,3.18,3.18,0,0,1-1.09-2.28l-1-18.87a.41.41,0,0,0-.49-.43l-2.58.13c-.31,0-.46.18-.44.48q.33,12.63-4.09,20.05a2.33,2.33,0,0,1-1.93,1.16H599a3.38,3.38,0,0,1-2.33-.86,3.72,3.72,0,0,1-1.3-2.2,3.5,3.5,0,0,1-.08-.59,3.69,3.69,0,0,1,.46-2,22,22,0,0,0,2.47-8,56.43,56.43,0,0,0,.23-9.41l-.68-12.88a2.52,2.52,0,0,1,.91-2.15,2.49,2.49,0,0,1,1.54-.63,2.57,2.57,0,0,1,.77.07,1.4,1.4,0,0,0,.76,0,64.77,64.77,0,0,0,7.63-2.92,5.55,5.55,0,0,1,2.28-.62,3.63,3.63,0,0,1,.88,0,5.38,5.38,0,0,1,3,1.12,2.23,2.23,0,0,1,.87,1.65,2.36,2.36,0,0,1,0,.46,2,2,0,0,1-1.34,1.77Zm17.37,22.13a6.9,6.9,0,0,0,1.11,3.92,3.47,3.47,0,0,0,2.86,1.27,12.91,12.91,0,0,0,5.09-1.43,57.14,57.14,0,0,0,6.8-4.18,2.93,2.93,0,0,1,4.46.31q1.9,2.65-.47,5.16a40.09,40.09,0,0,1-4.37,3.27,30.62,30.62,0,0,1-5.27,2.73,20.82,20.82,0,0,1-6.27,1.48c-3.6.12-6.26-.78-8-2.72s-2.65-4.71-2.84-8.31l-1.22-23.2q-.18-3.43,3.29-3.61t3.64,3.24Zm26.49-22.1q0-3.44,3.42-3.61c2.16,0,3.27,1.09,3.32,3.26,0,.82.08,2.18.12,4.07s.09,3.94.16,6.15.14,4.25.2,6.11a40.16,40.16,0,0,0,.66,5.83c.31,1.48.85,2.24,1.62,2.29a6.66,6.66,0,0,0,2.42-.67c1.58-1.12,2.94-.77,4.09,1.07a3.87,3.87,0,0,1-1.65,4.89,5.91,5.91,0,0,1-1.78,1.24,15.91,15.91,0,0,1-3.29.82,5.84,5.84,0,0,1-6.15-2.87q-2.14-3.39-2.52-10.56c-.11-1.95-.21-4.12-.32-6.51s-.2-4.63-.26-6.72S658.87,488.22,658.91,487.12Zm19.87-.81c-.58-2.11.35-3.25,2.78-3.44q3.09-.12,3.87,3.09A75,75,0,0,1,688,497.44a118.8,118.8,0,0,1,1.53,15.33q.2,3.75-3.27,3.93c-2.25.12-3.41-.89-3.5-3,0-1-.13-2.79-.34-5.34s-.54-5.35-1-8.38-.88-5.61-1.35-7.74S679.21,488.12,678.78,486.31Zm18.69,21.79a11.39,11.39,0,0,1,2.59-7.15q1.63-2.32,4.31-.89t1,4.1a4.59,4.59,0,0,0-.73,2.69,2.66,2.66,0,0,0,.54,1.55,3.32,3.32,0,0,0,2.06.93,24.21,24.21,0,0,0,4.85.15,87.56,87.56,0,0,0,8.88-1q3.59-.74,3.88,3.28c.18,2.19-1,3.53-3.49,4a59.45,59.45,0,0,1-9.9,1.2q-6.91.38-10.38-1.93a8.21,8.21,0,0,1-3.65-6.95ZM717,481c2.15-.12,3.48.78,4,2.7s-.44,3.81-2.78,5.71l-2.88,2.35a5.08,5.08,0,0,1-4.76.25q-1.82-2-.15-3.66l-9.56.5c-2.34.12-3.57-1-3.69-3.29s1-3.58,3.33-3.7Zm41.58,9.59q.13,3.42-2.77,3.63-7.87.92-10.74,2a16.77,16.77,0,0,0-4.88,2.75,5,5,0,0,0-1.93,4.2,4.84,4.84,0,0,0,1.77,3.67,6.76,6.76,0,0,0,3.75,1.4,26.22,26.22,0,0,0,4.65-.1q2.91-.16,7.69-.91,3.25-.49,3.5,3.11.25,3.33-2.77,3.86a45.48,45.48,0,0,1-7.91.92,38.4,38.4,0,0,1-8.33-.34,12.13,12.13,0,0,1-6.79-3.5c-1.92-1.91-2.86-4.63-2.83-8.14a13.8,13.8,0,0,1,1-4.93,9.89,9.89,0,0,1,2.53-3.48,38,38,0,0,1,3.25-2.57l-2.3-10.24c-.27-1.69.61-2.78,2.65-3.25,2.15-.3,3.4.5,3.74,2.37l1.79,8.61q4-1.77,11.78-2.5c1.94-.1,3,1,3.14,3.46Zm6.45-3.23q.12-4,.4-6.66c.33-2,1.63-2.95,3.92-2.95,2-.07,2.95,1,2.94,3.14q-.21,2.17-.33,6.13t.07,8.32q.29,4.6.82,8.54t1,6.07c.24,2.15-.63,3.3-2.6,3.43q-3.41.36-4.2-2.53c-.37-1.75-.74-3.94-1.09-6.58s-.62-5.41-.81-8.39v0c-.13-3-.15-5.84-.08-8.48Zm10.53,16.13a15,15,0,0,1,.77-5.59,3.07,3.07,0,0,1,3.59-2.2c2,.48,2.74,1.54,2.2,3.18a9.34,9.34,0,0,0-.2,2.35,3.43,3.43,0,0,0,.41,1.63,2.91,2.91,0,0,0,1.57,1.2,9.16,9.16,0,0,0,3.38.37c2.34-.12,4-.25,4.93-.4q3.3-.63,3.68,2.93c0,2.32-.86,3.65-2.76,4a55.29,55.29,0,0,1-5.94.72c-3.6.1-6.39-.63-8.35-2.19a8.33,8.33,0,0,1-3.28-6ZM789.72,479c2.34-.13,3.57,1,3.7,3.28s-1,3.58-3.33,3.7l-10.53.56q-3.51.18-3.69-3.29c-.12-2.35,1-3.58,3.32-3.7Zm26.49-1.71a3.67,3.67,0,0,1,2.45,1.65c0,.06.08.08.12.07a.11.11,0,0,0,.07-.12l-.29-5.48a2.92,2.92,0,0,1,.81-2.24,3,3,0,0,1,2.19-1,3,3,0,0,1,2.26.8,3,3,0,0,1,1,2.15l.9,17.27q.19,3.51.07,6.2a35.55,35.55,0,0,1-.7,5.6,17.69,17.69,0,0,1-5.73,9.92,3.4,3.4,0,0,1-2,.84,3.51,3.51,0,0,1-.56,0,4.76,4.76,0,0,1-2.56-1.15,2.66,2.66,0,0,1-.88-1.83,2.78,2.78,0,0,1,.94-2.3,14.64,14.64,0,0,0,4.65-7.71.08.08,0,0,0,0-.13.18.18,0,0,0-.19,0c-.32.32-.72.68-1.19,1.07a2.8,2.8,0,0,1-1.73.73,4.19,4.19,0,0,1-.6,0,2.82,2.82,0,0,1-2.06-1.26,3.39,3.39,0,0,1-.54-1.62,4.23,4.23,0,0,1,0-.88,3.49,3.49,0,0,1,1.42-2.13q2.06-1.44,4.73-3.46a.5.5,0,0,1,.43-.09.64.64,0,0,1,.36.28l-.09-1.78-.21-4.07a.22.22,0,0,0-.1-.15.14.14,0,0,0-.19,0,2.24,2.24,0,0,1-1.13.38,2.5,2.5,0,0,1-2.34-1.34q-1.14-2.24-2.71-4.76a.11.11,0,0,0-.14-.06.12.12,0,0,0-.09.12l.05.91a2.94,2.94,0,0,1-.81,2.24,3,3,0,0,1-2.17,1,.33.33,0,0,0-.35.39l.2,3.83a.24.24,0,0,0,.13.2.2.2,0,0,0,.21,0,3.19,3.19,0,0,1,1-.23,2.55,2.55,0,0,1,1.26.26,2.65,2.65,0,0,1,1.44,1.71,3.1,3.1,0,0,1,.13.77,3.2,3.2,0,0,1-.38,1.67,3.47,3.47,0,0,1-1.76,1.74c-.33.17-.72.36-1.17.56a.65.65,0,0,0-.43.67l.58,11.15a11.37,11.37,0,0,1-.27,3.63,4,4,0,0,1-1.5,2.18,8.62,8.62,0,0,1-3.55,1.34l-.36.06a3.13,3.13,0,0,1-2.12-.67A4.35,4.35,0,0,1,801,512a2.52,2.52,0,0,1,0-1.44,2.21,2.21,0,0,1,.77-1.19,2.58,2.58,0,0,1,1.36-.55l.32,0a.76.76,0,0,0,.57-.19.77.77,0,0,0,.13-.58l-.46-8.86a.27.27,0,0,0-.13-.24.25.25,0,0,0-.25,0l-.14.05a3.09,3.09,0,0,1-1,.24,3.37,3.37,0,0,1-1.41-.25,2.91,2.91,0,0,1-1.57-1.84,2.94,2.94,0,0,1,.23-2.58,3.64,3.64,0,0,1,2-1.75c.51-.18,1-.37,1.59-.59a.59.59,0,0,0,.38-.66l-.3-5.75a.42.42,0,0,0-.49-.44l-1,.06a3.06,3.06,0,0,1-2.27-.8,3,3,0,0,1-1-2.14,3,3,0,0,1,.81-2.25,3.07,3.07,0,0,1,2.17-1l1-.05a.41.41,0,0,0,.43-.48l-.25-4.93a3,3,0,0,1,.8-2.27,3.2,3.2,0,0,1,4.44-.23,3,3,0,0,1,1,2.17l.26,4.93a.39.39,0,0,0,.48.43l2.08-.11a1.65,1.65,0,0,0,.86-.27l.9-.55a4.06,4.06,0,0,1,1.92-.61,4.38,4.38,0,0,1,1.06.09Zm19.8,29.6,1.8-.09c.28,0,.49-.22.62-.6a7.53,7.53,0,0,0,.22-2.05,1.84,1.84,0,0,1,.93-1.61,2.43,2.43,0,0,1,1-.28,2.5,2.5,0,0,1,.93.13,5.33,5.33,0,0,1,2.17,1.68,3.09,3.09,0,0,1,.65,1.75,2,2,0,0,1-.06.6,9.09,9.09,0,0,1-1.72,4.76,5.13,5.13,0,0,1-3.78,1.62l-3.65.19c-2.4.13-4.06-.4-5-1.57s-1.45-3.45-1.63-6.83l-1.65-31.52a3,3,0,0,1,.85-2.32,3.23,3.23,0,0,1,2.26-1.05,3.15,3.15,0,0,1,2.34.81,3.05,3.05,0,0,1,1.06,2.21l.43,8.09c0,.06,0,.09.07.09a.14.14,0,0,0,.11-.05c.43-1.19.84-2.34,1.21-3.46a2.94,2.94,0,0,1,2.67-2.15,2.83,2.83,0,0,1,1.31.25,3.2,3.2,0,0,1,1.76,1.88,3.32,3.32,0,0,1-.14,2.57q-1.92,3.9-2.09,4.28a3.31,3.31,0,0,1-1.86,1.61,4.8,4.8,0,0,1-.88.13,3.27,3.27,0,0,1-1.59-.32.25.25,0,0,0-.31.2l.22,4.29c0,.06,0,.1.06.11s.06,0,.09,0a2.36,2.36,0,0,1,1.44-.71h.09a2.06,2.06,0,0,1,1.46.47c1.75,1.41,3.31,2.79,4.71,4.16a3.35,3.35,0,0,1,1,2.23,3.69,3.69,0,0,1-.84,2.57,2.54,2.54,0,0,1-1.85.92h-.18a2.68,2.68,0,0,1-2.09-.9q-1.47-1.62-3.28-3.36a.2.2,0,0,0-.21,0,.17.17,0,0,0-.1.19l.45,8.54a10.12,10.12,0,0,0,.25,2.19A.66.66,0,0,0,836,506.88ZM869.3,504l-6,.31a.41.41,0,0,0-.44.48l.2,3.75a3.07,3.07,0,0,1-.85,2.36,3.34,3.34,0,0,1-4.64.24,3.14,3.14,0,0,1-1.07-2.26l-.19-3.74a.4.4,0,0,0-.49-.43l-6.33.33a2.93,2.93,0,0,1-2.17-.76,3,3,0,0,1-.22-4.2,2.91,2.91,0,0,1,2.08-1l6.33-.33a.41.41,0,0,0,.44-.48l-.06-1.15a.41.41,0,0,0-.49-.43l-3.65.19a3.91,3.91,0,0,1-2.9-1,3.83,3.83,0,0,1-1.32-2.75l-.53-10a3.83,3.83,0,0,1,1-2.87,3.9,3.9,0,0,1,2.78-1.31l14.09-.74c.06,0,.09,0,.09-.05a.14.14,0,0,0,0-.09,3,3,0,0,1-2.13-1.67,3.75,3.75,0,0,1-.35-1.36,3.28,3.28,0,0,1,.25-1.39l1-2.8a4.06,4.06,0,0,1,1.73-2.29,3.82,3.82,0,0,1,1.82-.6,4.26,4.26,0,0,1,1,.09,2.67,2.67,0,0,1,2,1.5,2.79,2.79,0,0,1,.33,1.13,2.5,2.5,0,0,1-.3,1.34q-1.71,3.53-3.07,5.84c0,.07,0,.12,0,.16a.13.13,0,0,0,.14.06,2.36,2.36,0,0,1,2.48,2.26l.61,11.6a4,4,0,0,1-3.81,4.18l-3.7.2a.41.41,0,0,0-.44.48l.06,1.14a.4.4,0,0,0,.49.43l6-.31a2.93,2.93,0,0,1,2.17.76A3,3,0,0,1,869.3,504Zm-16.69-30.37a3,3,0,0,1,.24,1,2.94,2.94,0,0,1-.3,1.39,3.11,3.11,0,0,1-1.81,1.65,2.26,2.26,0,0,1-.87.23,2.67,2.67,0,0,1-1.36-.3,3.11,3.11,0,0,1-1.57-1.74,22.79,22.79,0,0,0-1-2.25,3,3,0,0,1-.24-1,2.48,2.48,0,0,1,.22-1.16,2.35,2.35,0,0,1,1.45-1.45,3.45,3.45,0,0,1,1.05-.24,3.55,3.55,0,0,1,1.36.21,3.09,3.09,0,0,1,1.74,1.53C852,472.28,852.3,473,852.61,473.67Zm.49,10.15a.4.4,0,0,0-.44.48l0,.87a.41.41,0,0,0,.49.43l2.08-.11a.41.41,0,0,0,.44-.48l-.05-.87a.41.41,0,0,0-.49-.43Zm.33,6.35a.4.4,0,0,0-.44.48l0,.87a.4.4,0,0,0,.48.43l2.08-.11a.41.41,0,0,0,.44-.48l0-.87a.4.4,0,0,0-.48-.43Zm6.22-20,.81,2.11a3,3,0,0,1,.18.82,2.61,2.61,0,0,1-.39,1.49,3,3,0,0,1-1.86,1.51,2.74,2.74,0,0,1-.74.13,2.84,2.84,0,0,1-1.5-.33,2.94,2.94,0,0,1-1.43-1.8c-.23-.75-.47-1.5-.72-2.26a2.58,2.58,0,0,1-.19-.81,2.68,2.68,0,0,1,.3-1.34,2.61,2.61,0,0,1,1.65-1.33,3.18,3.18,0,0,1,.78-.13,3.33,3.33,0,0,1,1.54.29,3,3,0,0,1,1.57,1.65Zm4.12,14.91a.41.41,0,0,0,.43-.49l0-.86a.42.42,0,0,0-.49-.44l-1.85.1a.41.41,0,0,0-.43.48l0,.87a.41.41,0,0,0,.49.43Zm.33,6.35a.42.42,0,0,0,.44-.49l0-.86a.42.42,0,0,0-.49-.44l-1.84.1c-.31,0-.46.18-.44.48l0,.87a.4.4,0,0,0,.48.43Zm21.07-7.06c-.06,0-.1,0-.11.12a.12.12,0,0,0,.08.15l1.23.58a4.58,4.58,0,0,1,2.3,2.35,4.73,4.73,0,0,1,.36,1.54,4.21,4.21,0,0,1-.28,1.71,45.76,45.76,0,0,1-4.32,8.66.79.79,0,0,0-.09.78c.62,1.37,1.18,2.06,1.68,2.06s.71-.9.83-2.65a1.37,1.37,0,0,1,.91-1.24,1.88,1.88,0,0,1,.59-.12,1.57,1.57,0,0,1,1,.31,5.57,5.57,0,0,1,1.83,2.15,3.77,3.77,0,0,1,.45,1.58,3.83,3.83,0,0,1-.08,1,12.26,12.26,0,0,1-2.22,5.48,4.07,4.07,0,0,1-2.79,1.57h-.13q-3.79.06-6.39-4.38a.34.34,0,0,0-.27-.19.41.41,0,0,0-.29.08,35.18,35.18,0,0,1-3.94,3.64,3.7,3.7,0,0,1-2,.75,4.07,4.07,0,0,1-.6,0,4.78,4.78,0,0,1-2.61-1.15,2.31,2.31,0,0,1-.88-1.69.9.9,0,0,1,0-.28,2.24,2.24,0,0,1,1-1.84,30.62,30.62,0,0,0,6.54-5.93.85.85,0,0,0,.15-.79,93.79,93.79,0,0,1-2.35-12.11q-.06-.36-.39-.3a2.35,2.35,0,0,1-.41.07,2.92,2.92,0,0,1-1.88-.54,2.87,2.87,0,0,1-1.26-2l-.06-.13,0-.41a3.19,3.19,0,0,1,2.7-3.3h.14a.38.38,0,0,0,.35-.43c-.48-4.34-.76-7.44-.86-9.3a3.05,3.05,0,0,1,.76-2.24,3.28,3.28,0,0,1,4.55-.22,3.18,3.18,0,0,1,1.11,2.21q.25,3.89.72,8.39,0,.47.48.39l5.83-1,.42,0a3.23,3.23,0,0,1,3.24,2.63l0,.36a3.2,3.2,0,0,1-2.66,3.3Zm-2.94,6.7a42.07,42.07,0,0,0,2.32-6.21.28.28,0,0,0-.06-.25.29.29,0,0,0-.24-.1l-2.8.51a.44.44,0,0,0-.39.52c.25,1.67.54,3.49.89,5.45,0,.1,0,.15.13.16a.13.13,0,0,0,.15-.08Zm4.64-22c.6.91,1.13,1.77,1.57,2.57a3.15,3.15,0,0,1,.39,1.36,3.47,3.47,0,0,1-.12,1.1,3.43,3.43,0,0,1-1.61,2,2.6,2.6,0,0,1-1.19.38,2.85,2.85,0,0,1-2.72-1.6c-.45-.92-1-1.86-1.49-2.81a2.56,2.56,0,0,1-.44-1.3,3,3,0,0,1,1.39-2.6,3.55,3.55,0,0,1,1.42-.39,4.46,4.46,0,0,1,.88,0,3,3,0,0,1,1.92,1.28Zm12,31.94a4.86,4.86,0,0,1,1.4-3.76,6.14,6.14,0,0,1,8-.42,4.84,4.84,0,0,1,1.79,3.6,4.75,4.75,0,0,1-1.4,3.76,6.27,6.27,0,0,1-8,.42A4.78,4.78,0,0,1,898.82,501Zm1.7-10.9-2.14-11.8L898,474.5a3.56,3.56,0,0,1,.91-2.87,3.8,3.8,0,0,1,2.71-1.31l2.36-.12a3.73,3.73,0,0,1,2.83,1,3.56,3.56,0,0,1,1.21,2.75l.06,3.8-.9,12a3.4,3.4,0,0,1-1,2.14,3.22,3.22,0,0,1-2.18,1,3.26,3.26,0,0,1-2.26-.73A3.4,3.4,0,0,1,900.52,490.08Zm22,9.66a4.83,4.83,0,0,1,1.4-3.76,6.14,6.14,0,0,1,8-.42,4.89,4.89,0,0,1,1.79,3.6,4.78,4.78,0,0,1-1.4,3.76,6.27,6.27,0,0,1-8,.42A4.74,4.74,0,0,1,922.47,499.74Zm1.7-10.9L922,477l-.34-3.78a3.53,3.53,0,0,1,.92-2.86,3.73,3.73,0,0,1,2.71-1.31l2.35-.13a3.83,3.83,0,0,1,2.84,1,3.58,3.58,0,0,1,1.21,2.76l.06,3.79-.91,12a3.4,3.4,0,0,1-1,2.14,3.33,3.33,0,0,1-4.43.23A3.35,3.35,0,0,1,924.17,488.84Z"/></svg>