<svg id="レイヤー_1" data-name="レイヤー 1" xmlns="http://www.w3.org/2000/svg" xmlns:xlink="http://www.w3.org/1999/xlink" viewBox="0 0 1024 1024"><defs><style>.cls-1{fill:none;}.cls-2{clip-path:url(#clip-path);}.cls-3{fill:#f3ac00;}.cls-4{fill:#f2ab00;}.cls-5{clip-path:url(#clip-path-2);}.cls-6{fill:#124a83;}.cls-7{clip-path:url(#clip-path-3);}.cls-8{fill:#fff;}.cls-9{clip-path:url(#clip-path-4);}.cls-10{fill:#d82068;}.cls-11{clip-path:url(#clip-path-7);}.cls-12{fill:#dd2e44;}.cls-13{fill:#fdcb58;}.cls-14{clip-path:url(#clip-path-9);}.cls-15{clip-path:url(#clip-path-10);}.cls-16{fill:#3b88c3;}.cls-17{fill:#f3d2a2;}.cls-18{fill:#e2c196;}.cls-19{fill:#ffe51e;}.cls-20{fill:#c1694f;}.cls-21{fill:#662113;}.cls-22{fill:#292f33;}.cls-23{fill:#ccd6dd;}.cls-24{fill:#f5f8fa;}.cls-25{clip-path:url(#clip-path-12);}.cls-26{fill:#60352a;}.cls-27{fill:#af7e57;}.cls-28{fill:#9b6a49;}.cls-29{fill:#df1f32;}.cls-30{fill:#915a34;}.cls-31{clip-path:url(#clip-path-15);}.cls-32{clip-path:url(#clip-path-16);}.cls-33{fill:#e1e8ed;}.cls-34{fill:#99aab5;}.cls-35{fill:#55acee;}.cls-36{clip-path:url(#clip-path-19);}.cls-37{clip-path:url(#clip-path-21);}.cls-38{clip-path:url(#clip-path-22);}.cls-39{fill:#ffac33;}.cls-40{fill:#ffdc5d;}.cls-41{clip-path:url(#clip-path-25);}.cls-42{fill:#d1d3d4;}.cls-43{fill:#f7dece;}.cls-44{clip-path:url(#clip-path-27);}.cls-45{fill:#107eff;}.cls-46{clip-path:url(#clip-path-31);}.cls-47{fill:#f83d8e;}.cls-48{fill:#ff63b7;}.cls-49{fill:#ee3564;}</style><clipPath id="clip-path"><rect class="cls-1" width="1024" height="1024"/></clipPath><clipPath id="clip-path-2"><rect class="cls-1" y="0.47" width="1024" height="1023.53"/></clipPath><clipPath id="clip-path-3"><rect class="cls-1" y="9.41" width="943.2" height="1014.59"/></clipPath><clipPath id="clip-path-4"><rect class="cls-1" x="458.86" y="8.32" width="532.45" height="532.45" transform="translate(-9.14 25.47) rotate(-2)"/></clipPath><clipPath id="clip-path-7"><rect class="cls-1" x="101.88" y="380.84" width="129.25" height="115.88"/></clipPath><clipPath id="clip-path-9"><rect class="cls-1" x="247.53" y="273.93" width="156.01" height="124.91" transform="translate(-61.94 599.04) rotate(-80.07)"/></clipPath><clipPath id="clip-path-10"><rect class="cls-1" x="247.52" y="273.93" width="156.01" height="124.91" transform="translate(-61.94 599.04) rotate(-80.07)"/></clipPath><clipPath id="clip-path-12"><rect class="cls-1" x="38.68" y="112.89" width="182.36" height="234.96" transform="translate(-56.6 42.85) rotate(-15.43)"/></clipPath><clipPath id="clip-path-15"><rect class="cls-1" x="270.22" y="517.26" width="189.03" height="157.53" transform="translate(-56.09 38.19) rotate(-5.57)"/></clipPath><clipPath id="clip-path-16"><rect class="cls-1" x="270.22" y="517.26" width="189.03" height="157.53" transform="translate(-56.09 38.19) rotate(-5.57)"/></clipPath><clipPath id="clip-path-19"><rect class="cls-1" x="78.29" y="509.69" width="85.24" height="86.86"/></clipPath><clipPath id="clip-path-21"><rect class="cls-1" x="78.29" y="509.69" width="85.24" height="86.86"/></clipPath><clipPath id="clip-path-22"><rect class="cls-1" x="36.42" y="603.43" width="73.21" height="74.95"/></clipPath><clipPath id="clip-path-25"><rect class="cls-1" x="140.39" y="599.44" width="82.92" height="82.92"/></clipPath><clipPath id="clip-path-27"><rect class="cls-1" x="243.74" y="144.67" width="76.75" height="85.61" transform="matrix(0.37, -0.93, 0.93, 0.37, 3.27, 379.78)"/></clipPath><clipPath id="clip-path-31"><rect id="SVGID" class="cls-1" x="574.44" y="170.2" width="336.04" height="258.72" transform="translate(-10 26.09) rotate(-2)"/></clipPath></defs><g class="cls-2"><polygon class="cls-3" points="692.24 42.72 704.84 86.16 660.72 75.16 692.24 42.72"/><polygon class="cls-3" points="978.32 86.16 1023.33 90.63 996.7 127.48 978.32 86.16"/><path class="cls-4" d="M230.59,55.77h-3.87V46.36h-9.38V42.52h9.38V33.4h3.87v9.12H240v3.84h-9.38Z"/><path class="cls-4" d="M551.33,98.15h-3.87V88.74h-9.37V84.9h9.37V75.78h3.87V84.9h9.38v3.84h-9.38Z"/><path class="cls-4" d="M830.4,24.33h-3.87v-9.4h-9.38V11.09h9.38V2h3.87v9.12h9.38v3.84H830.4Z"/><path class="cls-4" d="M1015.09,246.51h-3.87V237.1h-9.37v-3.84h9.37v-9.12h3.87v9.12h9.38v3.84h-9.38Z"/><path class="cls-4" d="M33.16,328.2H29.29v-9.4H19.92V315h9.37v-9.12h3.87V315h9.38v3.84H33.16Z"/><path class="cls-4" d="M56.51,115.61H52.64v-9.4H43.26v-3.84h9.38V93.25h3.87v9.12h9.37v3.84H56.51Z"/><path class="cls-4" d="M433.73,44.33h-3.87V34.92h-9.38V31.08h9.38V22h3.87v9.11h9.37v3.84h-9.37Z"/><path class="cls-4" d="M982.24,382.79h-3.87v-9.41H969v-3.84h9.38v-9.12h3.87v9.12h9.37v3.84h-9.37Z"/><path class="cls-3" d="M971.08,571.9a.87.87,0,0,0-.82.38c-.55.81-1.14,1.75-1.77,2.75-2.33,3.65-5.22,8.2-8.3,10.7s-8.12,4.37-12.18,5.88c-1.1.41-2.15.8-3.06,1.17a.87.87,0,0,0-.48,1.13.83.83,0,0,0,.32.4c.81.55,1.75,1.14,2.75,1.78,3.65,2.32,8.2,5.21,10.7,8.29s4.37,8.13,5.88,12.19c.41,1.1.8,2.14,1.17,3a.86.86,0,0,0,1.13.48.83.83,0,0,0,.4-.32c.55-.81,1.14-1.75,1.78-2.74,2.32-3.66,5.21-8.21,8.29-10.7s8.13-4.38,12.19-5.89c1.1-.41,2.14-.8,3-1.17a.86.86,0,0,0,.48-1.13.83.83,0,0,0-.32-.4c-.81-.54-1.75-1.14-2.74-1.77-3.66-2.33-8.21-5.22-10.7-8.3s-4.37-8.13-5.89-12.19c-.41-1.1-.8-2.14-1.16-3A.87.87,0,0,0,971.08,571.9Z"/><path class="cls-3" d="M40.32,456.63a.69.69,0,0,0-.6.41c-.33.71-.69,1.53-1.07,2.41-1.38,3.2-3.11,7.19-5.25,9.55s-5.91,4.5-8.95,6.23c-.83.46-1.61.9-2.29,1.31a.7.7,0,0,0,.07,1.24c.71.33,1.54.69,2.41,1.06,3.2,1.39,7.19,3.12,9.55,5.26s4.51,5.91,6.23,8.95c.46.83.9,1.61,1.31,2.29a.7.7,0,0,0,1.24-.07c.33-.71.69-1.54,1.06-2.41,1.39-3.2,3.12-7.19,5.26-9.56s5.92-4.5,9-6.22c.82-.46,1.6-.9,2.28-1.31a.7.7,0,0,0-.07-1.24c-.71-.33-1.53-.69-2.4-1.07-3.2-1.39-7.19-3.11-9.56-5.25s-4.5-5.92-6.22-9c-.47-.82-.91-1.6-1.31-2.28A.72.72,0,0,0,40.32,456.63Z"/><path class="cls-3" d="M893.84,744a.85.85,0,0,0-.81.38c-.55.81-1.15,1.75-1.78,2.74-2.33,3.66-5.22,8.21-8.29,10.7s-8.13,4.37-12.19,5.89c-1.1.41-2.15.8-3,1.16a.87.87,0,0,0-.49,1.13.94.94,0,0,0,.32.41c.82.54,1.76,1.14,2.75,1.77,3.66,2.33,8.21,5.22,10.7,8.29s4.37,8.13,5.89,12.19c.41,1.1.8,2.15,1.16,3.05a.87.87,0,0,0,1.13.49.85.85,0,0,0,.4-.32c.55-.82,1.15-1.76,1.78-2.75,2.33-3.66,5.22-8.21,8.29-10.7s8.13-4.37,12.19-5.89c1.1-.41,2.15-.8,3-1.16a.87.87,0,0,0,.49-1.13.85.85,0,0,0-.32-.4c-.82-.55-1.75-1.15-2.75-1.78-3.65-2.32-8.21-5.22-10.7-8.29s-4.37-8.13-5.88-12.19c-.41-1.1-.8-2.15-1.17-3.05A.87.87,0,0,0,893.84,744Z"/><path class="cls-3" d="M18.5,601.08a.7.7,0,0,0-.6.4c-.33.72-.69,1.54-1.07,2.41-1.39,3.2-3.11,7.19-5.25,9.56s-5.91,4.5-8.95,6.22c-.83.47-1.61.91-2.29,1.31a.71.71,0,0,0-.25,1,.79.79,0,0,0,.32.28c.71.34,1.53.69,2.4,1.07,3.2,1.39,7.19,3.12,9.56,5.25s4.51,5.92,6.23,9c.46.82.9,1.61,1.31,2.28a.71.71,0,0,0,1,.25.76.76,0,0,0,.28-.31c.33-.72.69-1.54,1.06-2.41,1.39-3.2,3.12-7.19,5.26-9.56s5.92-4.5,9-6.22l2.28-1.31a.7.7,0,0,0,.24-1,.65.65,0,0,0-.31-.28c-.71-.34-1.53-.69-2.4-1.07-3.2-1.39-7.2-3.12-9.57-5.25s-4.5-5.92-6.22-9c-.46-.83-.9-1.6-1.31-2.28A.67.67,0,0,0,18.5,601.08Z"/><path class="cls-3" d="M922.81,923.66a.86.86,0,0,0-.82.38c-.54.81-1.14,1.75-1.77,2.74-2.33,3.66-5.22,8.21-8.3,10.7s-8.12,4.38-12.18,5.89c-1.1.41-2.15.8-3.06,1.17a.87.87,0,0,0-.48,1.13.89.89,0,0,0,.32.4c.82.55,1.75,1.14,2.75,1.77,3.65,2.33,8.2,5.22,10.7,8.3s4.37,8.12,5.88,12.18c.42,1.1.8,2.15,1.17,3.06a.87.87,0,0,0,1.13.48.89.89,0,0,0,.4-.32c.55-.81,1.15-1.75,1.78-2.75,2.32-3.65,5.22-8.2,8.29-10.7s8.13-4.37,12.19-5.88c1.1-.41,2.14-.8,3.05-1.17a.87.87,0,0,0,.49-1.13.92.92,0,0,0-.33-.4c-.81-.55-1.74-1.14-2.74-1.78-3.66-2.32-8.21-5.21-10.7-8.29s-4.37-8.13-5.88-12.19c-.42-1.1-.8-2.14-1.17-3A.87.87,0,0,0,922.81,923.66Z"/><path class="cls-3" d="M59.85,820.6a.69.69,0,0,0-.6.41c-.34.71-.69,1.53-1.07,2.4-1.39,3.2-3.12,7.19-5.25,9.56s-5.92,4.5-9,6.23c-.83.46-1.61.9-2.28,1.31a.69.69,0,0,0-.25,1,.7.7,0,0,0,.31.28c.72.33,1.54.69,2.41,1.06,3.2,1.39,7.19,3.12,9.56,5.26s4.5,5.91,6.22,8.95c.47.83.91,1.61,1.31,2.29a.7.7,0,0,0,1,.24.65.65,0,0,0,.28-.31c.34-.71.69-1.54,1.07-2.41,1.39-3.2,3.12-7.19,5.25-9.56s5.92-4.5,9-6.22c.83-.46,1.6-.9,2.28-1.31a.71.71,0,0,0,.25-1,.76.76,0,0,0-.31-.28c-.72-.33-1.54-.69-2.41-1.07-3.2-1.39-7.19-3.11-9.56-5.25s-4.5-5.92-6.22-9c-.47-.82-.91-1.6-1.31-2.28A.72.72,0,0,0,59.85,820.6Z"/></g><g class="cls-5"><polygon class="cls-6" points="1023.33 1.47 -509.73 124.83 -607.9 132.7 -1987.67 243.7 -1987.67 1239.73 -898.61 1152.24 -325.77 1106.09 732.51 1020.9 1023.33 1.47"/></g><g class="cls-7"><polygon class="cls-8" points="938.81 7.11 -601.25 128.87 -693.55 136.15 -1990.99 238.81 -1990.99 1159.49 -966.94 1078.56 -428.32 1035.94 665.42 949.4 938.81 7.11"/></g><g class="cls-2"><path class="cls-6" d="M52.84,760.65,77,759l9.13-.84.61.35.36,7.86,1.33,19.07.78,8.35-.42.55-9,.43-24.7,1.73-8.55.79-.49-.49-.61-8.69.56-.43,8.18-.37,23.28-1.63-1.21-17.38-22.5,1.57-8.87.82-.49-.49-.61-8.69.56-.42Z"/><path class="cls-6" d="M112.39,796l-1.23-22.27-.78-11.09-.74-7.83.48-.49,9.55-.47,21.14-1.48,9.26-.84.55.42.4,8.44,1.28,18.29.81,8.87-.42.55-9.86.5L122.59,790l.37,5.25Zm28.27-34.63-20,1.41L122,781l20-1.4Z"/><path class="cls-6" d="M191.21,741.6l.48-.49,9.6-.67.56.48.91,13.1,7.66-.54,10-.89.55.42.6,8.56-.42.55-10.32.53-7.59.53c0,7.94-1,13.94-3.52,18.55-3.28,6.23-8.18,10.74-14.31,14.36a3.16,3.16,0,0,1-.89.32,1.84,1.84,0,0,1-1.14-.44l-8.45-5.33c6.3-3,11.2-6.65,14.47-12,1.92-3.2,3-7.84,3.14-14.69l-12.25.86-9.26.85-.49-.49-.6-8.56.49-.49,9.15-.45,12.58-.88Z"/><path class="cls-6" d="M235,759.72l-2.74-8.41.22-.54c17.78-5.68,32-9.67,50.09-14.26l.61.29,2.48,8.49-.41.61c-7.16,1-13.36,2.76-17.09,6.28-5.69,5.29-8.65,11.42-8.22,17.52.34,5,3,7.41,6.9,8.31,3.64.86,8.85.88,15.6.35l.48.42.17,9.89-.49.43c-8.1.7-15.22.34-20.7-1.55-6.61-2.28-11-7.45-11.63-16.26a24.73,24.73,0,0,1,7.41-18.9c-6.24,2-13.06,4.3-22.08,7.54ZM276,757l3.2-2.63.64-.11a41.58,41.58,0,0,1,7.1,6.41l0,.65-3.39,2.78-.64,0a41.61,41.61,0,0,0-6.91-6.55Zm5.81-4.51,3.14-2.63.65-.11a39.52,39.52,0,0,1,6.88,6.23l0,.65-3.2,2.7-.64.05a39.24,39.24,0,0,0-6.83-6.3Z"/><path class="cls-6" d="M310.57,773.13l.31.69a60,60,0,0,1-4.78,13.7l-.64.24-8-3-.18-.64a57.92,57.92,0,0,0,5-12.73l.13-.08c-.58.11-.9.13-1.48-.61l-4.41-5.36c7.44-1.63,13.22-3.73,16.3-7.27-4.67,1.24-9.42,2.29-15.21,3.35l-.55-.29-2.43-5.89.22-.6c7-.89,14.14-1.84,19.87-2.83a16,16,0,0,0,.06-2l-7.65.54-8.54.86-.42-.36-.41-6,.36-.42,8.57-.46,7.84-.55-.2-2.79-10,.7-8.55.79-.42-.43-.43-6.16.37-.35,8.57-.4,10-.7-.35-4.92.41-.62,7.72-.54.56.48.95,13.62c.52,7.52.13,14-3,18.71-3.66,5.47-10.22,8.6-17,10.25Zm11.5,6c.11,1.55.18,1.68,4,1.41,6.22-.43,7.83-.74,9.05-1.87s1.27-2.37,1.36-5.7l8.22,2.94c.74.28.88.46.8,1.25-.17,3.07-.82,5.86-2.53,7.54-2.07,2.1-4.54,3.12-17.31,4-10.38.73-12.34-.24-12.67-5l-.25-5.39-.57-8.17.42-.55,8.24-.58.56.55Zm22.18-47.1,8.55-.8.41.3.44,6.23-.36.48-8.58.4-8.75.61.24,3.37,6.48-.45,8.55-.79.41.3.42,6-.36.48-8.57.4-6.48.45.24,3.5,9.6-.67,8.55-.79.41.29.44,6.36-.36.48-8.57.4-9.4.66.54,5.89-7.26.51a34.07,34.07,0,0,1,5.38,5.22l-.14.67-6.62,5.09-.6-.16a38.73,38.73,0,0,0-7.27-8l.08-.66,5.84-4.12.65,0,.41.24L328,752.16l-1.66-23.8.41-.61,7.91-.55.49.48.35,5Zm3.05,33.28H348a55,55,0,0,1,10.66,10.79l-.15.66-6.71,5.62-.65-.09a57.23,57.23,0,0,0-9.89-11.88l.08-.66Z"/><path class="cls-6" d="M371.55,728.4l9.15-.57.55.41c.24,8.07.3,13.6.44,20.3.14,5.66.26,13,.61,18,.33,4.67,2.68,6.59,6.57,6.32,7.46-.52,15.48-7,20.29-17.39l6.16,7.13a1.5,1.5,0,0,1,.34,2.06c-5.7,10.63-15.47,17.31-25.39,18s-16.79-3.45-17.56-14.41c-.63-9-.6-15.07-.81-21-.16-5.07-.24-10.8-.77-18.38Z"/><path class="cls-6" d="M429.43,729.5l9.16-.32.49.43c-.08,7.24.17,13.67.44,17.43a46.8,46.8,0,0,0,2.38,12.73c.9,2.48,1.87,4.3,3.3,4.2,1.75-.12,3.71-3.78,4.78-9.85l7.06,7.72a1.37,1.37,0,0,1,.31,1.61c-2.13,6.92-6,12.08-11.25,12.45-4.22.29-8.12-2.43-11.08-7.5-2.3-3.94-4.56-11.08-5.18-19.9-.36-5.26-.67-11.49-.84-18.58ZM461,738.63l5.88-5.43.7-.18a49.12,49.12,0,0,1,18.65,19.75l-.16.6-7.87,5.7-.67-.15c-4.12-8.7-9.55-15.43-16.62-19.69Z"/><path class="cls-6" d="M489.1,740.44l-.49-.42-.52-7.52.42-.49,9-.5-.94-13.42.42-.55,8.82-.62.48.43.95,13.55,7.33-.51-1-14.79.43-.48,8.17-.57.48.42,1,14.78,7.78-.54-1-14.72.42-.49,8.43-.59.48.43,1,14.72,9.59-.87.48.42.53,7.52-.42.49-9.61.48.71,10.31.78,8.42-.42.48-8.25.38-9.27.65-8.16.77-.48-.42-.37-8.12-.75-10.64-7.32.51,1.82,26.14,29.12-2,10.68-.94.49.42.53,7.59-.42.48-10.72.56-29.11,2,.27,3.89-10.05.7-1.26-22.71L498,739.69Zm35.07-2.64.77,11,7.78-.55-.77-11Z"/><path class="cls-6" d="M608.31,728.91l.78,8.29-.49.49-9.61.48c4.27,3.22,10.53,6.1,18.65,7.56l-4.18,8.3a.9.9,0,0,1-.69.44,2.42,2.42,0,0,1-.92-.13,57.4,57.4,0,0,1-12.31-5.59l.57,8.17,1.27,13.53-9.73.68L591,757.56l-.8-11.35.43-.49,4.21-.29a45,45,0,0,1-6.58-6.51l-5.38.37a45.77,45.77,0,0,1-4.84,7.25l2.92-.2.49.42.4,5.71c.41,5.9-1.18,15.78-14,20.46a2.88,2.88,0,0,1-.64.17,1.08,1.08,0,0,1-1-.38l-6.15-5.83c10.58-3.47,13-8.33,12.7-15a48,48,0,0,1-10.67,6.67,3.48,3.48,0,0,1-.83.32c-.26,0-.53-.15-.88-.52l-6-5.9c8.43-3.26,14.05-6.78,18.08-12.47l-.32,0-9.91.89-.48-.43-.39-8.31-.79-11.28-.69-7.06.43-.42,9.93-.5,26.59-1.86,9.84-.88.56.48.29,7Zm-39-9.06.23,3.24,9.92-.69-.23-3.25Zm.69,9.85.25,3.64,9.92-.7-.25-3.63Zm18.47-7.93,10-.7-.22-3.25-10.06.7Zm.72,10.24,10.05-.7-.26-3.63-10.05.7Z"/><path class="cls-6" d="M627.74,712.31l9,.6.42.5c.07,3.77-.51,7.53-2,14.28a59.78,59.78,0,0,0-1.35,15.21,31.15,31.15,0,0,0,.85,6.52c.26.83.91.85,1.81-.19a51.06,51.06,0,0,0,3-4.45l2,.84c-1.56,5.65-2.24,9.8-2.09,13.9.14,2.92-1.16,4.84-4.14,5.11-2.59.25-4.24-1.07-5.91-3.56-1.6-2.3-3.78-7.42-4.43-16.76a91,91,0,0,1,1.47-19.91,55,55,0,0,0,.88-11.66ZM678,757a99.57,99.57,0,0,1-15.17,2.1c-13,.92-16.92-5.4-19-12.48l.28-.61,6.72-3.66.59.15c1.66,6,4.33,7.78,13,7.11a75.36,75.36,0,0,0,12-2.21l.61.35,1.2,8.65Zm-31.17-39.45c2.14-.09,4.22-.17,6.23-.31a105.31,105.31,0,0,0,18.18-2.83l.48.35,1,8.15-.35.54a95.49,95.49,0,0,1-18.63,2.93c-2.07.15-4.08.29-6.17.3l-.49-.55-.56-8Z"/><path class="cls-10" d="M88.33,918.8c.17,2.33.17,2.4,3.74,2.15,5.9-.41,6.31-1,5.71-10.5l8.44,2.28c.66.15.68.41.72,1,.48,6.81-.37,10.52-2.13,12.27-2.07,2.1-4.48,3.05-11.68,3.56-12.39.86-14-.32-14.59-8.3l-1-17.33-.33-4.8-6,.42.19,3.57c.3,6.17-.49,11.7-2.46,16.07a27.27,27.27,0,0,1-13.48,14.1,3.48,3.48,0,0,1-.83.32.91.91,0,0,1-.67-.28l-7.52-6.9A20.47,20.47,0,0,0,60.1,913.8a27.91,27.91,0,0,0,1.46-10.72l-.12-2.8-4.28.3-10.76.95-.48-.42-.54-7.78.42-.49,10.78-.56,36.11-2.52,10.69-1,.48.43.55,7.78-.42.48-10.72.56-6.35.44ZM52,884.13l-.49-.42L51,875.93l.42-.49,10.78-.55,22.44-1.57,10.68-1,.49.43.54,7.78-.42.48-10.71.56-22.44,1.57Z"/><path class="cls-10" d="M156.2,870.92l8.55-.8.41.3.51,7.27-.37.35-8.57.4-33.33,2.33c-.53.82-1.13,1.64-1.73,2.4l8.45-.4,20-1.4,8.55-.8.41.3.45,6.49-.36.35-8.58.4-20,1.4-8.48.79-.48-.36-.43-6.1c-1.25,1.65-2.52,3.11-3.73,4.43a1.44,1.44,0,0,1-2,.34l-.07-.06-6.34-4a54,54,0,0,0,12.05-17.72l.57-.17,8,2.24.18.7c-.51,1.08-1.09,2.17-1.66,3.25Zm-8.79,30.85.18.64a61.64,61.64,0,0,1-6.44,9.57c3.62,2.35,7,4.78,10.08,7.11l0,.66-5.35,6.43-.65.05c-2.91-2.54-6.36-5.23-10.06-7.9A59.65,59.65,0,0,1,119.21,929a2.45,2.45,0,0,1-.64.18,1.75,1.75,0,0,1-1.35-.69l-5.3-5.82a55,55,0,0,0,16-9.2,89.4,89.4,0,0,0-10.32-5.92l0-.65,4.19-5.25.64-.11c3.7,1.7,7.63,3.77,11.43,6,1-1.17,1.86-2.35,2.69-3.58a44.42,44.42,0,0,0,2.78-4.88l-16.47,1.15-9.13.83-.48-.35-.5-7.14.36-.41,9.23-.45,29.31-2,7.31-.71.48.42.3,7a51.16,51.16,0,0,0,2.86,14.79c.89,2.54,1.52,3.15,2.36,3.09s1.73-1.36,1.55-8.65l5.42,3.86c.89.66.91.85.9,1.63,0,10.1-2.72,13.36-7.32,13.68-4.93.34-9.3-2.55-12.28-12.57a62.57,62.57,0,0,1-2.48-14.94l-9.53.67Z"/><path class="cls-6" d="M177,899.76c6.85-6.41,11.63-11.76,15-17.66-3.09.48-6.33.77-9.38,1l-.41-.36-.82-8,.43-.42c4.86-.34,9.65-.81,14.43-1.46a69,69,0,0,0,2.44-8.9l.5-.37,9,.68.42.43c-.62,2.32-1.26,4.32-1.84,6.25,3.2-.74,6.41-1.55,9.6-2.56l.6.28,1.19,7.61-.35.61c-4.67,1.3-9.92,2.52-15.26,3.54-.93,1.63-2.22,3.74-3.4,5.39a19,19,0,0,1,6-1.27,8,8,0,0,1,8.34,5.67c4-1.84,8.47-3.78,13.41-5.82l.66.21,4.58,7.7-.28.6c-6.43,2.15-11.89,4.22-16.57,6.3.31,2.52.6,5.7.88,8.8l-.43.42-8.53.93-.55-.36c-.13-1.88-.27-3.82-.37-5.31-3.83,2.15-5.9,4.12-5.75,6.33s2.79,2.6,8.56,2.27a116.49,116.49,0,0,0,16.83-2.55l.68.34,1.19,8.59-.36.54c-6.12.95-11.55,1.66-19.13,2.19-13.1.92-16.92-4.36-17.31-9.93-.44-6.23,4.51-10.94,10.3-14.8,1.12-.74,2.37-1.47,3.75-2.22-.44-1.6-1.47-2.37-3.41-2.24a12.54,12.54,0,0,0-7.24,2.79,95.4,95.4,0,0,0-10.54,11.29l-.65.11L177,900.47Z"/><path class="cls-6" d="M267.15,919.13l-9.21.65-.74-15.26-.59-8.43-.89-9.91.43-.49,9.67-.48,4.6-.32-.36-5.25L254,880.76l.22,3.11c1,13.88-.62,25.66-6.68,34.88-.17.33-.36.48-.55.5a.67.67,0,0,1-.48-.23l-6.63-5.47c4.82-7.44,6.28-17.25,5.45-29.18l-.9-12.84-.89-9.91.42-.48,10.78-.56,28-2,10.75-.94.49.42.23,6,.47,6.75.6,6.8-.42.48-9.42.4-6.22.43.37,5.25,5.51-.38,9.65-.8.49.42.56,9.93.57,8.17,1.39,15.15-9.6.67-.25-3.5-21,1.47Zm18.31-48.52-.3-4.34-32,2.24.3,4.34Zm-14.22,25.95-.32-4.6-5.64.4.32,4.6Zm.8,11.35-.34-4.73-5.64.39.33,4.74Zm14.57-12.42-.32-4.6-6.23.43.33,4.6Zm.79,11.35-.33-4.74-6.22.44.33,4.73Z"/><path class="cls-6" d="M311.8,858.86l8.7.37.49.49a93.32,93.32,0,0,1-1,14.93c-.64,4.86-1.35,9.6-1,15a33.2,33.2,0,0,0,1.31,7.53c.25.76.71.8,1.43,0a44.06,44.06,0,0,0,4-5.3l1.82.86c-1.72,7.09-2.3,9.08-2,12,.55,4.06-1,6.12-4.37,6.36-2.53.18-4.8-1.55-6.25-3.6-2-2.92-4.5-8.48-5.12-17.3-.4-5.77.31-14.16.93-19.35a72.48,72.48,0,0,0,.5-11.5Zm19.92,49c5.61-2.67,9.06-6.37,10.95-10.15,1.26-2.43,1.79-6.05,1.37-12.15-.14-2-.35-4.93-.69-7.9-4.26.5-8.73.87-13.46,1.27l-.43-.56-.75-7.9.5-.36c4.34-.3,8.87-.75,13.14-1.31-.39-3.68-.93-7.62-1.48-11.75l.49-.43,8.87-.81.49.42c.46,3.81.91,7.49,1.3,11.18,3.29-.49,6.24-1.09,9-1.6l.48.36.95,8-.36.48c-2.82.59-5.85,1.19-9.14,1.68.37,3.3.66,6.6.81,8.74.65,9.21-.24,14.23-2.33,17.89a24.16,24.16,0,0,1-10.32,10,1.85,1.85,0,0,1-.5.17,1.58,1.58,0,0,1-.87-.26Z"/><path class="cls-6" d="M415.32,869.67a75.17,75.17,0,0,1-15.82,4c.5,4.4,1.05,8.4,1.71,12.33A83.43,83.43,0,0,1,422,895.86l.11.71-5.32,7.79-.71.12a55.15,55.15,0,0,0-14.1-8.72c-.36,6-4.68,11.27-14.28,11.94-8.95.63-15.49-2.5-16.05-10.47-.47-6.75,6.36-11.59,15.18-12.2a34.35,34.35,0,0,1,4.42-.12c-1.46-9.73-2.6-18.52-3.64-31.67l.48-.49,9-.63.55.42c.3,4.28.57,8.23.9,11.92a66.18,66.18,0,0,0,14-3.84l.67.28,2.33,8.1Zm-29.24,23.55c-3.44.24-5.42,1.68-5.31,3.3.15,2.14,2.35,2.9,5.86,2.66s5.24-2.33,4.95-5.56a15.46,15.46,0,0,0-5.5-.4Z"/><path class="cls-6" d="M444.58,876.23l-3.06-8.32.28-.61c4.4-1.35,9.16-3.24,13.1-4.63,3.75-1.3,6.36-2.27,8.69-2.43,8.3-.58,14.1,5.07,15,17.26,1.09,15.63-6.74,23-20.11,27.34a1,1,0,0,1-1.14-.44l-6.68-7c12.78-3.63,18-9.08,17.4-17.77-.52-7.32-2.06-9.82-4.79-9.63a24.91,24.91,0,0,0-6.5,2.08c-3.36,1.28-7.42,2.87-11.55,4.33Zm4.59-22.87,1.83-8.27.57-.23a91.43,91.43,0,0,0,19.67,1.75l.42.42-.87,9-.5.36a140.21,140.21,0,0,1-20.83-2.52Z"/><path class="cls-6" d="M531.66,878.55l-10.18.71-2.43-34.69,10.18-.72Zm2,11.46a5.88,5.88,0,1,1,0-.11Z"/></g><g class="cls-11"><g class="cls-11"><path class="cls-12" d="M231.12,416.5a35.63,35.63,0,0,0-64.62-20.74,35.6,35.6,0,0,0-63.66,28.84c5,30.76,39.15,63.21,63.66,72.12,24.51-8.91,58.71-41.36,63.66-72.12a35,35,0,0,0,1-8.1"/><path class="cls-13" d="M225.57,460.08,211.75,455l-5.12-13.81A3.6,3.6,0,0,0,202,439a3.55,3.55,0,0,0-2.13,2.14L194.74,455l-13.82,5.12a3.61,3.61,0,0,0-2.13,4.64,3.56,3.56,0,0,0,2.13,2.13L194.74,472l5.12,13.82a3.6,3.6,0,0,0,6.77,0L211.75,472l13.82-5.12a3.61,3.61,0,0,0,0-6.77m-83.11-57.81-8.54-3.17-3.17-8.54a3.6,3.6,0,0,0-4.64-2.13,3.56,3.56,0,0,0-2.13,2.13l-3.17,8.54-8.54,3.17a3.6,3.6,0,0,0,0,6.77l8.54,3.17,3.17,8.54a3.6,3.6,0,0,0,6.77,0l3.17-8.54,8.54-3.17a3.6,3.6,0,0,0,2.13-4.64,3.56,3.56,0,0,0-2.13-2.13"/></g></g><g class="cls-14"><g class="cls-15"><g class="cls-2"><path class="cls-16" d="M373.6,424l3.08-17.58a26.77,26.77,0,0,0-21.74-31h0l-70.31-12.31a26.77,26.77,0,0,0-31,21.75l-3.08,17.58Z"/><polygon class="cls-17" points="302.2 366.2 315.93 391.25 337.35 372.36 340.43 354.78 305.27 348.63 302.2 366.2"/><path class="cls-18" d="M303.73,357.41c4.29,7,9,9.37,16.24,10.63s12.51.62,18.92-4.47L342,346l-35.15-6.15Z"/><path class="cls-19" d="M354.52,263.81c-8-4.22-28-7-34.12-1.36-13-2-30.2,7-34.89,22.1-4.65,14.92-1.5,22.78-1.95,34.53-.51,13.32,6.08,18.76,11.62,21.53,6.46,12.58,15.49,13.67,30.5,16.3,29.32,5.13,46.72-12,53.79-45.15,4.27-20-4.88-37.35-25-47.95"/><path class="cls-17" d="M363.64,310.46c-2.15-4.42-5.23-8.22-13-10.73,2.75,1.89,4.78,7.12,4.7,9.8s-.08,4.86-2,1.83c-7.64-12.12-18.67-9.81-27.77-18-6.35-5.71-7.66-11-7.66-11s-2,6.44-14,11.27c-3.48,1.4-8,5.08-11.18,11.12-2.3,4.35-2.55,8.53-3.78,15.54a38.27,38.27,0,0,0,75.39,13.2c2.23-12.74,1.76-17.94-.69-23"/><path class="cls-20" d="M329,338.06l-8.37-1.47a2.13,2.13,0,0,1,.73-4.19l8.38,1.47a2.13,2.13,0,0,1-.74,4.19"/><path class="cls-21" d="M310.61,319.74a4.26,4.26,0,0,1-3.46-4.92l.74-4.19a4.25,4.25,0,0,1,8.38,1.46l-.74,4.19a4.25,4.25,0,0,1-4.92,3.46m33.5,5.86a4.26,4.26,0,0,1-3.45-4.92l.74-4.19a4.25,4.25,0,0,1,8.39,1.36.36.36,0,0,0,0,.11l-.74,4.19a4.24,4.24,0,0,1-4.92,3.45"/><path class="cls-20" d="M322.29,354.91c-12.1-2.11-15.28-5.86-15.79-6.6a2.93,2.93,0,0,1,4.7-3.48c.2.2,2.79,2.69,12.1,4.32,9.66,1.69,12.83.05,12.86,0a2.86,2.86,0,0,1,4,.71l0,.07a3,3,0,0,1-.78,4.1c-.73.53-5,3-17.09.85"/><path class="cls-22" d="M279.62,391.69l-8.79-1.54c3.15-18,14.79-35.91,32.9-32.74l-1.53,8.79c-13.9-2.43-20.85,15.61-22.58,25.49m77.78-4.5-8.79-1.54c.32-1.81-.36-11.39-11.26-13.3l1.54-8.78c15.53,2.71,19.72,16.72,18.51,23.62"/><path class="cls-23" d="M277.53,377.73A13.38,13.38,0,1,1,262,388.61h0a13.39,13.39,0,0,1,15.49-10.88h0"/><path class="cls-24" d="M276.76,382.13a8.92,8.92,0,1,1-10.32,7.25h0a8.92,8.92,0,0,1,10.32-7.25"/><path class="cls-22" d="M366.35,413.66l-8.79-1.54c.64-3.67,3.37-22.05-6-23.7S338.43,405,337.79,408.66L329,407.12c3.37-19.26,12.37-29.53,24.06-27.49s16.66,14.77,13.29,34"/><path class="cls-23" d="M334.16,403.5a4.46,4.46,0,1,1-5.16,3.63h0a4.45,4.45,0,0,1,5.16-3.62h0"/><path class="cls-23" d="M362.72,408.5a4.46,4.46,0,1,1-5.16,3.63h0a4.46,4.46,0,0,1,5.16-3.62h0"/></g></g></g><g class="cls-25"><g class="cls-25"><g class="cls-2"><path class="cls-16" d="M249,319.36l-8.4-30.43c-6.18-22.4-34.33-30.54-56.74-24.35L102.74,287c-22.4,6.18-44.1,28.07-37.91,50.48l8.4,30.42Z"/><path class="cls-26" d="M101,127.22c27.75-7.66,77.84-6.55,94.44,53.58s20.43,74,6.55,77.85-36.22-4.94-64,2.72S96,287.91,81.7,291.85c-15.46,4.26-29.2-51.69-34.31-70.19C30.8,161.52,73.24,134.88,101,127.22"/><path class="cls-22" d="M103.88,333.94l-13.52,3.74c-7.64-27.68-3.17-61,24.7-68.67l3.74,13.52c-21.4,5.9-19.11,36.21-14.92,51.41M204.59,277l-13.52,3.74c-.77-2.78-8.19-15.94-24.95-11.31L162.39,256c23.89-6.59,39.27,10.49,42.2,21.1"/><path class="cls-23" d="M91.52,315.53a21,21,0,1,1-14.68,25.88,21,21,0,0,1,14.68-25.88h0"/><path class="cls-24" d="M93.39,322.29a14,14,0,1,1-9.79,17.25h0a14,14,0,0,1,9.79-17.25"/><path class="cls-22" d="M235.14,308.63l-13.52,3.73c-1.56-5.64-10.06-33.6-24.55-29.6s-7.44,32.36-5.88,38l-13.52,3.73c-8.18-29.63-2.32-50.29,15.67-55.26s33.62,9.77,41.8,39.4"/><path class="cls-23" d="M182.56,315.87a7,7,0,1,1-4.89,8.62h0a7,7,0,0,1,4.88-8.62h0"/><path class="cls-23" d="M226.51,303.74a7,7,0,1,1-4.89,8.63h0a7,7,0,0,1,4.88-8.63h0"/><polygon class="cls-27" points="112.1 258.26 118.8 282.54 151.79 309.81 166.12 269.47 159.42 245.2 112.1 258.26"/><path class="cls-28" d="M115.06,269c9.08,5.9,17.08,6.2,26.4,3.63s16.18-7,20.94-16.69l-5.48-19.86-47.33,13.07Z"/><path class="cls-27" d="M65.35,214.53c-10.88-39.44,5.15-78.27,35.8-86.73s64.33,16.66,75.21,56.1-5.66,76.39-36.31,84.85S76.23,254,65.35,214.54"/><path class="cls-29" d="M135.47,252.12c-10.86,3-18-.8-18.8-1.25a4.8,4.8,0,0,1,4.68-8.38c.3.15,4.64,2.29,11.57.38s9.63-6.1,9.74-6.27a4.83,4.83,0,0,1,6.55-1.66A4.77,4.77,0,0,1,151,241.4c-.43.79-4.63,7.72-15.49,10.72"/><path class="cls-26" d="M57.89,240.47c-2-6.72-.71-1.43-1.16-3.06-6.39-23.13,14.8-.49,10.25-17s4.25-20.7,10.94-32.5C81.28,182,88,170.42,88,170.42s27,7.59,45.49,2.49,39.58-.92,44.69,17.58,10.92-14.54,17.3,8.59c.46,1.65-1.15-3.54.61,3.25L201,201c-3.7-13.53-3.56-13-5.94-21.66-16.6-60.13-69-69.77-96.79-62.11S30.3,159.67,46.9,219.81c1.48,5.36,2.21,8.54,6.13,22Z"/><path class="cls-26" d="M102.35,220.1a6,6,0,0,1-7.3-4.15l-1.58-5.71a5.94,5.94,0,0,1,11.45-3.16l1.58,5.72a6,6,0,0,1-4.15,7.31m45.74-12.63a6,6,0,0,1-7.3-4.14l-1.57-5.72a5.93,5.93,0,0,1,11.44-3.15l1.57,5.71a5.94,5.94,0,0,1-4.14,7.3"/><path class="cls-30" d="M135.81,229.88,124.39,233a3,3,0,0,1-3.65-2.07l-.29-1a3,3,0,0,1,2.07-3.65L134,223.12a3,3,0,0,1,3.65,2.08l.29,1a3,3,0,0,1-2.08,3.66"/><path class="cls-27" d="M77.32,212.82c2.7,9.79-.07,19.1-6.19,20.78s-13.27-4.87-16-14.67.07-19.1,6.18-20.79,13.28,4.88,16,14.68m110.81-30.58c2.7,9.79-.07,19.1-6.19,20.78s-13.27-4.88-16-14.67.07-19.1,6.19-20.79,13.27,4.88,16,14.68"/></g></g></g><g class="cls-31"><g class="cls-32"><g class="cls-31"><g class="cls-2"><path class="cls-23" d="M449.5,545.56c-.51-5.23-7.26-20.4-22.94-18.87l-112.88,11c-7.2.7-16.28,11-20.45,23.09l-13.65,27.71c-7.28,3.87-9.26,13.2-8.41,21.93l3.06,31.35a21,21,0,0,0,22.93,18.87h0L443.5,646.38a21,21,0,0,0,18.87-22.93h0l-4.07-41.81c-.52-5.37-8.79-36.07-8.79-36.07"/><path class="cls-33" d="M320.25,626.74a31.49,31.49,0,0,0-28.34,33.68,21.08,21.08,0,0,0,5.26.22l57.49-5.6a31.5,31.5,0,0,0-34.4-28.3h0m128.37,18.41A31.49,31.49,0,0,0,386,652l57.49-5.6a21,21,0,0,0,5.12-1.24"/><path class="cls-22" d="M321.27,637.19a21,21,0,1,1-18.87,22.94,21,21,0,0,1,18.87-22.94h0"/><path class="cls-34" d="M322.28,647.64a10.5,10.5,0,1,1-9.43,11.47,10.5,10.5,0,0,1,9.43-11.47h0"/><path class="cls-22" d="M415.33,628A21,21,0,1,1,396.47,651,21,21,0,0,1,415.33,628h0"/><path class="cls-34" d="M416.35,638.47A10.5,10.5,0,1,1,406.92,650a10.51,10.51,0,0,1,9.43-11.48"/><path class="cls-12" d="M271.17,610.42l188.14-18.34,1.53,15.68L272.7,626.1Zm157.94-57.6-15.68,1.52-1.53-15.67-10.45,1L403,555.37l-15.68,1.52,1,10.46L404,565.82l1.53,15.68,10.45-1-1.53-15.68,15.68-1.53Z"/><polygon class="cls-35" points="307.38 548.86 333.51 546.31 337.08 582.89 290.04 587.48 307.38 548.86"/><path class="cls-12" d="M342.18,527a7.87,7.87,0,0,1-7.07,8.6h0l-10.46,1a7.88,7.88,0,0,1-1.52-15.68l10.45-1a7.87,7.87,0,0,1,8.6,7.07h0"/><path class="cls-35" d="M357.86,525.47a7.87,7.87,0,0,1-7.07,8.6h0l-10.45,1a7.88,7.88,0,0,1-1.53-15.68l10.46-1a7.89,7.89,0,0,1,8.6,7.07h0"/></g></g></g></g><g class="cls-36"><g class="cls-36"><g class="cls-37"><path class="cls-27" d="M90.82,559c0,5.54-2.8,10-6.27,10s-6.26-4.49-6.26-10,2.8-10,6.26-10,6.27,4.49,6.27,10m72.71,0c0,5.54-2.81,10-6.27,10S151,564.49,151,559s2.81-10,6.27-10,6.27,4.49,6.27,10"/><path class="cls-27" d="M85.81,560.36c0-21.38,15.71-38.71,35.1-38.71S156,539,156,560.36s-15.72,36.2-35.1,36.2-35.1-14.83-35.1-36.2"/><path class="cls-26" d="M105.86,564a2.5,2.5,0,0,1-2.5-2.5h0v-5a2.51,2.51,0,0,1,5,0v5a2.5,2.5,0,0,1-2.51,2.5h0M136,564a2.51,2.51,0,0,1-2.51-2.5h0v-5a2.51,2.51,0,0,1,5,0v5A2.5,2.5,0,0,1,136,564h0"/><path class="cls-30" d="M120.91,584c-10.5,0-15.94-2.66-16.17-2.77a2.51,2.51,0,0,1,2.23-4.49c.13.06,4.83,2.25,13.94,2.25s13.89-2.23,13.93-2.25a2.51,2.51,0,0,1,2.23,4.49c-.23.11-5.66,2.77-16.16,2.77m2.5-12.54h-5a2.51,2.51,0,0,1,0-5h5a2.51,2.51,0,0,1,0,5h0"/><path class="cls-26" d="M120.91,509.69c-23.15,0-37.61,16.2-37.61,29.7s2.89,18.9,5.78,13.5l5.79-10.8s9.5-.31,15.29-5.71c0,0-2.68,10,16.54.31,0,0-.42,9.72,13-.31,0,0,10.13,3,13,16.51.8,3.75,5.79,0,5.79-13.5s-11.57-29.7-37.6-29.7"/></g></g></g><g class="cls-38"><g class="cls-38"><g class="cls-38"><path class="cls-39" d="M100.17,653.56c9.17,8.88,9.26,24.82,7,24.82s-9.35-4.21-13.78-8.94-4-15.38-4-15.38l3.6-9.8s-2,.42,7.2,9.31"/><path class="cls-39" d="M93.36,653.56c9.17,8.88,9.27,24.82,7,24.82s-9.34-4.2-13.78-8.94-4-15.38-4-15.38l3.6-9.8s-2,.42,7.2,9.31M39,678.33c-2.27,0-2.27-15.89,6.81-25s6.81-9.07,6.81-9.07l4.53,9.07s0,11.35-4.53,15.89S41.25,678.33,39,678.33"/><path class="cls-39" d="M45.79,678.33c-2.27,0-2.27-15.89,6.81-25s6.8-9.07,6.8-9.07l4.54,9.07s0,11.35-4.54,15.89-11.34,9.08-13.61,9.08"/><path class="cls-40" d="M47.86,642.82c-1.3-4.85-4.8-8.12-7.83-7.3s-4.43,5.4-3.13,10.24,4.8,8.11,7.83,7.3,4.43-5.4,3.13-10.24m61.28,2.93c1.3-4.84-.1-9.42-3.13-10.24s-6.53,2.46-7.83,7.31.1,9.42,3.13,10.24,6.54-2.46,7.83-7.3"/><path class="cls-40" d="M102.53,644.29C102.53,623,89.32,608,73,608s-29.5,15-29.5,36.32,13.21,34,29.5,34,29.51-12.73,29.51-34"/><path class="cls-29" d="M73,663.92a30.77,30.77,0,0,1-9.88-1.62,2.27,2.27,0,0,1,1.6-4.25,26.38,26.38,0,0,0,16.57,0,2.27,2.27,0,1,1,1.59,4.25h0A30.44,30.44,0,0,1,73,663.92"/><path class="cls-20" d="M75.29,653.36H70.75a2.27,2.27,0,0,1,0-4.53h4.54a2.27,2.27,0,0,1,0,4.53"/><path class="cls-21" d="M59.4,646.56a2.27,2.27,0,0,1-2.27-2.27h0v-4.54a2.27,2.27,0,0,1,4.54,0v4.54a2.27,2.27,0,0,1-2.27,2.27h0m27.24,0a2.27,2.27,0,0,1-2.27-2.27h0v-4.54a2.27,2.27,0,0,1,4.54,0v4.54a2.28,2.28,0,0,1-2.27,2.27h0"/><path class="cls-39" d="M104.8,623.86c-4.54-15.89-15.89-20.43-22.7-20.43C77.56,603.43,73,608,73,608s-4.54-4.54-9.08-4.54c-6.81,0-18.15,4.54-22.7,20.43-3.74,13.09,2.27,25,2.27,25,0-6.82,4.54-20.43,15.89-20.43S73,619.32,73,619.32s1.78,9.08,13.13,9.08,16.37,13.62,16.37,20.43c0,0,6-11.88,2.27-25"/></g></g></g><g class="cls-41"><g class="cls-41"><path class="cls-42" d="M217.79,622.93c0,9.93-16.09,18-35.94,18s-35.93-8-35.93-18,2.77-21,35.93-21,35.94,11.13,35.94,21"/><path class="cls-43" d="M216.4,629.84a4.63,4.63,0,0,0-2.2.63c-3.32-18.57-16.53-31-32.35-31s-29,12.46-32.34,31a4.62,4.62,0,0,0-2.21-.62c-3.81,0-6.91,4.95-6.91,11S143.49,652,147.3,652a4.79,4.79,0,0,0,2.62-.84c3.89,18,16.7,31.24,31.93,31.24s28-13.23,31.93-31.24a4.82,4.82,0,0,0,2.62.84c3.82,0,6.91-5,6.91-11.06s-3.09-11.06-6.91-11.06"/><path class="cls-21" d="M165.27,643.34a2.44,2.44,0,0,1-1.09-4.62l5.53-2.77a2.44,2.44,0,0,1,2.18,4.37l-5.53,2.76a2.43,2.43,0,0,1-1.09.26m33.16,0a2.39,2.39,0,0,1-1.08-.26l-5.53-2.76a2.44,2.44,0,1,1,2.06-4.42l.12.06,5.53,2.76a2.44,2.44,0,0,1-1.1,4.62"/><path class="cls-42" d="M201.36,631.15h-7.31a2.44,2.44,0,1,1,0-4.88h7.31a2.44,2.44,0,1,1,0,4.88h0m-31.7,0h-7.31a2.44,2.44,0,1,1,0-4.88h7.31a2.44,2.44,0,1,1,0,4.88h0"/><path class="cls-20" d="M181.85,671a31,31,0,0,1-12.14-3,2.44,2.44,0,0,1,2.17-4.37,26.2,26.2,0,0,0,10,2.51,26,26,0,0,0,10-2.5A2.44,2.44,0,0,1,194,668a31,31,0,0,1-12.15,3m2.44-13h-4.87a2.44,2.44,0,0,1,0-4.88h4.87a2.44,2.44,0,1,1,0,4.88h0"/></g></g><g class="cls-44"><g class="cls-44"><g class="cls-2"><path class="cls-12" d="M327.34,189.67A23.6,23.6,0,0,0,292.7,161a23.58,23.58,0,0,0-46.25,2.07c-4.52,20.14,8.53,48.5,21.41,60,17.27.55,46.28-11,56.89-28.69a23.77,23.77,0,0,0,2.59-4.75"/><path class="cls-13" d="M313.2,215.1,306,208.55l.25-9.75a2.39,2.39,0,0,0-4.16-1.67l-6.55,7.24-9.76-.25a2.39,2.39,0,0,0-1.66,4.16l7.24,6.55-.26,9.76a2.39,2.39,0,0,0,4.17,1.66l6.55-7.23,9.75.25a2.39,2.39,0,0,0,1.67-4.17m-36.88-56-4.48-4,.16-6a2.4,2.4,0,0,0-4.17-1.67l-4.05,4.48-6-.16a2.39,2.39,0,0,0-1.67,4.17l4.48,4-.16,6a2.39,2.39,0,0,0,4.17,1.67l4-4.48,6,.16a2.39,2.39,0,0,0,1.66-4.17"/></g></g></g><g class="cls-2"><path class="cls-3" d="M54.28,4.74a.87.87,0,0,0-.81.38c-.55.81-1.15,1.75-1.78,2.75-2.33,3.65-5.22,8.2-8.29,10.7s-8.13,4.37-12.19,5.88c-1.1.41-2.15.8-3.05,1.17a.86.86,0,0,0-.48,1.13.83.83,0,0,0,.32.4c.81.54,1.75,1.14,2.74,1.77,3.66,2.33,8.21,5.22,10.7,8.3s4.37,8.12,5.88,12.18c.42,1.1.8,2.15,1.17,3.05a.87.87,0,0,0,1.13.49,1,1,0,0,0,.4-.32c.55-.82,1.15-1.76,1.78-2.75,2.32-3.66,5.21-8.21,8.29-10.7s8.13-4.37,12.19-5.88c1.1-.41,2.14-.8,3-1.17A.87.87,0,0,0,75.82,31a.92.92,0,0,0-.33-.4c-.81-.54-1.75-1.14-2.74-1.77-3.66-2.33-8.21-5.22-10.7-8.3s-4.37-8.13-5.88-12.19c-.42-1.1-.8-2.14-1.17-3A.87.87,0,0,0,54.28,4.74Z"/><path class="cls-4" d="M809.9,903.52H806v-9.41h-9.38v-3.84H806v-9.11h3.87v9.11h9.38v3.84H809.9Z"/><path class="cls-4" d="M1015.09,837.53h-3.87v-9.4h-9.37v-3.84h9.37v-9.12h3.87v9.12h9.38v3.84h-9.38Z"/><path class="cls-4" d="M858.9,651.93H855v-9.41h-9.38v-3.84H855v-9.12h3.87v9.12h9.38v3.84H858.9Z"/></g><rect class="cls-1" width="1024" height="1024"/><path class="cls-45" d="M589.67,37,889.84,26.53c33.87-1.18,54.2-1.89,67.95,3.3a70.38,70.38,0,0,1,43.5,40.59c6.13,13.37,6.84,33.71,8,67.61l10.47,300c1.19,33.9,1.9,54.24-3.29,68a70.38,70.38,0,0,1-40.56,43.53c-13.35,6.13-33.68,6.84-67.56,8L608.22,568.07c-33.88,1.18-54.2,1.89-68-3.3a70.4,70.4,0,0,1-43.51-40.59c-6.13-13.37-6.84-33.71-8-67.61l-10.48-300c-1.18-33.91-1.89-54.25,3.29-68A70.42,70.42,0,0,1,522.12,45C535.47,38.91,555.8,38.2,589.67,37Z"/><path class="cls-8" d="M576.7,512.28a3.45,3.45,0,0,1-3.32,3.61l-1.92.06a1.47,1.47,0,0,1-1.12-.42,1.49,1.49,0,0,1-.5-1.08.17.17,0,0,0-.19-.18l-4.45.16c-.12,0-.18.06-.17.19a1.51,1.51,0,0,1-.42,1.11,1.49,1.49,0,0,1-1.09.5l-1.88.07a3.47,3.47,0,0,1-3.61-3.37l-.35-10.19a.41.41,0,0,0-.48-.44l-4.12.14a.41.41,0,0,0-.45.48l.59,16.75a.4.4,0,0,0,.47.44l25.14-.87a3.08,3.08,0,0,1,2.32.88,3.25,3.25,0,0,1,.16,4.63,3.11,3.11,0,0,1-2.26,1l-25.31.88a.25.25,0,0,0-.27.29,2.28,2.28,0,0,1-.67,1.74,2.42,2.42,0,0,1-1.72.78l-1.05,0a3.4,3.4,0,0,1-2.54-.94,3.46,3.46,0,0,1-1.12-2.47l-.8-22.94a.41.41,0,0,0-.47-.45l-2.85.1a3.12,3.12,0,0,1-2.32-.88,3.32,3.32,0,0,1-.17-4.68,3.13,3.13,0,0,1,2.26-1.05l2.85-.1a.41.41,0,0,0,.44-.47l-.2-5.6a3.54,3.54,0,1,1,7.07-.25l.19,5.6a.4.4,0,0,0,.48.44l4.12-.14a.41.41,0,0,0,.45-.47l-.24-6.66a3.45,3.45,0,0,1,3.35-3.56,3.45,3.45,0,0,1,3.58,3.32l.23,6.65a.41.41,0,0,0,.48.45l3.89-.14a.41.41,0,0,0,.45-.47l-.22-6.25a3.45,3.45,0,0,1,3.34-3.56,3.4,3.4,0,0,1,2.49.92,3.29,3.29,0,0,1,1.09,2.4l.22,6.24a.41.41,0,0,0,.48.45l3.11-.11a3.13,3.13,0,0,1,2.33.88,3.31,3.31,0,0,1,.16,4.68,3.09,3.09,0,0,1-2.25,1.05l-3.12.11a.4.4,0,0,0-.45.47Zm-11.92-4.64a.4.4,0,0,0,.48.44l3.9-.13a.41.41,0,0,0,.44-.48l-.18-5.14a.41.41,0,0,0-.48-.44l-3.89.14a.4.4,0,0,0-.45.47Zm60.65-7a3.88,3.88,0,0,1-1.08,2.87,3.81,3.81,0,0,1-2.77,1.26l-2.25.08a.13.13,0,0,0-.11.12.13.13,0,0,0,.07.16,29.14,29.14,0,0,0,8,3.76,2.23,2.23,0,0,1,1.57,1.56,3,3,0,0,1,.12.73,2.46,2.46,0,0,1-.45,1.49A5.41,5.41,0,0,1,626,514.6a3.94,3.94,0,0,1-1.32.28,4.1,4.1,0,0,1-1.66-.31,27.68,27.68,0,0,1-3.27-1.63.27.27,0,0,0-.25,0,.23.23,0,0,0-.11.21l.35,10.14a3.39,3.39,0,0,1-1,2.58,3.59,3.59,0,0,1-5,.18,3.39,3.39,0,0,1-1.14-2.51l-.35-9.87a3.29,3.29,0,0,1,3.19-3.37s.06,0,.09-.12,0-.13,0-.16a30.47,30.47,0,0,1-4.61-4.53.89.89,0,0,0-.74-.34l-3.63.13a.88.88,0,0,0-.72.39,32.92,32.92,0,0,1-4.24,4.7.1.1,0,0,0,0,.16.14.14,0,0,0,.14.11,3.39,3.39,0,0,1,2.53.95,3.31,3.31,0,0,1,1.12,2.42q.3,8.44-7.22,12.75a4.54,4.54,0,0,1-1.73.43,4.12,4.12,0,0,1-1.2-.15,5.22,5.22,0,0,1-2.58-1.65,2.26,2.26,0,0,1-.65-1.5,3.75,3.75,0,0,1,0-.59,2.41,2.41,0,0,1,1.32-1.8c3.45-1.83,5.13-4.37,5-7.62v-.36a.21.21,0,0,0-.15-.2.24.24,0,0,0-.23,0,33.8,33.8,0,0,1-3.86,2.34,4.07,4.07,0,0,1-1.69.43,4.57,4.57,0,0,1-1.2-.14,4.8,4.8,0,0,1-2.58-1.61,2.41,2.41,0,0,1-.6-1.5,2.09,2.09,0,0,1,.07-.65,2.34,2.34,0,0,1,1.41-1.7,32.49,32.49,0,0,0,7.64-4.59c.06,0,.08-.08,0-.16a.16.16,0,0,0-.14-.11l-1.88.07a4,4,0,0,1-4.13-3.86l-.44-12.8a4,4,0,0,1,3.85-4.13l26.46-.93a4,4,0,0,1,4.13,3.86Zm-27.55-10.39a.41.41,0,0,0-.44.48l0,1.47a.41.41,0,0,0,.47.44l5.83-.2a.41.41,0,0,0,.44-.48l-.05-1.47a.41.41,0,0,0-.48-.44Zm.26,7.44a.4.4,0,0,0-.44.47l0,1.52a.41.41,0,0,0,.47.44l5.83-.2a.41.41,0,0,0,.44-.48l0-1.51a.4.4,0,0,0-.48-.44ZM617.5,492a.4.4,0,0,0,.44-.48l-.05-1.46a.41.41,0,0,0-.47-.45l-5.87.21a.41.41,0,0,0-.45.47l.06,1.47a.4.4,0,0,0,.47.44Zm-6.08,7.24a.4.4,0,0,0,.47.44l5.87-.2a.4.4,0,0,0,.44-.48l-.05-1.51a.4.4,0,0,0-.47-.44l-5.87.2a.41.41,0,0,0-.45.48Zm23.42-2.42q.18-4,.5-6.69c.36-2,1.68-2.93,3.94-2.89q2.94-.06,2.87,3.21c-.16,1.44-.31,3.49-.43,6.15s-.15,5.43-.07,8.34c.13,3.09.36,5.95.66,8.59s.59,4.68.86,6.11q.3,3.25-2.64,3.4c-2.26.2-3.63-.67-4.13-2.61q-.51-2.65-1-6.63t-.66-8.44v0c-.07-3,0-5.87.07-8.5ZM645,513.16a15,15,0,0,1,.86-5.59,3,3,0,0,1,3.6-2.15q3,.76,2.13,3.23a9.65,9.65,0,0,0-.24,2.35,3.48,3.48,0,0,0,.38,1.65,2.83,2.83,0,0,0,1.54,1.23,8.93,8.93,0,0,0,3.34.43c2.32-.08,4-.18,4.9-.31q3.29-.57,3.6,3c0,2.33-.92,3.65-2.8,4a57.06,57.06,0,0,1-5.9.62c-3.58,0-6.34-.75-8.26-2.35a8.45,8.45,0,0,1-3.15-6.07Zm14.49-24.31q3.48-.12,3.6,3.36t-3.36,3.66l-10.45.36c-2.33.09-3.53-1-3.61-3.36s1-3.58,3.36-3.66Zm42.21,28.21,3.21-.11a1.22,1.22,0,0,0,1.19-.87,13.25,13.25,0,0,0,.41-3.46,1.9,1.9,0,0,1,1-1.74,2.56,2.56,0,0,1,1.14-.31,2.83,2.83,0,0,1,1,.15,5.48,5.48,0,0,1,2.36,1.8,4,4,0,0,1,.72,2.13,4.93,4.93,0,0,1,0,.55c-.32,3-1,5.06-2,6.23a6.37,6.37,0,0,1-4.82,1.87l-5.1.18c-2.93.1-4.93-.43-6-1.61s-1.65-3.36-1.77-6.57l-.44-12.67a.4.4,0,0,0-.47-.44l-5.18.18a.45.45,0,0,0-.49.47c-.12,1.88-.28,3.53-.47,5a29.44,29.44,0,0,1-1,4.51,19.46,19.46,0,0,1-1.82,4.23,19.76,19.76,0,0,1-2.93,3.68,21.37,21.37,0,0,1-4.29,3.3,3.77,3.77,0,0,1-1.59.42,3.26,3.26,0,0,1-1.11-.14,4.63,4.63,0,0,1-2.35-1.62,2.61,2.61,0,0,1-.61-1.59,2.81,2.81,0,0,1,0-.59,2.67,2.67,0,0,1,1.26-1.89,15.23,15.23,0,0,0,3.25-2.43,14.29,14.29,0,0,0,2.13-2.67,12,12,0,0,0,1.25-3.08,23.92,23.92,0,0,0,.64-3.26c.12-1,.21-2.19.29-3.57a.46.46,0,0,0-.15-.32.4.4,0,0,0-.33-.12l-6.19.21a3.32,3.32,0,0,1-2.53-5.58,3.13,3.13,0,0,1,2.3-1.07L708.06,495a3.12,3.12,0,0,1,2.37.91,3.23,3.23,0,0,1,1.05,2.33,3.3,3.3,0,0,1-3.19,3.42l-8.21.28a.41.41,0,0,0-.44.48l.44,12.62a3.8,3.8,0,0,0,.31,1.74C700.57,517,701,517.08,701.71,517.06Zm1.42-34.47a3.28,3.28,0,0,1,3.41,3.17,3.13,3.13,0,0,1-.88,2.35,3.19,3.19,0,0,1-2.3,1l-27.06,1a3.18,3.18,0,0,1-2.37-.88,3.14,3.14,0,0,1-1-2.29,3.28,3.28,0,0,1,3.19-3.39Zm22.52,9.88a32.6,32.6,0,0,1-3.06,4.33.15.15,0,0,0,0,.21.22.22,0,0,0,.17.11l24.9-.87a4,4,0,0,1,4.13,3.85q.54,15.64,3.21,15.56c.36,0,.57-1.08.62-3.1a1.25,1.25,0,0,1,2.13-.86,6.14,6.14,0,0,1,2.17,4.2,4.39,4.39,0,0,1-.06.87,8.21,8.21,0,0,1-1.58,4.26,4.65,4.65,0,0,1-3.51,1.44,7.06,7.06,0,0,1-3.18-.58,6.16,6.16,0,0,1-2.39-2,15.41,15.41,0,0,1-1.74-3,20.52,20.52,0,0,1-1.24-4.09c-.33-1.6-.6-3.21-.79-4.82s-.36-3.45-.49-5.5a.4.4,0,0,0-.48-.44l-8.16.28s0,0-.07.05,0,.06.08.09l2.18.61a3.15,3.15,0,0,1,2.08,1.86,2.73,2.73,0,0,1,.27,1.09,3.12,3.12,0,0,1-.45,1.67c-.64,1-1.31,2-2,3-.2.25-.16.46.12.64q2.16,1.35,3.76,2.53a3.1,3.1,0,0,1,1.28,2.48,3.41,3.41,0,0,1-1,2.61,3.73,3.73,0,0,1-2.62,1.15,4.17,4.17,0,0,1-2.84-1q-1.41-1.14-3.3-2.46a.56.56,0,0,0-.73,0,50.84,50.84,0,0,1-7.69,6,4.32,4.32,0,0,1-2.05.62,3.26,3.26,0,0,1-.92-.11,5.11,5.11,0,0,1-2.71-1.42,2.32,2.32,0,0,1-.75-1.63,3.84,3.84,0,0,1,0-.5,2.38,2.38,0,0,1,1.31-1.84,40.52,40.52,0,0,0,7-4.8.28.28,0,0,0,.12-.28.28.28,0,0,0-.19-.27c-1.4-.8-2.76-1.57-4.07-2.29a2.4,2.4,0,0,1-1.26-1.84,1,1,0,0,1-.06-.32,2.35,2.35,0,0,1,.72-1.77,4.54,4.54,0,0,1,2.57-1.28,4.43,4.43,0,0,1,.6-.07,4.7,4.7,0,0,1,2.22.47l4,2.12a.52.52,0,0,0,.69-.12,36.94,36.94,0,0,0,2.69-4.55.28.28,0,0,0,0-.28.27.27,0,0,0-.26-.13l-10.87.38a3.67,3.67,0,0,1-3.79-3.54.8.8,0,0,0-.35-.68c-.63-.46-1.43-1-2.4-1.66a2.83,2.83,0,0,1-1.36-2.2,1.4,1.4,0,0,1-.06-.28,3.18,3.18,0,0,1,.84-2.28,29.33,29.33,0,0,0,5.57-10.07,4.56,4.56,0,0,1,1.8-2.36,3.9,3.9,0,0,1,2-.62,4.44,4.44,0,0,1,.87.06l.83.15a2.53,2.53,0,0,1,1.74,1.18,2.24,2.24,0,0,1,.41,1.18,2.18,2.18,0,0,1-.15.88.21.21,0,0,0,0,.21.25.25,0,0,0,.21.11l23.8-.83a2.75,2.75,0,0,1,2.9,2.67,2.8,2.8,0,0,1-.74,2,2.62,2.62,0,0,1-2,.89l-26.14.92a.65.65,0,0,0-.63.39c-.12.25-.22.46-.3.65s-.06.14,0,.23a.27.27,0,0,0,.23.13l22.84-.8a2.61,2.61,0,0,1,1.93.74,2.67,2.67,0,0,1,.87,1.9,2.62,2.62,0,0,1-.73,1.95,2.58,2.58,0,0,1-1.88.87l-21.6.76a2.87,2.87,0,0,1-2.14-.8,2.8,2.8,0,0,1-.94-2s0-.05-.08-.06a.08.08,0,0,0-.11,0Zm36.85-3.36q-.12-3.17,3-3.28l6.7-.23.54-1.63c.48-2,2-2.76,4.56-2.27q2.74,1.14,1.82,3.66l7.29-.26c2.11-.07,3.21.95,3.28,3.06s-1,3.2-3,3.28l-10.32.36a6.11,6.11,0,0,1-.51,1.16q-.52,1-.9,1.92l.51-.41a3,3,0,0,1,.79-.46q3-1.26,4.79-.22a5.57,5.57,0,0,1,2.44,3.36q2.52-1.45,5.14-2.66c2.2-1,3.75-.53,4.64,1.5.7,2.39,0,3.95-2,4.66a51.53,51.53,0,0,0-7.1,3.1l.12,3.3q.11,3.12-3,3.23c-2.11.08-3.2-.93-3.28-3v-.18s-.18.14-.43.31a6.77,6.77,0,0,1-.65.42c-1.28,1.14-1.79,2.19-1.54,3.13s1.38,1.41,3.4,1.4,5.2-.48,9.19-1.11c2.31-.44,3.57.61,3.78,3.18.21,2.32-.73,3.64-2.8,4a85.56,85.56,0,0,1-10.35.82,11,11,0,0,1-6-1.54,7.34,7.34,0,0,1-3.17-4,7.73,7.73,0,0,1,.3-5.29,12.82,12.82,0,0,1,4.31-5.32l1.86-1.31,1.87-1.26a1.59,1.59,0,0,0-.46-1.13,1.77,1.77,0,0,0-1.38-.14,8.11,8.11,0,0,0-2.14,1.16,24.79,24.79,0,0,0-2.66,2.16q-1.38,1.26-3.37,3.35-1.86,1.72-4.22,0-1.51-2.48-.15-4.13a22.18,22.18,0,0,0,2.92-3.32c.87-1.23,1.79-2.64,2.74-4.23.2-.38.41-.81.62-1.31L770,492l-4.22.15q-3.16.1-3.27-3.06Zm44.92-1a.4.4,0,0,0-.44.47l.15,4.5q.54,15.38-2.87,24.27a2.4,2.4,0,0,1-1.83,1.58,3,3,0,0,1-.73.12,3.08,3.08,0,0,1-1.81-.53,3.87,3.87,0,0,1-1.68-2.11,4.56,4.56,0,0,1-.22-1.23,4.31,4.31,0,0,1,.22-1.52,35.17,35.17,0,0,0,1.92-9.37,100.76,100.76,0,0,0,.17-11l-.26-7.53a4,4,0,0,1,3.85-4.13l12-.42a.4.4,0,0,0,.44-.47l-.06-1.7a3.46,3.46,0,0,1,1-2.56,3.57,3.57,0,0,1,6.18,2.31l.06,1.7a.4.4,0,0,0,.48.44l12.75-.44a3.28,3.28,0,0,1,.23,6.56ZM834,501.73a88.71,88.71,0,0,1,6.81,10.93,3.71,3.71,0,0,1,.42,1.55,3.55,3.55,0,0,1-.27,1.48A3.87,3.87,0,0,1,838.9,518l-.13.06a3.91,3.91,0,0,1-1.35.32,3.53,3.53,0,0,1-3.35-2.14.55.55,0,0,0-.61-.34q-11.76,1.41-22.83,2.54h-.27a3.6,3.6,0,0,1-3.65-3.14v-.36a3.12,3.12,0,0,1,.75-2.19,3.25,3.25,0,0,1,2.35-1.23c.54-.05,1-.08,1.46-.1a.57.57,0,0,0,.58-.48,120.07,120.07,0,0,0,4.08-17.42,3.86,3.86,0,0,1,1.56-2.58,3.81,3.81,0,0,1,2.13-.76,6.89,6.89,0,0,1,.78,0l.05,0a3.5,3.5,0,0,1,2.53,1.57,3.69,3.69,0,0,1,.67,2,3.81,3.81,0,0,1-.1,1q-1.87,8.2-4.28,15.59a.29.29,0,0,0,.06.28.31.31,0,0,0,.28.13l10.71-.88a.28.28,0,0,0,.22-.17.25.25,0,0,0,0-.3q-1.41-2.38-2.91-4.63a3,3,0,0,1-.52-1.55,3.26,3.26,0,0,1,.11-.92,2.74,2.74,0,0,1,1.54-1.89,4.67,4.67,0,0,1,1.68-.38,3.79,3.79,0,0,1,1.2.14,4.18,4.18,0,0,1,2.4,1.57Zm13.07-12.36c.12-2.67.29-4.89.5-6.68q.54-3,3.94-2.89c2,0,2.91,1,2.87,3.21q-.25,2.16-.43,6.15t-.08,8.16c.13,3,.35,5.77.66,8.4s.59,4.68.85,6.11q.3,3.26-2.63,3.4-3.39.3-4.14-2.61c-.33-1.77-.66-4-1-6.63s-.53-5.38-.66-8.25v-.05c-.07-2.9,0-5.68.08-8.32Zm13,3.91c-2.33.08-3.53-1-3.61-3.41s1-3.53,3.36-3.61l5.92-.21-.15-4.36c-.08-2.29,1-3.48,3.32-3.56s3.48,1,3.56,3.32l.15,4.36,1.69-.05c2.33-.09,3.53,1,3.61,3.36s-1,3.58-3.36,3.66l-1.7.06.23,6.38a36.27,36.27,0,0,1-.92,9.4,18.77,18.77,0,0,1-2.41,5.83c-1.31,1.82-2.83,2.37-4.53,1.63s-2.26-2.22-1.44-4.18a27.34,27.34,0,0,0,1.83-5.67,29.94,29.94,0,0,0,.58-6.87l-.22-6.28-5.91.2Zm14.16-13.82a1.38,1.38,0,0,1,1.51-1.61,1.4,1.4,0,0,1,1.66,1.5l.12,3.49a1.39,1.39,0,0,1-1.51,1.62,1.41,1.41,0,0,1-1.66-1.51Zm5-.17a1.37,1.37,0,0,1,1.5-1.61,1.4,1.4,0,0,1,1.66,1.5l.12,3.49a1.37,1.37,0,0,1-1.5,1.61,1.39,1.39,0,0,1-1.66-1.5ZM904.9,507.8a8,8,0,0,1-.9,4.45,5.61,5.61,0,0,1-2.9,2.35,12.67,12.67,0,0,1-4,.78,13,13,0,0,1-5.15-.9,9.52,9.52,0,0,1-4.17-3,8.73,8.73,0,0,1-1.74-5.07,8.77,8.77,0,0,1,5.71-8.81,15.63,15.63,0,0,1,5.83-1.24l-.56-16q-.12-3.44,3.32-3.56c2.3-.08,3.48,1,3.56,3.32l.13,3.58,7-.24q3.48-.12,3.61,3.36t-3.37,3.66l-7,.24.22,6.25a32.63,32.63,0,0,1,4.8,2.1,48.72,48.72,0,0,1,4.93,3c1.39,1.15,1.56,2.68.53,4.58q-2,2.24-4.21.51-3.48-2.36-5.82-3.61Zm-7.68,1.05q.42,0,.63-.57a4.6,4.6,0,0,0,.12-1.8l-.14-4c-1.81-.12-3.1.18-3.87.89a3.24,3.24,0,0,0-1.11,2.59,2.75,2.75,0,0,0,1.37,2.32A4.63,4.63,0,0,0,897.22,508.85Zm22.59-14.53a3.42,3.42,0,0,1,2.06-4.11,27.48,27.48,0,0,1,5.17-1.86,32,32,0,0,1,6.9-1,21.44,21.44,0,0,1,6.94.83,9.91,9.91,0,0,1,5.15,3.48,10.26,10.26,0,0,1,2.09,5.9,14.89,14.89,0,0,1-2.24,8.28q-2.31,3.69-7.72,5.69a32.31,32.31,0,0,1-9.87,2.16c-1.89.06-2.88-1-2.95-3.16s.92-3.31,2.9-3.5a22.07,22.07,0,0,0,7.09-1.49q3.6-1.37,4.8-3.36a7.36,7.36,0,0,0,1-4.52,3.6,3.6,0,0,0-1.46-2.91q-1.39-1-5.47-.93a22.79,22.79,0,0,0-4.66.78c-1.64.44-3.68,1.05-6.14,1.84-1.65.77-2.84.07-3.56-2.08Zm3-13.34q0-3,2.64-3.3,4.53-.35,7.42-.36t7.72.24a3.51,3.51,0,0,1,3.53,3.6c0,2.27-1.08,3.22-3.3,2.87-3.19-.25-5.77-.38-7.73-.37-3,.1-5,.19-5.87.25a8.8,8.8,0,0,0-1.37.14c-2,.13-3-.89-3-3.07Zm34.86,25.25a4.87,4.87,0,0,1,1.45-3.75,6,6,0,0,1,7.93-.27,4.87,4.87,0,0,1,1.71,3.64,4.76,4.76,0,0,1-1.45,3.75,6.17,6.17,0,0,1-7.93.27A4.76,4.76,0,0,1,957.7,506.23Zm1.86-10.91-1.93-11.87-.27-3.81a3.58,3.58,0,0,1,1-2.86,3.72,3.72,0,0,1,2.71-1.27l2.34-.08a3.72,3.72,0,0,1,2.79,1.08,3.59,3.59,0,0,1,1.16,2.78v3.82l-1.1,12a3.39,3.39,0,0,1-1.05,2.13,3.26,3.26,0,0,1-4.4.15A3.41,3.41,0,0,1,959.56,495.32Z"/><path class="cls-8" d="M645.51,110a70.19,70.19,0,0,1-9.94,17.84,94.68,94.68,0,0,1-13.66,13.92q-6.39,4.8-10.06,0c-2.07-4.37-1.71-7.73,1.08-10.11a83,83,0,0,0,8-6.8,62.18,62.18,0,0,0,8.57-10.55,79.4,79.4,0,0,0,8-16.23l-20.46.71q-6.81.24-7.05-6.59T616.6,85l28-1-.15-4.22q-.24-7,6.76-7.24c4.66-.17,7.08,2.09,7.24,6.75l.15,4.22,3.41-.11c4.54-.16,6.9,2,7,6.58s-2,7-6.57,7.15l-3.41.12,1.55,44.36q.24,7-6.76,7.25t-7.24-6.76Zm54.94-26.91-.21-5.83q-.21-6,5.81-6.23t6.22,5.81l.2,5.83,7.63-.26q15.43-.45,16,15.8a52.35,52.35,0,0,1-3,18.35A39,39,0,0,1,725,130.66a52.63,52.63,0,0,1-10.57,8.73,55.39,55.39,0,0,1-12.65,5.66q-5.94,2-8.72-2.93c-1.61-4.74-.39-7.78,3.63-9.12q10.47-3.87,15.69-8.55a27.17,27.17,0,0,0,7.6-11.37,28.39,28.39,0,0,0,1.93-11.8q-.2-5.57-4.86-5.31l-18.93.66q-5.39.18-5.2,5.57l.45,12.84q.24,6.93-6.67,7.16t-7.15-6.67L679,100q-.57-16.15,15.59-16.72Zm46.84-1.54q-.25-7,6.75-7.25l41.54-1.45q7-.25,7.25,6.76t-6.75,7.34l-13.19.46,1.31,37.53,15.07-.53q7-.24,7.24,6.76t-6.75,7.34l-45,1.57q-7,.25-7.24-6.76t6.75-7.33l15.34-.54-1.31-37.53-13.73.48q-7,.24-7.24-6.76ZM813,78.32q-.25-7,6.75-7.25l15.43-.54q7-.24,7.25,6.76t-6.76,7.25l-15.43.54q-7,.24-7.24-6.76ZM866.53,85q6.11,2.58,4.25,8.49Q868.65,101.91,862,112a72.1,72.1,0,0,1-14.52,16.51q-7.9,6.44-23.66,10.49-6.15,1.38-8.1-5.47c-.76-4.71,1-7.53,5.46-8.46q11.5-2.39,18-7.92a65.11,65.11,0,0,0,11.54-12.76,51.06,51.06,0,0,0,7.25-15.13c1.36-3.71,4.19-5.12,8.47-4.26Z"/><g class="cls-46"><path class="cls-47" d="M706.54,319A56.06,56.06,0,1,0,773,362.13,56,56,0,0,0,706.54,319M726,410.34A37.38,37.38,0,1,1,754.71,366,37.36,37.36,0,0,1,726,410.34"/><path class="cls-48" d="M585.31,297.2l0,.19c-8.71,3.94-12.6,20.78-8.6,39.61s14.4,32.64,24,32.69l0,.19L878.32,387,832,168.72Z"/><path class="cls-49" d="M836.54,167.14c25.22-5.36,56.08,39.38,69,99.94s2.85,114-22.37,119.38-56.08-39.38-69-99.95-2.85-114,22.37-119.37"/></g></svg>