<svg id="レイヤー_1" data-name="レイヤー 1" xmlns="http://www.w3.org/2000/svg" xmlns:xlink="http://www.w3.org/1999/xlink" viewBox="0 0 1024 1024"><defs><style>.cls-1,.cls-15,.cls-18{fill:none;}.cls-2{clip-path:url(#clip-path);}.cls-3{clip-path:url(#clip-path-2);}.cls-4{fill:#124a83;}.cls-5{clip-path:url(#clip-path-3);}.cls-6{fill:#fff;}.cls-7{fill:#f3ac00;}.cls-8{fill:#f2ab00;}.cls-9{fill:#270d84;}.cls-10{clip-path:url(#clip-path-5);}.cls-11{clip-path:url(#clip-path-6);}.cls-12{clip-path:url(#clip-path-7);}.cls-13{fill:#dd2e44;}.cls-14{fill:#fdcb58;}.cls-15{stroke:#f9dc11;stroke-width:25px;}.cls-16{clip-path:url(#clip-path-9);}.cls-17{clip-path:url(#clip-path-12);}.cls-18{stroke:#000;stroke-width:2px;}.cls-19{clip-path:url(#clip-path-13);}.cls-20{clip-path:url(#clip-path-15);}.cls-21{clip-path:url(#clip-path-16);}.cls-22{fill:#5dadec;}.cls-23{clip-path:url(#clip-path-18);}.cls-24{clip-path:url(#clip-path-19);}.cls-25{fill:#292f33;}.cls-26{fill:#ffdb5e;}.cls-27{fill:#a88dc1;}.cls-28{fill:#7355a2;}.cls-29{fill:#522e8d;}.cls-30{fill:#f8c954;}.cls-31{fill:#f4abba;}.cls-32{fill:#de2032;}.cls-33{fill:#c1694f;}.cls-34{fill:#662213;}.cls-35{fill:#424143;}.cls-36{fill:#59595c;}.cls-37{clip-path:url(#clip-path-21);}.cls-38{fill:#ccd6dd;}.cls-39{fill:#f7dece;}.cls-40{fill:#eec2ad;}.cls-41{fill:#662113;}.cls-42{fill:#269;}.cls-43{fill:#3b88c3;}.cls-44{fill:#55acee;}.cls-45{fill:#f5f8fa;}.cls-46{fill:#66757f;}.cls-47{clip-path:url(#clip-path-23);}.cls-48{clip-path:url(#clip-path-24);}.cls-49{fill:#f3d2a2;}.cls-50{fill:#e2c196;}.cls-51{fill:#ffe51e;}.cls-52{clip-path:url(#clip-path-25);}.cls-53{fill:#77b255;}.cls-54{fill:#3e721d;}.cls-55{fill:#df1f32;}.cls-56{clip-path:url(#clip-path-27);}.cls-57{clip-path:url(#clip-path-28);}.cls-58{fill:#af7e57;}.cls-59{fill:#9b6a49;}.cls-60{fill:#60352a;}.cls-61{fill:#915a34;}.cls-62{opacity:0.4;isolation:isolate;}.cls-63{clip-path:url(#clip-path-33);}.cls-64{clip-path:url(#clip-path-34);}.cls-65{fill:#9266cc;}.cls-66{fill:#a8bccc;}.cls-67{fill:#e1e8ed;}.cls-68{clip-path:url(#clip-path-35);}.cls-69{fill:#ea596e;}.cls-70{fill:#be1931;}.cls-71{fill:#7c533e;}.cls-72{fill:#664131;}.cls-73{fill:#3d2e24;}.cls-74{fill:#0b0200;}.cls-75{fill:#ffcc4d;}.cls-76{fill:#ffac33;}.cls-77{fill:#ffdc5d;}.cls-78{fill:#250d85;}.cls-79{clip-path:url(#clip-path-38);}.cls-80{clip-path:url(#clip-path-39);}</style><clipPath id="clip-path"><rect class="cls-1" x="-2089" y="-215.095" width="3012.611" height="1240.095"/></clipPath><clipPath id="clip-path-2"><rect class="cls-1" x="-2088" width="1024" height="1024"/></clipPath><clipPath id="clip-path-3"><rect class="cls-1" x="-2007.881" y="-212.909" width="2931.428" height="1154.225"/></clipPath><clipPath id="clip-path-5"><rect class="cls-1" x="76.444" y="648.743" width="84.44" height="75.703" transform="translate(-140.158 39.675) rotate(-12)"/></clipPath><clipPath id="clip-path-6"><rect class="cls-1" x="76.444" y="648.743" width="84.44" height="75.703" transform="translate(-140.157 39.675) rotate(-12)"/></clipPath><clipPath id="clip-path-7"><rect class="cls-1" width="1024" height="1024"/></clipPath><clipPath id="clip-path-9"><rect class="cls-1" x="128.192" y="724.665" width="58.374" height="65.111" transform="translate(-615.268 723.056) rotate(-75.727)"/></clipPath><clipPath id="clip-path-12"><rect class="cls-1" x="180.224" y="682.966" width="233.261" height="4"/></clipPath><clipPath id="clip-path-13"><rect class="cls-1" x="616.184" y="682.966" width="227.592" height="4"/></clipPath><clipPath id="clip-path-15"><rect class="cls-1" x="873.308" y="310.524" width="55.907" height="57.825" transform="translate(425.015 1176.502) rotate(-81)"/></clipPath><clipPath id="clip-path-16"><rect class="cls-1" x="873.308" y="310.524" width="55.907" height="57.825" transform="translate(425.017 1176.503) rotate(-81)"/></clipPath><clipPath id="clip-path-18"><rect class="cls-1" x="205.231" y="807.664" width="172.175" height="162.416"/></clipPath><clipPath id="clip-path-19"><rect class="cls-1" x="205.231" y="807.664" width="172.176" height="162.416"/></clipPath><clipPath id="clip-path-21"><rect class="cls-1" x="73.531" y="806.112" width="163.959" height="163.959"/></clipPath><clipPath id="clip-path-23"><rect class="cls-1" x="382.24" y="807.664" width="130.026" height="162.407"/></clipPath><clipPath id="clip-path-24"><rect class="cls-1" x="382.24" y="807.664" width="130.025" height="162.406"/></clipPath><clipPath id="clip-path-25"><rect class="cls-1" x="497.97" y="814.743" width="155.338" height="155.338"/></clipPath><clipPath id="clip-path-27"><rect class="cls-1" x="639.711" y="818.6" width="154.612" height="151.476"/></clipPath><clipPath id="clip-path-28"><rect class="cls-1" x="639.711" y="818.599" width="154.612" height="151.477"/></clipPath><clipPath id="clip-path-33"><rect class="cls-1" x="703" y="861" width="63" height="24"/></clipPath><clipPath id="clip-path-34"><rect class="cls-1" x="703.071" y="861.633" width="62.274" height="22.548"/></clipPath><clipPath id="clip-path-35"><rect class="cls-1" x="761.615" y="814.117" width="156.159" height="155.954"/></clipPath><clipPath id="clip-path-38"><rect class="cls-1" x="821.027" y="270.463" width="55.907" height="57.825" transform="translate(315.959 1024.828) rotate(-73.118)"/></clipPath><clipPath id="clip-path-39"><rect class="cls-1" x="821.027" y="270.462" width="55.907" height="57.825" transform="matrix(0.29, -0.957, 0.957, 0.29, 315.959, 1024.828)"/></clipPath></defs><g class="cls-2"><g class="cls-3"><polygon class="cls-4" points="-2088 1024 -555.144 900.661 -456.982 892.788 922.611 781.804 922.611 -214.095 -166.316 -126.62 -739.082 -80.477 -1797.218 4.701 -2088 1024"/></g></g><g class="cls-5"><g class="cls-3"><polygon class="cls-6" points="-2006.881 940.316 -467.018 818.577 -374.726 811.296 922.547 708.653 922.547 -211.909 -101.372 -130.989 -639.926 -88.38 -1733.527 -1.85 -2006.881 940.316"/></g></g><polygon class="cls-7" points="0.388 900.689 34.09 930.851 -9.15 944.901 0.388 900.689"/><polygon class="cls-7" points="148.653 944.901 192.096 957.485 159.21 988.88 148.653 944.901"/><path class="cls-8" d="M951.378,761.788h-3.872v-9.407h-9.375v-3.84h9.375v-9.119h3.872v9.119h9.375v3.84h-9.375Z"/><path class="cls-8" d="M918.527,898.067h-3.872V888.66H905.28v-3.84h9.375V875.7h3.872v9.119H927.9v3.84h-9.375Z"/><polygon class="cls-7" points="692.24 42.719 704.838 86.158 660.723 75.159 692.24 42.719"/><polygon class="cls-7" points="978.32 86.158 1023.326 90.631 996.699 127.483 978.32 86.158"/><path class="cls-8" d="M230.591,55.767h-3.872V46.359h-9.375V42.52h9.375V33.4h3.872v9.12h9.375v3.839h-9.375Z"/><path class="cls-8" d="M551.332,98.148H547.46V88.741h-9.375V84.9h9.375V75.782h3.872V84.9h9.375v3.84h-9.375Z"/><path class="cls-8" d="M830.4,24.332h-3.872V14.925h-9.375v-3.84h9.375V1.966H830.4v9.119h9.375v3.84H830.4Z"/><path class="cls-8" d="M1015.093,246.506h-3.872V237.1h-9.375v-3.84h9.375V224.14h3.872v9.119h9.375v3.84h-9.375Z"/><path class="cls-8" d="M33.162,328.2H29.29V318.8H19.915v-3.84H29.29v-9.119h3.872v9.119h9.375v3.84H33.162Z"/><path class="cls-8" d="M56.51,115.614H52.638v-9.407H43.263v-3.84h9.375V93.248H56.51v9.119h9.375v3.84H56.51Z"/><path class="cls-8" d="M433.729,44.332h-3.872V34.925h-9.375v-3.84h9.375V21.966h3.872v9.119H443.1v3.84h-9.375Z"/><path class="cls-8" d="M982.242,382.786H978.37v-9.407H969v-3.84h9.375V360.42h3.872v9.119h9.375v3.84h-9.375Z"/><path class="cls-7" d="M971.075,571.9a.871.871,0,0,0-.814.381c-.546.813-1.144,1.751-1.775,2.745-2.325,3.657-5.218,8.207-8.293,10.7s-8.127,4.373-12.187,5.887c-1.1.411-2.146.8-3.054,1.166a.87.87,0,0,0-.161,1.531c.812.547,1.751,1.144,2.745,1.776,3.657,2.325,8.207,5.217,10.7,8.292s4.373,8.127,5.887,12.188c.411,1.1.8,2.145,1.166,3.053a.87.87,0,0,0,1.531.161c.547-.812,1.144-1.751,1.776-2.744,2.324-3.657,5.217-8.208,8.292-10.7s8.131-4.372,12.192-5.886c1.1-.411,2.142-.8,3.049-1.167a.87.87,0,0,0,.161-1.531c-.812-.546-1.747-1.144-2.74-1.775-3.657-2.325-8.212-5.218-10.7-8.292s-4.372-8.132-5.886-12.193c-.411-1.1-.8-2.141-1.167-3.049A.87.87,0,0,0,971.075,571.9Z"/><path class="cls-7" d="M40.322,456.63a.705.705,0,0,0-.6.406c-.333.716-.69,1.538-1.067,2.409-1.389,3.2-3.118,7.19-5.251,9.558s-5.917,4.5-8.958,6.222c-.826.466-1.606.907-2.283,1.313a.7.7,0,0,0,.065,1.239c.715.332,1.538.69,2.408,1.067,3.2,1.389,7.19,3.118,9.559,5.251s4.505,5.916,6.221,8.958c.466.825.908,1.606,1.313,2.283a.7.7,0,0,0,1.239-.065c.333-.716.69-1.538,1.067-2.408,1.389-3.2,3.118-7.19,5.251-9.559s5.92-4.5,8.961-6.222c.826-.466,1.6-.907,2.28-1.313a.7.7,0,0,0-.065-1.238c-.715-.333-1.534-.69-2.4-1.068-3.2-1.389-7.194-3.117-9.563-5.25s-4.5-5.92-6.221-8.962c-.466-.825-.908-1.6-1.313-2.28A.7.7,0,0,0,40.322,456.63Z"/><path class="cls-7" d="M911.436,765.853a.87.87,0,0,0-.814.381c-.547.812-1.144,1.751-1.776,2.745-2.325,3.657-5.218,8.207-8.292,10.7s-8.127,4.373-12.188,5.887c-1.1.411-2.145.8-3.054,1.166a.87.87,0,0,0-.161,1.531c.813.547,1.752,1.144,2.745,1.776,3.657,2.325,8.208,5.217,10.7,8.292s4.373,8.127,5.886,12.188c.411,1.1.8,2.145,1.167,3.053a.869.869,0,0,0,1.53.161c.547-.812,1.145-1.751,1.776-2.744,2.325-3.657,5.218-8.208,8.292-10.7s8.132-4.372,12.193-5.886c1.1-.411,2.141-.8,3.049-1.167a.87.87,0,0,0,.161-1.531c-.812-.546-1.747-1.143-2.74-1.775-3.658-2.325-8.212-5.218-10.7-8.293s-4.373-8.131-5.887-12.192c-.41-1.1-.8-2.141-1.166-3.049A.872.872,0,0,0,911.436,765.853Z"/><path class="cls-7" d="M18.5,601.076a.7.7,0,0,0-.6.406c-.332.715-.689,1.538-1.067,2.408-1.389,3.2-3.118,7.19-5.251,9.559s-5.917,4.5-8.957,6.221c-.827.466-1.607.908-2.284,1.313a.7.7,0,0,0,.065,1.239c.715.333,1.538.69,2.408,1.067,3.2,1.389,7.19,3.118,9.559,5.251s4.505,5.917,6.222,8.958c.466.826.907,1.607,1.313,2.283a.7.7,0,0,0,1.238-.065c.333-.715.69-1.538,1.067-2.408,1.39-3.2,3.119-7.19,5.252-9.559s5.92-4.5,8.961-6.221c.825-.467,1.6-.908,2.28-1.313a.7.7,0,0,0-.065-1.239c-.716-.333-1.535-.69-2.405-1.067-3.2-1.389-7.193-3.118-9.562-5.251s-4.5-5.92-6.222-8.961c-.466-.826-.907-1.6-1.313-2.28A.7.7,0,0,0,18.5,601.076Z"/><path class="cls-7" d="M922.807,923.658a.872.872,0,0,0-.814.381c-.547.813-1.144,1.752-1.776,2.745-2.324,3.657-5.217,8.208-8.292,10.7s-8.127,4.374-12.188,5.887c-1.1.411-2.145.8-3.054,1.167a.869.869,0,0,0-.16,1.53c.812.547,1.751,1.145,2.744,1.776,3.657,2.325,8.207,5.218,10.7,8.292s4.374,8.127,5.887,12.188c.411,1.1.8,2.146,1.167,3.054a.87.87,0,0,0,1.53.161c.547-.813,1.145-1.751,1.776-2.745,2.325-3.657,5.218-8.208,8.292-10.7s8.131-4.373,12.192-5.887c1.1-.411,2.142-.8,3.05-1.166a.87.87,0,0,0,.161-1.531c-.812-.547-1.747-1.144-2.74-1.775-3.658-2.325-8.212-5.218-10.7-8.293s-4.373-8.131-5.887-12.192c-.411-1.1-.8-2.142-1.166-3.05A.873.873,0,0,0,922.807,923.658Z"/><path class="cls-7" d="M59.846,820.6a.706.706,0,0,0-.6.406c-.332.716-.689,1.538-1.067,2.408-1.389,3.2-3.118,7.19-5.251,9.559s-5.917,4.5-8.957,6.222c-.827.466-1.607.907-2.284,1.313a.7.7,0,0,0,.065,1.239c.715.332,1.538.69,2.408,1.067,3.2,1.389,7.19,3.118,9.559,5.251s4.5,5.916,6.222,8.958c.466.825.907,1.606,1.313,2.283a.7.7,0,0,0,1.238-.065c.333-.716.69-1.538,1.067-2.408,1.39-3.2,3.119-7.19,5.252-9.559s5.92-4.5,8.961-6.222c.825-.466,1.6-.907,2.28-1.313a.7.7,0,0,0-.065-1.238c-.716-.333-1.535-.69-2.405-1.068-3.2-1.389-7.193-3.117-9.562-5.251s-4.5-5.919-6.222-8.961c-.466-.825-.907-1.6-1.313-2.28A.7.7,0,0,0,59.846,820.6Z"/><rect class="cls-9" x="111.533" y="144.226" width="800.933" height="821.877"/><rect class="cls-6" x="131.46" y="162.351" width="759.844" height="785.437"/><rect class="cls-9" x="209.164" y="57.763" width="598.649" height="182.879"/><rect class="cls-9" x="233.72" y="88.041" width="597.918" height="171.85"/><rect class="cls-6" x="223.164" y="67.218" width="570.649" height="163.969"/><path class="cls-9" d="M376.417,129.06c-.076,33.061-1.444,42.713-7.828,54.57a29.159,29.159,0,0,0-6.841-6.536,36.918,36.918,0,0,0,4.94-13.225c1.064-5.7,1.6-16.8,1.6-32.149,0-5.473-.076-8.057-.3-10.641a61.129,61.129,0,0,0,7.9.38h19.381v-3.344a19.637,19.637,0,0,0-.38-4.333h9.2a17.171,17.171,0,0,0-.38,4.408v3.269h19.686a64.83,64.83,0,0,0,8.967-.456v8.436a73.774,73.774,0,0,0-8.892-.379H398.306c10.184,5.7,11.705,6.688,19,12.616l-5.852,6.461c-5.7-5.7-10.033-8.817-19.306-13.909L398,129.06Zm-.608,44.614a46.032,46.032,0,0,0,4.1-12.465,94.648,94.648,0,0,0,1.672-14.669l7.9,2.053c-1.216,14.06-2.355,19.837-6,30.021Zm26.069-31.618a54.873,54.873,0,0,0-.38,7.144v23.865c0,2.053.608,2.357,5.168,2.357,6,0,6.081-.3,6.081-13.984a33.184,33.184,0,0,0,8.056,2.66c-.608,10.412-1.292,14.212-2.964,16.34s-4.788,2.964-11.248,2.964c-10.565,0-13.225-1.139-13.225-5.7V149.124a33.833,33.833,0,0,0-.456-7.068Zm23.561,35.19c-2.127-11.705-4.028-17.785-8.74-27.514l7.22-3.572c5.017,11.1,7.068,16.873,9.653,27.21Z"/><path class="cls-9" d="M453.785,166.909a79.885,79.885,0,0,1-10.64,4.941,24.526,24.526,0,0,0-4.409-6.613,54.375,54.375,0,0,0,17.025-7.524H447.78a80.5,80.5,0,0,0-8.36.38v-7.22a85.462,85.462,0,0,0,8.589.38h14.972a12.562,12.562,0,0,0,1.9-2.433H454.621c-2.508,0-4.256.076-6,.153.153-1.748.229-3.269.229-5.244v-10.87c0-1.975-.076-3.572-.229-5.32a51.633,51.633,0,0,0,6,.229h3.344v-2.889h-9.88a55.219,55.219,0,0,0-8.36.532v-7.372a70.111,70.111,0,0,0,8.511.456h9.729v-.38a21.535,21.535,0,0,0-.3-4.1h8.513a20.46,20.46,0,0,0-.3,4.1v.38h15.657v-.38a31.826,31.826,0,0,0-.227-4.1h8.435a21.121,21.121,0,0,0-.3,4.1v.38h10.26a71.489,71.489,0,0,0,8.589-.456v7.372a55.233,55.233,0,0,0-8.361-.532H489.431v2.889h4.18a51.588,51.588,0,0,0,6-.229c-.152,1.673-.227,3.192-.227,5.32v10.87a52.284,52.284,0,0,0,.227,5.244c-1.748-.077-3.572-.153-6.08-.153H473.318a22.61,22.61,0,0,1-1.6,2.433h28.425c3.725,0,6.081-.152,8.589-.38v7.22a63.659,63.659,0,0,0-8.361-.38h-8.208a36.519,36.519,0,0,0,8.133,4.332,46.433,46.433,0,0,0,9.956,2.736A31.41,31.41,0,0,0,506.38,172a64.719,64.719,0,0,1-10.488-4.484c-1.445,14.745-2.737,16.34-13.454,16.34-1.444,0-2.887-.076-5.852-.228a19.2,19.2,0,0,0-2.432-7.372,46.208,46.208,0,0,0,7.6.76c5.016,0,5.472-.456,6.156-7.449H474.306c-4.484,8.361-12.617,13.074-25.994,15.125a27.327,27.327,0,0,0-4.1-6.688c10.261-.988,17.025-3.649,21.2-8.437H460.4a38.088,38.088,0,0,0-6.612.38Zm2.66-31.466h35.266v-2.431H456.445Zm0,7.753h35.266v-2.66H456.445Zm9.805,14.517a55.174,55.174,0,0,1-7.068,5.852h9.576a11.772,11.772,0,0,0,.683-4.332l8.513.3c-.076.3-.532,1.672-1.14,4.028h12.54a45.825,45.825,0,0,1-7.068-5.852Zm15.276-32.834H465.869v2.889h15.657Z"/><path class="cls-9" d="M521.5,121.459a38.625,38.625,0,0,0-.381-6.46h8.285a38.747,38.747,0,0,0-.38,6.46v1.292H539.97v-1.292a36.071,36.071,0,0,0-.38-6.46h8.284a37.648,37.648,0,0,0-.38,6.46v1.292a34.22,34.22,0,0,0,5.168-.38v7.677a27.326,27.326,0,0,0-5.168-.305v29.338a29.591,29.591,0,0,0,4.56-.3v7.6a62.168,62.168,0,0,0-6.384-.228H520.74a34.938,34.938,0,0,0-5.852.3v-7.676a34,34,0,0,0,5.625.3h.988V129.743a32.5,32.5,0,0,0-5.776.305v-7.677a24.64,24.64,0,0,0,5.776.38Zm10.944,49.326c-3.876,6.385-5.928,8.741-11.705,13.833a28.4,28.4,0,0,0-5.852-6,34.868,34.868,0,0,0,11.1-11.781Zm7.525-36.025v-5.017H529.025v5.017Zm0,11.856v-5.168H529.025v5.168Zm0,12.465v-5.776H529.025v5.776Zm1.824,7.9c2.66,4.1,2.811,4.256,7.068,8.133a28.6,28.6,0,0,0-5.7,5.624c-4.333-4.788-4.333-4.788-7.373-9.8Zm20.064-6.536c-1.139,12.009-3.04,17.557-8.36,24.4a49.34,49.34,0,0,0-6.46-6.157c3.724-4.18,5.472-8.056,6.536-14.136,1.065-6.537,1.521-17.785,1.521-37.319a77.627,77.627,0,0,0-.381-9.881,82.253,82.253,0,0,0,8.436.305h11.021a72.943,72.943,0,0,0,8.209-.305,71.833,71.833,0,0,0-.3,8.361v50.39c0,3.725-1.064,6.082-3.192,6.994a20.269,20.269,0,0,1-7.525,1.063c-.912,0-1.064,0-4.788-.227a32.71,32.71,0,0,0-1.976-8.361,35.1,35.1,0,0,0,6.688.76c2.357,0,2.888-.3,2.888-1.672V160.449Zm.913-17.937c-.077,4.484-.152,7.3-.38,10.717h11.78V142.512Zm11.4-17.328H562.847v10.032h11.324Z"/><path class="cls-9" d="M602.137,174.738a65.922,65.922,0,0,0,.456,9.348H593.7a67.932,67.932,0,0,0,.456-9.424V125.031a84.609,84.609,0,0,0-.3-8.512,69,69,0,0,0,7.828.3h13.453a64.215,64.215,0,0,0,7.752-.3c-.153,2.432-.228,4.1-.228,7.068v11.629c0,3.5.075,5.244.228,6.916-1.976-.152-4.332-.228-6.992-.228H602.137Zm0-47.959h13.072v-3.8H602.137Zm0,9.273h13.072v-3.876H602.137Zm38.99,32.681c0,2.889.076,4.637.227,6.613,1.673.152,4.409.38,5.777.38,2.128,0,2.812-.532,2.812-2.052V141.9H634.971c-2.66,0-5.093.076-6.992.228.151-2.2.227-3.648.227-6.916V123.587c0-2.584-.076-4.712-.227-7.068a65,65,0,0,0,7.751.3h14.593a68.175,68.175,0,0,0,7.828-.3c-.227,2.736-.3,4.636-.3,8.436v49.783c0,4.56-.912,6.536-3.649,7.676-1.595.685-3.876.912-8.588.912-1.064,0-1.368,0-5.244-.227a28.9,28.9,0,0,0-1.976-7.829c-2.2-.076-3.649-.076-4.256-.076H618.021v4.256h-8.056a52.252,52.252,0,0,0,.532-7.6V153.305c0-2.66-.076-4.788-.227-6.84a62.2,62.2,0,0,0,7.068.3h16.948a61.337,61.337,0,0,0,7.068-.3c-.151,1.975-.227,3.876-.227,6.84Zm-23.106-11.02h15.5v-4.561h-15.5Zm0,11.1h15.5v-4.941h-15.5Zm17.709-42.031h14.213v-3.8H635.73Zm0,9.273h14.213v-3.876H635.73Z"/><rect class="cls-1" width="1024" height="1024"/><g class="cls-10"><g class="cls-11"><g class="cls-12"><path class="cls-13" d="M156.934,663.578A23.278,23.278,0,0,0,112.82,659.1a23.258,23.258,0,0,0-36.767,27.073c7.342,18.985,33.605,35.077,50.48,37.441,14.452-9.023,31.9-34.406,30.882-54.732a23,23,0,0,0-.481-5.308"/><path class="cls-14" d="M159.3,692.179l-9.524-1.392-5.146-8.133a2.361,2.361,0,0,0-4.333.919l-1.393,9.522-8.134,5.149a2.359,2.359,0,0,0,.92,4.329l9.525,1.395,5.147,8.135a2.36,2.36,0,0,0,4.331-.921l1.393-9.524,8.135-5.149a2.36,2.36,0,0,0-.921-4.33m-60.96-25.656-5.891-.859-3.181-5.032a2.362,2.362,0,0,0-4.332.921l-.862,5.891-5.029,3.18a2.361,2.361,0,0,0,.921,4.332l5.89.86,3.181,5.031a2.361,2.361,0,0,0,4.332-.921l.86-5.89,5.031-3.181a2.361,2.361,0,0,0-.92-4.332"/></g></g></g><g class="cls-12"><line class="cls-15" x1="148.653" y1="408.052" x2="875.347" y2="408.052"/></g><g class="cls-16"><g class="cls-16"><g class="cls-12"><path class="cls-13" d="M191.7,754.368a17.95,17.95,0,0,0-28.975-18.15,17.935,17.935,0,0,0-34.663,6.17c-1.4,15.633,11.263,35.723,22.124,43.118,13.072-1.306,33.8-12.9,40.035-27.3a17.769,17.769,0,0,0,1.479-3.835"/><path class="cls-14" d="M183.572,774.953l-6.11-4.214-.783-7.38a1.82,1.82,0,0,0-3.309-.843l-4.213,6.108-7.382.784a1.819,1.819,0,0,0-.841,3.307l6.11,4.216.781,7.381a1.821,1.821,0,0,0,3.31.842l4.214-6.11,7.381-.784a1.819,1.819,0,0,0,.842-3.307m-33.393-38.547-3.78-2.6-.482-4.565a1.82,1.82,0,0,0-3.309-.841L140,732.173l-4.563.483a1.821,1.821,0,0,0-.842,3.31l3.779,2.6.483,4.565a1.82,1.82,0,0,0,3.309.842l2.6-3.779,4.565-.483a1.82,1.82,0,0,0,.842-3.309"/></g></g></g><g class="cls-17"><line class="cls-18" x1="181.224" y1="684.966" x2="412.484" y2="684.966"/></g><g class="cls-19"><line class="cls-18" x1="617.184" y1="684.966" x2="842.776" y2="684.966"/></g><path d="M441.574,676.487c-.031,13.919-.607,17.983-3.3,22.975a12.28,12.28,0,0,0-2.881-2.752,15.564,15.564,0,0,0,2.081-5.567,89.957,89.957,0,0,0,.671-13.536c0-2.3-.031-3.391-.129-4.479a25.755,25.755,0,0,0,3.329.161h8.16V671.88a8.3,8.3,0,0,0-.16-1.824h3.871a7.28,7.28,0,0,0-.16,1.857v1.376h8.289a27.259,27.259,0,0,0,3.775-.193v3.551a31.2,31.2,0,0,0-3.744-.16H450.789a40.876,40.876,0,0,1,8,5.312l-2.465,2.72a30.753,30.753,0,0,0-8.127-5.856l2.465-2.176Zm-.256,18.784a19.348,19.348,0,0,0,1.729-5.249,39.976,39.976,0,0,0,.7-6.175l3.328.864c-.512,5.92-.992,8.351-2.527,12.639Zm10.975-13.312a23.1,23.1,0,0,0-.16,3.008v10.047c0,.864.256.992,2.176.992,2.529,0,2.56-.128,2.56-5.888a13.909,13.909,0,0,0,3.391,1.12c-.256,4.384-.543,5.984-1.246,6.88s-2.018,1.248-4.737,1.248c-4.447,0-5.568-.48-5.568-2.4V684.935a14.26,14.26,0,0,0-.191-2.976Zm9.92,14.815a38.428,38.428,0,0,0-3.68-11.584l3.039-1.5a57.431,57.431,0,0,1,4.065,11.456Z"/><path d="M474.15,692.422a33.646,33.646,0,0,1-4.48,2.08,10.292,10.292,0,0,0-1.856-2.783,22.906,22.906,0,0,0,7.168-3.168h-3.359a33.617,33.617,0,0,0-3.521.16v-3.04a36,36,0,0,0,3.617.16h6.3a5.332,5.332,0,0,0,.8-1.024H474.5c-1.057,0-1.791.032-2.527.064.064-.736.095-1.376.095-2.208v-4.576c0-.831-.031-1.5-.095-2.239a22.017,22.017,0,0,0,2.527.1h1.408v-1.215h-4.16a23.4,23.4,0,0,0-3.52.223v-3.1a29.523,29.523,0,0,0,3.584.193h4.1v-.161a9.049,9.049,0,0,0-.129-1.727h3.584a8.731,8.731,0,0,0-.127,1.727v.161h6.592v-.161a13.09,13.09,0,0,0-.1-1.727h3.553a8.843,8.843,0,0,0-.129,1.727v.161h4.321a30.054,30.054,0,0,0,3.615-.193v3.1a23.385,23.385,0,0,0-3.52-.223h-4.416v1.215h1.76a22.084,22.084,0,0,0,2.529-.1c-.064.7-.095,1.343-.095,2.239v4.576a22.019,22.019,0,0,0,.095,2.208c-.736-.032-1.5-.064-2.56-.064h-8.512a9.309,9.309,0,0,1-.672,1.024h11.967c1.568,0,2.561-.064,3.617-.16v3.04a26.826,26.826,0,0,0-3.521-.16h-3.455a15.414,15.414,0,0,0,3.423,1.823,19.492,19.492,0,0,0,4.192,1.152,13.227,13.227,0,0,0-1.631,3.04,27.2,27.2,0,0,1-4.416-1.887c-.607,6.207-1.152,6.879-5.664,6.879-.608,0-1.215-.033-2.463-.1a8.084,8.084,0,0,0-1.025-3.1,19.462,19.462,0,0,0,3.2.32c2.111,0,2.3-.192,2.592-3.136h-5.729c-1.887,3.52-5.31,5.5-10.943,6.368a11.478,11.478,0,0,0-1.727-2.816c4.319-.416,7.166-1.536,8.926-3.552h-2.111a16,16,0,0,0-2.784.16Zm1.12-13.247h14.847v-1.024H475.27Zm0,3.264h14.847v-1.12H475.27Zm4.128,6.112a23.257,23.257,0,0,1-2.976,2.464h4.031a4.943,4.943,0,0,0,.289-1.825l3.584.128c-.033.128-.224.7-.48,1.7h5.279a19.448,19.448,0,0,1-2.977-2.464Zm6.432-13.823h-6.592v1.215h6.592Z"/><path d="M506.117,673.384a15.175,15.175,0,0,0-.191-3.008h3.713a24.986,24.986,0,0,0-.16,3.008v1.792h2.271a16.994,16.994,0,0,0,3.072-.193v3.424a24.25,24.25,0,0,0-2.5-.1,32.812,32.812,0,0,1-2.176,9.695c2.016,2.559,2.272,2.911,4.543,6.111l-2.527,2.816a46.041,46.041,0,0,0-3.68-5.536,31.489,31.489,0,0,1-6.367,7.9,11.475,11.475,0,0,0-2.433-2.976,22.2,22.2,0,0,0,6.56-7.84,58.537,58.537,0,0,0-5.439-5.887l2.336-2.368c.638.64.638.64,2.527,2.592.256.256.8.864,2.016,2.272a31.091,31.091,0,0,0,1.248-6.783h-5.92a20.565,20.565,0,0,0-2.975.16v-3.489a23.03,23.03,0,0,0,3.168.193h2.91Zm10.656,8.639a40.211,40.211,0,0,1,4.512,7.391l-2.912,1.92a28.547,28.547,0,0,0-4.48-7.743Zm1.791-1.984a19.941,19.941,0,0,0-3.039.16V676.68a19.436,19.436,0,0,0,3.039.16h4.065v-2.528a21.444,21.444,0,0,0-.225-3.808h3.84a29.034,29.034,0,0,0-.191,3.808v2.528h.385a18.325,18.325,0,0,0,3.007-.193v3.584c-.257-.032-.257-.032-.736-.1a18.608,18.608,0,0,0-2.24-.1h-.416v15.455c0,1.664-.1,2.208-.576,2.784-.608.768-1.76,1.088-3.872,1.088-1.312,0-2.5-.032-3.775-.128a10.638,10.638,0,0,0-.992-3.551,32.26,32.26,0,0,0,3.871.383c1.729,0,1.92-.1,1.92-.768V680.039Z"/><path d="M551.812,683.975a19,19,0,0,0,1.442,3.488,14.124,14.124,0,0,0,3.519-3.233l2.975,2.113a7.307,7.307,0,0,0-.8.672,30.325,30.325,0,0,1-4.064,3.072,15.513,15.513,0,0,0,7.072,5.184,13.721,13.721,0,0,0-2.145,3.423,19.45,19.45,0,0,1-7.871-6.944,31.955,31.955,0,0,1-3.552-7.775h-.864c-.511.352-.7.512-1.312.9a11.785,11.785,0,0,1,2.848,4.672,12.394,12.394,0,0,1,.865,4.959c0,4-1.344,5.248-5.6,5.248-.385,0-.928-.032-1.664-.064a8.263,8.263,0,0,0-1.217-3.392,20.9,20.9,0,0,0,2.721.256c2.047,0,2.4-.384,2.4-2.56a2.3,2.3,0,0,0-.064-.608,48.892,48.892,0,0,1-12.639,5.6,9.08,9.08,0,0,0-1.857-2.878,45.947,45.947,0,0,0,13.887-5.441c-.192-.544-.256-.7-.448-1.151a47.378,47.378,0,0,1-11.424,4.384,8.808,8.808,0,0,0-1.566-2.624,44.447,44.447,0,0,0,11.775-3.936,9.76,9.76,0,0,0-.736-.96,39.508,39.508,0,0,1-9.473,3.071,8.343,8.343,0,0,0-1.535-2.687,37.731,37.731,0,0,0,10.047-2.784h-4.127c-1.279,0-2.08.032-3.136.1a19.583,19.583,0,0,0,.128-2.816v-2.367a21.885,21.885,0,0,1-2.175,1.279,9.16,9.16,0,0,0-1.569-2.976,23.25,23.25,0,0,0,5.985-3.743,17.03,17.03,0,0,0,3.486-3.871l3.937.639-1.216,1.409h5.183c1.088,0,2.721-.065,3.073-.128l1.791,1.631c-.288.32-.416.416-.768.832-.863.863-1.344,1.344-2.3,2.208h4.832a28.967,28.967,0,0,0,3.36-.129,25.29,25.29,0,0,0-.127,2.816v2.4a23.861,23.861,0,0,0,.127,2.816c-.832-.064-1.662-.1-3.008-.1Zm-6.558-2.944v-2.048h-6.5v2.048Zm1.568-4.863a14.485,14.485,0,0,0,1.856-1.92h-7.264a21.284,21.284,0,0,1-2.176,1.92Zm8.67,4.863v-2.048h-6.943v2.048Z"/><path d="M568.23,682.471a32.193,32.193,0,0,0-3.839.192v-3.519a28.354,28.354,0,0,0,3.9.191h7.3v-2.783h-4.8a34.952,34.952,0,0,0-3.646.128v-3.36a26.977,26.977,0,0,0,3.775.192h4.672v-.544a17.212,17.212,0,0,0-.192-2.815h3.9a13.624,13.624,0,0,0-.192,2.815v.544h2.3A25.41,25.41,0,0,0,585,673.32v2.751a22.738,22.738,0,0,0,3.713-4.863l3.168,2.081q-.337.334-1.439,1.631a46.808,46.808,0,0,1-4.354,4.415h3.3a27.324,27.324,0,0,0,3.648-.191v3.519a33.429,33.429,0,0,0-3.968-.192h-6.879c-1.217.864-2.016,1.408-3.457,2.336.7-.033,1.759-.033,2.591-.033h4.7c1.536,0,2.432-.031,3.36-.1a30.689,30.689,0,0,0-.129,3.488v7.9a24.841,24.841,0,0,0,.193,3.616h-3.713V698.31H574.117v1.376h-3.742a29.936,29.936,0,0,0,.191-3.616v-4.96c0-.511,0-1.215.032-1.792-1.952.96-2.623,1.248-5.088,2.241a11.674,11.674,0,0,0-1.887-3.2,53.163,53.163,0,0,0,13.182-5.887Zm5.887,7.584H585.7v-2.368H574.117Zm0,5.247H585.7v-2.464H574.117Zm7.233-15.967a31.654,31.654,0,0,0,3.072-2.688c-.865-.064-1.408-.1-2.69-.1h-2.623v2.783Z"/><rect class="cls-1" x="426.163" y="660.966" width="177" height="64"/><g class="cls-12"><path class="cls-9" d="M186.782,352.1c0,.45-.09,1.349-.27,2.88,4.05-2.97,8.73-4.321,14.58-4.321,8.01,0,14.579,2.521,19.348,7.38,4.5,4.59,6.75,10.44,6.75,18,0,17.279-11.339,27.539-30.419,27.539-11.339,0-20.249-3.87-25.468-11.069-2.071-2.79-3.151-5.4-4.5-10.08l18.09-2.789c1.529,5.939,5.309,8.729,11.789,8.729,7.559,0,12.6-4.77,12.6-11.969s-4.86-11.88-12.42-11.88c-5.67,0-9.359,2.25-11.339,6.66l-16.739-1.62c.36-2.7.63-4.86.9-7.38l2.429-28.078c.181-1.891.271-4.051.361-7.47,3.78.18,4.679.18,9,.18h26.908a111.02,111.02,0,0,0,14.849-.63v15.749a145.749,145.749,0,0,0-14.668-.63h-20.88Z"/><path class="cls-9" d="M281.551,326.807l-32.31,87.746H233.133l32.4-87.746Z"/><path class="cls-9" d="M295.951,326.177a58.66,58.66,0,0,0,10.8.63h11.43a89.02,89.02,0,0,0,11.159-.361,140.005,140.005,0,0,0-.63,14.49v47.158a104.355,104.355,0,0,0,.72,13.59H309.811a103.292,103.292,0,0,0,.72-13.59V342.2h-3.6a95.188,95.188,0,0,0-10.98.63Z"/><path class="cls-9" d="M366.454,407.694a41.385,41.385,0,0,1-5.3-9.5,38.023,38.023,0,0,1-2.9-14.9,39.091,39.091,0,0,1,1.95-12.451c1.35-4.151,2.8-6.9,6.25-11.851l5.3,3.4c-2.9,4.2-4.1,6.45-5.2,9.95a34.571,34.571,0,0,0-1.7,11.051,35.777,35.777,0,0,0,1.6,10.85c1.1,3.4,2.3,5.651,5.2,9.9Z"/><path class="cls-9" d="M390.254,375.292a35.034,35.034,0,0,0-4.9.25v-2.4a53.83,53.83,0,0,1-8.151,4.1,22.214,22.214,0,0,0-2.9-5.15c9.3-3.25,16.8-8.651,20.4-14.651h6.2a29.576,29.576,0,0,0,7.7,7.7,41.44,41.44,0,0,0,13.251,6.75,25.506,25.506,0,0,0-2.7,5.5,51.1,51.1,0,0,1-8.751-4.4v2.55a34.175,34.175,0,0,0-4.9-.25h-5.1v4.851h12.651a35.673,35.673,0,0,0,5.45-.3v5.55a39.478,39.478,0,0,0-5.5-.3h-12.6v11.2h13.6a46.841,46.841,0,0,0,5.9-.3v5.751a46.124,46.124,0,0,0-6-.35H382.3a49.287,49.287,0,0,0-6.2.35v-5.751a54.016,54.016,0,0,0,6.2.3h12.55v-11.2H383a40.906,40.906,0,0,0-5.4.3v-5.55a37.034,37.034,0,0,0,5.45.3h11.8v-4.851Zm-3.55,10.251a57.947,57.947,0,0,1,4,8.3l-5,2a36.4,36.4,0,0,0-3.95-8.3Zm3.4-14.951,15.5.05c.45,0,.45,0,1.2-.05a39.413,39.413,0,0,1-9-8.4,35.265,35.265,0,0,1-8.751,8.4Zm23.9,17c-.651,1.15-.651,1.15-2.5,4.8-.151.3-.351.649-2.051,3.549l-4.7-1.75a41.779,41.779,0,0,0,3.95-8.6Z"/><path class="cls-9" d="M424.253,404.144c2.9-4.25,4.1-6.5,5.2-9.9a35.741,35.741,0,0,0,1.6-10.85,34.571,34.571,0,0,0-1.7-11.051c-1.1-3.5-2.3-5.75-5.2-9.95l5.3-3.4c3.45,4.95,4.9,7.7,6.3,11.851a40.564,40.564,0,0,1,1.9,12.451,38.733,38.733,0,0,1-2.85,14.9,43.817,43.817,0,0,1-5.351,9.5Z"/><path class="cls-9" d="M501.557,372.792c-3.3,3.7-5.2,5.2-8.2,6.6a18.577,18.577,0,0,1-7.9,1.8c-3.2,0-6.7-.8-12.2-2.9-5.2-2-7.5-2.6-9.8-2.6-3.8,0-6.4,1.3-10,5l-7.6-9.8c3.4-3.7,5.2-5.2,8.2-6.5a19.571,19.571,0,0,1,7.6-1.8c3.3,0,6.4.8,12.5,3.2,4.5,1.7,7.3,2.4,9.7,2.4,3.9,0,6.4-1.3,10.1-5Z"/><path class="cls-9" d="M528.812,352.1c0,.45-.089,1.349-.27,2.88,4.05-2.97,8.729-4.321,14.58-4.321,8.01,0,14.579,2.521,19.349,7.38,4.5,4.59,6.75,10.44,6.75,18,0,17.279-11.34,27.539-30.419,27.539-11.34,0-20.249-3.87-25.469-11.069-2.07-2.79-3.15-5.4-4.5-10.08l18.09-2.789c1.529,5.939,5.309,8.729,11.789,8.729,7.559,0,12.6-4.77,12.6-11.969s-4.861-11.88-12.42-11.88c-5.67,0-9.36,2.25-11.339,6.66l-16.74-1.62c.36-2.7.63-4.86.9-7.38l2.43-28.078c.18-1.891.27-4.051.36-7.47,3.78.18,4.68.18,9,.18h26.908a111.047,111.047,0,0,0,14.85-.63v15.749a145.77,145.77,0,0,0-14.669-.63h-20.88Z"/><path class="cls-9" d="M623.581,326.807l-32.31,87.746H575.162l32.4-87.746Z"/><path class="cls-9" d="M647.343,378.824c.54,2.97,1.079,4.23,2.519,5.76,2.43,2.52,6.03,3.87,10.35,3.87,7.019,0,11.43-3.51,11.43-9,0-3.689-1.8-6.569-4.861-7.739a25.9,25.9,0,0,0-8.369-1.17c-3.51,0-7.559.18-11.069.54v-15.48a79.025,79.025,0,0,0,9.539.541c8.55,0,12.779-2.88,12.779-8.64,0-4.86-3.42-7.65-9.359-7.65-6.39,0-9.63,2.52-10.98,8.28l-19.439-2.79c1.71-5.58,3.15-8.28,6.03-11.43,5.489-5.939,13.77-9,24.749-9,9.81,0,17.909,2.7,23.039,7.649a17.434,17.434,0,0,1,5.039,12.78c0,9.54-5.129,15.479-15.478,17.909,5.489.81,8.459,2.07,11.609,4.769a17.729,17.729,0,0,1,5.94,13.321,20.068,20.068,0,0,1-3.6,11.968,22.545,22.545,0,0,1-8.46,6.75c-4.68,2.161-11.97,3.51-18.719,3.51-8.1,0-16.2-1.889-20.97-5.04a24.363,24.363,0,0,1-9.269-11.609,33.58,33.58,0,0,1-1.53-4.77Z"/><path class="cls-9" d="M707.552,326.177a58.66,58.66,0,0,0,10.8.63h11.429a89,89,0,0,0,11.159-.361,140.027,140.027,0,0,0-.629,14.49v47.158a104.366,104.366,0,0,0,.719,13.59H721.411a103.28,103.28,0,0,0,.721-13.59V342.2h-3.6a95.171,95.171,0,0,0-10.979.63Z"/><path class="cls-9" d="M778.055,407.694a41.355,41.355,0,0,1-5.3-9.5,38.04,38.04,0,0,1-2.9-14.9,39.092,39.092,0,0,1,1.951-12.451c1.349-4.151,2.8-6.9,6.25-11.851l5.3,3.4c-2.9,4.2-4.1,6.45-5.2,9.95a34.571,34.571,0,0,0-1.7,11.051,35.746,35.746,0,0,0,1.6,10.85c1.1,3.4,2.3,5.651,5.2,9.9Z"/><path class="cls-9" d="M792.2,364.392c0-1.951-.1-3.7-.25-5.351a44.166,44.166,0,0,0,5.551.25h24.2a40.233,40.233,0,0,0,5.4-.25,45.431,45.431,0,0,0-.25,5.1v32.3a50.435,50.435,0,0,0,.3,6.051h-6.051v-3H797.854v3H791.9a52.474,52.474,0,0,0,.3-6.051Zm5.651,11.8h23.251v-11.6H797.854Zm0,18.051h23.251v-12.8H797.854Z"/><path class="cls-9" d="M835.854,404.144c2.9-4.25,4.1-6.5,5.2-9.9a35.741,35.741,0,0,0,1.6-10.85,34.544,34.544,0,0,0-1.7-11.051c-1.1-3.5-2.3-5.75-5.2-9.95l5.3-3.4c3.451,4.95,4.9,7.7,6.3,11.851a40.564,40.564,0,0,1,1.9,12.451,38.733,38.733,0,0,1-2.85,14.9,43.775,43.775,0,0,1-5.351,9.5Z"/></g><g class="cls-20"><g class="cls-21"><g class="cls-12"><path class="cls-22" d="M931.347,315.919l-36.216-1.529a3.338,3.338,0,0,0-3.346,2.739l-4.72,29.8a12.753,12.753,0,0,0-4.612-1.682c-6.132-.971-11.78,2.5-12.613,7.76s3.466,10.307,9.6,11.278,11.78-2.5,12.612-7.76l4.639-29.288,29.079,1.228-3.3,20.821a12.719,12.719,0,0,0-4.612-1.684c-6.132-.971-11.78,2.5-12.613,7.76s3.466,10.307,9.6,11.278,11.78-2.5,12.613-7.76l6.331-39.975a2.528,2.528,0,0,0-2.44-2.983"/></g></g></g><path class="cls-9" d="M323.762,523.263a39.808,39.808,0,0,0-5.823-.287H305.8c-2.3,0-3.732.041-5.207.123a32.531,32.531,0,0,0,.328-5.412V496.408a40,40,0,0,0-.328-6.069h6.191a37.407,37.407,0,0,0-.328,6.028v21.648h11.479a43.276,43.276,0,0,0,5.823-.287Z"/><path class="cls-9" d="M333.191,490.339a30.639,30.639,0,0,0-.328,5.289v22.059a30.942,30.942,0,0,0,.328,5.289h-6.232a30.942,30.942,0,0,0,.328-5.289V495.628a30.639,30.639,0,0,0-.328-5.289Z"/><path class="cls-9" d="M360.334,522.976a41.115,41.115,0,0,0-2.624-4.388L347.132,502.64c-.779-1.23-1.805-2.993-2.788-4.921.041.574.041.574.164,2.092.041.778.123,2.624.123,3.566v13.449a45.378,45.378,0,0,0,.328,6.15h-5.986a44.359,44.359,0,0,0,.328-6.191V495.628a34.17,34.17,0,0,0-.328-5.289h6.395a22.541,22.541,0,0,0,2.5,4.347l10.374,15.621c.984,1.476,2.3,3.608,3.2,5.248-.164-1.6-.287-4.059-.287-5.781V496a36.007,36.007,0,0,0-.327-5.659h5.986a35.731,35.731,0,0,0-.329,5.659v21.689a30.817,30.817,0,0,0,.329,5.289Z"/><path class="cls-9" d="M395.921,523.263a35.249,35.249,0,0,0-5.289-.287H377.84c-2.46,0-3.568.041-5.207.123a33.172,33.172,0,0,0,.328-5.412V495.505a36.29,36.29,0,0,0-.328-5.289c1.639.082,2.706.123,5.207.123h12.382a43.817,43.817,0,0,0,5.289-.287v5.412a36.718,36.718,0,0,0-5.289-.287H378.414v8.447h9.963a42.471,42.471,0,0,0,5.33-.288v5.372a32.009,32.009,0,0,0-5.33-.288h-10V518.1h12.3a39.211,39.211,0,0,0,5.248-.287Z"/><path class="cls-9" d="M416.134,490.832a6,6,0,0,0-.369.615,3.6,3.6,0,0,1-.2.41,6.261,6.261,0,0,0-.534,1.065,47.64,47.64,0,0,1-6.805,10.045,42.755,42.755,0,0,1-6.315,5.905,19.027,19.027,0,0,0-3.115-4.264,32.668,32.668,0,0,0,10.127-10.578,15.439,15.439,0,0,0,2.173-5.084Zm14.8,34.973c-1.025-2.214-1.394-2.911-2.132-4.3a213.435,213.435,0,0,1-22.181,2.255,30.369,30.369,0,0,0-4.8.451l-.819-5.248c.9.082,1.845.123,2.993.123.942,0,1.189,0,2.337-.041a107.819,107.819,0,0,0,6.026-12.136,32.95,32.95,0,0,0,2.379-7.052l5.411,1.394c-.245.492-.409.82-.819,1.8a129.177,129.177,0,0,1-7.667,15.785,126.591,126.591,0,0,0,14.842-1.352,61.158,61.158,0,0,0-5.207-7.3l4.018-2.255a105.159,105.159,0,0,1,10.045,15.293Zm-5.986-36.9a26.471,26.471,0,0,0,4.551,8.077,33.968,33.968,0,0,0,4.51,4.633,40.161,40.161,0,0,0,3.895,2.788,20.658,20.658,0,0,0-3.034,4.51c-4.674-3.731-6.889-5.905-9.472-9.471a42.577,42.577,0,0,1-3.771-6.192c-.082-.2-.246-.492-.451-.942a7.208,7.208,0,0,0-.41-.82l-.329-.656Z"/><path class="cls-9" d="M473.616,495.136a19.908,19.908,0,0,0,3.977-.245v4.592a35.955,35.955,0,0,0-4.8-.246H466.81c.369,7.134,1.271,12.013,2.87,15.785a13.348,13.348,0,0,0,2.46,4.059,3.012,3.012,0,0,0,.943.738c.492,0,.984-1.968,1.517-6.233a18.347,18.347,0,0,0,3.895,2.3c-.615,3.936-1.312,6.232-2.337,7.708a3.528,3.528,0,0,1-2.829,1.722c-1.558,0-3.649-1.558-5.453-3.978-2.091-2.91-3.649-7.051-4.551-12.34a64.319,64.319,0,0,1-.984-9.758h-16.4a43.035,43.035,0,0,0-4.8.246v-4.592a37.9,37.9,0,0,0,4.8.245h16.237c-.123-2.132-.123-2.132-.123-3.361a23.635,23.635,0,0,0-.246-3.2h4.961a28.114,28.114,0,0,0-.165,3.321c0,.7,0,1.886.042,3.238h4.838a25.261,25.261,0,0,0-3.895-4.838l3.567-1.68a36.341,36.341,0,0,1,4.059,4.632l-3.321,1.886Zm-26.855,13.12a39.85,39.85,0,0,0-4.141.205v-4.345a36.431,36.431,0,0,0,4.223.205h9.922a34.86,34.86,0,0,0,4.141-.205v4.345a39.615,39.615,0,0,0-4.1-.205h-2.829v9.308c2.87-.574,4.469-.9,8.405-1.886v4.182c-6.929,1.681-13.407,2.993-18.9,3.813-.369.082-.819.163-1.516.286l-.738-4.632a58.324,58.324,0,0,0,8.241-.943V508.256Z"/><path class="cls-9" d="M501.537,499.4a18.8,18.8,0,0,0-.164,3.321c-.164,7.011-1.271,10.946-4.06,14.514-2.459,3.157-5.453,5.248-10.578,7.38a14.455,14.455,0,0,0-3.238-4.674,18.912,18.912,0,0,0,7.175-3.485c4.182-3.321,5.494-6.847,5.494-14.6a10.372,10.372,0,0,0-.2-2.46Zm16.646-5.166a11.352,11.352,0,0,0-1.64,2.87,26.045,26.045,0,0,1-6.314,8.241,25.645,25.645,0,0,1-4.92,3.4,13.857,13.857,0,0,0-3.69-3.731,19.013,19.013,0,0,0,5.985-3.772,17,17,0,0,0,3.9-5.207H489.975a39.426,39.426,0,0,0-5.577.246V491.16a32.707,32.707,0,0,0,5.659.328h21.4a11.287,11.287,0,0,0,3.977-.369Z"/><path class="cls-9" d="M557.01,498.252a6.413,6.413,0,0,0-.451,2.748c-.123,4.632-.574,10.947-.984,13.653-1.066,7.093-2.5,8.774-7.421,8.774a31.27,31.27,0,0,1-5.084-.451,12.392,12.392,0,0,0-.943-5.248,21.247,21.247,0,0,0,5.412.942c1.763,0,2.378-.9,3.034-4.468a92.2,92.2,0,0,0,.9-13.12l-9.553.041c-.574,5.125-1.436,8.2-3.28,11.726-2.255,4.346-5.905,8.077-11.071,11.357a16.128,16.128,0,0,0-3.689-4.346c5.125-2.706,8.487-5.945,10.66-10.332a21.063,21.063,0,0,0,2.091-7.134c.082-.574.164-.984.2-1.271l-6.807.041a29.1,29.1,0,0,0-4.427.205l-.042-5.043a23.527,23.527,0,0,0,4.551.328l7.176-.041c.123-1.559.205-3.937.205-5.125v-1.026a7.95,7.95,0,0,0-.123-1.6l5.494.123a11.909,11.909,0,0,0-.164,1.27c0,.246-.041.493-.041.78-.082.861-.082.861-.164,2.993-.041.9-.041,1.27-.164,2.583l9.1-.041a8.276,8.276,0,0,0,3.239-.369Z"/><path class="cls-9" d="M598.584,497.515a6.52,6.52,0,0,0-.615,2.255,34.444,34.444,0,0,1-2.583,9.922,24.007,24.007,0,0,1-10.127,11.316,37.172,37.172,0,0,1-8.159,3.69,15.015,15.015,0,0,0-3.281-4.879,26.983,26.983,0,0,0,8.734-3.4c5.945-3.69,9.061-8.9,9.84-16.441H572.385v5.289c0,1.271.041,2.378.123,3.279h-5.494a30.472,30.472,0,0,0,.205-3.443v-5.945a33.645,33.645,0,0,0-.164-3.9,31.876,31.876,0,0,0,4.427.2h8.037v-3.525a15.692,15.692,0,0,0-.206-2.993h5.7a18.752,18.752,0,0,0-.205,2.952v3.525h7.38c3.034,0,3.034,0,4.018-.328Z"/><path class="cls-9" d="M607.727,517.564a39.1,39.1,0,0,0,12.136-3.034,27.393,27.393,0,0,0,12.177-10.045,34.236,34.236,0,0,0,4.182-8.2,17.676,17.676,0,0,0,4.346,4.017c-3.485,7.5-7.38,12.342-13,16.073a44.3,44.3,0,0,1-15.621,6.15,14.514,14.514,0,0,0-2.706.7Zm3.485-25.461a58.022,58.022,0,0,1,10.578,7.913l-3.526,4.469a43.041,43.041,0,0,0-10.455-8.323Z"/><path class="cls-9" d="M654.672,524.329a27.62,27.62,0,0,0,.246-4.592V493.456a26.345,26.345,0,0,0-.246-4.182h5.617a27.477,27.477,0,0,0-.164,4.305v7.626a120.361,120.361,0,0,1,18.614,8.651l-2.87,4.838a96.973,96.973,0,0,0-14.515-7.831,13.3,13.3,0,0,1-1.393-.7,21.2,21.2,0,0,1,.164,2.788v10.824a45.073,45.073,0,0,0,.164,4.551Z"/><path class="cls-9" d="M690.67,523.755c-.041-.738-.082-.984-.2-1.927a71.531,71.531,0,0,1-1.067-12.259,78.716,78.716,0,0,1,1.682-16.031,26.914,26.914,0,0,0,.614-3.814l5.412.574a56.659,56.659,0,0,0-2.583,12.26,68.451,68.451,0,0,0-.614,9.061c0,.9-.041,1.23-.082,2.255a41.54,41.54,0,0,1,2.132-5.413l3.279,1.477c-2.255,4.756-3.648,9.512-3.648,12.423,0,.246,0,.574.041,1.107Zm17.466-16.195c-2.05,2.378-2.911,4.141-2.911,5.9,0,2.338,2.254,3.568,6.519,3.568a28.813,28.813,0,0,0,9.758-1.558l.41,5.207a13.74,13.74,0,0,0-1.682.246,50.645,50.645,0,0,1-8.486.779c-5.084,0-8.364-1.148-10.168-3.567a6.868,6.868,0,0,1-1.23-4.018c0-2.665,1.23-5.412,3.772-8.447Zm-6.765-13.571a29.562,29.562,0,0,0,7.585.656,45.212,45.212,0,0,0,11.152-1.107l.246,4.961c-.328.041-.943.123-2.911.369a73.439,73.439,0,0,1-8.774.492,48.671,48.671,0,0,1-7.38-.451Z"/><path class="cls-9" d="M232.865,555.25a49.489,49.489,0,0,0-5.043.247v-4.51a44.554,44.554,0,0,0,4.961.246h27.061a48.325,48.325,0,0,0,5.043-.246v4.51a48.077,48.077,0,0,0-5-.247H248.322v3.65h4.88a25.031,25.031,0,0,0,3.361-.164,21.658,21.658,0,0,0-.164,3.075v14.678a19.32,19.32,0,0,0,.164,3.034,26.389,26.389,0,0,0-3.607-.164H239.713a27.038,27.038,0,0,0-3.691.164,20.189,20.189,0,0,0,.165-3.034V561.811a22.619,22.619,0,0,0-.165-3.075,25.073,25.073,0,0,0,3.363.164h4.756v-3.65Zm31.078,4.265a43.322,43.322,0,0,0-.245,4.592v18.368a44.74,44.74,0,0,0,.286,5.494h-4.755v-1.927H233.357v1.927h-4.673a53.766,53.766,0,0,0,.246-5.453v-18.45a40.107,40.107,0,0,0-.246-4.551h4.755a26.334,26.334,0,0,0-.164,3.649v18.9h26.077V563.082a20.954,20.954,0,0,0-.206-3.567Zm-23.779,3.2v4.306h3.977v-4.306Zm0,8v5h3.977v-5Zm8.158-3.69h4.142v-4.306h-4.142Zm0,8.691h4.142v-5h-4.142Z"/><path class="cls-9" d="M280.18,562.261c-.616.451-.78.574-1.559,1.149a11.366,11.366,0,0,0-2.3-3.035v22.51a43.529,43.529,0,0,0,.2,4.961h-4.715a35.656,35.656,0,0,0,.247-4.92V571.733c0-1.436,0-2.214.123-5.248a40.305,40.305,0,0,1-2.871,4.182,25.7,25.7,0,0,0-1.8-4.92,36.334,36.334,0,0,0,6.272-10.866,24.407,24.407,0,0,0,1.477-5.248l4.756,1.067c-2.419,6.559-2.419,6.559-3.691,9.388a31.166,31.166,0,0,0,4.47-3.361,19.867,19.867,0,0,0,5.371-7.053l4.8.739c-.533.861-.533.861-1.149,1.762h5.29c1.476,0,2.459-.041,3.444-.123l1.886,1.723a12.715,12.715,0,0,0-1.312,1.64c-.123.123-.369.451-.82.943-.205.246-.533.614-.9,1.065-.287.328-.369.41-.655.739h4.8c1.517,0,2.337-.041,3.239-.123-.082.943-.123,1.762-.123,3.239v2.993a30.6,30.6,0,0,0,.123,3.32,31.5,31.5,0,0,0-3.239-.123h-3.895a22.3,22.3,0,0,0,1.148,4.306A18.134,18.134,0,0,0,303.181,568l3.362,2.912-.533.451a38.831,38.831,0,0,1-5.453,4.017,18.14,18.14,0,0,0,3.362,4.142,17.07,17.07,0,0,0,3.4,2.46,32.382,32.382,0,0,0-2.215,4.223c-4.181-3.485-6.19-5.863-8.118-9.635a30.084,30.084,0,0,1-2.992-9.1h-1.6c-1.352,1.026-1.475,1.149-2.172,1.6,3.731,3.648,5.822,8.159,5.822,12.587,0,2.788-.656,4.551-1.886,5.371-.943.574-2.461.82-4.921.82-.491,0-1.352,0-2.747-.041a13.738,13.738,0,0,0-1.229-3.895,45.519,45.519,0,0,1-6.52,2.87,12.3,12.3,0,0,0-1.8-3.486,48.257,48.257,0,0,0,14.187-6.641,17.976,17.976,0,0,0-.9-1.763,56.839,56.839,0,0,1-11.44,5.33,13.854,13.854,0,0,0-1.845-3.2,41.347,41.347,0,0,0,11.6-4.592,16.4,16.4,0,0,0-1.354-1.476,39.563,39.563,0,0,1-8.323,3.239,15.235,15.235,0,0,0-1.845-3.116,30.978,30.978,0,0,0,10.127-3.609h-3.812c-1.19,0-2.255.041-3.28.123.082-.9.123-1.721.123-3.033Zm4.1,2.215h5.659v-3.239h-5.659Zm7.544-6.314a23.174,23.174,0,0,0,2.092-2.583H287.4a29.107,29.107,0,0,1-2.337,2.583Zm-6.395,25.666a22.667,22.667,0,0,0,3.771.328c2.338,0,2.747-.533,2.747-3.281,0-.205,0-.45-.041-.942A44.116,44.116,0,0,1,285.428,583.828ZM294,564.476h6.4v-3.239H294Z"/><path class="cls-9" d="M325.32,550.782a68.94,68.94,0,0,0,2.706,12.833c2.665-.985,2.665-.985,10.62-3.609a11.349,11.349,0,0,0,1.558-.614l1.763,5.166a99.949,99.949,0,0,0-13.53,3.936c-5.987,2.214-8.979,4.838-8.979,7.79,0,2.993,2.787,4.264,9.389,4.264,5.125,0,10.168-.615,13.243-1.681l.451,5.617a25.558,25.558,0,0,0-3.321.287,86.645,86.645,0,0,1-9.594.615c-5.7,0-9.267-.7-11.891-2.255a7.759,7.759,0,0,1-3.566-6.847,9.627,9.627,0,0,1,3.648-7.339,25.34,25.34,0,0,1,5.577-3.527,104.348,104.348,0,0,1-2.748-11.11,17.35,17.35,0,0,0-.656-2.665Z"/><path class="cls-9" d="M359.556,582.475a45.819,45.819,0,0,0-5.043.164V577.35a26.353,26.353,0,0,0,5.125.287h18.655V559.76H360.335a40.112,40.112,0,0,0-5.248.205v-5.33a27.559,27.559,0,0,0,5.289.287H380.1c2.132,0,2.132,0,3.567-.082a24.9,24.9,0,0,0-.123,3.4v22.508a27.052,27.052,0,0,0,.2,4.224h-5.494v-2.5Z"/><path class="cls-9" d="M422.941,553.57a25.087,25.087,0,0,0-1.434,2.952c-2.583,6.108-4.182,9.225-5.781,11.6a98.179,98.179,0,0,1,9.143,8.692l-3.936,4.223a60.836,60.836,0,0,0-8.324-8.651,46.953,46.953,0,0,1-6.395,6.847A51.986,51.986,0,0,1,396.455,586a12.7,12.7,0,0,0-3.607-4.263,44.326,44.326,0,0,0,15.826-12.669,73.5,73.5,0,0,0-10.865-7.38l3.608-3.608c2.992,1.762,4.756,2.911,6.765,4.345,3.075,2.215,3.075,2.215,3.4,2.419,2.624-4.3,5.248-10.25,5.78-13.2Z"/><path class="cls-9" d="M435.692,579.564a39.094,39.094,0,0,0,12.137-3.034,27.393,27.393,0,0,0,12.177-10.045,34.236,34.236,0,0,0,4.182-8.2,17.658,17.658,0,0,0,4.346,4.017c-3.485,7.5-7.381,12.342-13,16.073a44.312,44.312,0,0,1-15.621,6.15,14.47,14.47,0,0,0-2.706.7Zm3.486-25.461a58.022,58.022,0,0,1,10.578,7.913l-3.527,4.469a43,43,0,0,0-10.455-8.323Z"/><path class="cls-9" d="M482.638,586.329a27.62,27.62,0,0,0,.246-4.592V555.456a26.345,26.345,0,0,0-.246-4.182h5.617a27.477,27.477,0,0,0-.164,4.3v7.626a120.361,120.361,0,0,1,18.614,8.651l-2.87,4.838a96.973,96.973,0,0,0-14.515-7.831,13.3,13.3,0,0,1-1.393-.7,21.2,21.2,0,0,1,.164,2.788v10.824a45.073,45.073,0,0,0,.164,4.551Z"/><path class="cls-9" d="M517.364,555c1.682.37,4.306.534,9.513.534a16.272,16.272,0,0,0,1.64-5.084l5.371.574a31.339,31.339,0,0,0-1.64,3.689c-.205.451-.287.575-.369.739.328-.041.328-.041,2.583-.164A55.559,55.559,0,0,0,545.2,553.9l.287,4.674c-1.148.082-1.148.082-3.239.328-2.993.369-8.2.7-12.342.819a21.18,21.18,0,0,1-3.771,5.453l.041.082c.287-.205.287-.205.82-.614a9.909,9.909,0,0,1,5.78-1.846c3.2,0,5.207,1.518,5.864,4.347q4.736-1.722,6.273-2.215a12.782,12.782,0,0,0,3.034-1.229l1.927,4.715a36.15,36.15,0,0,0-4.551,1.107q-.861.246-6.15,2.091v.451c.041,1.065.041,1.065.041,1.64v1.639c-.041.7-.041,1.067-.041,1.354a16.845,16.845,0,0,0,.123,2.173l-4.756.123a32.468,32.468,0,0,0,.246-4.756v-.984a24.971,24.971,0,0,0-3.936,2.131c-1.435,1.067-2.132,2.174-2.132,3.363,0,2.131,1.967,2.993,6.928,2.993a35.628,35.628,0,0,0,12.055-1.722l.41,5.289a12.081,12.081,0,0,0-1.886.164,74.528,74.528,0,0,1-10.5.738c-4.345,0-7.051-.492-9.142-1.722A5.944,5.944,0,0,1,523.6,579.2a6.537,6.537,0,0,1,1.8-4.551c1.845-2.3,4.183-3.854,8.816-5.781a2.251,2.251,0,0,0-2.5-2.214c-2.378,0-5.248,1.434-8.405,4.223a18.471,18.471,0,0,0-3.568,3.731l-3.73-3.69a25.169,25.169,0,0,0,3.689-3.649,54.111,54.111,0,0,0,4.92-7.012,2.006,2.006,0,0,1,.328-.533c-.164,0-.7.041-.7.041-.656,0-4.265-.082-5.166-.082-.779-.041-.779-.041-1.149-.041a4.53,4.53,0,0,0-.656.041Z"/><path class="cls-9" d="M582.309,582.844a35,35,0,0,0,4.386.2c2.542,0,4.634-.082,6.807-.287a17.733,17.733,0,0,0-1.066,4.346c-1.394.041-2.953.041-4.141.041-5.863,0-9.1-.492-11.6-1.722A14.877,14.877,0,0,1,572.1,581.7a26.766,26.766,0,0,1-4.305,6.355,14.979,14.979,0,0,0-3.116-2.829c-.41,1.886-1.518,2.46-4.8,2.46-.9,0-1.928-.041-3.4-.123a12.222,12.222,0,0,0-.944-4.224,33.03,33.03,0,0,0,3.486.247c1.189,0,1.434-.206,1.434-1.23v-9.226c-.942.37-1.434.534-2.214.78-.983.369-1.557.574-2.132.82l-.656-4.552a27.326,27.326,0,0,0,5-1.311v-7.3h-1.763a25.609,25.609,0,0,0-2.952.164v-4.388a14.456,14.456,0,0,0,3.034.246h1.681v-3.239a22.8,22.8,0,0,0-.245-4.181h4.879a22.21,22.21,0,0,0-.246,4.141v3.279H566.2c1.682-.041,1.682-.041,1.764-.041a2.264,2.264,0,0,1,.368-.041,1.86,1.86,0,0,1,.328-.082v4.265a22.7,22.7,0,0,0-2.419-.123h-1.393v5.74c1.516-.574,1.927-.738,3.566-1.476v1.8a26.149,26.149,0,0,0,3.4.164h17.057a24.136,24.136,0,0,0,3.772-.205v4.183a25.446,25.446,0,0,0-3.772-.205h-6.56v3.4h5.125a21.554,21.554,0,0,0,3.649-.2v3.977a22.457,22.457,0,0,0-3.649-.205h-5.125Zm-7.339-8.9c-.123.328-.287.82-.739,2.378-.164.533-.287.9-.492,1.6a10.118,10.118,0,0,0,4.306,3.855V571.569H571.4a21.83,21.83,0,0,0-3.157.164v-1.681c-1.393.615-1.845.82-3.4,1.435v12.177a9.279,9.279,0,0,1-.041,1.025,17.478,17.478,0,0,0,3.566-4.51,19.837,19.837,0,0,0,2.338-7.258Zm-1.436-8.159c-1.639,0-2.3,0-3.443.082q.061-.924.123-4.182v-6.479c0-1.6-.041-2.829-.123-3.853a38.578,38.578,0,0,0,3.976.164h12.219a35.8,35.8,0,0,0,3.936-.164,23,23,0,0,0-.2,3.689v6.766c0,1.517,0,1.64.164,4.1-1.066-.082-2.378-.123-4.059-.123Zm.862-8.816h11.439v-1.886H574.4Zm0,5.33h11.439v-1.968H574.4Z"/><path class="cls-9" d="M612.689,554.308a24.607,24.607,0,0,0-.246-4.059h5.125a26.377,26.377,0,0,0-.246,4.059v8.979H626.1V556.6a24.611,24.611,0,0,0-.164-3.239h4.92a23.416,23.416,0,0,0-.206,3.566v8.159a22.189,22.189,0,0,0,.124,2.624c-.9-.082-1.886-.123-2.871-.123H617.322V581.04H627.45v-6.806a21.811,21.811,0,0,0-.205-3.485h4.961a32.767,32.767,0,0,0-.205,3.895V583.5a25.89,25.89,0,0,0,.246,4.1h-4.8v-2.132h-24.4V587.6h-4.8a29.747,29.747,0,0,0,.246-4.1v-8.692a34.064,34.064,0,0,0-.205-3.936h4.961a20.251,20.251,0,0,0-.205,3.526v6.642h9.634V567.591H602.85c-1.108,0-1.968.041-2.953.123.082-.9.124-1.68.124-2.624v-8.118a22.81,22.81,0,0,0-.206-3.607h4.92a24.107,24.107,0,0,0-.164,3.28v6.642h8.118Z"/><path class="cls-9" d="M649.877,551.806a37.51,37.51,0,0,0-.492,5.535c-.164,3.814-.41,12.137-.41,15.048,0,3.895.246,5.371,1.066,6.6.942,1.353,2.91,2.132,5.493,2.132,4.429,0,8-2.5,9.923-7.011a27.528,27.528,0,0,0,1.886-6.888,17.678,17.678,0,0,0,4.961,3.156c-1.64,5.536-2.87,8.2-4.879,10.455-3.075,3.486-7.134,5.208-12.3,5.208a13.373,13.373,0,0,1-7.176-1.8c-2.829-1.886-4.017-5.043-4.017-10.537,0-2.132.082-6.233.328-16.524.041-1.229.041-2.091.041-2.665a20.41,20.41,0,0,0-.164-2.788Z"/><path class="cls-9" d="M677.962,555.989c.9.041,1.352.041,1.558.041.738,0,.738,0,6.765-.41,2.3-.123,9.1-.493,20.459-1.026a23.281,23.281,0,0,0,4.715-.409l.287,5.248a6.348,6.348,0,0,0-.861-.041,18.323,18.323,0,0,0-8.118,2.214c-5.207,2.706-8.283,6.806-8.283,10.947,0,3.2,2.01,5.657,5.454,6.683a24.881,24.881,0,0,0,6.109,1.066c.041,0,.41,0,.82-.041l-.738,5.575a8.837,8.837,0,0,0-1.394-.245c-4.51-.574-7.093-1.312-9.594-2.706A10.972,10.972,0,0,1,689.277,573a14.455,14.455,0,0,1,3.9-9.675,18.059,18.059,0,0,1,5.7-4.1c-3.321.491-4.92.614-13.817,1.271a59.515,59.515,0,0,0-6.806.82Z"/><path class="cls-9" d="M718.306,558.162c.656.041.943.041,1.271.041.984,0,3.238-.123,5.289-.287.081-2.419.081-3.076.081-4.879,0-1.067,0-1.354-.04-2.3l5.166.082c-.246,1.147-.246,1.147-.492,6.682a2.675,2.675,0,0,0,.614-.164l1.518,1.764a15.646,15.646,0,0,0-2.3,2.46l-.123,2.87A27.148,27.148,0,0,1,732.9,561.4c4.429-3.2,6.848-4.224,9.964-4.224,5.986,0,9.348,4.921,9.348,13.736a29.833,29.833,0,0,1-.533,5.9c.615.41.9.656,2.706,2.009a7.328,7.328,0,0,1,.779.656c.164.123.205.164.492.369l-1.927,4.92a22.439,22.439,0,0,0-3.69-3.4,6,6,0,0,1-1.886,2.46,10.581,10.581,0,0,1-6.355,2.008c-4.715,0-7.913-2.542-7.913-6.313,0-3.731,3.116-6.273,7.626-6.273a13.662,13.662,0,0,1,5.617,1.23,16.22,16.22,0,0,0,.328-3.485c0-6.069-1.722-9.061-5.207-9.061-1.886,0-3.854.819-6.643,2.788a52.455,52.455,0,0,0-6.272,5.33c0,12.054.041,14.35.328,16.646h-5.371c.2-1.517.2-1.517.246-11.235.041-.614.041-.86.082-1.516-.41.533-1.23,1.516-2.174,2.542-1.926,2.132-2.255,2.542-2.91,3.362l-2.461-4.8c.944-.574,2.01-1.558,7.545-7.012,0-2.542,0-2.542.123-5.9-4.962.368-4.962.368-6.191.614Zm23.329,19.106c-1.927,0-3.281.983-3.281,2.378,0,1.229,1.436,2.132,3.363,2.132a5.654,5.654,0,0,0,2.624-.656,4.124,4.124,0,0,0,1.639-1.8,2.151,2.151,0,0,0,.247-.533A8.032,8.032,0,0,0,741.635,577.268Z"/><path class="cls-9" d="M774.845,576.243c.041-.862.082-1.271.082-1.763,0-.451,0-.451-.123-2.911l-.575-13.941c-.082-1.8-.205-3.853-.369-5h6.725c-.123,1.108-.287,3.24-.369,5l-.574,13.941c-.082,2.378-.082,2.378-.082,2.952a14.652,14.652,0,0,0,.082,1.722Zm-.574,8.979v-5.617h5.945v5.617Z"/><rect class="cls-1" width="1024" height="1024"/><g class="cls-23"><g class="cls-24"><g class="cls-23"><path class="cls-25" d="M338.823,921.6H280.645c-16.063,0-34.544,10.6-34.544,26.665V970.08H372.155V948.263c0-16.067-17.26-26.665-33.332-26.665"/><polygon class="cls-26" points="309.128 921.196 279.127 924.109 309.128 963.114 334.479 924.109 309.128 921.196"/><path class="cls-27" d="M309.123,970.08h43.639c19.393-16.968,24.644-31.513,24.644-31.513s-16.159-16.969-47.377-22.525c0,5.934,4.8,15.185,4.8,15.185l-25.7,31.882Z"/><path class="cls-28" d="M363.671,928.416a93.775,93.775,0,0,0-20.15-10c-14.826-4.935-11.514,8.829-11.514,8.829s-18.52,29.254-22.884,35.872c0,0,31.679-26.326,54.548-34.7"/><path class="cls-29" d="M309.128,963.116s35.552-36.26,58.785-40.5c-19.8-16.567-49.089-14.749-49.089-14.749,0,5.93,7.215,9.057,7.215,16.392,0,12.053-12.557,30.074-16.916,36.692Z"/><path class="cls-27" d="M309.123,970.08H265.484c-19.393-16.968-24.644-31.513-24.644-31.513S257,921.6,288.213,916.042c0,5.934-4.79,15.185-4.79,15.185l25.7,31.882Z"/><path class="cls-28" d="M254.576,928.416a93.753,93.753,0,0,1,20.149-10c14.826-4.935,11.514,8.829,11.514,8.829s18.521,29.254,22.884,35.872c0,0-31.678-26.326-54.547-34.7"/><path class="cls-29" d="M309.118,963.116s-35.552-36.26-58.785-40.5c19.8-16.567,49.089-14.749,49.089-14.749,0,5.93-7.214,9.057-7.214,16.392,0,12.053,12.557,30.074,16.915,36.692Z"/><path class="cls-26" d="M292.159,924.107c7.108,5.164,13.536,4.752,16.969,4.752s10.637.412,16.911-4.6l.058-20.067H292.159Z"/><path class="cls-30" d="M292.159,912.655c4.727,5.342,10.594,6.782,16.964,6.782S321.37,918,326.1,912.655V899.07H292.159Z"/><path class="cls-31" d="M353.378,900.988a17.284,17.284,0,0,1-3.568,4.509,130.542,130.542,0,0,1,16.285,4.586,23.273,23.273,0,0,1-3.365-9.09c-.359-2.046-1.9-4-2.22-6.666-.383-3.156-.8-6.754-1.009-10.705-.252-4.611-.586-8.771-.4-14.341,1.4-43.1-30.331-54.446-50.228-54.446s-54.484,9.973-53.083,53.074c.179,5.57.092,10.7-.155,15.305-.214,3.952-.548,7.53-.936,10.691-.325,2.661-.684,5.028-1.043,7.073a82.555,82.555,0,0,1-2.021,9.11s33.482-12.566,57.233-4.644c10.831-3.612,23.664-2.953,34.447-1.174a105.678,105.678,0,0,0,10.065-3.282"/><path class="cls-26" d="M308.863,815.247c-21.987,0-39.809,22.927-39.809,51.212a62.15,62.15,0,0,0,2.758,18.447c.238.762.481,1.513.742,2.25a53.675,53.675,0,0,0,4.194,9.013A48.329,48.329,0,0,0,280,901.017c7.253,9.5,17.488,15.306,28.867,15.306,21.972,0,39.8-21.584,39.8-49.864s-17.827-51.212-39.8-51.212"/><path class="cls-13" d="M299.507,864.063l12.514-17.89-21.149-8.606L271.8,884.906c.238.761.48,1.512.742,2.249l9.435-3.869-5.236,12.882a45.439,45.439,0,0,0,3.248,4.848l33.07-39.93Z"/><path class="cls-32" d="M308.863,904.4c-7.786,0-11.864-3.85-12.3-4.291a3.317,3.317,0,0,1,4.659-4.722c.17.155,2.671,2.381,7.641,2.381,5.032,0,7.539-2.294,7.641-2.386a3.341,3.341,0,0,1,4.668.092,3.289,3.289,0,0,1-.019,4.63c-.436.446-4.509,4.3-12.29,4.3"/><path class="cls-33" d="M313.181,889.644h-8.189a2.053,2.053,0,0,1-2.056-2.051v-.741a2.057,2.057,0,0,1,2.056-2.056h8.189a2.06,2.06,0,0,1,2.055,2.056v.741a2.055,2.055,0,0,1-2.055,2.051"/><path class="cls-34" d="M325.481,876.974a4.116,4.116,0,0,1-4.1-4.106v-4.1a4.1,4.1,0,1,1,8.2,0v4.1a4.116,4.116,0,0,1-4.1,4.106m-32.8,0a4.116,4.116,0,0,1-4.1-4.106v-4.1a4.1,4.1,0,0,1,8.208,0v4.1a4.118,4.118,0,0,1-4.107,4.106"/><path class="cls-31" d="M362.123,878.07c.014-5.4.014-6.152.014-11.223a65.85,65.85,0,0,0-5.561-27.567,20.745,20.745,0,0,0,6.036.455,144.931,144.931,0,0,1-11.417-9.667c-11.437-15.854-29.463-22.4-42.131-22.4-18.206,0-47.436,13.28-52.3,48.536l-.078-.538a164.781,164.781,0,0,1-7.083,15.1,23.351,23.351,0,0,0,6.38-3.675c-.01,3.549-.087,6.032.044,15.287h3.49c-.1-4.848-.213-1.086-.213-2.254,0-16.591,9.953,2.395,9.953-9.421s6.633-13.007,13.27-19.64c1.605-1.605,3.976-3.951,6.007-5.949,6.768,3.064,15.849,5.377,27.805,5.954a36.808,36.808,0,0,1,15.121,9.226,14.856,14.856,0,0,0-2.933-8.344c9.445,1.935,15.263,8.364,16.518,19.253l.049.349a33.1,33.1,0,0,1-4.432,15.029,13.56,13.56,0,0,0,6.376-4.271c5.842,23.15,19.058,27.79,19.058,27.79a177.494,177.494,0,0,1-3.975-32.023"/><path class="cls-26" d="M277.342,867.517c0,7.02-3.559,12.712-7.946,12.712s-7.947-5.692-7.947-12.712S265.008,854.8,269.4,854.8s7.946,5.7,7.946,12.717"/><path class="cls-35" d="M254.649,893.924a14.881,14.881,0,0,0-14.879,14.884,14.728,14.728,0,0,0,1.522,6.439l-1.125-1.125a3.958,3.958,0,0,0-5.875.218l-26.608,30.166c-2.637,3.045-3.869,7.966.054,11.888s8.76,2.783,11.9.063l4.325-3.951V970.08h8.649V944.6L249.3,929.35a3.95,3.95,0,0,0,.218-5.871l-1.314-1.314a14.691,14.691,0,0,0,6.448,1.527,14.884,14.884,0,1,0,0-29.768"/><path class="cls-36" d="M262.639,923.184a1.871,1.871,0,0,1-2.633,0l-19.732-19.733a1.853,1.853,0,0,1,0-2.627l2.632-2.633a1.862,1.862,0,0,1,2.633,0l19.732,19.733a1.859,1.859,0,0,1,0,2.632Z"/></g></g></g><g class="cls-37"><g class="cls-37"><path class="cls-38" d="M237.49,970.07v-9.108a27.325,27.325,0,0,0-27.326-27.327H137.293a27.327,27.327,0,0,0-27.326,27.327v9.108Z"/><path class="cls-39" d="M153.872,933.809c0,12.961,39.714,13.49,39.714,0V916.734H153.872Z"/><path class="cls-40" d="M153.834,924.4c5.538,6.258,12.411,7.952,19.875,7.952s14.328-1.7,19.876-7.952v-15.9H153.829v15.9Z"/><path class="cls-39" d="M143.87,878.691c0,6.595-3.343,11.941-7.465,11.941s-7.465-5.346-7.465-11.941,3.343-11.946,7.465-11.946,7.465,5.346,7.465,11.946m74.642,0c0,6.595-3.339,11.941-7.465,11.941s-7.464-5.346-7.464-11.941,3.338-11.946,7.464-11.946,7.465,5.346,7.465,11.946"/><path class="cls-39" d="M134.912,883.35c0-25.455,17.379-46.1,38.817-46.1s38.813,20.64,38.813,46.1-17.376,46.1-38.813,46.1-38.817-20.636-38.817-46.1"/><path class="cls-33" d="M173.728,914.515c-12.542,0-16.4-3.211-17.038-3.862a2.984,2.984,0,0,1,4.108-4.327c.237.168,3.284,2.218,12.93,2.218,10.02,0,12.917-2.209,12.944-2.232a2.906,2.906,0,0,1,4.158.069,3.047,3.047,0,0,1-.064,4.272c-.642.651-4.5,3.862-17.038,3.862"/><path class="cls-25" d="M173.728,821.961c25.724,0,41.8,18.983,41.8,34.8s-3.216,22.148-6.431,15.818l-6.431-12.653s-19.288,0-25.719-6.33c0,0,9.646,18.983-9.646,0,0,0,3.216,12.657-16.077-3.161,0,0-9.646,6.326-12.862,22.144-.892,4.39-6.431,0-6.431-15.818s12.858-34.8,41.8-34.8"/><path class="cls-41" d="M155.511,883.537a4.569,4.569,0,0,1-4.555-4.555v-4.554a4.555,4.555,0,1,1,9.109,0v4.554a4.568,4.568,0,0,1-4.554,4.555m36.435,0a4.568,4.568,0,0,1-4.554-4.555v-4.554a4.554,4.554,0,1,1,9.108,0v4.554a4.568,4.568,0,0,1-4.554,4.555"/><path class="cls-33" d="M177.144,896.061h-6.832a3.416,3.416,0,0,1,0-6.831h6.832a3.416,3.416,0,1,1,0,6.831"/><path class="cls-42" d="M132.739,933.635H146.4V970.07H132.739Zm68.316,0h13.663V970.07H201.055Z"/><polygon class="cls-42" points="210.164 947.298 137.293 947.298 133.308 970.07 214.718 970.07 210.164 947.298"/><path class="cls-43" d="M214.972,849.378c0,6.012-18.637,0-40.99,0s-40.99,6.012-40.99,0c0-16.154,4.555-38.712,40.99-38.712,31.881,0,40.99,22.558,40.99,38.712"/><path class="cls-42" d="M133.243,849.378s-2.277,13.664,6.832,13.664c4.554,0,11.386-9.109,34.158-9.109s29.6,9.109,34.158,9.109c9.109,0,6.832-13.664,6.832-13.664s-6.832,2.278-40.99,2.278-40.99-2.278-40.99-2.278"/><path class="cls-44" d="M133,847.1s-2.278,13.663,6.831,13.663c4.555,0,11.386-9.108,34.158-9.108s29.6,9.108,34.158,9.108c9.109,0,6.832-13.663,6.832-13.663s-6.832,2.277-40.99,2.277S133,847.1,133,847.1"/><path class="cls-42" d="M167.15,812.943s0-6.831,6.832-6.831,6.832,6.831,6.832,6.831Z"/><path class="cls-45" d="M199.916,954.13c5.657,0,10.248,2.55,10.248,5.693s-4.591,5.693-10.248,5.693-10.247-2.551-10.247-5.693,4.591-5.693,10.247-5.693"/><path class="cls-46" d="M105.368,894.838l.054,20.076c0,2.523-4.582,4.568-10.243,4.577s-10.247-2.013-10.252-4.527l-.045-20.076a21.633,21.633,0,1,0,20.486-.05"/><rect class="cls-46" x="88.333" y="930.884" width="13.663" height="39.186"/></g></g><g class="cls-47"><g class="cls-48"><path class="cls-43" d="M512.266,970.07V951.5A27.858,27.858,0,0,0,484.4,923.633H410.1A27.864,27.864,0,0,0,382.24,951.5V970.07Z"/><polygon class="cls-49" points="428.678 923.633 447.253 946.856 465.828 923.633 465.828 905.058 428.678 905.058 428.678 923.633"/><path class="cls-50" d="M428.678,914.345c5.647,6.381,10.936,7.983,18.557,7.983s12.942-1.607,18.593-7.983V895.77h-37.15Z"/><path class="cls-51" d="M463.955,809.248c-8.939-2.893-29.975-2.1-35.236,4.732-13.672.265-29.711,12.622-31.81,28.922-2.085,16.137,2.554,23.627,4.2,35.761,1.872,13.746,9.6,18.139,15.775,19.983,8.888,11.744,18.338,11.242,34.206,11.242,30.983,0,45.741-20.73,47.046-55.943.79-21.3-11.707-37.425-34.183-44.7"/><path class="cls-49" d="M481.678,855.452c-3-4.151-6.836-7.5-15.25-8.674,3.158,1.444,6.181,6.441,6.575,9.2s.79,5-1.709,2.233c-10.007-11.061-20.906-6.705-31.7-13.462-7.541-4.718-9.84-9.942-9.84-9.942s-.919,6.966-12.357,14.066c-3.315,2.057-7.272,6.64-9.464,13.411-1.579,4.867-1.086,9.2-1.086,16.615a40.068,40.068,0,0,0,39.834,39.835c22,0,39.834-18.357,39.834-39.835,0-13.462-1.416-18.719-4.834-23.451"/><path class="cls-33" d="M451.094,889.97h-8.851a2.215,2.215,0,1,1,0-4.43h8.851a2.215,2.215,0,1,1,0,4.43"/><path class="cls-41" d="M428.964,874.478a4.431,4.431,0,0,1-4.426-4.425v-4.426a4.428,4.428,0,0,1,8.856,0v4.426a4.432,4.432,0,0,1-4.43,4.425m35.408,0a4.426,4.426,0,0,1-4.42-4.425v-4.426a4.423,4.423,0,1,1,8.846,0v4.426a4.428,4.428,0,0,1-4.426,4.425"/><path class="cls-33" d="M447.253,908.454c-12.789,0-16.717-3.274-17.372-3.943a3.042,3.042,0,0,1,4.188-4.411c.242.172,3.349,2.261,13.184,2.261,10.217,0,13.17-2.252,13.2-2.275a2.96,2.96,0,0,1,4.24.074,3.1,3.1,0,0,1-.066,4.351c-.654.669-4.583,3.943-17.372,3.943"/><path class="cls-25" d="M410.1,953.817h-9.288c0-19.011,8.717-39.472,27.863-39.472v9.288c-14.693,0-18.575,19.745-18.575,30.184m78.944-18.575H479.76c0-1.908-2.42-11.609-13.932-11.609v-9.288c16.407,0,23.219,13.611,23.219,20.9"/><path class="cls-38" d="M405.459,939.886a13.931,13.931,0,1,1-13.931,13.931,13.93,13.93,0,0,1,13.931-13.931"/><path class="cls-45" d="M405.459,944.53a9.288,9.288,0,1,1-9.287,9.287,9.291,9.291,0,0,1,9.287-9.287"/><path class="cls-25" d="M502.978,960.783h-9.287c0-3.878-.5-23.219-10.449-23.219s-10.448,19.341-10.448,23.219h-9.288c0-20.354,7.379-32.507,19.736-32.507s19.736,12.153,19.736,32.507"/><path class="cls-38" d="M468.15,956.139a4.644,4.644,0,1,1-4.644,4.644,4.64,4.64,0,0,1,4.644-4.644"/><path class="cls-38" d="M498.335,956.139a4.644,4.644,0,1,1-4.644,4.644,4.639,4.639,0,0,1,4.644-4.644"/></g></g><g class="cls-52"><g class="cls-52"><path class="cls-53" d="M631.732,933.728a36.2,36.2,0,0,0-12.944-2.481h-51.78a36.2,36.2,0,0,0-12.944,2.481c-9.523,3.685-17.26,11.279-17.26,21.251v15.1H648.992v-15.1c0-9.972-7.732-17.566-17.26-21.251"/><path class="cls-42" d="M618.788,931.246v32.362h-51.78V931.246a36.2,36.2,0,0,0-12.944,2.481V970.08h77.668V933.727a36.2,36.2,0,0,0-12.944-2.481"/><polygon class="cls-54" points="575.638 931.246 610.158 931.246 592.898 961.451 575.638 931.246"/><path class="cls-51" d="M592.662,836.614c17.708,0,47.231,8.859,47.231,47.236s0,47.24-8.854,47.24-20.669-8.859-38.381-8.859-29.277,8.859-38.382,8.859c-9.868,0-8.858-35.43-8.858-47.24,0-38.377,29.531-47.236,47.244-47.236"/><path class="cls-49" d="M577.054,931.322c6.326,4.6,12.79,4.229,15.844,4.229s9.467.366,15.793-4.229V917.506H577.054Z"/><path class="cls-50" d="M577.027,923.387c4.41,4.984,9.885,6.339,15.827,6.339s11.422-1.351,15.836-6.339V910.719H577.027Z"/><path class="cls-49" d="M557.23,882.564c0-25.173,15.862-45.579,35.43-45.579s35.422,20.406,35.422,45.579-15.862,44.379-35.422,44.379-35.43-19.21-35.43-44.379"/><path class="cls-55" d="M592.662,916.329c-6.93,0-10.559-3.426-10.947-3.818a2.952,2.952,0,0,1,4.147-4.2c.151.138,2.377,2.118,6.8,2.118,4.479,0,6.71-2.041,6.8-2.123a2.971,2.971,0,0,1,4.156.087,2.927,2.927,0,0,1-.018,4.121c-.388.392-4.012,3.818-10.938,3.818"/><path class="cls-51" d="M548.562,896.727c-.09-4.315-.189-.967-.189-2.007,0-14.766,8.858,2.132,8.858-8.384s5.9-11.577,11.806-17.48c2.956-2.955,8.859-8.742,8.859-8.742s14.761,8.919,26.571,8.919,23.62,5.933,23.62,17.743,8.858-6.835,8.858,7.927c0,1.053-.1-2.291-.172,2.024h3.1c.022-8.63.022-8.3.022-13.817,0-38.381-29.519-46.295-47.236-46.295s-47.235,7.672-47.235,46.058c0,3.421-.087,5.424.034,14.054Z"/><path class="cls-41" d="M578.262,891.925a3.664,3.664,0,0,1-3.651-3.655v-3.646a3.653,3.653,0,0,1,7.306,0v3.646a3.665,3.665,0,0,1-3.655,3.655m29.19,0a3.664,3.664,0,0,1-3.65-3.655v-3.646a3.651,3.651,0,0,1,7.3,0v3.646a3.664,3.664,0,0,1-3.651,3.655"/><path class="cls-33" d="M596.505,903.2h-7.292a1.829,1.829,0,0,1-1.825-1.825v-.66a1.829,1.829,0,0,1,1.825-1.83h7.292a1.833,1.833,0,0,1,1.83,1.83v.66a1.832,1.832,0,0,1-1.83,1.825m-68.331,48.543a5.394,5.394,0,1,0-10.787,0V970.08h10.787Z"/><path class="cls-46" d="M544.355,872.994a3.238,3.238,0,0,0-3.236,3.237v36.677l.009.043a18.327,18.327,0,0,1-15.112,17.984v-54.7a3.236,3.236,0,1,0-6.472,0v54.7a18.325,18.325,0,0,1-15.111-17.985l.009-.043V876.226a3.236,3.236,0,1,0-6.472,0v36.677a24.8,24.8,0,0,0,21.574,24.577v11.021a3.236,3.236,0,1,0,6.472,0V937.485a24.8,24.8,0,0,0,21.575-24.577V876.231a3.238,3.238,0,0,0-3.236-3.237"/><path class="cls-33" d="M627.418,852.713c0,5.7-13.342,9.493-34.52,9.493s-34.519-3.8-34.519-9.493c0-15.3,17.259-37.971,23.011-37.971s9.592,7.594,11.508,7.594,5.752-7.594,11.508-7.594,23.012,22.666,23.012,37.971"/><path class="cls-33" d="M653.307,849.262c0,7.15-15.1,25.89-60.409,25.89s-60.409-18.74-60.409-25.89,29.428-4.315,60.409-4.315,60.409-2.835,60.409,4.315"/><path class="cls-25" d="M627.418,852.713c0,5.7-13.342,9.493-34.52,9.493s-34.519-3.8-34.519-9.493a28.9,28.9,0,0,1,1.2-7.767c10.3,8.63,56.328,8.63,66.636.018a29.053,29.053,0,0,1,1.2,7.749"/><path class="cls-49" d="M564.609,883.506c0,6.248-3.167,11.313-7.072,11.313s-7.072-5.065-7.072-11.313,3.167-11.318,7.072-11.318,7.072,5.065,7.072,11.318m70.718,0c0,6.248-3.163,11.313-7.072,11.313s-7.073-5.065-7.073-11.313,3.163-11.318,7.073-11.318,7.072,5.065,7.072,11.318"/></g></g><g class="cls-56"><g class="cls-57"><g class="cls-56"><path class="cls-38" d="M794.323,970.076V952.9a25.767,25.767,0,0,0-25.769-25.769H699.838A25.77,25.77,0,0,0,674.069,952.9v17.179Z"/><polygon class="cls-58" points="717.017 931.423 734.196 948.602 751.375 931.423 751.375 909.949 717.017 909.949 717.017 931.423"/><path class="cls-59" d="M717.017,918.539c5.222,5.9,10.114,7.383,17.162,7.383s11.969-1.486,17.2-7.383V901.36H717.017Z"/><path class="cls-60" d="M749.643,820.063c-8.268-2.676-27.723-1.946-32.589,4.376-12.644.245-27.478,11.674-29.419,26.748-1.929,14.925,2.362,21.852,3.887,33.074,1.73,12.713,8.877,16.78,14.589,18.481,8.22,10.861,16.96,10.4,31.635,10.4,28.655,0,42.3-19.172,43.511-51.739.73-19.7-10.827-34.611-31.614-41.337"/><path class="cls-58" d="M766.033,862.8c-2.774-3.84-6.322-6.932-14.1-8.023,2.921,1.336,5.717,5.957,6.082,8.512s.73,4.622-1.581,2.066c-9.255-10.23-19.335-6.2-29.32-12.45-6.979-4.368-9.105-9.2-9.105-9.2s-.851,6.442-11.429,13.008c-3.066,1.9-6.725,6.142-8.752,12.4-1.46,4.5-1,8.512-1,15.367a36.841,36.841,0,0,0,73.681,0c0-12.451-1.306-17.313-4.467-21.689"/><path class="cls-61" d="M737.748,894.72h-8.186a2.049,2.049,0,1,1,0-4.1h8.186a2.049,2.049,0,1,1,0,4.1"/><path class="cls-41" d="M717.281,880.393a4.1,4.1,0,0,1-4.093-4.092v-4.093a4.093,4.093,0,0,1,8.186,0V876.3a4.094,4.094,0,0,1-4.093,4.092m32.748,0a4.093,4.093,0,0,1-4.089-4.092v-4.093a4.091,4.091,0,1,1,8.181,0V876.3a4.094,4.094,0,0,1-4.092,4.092"/><path class="cls-61" d="M734.2,911.812c-11.828,0-15.461-3.028-16.067-3.642A2.814,2.814,0,0,1,722,904.089c.223.159,3.1,2.092,12.193,2.092,9.448,0,12.18-2.083,12.206-2.1a2.736,2.736,0,0,1,3.921.068,2.87,2.87,0,0,1-.06,4.025c-.606.614-4.239,3.642-16.067,3.642"/><path class="cls-46" d="M721.563,970.076l-4.548-39.593a23.618,23.618,0,0,0,17.179,7.064,27.255,27.255,0,0,0,18.12-7.064l-5.253,39.593Z"/><path class="cls-45" d="M717.364,923.907c2.431,2.431,12.537,46.169,12.537,46.169H716.346l-7.318-11,7.318-12.176-8.662-2.723,1.091-16.994s7.425-4.437,8.589-3.273m33.663,0c-2.431,2.431-12.537,46.169-12.537,46.169h13.554l7.319-11L752.044,946.9l8.663-2.723-1.091-16.994s-7.426-4.437-8.589-3.273"/></g></g></g><g class="cls-56"><g class="cls-57"><g class="cls-56"><g class="cls-62"><g class="cls-63"><g class="cls-64"><rect class="cls-6" x="703.071" y="861.633" width="62.274" height="22.548"/></g></g></g><path class="cls-45" d="M764.259,858.412H704.132c-4.294,0-4.294,4.295-4.294,4.295v17.179c0,6.275,10.019,8.589,17.179,8.589s11.162-4.294,17.179-4.294,10.02,4.294,17.179,4.294,17.179-2.314,17.179-8.589V862.707c0-4.295-4.295-4.295-4.295-4.295m0,17.179c0,5.691-3.659,8.59-12.884,8.59-6.61,0-12.043-4.3-17.179-4.3s-10.57,4.3-17.179,4.3c-9.225,0-12.885-2.9-12.885-8.59V862.707h60.127Z"/><path class="cls-65" d="M669.774,858.412a4.295,4.295,0,1,1-4.295,4.295,4.3,4.3,0,0,1,4.295-4.295"/><path class="cls-65" d="M678.364,879.886a4.295,4.295,0,1,1-4.3,4.3,4.3,4.3,0,0,1,4.3-4.3"/><path class="cls-65" d="M663.332,871.3a6.443,6.443,0,1,1-6.442,6.442,6.439,6.439,0,0,1,6.442-6.442"/><path class="cls-66" d="M682.658,892.77H661.185s-8.59,0-8.59,8.59,8.59,8.589,8.59,8.589v21.474L644.005,952.9c-3.792,4.741-4.294,7.821-4.294,8.59,0,8.589,8.589,8.589,8.589,8.589h47.243s8.589,0,8.589-8.589c0-.576.657-2.4-4.294-8.59l-17.18-21.474V909.949s8.59,0,8.59-8.589-8.59-8.59-8.59-8.59"/><path class="cls-67" d="M678.364,932.929V905.653h4.294c1.929-.048,4.295-.833,4.295-4.3,0-3.444-2.349-4.239-4.329-4.295H661.185c-1.933.052-4.295.838-4.295,4.295s2.362,4.247,4.346,4.3l4.188.107.055,27.169-8.134,10.17,14.577,15.032L686.5,943.1Z"/><path class="cls-65" d="M644,961.633c0,3.312,2.367,4.1,4.351,4.149h47.191c1.928-.051,4.295-.837,4.295-4.3v-.176l.025-.352c0-.013-.236-1.447-3.38-5.377L686.5,943.1H657.345l-9.985,12.48c-3.088,3.861-3.359,6.03-3.359,6.051"/></g></g></g><g class="cls-68"><g class="cls-68"><g class="cls-12"><path class="cls-67" d="M917.775,970.07v-8.746a26.238,26.238,0,0,0-26.239-26.239H821.567a26.24,26.24,0,0,0-26.239,26.239v8.746Z"/><path class="cls-25" d="M892.463,935.393c0,6.581-16.076,11.921-35.912,11.921s-35.912-5.34-35.912-11.921,16.08-11.93,35.912-11.93,35.912,5.348,35.912,11.93"/><path class="cls-69" d="M890.656,935.641c0,5.947-15.266,10.644-34.106,10.644s-34.1-4.635-34.1-10.583c0-.271.066-.617.127-.617h-3.21l-3.083.433.022,4.457c.5,10.517,18.306,14.833,40.25,14.833,21.852,0,39.594-4.412,40.228-14.925l.066-4.26s-6.193-.253-6.193.018"/><path class="cls-70" d="M856.551,920.356c-22.254,0-40.293,6.73-40.293,15.035S834.3,950.43,856.551,950.43s40.294-6.735,40.294-15.039-18.039-15.035-40.294-15.035"/><path class="cls-25" d="M856.551,946.163c-18.835,0-34.106-4.827-34.106-10.775s15.271-10.771,34.106-10.771,34.106,4.828,34.106,10.771-15.271,10.775-34.106,10.775"/><path class="cls-71" d="M837.485,934.817c7.627,5.54,12.455,6.607,19.067,6.607s11.435-1.071,19.062-6.607V918.142H837.481v16.675Z"/><path class="cls-72" d="M837.449,926.22c5.317,6.009,11.916,7.635,19.084,7.635s13.758-1.631,19.084-7.635V910.958H837.444V926.22Z"/><path class="cls-71" d="M827.881,882.328c0,6.333-3.21,11.467-7.167,11.467s-7.168-5.134-7.168-11.467,3.21-11.47,7.168-11.47,7.167,5.134,7.167,11.47m71.671,0c0,6.333-3.205,11.467-7.167,11.467s-7.168-5.134-7.168-11.467,3.206-11.47,7.168-11.47,7.167,5.134,7.167,11.47"/><path class="cls-71" d="M819.28,886.8c0-24.441,16.688-44.26,37.272-44.26s37.268,19.819,37.268,44.26-16.684,44.26-37.268,44.26S819.28,911.248,819.28,886.8"/><path class="cls-73" d="M856.551,916.726c-12.043,0-15.743-3.083-16.359-3.708a2.865,2.865,0,0,1,3.944-4.155c.228.162,3.153,2.13,12.415,2.13,9.621,0,12.4-2.121,12.429-2.143a2.79,2.79,0,0,1,3.992.066,2.925,2.925,0,0,1-.061,4.1c-.616.625-4.316,3.708-16.36,3.708"/><path class="cls-74" d="M856.551,827.857c24.7,0,40.137,18.227,40.137,33.415s-3.088,21.266-6.175,15.188l-6.175-12.149s-18.52,0-24.695-6.079c0,0,9.262,18.228-9.262,0,0,0,3.087,12.153-15.437-3.035,0,0-9.262,6.075-12.35,21.263-.857,4.215-6.175,0-6.175-15.188s12.346-33.415,40.132-33.415"/><path d="M839.059,886.981a4.386,4.386,0,0,1-4.373-4.373v-4.373a4.373,4.373,0,1,1,8.746,0v4.373a4.386,4.386,0,0,1-4.373,4.373m34.985,0a4.386,4.386,0,0,1-4.373-4.373v-4.373a4.373,4.373,0,1,1,8.746,0v4.373a4.386,4.386,0,0,1-4.373,4.373"/><path class="cls-73" d="M859.831,899.007h-6.56a3.28,3.28,0,0,1,0-6.559h6.56a3.28,3.28,0,1,1,0,6.559"/><path class="cls-44" d="M904.656,956.951V970.07h13.119v-8.746a26.182,26.182,0,0,0-.394-4.373Z"/><rect class="cls-75" x="909.029" y="961.324" width="8.746" height="8.746"/><path class="cls-67" d="M865.315,970.07c-5.239-22.5-26.449-39.358-51.852-39.358s-46.609,16.854-51.848,39.358Z"/><path class="cls-25" d="M859.477,970.07c-5.13-19.521-23.755-34.014-46.014-34.014s-40.885,14.493-46.014,34.014Z"/><path class="cls-76" d="M854.967,970.07c-5.016-17.217-21.673-29.881-41.5-29.881s-36.485,12.664-41.5,29.881Z"/><path class="cls-77" d="M839.911,965.911l.45-.271a6.185,6.185,0,0,0,1.312-9.547,36.94,36.94,0,0,0-6.848-5.545,35.7,35.7,0,0,0-7.8-3.617,6.257,6.257,0,0,0-8.16,4.776,6.141,6.141,0,0,0,3.739,6.9,25.311,25.311,0,0,1,9.761,6.446,6.064,6.064,0,0,0,7.548.862"/><path class="cls-65" d="M788.087,875.008l-6.743-2.5-2.624-9.621a2.918,2.918,0,0,0-5.629,0l-2.623,9.621-6.744,2.5a2.915,2.915,0,0,0,0,5.467l6.708,2.484,2.646,10.557a2.914,2.914,0,0,0,5.655,0l2.645-10.557,6.709-2.484a2.918,2.918,0,0,0,0-5.471"/><path class="cls-22" d="M809.671,832.9l-11.414-4.224-4.225-11.414a4.828,4.828,0,0,0-9.052,0l-4.224,11.414-11.41,4.224a4.825,4.825,0,0,0,0,9.053l11.409,4.224,4.225,11.414a4.827,4.827,0,0,0,9.052,0l4.225-11.414,11.413-4.224a4.827,4.827,0,0,0,0-9.053"/></g></g></g><path class="cls-78" d="M393.392,757.174a47.482,47.482,0,0,0-5.233.239v-3.408a42.577,42.577,0,0,1-5.232,2.736,30.385,30.385,0,0,0-3.168-5.088,46.555,46.555,0,0,0,11.617-6.337,43,43,0,0,0,5.28-5.04,20.134,20.134,0,0,0,2.592-3.457h6.1a34.995,34.995,0,0,0,8.545,8.5,43.527,43.527,0,0,0,11.76,6.1,22.741,22.741,0,0,0-3.072,5.521c-2.16-1.009-3.552-1.777-5.712-3.025v3.5a47.125,47.125,0,0,0-5.089-.239h-6.768V762.6h7.776a44.767,44.767,0,0,0,5.28-.241v5.377a47.487,47.487,0,0,0-5.28-.24h-7.776v6.481H417.49a50.568,50.568,0,0,0,6.1-.288V779.3a41.972,41.972,0,0,0-6.048-.336H387.583a41.25,41.25,0,0,0-6,.336v-5.617a48.778,48.778,0,0,0,6.145.288h11.9v-6.481h-7.057a47.879,47.879,0,0,0-5.328.24v-5.377a39.921,39.921,0,0,0,5.328.241h7.057v-5.424Zm18.626-4.849c1.007,0,1.343,0,2.255-.048a43.057,43.057,0,0,1-11.808-10.9c-2.784,4.129-6.241,7.392-11.569,10.9.959.048,1.392.048,2.112.048Z"/><path class="cls-78" d="M430.062,743.588a57.132,57.132,0,0,0-.288-5.809,44.726,44.726,0,0,0,5.665.241h30.29a49.1,49.1,0,0,0,5.666-.241,49.248,49.248,0,0,0-.289,5.761v30.818a38.6,38.6,0,0,0,.289,6.194h-5.473v-2.737H435.247v2.737h-5.473a45.31,45.31,0,0,0,.288-6.241Zm5.185,29.571h30.675V742.676H435.247Zm7.2-22.946a26.887,26.887,0,0,0-4.369.24V745.6a26.047,26.047,0,0,0,4.369.241H458.77a26.6,26.6,0,0,0,4.463-.241v4.849a27.793,27.793,0,0,0-4.463-.24h-6.1v4.992h4.944a22.082,22.082,0,0,0,4.128-.24v4.753a19.358,19.358,0,0,0-3.072-.24,23.459,23.459,0,0,1,3.024,4.656l-2.592,1.44a24.639,24.639,0,0,0,4.7-.288v4.992a30.933,30.933,0,0,0-4.513-.24H441.92a28.545,28.545,0,0,0-4.561.24v-4.992a23.874,23.874,0,0,0,4.561.288h5.761v-6.1h-4.129a23.286,23.286,0,0,0-4.128.24v-4.753a22.393,22.393,0,0,0,4.128.24h4.129v-4.992Zm10.225,15.361h5.184a21.11,21.11,0,0,0-3.024-4.8l2.544-1.3h-4.7Z"/><path class="cls-78" d="M497.36,765.479c-2.736,6.192-5.808,9.024-9.745,9.024-5.471,0-9.408-5.568-9.408-13.3a20.622,20.622,0,0,1,5.28-13.97c4.033-4.416,9.7-6.72,16.514-6.72,11.52,0,19.01,7.008,19.01,17.809,0,8.3-4.322,14.93-11.665,17.906a31.4,31.4,0,0,1-7.537,2.016,15.306,15.306,0,0,0-2.929-5.616c4.417-.576,7.3-1.345,9.554-2.641a13.439,13.439,0,0,0,6.671-12,11.89,11.89,0,0,0-5.9-10.656,10.479,10.479,0,0,0-4.848-1.44A69.463,69.463,0,0,1,497.36,765.479ZM490.3,748.293a16.069,16.069,0,0,0-6.529,12.961c0,3.936,1.68,7.057,3.792,7.057,1.584,0,3.217-2.017,4.945-6.145A63.266,63.266,0,0,0,496.5,745.94,12.22,12.22,0,0,0,490.3,748.293Z"/><path class="cls-78" d="M543.584,739.124a15.044,15.044,0,0,0-.288-3.024h5.9a15.253,15.253,0,0,0-.288,2.976v.624h14.161a37.109,37.109,0,0,0,5.04-.288v4.849a37.1,37.1,0,0,0-4.992-.24H530a36.774,36.774,0,0,0-4.944.24v-4.849a39.209,39.209,0,0,0,5.232.288h13.3ZM526.4,762.694a42.461,42.461,0,0,0-.191-4.369c1.536.145,2.928.193,4.992.193h31.107a38.234,38.234,0,0,0,4.7-.193,40.051,40.051,0,0,0-.193,4.321v12.241c0,2.4-.24,3.312-1.152,4.129-.96.863-2.4,1.151-5.761,1.151-1.008,0-1.248,0-2.784-.1-.767-.048-.767-.048-1.536-.048a10.913,10.913,0,0,0-1.056-4.8c2.64.288,4.7.432,6.049.432.912,0,1.151-.24,1.151-1.009V762.694H531.487v12.769a32.789,32.789,0,0,0,.288,5.28H526.11a34.707,34.707,0,0,0,.288-5.28Zm5.954-13.489c0-1.536-.048-2.352-.145-3.5a40.945,40.945,0,0,0,4.656.193h19.97a35.336,35.336,0,0,0,4.272-.193c-.1,1.248-.143,1.969-.143,3.5v4.128a33.286,33.286,0,0,0,.143,3.553,37.147,37.147,0,0,0-4.511-.193H536.72a40.916,40.916,0,0,0-4.513.193,33.9,33.9,0,0,0,.145-3.553Zm24.481,22.369a28.466,28.466,0,0,0,.145,3.217c-.913-.1-2.689-.145-3.985-.145H540.9v2.4h-4.945a25.009,25.009,0,0,0,.193-3.888V767.59a28.746,28.746,0,0,0-.144-3.168c1.1.1,2.111.144,3.888.144h13.153c1.824,0,2.5-.048,3.937-.144a25.7,25.7,0,0,0-.145,3.072Zm-19.489-18.865h18.577V749.78H537.344Zm3.552,18.145h11.329v-2.64H540.9Z"/><path class="cls-78" d="M599.985,749.541c-3.312,6.384-4.8,8.448-8.928,12.433a15.116,15.116,0,0,0-2.353-3.168,27.441,27.441,0,0,0-1.584,3.5,43.308,43.308,0,0,1-3.12-5.664c.048.864.048.864.144,3.5,0,.193.047,2.641.047,3.169v11.617a47.838,47.838,0,0,0,.288,5.905h-5.472a38.3,38.3,0,0,0,.336-5.905v-9.841l.049-2.448s.047-1.344.191-3.936c-1.68,5.328-2.928,8.112-5.088,11.328a31.8,31.8,0,0,0-2.641-5.424c2.689-3.312,5.521-9.361,6.914-14.785H576.9a28.248,28.248,0,0,0-3.7.192v-4.993a26.258,26.258,0,0,0,3.7.193h2.4v-3.985a32.544,32.544,0,0,0-.239-4.993h5.376a41.165,41.165,0,0,0-.241,4.993v3.985h1.92a16.534,16.534,0,0,0,2.881-.193v4.945a27.038,27.038,0,0,0-2.784-.144h-1.92a21.6,21.6,0,0,0,4.512,7.105c2.64-2.3,4.56-5.041,6.577-9.457ZM610.5,759a49.421,49.421,0,0,1-5.329,9.554c3.312,3.168,6.577,5.04,12.289,6.912a19.2,19.2,0,0,0-2.687,5.232c-5.9-2.4-9.265-4.608-12.818-8.209a35.077,35.077,0,0,1-12.529,8.305,16.855,16.855,0,0,0-2.976-4.656c5.664-2.016,8.784-3.888,12.337-7.489a37.821,37.821,0,0,1-4.993-9.216l4.369-2.208a30.431,30.431,0,0,0,3.792,7.488,28.92,28.92,0,0,0,3.792-7.729Zm-11.041-18.721a18.966,18.966,0,0,0-.24-3.6h5.713a17.509,17.509,0,0,0-.241,3.5v2.064h6.529a39.494,39.494,0,0,0,5.28-.288v5.28c-1.584-.143-3.216-.24-5.328-.24H595.328a42.839,42.839,0,0,0-5.376.288v-5.328a39.794,39.794,0,0,0,5.328.288h4.177Zm8.977,7.057a28.773,28.773,0,0,0,8.5,9.6,19.628,19.628,0,0,0-2.977,4.56c-4.56-3.793-6.48-6.1-9.7-11.809Z"/><path class="cls-78" d="M630.655,750.549a42.356,42.356,0,0,1-6.528,10.081,14.552,14.552,0,0,0-3.937-4.08,34.83,34.83,0,0,0,8.114-14.018,26.018,26.018,0,0,0,1.055-4.465l5.473,1.345a7.737,7.737,0,0,1-.433,1.248,11.749,11.749,0,0,0-.479,1.584q-.36,1.08-1.3,3.6h7.824V742.2a39,39,0,0,0-.336-5.76h6.145a44.57,44.57,0,0,0-.288,5.712v3.7h9.985c2.448,0,4.512-.1,6.481-.288v5.28c-2.065-.192-4.033-.288-6.337-.288H645.969v8.833h8.3a50.044,50.044,0,0,0,5.9-.288v5.28a53.378,53.378,0,0,0-5.9-.288h-8.3v10.177H657.49a52.612,52.612,0,0,0,6.672-.336V779.4a55.958,55.958,0,0,0-6.528-.336H628.255a61.757,61.757,0,0,0-6.817.336v-5.472a56.307,56.307,0,0,0,6.673.336h12.337V764.086h-7.392a50.366,50.366,0,0,0-5.809.288v-5.28a44.232,44.232,0,0,0,5.761.288h7.44v-8.833Z"/><rect class="cls-1" width="1024" height="1024"/><g class="cls-79"><g class="cls-80"><g class="cls-12"><path class="cls-22" d="M882.007,280.206l-35.664-6.481a3.336,3.336,0,0,0-3.69,2.254l-8.762,28.868a12.726,12.726,0,0,0-4.338-2.3c-5.94-1.8-12.011.861-13.558,5.956s2.02,10.685,7.961,12.488,12.012-.863,13.558-5.957l8.611-28.375,28.636,5.2-6.122,20.172a12.722,12.722,0,0,0-4.338-2.3c-5.941-1.8-12.012.862-13.558,5.957s2.02,10.684,7.96,12.487,12.013-.863,13.558-5.957L884.015,283.5a2.528,2.528,0,0,0-2.008-3.29"/></g></g></g><rect class="cls-1" width="1024" height="1024"/></svg>