<svg id="レイヤー_1" data-name="レイヤー 1" xmlns="http://www.w3.org/2000/svg" viewBox="0 0 723.49 95.8"><defs><style>.cls-1{fill:#005b9e;}</style></defs><path class="cls-1" d="M0,80.27V35H6.8a29.41,29.41,0,0,1,7.24.7,10.77,10.77,0,0,1,4.6,2.37,12.26,12.26,0,0,1,3,4.31,12.94,12.94,0,0,1,1.14,5.27,10.66,10.66,0,0,1-3.72,8.23,10.94,10.94,0,0,1,5.68,4.31,12.74,12.74,0,0,1-1.64,16.06,12.23,12.23,0,0,1-5.06,3.13,29,29,0,0,1-7.7.85ZM6.83,54.46H9q3.8,0,5.58-1.69a6.54,6.54,0,0,0,1.77-5A6.23,6.23,0,0,0,14.5,43a7.52,7.52,0,0,0-5.27-1.65H6.83Zm0,19.4h4.22q4.62,0,6.8-1.82a6.28,6.28,0,0,0,2.28-5,6.41,6.41,0,0,0-2.2-4.92c-1.43-1.31-4-2-7.65-2H6.83Z"/><path class="cls-1" d="M60.21,67.56H39.76A8.65,8.65,0,0,0,42,73.16a7,7,0,0,0,5.19,2A6.78,6.78,0,0,0,51.3,74a16.31,16.31,0,0,0,3.6-4.33l5.57,3.11a22.82,22.82,0,0,1-2.73,3.76,14.56,14.56,0,0,1-3.07,2.58,12.72,12.72,0,0,1-3.55,1.48,17.38,17.38,0,0,1-4.13.46A13.42,13.42,0,0,1,36.74,77q-3.87-4.12-3.87-11t3.75-11a13,13,0,0,1,10-4.14q6.3,0,10,4t3.63,11Zm-6.77-5.4q-1.38-5.26-6.65-5.27a6.94,6.94,0,0,0-2.26.36,6.39,6.39,0,0,0-1.91,1.06A6.29,6.29,0,0,0,41.14,60a7.5,7.5,0,0,0-.94,2.2Z"/><path class="cls-1" d="M76.41,75,63.57,51.73h7.65L80,68.14,88.1,51.73h7.44L72.8,95.8H65.27Z"/><path class="cls-1" d="M98.67,65.8a14.21,14.21,0,0,1,4.43-10.52,15.61,15.61,0,0,1,21.62,0,15.27,15.27,0,0,1,0,21.48,15.09,15.09,0,0,1-10.93,4.3A14.53,14.53,0,0,1,103,76.69,14.84,14.84,0,0,1,98.67,65.8Zm6.74.12a9.59,9.59,0,0,0,2.29,6.76,8.87,8.87,0,0,0,12.36,0,9.39,9.39,0,0,0,2.31-6.65,9.43,9.43,0,0,0-2.31-6.65,8.78,8.78,0,0,0-12.3,0,9.16,9.16,0,0,0-2.35,6.5Z"/><path class="cls-1" d="M136.08,51.73h6.63v2.64a10.79,10.79,0,0,1,7.79-3.43,9.85,9.85,0,0,1,7.76,3.14q2.4,2.67,2.4,8.7V80.27H154V64.33q0-4.21-1.17-5.83c-.76-1.09-2.15-1.64-4.16-1.64q-3.28,0-4.66,2.17T142.7,66.5V80.27h-6.62Z"/><path class="cls-1" d="M190,30.79h6.62V80.27H190v-3a12.29,12.29,0,0,1-8.82,3.81,12.5,12.5,0,0,1-9.72-4.28,15.81,15.81,0,0,1-3.84-10.9,15.31,15.31,0,0,1,3.84-10.66,12.31,12.31,0,0,1,17.37-1.34A10.5,10.5,0,0,1,190,55.05ZM174.38,65.91a9.9,9.9,0,0,0,2.19,6.68,7.19,7.19,0,0,0,5.69,2.61,7.57,7.57,0,0,0,5.92-2.52,10.86,10.86,0,0,0,0-13.24,7.47,7.47,0,0,0-5.86-2.55,7.32,7.32,0,0,0-5.69,2.58A9.47,9.47,0,0,0,174.38,65.91Z"/><path class="cls-1" d="M258.16,37.47v8.08q-5.91-4.95-12.24-4.95a15.61,15.61,0,0,0-11.75,5,16.92,16.92,0,0,0-4.8,12.19,16.49,16.49,0,0,0,4.8,12A15.88,15.88,0,0,0,246,74.7a14.45,14.45,0,0,0,6.12-1.17A18.68,18.68,0,0,0,255,72a35.16,35.16,0,0,0,3.17-2.4v8.23a24.7,24.7,0,0,1-12.3,3.31,22.7,22.7,0,0,1-16.55-6.77,22.42,22.42,0,0,1-6.82-16.46,23.21,23.21,0,0,1,5.71-15.41,22.76,22.76,0,0,1,18.19-8.29A23,23,0,0,1,258.16,37.47Z"/><path class="cls-1" d="M264.52,57.45a22.16,22.16,0,0,1,7-16.41,23.06,23.06,0,0,1,16.76-6.85,23.66,23.66,0,0,1,23.53,23.52,22.28,22.28,0,0,1-7,16.56A23.9,23.9,0,0,1,272.2,75Q264.52,68.33,264.52,57.45Zm6.89.09a16.32,16.32,0,0,0,5,12.33,16.73,16.73,0,0,0,28.47-12.22,16.59,16.59,0,0,0-4.83-12.13,16.88,16.88,0,0,0-23.82,0A16.31,16.31,0,0,0,271.41,57.54Z"/><path class="cls-1" d="M322.68,35l12.51,31.35L347.88,35h7.47l-20.3,48.63L315.2,35Z"/><path class="cls-1" d="M367.79,35V80.27H361V35Z"/><path class="cls-1" d="M378.66,80.27V35h9.49a34.5,34.5,0,0,1,10.79,1.35,20.13,20.13,0,0,1,7.7,4.48q7,6.39,7,16.79t-7.3,16.87A21.29,21.29,0,0,1,398.67,79,35.06,35.06,0,0,1,388,80.28Zm6.83-6.42h3.07a25.62,25.62,0,0,0,7.65-1,15.55,15.55,0,0,0,10.55-15.24,15.73,15.73,0,0,0-5-12.07q-4.48-4.12-13.22-4.13h-3.07Z"/><path class="cls-1" d="M416.81,62.9h13.06v5.74H416.81Z"/><path class="cls-1" d="M446.13,41.42h-7.82L442.06,35H453V80.27h-6.82Z"/><path class="cls-1" d="M480.38,81.82l-5-3.72,10.81-14.73-1.49.17c-.41,0-.74.06-1,.06a12.69,12.69,0,0,1-9.49-4.19,14,14,0,0,1-4-10A15.17,15.17,0,0,1,485.3,34.27a15,15,0,0,1,10.75,4.4A13.79,13.79,0,0,1,500.62,49q0,5.28-4.45,11.4Zm-3.51-32.93a8.33,8.33,0,0,0,2.49,6.16A8.56,8.56,0,0,0,491.47,43h0a8.56,8.56,0,0,0-12.07,0,8.14,8.14,0,0,0-2.53,5.94Z"/><path class="cls-1" d="M561.3,37.47v8.08q-5.92-4.95-12.25-4.95a15.61,15.61,0,0,0-11.75,5,16.93,16.93,0,0,0-4.8,12.19,16.49,16.49,0,0,0,4.8,12,15.85,15.85,0,0,0,11.78,4.89,14.45,14.45,0,0,0,6.12-1.17A18.68,18.68,0,0,0,558.12,72a33.94,33.94,0,0,0,3.18-2.4v8.23A24.63,24.63,0,0,1,549,81.08a23.2,23.2,0,0,1-23.38-23.23,23.26,23.26,0,0,1,5.71-15.41,22.78,22.78,0,0,1,18.2-8.29A23.1,23.1,0,0,1,561.3,37.47Z"/><path class="cls-1" d="M567.3,65.8a14.2,14.2,0,0,1,4.42-10.52,15.61,15.61,0,0,1,21.62,0,15.05,15.05,0,0,1-11,25.78,14.54,14.54,0,0,1-10.76-4.4A14.79,14.79,0,0,1,567.3,65.8Zm6.74.12a9.58,9.58,0,0,0,2.28,6.76,8.88,8.88,0,0,0,12.36,0A9.36,9.36,0,0,0,591,66.06a9.41,9.41,0,0,0-2.31-6.65,8.78,8.78,0,0,0-12.3,0,9.16,9.16,0,0,0-2.35,6.5Z"/><path class="cls-1" d="M604.72,51.73h6.62v2.64a10.81,10.81,0,0,1,7.79-3.43,9.83,9.83,0,0,1,7.76,3.14q2.4,2.67,2.4,8.7V80.27h-6.62V64.33q0-4.21-1.17-5.83c-.76-1.09-2.15-1.64-4.16-1.64-2.18,0-3.74.72-4.66,2.17s-1.34,3.92-1.34,7.47V80.27h-6.62Z"/><path class="cls-1" d="M644.41,57.89V80.27h-6.59V57.89H635V51.73h2.81V41.28h6.59V51.73h5.13v6.16Z"/><path class="cls-1" d="M680,67.56H659.56a8.66,8.66,0,0,0,2.29,5.6,7,7,0,0,0,5.18,2A6.76,6.76,0,0,0,671.1,74a16.47,16.47,0,0,0,3.6-4.33l5.57,3.11a22.77,22.77,0,0,1-2.72,3.76,14.66,14.66,0,0,1-3.08,2.58,12.59,12.59,0,0,1-3.55,1.48,17.39,17.39,0,0,1-4.13.47A13.47,13.47,0,0,1,656.54,77q-3.87-4.12-3.87-11t3.75-11a13,13,0,0,1,10-4.14q6.3,0,10,4c2.43,2.65,3.64,6.34,3.64,11Zm-6.77-5.4c-.92-3.51-3.13-5.27-6.65-5.27a6.94,6.94,0,0,0-2.26.36,6.62,6.62,0,0,0-1.91,1.06A6.45,6.45,0,0,0,660.94,60a7.5,7.5,0,0,0-.94,2.2Z"/><path class="cls-1" d="M703.8,56.6l-5.45,2.9c-.86-1.76-1.92-2.64-3.19-2.64a2.2,2.2,0,0,0-1.55.6A2,2,0,0,0,693,59c0,1.09,1.27,2.18,3.81,3.25,3.49,1.51,5.85,2.89,7.06,4.16a7.16,7.16,0,0,1,1.82,5.13,9,9,0,0,1-3,6.91,10.35,10.35,0,0,1-7.15,2.64c-4.79,0-8.17-2.33-10.17-7l5.63-2.61a12,12,0,0,0,1.79,2.61,4.08,4.08,0,0,0,2.87,1.11q3.34,0,3.34-3c0-1.18-.86-2.27-2.58-3.29-.66-.33-1.33-.65-2-1l-2-1a12.35,12.35,0,0,1-4-2.81,6.92,6.92,0,0,1-1.5-4.6,8.15,8.15,0,0,1,2.55-6.15,9,9,0,0,1,6.33-2.44Q701.14,50.94,703.8,56.6Z"/><path class="cls-1" d="M718.36,57.89V80.27h-6.59V57.89H709V51.73h2.81V41.28h6.59V51.73h5.13v6.16Z"/><path class="cls-1" d="M297.62,19.58a12.74,12.74,0,0,1-6.17,4.65l-1.95-2.72a8.88,8.88,0,0,0,4.76-2.83,8.3,8.3,0,0,0,1.91-5.27,6.22,6.22,0,0,0-1.91-4.63A6.8,6.8,0,0,0,289.76,7a37.41,37.41,0,0,1-3.28,11.77c-.79,1.64-2,3.87-3.38,3.87-1,0-5.3-2.38-5.3-7.12A11.41,11.41,0,0,1,289.4,4.31h.07c5.5,0,9.84,3.73,9.84,9.63A9.94,9.94,0,0,1,297.62,19.58ZM283.38,9.39a8.67,8.67,0,0,0-2.64,5.87c0,2.15,1.21,3.26,1.69,3.26,1.38,0,3.65-6.91,4.18-11A7.8,7.8,0,0,0,283.38,9.39Z"/><path class="cls-1" d="M316.9,22.36v-.93H303.07V18.52H316.9V9.31H303.12V6.37h16.93v16Z"/><path class="cls-1" d="M341.06,23.1V22H329v1h-3.15V5.69h18.34V23.1Zm0-14.42H329V19h12Z"/><path class="cls-1" d="M362.35,12c-.77,7-2.75,9.9-8.47,13.25l-2.7-2.62c5.06-2.43,7.12-4.68,7.92-10.63h-9.61V8.89h9.82a38.78,38.78,0,0,0-.24-5.9l3.54.42c.37,0,.8.13.8.4s-.64.61-.74.77-.06.21-.06,1.3c0,0,0,1.64-.05,3h8V12Z"/><path class="cls-1" d="M395.77,22.41a28.18,28.18,0,0,1-5.3-6.7v9.48h-3V15.61a24.79,24.79,0,0,1-5.16,7.14l-2.75-1.64v4.05h-2.89V13.76a9.63,9.63,0,0,1-1,1.35L373,13.68a28.81,28.81,0,0,0,5.67-10.95l2.93.87c.14,0,.56.21.56.42a.3.3,0,0,1-.21.27c-.53.16-.61.18-.69.4a32.51,32.51,0,0,1-1.45,3.11c.39.26.5.34.5.58s-.27.37-.35.42-.4.27-.4.48V20.66a20.41,20.41,0,0,0,6.9-9.95h-5.53V8h6.54V2.64l2.62.14c.18,0,.87,0,.87.31s-.27.4-.48.64V8h6.59v2.72h-6a27,27,0,0,0,7.18,9.56Z"/><path class="cls-1" d="M420.58,20.05c-1.4-1.08-2.14-1.58-2.75-2a14.74,14.74,0,0,1-5.24,6.59L410,22.83a12.75,12.75,0,0,0,5.26-6.22,16.68,16.68,0,0,0-5.29-1.48c-2.62,5.61-3.75,7.3-6.08,7.3-1.8,0-3-1.45-3-3.41A6.57,6.57,0,0,1,404,13.78a7.18,7.18,0,0,1,4.21-1.27q1.21-2.82,2.14-5.74a18.72,18.72,0,0,1-4.81.82l-1.19-2.67c4.07,0,7.2-.5,8.62-1.43l1.75,1.74a11,11,0,0,0-1.38,2.25c0,.11-1.9,4.37-2.27,5.19a17,17,0,0,1,5.1,1.22A22.08,22.08,0,0,0,416.85,9l3,.82c.27.08.64.22.64.45s0,.16-.4.35c-.21.13-.21.18-.29.55a33.21,33.21,0,0,1-.9,3.95c1.45.82,2.27,1.32,3.41,2.06Zm-17-1.64c0,.69.34.72.53.72a1.2,1.2,0,0,0,1.11-.64A30.27,30.27,0,0,0,407,15.21C404.73,15.93,403.62,17.43,403.62,18.41Z"/><path class="cls-1" d="M445.5,19.58a12.69,12.69,0,0,1-6.17,4.65l-1.95-2.72a8.92,8.92,0,0,0,4.76-2.83,8.23,8.23,0,0,0,1.9-5.27,6.25,6.25,0,0,0-1.9-4.63A6.8,6.8,0,0,0,437.64,7a37.41,37.41,0,0,1-3.28,11.77c-.8,1.64-2,3.87-3.39,3.87-1,0-5.29-2.38-5.29-7.12a11.42,11.42,0,0,1,11.6-11.22h.07c5.5,0,9.84,3.73,9.84,9.63A9.94,9.94,0,0,1,445.5,19.58ZM431.27,9.39a8.64,8.64,0,0,0-2.65,5.87c0,2.15,1.22,3.26,1.69,3.26,1.38,0,3.65-6.91,4.18-11A7.7,7.7,0,0,0,431.27,9.39Z"/><path class="cls-1" d="M464.79,22.36v-.93H451V18.52h13.84V9.31H451V6.37h16.93v16Z"/><path class="cls-1" d="M477.11,10a24,24,0,0,0-5.42-3.34L473.3,4.2a24.48,24.48,0,0,1,5.55,3.29Zm7.75,7.2a35.59,35.59,0,0,1-10,5.9c-.13.37-.19.82-.4.82s-.4-.16-.58-.5l-1.85-3.18a24.7,24.7,0,0,0,9.81-4.58,36.77,36.77,0,0,0,7.75-8.1l1.83,2.65a37,37,0,0,1-6.59,7Z"/><path class="cls-1" d="M505.47,13.39a13.54,13.54,0,0,1-1.66,6.85,12.35,12.35,0,0,1-5.88,4.92L495.34,23c5.29-1.9,6.93-4.44,7.06-9.6h-8.88V10.66h20v2.73Zm-8.36-6.57V4h12.81V6.82Z"/><path class="cls-1" d="M534.21,23.39a42.14,42.14,0,0,0-6.46-6.62,25.44,25.44,0,0,1-9,6.8l-2.33-2.4a23.54,23.54,0,0,0,8.44-5.72,21.06,21.06,0,0,0,4.5-7.22H519.23V5.16h11.4A2.52,2.52,0,0,0,532,4.58l2,2.24a3.73,3.73,0,0,0-1.43,1.59,31.44,31.44,0,0,1-3.07,5.93,53.57,53.57,0,0,1,7,6.53Z"/><path class="cls-1" d="M552.51,18.25A27.06,27.06,0,0,0,544.73,13V24.39h-3.12V3.44l3.18.55c.07,0,.63.11.63.43,0,.16-.69.58-.69.71v7l1.25-2a24,24,0,0,1,4.5,2.41,33.5,33.5,0,0,1,4.13,3.17Z"/><path class="cls-1" d="M218,18.79V17.74H212V25.2h-3V17.74h-6V18.9h-3V7.1h9V2.63l3.29.29c.15,0,.39.05.39.29s-.18.29-.29.37S212,3.81,212,4V7.1H221V18.79ZM209,10h-6V14.9h6ZM218,10H212V14.9H218Z"/><path class="cls-1" d="M225.54,6.78V4.44h9.56V2.55l3.18.27c.11,0,.63,0,.63.26s-.13.23-.29.31-.26.21-.26.32v.73h9.43V6.78ZM244.22,25.6H242.8l-1.18-2.66c.21,0,1,.06,1.34.06.81,0,1-.06,1-.87V16.22H229.29v9h-2.94V14.11h20.57v9.36C246.92,24.68,245.9,25.6,244.22,25.6ZM230.29,13.06V7.83H243v5.23Zm4.05,9.46v1h-2.65V17.37h10.14v5.15Zm5.73-12.79h-6.83V11.2h6.83Zm-.92,9.4h-4.81v1.42h4.81Z"/><path class="cls-1" d="M251.71,24.62V22h9.83V17h-6V14.3h6V10.07h-5.62a37.05,37.05,0,0,1-2.42,4l-2.81-1.5A17.82,17.82,0,0,0,253.16,9a23.91,23.91,0,0,0,2.23-5.88l2.76.76c.55.16.68.26.68.42s-.08.24-.31.34a.86.86,0,0,0-.55.53,23.3,23.3,0,0,1-.79,2.2h4.36V2.76l3.18.16c.42,0,.63.13.63.39s-.08.24-.29.37-.39.32-.39.5V7.41H273v2.66h-8.33V14.3h5.83V17h-5.83v5h9.48v2.6Z"/></svg>