<svg id="レイヤー_1" data-name="レイヤー 1" xmlns="http://www.w3.org/2000/svg" viewBox="0 0 723.486 95.798"><defs><style>.cls-1{fill:#005b9e;}</style></defs><path class="cls-1" d="M0,80.271V35.036H6.8a29.777,29.777,0,0,1,7.236.7,10.868,10.868,0,0,1,4.6,2.373,12.337,12.337,0,0,1,3.018,4.307,13.038,13.038,0,0,1,1.136,5.273,10.688,10.688,0,0,1-3.72,8.233,10.935,10.935,0,0,1,5.683,4.306,12.749,12.749,0,0,1-1.638,16.061,12.3,12.3,0,0,1-5.068,3.135,29.454,29.454,0,0,1-7.7.85ZM6.826,54.46H8.965q3.808,0,5.581-1.685a6.531,6.531,0,0,0,1.773-4.965A6.227,6.227,0,0,0,14.5,42.961a7.575,7.575,0,0,0-5.273-1.655h-2.4Zm0,19.4h4.219q4.629,0,6.8-1.817a6.28,6.28,0,0,0,2.285-4.98,6.379,6.379,0,0,0-2.2-4.922q-2.139-1.962-7.647-1.963H6.826Z"/><path class="cls-1" d="M60.205,67.556H39.756a8.673,8.673,0,0,0,2.285,5.6,6.968,6.968,0,0,0,5.186,2.051A6.743,6.743,0,0,0,51.3,74.035,16.648,16.648,0,0,0,54.9,69.7l5.566,3.106a22.15,22.15,0,0,1-2.725,3.764,14.51,14.51,0,0,1-3.076,2.579,12.335,12.335,0,0,1-3.545,1.479,17.287,17.287,0,0,1-4.129.462,13.427,13.427,0,0,1-10.253-4.1q-3.869-4.131-3.868-10.957,0-6.766,3.75-10.957a12.929,12.929,0,0,1,10.02-4.131q6.3,0,9.961,4.014Q60.232,58.942,60.233,66Zm-6.767-5.391Q52.06,56.89,46.79,56.889a6.81,6.81,0,0,0-2.255.366,6.426,6.426,0,0,0-1.919,1.055,6.657,6.657,0,0,0-1.48,1.655,7.671,7.671,0,0,0-.937,2.2Z"/><path class="cls-1" d="M76.407,74.968,63.574,51.735h7.647l8.73,16.407L88.1,51.735h7.441L72.8,95.8H65.274Z"/><path class="cls-1" d="M98.672,65.8A14.183,14.183,0,0,1,103.1,55.28a15.605,15.605,0,0,1,21.621.03,15.277,15.277,0,0,1-.027,21.479,15.123,15.123,0,0,1-10.93,4.3,14.5,14.5,0,0,1-10.752-4.4A14.777,14.777,0,0,1,98.672,65.8Zm6.738.117a9.621,9.621,0,0,0,2.286,6.768,8.881,8.881,0,0,0,12.363.029,9.385,9.385,0,0,0,2.314-6.65,9.389,9.389,0,0,0-2.314-6.651,8.772,8.772,0,0,0-12.3,0A9.17,9.17,0,0,0,105.41,65.915Z"/><path class="cls-1" d="M136.084,51.735h6.621v2.637a10.806,10.806,0,0,1,7.793-3.428,9.84,9.84,0,0,1,7.764,3.135q2.4,2.666,2.4,8.7V80.271h-6.621V64.333q0-4.218-1.172-5.83-1.141-1.641-4.16-1.641-3.281,0-4.658,2.168Q142.7,61.169,142.7,66.5v13.77h-6.621Z"/><path class="cls-1" d="M190.02,30.789h6.621V80.271H190.02V77.282a12.3,12.3,0,0,1-8.819,3.809,12.552,12.552,0,0,1-9.726-4.278,15.9,15.9,0,0,1-3.838-10.9,15.374,15.374,0,0,1,3.838-10.664,12.325,12.325,0,0,1,18.545-.2ZM174.375,65.915a9.941,9.941,0,0,0,2.2,6.68,7.192,7.192,0,0,0,5.683,2.607,7.565,7.565,0,0,0,5.918-2.519,10.845,10.845,0,0,0,0-13.243,7.458,7.458,0,0,0-5.859-2.548,7.287,7.287,0,0,0-5.684,2.578A9.5,9.5,0,0,0,174.375,65.915Z"/><path class="cls-1" d="M258.164,37.468v8.086Q252.247,40.6,245.918,40.6a15.593,15.593,0,0,0-11.748,5.009,16.9,16.9,0,0,0-4.8,12.188,16.485,16.485,0,0,0,4.8,12.012A15.87,15.87,0,0,0,245.948,74.7a14.467,14.467,0,0,0,6.123-1.172,17.662,17.662,0,0,0,2.915-1.582,34.312,34.312,0,0,0,3.178-2.4v8.232a24.653,24.653,0,0,1-12.3,3.311,22.7,22.7,0,0,1-16.553-6.768,22.437,22.437,0,0,1-6.826-16.465A23.228,23.228,0,0,1,228.2,42.45a22.745,22.745,0,0,1,18.192-8.293A23.087,23.087,0,0,1,258.164,37.468Z"/><path class="cls-1" d="M264.522,57.448a22.152,22.152,0,0,1,7-16.406,23.047,23.047,0,0,1,16.76-6.853,23.656,23.656,0,0,1,23.525,23.525,22.241,22.241,0,0,1-6.973,16.553,23.9,23.9,0,0,1-32.636.761Q264.521,68.319,264.522,57.448Zm6.885.088a16.347,16.347,0,0,0,5.039,12.334,16.731,16.731,0,0,0,28.476-12.217,16.578,16.578,0,0,0-4.832-12.129,16.871,16.871,0,0,0-23.818,0A16.32,16.32,0,0,0,271.407,57.536Z"/><path class="cls-1" d="M322.676,35.036,335.19,66.389l12.685-31.348h7.471l-20.3,48.633L315.205,35.036Z"/><path class="cls-1" d="M367.79,35.036V80.271h-6.826V35.036Z"/><path class="cls-1" d="M378.662,80.271V35.036h9.493a34.556,34.556,0,0,1,10.781,1.353,20.19,20.19,0,0,1,7.705,4.482q7,6.389,7,16.787,0,10.431-7.3,16.875a21.292,21.292,0,0,1-7.676,4.483,34.939,34.939,0,0,1-10.635,1.26Zm6.827-6.416h3.076a25.689,25.689,0,0,0,7.646-.967,15.526,15.526,0,0,0,10.547-15.235,15.716,15.716,0,0,0-4.98-12.07q-4.484-4.131-13.213-4.131H385.49Z"/><path class="cls-1" d="M416.807,62.9h13.066V68.64H416.807Z"/><path class="cls-1" d="M446.133,41.423h-7.822l3.75-6.387h10.9V80.271h-6.826Z"/><path class="cls-1" d="M480.381,81.823l-5.01-3.72,10.811-14.737q-.879.117-1.494.176c-.41.04-.742.059-1,.059a12.714,12.714,0,0,1-9.493-4.19,13.963,13.963,0,0,1-3.98-10.022A15.156,15.156,0,0,1,485.3,34.271a15,15,0,0,1,10.752,4.4,13.8,13.8,0,0,1,4.57,10.312q0,5.274-4.453,11.4Zm-3.516-32.929a8.358,8.358,0,0,0,2.491,6.152A8.556,8.556,0,0,0,491.47,42.96l-.014-.014a8.558,8.558,0,0,0-12.07,0,8.131,8.131,0,0,0-2.521,5.948Z"/><path class="cls-1" d="M561.3,37.468v8.086Q555.382,40.6,549.053,40.6A15.593,15.593,0,0,0,537.3,45.612,16.892,16.892,0,0,0,532.5,57.8a16.488,16.488,0,0,0,4.8,12.012A15.867,15.867,0,0,0,549.082,74.7a14.434,14.434,0,0,0,6.123-1.172,17.588,17.588,0,0,0,2.915-1.582,34.326,34.326,0,0,0,3.179-2.4v8.232a24.641,24.641,0,0,1-12.309,3.307,22.7,22.7,0,0,1-16.552-6.768,22.436,22.436,0,0,1-6.827-16.465,23.233,23.233,0,0,1,5.713-15.41,22.746,22.746,0,0,1,18.194-8.291A23.092,23.092,0,0,1,561.3,37.468Z"/><path class="cls-1" d="M567.3,65.8a14.183,14.183,0,0,1,4.424-10.518,15.605,15.605,0,0,1,21.621.03,15.279,15.279,0,0,1-.029,21.474,15.12,15.12,0,0,1-10.931,4.3,14.5,14.5,0,0,1-10.752-4.4A14.777,14.777,0,0,1,567.3,65.8Zm6.738.117a9.621,9.621,0,0,0,2.285,6.768,8.882,8.882,0,0,0,12.362.029A9.376,9.376,0,0,0,591,66.062a9.378,9.378,0,0,0-2.314-6.651,8.774,8.774,0,0,0-12.3,0,9.168,9.168,0,0,0-2.347,6.5Z"/><path class="cls-1" d="M604.717,51.735h6.621v2.637a10.806,10.806,0,0,1,7.793-3.428,9.84,9.84,0,0,1,7.764,3.135q2.4,2.666,2.4,8.7V80.271h-6.621V64.333q0-4.218-1.172-5.83-1.143-1.641-4.16-1.641-3.28,0-4.658,2.168-1.349,2.139-1.348,7.471v13.77h-6.621Z"/><path class="cls-1" d="M644.414,57.889V80.271h-6.591V57.889H635.01V51.735h2.813V41.276h6.591V51.735h5.127v6.154Z"/><path class="cls-1" d="M680.01,67.556H659.561a8.659,8.659,0,0,0,2.285,5.6,6.966,6.966,0,0,0,5.186,2.051,6.743,6.743,0,0,0,4.072-1.172,16.648,16.648,0,0,0,3.6-4.336l5.567,3.106a22.15,22.15,0,0,1-2.725,3.764,14.51,14.51,0,0,1-3.076,2.579,12.335,12.335,0,0,1-3.545,1.479,17.3,17.3,0,0,1-4.131.469A13.428,13.428,0,0,1,656.54,77q-3.867-4.131-3.867-10.957,0-6.767,3.75-10.957a12.929,12.929,0,0,1,10.02-4.131q6.3,0,9.961,4.014,3.632,3.984,3.632,11.045Zm-6.768-5.391q-1.377-5.275-6.652-5.276a6.816,6.816,0,0,0-2.256.366,6.47,6.47,0,0,0-1.919,1.055,6.671,6.671,0,0,0-1.479,1.655,7.7,7.7,0,0,0-.938,2.2Z"/><path class="cls-1" d="M703.8,56.6l-5.449,2.9q-1.29-2.637-3.193-2.637a2.2,2.2,0,0,0-1.553.6A2.008,2.008,0,0,0,692.959,59q0,1.641,3.809,3.252,5.244,2.256,7.06,4.16a7.12,7.12,0,0,1,1.817,5.127,8.983,8.983,0,0,1-3.047,6.914,10.373,10.373,0,0,1-7.149,2.637q-7.177,0-10.166-7l5.625-2.608A12.213,12.213,0,0,0,692.7,74.09a4.069,4.069,0,0,0,2.871,1.113q3.339,0,3.34-3.047,0-1.758-2.579-3.281-1-.5-1.992-.967t-2.021-.967a12.379,12.379,0,0,1-4.043-2.812,6.934,6.934,0,0,1-1.494-4.6,8.145,8.145,0,0,1,2.548-6.152,8.946,8.946,0,0,1,6.329-2.432Q701.133,50.944,703.8,56.6Z"/><path class="cls-1" d="M718.36,57.889V80.271h-6.592V57.889h-2.813V51.735h2.813V41.276h6.592V51.735h5.13v6.154Z"/><path class="cls-1" d="M198.673,6.772V4.417H208.3v-1.9l3.2.264c.106,0,.635.027.635.265,0,.132-.132.238-.291.317-.185.133-.265.212-.265.318v.741h9.5V6.772Zm18.812,18.944h-1.428l-1.191-2.672c.212,0,1.032.053,1.349.053.821,0,1.006-.053,1.006-.873V16.271H202.457v9.1h-2.963V14.154h20.717v9.419C220.211,24.79,219.179,25.716,217.485,25.716ZM203.462,13.1V7.83h12.78V13.1Zm4.075,9.526V23.6h-2.672V17.435h10.213v5.186Zm5.768-12.886h-6.879v1.482h6.879Zm-.926,9.473h-4.842v1.428h4.842Z"/><path class="cls-1" d="M232.114,16.588a19.564,19.564,0,0,1-1.429-1.641V25.452h-2.752v-7.7a18.6,18.6,0,0,1-1.72,2.937l-2.3-1.323A19.391,19.391,0,0,0,227.748,10h-2.8V7.433h2.99V2.7l2.593.185c.212.027.609.053.609.265,0,.106-.027.185-.186.317-.158.106-.264.212-.264.291V7.433h2.91V10h-2.91a10.544,10.544,0,0,0,3.254,4.577Zm14.446,8.679a16.476,16.476,0,0,1-6.139-4.525,21.434,21.434,0,0,1-6.508,4.525L231.875,23.2a19.542,19.542,0,0,0,6.959-4.578,33.812,33.812,0,0,1-2.355-4.445,5.778,5.778,0,0,1-.529.767l-2.487-1.031a20.93,20.93,0,0,0,3.122-5.874l2.17.873c.211.079.529.238.529.423,0,.133-.212.212-.291.238-.265.106-.291.132-.344.238a25.5,25.5,0,0,1-1.641,3.467l1.641-.9a20.965,20.965,0,0,0,1.852,4.075,15.215,15.215,0,0,0,1.826-4.578l1.746.371a19.643,19.643,0,0,0-2.725-2.964l2.2-1.481a32.933,32.933,0,0,1,4.63,5.424l-2.567,1.481a16.751,16.751,0,0,0-.9-1.587,18.1,18.1,0,0,1-2.566,5.556,14.465,14.465,0,0,0,6.482,4.234Zm-12.489-17.6V5.079h5.107V2.565l2.673.106c.4.026.608.079.608.317,0,.106-.053.159-.159.238-.344.265-.4.292-.4.4V5.079h5.9V7.671Z"/><path class="cls-1" d="M251.477,24.737V22.118h9.9V17.091H255.34V14.339h6.033v-4.26H255.71a35.25,35.25,0,0,1-2.434,4.022l-2.831-1.508a18.174,18.174,0,0,0,2.488-3.546,23.914,23.914,0,0,0,2.249-5.926l2.777.767c.556.158.688.264.688.423,0,.132-.079.238-.317.344a.907.907,0,0,0-.556.529,22.128,22.128,0,0,1-.794,2.223h4.393V2.724l3.2.158c.424.027.635.133.635.4,0,.133-.079.239-.291.37-.317.186-.4.318-.4.5V7.407h8.388v2.672h-8.388v4.26H270.4v2.752h-5.874v5.027h9.552v2.619Z"/><path class="cls-1" d="M297.618,19.578a12.776,12.776,0,0,1-6.165,4.656L289.5,21.509a8.9,8.9,0,0,0,4.762-2.831,8.274,8.274,0,0,0,1.906-5.265,6.237,6.237,0,0,0-1.906-4.63,6.765,6.765,0,0,0-4.5-1.773,37.561,37.561,0,0,1-3.28,11.774c-.794,1.64-2.011,3.863-3.387,3.863-.953,0-5.292-2.381-5.292-7.117A11.412,11.412,0,0,1,289.468,4.311c5.5,0,9.843,3.731,9.843,9.631A9.885,9.885,0,0,1,297.618,19.578ZM283.383,9.391a8.663,8.663,0,0,0-2.646,5.874c0,2.143,1.217,3.255,1.693,3.255,1.376,0,3.652-6.906,4.181-11.034A7.813,7.813,0,0,0,283.383,9.391Z"/><path class="cls-1" d="M316.9,22.356V21.43H303.065V18.52H316.9V9.312H303.118V6.375h16.934V22.356Z"/><path class="cls-1" d="M341.057,23.1V21.959H329.018v1.032H325.87V5.687h18.336V23.1Zm0-14.42H329.018V18.969h12.039Z"/><path class="cls-1" d="M362.352,11.958c-.767,7.038-2.751,9.9-8.467,13.255l-2.7-2.619c5.053-2.434,7.117-4.683,7.911-10.636h-9.605V8.889h9.817a38.871,38.871,0,0,0-.239-5.9l3.546.424c.37.052.793.132.793.4,0,.131-.635.608-.741.767-.052.079-.052.211-.052,1.3,0,.053-.027,1.641-.053,3.017h7.99v3.069Z"/><path class="cls-1" d="M395.766,22.409a28.062,28.062,0,0,1-5.292-6.694v9.472h-3.016V15.609a24.56,24.56,0,0,1-5.16,7.144l-2.751-1.641v4.049h-2.885v-11.4a10.444,10.444,0,0,1-1.031,1.349l-2.647-1.428a28.8,28.8,0,0,0,5.662-10.954l2.938.873c.132.026.556.212.556.423a.293.293,0,0,1-.212.265c-.53.158-.609.185-.688.4A30.681,30.681,0,0,1,379.785,7.8c.4.264.5.343.5.582,0,.185-.265.37-.344.423-.052.026-.4.265-.4.476V20.663a20.493,20.493,0,0,0,6.9-9.949h-5.529V7.989h6.535V2.644l2.619.132c.186,0,.873-.026.873.318,0,.212-.264.4-.476.635v4.26h6.588v2.725h-6.006a27.08,27.08,0,0,0,7.171,9.552Z"/><path class="cls-1" d="M420.58,20.054c-1.4-1.085-2.142-1.588-2.752-1.984a14.748,14.748,0,0,1-5.238,6.588l-2.619-1.826a12.793,12.793,0,0,0,5.264-6.218,16.372,16.372,0,0,0-5.291-1.481c-2.62,5.609-3.757,7.3-6.086,7.3-1.8,0-2.99-1.456-2.99-3.414a6.58,6.58,0,0,1,3.122-5.239,7.145,7.145,0,0,1,4.207-1.27,61.141,61.141,0,0,0,2.144-5.741,18.511,18.511,0,0,1-4.816.82l-1.19-2.673c4.074.027,7.2-.5,8.625-1.428l1.746,1.746a10.759,10.759,0,0,0-1.375,2.249c-.027.106-1.905,4.366-2.276,5.186a17.022,17.022,0,0,1,5.107,1.217,22.555,22.555,0,0,0,.688-4.842l2.963.82c.264.08.635.212.635.45,0,.133-.026.159-.4.344-.211.132-.211.185-.291.556a32.057,32.057,0,0,1-.9,3.942c1.455.82,2.276,1.323,3.413,2.064Zm-16.96-1.64c0,.688.344.714.529.714a1.207,1.207,0,0,0,1.112-.635,30.16,30.16,0,0,0,1.746-3.281C404.731,15.926,403.62,17.435,403.62,18.414Z"/><path class="cls-1" d="M445.5,19.578a12.767,12.767,0,0,1-6.165,4.656l-1.958-2.725a8.908,8.908,0,0,0,4.763-2.831,8.277,8.277,0,0,0,1.9-5.265,6.24,6.24,0,0,0-1.9-4.63,6.765,6.765,0,0,0-4.5-1.773,37.581,37.581,0,0,1-3.281,11.774c-.794,1.64-2.011,3.863-3.386,3.863-.954,0-5.292-2.381-5.292-7.117A11.411,11.411,0,0,1,437.352,4.311c5.5,0,9.842,3.731,9.842,9.631A9.892,9.892,0,0,1,445.5,19.578ZM431.267,9.391a8.665,8.665,0,0,0-2.647,5.874c0,2.143,1.218,3.255,1.693,3.255,1.376,0,3.652-6.906,4.181-11.034A7.8,7.8,0,0,0,431.267,9.391Z"/><path class="cls-1" d="M464.786,22.356V21.43H450.948V18.52h13.838V9.312H451V6.375h16.934V22.356Z"/><path class="cls-1" d="M477.112,10.026a23.936,23.936,0,0,0-5.424-3.334L473.3,4.205a24.7,24.7,0,0,1,5.555,3.281Zm7.753,7.2a35.556,35.556,0,0,1-9.975,5.9c-.132.371-.185.82-.4.82-.159,0-.4-.158-.582-.5l-1.852-3.175a24.778,24.778,0,0,0,9.816-4.578,36.885,36.885,0,0,0,7.752-8.1l1.826,2.646A37.212,37.212,0,0,1,484.865,17.223Z"/><path class="cls-1" d="M505.474,13.386a13.592,13.592,0,0,1-1.667,6.853,12.344,12.344,0,0,1-5.874,4.922l-2.593-2.17c5.292-1.905,6.932-4.445,7.064-9.6h-8.889V10.661H513.49v2.725Zm-8.362-6.561V3.967h12.807V6.825Z"/><path class="cls-1" d="M534.205,23.388a41.69,41.69,0,0,0-6.456-6.615,25.523,25.523,0,0,1-9.049,6.8l-2.328-2.407a23.481,23.481,0,0,0,8.44-5.716,21.16,21.16,0,0,0,4.5-7.223H519.229V5.158h11.4a2.511,2.511,0,0,0,1.375-.582l2.038,2.249a3.668,3.668,0,0,0-1.429,1.587,31.969,31.969,0,0,1-3.069,5.927,52.958,52.958,0,0,1,7.011,6.535Z"/><path class="cls-1" d="M552.512,18.255a26.932,26.932,0,0,0-7.779-5.292v11.43h-3.122V3.438l3.175.556c.079.026.635.106.635.423,0,.159-.688.582-.688.714V12.09l1.244-1.958a23.636,23.636,0,0,1,4.5,2.408,32.559,32.559,0,0,1,4.128,3.175Z"/></svg>