<svg id="レイヤー_1" data-name="レイヤー 1" xmlns="http://www.w3.org/2000/svg" viewBox="0 0 723.486 95.798"><defs><style>.cls-1{fill:#005b9e;}</style></defs><path class="cls-1" d="M17.31,88.782V43.547h6.8a29.8,29.8,0,0,1,7.236.7,10.877,10.877,0,0,1,4.6,2.373,12.334,12.334,0,0,1,3.018,4.307A13.047,13.047,0,0,1,40.1,56.2a10.688,10.688,0,0,1-3.72,8.233,10.934,10.934,0,0,1,5.683,4.306A12.75,12.75,0,0,1,40.425,84.8a12.3,12.3,0,0,1-5.068,3.135,29.454,29.454,0,0,1-7.7.85Zm6.826-25.811h2.139q3.809,0,5.581-1.685a6.532,6.532,0,0,0,1.773-4.965,6.23,6.23,0,0,0-1.817-4.849,7.574,7.574,0,0,0-5.273-1.655h-2.4Zm0,19.4h4.219q4.629,0,6.8-1.817a6.28,6.28,0,0,0,2.285-4.98,6.38,6.38,0,0,0-2.2-4.922q-2.139-1.962-7.647-1.963H24.136Z" transform="translate(-17.31 -8.511)"/><path class="cls-1" d="M77.515,76.067H57.066a8.668,8.668,0,0,0,2.285,5.6,6.965,6.965,0,0,0,5.186,2.051,6.74,6.74,0,0,0,4.072-1.172,16.643,16.643,0,0,0,3.6-4.336l5.566,3.106a22.131,22.131,0,0,1-2.725,3.764,14.487,14.487,0,0,1-3.076,2.579,12.342,12.342,0,0,1-3.545,1.479A17.288,17.288,0,0,1,64.3,89.6a13.427,13.427,0,0,1-10.253-4.1q-3.869-4.131-3.868-10.957,0-6.767,3.75-10.957a12.93,12.93,0,0,1,10.02-4.131q6.3,0,9.961,4.014,3.631,3.984,3.633,11.045Zm-6.767-5.391Q69.369,65.4,64.1,65.4a6.827,6.827,0,0,0-2.255.366,6.427,6.427,0,0,0-1.919,1.055,6.659,6.659,0,0,0-1.48,1.655,7.668,7.668,0,0,0-.937,2.2Z" transform="translate(-17.31 -8.511)"/><path class="cls-1" d="M93.717,83.479,80.884,60.246h7.647l8.73,16.407,8.145-16.407h7.441L90.113,104.309H82.584Z" transform="translate(-17.31 -8.511)"/><path class="cls-1" d="M115.982,74.309a14.182,14.182,0,0,1,4.424-10.518,15.605,15.605,0,0,1,21.621.03A15.277,15.277,0,0,1,142,85.3,15.122,15.122,0,0,1,131.07,89.6a14.5,14.5,0,0,1-10.752-4.4A14.776,14.776,0,0,1,115.982,74.309Zm6.738.117a9.622,9.622,0,0,0,2.286,6.768,8.881,8.881,0,0,0,12.363.029,9.383,9.383,0,0,0,2.314-6.65,9.385,9.385,0,0,0-2.314-6.651,8.773,8.773,0,0,0-12.305,0A9.168,9.168,0,0,0,122.72,74.426Z" transform="translate(-17.31 -8.511)"/><path class="cls-1" d="M153.394,60.246h6.621v2.637a10.808,10.808,0,0,1,7.793-3.428,9.842,9.842,0,0,1,7.764,3.135q2.4,2.666,2.4,8.7V88.782h-6.621V72.844q0-4.218-1.172-5.83-1.142-1.641-4.16-1.641-3.28,0-4.658,2.168-1.347,2.139-1.348,7.471v13.77h-6.621Z" transform="translate(-17.31 -8.511)"/><path class="cls-1" d="M207.33,39.3h6.621V88.782H207.33V85.793a12.3,12.3,0,0,1-8.819,3.809,12.551,12.551,0,0,1-9.726-4.278,15.9,15.9,0,0,1-3.838-10.9,15.375,15.375,0,0,1,3.838-10.664,12.325,12.325,0,0,1,18.545-.2ZM191.685,74.426a9.939,9.939,0,0,0,2.2,6.68,7.192,7.192,0,0,0,5.683,2.607,7.563,7.563,0,0,0,5.918-2.519,10.845,10.845,0,0,0,0-13.243,7.458,7.458,0,0,0-5.859-2.548,7.287,7.287,0,0,0-5.684,2.578A9.5,9.5,0,0,0,191.685,74.426Z" transform="translate(-17.31 -8.511)"/><path class="cls-1" d="M275.474,45.979v8.086q-5.917-4.951-12.246-4.951a15.592,15.592,0,0,0-11.748,5.009,16.893,16.893,0,0,0-4.8,12.188,16.486,16.486,0,0,0,4.8,12.012,15.868,15.868,0,0,0,11.778,4.892,14.458,14.458,0,0,0,6.123-1.172,17.682,17.682,0,0,0,2.915-1.582,34.42,34.42,0,0,0,3.178-2.4v8.232a24.645,24.645,0,0,1-12.3,3.311,22.7,22.7,0,0,1-16.553-6.768,22.436,22.436,0,0,1-6.826-16.465,23.227,23.227,0,0,1,5.713-15.41A22.746,22.746,0,0,1,263.7,42.668,23.094,23.094,0,0,1,275.474,45.979Z" transform="translate(-17.31 -8.511)"/><path class="cls-1" d="M281.832,65.959a22.15,22.15,0,0,1,7-16.406A23.046,23.046,0,0,1,305.592,42.7a23.657,23.657,0,0,1,23.525,23.525,22.241,22.241,0,0,1-6.973,16.553,23.9,23.9,0,0,1-32.636.761Q281.831,76.829,281.832,65.959Zm6.885.088a16.347,16.347,0,0,0,5.039,12.334,16.69,16.69,0,0,0,23.584-.088,16.66,16.66,0,0,0,4.892-12.129A16.578,16.578,0,0,0,317.4,54.035a16.871,16.871,0,0,0-23.818,0A16.322,16.322,0,0,0,288.717,66.047Z" transform="translate(-17.31 -8.511)"/><path class="cls-1" d="M339.986,43.547,352.5,74.9l12.685-31.348h7.471l-20.3,48.633L332.515,43.547Z" transform="translate(-17.31 -8.511)"/><path class="cls-1" d="M385.1,43.547V88.782h-6.826V43.547Z" transform="translate(-17.31 -8.511)"/><path class="cls-1" d="M395.972,88.782V43.547h9.493A34.559,34.559,0,0,1,416.246,44.9a20.186,20.186,0,0,1,7.705,4.482q7,6.389,7,16.787,0,10.431-7.295,16.875a21.294,21.294,0,0,1-7.676,4.483,34.928,34.928,0,0,1-10.635,1.26Zm6.827-6.416h3.076a25.682,25.682,0,0,0,7.646-.967,15.526,15.526,0,0,0,10.547-15.235,15.717,15.717,0,0,0-4.98-12.07q-4.484-4.131-13.213-4.131H402.8Z" transform="translate(-17.31 -8.511)"/><path class="cls-1" d="M434.117,71.408h13.066v5.743H434.117Z" transform="translate(-17.31 -8.511)"/><path class="cls-1" d="M463.443,49.934h-7.822l3.75-6.387h10.9V88.782h-6.826Z" transform="translate(-17.31 -8.511)"/><path class="cls-1" d="M497.691,90.334l-5.01-3.72,10.811-14.737q-.879.117-1.494.176c-.41.04-.742.059-1,.059a12.714,12.714,0,0,1-9.493-4.19A13.965,13.965,0,0,1,487.525,57.9a15.156,15.156,0,0,1,15.088-15.118,15.005,15.005,0,0,1,10.752,4.4,13.8,13.8,0,0,1,4.57,10.312q0,5.274-4.453,11.4Zm-3.516-32.929a8.359,8.359,0,0,0,2.491,6.152,8.556,8.556,0,1,0,12.1-12.1,8.558,8.558,0,0,0-12.07,0A8.133,8.133,0,0,0,494.175,57.405Z" transform="translate(-17.31 -8.511)"/><path class="cls-1" d="M578.609,45.979v8.086q-5.918-4.951-12.246-4.951a15.593,15.593,0,0,0-11.748,5.009,16.893,16.893,0,0,0-4.805,12.188,16.486,16.486,0,0,0,4.805,12.012,15.867,15.867,0,0,0,11.777,4.892,14.448,14.448,0,0,0,6.123-1.172,17.562,17.562,0,0,0,2.915-1.582,34.291,34.291,0,0,0,3.179-2.4v8.232A24.646,24.646,0,0,1,566.3,89.6a22.7,22.7,0,0,1-16.552-6.768,22.437,22.437,0,0,1-6.827-16.465,23.232,23.232,0,0,1,5.713-15.41,22.748,22.748,0,0,1,18.194-8.291A23.094,23.094,0,0,1,578.609,45.979Z" transform="translate(-17.31 -8.511)"/><path class="cls-1" d="M584.615,74.309a14.182,14.182,0,0,1,4.424-10.518,15.605,15.605,0,0,1,21.621.03,15.279,15.279,0,0,1-.029,21.474A15.122,15.122,0,0,1,599.7,89.6a14.5,14.5,0,0,1-10.752-4.4A14.776,14.776,0,0,1,584.615,74.309Zm6.738.117a9.626,9.626,0,0,0,2.285,6.768A8.882,8.882,0,0,0,606,81.223a9.378,9.378,0,0,0,2.314-6.65A9.381,9.381,0,0,0,606,67.922a8.773,8.773,0,0,0-12.3,0A9.168,9.168,0,0,0,591.353,74.426Z" transform="translate(-17.31 -8.511)"/><path class="cls-1" d="M622.027,60.246h6.621v2.637a10.806,10.806,0,0,1,7.793-3.428,9.843,9.843,0,0,1,7.764,3.135q2.4,2.666,2.4,8.7V88.782h-6.621V72.844q0-4.218-1.172-5.83-1.143-1.641-4.16-1.641-3.281,0-4.658,2.168-1.348,2.139-1.348,7.471v13.77h-6.621Z" transform="translate(-17.31 -8.511)"/><path class="cls-1" d="M661.724,66.4V88.782h-6.591V66.4H652.32V60.246h2.813V49.787h6.591V60.246h5.127V66.4Z" transform="translate(-17.31 -8.511)"/><path class="cls-1" d="M697.32,76.067H676.871a8.662,8.662,0,0,0,2.285,5.6,6.965,6.965,0,0,0,5.186,2.051,6.74,6.74,0,0,0,4.072-1.172,16.644,16.644,0,0,0,3.6-4.336l5.567,3.106a22.131,22.131,0,0,1-2.725,3.764,14.487,14.487,0,0,1-3.076,2.579,12.342,12.342,0,0,1-3.545,1.479,17.282,17.282,0,0,1-4.131.469,13.43,13.43,0,0,1-10.254-4.1q-3.867-4.131-3.867-10.957,0-6.767,3.75-10.957a12.929,12.929,0,0,1,10.02-4.131q6.3,0,9.961,4.014,3.632,3.984,3.632,11.045Zm-6.768-5.391Q689.175,65.4,683.9,65.4a6.833,6.833,0,0,0-2.256.366,6.451,6.451,0,0,0-1.919,1.055,6.675,6.675,0,0,0-1.479,1.655,7.7,7.7,0,0,0-.938,2.2Z" transform="translate(-17.31 -8.511)"/><path class="cls-1" d="M721.109,65.11l-5.449,2.9q-1.29-2.637-3.193-2.637a2.2,2.2,0,0,0-1.553.6,2.007,2.007,0,0,0-.645,1.538q0,1.641,3.809,3.252,5.244,2.256,7.06,4.16a7.122,7.122,0,0,1,1.817,5.127,8.984,8.984,0,0,1-3.047,6.914,10.372,10.372,0,0,1-7.149,2.637q-7.178,0-10.166-7l5.625-2.608a12.209,12.209,0,0,0,1.788,2.608,4.071,4.071,0,0,0,2.871,1.113q3.339,0,3.34-3.047,0-1.758-2.579-3.281-1-.5-1.992-.967t-2.021-.967a12.372,12.372,0,0,1-4.043-2.812,6.93,6.93,0,0,1-1.494-4.6,8.141,8.141,0,0,1,2.548-6.152,8.945,8.945,0,0,1,6.329-2.432Q718.443,59.455,721.109,65.11Z" transform="translate(-17.31 -8.511)"/><path class="cls-1" d="M735.67,66.4V88.782h-6.592V66.4h-2.813V60.246h2.813V49.787h6.592V60.246H740.8V66.4Z" transform="translate(-17.31 -8.511)"/><path class="cls-1" d="M192.68,22.261a43.613,43.613,0,0,0,5.206-9.268l2.825.91a.514.514,0,0,1,.42.421.312.312,0,0,1-.256.326c-.467.187-.514.211-.631.468a44.81,44.81,0,0,1-4.879,8.5Zm9.5-13.424,2.965.257c.093,0,.49.047.49.327a.529.529,0,0,1-.233.35c-.047.047-.374.3-.374.42V26.137c0,1.727-.7,2.405-4.669,2.451L199.1,25.74c.84.093,1.844.163,2.194.163a.768.768,0,0,0,.887-.794Zm9.595,14.989a44.26,44.26,0,0,1-5.7-9.712l2.568-1.144a38.109,38.109,0,0,0,5.789,9.1Z" transform="translate(-17.31 -8.511)"/><path class="cls-1" d="M233.728,22.938V22h-5.37v6.631h-2.685V22h-5.322v1.028h-2.685V12.549h8.007V8.581l2.918.256c.14.024.35.047.35.257,0,.164-.163.257-.256.327-.187.117-.327.21-.327.35v2.778h8.054V22.938Zm-8.055-7.844h-5.322v4.389h5.322Zm8.055,0h-5.37v4.389h5.37Z" transform="translate(-17.31 -8.511)"/><path class="cls-1" d="M240.41,12.269V10.191h8.5V8.511l2.824.233c.094,0,.561.024.561.234,0,.116-.117.21-.257.28-.163.117-.234.186-.234.28v.653h8.382v2.078Zm16.6,16.716h-1.261L254.7,26.627c.187,0,.911.047,1.191.047.724,0,.887-.047.887-.771V20.65H243.748v8.032h-2.615v-9.9h18.28v8.311C259.413,28.168,258.5,28.985,257.009,28.985ZM244.635,17.849V13.2h11.276v4.646Zm3.595,8.4v.864h-2.357V21.678h9.011v4.575Zm5.09-11.369h-6.07v1.307h6.07Zm-.817,8.358H248.23V24.5H252.5Z" transform="translate(-17.31 -8.511)"/><path class="cls-1" d="M263.667,28.121V25.81H272.4V21.374h-5.323V18.946H272.4V15.188h-5a31.436,31.436,0,0,1-2.148,3.548l-2.5-1.331a15.97,15.97,0,0,0,2.194-3.128,21,21,0,0,0,1.985-5.23l2.451.678c.49.14.607.233.607.373,0,.117-.07.21-.28.3a.8.8,0,0,0-.49.468,20.115,20.115,0,0,1-.7,1.961H272.4V8.7l2.825.14c.373.024.56.117.56.351,0,.116-.07.209-.257.327-.28.163-.35.279-.35.443V12.83h7.4v2.358h-7.4v3.758h5.183v2.428h-5.183V25.81h8.428v2.311Z" transform="translate(-17.31 -8.511)"/><path class="cls-1" d="M305.042,23.569a11.28,11.28,0,0,1-5.44,4.109l-1.728-2.405a7.871,7.871,0,0,0,4.2-2.5,7.309,7.309,0,0,0,1.68-4.646,5.506,5.506,0,0,0-1.68-4.086,5.976,5.976,0,0,0-3.969-1.564,33.148,33.148,0,0,1-2.895,10.389c-.7,1.448-1.775,3.409-2.988,3.409-.841,0-4.67-2.1-4.67-6.28a10.07,10.07,0,0,1,10.3-9.9c4.856,0,8.685,3.292,8.685,8.5A8.731,8.731,0,0,1,305.042,23.569Zm-12.561-8.988a7.645,7.645,0,0,0-2.334,5.182c0,1.891,1.074,2.872,1.494,2.872,1.214,0,3.222-6.093,3.689-9.736A6.894,6.894,0,0,0,292.481,14.581Z" transform="translate(-17.31 -8.511)"/><path class="cls-1" d="M324.984,26.02V25.2h-12.21V22.635h12.21V14.51H312.821V11.919h14.941v14.1Z" transform="translate(-17.31 -8.511)"/><path class="cls-1" d="M349.036,26.674v-1H338.413v.91h-2.778V11.312h16.178V26.674Zm0-12.724H338.413v9.082h10.623Z" transform="translate(-17.31 -8.511)"/><path class="cls-1" d="M369.142,16.845c-.678,6.21-2.429,8.732-7.471,11.7L359.29,26.23c4.459-2.147,6.279-4.132,6.98-9.385H357.8V14.137h8.662a34.391,34.391,0,0,0-.21-5.206l3.128.373c.327.047.7.117.7.35,0,.117-.56.537-.653.678-.047.069-.047.187-.047,1.144,0,.046-.023,1.447-.047,2.661h7.051v2.708Z" transform="translate(-17.31 -8.511)"/><path class="cls-1" d="M399.286,26.067a24.719,24.719,0,0,1-4.669-5.907v8.358h-2.661V20.067a21.7,21.7,0,0,1-4.553,6.3l-2.427-1.447V28.5h-2.545V18.433a9.251,9.251,0,0,1-.911,1.19l-2.334-1.261a25.431,25.431,0,0,0,5-9.665l2.59.771c.118.023.491.186.491.373a.256.256,0,0,1-.187.234c-.467.14-.537.163-.606.35a27.332,27.332,0,0,1-1.284,2.755c.349.233.443.3.443.513,0,.164-.233.327-.3.374-.047.023-.349.233-.349.42V24.526a18.077,18.077,0,0,0,6.092-8.778h-4.879v-2.4h5.767V8.627l2.311.117c.164,0,.77-.023.77.28,0,.187-.233.351-.42.56v3.759h5.813v2.4h-5.3a23.893,23.893,0,0,0,6.326,8.428Z" transform="translate(-17.31 -8.511)"/><path class="cls-1" d="M421.844,23.989c-1.238-.957-1.892-1.4-2.428-1.751a13.02,13.02,0,0,1-4.623,5.813l-2.312-1.611a11.293,11.293,0,0,0,4.647-5.486,14.463,14.463,0,0,0-4.67-1.308c-2.311,4.95-3.314,6.444-5.369,6.444a2.724,2.724,0,0,1-2.638-3.011,5.8,5.8,0,0,1,2.755-4.623,6.3,6.3,0,0,1,3.712-1.121,53.911,53.911,0,0,0,1.891-5.066,16.288,16.288,0,0,1-4.249.724l-1.051-2.358c3.595.023,6.35-.444,7.611-1.26l1.541,1.54a9.576,9.576,0,0,0-1.215,1.984c-.022.094-1.68,3.852-2.007,4.577a15.022,15.022,0,0,1,4.5,1.073,19.819,19.819,0,0,0,.608-4.272l2.614.724c.234.07.561.187.561.4,0,.117-.024.141-.35.3-.188.117-.188.164-.257.49a28.085,28.085,0,0,1-.794,3.479c1.284.724,2.008,1.167,3.012,1.821Zm-14.965-1.447c0,.606.3.63.467.63a1.064,1.064,0,0,0,.98-.561,26.326,26.326,0,0,0,1.541-2.894C407.859,20.347,406.879,21.678,406.879,22.542Z" transform="translate(-17.31 -8.511)"/><path class="cls-1" d="M445.147,23.569a11.274,11.274,0,0,1-5.439,4.109l-1.728-2.405a7.868,7.868,0,0,0,4.2-2.5,7.309,7.309,0,0,0,1.68-4.646,5.506,5.506,0,0,0-1.68-4.086,5.978,5.978,0,0,0-3.969-1.564,33.111,33.111,0,0,1-2.9,10.389c-.7,1.448-1.773,3.409-2.988,3.409-.84,0-4.669-2.1-4.669-6.28a10.07,10.07,0,0,1,10.3-9.9c4.855,0,8.685,3.292,8.685,8.5A8.716,8.716,0,0,1,445.147,23.569Zm-12.56-8.988a7.645,7.645,0,0,0-2.334,5.182c0,1.891,1.073,2.872,1.494,2.872,1.214,0,3.222-6.093,3.689-9.736A6.9,6.9,0,0,0,432.587,14.581Z" transform="translate(-17.31 -8.511)"/><path class="cls-1" d="M465.09,26.02V25.2H452.88V22.635h12.21V14.51H452.926V11.919h14.941v14.1Z" transform="translate(-17.31 -8.511)"/><path class="cls-1" d="M480.409,15.141a21.089,21.089,0,0,0-4.786-2.942l1.424-2.194a21.809,21.809,0,0,1,4.9,2.894Zm6.84,6.35a31.38,31.38,0,0,1-8.8,5.206c-.117.327-.164.724-.35.724-.14,0-.35-.14-.514-.444l-1.634-2.8a21.875,21.875,0,0,0,8.661-4.039,32.524,32.524,0,0,0,6.841-7.144l1.61,2.335A32.792,32.792,0,0,1,487.249,21.491Z" transform="translate(-17.31 -8.511)"/><path class="cls-1" d="M508.942,18.106a11.985,11.985,0,0,1-1.47,6.046,10.889,10.889,0,0,1-5.183,4.343L500,26.58c4.669-1.681,6.116-3.922,6.233-8.474H498.39V15.7h17.627v2.405Zm-7.377-5.79V9.794h11.3v2.522Z" transform="translate(-17.31 -8.511)"/><path class="cls-1" d="M537.336,26.931a36.861,36.861,0,0,0-5.7-5.837,22.552,22.552,0,0,1-7.985,6L521.6,24.969a20.69,20.69,0,0,0,7.447-5.042,18.686,18.686,0,0,0,3.969-6.374h-8.9V10.845h10.062a2.211,2.211,0,0,0,1.214-.513l1.8,1.984a3.239,3.239,0,0,0-1.26,1.4,28.222,28.222,0,0,1-2.708,5.229,46.711,46.711,0,0,1,6.187,5.767Z" transform="translate(-17.31 -8.511)"/><path class="cls-1" d="M560.71,22.4a23.791,23.791,0,0,0-6.864-4.669V27.818h-2.755V9.328l2.8.49c.07.023.56.093.56.373,0,.141-.607.514-.607.631v6.14l1.1-1.728a20.84,20.84,0,0,1,3.969,2.125,28.559,28.559,0,0,1,3.642,2.8Z" transform="translate(-17.31 -8.511)"/></svg>