<svg id="レイヤー_1" data-name="レイヤー 1" xmlns="http://www.w3.org/2000/svg" xmlns:xlink="http://www.w3.org/1999/xlink" viewBox="0 0 499.87 500"><defs><style>.cls-1{fill:none;}.cls-2{fill:#00c0f8;}.cls-3{clip-path:url(#clip-path);}.cls-4{clip-path:url(#clip-path-2);}.cls-5{fill:#f6c555;}.cls-6{fill:#e0a33a;}.cls-7{fill:#fff;}</style><clipPath id="clip-path"><rect class="cls-1" x="116.18" y="117.37" width="267.37" height="280.64"/></clipPath><clipPath id="clip-path-2"><rect class="cls-1" x="116.18" y="117.38" width="267.37" height="280.64"/></clipPath></defs><path class="cls-2" d="M109.83,0H389.91c32.27,0,51.63,0,64.53,5.33a66.63,66.63,0,0,1,40,39.6c5.39,12.77,5.39,31.92,5.39,63.84V391.23c0,31.92,0,51.07-5.39,63.84a66.63,66.63,0,0,1-40,39.6C441.54,500,422.18,500,389.91,500H109.83c-32.27,0-51.63,0-64.53-5.33a66.63,66.63,0,0,1-40-39.6C-.13,442.3-.13,423.15-.13,391.23V108.77c0-31.92,0-51.07,5.39-63.84a66.63,66.63,0,0,1,40-39.6C58.2,0,77.56,0,109.83,0Z"/><g class="cls-3"><g class="cls-4"><path class="cls-5" d="M375.23,314.2l-.09-.16c2.82,23.11,1.05,25.5-23.2,31.74-4.4,1.13-8.77,2.39-13.07,3.82-36,12-73.33,17.34-110.9,21.53-28.55,3.18-57.42.93-85.92,5.13-11.14,1.64-16.49-5.18-12-15.39,3.84-8.81,3.81-17.7,1.73-26.47-10.37-43.71,3.6-81.06,30.4-115.15,2.92-3.71,6.73-7.46,10.81-1.46,3.53,5.19,7.91,10.69,8.89,16.54,5.71,34,1.76,66.84-15.87,97.26-2.49,4.3-4.27,8.31-.82,12.35s8.24,3.25,12.74,1.87c3.26-1,5.83-5.72,9.75-2.79,11,8.23,14.53-.57,18.24-7.75a392.36,392.36,0,0,1,25.29-41.69c12.58-18.37,28.75-29.83,52.39-28.29,3.94.26,8.37,1.2,11.53-2.58,32.31,0,60.63,24.7,79.83,48.17"/><path class="cls-6" d="M295.09,262.7c-3.16,3.79-7.6,2.85-11.53,2.59-23.64-1.54-39.81,9.91-52.39,28.29a392.36,392.36,0,0,0-25.29,41.69c-3.71,7.18-7.23,16-18.24,7.75-3.92-2.93-6.49,1.79-9.75,2.79-4.5,1.39-9.33,2.11-12.74-1.88s-1.67-8,.82-12.34c17.63-30.41,21.58-63.23,15.87-97.26-1-5.85-5.36-11.35-8.89-16.54-4.08-6-7.89-2.25-10.81,1.46-26.81,34.09-40.77,71.43-30.4,115.15,2.08,8.78,2.11,17.66-1.73,26.47-4.45,10.21.9,17,12,15.39,28.5-4.2,57.37-1.95,85.92-5.13,37.56-4.19,74.88-9.57,110.9-21.53,4.3-1.43,8.67-2.69,13.06-3.82,24.26-6.24,26-8.63,23.21-31.74,8.25,5.67,9.68,14.6,7.51,22.6-4.36,16.13-12.47,29.76-29.22,37.63-46.08,21.64-94.67,26.58-144.66,22.37-21.9-1.85-43.63-4.21-65.71-2.22-21.6,1.94-29.13-5.56-26.3-26.39,4.82-35.51.64-72.36,15.85-106.34,14-31.17,22.12-63.77,25.72-97.58.62-5.8,2.31-11.47,7.16-15.55-.77,14,4.33,27.51,3.1,41.59-.86,9.77,6.53,12.28,13.53,9.92,16.3-5.5,33.8-8.49,48.13-18.72,4.23-3,7.87-6.12,13.44-5.09-5.48,15.46-16,26.29-31.93,30.75-9.48,2.66-11.78,8.39-11.95,16.82C199.35,245.9,198,268,198.27,290c.15,11.46-7.31,22.07-3.05,36.08,11.59-18,22.69-34,37.48-47.07,18-15.91,39.19-19.79,62.39-16.34"/><path class="cls-5" d="M243.69,176.26c-5.57-1-9.21,2.08-13.44,5.09-14.33,10.23-31.83,13.22-48.14,18.72-7,2.36-14.38-.15-13.52-9.92,1.23-14.08-3.87-27.61-3.1-41.59l-.05.24c6,0,5.8-4.34,6.05-8.37,3.06-4.47,6.16-8.92,9.18-13.42,6.16-9.2,14.25-11.81,24.84-7.83,11.5,4.33,23.42,7.65,34.71,12.44,8.15,3.46,17,8.24,6.51,18.57-3.63,3.59.56,4.33,2,5.84,3.23,3.42,6,6.86,4.62,11.95-3.62.27-5,2.34-4.79,5.74l.09-.33-3,2.57-.92.39Zm-3.05-22.64c-8.22,3.5-13.63,6.64-19.46,8-6.24,1.48-13.54,2.16-13.34-7.8.06-2.78,3.37-7.15-2-7.07-7,.11-3,8.4-6.94,11.54-2.13,1.68-3.17,4.38.32,6.49,7.08,4.27,32.78-1.4,41.44-11.19"/><path class="cls-6" d="M171.49,140.43c-.25,4,0,8.4-6.05,8.37a9.64,9.64,0,0,1,6.05-8.37"/><path class="cls-6" d="M248.54,173.72c-.24-3.4,1.17-5.47,4.79-5.74.59,3.69-1.34,5.32-4.79,5.74"/><path class="cls-6" d="M245.61,176c1-.85,2-1.7,3-2.56a2.77,2.77,0,0,1-3,2.56"/><path class="cls-6" d="M240.64,153.62c-8.66,9.79-34.36,15.46-41.44,11.19-3.49-2.11-2.45-4.81-.32-6.49,4-3.14-.1-11.43,6.94-11.54,5.39-.08,2.08,4.29,2,7.07-.2,10,7.1,9.28,13.34,7.8,5.83-1.39,11.24-4.53,19.46-8"/></g></g><path class="cls-7" d="M94.28,68.08q0-6.6,6.66-6.6h16.24V51.93H103.34q-6.68,0-6.67-6.6t6.67-6.59H141.2q6.66,0,6.66,6.59t-6.66,6.6H130.77v9.55h12.91q6.66,0,6.66,6.6t-6.66,6.59h-13a28.23,28.23,0,0,1-4.79,14,39.8,39.8,0,0,1-8.85,9.21,51.21,51.21,0,0,1-12.69,6.43q-5.89,2-8.2-4.06-2-6.42,4.1-8.45,8.8-2.88,12.31-7.1a20.06,20.06,0,0,0,4.36-10h-16q-6.66,0-6.66-6.59Zm68.8,1q-4.79,0-5.21-5.33,0-5.49,4.95-5.83l3.25-.08-.43-5.08q-.67-5.49,5.22-6.08,5.46-.09,5.81,5.15l.6,5.75,18.8-.42q6.41-.09,9.66,4.18T206.58,72a44.17,44.17,0,0,1-5.3,9.09,38,38,0,0,1-7.77,7.32c-2.74,2.53-5.36,2.34-7.87-.6q-1.78-4.56,1.46-7.44A39.5,39.5,0,0,0,195,71.46c.8-2.26.28-3.36-1.54-3.3l-14.79.51,3.85,32.63c.46,3.33-1.08,5.24-4.62,5.75q-5.46.42-6.32-4.9l-4.1-33.23Zm104.61-7.78q5.13,3.81,2.4,8.79-2,4.83-8.55,13.19a57.88,57.88,0,0,1-13.68,13q-7.1,4.61-9.82,5.28-7.62,2.63-12.61-1.52t-5.09-11.58V44.66q0-6.67,6.76-6.68t6.83,6.68V84.05c.12,2.71,1.34,3.78,3.68,3.22a40.25,40.25,0,0,0,5.51-3.38A38.27,38.27,0,0,0,252,75.22a63.13,63.13,0,0,0,6.79-10.86q2.91-6,8.89-3Zm14.19-15.13q0-6.6,6.66-6.6h14.7q6.67,0,6.67,6.6t-6.67,6.59h-14.7q-6.66,0-6.66-6.59Zm50.68,8q5.73,2.63,3.76,8.12-2.31,7.86-8.93,17.12A68,68,0,0,1,313,94.5q-7.74,5.79-22.86,9.08-5.9,1.11-7.52-5.41-.86-6.67,5.47-7.78,11-1.85,17.43-6.84A61.36,61.36,0,0,0,317,71.92a47.69,47.69,0,0,0,7.4-14q2.13-5.16,8.2-3.72Zm66,0q5.73,2.63,3.76,8.12-2.31,7.86-8.93,17.12a64.08,64.08,0,0,1-14.7,15q-8.07,5.79-23.2,9.08-5.89,1.11-7.52-5.41-.85-6.67,5.47-7.78,11-1.85,17.77-6.84a57.07,57.07,0,0,0,11.75-11.63,47.69,47.69,0,0,0,7.4-14q2.13-5.16,8.2-3.72Zm-50.68-9.05q0-6.58,6.67-6.59H367.6q6.67,0,6.67,6.59t-6.67,6.68H354.53q-6.67,0-6.67-6.59Zm0,20.55q0-6.6,6.67-6.6H367.6q6.67,0,6.67,6.6t-6.67,6.68H354.53q-6.67,0-6.67-6.6ZM391,41.19c0-1.91,1-2.87,2.91-2.87s3,1,3,2.87v6.43c0,1.91-1,2.87-2.91,2.87s-3-1-3-2.87Zm9.23,0c0-1.91,1-2.87,2.91-2.87s3,1,3,2.87v6.43c0,1.91-1,2.87-2.91,2.87s-3-1-3-2.87Z"/><path class="cls-7" d="M92.35,447.15q1.08.69,3.54,2.51a2.53,2.53,0,0,1,1.13,1.9,1.89,1.89,0,0,1,0,.39,2.58,2.58,0,0,1-.66,1.72,2.32,2.32,0,0,1-1.88.91h0a2.41,2.41,0,0,1-1.88-.82l0,0a.16.16,0,0,0-.18-.05.15.15,0,0,0-.09.13v4.89a3,3,0,0,1-.91,2.2,3.06,3.06,0,0,1-2.23.91,3,3,0,0,1-2.23-.91,3,3,0,0,1-.92-2.2v-3.81a.12.12,0,0,0-.11-.12c-.07,0-.12,0-.15,0q-1,1.29-2.1,2.46a2.56,2.56,0,0,1-1.87.78h-.22A3.29,3.29,0,0,1,79.42,457a2.68,2.68,0,0,1-.7-1.86,2.8,2.8,0,0,1,1-2.16,28.44,28.44,0,0,0,4.89-5.49.23.23,0,0,0,0-.26.25.25,0,0,0-.24-.13h-3a2.68,2.68,0,0,1-1.93-.77,2.57,2.57,0,0,1-.78-1.88,2.65,2.65,0,0,1,.78-1.91,2.62,2.62,0,0,1,1.93-.79h4.28a.38.38,0,0,0,.43-.44v-1.81a.38.38,0,0,0-.43-.43h-4.5a2.57,2.57,0,0,1-1.86-.76,2.5,2.5,0,0,1-.76-1.86,2.53,2.53,0,0,1,.76-1.86,2.56,2.56,0,0,1,1.86-.75h.61a.33.33,0,0,0,.26-.11.23.23,0,0,0,0-.24,8.29,8.29,0,0,0-.35-1.6,2.36,2.36,0,0,1-.08-.56,2.25,2.25,0,0,1,.26-1,2,2,0,0,1,1.27-.95v0H81.6A2.63,2.63,0,0,1,79,426.65a2.47,2.47,0,0,1,.76-1.82,2.56,2.56,0,0,1,1.86-.75h4a.34.34,0,0,0,.39-.39v-.26a3,3,0,0,1,.92-2.21,3.06,3.06,0,0,1,2.23-.9,3.09,3.09,0,0,1,2.23.9,3,3,0,0,1,.91,2.21v.26a.35.35,0,0,0,.4.39h4a2.55,2.55,0,0,1,1.85.75,2.48,2.48,0,0,1,.77,1.82,2.53,2.53,0,0,1-.77,1.83,2.5,2.5,0,0,1-1.85.78h-.79a1.37,1.37,0,0,1,1,1.9l-1,2.29a.28.28,0,0,0,0,.24.22.22,0,0,0,.2.11H97a2.59,2.59,0,0,1,2.62,2.61,2.5,2.5,0,0,1-.77,1.86A2.54,2.54,0,0,1,97,439H92.74a.38.38,0,0,0-.44.43v1.81a.39.39,0,0,0,.44.44h3.71a2.62,2.62,0,0,1,1.93.79,2.65,2.65,0,0,1,.78,1.91,2.57,2.57,0,0,1-.78,1.88,2.68,2.68,0,0,1-1.93.77h-4.1s0,0,0,0,0,0,0,.06ZM91.21,431c.15-.46.28-.91.39-1.34a.28.28,0,0,0,0-.26.29.29,0,0,0-.26-.13H86.62a.28.28,0,0,0-.24.11.37.37,0,0,0,0,.28,14.64,14.64,0,0,1,.66,1.86,2.71,2.71,0,0,1,0,.47,1.77,1.77,0,0,1-.26.91,1.91,1.91,0,0,1-1.18.86v.05h7.16s0,0,0,0,0,0,0,0a2.08,2.08,0,0,1-1.39-1,2,2,0,0,1-.31-1,1.87,1.87,0,0,1,.13-.69Zm25.91-4.8a71.45,71.45,0,0,1-9.75,2.72.49.49,0,0,0-.43.52v4.41a.38.38,0,0,0,.43.43h10a3,3,0,0,1,0,6h-.44a.34.34,0,0,0-.39.39v17.88a3,3,0,0,1-.92,2.21,3.06,3.06,0,0,1-2.23.91,3.1,3.1,0,0,1-2.23-.91,3,3,0,0,1-.91-2.21V440.67a.38.38,0,0,0-.44-.43h-2.45a.38.38,0,0,0-.43.43q-.31,11.93-4.85,18.71a2.19,2.19,0,0,1-1.88,1h0a3.26,3.26,0,0,1-2.17-.93,3.57,3.57,0,0,1-1.11-2.14,3.28,3.28,0,0,1,0-.56,3.41,3.41,0,0,1,.52-1.81,20.63,20.63,0,0,0,2.73-7.39,53.62,53.62,0,0,0,.68-8.86V426.5a2.37,2.37,0,0,1,1-2,2.41,2.41,0,0,1,1.48-.52,2.69,2.69,0,0,1,.73.11,1.36,1.36,0,0,0,.72,0,61.44,61.44,0,0,0,7.33-2.38,5.36,5.36,0,0,1,2.19-.47,4.41,4.41,0,0,1,.83.08,5.16,5.16,0,0,1,2.75,1.21,2.11,2.11,0,0,1,.74,1.6,2,2,0,0,1,0,.43,1.86,1.86,0,0,1-1.35,1.6Zm15.29,21.74a6.59,6.59,0,0,0,.85,3.76A3.34,3.34,0,0,0,135.9,453a12.23,12.23,0,0,0,4.87-1.11,54.23,54.23,0,0,0,6.62-3.6,2.76,2.76,0,0,1,4.19.52,3.45,3.45,0,0,1-.7,4.83,38.08,38.08,0,0,1-4.28,2.88,29.4,29.4,0,0,1-5.11,2.31,19.78,19.78,0,0,1-6,1.08c-3.41-.06-5.87-1-7.39-3s-2.27-4.57-2.27-8V427.06q0-3.24,3.28-3.24c2.18,0,3.28,1.08,3.28,3.24Zm26.07-19.53a3,3,0,0,1,3.41-3.24,2.79,2.79,0,0,1,3,3.24c0,.77,0,2.06-.08,3.84s-.11,3.73-.16,5.81-.08,4-.11,5.77a37.24,37.24,0,0,0,.33,5.53c.22,1.42.69,2.16,1.42,2.25a6.28,6.28,0,0,0,2.32-.52c1.54-1,2.81-.57,3.8,1.21a3.67,3.67,0,0,1-1.79,4.54,5.73,5.73,0,0,1-1.75,1.08,14.76,14.76,0,0,1-3.15.6,5.48,5.48,0,0,1-5.65-3c-1.24-2.2-1.86-5.57-1.86-10.09q0-2.76,0-6.16c0-2.26,0-4.37.09-6.35S158.4,429.43,158.48,428.4Zm18.79.21q-.66-3,2.79-3.11a3.34,3.34,0,0,1,3.5,3.11,71.16,71.16,0,0,1,1.9,11,112.7,112.7,0,0,1,.68,14.54c0,2.36-1.1,3.54-3.28,3.54s-3.17-1-3.14-3c0-1,0-2.64-.07-5.06s-.24-5.07-.5-7.95-.56-5.34-.9-7.37S177.59,430.34,177.27,428.61Zm16.55,21.48a10.7,10.7,0,0,1,2.8-6.61c1.11-1.41,2.47-1.62,4.11-.63s1.89,2.3.78,3.91a4.4,4.4,0,0,0-.83,2.51,2.57,2.57,0,0,0,.44,1.49,3.13,3.13,0,0,0,1.9,1,23.22,23.22,0,0,0,4.56.39,80.75,80.75,0,0,0,8.44-.52q3.4-.51,3.49,3.28c.06,2.08-1.11,3.29-3.49,3.63a55.32,55.32,0,0,1-9.4.65c-4.36,0-7.6-.78-9.69-2.33a7.77,7.77,0,0,1-3.11-6.74Zm19.75-24.63q3.06,0,3.6,2.74t-2.9,5.25l-2.84,2.08a4.78,4.78,0,0,1-4.5,0c-1.08-1.33-1.06-2.48,0-3.46h-9c-2.21,0-3.32-1.1-3.32-3.28s1.11-3.33,3.32-3.33Zm38.75,11.1q0,3.24-2.8,3.29a49.79,49.79,0,0,0-10.22,1.34,15.45,15.45,0,0,0-4.74,2.35,4.75,4.75,0,0,0-2,3.87A4.55,4.55,0,0,0,234,451a6.34,6.34,0,0,0,3.48,1.51,23.26,23.26,0,0,0,4.39.13,72.36,72.36,0,0,0,7.29-.47q3.11-.3,3.15,3.11.08,3.15-2.8,3.5a43.34,43.34,0,0,1-7.51.48,36.19,36.19,0,0,1-7.84-.74,11.44,11.44,0,0,1-6.23-3.63c-1.72-1.9-2.47-4.51-2.27-7.82a12.9,12.9,0,0,1,1.2-4.6,9.28,9.28,0,0,1,2.56-3.16,35.51,35.51,0,0,1,3.19-2.26L231,427.23q-.27-2.42,2.66-2.94c2-.17,3.17.64,3.41,2.42l1.26,8.21q3.86-1.47,11.23-1.77,2.76,0,2.8,3.41Zm6.24-2.72c.21-2.51.44-4.59.7-6.26.41-1.85,1.69-2.71,3.85-2.6q2.79,0,2.62,3.11-.32,2-.61,5.77c-.21,2.49-.32,5.11-.35,7.85,0,2.91.14,5.61.35,8.1s.4,4.41.61,5.77q.16,3.06-2.62,3.11c-2.16.11-3.44-.75-3.85-2.6-.26-1.67-.49-3.75-.7-6.26s-.32-5.13-.35-7.95v0c0-2.86.15-5.52.35-8Zm9.13,15.73a14.29,14.29,0,0,1,1-5.23,2.89,2.89,0,0,1,3.49-1.9c1.87.55,2.51,1.58,1.93,3.11a8.54,8.54,0,0,0-.31,2.2,3.1,3.1,0,0,0,.31,1.56,2.65,2.65,0,0,0,1.42,1.21,8.47,8.47,0,0,0,3.16.52c2.22,0,3.77,0,4.68-.13q3.14-.44,3.32,2.94-.09,3.28-2.8,3.63a53.8,53.8,0,0,1-5.63.39q-5.11-.14-7.78-2.49a7.88,7.88,0,0,1-2.8-5.81Zm14.59-22.38c2.22,0,3.32,1.09,3.32,3.28s-1.1,3.33-3.32,3.33h-10q-3.31,0-3.32-3.29t3.32-3.32Zm25.08-.31a3.52,3.52,0,0,1,2.23,1.69c0,.06.06.08.1.06a.09.09,0,0,0,.07-.1v-5.19a2.8,2.8,0,0,1,.87-2.07,2.91,2.91,0,0,1,2.12-.87,2.94,2.94,0,0,1,2.95,2.94v16.33q0,3.33-.24,5.86a33.84,33.84,0,0,1-.94,5.25,16.63,16.63,0,0,1-5.9,9.07,3.2,3.2,0,0,1-2,.7,3.17,3.17,0,0,1-.53-.05,4.38,4.38,0,0,1-2.35-1.21,2.49,2.49,0,0,1-.75-1.77,2.63,2.63,0,0,1,1-2.12,13.83,13.83,0,0,0,4.76-7,.09.09,0,0,0,0-.13.19.19,0,0,0-.18,0,13.81,13.81,0,0,1-1.18.95,2.58,2.58,0,0,1-1.66.61,4.13,4.13,0,0,1-.57-.05,2.65,2.65,0,0,1-1.88-1.29,3.17,3.17,0,0,1-.43-1.56,3.62,3.62,0,0,1,.09-.82,3.22,3.22,0,0,1,1.44-1.94q2-1.26,4.63-3a.44.44,0,0,1,.41-.06.59.59,0,0,1,.33.28v-5.53a.21.21,0,0,0-.09-.16c-.06,0-.11,0-.17,0a2.19,2.19,0,0,1-1.09.3,2.08,2.08,0,0,1-.75-.13,2.21,2.21,0,0,1-1.39-1.25c-.65-1.44-1.42-3-2.32-4.63a.1.1,0,0,0-.13-.06.1.1,0,0,0-.09.11v.86a2.8,2.8,0,0,1-.87,2.07,2.86,2.86,0,0,1-2.1.87.31.31,0,0,0-.35.34v3.63a.23.23,0,0,0,.11.2.21.21,0,0,0,.2,0,2.56,2.56,0,0,1,.91-.17,2.46,2.46,0,0,1,1.18.3,2.49,2.49,0,0,1,1.27,1.68,3,3,0,0,1-.35,2.29,3.29,3.29,0,0,1-1.75,1.56l-1.13.48a.61.61,0,0,0-.44.6v10.54a10.51,10.51,0,0,1-.44,3.42,4,4,0,0,1-1.52,2,8.26,8.26,0,0,1-3.41,1.08,2.09,2.09,0,0,1-.35,0,3,3,0,0,1-2-.74,4.08,4.08,0,0,1-1.39-2.2,2.33,2.33,0,0,1,0-1.36,2,2,0,0,1,.79-1.08,2.35,2.35,0,0,1,1.31-.45h.3a.74.74,0,0,0,.55-.16.76.76,0,0,0,.15-.54v-8.38a.28.28,0,0,0-.11-.24.28.28,0,0,0-.24,0l-.13,0a2.81,2.81,0,0,1-1,.18,3.09,3.09,0,0,1-1.31-.3,2.77,2.77,0,0,1-1.4-1.82,2.74,2.74,0,0,1-.13-.82,3,3,0,0,1,.48-1.6,3.4,3.4,0,0,1,1.92-1.56c.49-.14,1-.3,1.53-.47a.57.57,0,0,0,.39-.61v-5.44a.38.38,0,0,0-.44-.43h-1a2.86,2.86,0,0,1-2.09-.87,2.87,2.87,0,0,1,0-4.14,2.86,2.86,0,0,1,2.09-.87h1a.38.38,0,0,0,.44-.43v-4.67a2.79,2.79,0,0,1,.87-2.09,2.92,2.92,0,0,1,2.1-.85,2.88,2.88,0,0,1,2.1.85,2.79,2.79,0,0,1,.87,2.09v4.67a.38.38,0,0,0,.44.43h2a1.71,1.71,0,0,0,.83-.21l.88-.48a3.73,3.73,0,0,1,1.83-.48,4.59,4.59,0,0,1,1,.13Zm17.21,28.91h1.7c.26,0,.47-.18.61-.54a6.81,6.81,0,0,0,.31-1.92,1.77,1.77,0,0,1,1-1.47,2.33,2.33,0,0,1,.92-.22,2.26,2.26,0,0,1,.87.18,5,5,0,0,1,2,1.68,3,3,0,0,1,.52,1.69,1.69,1.69,0,0,1-.09.56,8.56,8.56,0,0,1-1.85,4.41,4.85,4.85,0,0,1-3.65,1.34h-3.45q-3.4,0-4.61-1.73t-1.2-6.53V423.43a2.87,2.87,0,0,1,.92-2.14,3,3,0,0,1,2.18-.89,2.94,2.94,0,0,1,2.16.89,2.89,2.89,0,0,1,.9,2.14v7.65c0,.05,0,.08.06.08a.14.14,0,0,0,.11,0c.47-1.1.91-2.16,1.31-3.2a2.72,2.72,0,0,1,1.58-1.68,2.64,2.64,0,0,1,1.05-.22,2.78,2.78,0,0,1,1.22.3,3.08,3.08,0,0,1,1.57,1.86,3.33,3.33,0,0,1,.13.91,3.18,3.18,0,0,1-.39,1.51q-2,3.58-2.19,3.93a3.07,3.07,0,0,1-1.83,1.43,4.08,4.08,0,0,1-.83.08,3,3,0,0,1-1.49-.38.17.17,0,0,0-.19,0,.16.16,0,0,0-.11.15v4.06c0,.06,0,.09,0,.11a.08.08,0,0,0,.09,0,2.18,2.18,0,0,1,1.4-.61h.09a1.92,1.92,0,0,1,1.35.52c1.57,1.41,3,2.8,4.24,4.15a3.2,3.2,0,0,1,.83,2.16,3.52,3.52,0,0,1-.92,2.38,2.41,2.41,0,0,1-1.79.77h-.18a2.46,2.46,0,0,1-1.92-1q-1.31-1.59-2.93-3.32a.16.16,0,0,0-.19-.05.17.17,0,0,0-.11.18v8.08a9.43,9.43,0,0,0,.13,2.07A.64.64,0,0,0,324.57,455.79Zm31.54-1h-5.64a.38.38,0,0,0-.43.43v3.54a2.92,2.92,0,0,1-.92,2.18,3.07,3.07,0,0,1-2.21.89,3,3,0,0,1-2.18-.89,2.94,2.94,0,0,1-.9-2.18v-3.54a.38.38,0,0,0-.43-.43h-6a2.77,2.77,0,0,1-2-.83,2.79,2.79,0,0,1,0-4,2.76,2.76,0,0,1,2-.82h6a.38.38,0,0,0,.43-.43v-1.08a.38.38,0,0,0-.43-.44H340a3.66,3.66,0,0,1-2.69-1.1,3.61,3.61,0,0,1-1.12-2.66V434a3.63,3.63,0,0,1,1.12-2.66,3.7,3.7,0,0,1,2.69-1.1h13.32c.06,0,.09,0,.09,0a.14.14,0,0,0-.05-.09,2.88,2.88,0,0,1-1.92-1.68,3.59,3.59,0,0,1-.26-1.3,3.11,3.11,0,0,1,.3-1.3l1.05-2.59a3.82,3.82,0,0,1,1.75-2.07,3.44,3.44,0,0,1,1.75-.48,3.33,3.33,0,0,1,.91.13,2.5,2.5,0,0,1,1.8,1.51,2.66,2.66,0,0,1,.26,1.08,2.52,2.52,0,0,1-.35,1.26c-1.2,2.16-2.26,3.94-3.19,5.36a.14.14,0,0,0,0,.15.15.15,0,0,0,.13.06,2.24,2.24,0,0,1,2.23,2.25v11a3.57,3.57,0,0,1-1.12,2.66,3.64,3.64,0,0,1-2.68,1.1h-3.5a.38.38,0,0,0-.43.44v1.08a.38.38,0,0,0,.43.43h5.64a2.76,2.76,0,0,1,2,.82,2.79,2.79,0,0,1,0,4A2.77,2.77,0,0,1,356.11,454.76Zm-14.24-29.47a2.84,2.84,0,0,1,.17.95,2.61,2.61,0,0,1-.35,1.29A2.94,2.94,0,0,1,339.9,429a2.16,2.16,0,0,1-.83.17,2.55,2.55,0,0,1-1.27-.34,3,3,0,0,1-1.39-1.73,21.32,21.32,0,0,0-.79-2.16,2.9,2.9,0,0,1-.17-.95,2.27,2.27,0,0,1,.26-1.08,2.22,2.22,0,0,1,1.44-1.3,3.33,3.33,0,0,1,1-.17,3.28,3.28,0,0,1,1.27.26,3,3,0,0,1,1.57,1.53C341.31,423.94,341.61,424.62,341.87,425.29Zm-.05,9.59a.38.38,0,0,0-.43.43v.82a.38.38,0,0,0,.43.43h2a.38.38,0,0,0,.44-.43v-.82a.38.38,0,0,0-.44-.43Zm0,6a.38.38,0,0,0-.43.44v.82a.38.38,0,0,0,.43.43h2a.38.38,0,0,0,.44-.43v-.82a.39.39,0,0,0-.44-.44Zm6.86-18.58c.23.7.45,1.37.66,2a2.66,2.66,0,0,1,.13.78,2.48,2.48,0,0,1-.44,1.39,2.82,2.82,0,0,1-1.83,1.33,2.86,2.86,0,0,1-.7.09,2.69,2.69,0,0,1-1.4-.39,2.82,2.82,0,0,1-1.27-1.77c-.17-.72-.36-1.44-.56-2.16a2.38,2.38,0,0,1-.14-.78,2.49,2.49,0,0,1,.35-1.25,2.44,2.44,0,0,1,1.62-1.17,3.5,3.5,0,0,1,.74-.08,3.17,3.17,0,0,1,1.44.34,2.79,2.79,0,0,1,1.4,1.64Zm3.15,14.26a.38.38,0,0,0,.43-.43v-.82a.38.38,0,0,0-.43-.43h-1.75a.38.38,0,0,0-.44.43v.82a.38.38,0,0,0,.44.43Zm0,6a.38.38,0,0,0,.43-.43v-.82a.38.38,0,0,0-.43-.44h-1.75a.39.39,0,0,0-.44.44v.82a.38.38,0,0,0,.44.43ZM372.05,437c-.06,0-.09,0-.11.11a.13.13,0,0,0,.07.15l1.13.61a4.34,4.34,0,0,1,2.06,2.33,4.47,4.47,0,0,1,.26,1.47,4.13,4.13,0,0,1-.35,1.6,42.6,42.6,0,0,1-4.5,7.95.75.75,0,0,0-.13.73c.52,1.33,1,2,1.49,2s.71-.82.91-2.46a1.28,1.28,0,0,1,.92-1.12,1.7,1.7,0,0,1,.57-.09,1.49,1.49,0,0,1,.92.35,5.28,5.28,0,0,1,1.61,2.11,3.56,3.56,0,0,1,.35,1.52,3.51,3.51,0,0,1-.13.95,11.57,11.57,0,0,1-2.36,5.05,3.79,3.79,0,0,1-2.71,1.34h-.13c-2.39-.08-4.32-1.57-5.81-4.45a.32.32,0,0,0-.24-.19.35.35,0,0,0-.28.06,33.23,33.23,0,0,1-3.89,3.24,3.47,3.47,0,0,1-2,.61,3.87,3.87,0,0,1-.56-.05,4.37,4.37,0,0,1-2.41-1.21A2.17,2.17,0,0,1,356,458a1.27,1.27,0,0,1,0-.26,2.1,2.1,0,0,1,1.05-1.68,29.06,29.06,0,0,0,6.47-5.27.83.83,0,0,0,.17-.74,87.41,87.41,0,0,1-1.61-11.54c0-.23-.15-.33-.35-.3a2.08,2.08,0,0,1-.4,0,2.79,2.79,0,0,1-1.74-.61,2.74,2.74,0,0,1-1.1-1.94l0-.13v-.39a3,3,0,0,1,.66-1.86,3.07,3.07,0,0,1,2.05-1.12h.13a.36.36,0,0,0,.35-.39q-.34-6.18-.35-8.82a2.9,2.9,0,0,1,3-2.94,2.94,2.94,0,0,1,2.16.89,3,3,0,0,1,.94,2.14q0,3.68.26,7.95c0,.29.15.42.44.39l5.55-.69h.39a3,3,0,0,1,2.93,2.63v.35a2.9,2.9,0,0,1-.66,1.86,3,3,0,0,1-2,1.12Zm-3.1,6.18a39.14,39.14,0,0,0,2.49-5.75.22.22,0,0,0,0-.23.28.28,0,0,0-.22-.11l-2.67.34a.42.42,0,0,0-.39.48c.15,1.58.34,3.31.57,5.18a.15.15,0,0,0,.11.16.13.13,0,0,0,.15-.07Zm5.46-20.52c.53.89,1,1.72,1.36,2.5a3.08,3.08,0,0,1,.3,1.3,3.48,3.48,0,0,1-.17,1,3.25,3.25,0,0,1-1.62,1.77,2.43,2.43,0,0,1-1.14.3,2.94,2.94,0,0,1-1-.17,2.82,2.82,0,0,1-1.53-1.47c-.37-.89-.8-1.8-1.26-2.72a2.45,2.45,0,0,1-.35-1.26,2.36,2.36,0,0,1,.13-.78,2.45,2.45,0,0,1,1.31-1.59,3.1,3.1,0,0,1,1.35-.31,4,4,0,0,1,.83.09,2.81,2.81,0,0,1,1.75,1.3Zm9.7,30.72a4.56,4.56,0,0,1,1.51-3.48,5.79,5.79,0,0,1,7.55,0,4.56,4.56,0,0,1,1.51,3.48,4.47,4.47,0,0,1-1.51,3.48,5.92,5.92,0,0,1-7.55,0A4.47,4.47,0,0,1,384.11,453.33Zm2.14-10.2-1.44-11.23-.13-3.59a3.34,3.34,0,0,1,1-2.66,3.57,3.57,0,0,1,2.62-1.1h2.23a3.57,3.57,0,0,1,2.62,1.1,3.39,3.39,0,0,1,1,2.66L394,431.9l-1.45,11.23a3.18,3.18,0,0,1-1.07,2,3,3,0,0,1-2.09.8,3.08,3.08,0,0,1-2.1-.8A3.22,3.22,0,0,1,386.25,443.13Zm20.23,10.2a4.59,4.59,0,0,1,1.5-3.48,5.8,5.8,0,0,1,7.56,0,4.6,4.6,0,0,1,1.51,3.48,4.51,4.51,0,0,1-1.51,3.48,5.93,5.93,0,0,1-7.56,0A4.5,4.5,0,0,1,406.48,453.33Zm2.14-10.2-1.45-11.23-.13-3.59a3.35,3.35,0,0,1,1-2.66,3.57,3.57,0,0,1,2.62-1.1h2.23a3.57,3.57,0,0,1,2.62,1.1,3.34,3.34,0,0,1,1,2.66l-.13,3.59L415,443.13a3.22,3.22,0,0,1-1.07,2,3.08,3.08,0,0,1-2.1.8,3,3,0,0,1-2.09-.8A3.18,3.18,0,0,1,408.62,443.13Z"/></svg>