<svg id="レイヤー_1" data-name="レイヤー 1" xmlns="http://www.w3.org/2000/svg" xmlns:xlink="http://www.w3.org/1999/xlink" viewBox="0 0 1602.83 773.27"><defs><style>.cls-1{fill:none;}.cls-2{fill:#00b9ff;}.cls-3{clip-path:url(#clip-path);}.cls-4{clip-path:url(#clip-path-2);}.cls-5{fill:#f6b821;}.cls-6{fill:#db8f00;}.cls-7{fill:#0097ff;}.cls-8{clip-path:url(#clip-path-3);}.cls-9{fill:#eee;}.cls-10{fill:#ccd6dd;}.cls-11{fill:#292f33;}.cls-12{fill:#fff;}.cls-13{fill:#006bff;}.cls-14{clip-path:url(#clip-path-5);}.cls-15{fill:#f83d8e;}.cls-16{fill:#ff63b7;}.cls-17{fill:#ee3564;}.cls-18{fill:#005b9e;}.cls-19{isolation:isolate;}</style><clipPath id="clip-path"><rect class="cls-1" x="119.61" y="375.49" width="274.95" height="291.75"/></clipPath><clipPath id="clip-path-2"><rect class="cls-1" x="119.61" y="375.5" width="274.95" height="291.75"/></clipPath><clipPath id="clip-path-3"><rect class="cls-1" x="653.46" y="375.5" width="295.92" height="291.75"/></clipPath><clipPath id="clip-path-5"><rect class="cls-1" x="1171.76" y="388.81" width="328.95" height="253.08"/></clipPath></defs><path class="cls-2" d="M113.08,253.47h288c33.19,0,53.1,0,66.37,5.54a68.85,68.85,0,0,1,41.17,41.18c5.54,13.27,5.54,33.18,5.54,66.36V660.19c0,33.18,0,53.09-5.54,66.37a68.83,68.83,0,0,1-41.17,41.17c-13.27,5.54-33.18,5.54-66.37,5.54h-288c-33.18,0-53.09,0-66.37-5.54A68.93,68.93,0,0,1,5.54,726.56C0,713.28,0,693.37,0,660.19V366.55c0-33.18,0-53.09,5.54-66.36A68.89,68.89,0,0,1,46.71,259C60,253.47,79.9,253.47,113.08,253.47Z"/><g class="cls-3"><g class="cls-4"><path class="cls-5" d="M386,580.12l-.09-.17c2.9,24,1.08,26.5-23.86,33-4.52,1.18-9,2.49-13.44,4-37,12.43-75.41,18-114,22.39-29.35,3.31-59,1-88.35,5.34-11.46,1.7-17-5.39-12.38-16,4-9.16,3.92-18.4,1.78-27.52-10.67-45.44,3.7-84.26,31.26-119.7,3-3.86,6.92-7.77,11.12-1.52,3.63,5.39,8.13,11.11,9.14,17.19,5.87,35.38,1.81,69.49-16.32,101.11-2.56,4.48-4.4,8.64-.84,12.84s8.47,3.39,13.1,2c3.35-1,6-5.94,10-2.9,11.32,8.55,14.94-.6,18.75-8.06a410.5,410.5,0,0,1,26-43.35c12.94-19.1,29.56-31,53.88-29.41,4,.27,8.61,1.24,11.85-2.69,33.23,0,62.35,25.69,82.1,50.08"/><path class="cls-6" d="M303.59,526.58c-3.25,3.93-7.81,2.95-11.85,2.69-24.32-1.6-41,10.31-53.88,29.41a408.68,408.68,0,0,0-26,43.34c-3.82,7.46-7.44,16.61-18.75,8.06-4-3.05-6.68,1.85-10,2.89-4.63,1.45-9.6,2.2-13.1-1.94s-1.73-8.37.84-12.84C189,566.57,193,532.46,187.17,497.08c-1-6.08-5.52-11.8-9.14-17.19-4.2-6.25-8.12-2.35-11.13,1.52-27.56,35.44-41.92,74.26-31.26,119.7,2.15,9.12,2.17,18.36-1.77,27.51-4.58,10.62.92,17.71,12.38,16,29.31-4.36,59-2,88.35-5.33,38.63-4.36,77-9.95,114-22.39,4.42-1.48,8.91-2.79,13.43-4,24.95-6.49,26.76-9,23.86-33,8.49,5.9,10,15.18,7.73,23.5-4.48,16.76-12.82,30.93-30.05,39.11-47.39,22.5-97.35,27.64-148.76,23.26-22.52-1.92-44.87-4.38-67.57-2.31-22.21,2-30-5.78-27-27.43,5-36.92.65-75.23,16.3-110.56C151,493.07,159.33,459.18,163,424c.63-6,2.37-11.92,7.36-16.17-.79,14.54,4.45,28.6,3.18,43.24-.88,10.16,6.72,12.77,13.92,10.32,16.76-5.72,34.76-8.82,49.5-19.46,4.35-3.14,8.1-6.36,13.82-5.3-5.64,16.07-16.46,27.33-32.84,32-9.74,2.76-12.11,8.72-12.29,17.49-.46,22.94-1.87,45.89-1.58,68.81.15,11.92-7.51,22.95-3.13,37.52,11.91-18.7,23.33-35.36,38.53-48.94,18.54-16.54,40.3-20.58,64.16-17"/><path class="cls-5" d="M250.73,436.71c-5.72-1.06-9.47,2.16-13.82,5.3-14.74,10.63-32.73,13.73-49.5,19.46-7.2,2.45-14.79-.16-13.91-10.32,1.27-14.63-4-28.7-3.19-43.24l-.05.26c6.21,0,6-4.52,6.22-8.71,3.15-4.65,6.34-9.27,9.44-13.95,6.34-9.57,14.66-12.28,25.55-8.14,11.83,4.5,24.08,7.95,35.69,12.93,8.39,3.6,17.43,8.57,6.7,19.31-3.74,3.73.57,4.5,2,6.07,3.31,3.56,6.17,7.14,4.74,12.42-3.72.29-5.17,2.44-4.92,6l.1-.34-3.11,2.66-1,.41Zm-3.13-23.53c-8.46,3.63-14,6.9-20,8.35-6.41,1.54-13.92,2.24-13.71-8.11,0-2.89,3.46-7.43-2.08-7.35-7.24.11-3,8.73-7.14,12-2.19,1.75-3.26,4.56.33,6.75,7.28,4.43,33.72-1.45,42.62-11.63"/><path class="cls-6" d="M176.49,399.46c-.26,4.19,0,8.74-6.23,8.71a10,10,0,0,1,6.23-8.71"/><path class="cls-6" d="M255.72,434.07c-.25-3.53,1.2-5.68,4.92-6,.62,3.84-1.38,5.54-4.92,6"/><path class="cls-6" d="M252.7,436.39l3.11-2.66c-.35,1.69-1.27,2.71-3.11,2.66"/><path class="cls-6" d="M247.6,413.18c-8.9,10.18-35.34,16.06-42.61,11.63-3.59-2.19-2.53-5-.33-6.75,4.1-3.26-.1-11.88,7.14-12,5.53-.08,2.13,4.46,2.07,7.35-.21,10.35,7.31,9.65,13.72,8.1,6-1.44,11.56-4.71,20-8.34"/></g></g><path class="cls-7" d="M654.41,253.47h294c33.18,0,53.09,0,66.37,5.54A68.9,68.9,0,0,1,1056,300.19c5.54,13.27,5.54,33.18,5.54,66.36V660.19c0,33.18,0,53.09-5.54,66.37a68.93,68.93,0,0,1-41.17,41.17c-13.28,5.54-33.19,5.54-66.37,5.54h-294c-33.19,0-53.1,0-66.37-5.54a68.93,68.93,0,0,1-41.17-41.17c-5.54-13.28-5.54-33.19-5.54-66.37V366.55c0-33.18,0-53.09,5.54-66.36A68.9,68.9,0,0,1,588,259C601.31,253.47,621.22,253.47,654.41,253.47Z"/><g class="cls-8"><g class="cls-8"><path class="cls-9" d="M949.37,588.9c0,81.72-66.22,78.33-148,78.33s-148,3.38-148-78.33c0-69.63,69.62-165.36,113.14-200.18,23.93-17.4,44.64-17.85,69.63,0,60.93,43.52,113.14,156.66,113.14,200.18"/><path class="cls-10" d="M882,620.59a8.82,8.82,0,1,1-10-14.52h0l14.54-10a8.8,8.8,0,0,1,9.94,14.52Zm21.22-61.75a8.7,8.7,0,1,1,6.36-16.2l.21.09,16.12,6.57A8.7,8.7,0,1,1,920,565.65l-.41-.16h0l-.21-.08ZM864.1,513.1a8.8,8.8,0,1,1,6.62-16.31h0L887,503.45a8.8,8.8,0,1,1-6.65,16.3h0ZM681.32,574A8.8,8.8,0,0,1,688,557.71h0l16.3,6.65a8.8,8.8,0,0,1-6.64,16.31Zm30.95-53.52A8.8,8.8,0,0,1,702.32,506l14.54-10a8.8,8.8,0,0,1,9.94,14.53h0ZM790.85,553a13.05,13.05,0,1,1,9.85-24.18l24.18,9.87a13.07,13.07,0,0,1-9.88,24.2ZM737,605.72A8.8,8.8,0,0,1,743.6,622h0l-.35.13-16.47,6.27A8.81,8.81,0,0,1,720.57,612h0Z"/><path class="cls-11" d="M853.64,545.38H749.19a17.4,17.4,0,0,0-17.4,17.4h0v102.8c20.75,1.95,44.44,1.63,69.62,1.63s48.88.32,69.63-1.63V562.79a17.41,17.41,0,0,0-17.4-17.41"/></g></g><path class="cls-12" d="M610.1,721.79a3.81,3.81,0,0,1-1.12,2.76,3.76,3.76,0,0,1-2.79,1.15h-2.07l-.06.06c-.06.06,0,.07.06.07,2.79,1,5.48,2,8.09,3.06a1.52,1.52,0,0,1,1,1.57,1.56,1.56,0,0,1-1,1.53l-.23.09a8.06,8.06,0,0,1-3.28.71,8.78,8.78,0,0,1-3.77-.9c-1.77-.81-3.61-1.58-5.53-2.33a1.87,1.87,0,0,1-1.25-1.62v-.27a1.76,1.76,0,0,1,.9-1.57l.26-.18a.16.16,0,0,0-.12-.23H588.4a.12.12,0,0,0-.11.09c0,.06,0,.09.07.09h.13a2,2,0,0,1,1.21,1.93,1.68,1.68,0,0,1-1,1.62,59.24,59.24,0,0,1-8.31,3.37,5.55,5.55,0,0,1-1.62.27,4.6,4.6,0,0,1-1.43-.23,5.92,5.92,0,0,1-2.66-1.57,1.64,1.64,0,0,1-.44-1.75,1.6,1.6,0,0,1,1.3-1.26,50.3,50.3,0,0,0,8.13-2.43.21.21,0,0,0,0-.11s0-.07-.09-.07h-1.8a3.91,3.91,0,0,1-3.91-3.9V709.08a3.91,3.91,0,0,1,3.91-3.91h24.39a3.75,3.75,0,0,1,2.79,1.14,3.82,3.82,0,0,1,1.12,2.77Zm-1.44-30.1a3.91,3.91,0,0,1,3.91,3.91v4.22a3.92,3.92,0,0,1-3.91,3.91H579.37a3.92,3.92,0,0,1-3.91-3.91V695.6a3.91,3.91,0,0,1,3.91-3.91Zm-23.09,7.14a.4.4,0,0,0,.45-.34.21.21,0,0,0,0-.11V697a.4.4,0,0,0-.34-.45h-3.57a.4.4,0,0,0-.45.34h0v1.45a.41.41,0,0,0,.35.45h3.56ZM585,709.3a.4.4,0,0,0-.45.34v.73a.4.4,0,0,0,.34.45h17.72a.4.4,0,0,0,.45-.34.21.21,0,0,0,0-.11v-.63a.39.39,0,0,0-.33-.44H585Zm0,5.34a.4.4,0,0,0-.45.34h0v.78a.41.41,0,0,0,.35.44h17.71a.4.4,0,0,0,.45-.34.17.17,0,0,0,0-.1v-.68a.4.4,0,0,0-.34-.45Zm0,5.39a.4.4,0,0,0-.45.34h0v.82a.41.41,0,0,0,.35.45h17.71a.4.4,0,0,0,.45-.34.21.21,0,0,0,0-.11v-.72a.4.4,0,0,0-.34-.45Zm10.47-21.2a.4.4,0,0,0,.45-.34V697a.4.4,0,0,0-.34-.45H592a.4.4,0,0,0-.45.34v1.45a.4.4,0,0,0,.34.45h3.61Zm10.11,0a.4.4,0,0,0,.45-.34h0V697a.4.4,0,0,0-.34-.45h-3.8a.4.4,0,0,0-.45.34v1.45a.4.4,0,0,0,.34.45h3.8Zm12.89,9.84c-.42-2,.13-3.28,1.66-3.82a30.68,30.68,0,0,1,5.55-1.7,33.56,33.56,0,0,1,6.63-.72,16.21,16.21,0,0,1,6.58,1.37,10.34,10.34,0,0,1,4.6,3.93,12.64,12.64,0,0,1,1.8,6.42c.21,5.34-1.47,9.27-5,11.82s-8.25,3.87-14.07,4c-1.7,0-2.6-1-2.7-2.83a2.43,2.43,0,0,1,2-2.78,2.66,2.66,0,0,1,.69,0,18.44,18.44,0,0,0,6.7-1.17,8.43,8.43,0,0,0,6.35-8.94,5.34,5.34,0,0,0-1.66-4.06q-1.67-1.59-5.75-1.82a15.9,15.9,0,0,0-4.29.4c-1.39.33-3.14.86-5.23,1.57-1.89.78-3.17.23-3.82-1.66Zm58-12.58a3.14,3.14,0,0,1,3.32,2.79c.24,2.06-.33,3.37-1.71,3.91a28.44,28.44,0,0,0-5.55,2.62,21.4,21.4,0,0,0-5.25,4.32,12.58,12.58,0,0,0-2.81,4.78,6.76,6.76,0,0,0,.14,4.87A5.93,5.93,0,0,0,667.3,722a8.38,8.38,0,0,0,3.13.92c1.2.06,2.75,0,4.67,0,2.15-.09,3.26,1.07,3.32,3.46s-1.17,3.76-3.32,3.73-3.87,0-5.21-.14a17.79,17.79,0,0,1-4.4-.87,13.71,13.71,0,0,1-4.56-2.45,10.65,10.65,0,0,1-3.15-4.45,14.07,14.07,0,0,1-.6-6.87,16.6,16.6,0,0,1,1.73-5.17,18.59,18.59,0,0,1,2.7-3.88,25.05,25.05,0,0,1,2.49-2.45,6.61,6.61,0,0,1,1.12-.85H654.43c-2.27,0-3.4-1.14-3.41-3.42s1.14-3.46,3.41-3.46Zm18.37,5.21a.4.4,0,0,0-.45.34v4.78q0,15.14-3.55,23.94a2.45,2.45,0,0,1-1.84,1.53,3,3,0,0,1-.72.09,3.12,3.12,0,0,1-1.75-.54,4.19,4.19,0,0,1-1.62-2.15,4.46,4.46,0,0,1-.18-1.26,4.18,4.18,0,0,1,.27-1.44q2.7-6.87,2.7-20.17v-7.55a3.81,3.81,0,0,1,1.12-2.76,3.75,3.75,0,0,1,2.79-1.14h11.81a.41.41,0,0,0,.45-.35V693.4a3.51,3.51,0,0,1,7,0v1.12a.4.4,0,0,0,.34.45h12.64a3.08,3.08,0,0,1,2.27.94,3.13,3.13,0,0,1,.92,2.25,3.07,3.07,0,0,1-.92,2.23,3.12,3.12,0,0,1-2.27.92H709.37a.1.1,0,0,0-.11.09h0a.1.1,0,0,0,.06.13h0a65.54,65.54,0,0,1,6.64,3.73,2.56,2.56,0,0,1,1.26,2.11v.27a3,3,0,0,1-.85,2.11,3.44,3.44,0,0,1-2.47,1.08h-.23a4.11,4.11,0,0,1-2.42-.76,54.7,54.7,0,0,0-4.94-3.19,2.86,2.86,0,0,1-1.49-2.16,4,4,0,0,1,0-.49,2.7,2.7,0,0,1,.85-2l.63-.63c.06,0,.08-.09.05-.18a.17.17,0,0,0-.18-.13Zm6.92,16.31a49.55,49.55,0,0,1-1.57,9.21,2.87,2.87,0,0,1-1.67,1.8,3.27,3.27,0,0,1-1.16.22,3.32,3.32,0,0,1-3-2.07,3.39,3.39,0,0,1-.32-1.43,4,4,0,0,1,.18-1.13,40.86,40.86,0,0,0,1.53-7.9,2.66,2.66,0,0,1,1.12-1.94,2.61,2.61,0,0,1,1.57-.53H699a3.24,3.24,0,0,1,2.06,1.35,3.11,3.11,0,0,1,.72,2,2.16,2.16,0,0,1,0,.36ZM724,714.73a62.05,62.05,0,0,1,3.55,8.9,3.25,3.25,0,0,1,.18,1.07,3.74,3.74,0,0,1-.45,1.76,4.38,4.38,0,0,1-2.16,2,3.55,3.55,0,0,1-1.12.18,3.06,3.06,0,0,1-2.88-2.33c-.21-.81-.45-1.67-.71-2.56a.17.17,0,0,0-.12,0s-.06,0-.06.09c-.33,3.45-1,5.81-1.94,7.1s-2.51,1.93-4.67,1.93h-4.18c-2.63,0-4.41-.56-5.32-1.68s-1.37-3.17-1.37-6.13V713.25a3.19,3.19,0,0,1,1-2.36,3.3,3.3,0,0,1,5.66,2.3v11.7a3.78,3.78,0,0,0,.2,1.6c.13.22.47.33,1,.33H713a.91.91,0,0,0,.9-.65,10.27,10.27,0,0,0,.45-2.58,2.25,2.25,0,0,1,1.21-1.93,2.57,2.57,0,0,1,1.3-.36,2.86,2.86,0,0,1,1.08.22c.54.21,1.06.39,1.57.54a.2.2,0,0,0,.23,0,.24.24,0,0,0,0-.23q-.81-2.37-1.84-4.76a3.07,3.07,0,0,1-.27-1.26,2.9,2.9,0,0,1,.22-1.12,2.7,2.7,0,0,1,1.67-1.66,3.22,3.22,0,0,1,1.3-.27,3.78,3.78,0,0,1,1.25.22,3.34,3.34,0,0,1,1.89,1.76Zm17.29-3.32a2.59,2.59,0,0,1,.68-.09,2.51,2.51,0,0,1,1.48.45,2.48,2.48,0,0,1,1.17,1.88,4.17,4.17,0,0,1,0,.5,3.51,3.51,0,0,1-2.51,3.32l-.81.18a.56.56,0,0,0-.45.59v8.53a11.21,11.21,0,0,1-.45,3.55,4,4,0,0,1-1.57,2.07,8.33,8.33,0,0,1-3.5,1.12H735a3,3,0,0,1-2-.76,4.32,4.32,0,0,1-1.44-2.29,2.54,2.54,0,0,1,.05-1.42,2.13,2.13,0,0,1,.81-1.12,2.49,2.49,0,0,1,1.34-.47h.32a.61.61,0,0,0,.72-.45.62.62,0,0,0,0-.27V719.9a.37.37,0,0,0-.14-.29.27.27,0,0,0-.27-.07l-.54.14a2.43,2.43,0,0,1-.76.13,2.93,2.93,0,0,1-2.84-2.51,4,4,0,0,1,0-.49,3.47,3.47,0,0,1,.63-2,3.51,3.51,0,0,1,2.16-1.44c.45-.09.9-.19,1.35-.31a.51.51,0,0,0,.45-.54V704.9a.4.4,0,0,0-.34-.45h-.92a3.06,3.06,0,0,1,0-6.11h.81a.4.4,0,0,0,.45-.34h0v-5a2.9,2.9,0,0,1,.9-2.18,3.08,3.08,0,0,1,4.31,0,2.94,2.94,0,0,1,.9,2.18v4.9a.35.35,0,0,0,.29.4h.33a3.06,3.06,0,0,1,0,6.11h-.22a.35.35,0,0,0-.4.29v6.4a.27.27,0,0,0,.11.22.28.28,0,0,0,.25,0Zm24.17,4.08a11,11,0,0,1,3.73.54,2.15,2.15,0,0,1,1.12,1,2,2,0,0,1,.23.9,2.23,2.23,0,0,1-.09.63,22.22,22.22,0,0,1-3.91,7.32.42.42,0,0,0-.07.29.26.26,0,0,0,.2.2,31,31,0,0,0,4.31,1.21,2,2,0,0,1,1.44,1.26,2.54,2.54,0,0,1,.13.77,2,2,0,0,1-.4,1.16,5,5,0,0,1-2.25,1.85,4.06,4.06,0,0,1-1.61.36,5.38,5.38,0,0,1-1.13-.14,31.58,31.58,0,0,1-5.47-2.2.89.89,0,0,0-.81,0,26.41,26.41,0,0,1-3.87,1.85,4.72,4.72,0,0,1-1.48.27,4.13,4.13,0,0,1-1.66-.36,6.07,6.07,0,0,1-2.7-2.07l-.61-.7a.37.37,0,0,0-.5-.12l-.1.1a20.52,20.52,0,0,1-1.89,1.84,2.72,2.72,0,0,1-1.75.63h-.54a3.71,3.71,0,0,1-2.16-1.26,2.61,2.61,0,0,1-.76-1.89,2.72,2.72,0,0,1,1-2.2q4.9-4.22,6.43-12a.35.35,0,0,0-.07-.31.37.37,0,0,0-.29-.14h-2a2.5,2.5,0,0,1-1.89-.78,2.72,2.72,0,0,1,0-3.78,2.53,2.53,0,0,1,2-.77h2.7a.4.4,0,0,0,.45-.34h0v-.46a.52.52,0,0,0-.11-.32.39.39,0,0,0-.29-.13h-2A2.45,2.45,0,0,1,747,707a2.58,2.58,0,0,1-.76-1.85v-.36a2.22,2.22,0,0,1,2.2-2.2c.15,0,.21-.08.18-.23s-.12-.43-.18-.67a3.31,3.31,0,0,1-.18-1.08,3.48,3.48,0,0,1,.45-1.7,3.4,3.4,0,0,1,2.16-1.76V697h-1.66a3,3,0,0,1-1.89-.67,3.39,3.39,0,0,1-1.16-1.8,1.65,1.65,0,0,1-.1-.58,1.82,1.82,0,0,1,.36-1.08,1.72,1.72,0,0,1,1.44-.81,156,156,0,0,0,17.79-1.53h.81a5.08,5.08,0,0,1,1.89.36,4.83,4.83,0,0,1,2.15,1.61,1.76,1.76,0,0,1,.36,1.08,2,2,0,0,1-.13.72,1.71,1.71,0,0,1-1.4,1.17l-1.88.27a.07.07,0,0,0-.09,0v0h0v.09l.45.13a2.72,2.72,0,0,1,1.93,1.76,2.51,2.51,0,0,1-.27,2.56c-.42.68-.83,1.31-1.21,1.88a.23.23,0,0,0,0,.2.16.16,0,0,0,.18.11h.71a2.45,2.45,0,0,1,1.82.77,2.6,2.6,0,0,1,0,3.64,2.44,2.44,0,0,1-1.82.76H758a.45.45,0,0,0-.49.39h0v.42a.31.31,0,0,0,.09.33.47.47,0,0,0,.31.12H770.4a2.67,2.67,0,1,1,0,5.34H757.3a.51.51,0,0,0-.54.45l-.09.23a.51.51,0,0,0,.11.31.35.35,0,0,0,.25.14Zm-12,9.17a20.18,20.18,0,0,1-2.2,3.5.14.14,0,0,0,0,.17h0a.11.11,0,0,0,.16,0h0a30.72,30.72,0,0,0,4.31-1.34.35.35,0,0,0,.16-.25.25.25,0,0,0-.07-.25c-.53-.51-1.15-1.15-1.84-1.93a.25.25,0,0,0-.24-.11.33.33,0,0,0-.25.15Zm2.25-22.5a5.07,5.07,0,0,0-.09-.9,3.83,3.83,0,0,1,.72-2.92,3.58,3.58,0,0,1,2.47-1.62h.4c-2.19.15-4.37.27-6.56.36a.24.24,0,0,0-.22.14.26.26,0,0,0,0,.27l1,2.56a1.9,1.9,0,0,1,.13.67,2,2,0,0,1-.22.9,2.07,2.07,0,0,1-1.21,1v0h3.23a.41.41,0,0,0,.31-.14.29.29,0,0,0,.09-.31Zm5.61,21.16a14.31,14.31,0,0,0,2-2.7.32.32,0,0,0,0-.27.27.27,0,0,0-.25-.14h-5.35a.25.25,0,0,0-.2.14.18.18,0,0,0,0,.22,16.83,16.83,0,0,0,3.05,2.79.47.47,0,0,0,.66,0h0Zm-1.12-22.2a3.05,3.05,0,0,1-2.07,1.4.06.06,0,0,0,0,.08h3.56a.75.75,0,0,0,.68-.4,44.65,44.65,0,0,0,2.65-5.75.27.27,0,0,0-.07-.27.22.22,0,0,0-.25-.09c-1.73.18-3.11.31-4.13.4a.3.3,0,0,0-.27.16.38.38,0,0,0,0,.33c.15.57.28,1.16.4,1.75a3,3,0,0,1,.09.72,2.81,2.81,0,0,1-.54,1.66ZM781,724.75a4.75,4.75,0,0,1,1.55-3.61,5.89,5.89,0,0,1,7.77,0,4.75,4.75,0,0,1,1.55,3.61,4.69,4.69,0,0,1-1.55,3.62,6,6,0,0,1-7.77,0A4.69,4.69,0,0,1,781,724.75Zm2.2-10.6-1.48-11.68-.14-3.72a3.51,3.51,0,0,1,1-2.77,3.63,3.63,0,0,1,2.7-1.14h2.29a3.63,3.63,0,0,1,2.7,1.14,3.52,3.52,0,0,1,1,2.77l-.14,3.72-1.48,11.68a3.36,3.36,0,0,1-1.1,2.05,3.21,3.21,0,0,1-4.31,0,3.36,3.36,0,0,1-1.1-2.05Zm18-10.28a48.56,48.56,0,0,0,6.2-10.6,3.8,3.8,0,0,1,1.84-1.93,3.57,3.57,0,0,1,1.57-.36,3.31,3.31,0,0,1,1.08.18,3.1,3.1,0,0,1,1.93,1.66,2.81,2.81,0,0,1,0,2.51,63.22,63.22,0,0,1-2.79,5.8,2.09,2.09,0,0,0-.18.85v28.21a3.39,3.39,0,0,1-6.78,0v-18a.09.09,0,0,0-.07-.11h-.11a1.51,1.51,0,0,1-1.17.54h-.32a1.64,1.64,0,0,1-1.26-1c-.24-.48-.46-1-.67-1.44a5.45,5.45,0,0,1-.63-2.56c0-.23,0-.45,0-.68a5.9,5.9,0,0,1,1.26-3.1Zm38.59-.18h-8.85a.4.4,0,0,0-.45.34.21.21,0,0,0,0,.11v2.92a.39.39,0,0,0,.33.44h7.84a3,3,0,0,1,2.16.88,2.85,2.85,0,0,1,.9,2.13,3.07,3.07,0,0,1-3.06,3.06h-7.72a.4.4,0,0,0-.45.34.21.21,0,0,0,0,.11v3.23a.4.4,0,0,0,.34.45h8.37a3.1,3.1,0,1,1,0,6.2h-8.26a.4.4,0,0,0-.45.34h0a.17.17,0,0,0,0,.1v5.8a3.46,3.46,0,1,1-6.92,0V704.09c0-.27-.14-.4-.43-.4a.73.73,0,0,0-.65.36,54.86,54.86,0,0,1-3.46,5.48,2.83,2.83,0,0,1-2.2,1.17h-.13a3.19,3.19,0,0,1-2.25-.9,3.4,3.4,0,0,1-1.12-2.38v-.27A3.54,3.54,0,0,1,814,705a45,45,0,0,0,6.25-11.5,3.45,3.45,0,0,1,1.75-2,3.33,3.33,0,0,1,1.66-.45,3.23,3.23,0,0,1,3.19,3,2.86,2.86,0,0,1-.22,1.08l-.72,1.8a.22.22,0,0,0,0,.27.29.29,0,0,0,.27.13H839.7a3,3,0,0,1,2.23,1,3.21,3.21,0,0,1,0,4.49,3,3,0,0,1-2.23.93Zm5.8,5c-.42-2,.13-3.28,1.66-3.81a29.94,29.94,0,0,1,5.55-1.71,33.46,33.46,0,0,1,6.62-.72A16.39,16.39,0,0,1,866,703.8a10.34,10.34,0,0,1,4.6,3.93,12.54,12.54,0,0,1,1.8,6.42q.32,8-5,11.82t-14.06,4c-1.71,0-2.61-1-2.7-2.83a2.43,2.43,0,0,1,2-2.78,2.58,2.58,0,0,1,.68,0,18.43,18.43,0,0,0,6.7-1.16,8.43,8.43,0,0,0,6.35-8.94,5.42,5.42,0,0,0-1.66-4.07Q863,708.6,859,708.37a15.9,15.9,0,0,0-4.29.4c-1.39.33-3.14.86-5.24,1.57q-2.82,1.17-3.81-1.66Zm58-12.57a3.12,3.12,0,0,1,3.32,2.78c.24,2.07-.33,3.38-1.71,3.91a29.07,29.07,0,0,0-5.55,2.63,21.36,21.36,0,0,0-5.25,4.31,12.62,12.62,0,0,0-2.81,4.79,6.76,6.76,0,0,0,.14,4.87,5.8,5.8,0,0,0,2.62,2.65,8.2,8.2,0,0,0,3.13.92c1.2.06,2.75,0,4.67,0,2.15-.09,3.26,1.07,3.32,3.46s-1.17,3.76-3.32,3.73-3.87,0-5.21-.14a17.8,17.8,0,0,1-4.4-.88,13.5,13.5,0,0,1-4.56-2.44,10.71,10.71,0,0,1-3.15-4.45,14.07,14.07,0,0,1-.6-6.87,16.6,16.6,0,0,1,1.73-5.17,18.92,18.92,0,0,1,2.7-3.89,23.91,23.91,0,0,1,2.49-2.44,7.75,7.75,0,0,1,1.12-.86H881.46c-2.27,0-3.4-1.14-3.41-3.41s1.13-3.43,3.41-3.46ZM922,701.33a.4.4,0,0,0-.45.34.21.21,0,0,0,0,.11v4.67q0,15.13-3.55,24a2.48,2.48,0,0,1-1.84,1.52,3,3,0,0,1-.72.09,3.14,3.14,0,0,1-1.75-.54,4.11,4.11,0,0,1-1.62-2.16,4.45,4.45,0,0,1-.18-1.25,4.18,4.18,0,0,1,.27-1.44q2.7-6.87,2.7-20.17V699a3.88,3.88,0,0,1,3.85-3.91h11.87a.4.4,0,0,0,.45-.34.21.21,0,0,0,0-.11V693.4a3.51,3.51,0,0,1,7,0v1.12a.4.4,0,0,0,.34.45H951a3.08,3.08,0,0,1,2.27.94,3.13,3.13,0,0,1,.92,2.25,3.07,3.07,0,0,1-.92,2.23,3.12,3.12,0,0,1-2.27.92H936.4a.09.09,0,0,0-.11.07v0a.1.1,0,0,0,.06.13h0a65.54,65.54,0,0,1,6.64,3.73,2.54,2.54,0,0,1,1.26,2.11v.27a3,3,0,0,1-.85,2.11,3.44,3.44,0,0,1-2.47,1.08h-.23a4.11,4.11,0,0,1-2.42-.76,54.7,54.7,0,0,0-4.94-3.19,2.86,2.86,0,0,1-1.49-2.16,4,4,0,0,1,0-.49,2.7,2.7,0,0,1,.85-2l.63-.63c.06,0,.08-.09,0-.18a.17.17,0,0,0-.18-.13Zm6.92,16.3a49.56,49.56,0,0,1-1.58,9.21,2.83,2.83,0,0,1-1.66,1.8,3.12,3.12,0,0,1-1.17.22,3.33,3.33,0,0,1-3-2.06,3.54,3.54,0,0,1-.13-2.56,41,41,0,0,0,1.53-7.91A2.64,2.64,0,0,1,924,714.4a2.55,2.55,0,0,1,1.57-.54h.59a3.3,3.3,0,0,1,2.06,1.35,3.16,3.16,0,0,1,.72,2,2.16,2.16,0,0,1,0,.36Zm22.19-2.87a61.93,61.93,0,0,1,3.55,8.89,3.94,3.94,0,0,1,.18,1.08,3.83,3.83,0,0,1-.45,1.75,4.33,4.33,0,0,1-2.16,2,4.23,4.23,0,0,1-1.12.18,3.07,3.07,0,0,1-2.88-2.34c-.21-.81-.45-1.66-.72-2.56a.16.16,0,0,0-.11,0s-.07,0-.07.1c-.33,3.44-1,5.81-1.93,7.09s-2.51,1.94-4.67,1.94h-4.18c-2.63,0-4.41-.56-5.32-1.68S929.8,728,929.8,725V713.25a3.15,3.15,0,0,1,1-2.36,3.3,3.3,0,0,1,5.66,2.3v11.7a3.78,3.78,0,0,0,.2,1.6c.13.22.47.33,1,.33H940a.91.91,0,0,0,.9-.65,11.35,11.35,0,0,0,.45-2.58,2.28,2.28,0,0,1,1.21-1.93,2.57,2.57,0,0,1,1.3-.36,2.86,2.86,0,0,1,1.08.22c.54.21,1.06.39,1.57.54a.18.18,0,0,0,.22,0,.22.22,0,0,0,0-.23q-.81-2.37-1.84-4.76a3,3,0,0,1-.27-1.25,2.92,2.92,0,0,1,.22-1.13,2.68,2.68,0,0,1,1.66-1.66,3.22,3.22,0,0,1,1.3-.27,3.6,3.6,0,0,1,1.26.23,3.29,3.29,0,0,1,1.89,1.75Zm17.29-3.33a2.59,2.59,0,0,1,.68-.09,2.68,2.68,0,0,1,1.48.45,2.5,2.5,0,0,1,1.17,1.89,4,4,0,0,1,0,.49,3.55,3.55,0,0,1-2.51,3.33l-.81.18a.55.55,0,0,0-.45.58v8.53a11.21,11.21,0,0,1-.45,3.55,4,4,0,0,1-1.57,2.07,8.33,8.33,0,0,1-3.5,1.12H962a3,3,0,0,1-2-.77,4.26,4.26,0,0,1-1.44-2.29,2.6,2.6,0,0,1,0-1.41,2.25,2.25,0,0,1,.81-1.13,2.61,2.61,0,0,1,1.35-.47h.32a.59.59,0,0,0,.71-.44h0a.42.42,0,0,0,0-.27V719.9a.33.33,0,0,0-.13-.29.27.27,0,0,0-.27-.07l-.54.14a2.43,2.43,0,0,1-.76.13,2.89,2.89,0,0,1-2.83-2.49,2,2,0,0,1,0-.49,3.47,3.47,0,0,1,.63-2,3.6,3.6,0,0,1,2.16-1.43c.45-.09.9-.2,1.34-.32a.48.48,0,0,0,.45-.51V704.9a.4.4,0,0,0-.34-.45h-.91a3.06,3.06,0,0,1,0-6.11h.8a.4.4,0,0,0,.45-.32v0h0a.21.21,0,0,0,0-.11V693a3,3,0,0,1,.9-2.18,3.1,3.1,0,0,1,4.32,0A2.9,2.9,0,0,1,968,693v4.9a.35.35,0,0,0,.29.4h.33a3.06,3.06,0,0,1,0,6.11h-.22a.35.35,0,0,0-.4.29v0a.14.14,0,0,0,0,.09v6.29a.27.27,0,0,0,.11.22.28.28,0,0,0,.25,0Zm24.17,4.09a10.71,10.71,0,0,1,3.73.54,2.11,2.11,0,0,1,1.12,1,2,2,0,0,1,.23.9,2.28,2.28,0,0,1-.09.63,22.22,22.22,0,0,1-3.91,7.32.4.4,0,0,0-.07.3.26.26,0,0,0,.2.2,32.46,32.46,0,0,0,4.31,1.21,1.9,1.9,0,0,1,1.44,1.26,2.43,2.43,0,0,1,.14.76,2.06,2.06,0,0,1-.4,1.17,5.06,5.06,0,0,1-2.25,1.84,3.94,3.94,0,0,1-1.62.36,5.27,5.27,0,0,1-1.12-.13,33.72,33.72,0,0,1-5.48-2.2.83.83,0,0,0-.81,0,24.83,24.83,0,0,1-3.86,1.84,4.61,4.61,0,0,1-1.48.27,4,4,0,0,1-1.67-.36,6.07,6.07,0,0,1-2.7-2.07l-.6-.7a.36.36,0,0,0-.5-.11h0a.27.27,0,0,0-.11.1,20.52,20.52,0,0,1-1.89,1.84,2.86,2.86,0,0,1-1.75.63h-.54a3.64,3.64,0,0,1-2.15-1.26,2.66,2.66,0,0,1-.77-1.88,2.72,2.72,0,0,1,1-2.2q4.89-4.23,6.42-11.95a.34.34,0,0,0-.07-.32.33.33,0,0,0-.29-.13h-2a2.55,2.55,0,0,1-1.89-.79,2.7,2.7,0,0,1,0-3.77A2.54,2.54,0,0,1,975,709h2.7a.4.4,0,0,0,.45-.34v-.47a.4.4,0,0,0-.11-.31.37.37,0,0,0-.29-.14h-2A2.45,2.45,0,0,1,974,707a2.51,2.51,0,0,1-.77-1.84v-.36a2.23,2.23,0,0,1,2.2-2.2c.15,0,.21-.08.18-.23s-.12-.43-.18-.67a3.94,3.94,0,0,1-.18-1.08,3.48,3.48,0,0,1,.45-1.7,3.4,3.4,0,0,1,2.16-1.76V697H976.2a2.92,2.92,0,0,1-1.88-.67,3.35,3.35,0,0,1-1.17-1.8A1.86,1.86,0,0,1,973,694a1.76,1.76,0,0,1,.36-1.08,1.72,1.72,0,0,1,1.44-.81,155.64,155.64,0,0,0,17.78-1.53,5.47,5.47,0,0,1,.81,0,5.08,5.08,0,0,1,1.89.36,4.8,4.8,0,0,1,2.16,1.61,1.82,1.82,0,0,1,.36,1.08,2.19,2.19,0,0,1-.14.72,1.7,1.7,0,0,1-1.39,1.17l-1.89.27a.08.08,0,0,0-.09.07h0V696l.45.13a2.74,2.74,0,0,1,1.93,1.75,2.86,2.86,0,0,1,.22,1.08,2.57,2.57,0,0,1-.5,1.49c-.42.69-.82,1.31-1.21,1.88a.23.23,0,0,0,0,.2.16.16,0,0,0,.18.11h.72a2.45,2.45,0,0,1,1.82.77,2.6,2.6,0,0,1,0,3.64,2.44,2.44,0,0,1-1.82.76h-11a.44.44,0,0,0-.49.38h0a.06.06,0,0,0,0,.06v.36a.3.3,0,0,0,.09.33.43.43,0,0,0,.31.12h12.49a2.67,2.67,0,0,1,0,5.34H984.34a.51.51,0,0,0-.54.45l-.09.23a.51.51,0,0,0,.11.31.35.35,0,0,0,.25.14Zm-12,9.16a20.18,20.18,0,0,1-2.2,3.5.15.15,0,0,0,0,.18h0a.11.11,0,0,0,.16,0h0A30.8,30.8,0,0,0,982.8,727a.35.35,0,0,0,.16-.25.25.25,0,0,0-.07-.25c-.53-.51-1.15-1.15-1.84-1.93a.25.25,0,0,0-.24-.11.33.33,0,0,0-.25.15Zm2.25-22.5c0-.27-.06-.56-.09-.9a3.79,3.79,0,0,1-.05-.58,4,4,0,0,1,.77-2.34,3.62,3.62,0,0,1,2.47-1.61l.4,0h0c-2.19.15-4.37.27-6.56.36a.28.28,0,0,0-.23.13.32.32,0,0,0,0,.27l1,2.56a2,2,0,0,1,.13.68,2,2,0,0,1-.22.9,2.09,2.09,0,0,1-1.22,1h3.24a.44.44,0,0,0,.31-.13.3.3,0,0,0,.09-.32Zm5.61,21.16a13.59,13.59,0,0,0,2-2.7.26.26,0,0,0,0-.27.26.26,0,0,0-.25-.13h-5.35a.22.22,0,0,0-.2.13.2.2,0,0,0,0,.23,16.48,16.48,0,0,0,3,2.78.45.45,0,0,0,.64,0h0Zm-1.12-22.19a3,3,0,0,1-2.07,1.39.06.06,0,0,0,0,.08h3.56a.75.75,0,0,0,.68-.4,46,46,0,0,0,2.65-5.75.27.27,0,0,0-.07-.27.22.22,0,0,0-.25-.09c-1.74.18-3.11.31-4.13.4a.3.3,0,0,0-.27.16.4.4,0,0,0,0,.34c.15.57.28,1.15.4,1.75a3.53,3.53,0,0,1,.08.72,2.81,2.81,0,0,1-.53,1.66ZM1008,724.76a4.79,4.79,0,0,1,1.55-3.62,5.89,5.89,0,0,1,7.77,0,4.79,4.79,0,0,1,1.55,3.62,4.68,4.68,0,0,1-1.55,3.61,6,6,0,0,1-7.77,0,4.69,4.69,0,0,1-1.55-3.62Zm2.2-10.6-1.48-11.68-.14-3.73a3.5,3.5,0,0,1,1-2.76,3.62,3.62,0,0,1,2.71-1.15h2.29a3.6,3.6,0,0,1,2.69,1.15,3.5,3.5,0,0,1,1,2.76l-.13,3.73-1.48,11.68a3.33,3.33,0,0,1-1.1,2,3.22,3.22,0,0,1-4.32,0,3.36,3.36,0,0,1-1.1-2Z"/><path class="cls-12" d="M752.77,290.67a2.65,2.65,0,0,1,2.23-3h0a3.14,3.14,0,0,1,.75,0c2,0,3.07,1,3.07,3v6.68a2.64,2.64,0,0,1-2.24,3h0a3.14,3.14,0,0,1-.75,0h-.35q3.16,3.87,3.16,11V344q0,15.83-15.82,15.82H711.46q-6.86,0-6.86-6.86t6.86-6.94h27.6q5.27,0,5.27-5.27V314.58q0-5.28-5.27-5.28h-27.6q-6.86,0-6.86-6.85v-.09q0-6.86,6.86-6.86h31.37q6.15,0,9.93,2.46v-7.29Zm9.49,0a2.64,2.64,0,0,1,2.24-3h0a3.14,3.14,0,0,1,.75,0q3.07,0,3.07,3v6.68a2.65,2.65,0,0,1-2.23,3h0a3.14,3.14,0,0,1-.75,0c-2.05,0-3.08-1-3.07-3Zm16.87,70.14q-6.33-2.3-4.22-8.79a173.71,173.71,0,0,0,5.23-20.7,120.62,120.62,0,0,0,1.72-20.17v-11.6q0-6.76,6.76-6.77t6.86,6.77v11.6a159.73,159.73,0,0,1-1.28,21.53,136.07,136.07,0,0,1-5.58,22.68q-2.46,7.29-9.49,5.45ZM829.58,352c1.41,4.34,0,7.26-4.22,8.79q-7,1.84-9.49-5.45a137.31,137.31,0,0,1-5.58-22.68A161.1,161.1,0,0,1,809,311.15v-11.6q0-6.76,6.86-6.77t6.77,6.77v11.6a119.58,119.58,0,0,0,1.72,20.17,173.67,173.67,0,0,0,5.22,20.7Zm10.19-50.54q0-6.85,6.86-6.85h15.12q6.86,0,6.85,6.85t-6.85,6.86H846.63Q839.77,308.32,839.77,301.46Zm52.12,8.35q5.9,2.73,3.87,8.44-2.37,8.17-9.18,17.8a70.08,70.08,0,0,1-14.77,15.64q-7.95,6-23.51,9.45-6.06,1.14-7.74-5.62-.87-6.94,5.63-8.09,11.34-1.94,17.93-7.12a63.72,63.72,0,0,0,11.74-12.09,50.12,50.12,0,0,0,7.6-14.54q2.19-5.35,8.43-3.85Z"/><path class="cls-12" d="M97.08,324.24q0-6.86,6.86-6.85h16.7v-9.93H106.4q-6.86,0-6.86-6.86t6.86-6.85h38.94q6.85,0,6.85,6.85t-6.85,6.86H134.61v9.93h13.27q6.85,0,6.86,6.85t-6.86,6.86H134.52a29.45,29.45,0,0,1-4.92,14.5,41.4,41.4,0,0,1-9.1,9.58,51.79,51.79,0,0,1-13,6.68q-6.1,2.14-8.5-4.22-2-6.67,4.22-8.79,9.06-3,12.66-7.38a20.85,20.85,0,0,0,4.48-10.37H103.94Q97.09,331.1,97.08,324.24Zm70.76,1.06c-3.29,0-5.07-1.85-5.37-5.54q0-5.72,5.1-6.06l3.34-.09-.44-5.27c-.46-3.81,1.32-5.92,5.37-6.33q5.61-.09,6,5.36l.62,6,19.33-.44q6.6-.09,9.94,4.35t.87,11a46.78,46.78,0,0,1-5.45,9.45,39.22,39.22,0,0,1-8,7.6q-4.22,3.94-8.08-.62Q189.2,340,192.53,337a41.42,41.42,0,0,0,8.09-9.23c.82-2.34.29-3.49-1.58-3.43l-15.21.53,4,33.93q.69,5.18-4.75,6-5.62.43-6.5-5.1l-4.22-34.54Zm107.58-8.09q5.26,4,2.46,9.14-2,5-8.79,13.72A60,60,0,0,1,255,353.56q-7.31,4.79-10.11,5.49-7.83,2.73-13-1.58t-5.23-12V299.9q0-6.94,7-6.94t7,6.94v41c.11,2.81,1.37,3.93,3.78,3.34a40.9,40.9,0,0,0,5.67-3.52,39.63,39.63,0,0,0,9.14-9,66.62,66.62,0,0,0,7-11.29q3-6.24,9.14-3.17ZM290,301.48q0-6.86,6.86-6.85H312q6.86,0,6.86,6.85T312,308.34H296.86Q290,308.34,290,301.48Zm52.12,8.35q5.88,2.73,3.87,8.44-2.37,8.18-9.19,17.8A70.22,70.22,0,0,1,322,351.71q-8,6-23.51,9.45-6.08,1.14-7.74-5.62-.87-6.94,5.63-8.09,11.33-1.93,17.93-7.12A63.62,63.62,0,0,0,326,328.25a49.8,49.8,0,0,0,7.6-14.55q2.21-5.35,8.44-3.87Zm67.85,0q5.89,2.73,3.87,8.44-2.37,8.18-9.19,17.8a66.4,66.4,0,0,1-15.11,15.64q-8.31,6-23.86,9.45-6.07,1.14-7.74-5.62-.87-6.94,5.63-8.09,11.34-1.93,18.28-7.12a59.11,59.11,0,0,0,12.08-12.08,49.8,49.8,0,0,0,7.6-14.55q2.21-5.35,8.44-3.87Zm-52.12-9.4q0-6.85,6.86-6.86h13.44q6.86,0,6.86,6.86t-6.86,6.94H364.71q-6.85,0-6.85-6.86Zm0,21.35q0-6.86,6.86-6.85h13.44q6.86,0,6.86,6.85t-6.86,7H364.71q-6.85,0-6.85-6.86Zm44.39-25.48a2.64,2.64,0,0,1,2.24-3h0a3.14,3.14,0,0,1,.75,0q3.07,0,3.07,3V303a2.65,2.65,0,0,1-2.23,3h0a3.05,3.05,0,0,1-.74,0c-2.06,0-3.08-1-3.08-3Zm9.49,0a2.64,2.64,0,0,1,2.24-3h0a3.14,3.14,0,0,1,.75,0c2,0,3.07,1,3.08,3V303a2.64,2.64,0,0,1-2.24,3h0a3.14,3.14,0,0,1-.75,0c-2.05,0-3.07-1-3.08-3Z"/><path class="cls-12" d="M95.1,718.33c.75.48,2,1.35,3.64,2.6a2.64,2.64,0,0,1,1.17,2.4,2.77,2.77,0,0,1-.67,1.8,2.39,2.39,0,0,1-1.93.94h0a2.45,2.45,0,0,1-1.93-.85h0a.15.15,0,0,0-.18,0,.14.14,0,0,0-.09.13v5.08a3.23,3.23,0,0,1-6.46.12.24.24,0,0,1,0-.12v-4c0-.06,0-.1-.12-.14a.1.1,0,0,0-.14,0h0c-.69.9-1.41,1.75-2.16,2.56a2.64,2.64,0,0,1-1.93.81H84a3.34,3.34,0,0,1-2.2-1.12,2.79,2.79,0,0,1-.72-1.94,2.87,2.87,0,0,1,1-2.24,29.18,29.18,0,0,0,5-5.7.25.25,0,0,0-.06-.35h0a.22.22,0,0,0-.16,0H83.74a2.83,2.83,0,0,1-2-4.81,2.66,2.66,0,0,1,2-.83h4.4a.4.4,0,0,0,.44-.35.17.17,0,0,0,0-.1v-1.89a.4.4,0,0,0-.34-.45H83.51a2.62,2.62,0,0,1-1.91-.78,2.77,2.77,0,0,1,0-3.87,2.58,2.58,0,0,1,1.91-.78h.63a.36.36,0,0,0,.27-.12.21.21,0,0,0,0-.24,9.45,9.45,0,0,0-.36-1.66,2,2,0,0,1-.09-.59,2.54,2.54,0,0,1,.27-1.08,2,2,0,0,1,1.3-1H84a2.53,2.53,0,0,1-1.9-.81,2.63,2.63,0,0,1-.79-1.91A2.68,2.68,0,0,1,84,694.35h4.16a.35.35,0,0,0,.4-.29v0a.14.14,0,0,0,0-.09v-.27a3.24,3.24,0,1,1,6.46-.45c0,.11,0,.23,0,.34V694a.36.36,0,0,0,.31.4h4.22a2.68,2.68,0,0,1,2.7,2.66h0a2.63,2.63,0,0,1-.79,1.91,2.55,2.55,0,0,1-1.91.81h-.8a1.36,1.36,0,0,1,1,.74,1.42,1.42,0,0,1,0,1.24c-.6,1.37-.94,2.17-1,2.38a.25.25,0,0,0,0,.24.24.24,0,0,0,.2.12h.85a2.58,2.58,0,0,1,1.91.78,2.77,2.77,0,0,1,0,3.87,2.62,2.62,0,0,1-1.91.78h-4.3a.4.4,0,0,0-.45.34h0v2a.4.4,0,0,0,.34.45H99.3a2.66,2.66,0,0,1,2,.83,2.69,2.69,0,0,1,.81,2,2.78,2.78,0,0,1-2.76,2.76H95.09v0Zm-1.17-16.8c.15-.48.28-.94.4-1.39a.31.31,0,0,0-.21-.39H89.21a.24.24,0,0,0-.25.11.37.37,0,0,0,0,.29,14.68,14.68,0,0,1,.67,1.93,4.17,4.17,0,0,1,0,.5,1.74,1.74,0,0,1-.27.94,2,2,0,0,1-1.21.9h7.36a2.35,2.35,0,0,1-1.75-2.16,2,2,0,0,1,.14-.72Zm26.64-5a72.1,72.1,0,0,1-10,2.83.51.51,0,0,0-.45.54v4.58a.41.41,0,0,0,.35.45h10.39a2.93,2.93,0,0,1,2.16.92,3.09,3.09,0,0,1,0,4.36,2.9,2.9,0,0,1-2.16.92h-.45a.36.36,0,0,0-.4.31v18.69a3.24,3.24,0,0,1-6.47.12V711.59a.4.4,0,0,0-.34-.45h-2.62a.4.4,0,0,0-.45.34h0a.17.17,0,0,0,0,.1q-.31,12.4-5,19.45a2.26,2.26,0,0,1-1.93,1h0a3.36,3.36,0,0,1-2.23-1,3.65,3.65,0,0,1-1.14-2.22,5.81,5.81,0,0,1,0-.59,3.61,3.61,0,0,1,.54-1.89,21.55,21.55,0,0,0,2.81-7.68,56.88,56.88,0,0,0,.7-9.21V696.86a2.57,2.57,0,0,1,2.51-2.61h0a2.72,2.72,0,0,1,.75.11,1.17,1.17,0,0,0,.74,0,62.66,62.66,0,0,0,7.54-2.47,5.46,5.46,0,0,1,2.25-.49,4,4,0,0,1,.85.09,5.15,5.15,0,0,1,2.83,1.26,2.25,2.25,0,0,1,.77,1.66,3.38,3.38,0,0,1,0,.45,1.92,1.92,0,0,1-1.39,1.66Zm15.72,22.6a6.94,6.94,0,0,0,.88,3.91,3.39,3.39,0,0,0,2.72,1.39,12.51,12.51,0,0,0,5-1.14,55.55,55.55,0,0,0,6.8-3.75,2.82,2.82,0,0,1,4,.12h0a2.15,2.15,0,0,1,.32.41,3.63,3.63,0,0,1-.72,5,39.68,39.68,0,0,1-4.4,3,30.71,30.71,0,0,1-5.25,2.4,20.19,20.19,0,0,1-6.16,1.12q-5.25-.09-7.59-3.08c-1.56-2-2.33-4.75-2.33-8.29V697.44q0-3.37,3.37-3.37t3.36,3.37Zm26.82-20.3c.12-2.24,1.29-3.37,3.5-3.37s3.12,1.25,3.06,3.37c0,.81,0,2.14-.09,4s-.12,3.87-.16,6-.08,4.18-.11,6a39.53,39.53,0,0,0,.33,5.75c.23,1.47.72,2.25,1.46,2.34a6.6,6.6,0,0,0,2.39-.54q2.37-1.53,3.9,1.26a3.8,3.8,0,0,1-1.84,4.71,5.54,5.54,0,0,1-1.8,1.13,16.05,16.05,0,0,1-3.23.63A5.65,5.65,0,0,1,164.7,727q-1.9-3.43-1.91-10.48v-6.4q0-3.52.09-6.6c0-2.07.12-3.64.21-4.72Zm19.32.23c-.45-2.1.5-3.18,2.87-3.24q3,0,3.6,3.24a75.37,75.37,0,0,1,2,11.37,117.49,117.49,0,0,1,.7,15.12c0,2.46-1.13,3.68-3.37,3.68s-3.27-1-3.24-3.14c0-1,0-2.74-.06-5.26s-.25-5.27-.52-8.26-.57-5.55-.92-7.66-.69-4.07-1-5.86Zm17,22.31a11.19,11.19,0,0,1,2.87-6.87c1.14-1.47,2.55-1.68,4.23-.65s1.94,2.39.8,4.06a4.59,4.59,0,0,0-.85,2.61,2.67,2.67,0,0,0,.45,1.55,3.23,3.23,0,0,0,1.95,1,23.87,23.87,0,0,0,4.7.4,83.72,83.72,0,0,0,8.67-.54q3.5-.54,3.59,3.41.09,3.24-3.59,3.78a56.85,56.85,0,0,1-9.66.67q-6.74,0-10-2.42a8.12,8.12,0,0,1-3.19-7Zm20.3-25.6a3.36,3.36,0,0,1,3.7,2.85c.37,1.85-.62,3.72-3,5.46l-2.92,2.15a4.87,4.87,0,0,1-4.63,0c-1.11-1.37-1.09-2.57,0-3.59h-9.3c-2.27,0-3.4-1.14-3.41-3.41s1.13-3.43,3.41-3.46Zm39.84,11.54q0,3.38-2.87,3.42a51.77,51.77,0,0,0-10.52,1.39,15.94,15.94,0,0,0-4.87,2.45,4.94,4.94,0,0,0-2.09,4,4.71,4.71,0,0,0,1.53,3.68,6.44,6.44,0,0,0,3.57,1.57,24.3,24.3,0,0,0,4.51.14,75.14,75.14,0,0,0,7.5-.49c2.13-.21,3.21.86,3.24,3.23q.09,3.28-2.88,3.64a43.36,43.36,0,0,1-7.72.49,36.43,36.43,0,0,1-8.07-.76,11.79,11.79,0,0,1-6.4-3.77q-2.64-3-2.33-8.14a13.72,13.72,0,0,1,1.23-4.78A9.43,9.43,0,0,1,236,710.1a40,40,0,0,1,3.28-2.36l-1.71-10.15c-.18-1.68.74-2.7,2.74-3s3.27.65,3.5,2.51l1.3,8.54q4-1.53,11.55-1.85c1.88,0,2.84,1.19,2.87,3.55Zm6.42-2.83q.31-3.9.72-6.51.63-2.88,4-2.7,2.87,0,2.69,3.23-.31,2.12-.63,6t-.36,8.16q0,4.53.36,8.42t.63,6c.12,2.13-.78,3.2-2.69,3.23q-3.33.18-4-2.7-.39-2.6-.72-6.51c-.21-2.58-.33-5.33-.35-8.27h0q0-4.44.35-8.31Zm9.39,16.35a14.81,14.81,0,0,1,1-5.43,3,3,0,0,1,3.59-2c1.92.57,2.57,1.65,2,3.24a9.37,9.37,0,0,0-.32,2.29,3.36,3.36,0,0,0,.32,1.62,2.76,2.76,0,0,0,1.46,1.25,8.58,8.58,0,0,0,3.25.54,44.37,44.37,0,0,0,4.81-.13c2.16-.3,3.29.72,3.41,3-.06,2.28-1,3.54-2.87,3.78a55.17,55.17,0,0,1-5.8.4c-3.5-.09-6.17-1-8-2.59a8.23,8.23,0,0,1-2.88-6Zm15-23.26c2.28,0,3.42,1.13,3.42,3.41s-1.14,3.46-3.42,3.46h-10.2q-3.42,0-3.42-3.42t3.42-3.45Zm25.79-.32a3.61,3.61,0,0,1,2.29,1.75.08.08,0,0,0,.11.07.09.09,0,0,0,.07-.11v-5.39a3.06,3.06,0,0,1,3.06-3.06h0a2.89,2.89,0,0,1,2.16.9,3,3,0,0,1,.88,2.16v17c0,2.3-.09,4.33-.25,6.09a34.83,34.83,0,0,1-1,5.45,17.36,17.36,0,0,1-6.06,9.44,3.2,3.2,0,0,1-2.56.67,4.54,4.54,0,0,1-2.43-1.26,2.6,2.6,0,0,1-.76-1.84,2.72,2.72,0,0,1,1-2.2,14.41,14.41,0,0,0,4.9-7.32.09.09,0,0,0,0-.13h0a.19.19,0,0,0-.18,0c-.34.3-.74.63-1.22,1a2.59,2.59,0,0,1-1.7.63h-.59a2.76,2.76,0,0,1-1.93-1.35,3.4,3.4,0,0,1-.45-1.62,4,4,0,0,1,.09-.85,3.39,3.39,0,0,1,1.48-2q2.07-1.31,4.77-3.15a.52.52,0,0,1,.42-.07.59.59,0,0,1,.34.3v-5.75a.17.17,0,0,0-.09-.16.13.13,0,0,0-.18,0h0a2.12,2.12,0,0,1-1.88.18,2.27,2.27,0,0,1-1.44-1.3c-.66-1.49-1.45-3.1-2.38-4.8a.11.11,0,0,0-.14-.07h0a.12.12,0,0,0-.09.11v.9a3.08,3.08,0,0,1-3.05,3.06.32.32,0,0,0-.36.26v3.87a.23.23,0,0,0,.11.2.23.23,0,0,0,.2,0,2.55,2.55,0,0,1,2.16.13,2.63,2.63,0,0,1,1.3,1.76,3.15,3.15,0,0,1-.36,2.38,3.34,3.34,0,0,1-1.8,1.61c-.33.15-.72.32-1.17.5a.65.65,0,0,0-.45.63v11a11.21,11.21,0,0,1-.45,3.55,4,4,0,0,1-1.57,2.06,8.21,8.21,0,0,1-3.5,1.13h-.36a3.11,3.11,0,0,1-2-.76,4.32,4.32,0,0,1-1.44-2.29,2.54,2.54,0,0,1,.05-1.42,2.13,2.13,0,0,1,.81-1.12,2.42,2.42,0,0,1,1.34-.47h.32a.6.6,0,0,0,.72-.44.66.66,0,0,0,0-.28v-8.72a.25.25,0,0,0-.11-.24.28.28,0,0,0-.25,0l-.14,0a2.85,2.85,0,0,1-1,.18,3,3,0,0,1-1.35-.32A3.35,3.35,0,0,1,298.5,715a3.25,3.25,0,0,1,.49-1.66,3.61,3.61,0,0,1,2-1.62c.51-.14,1-.31,1.57-.49a.57.57,0,0,0,.4-.63v-5.7a.4.4,0,0,0-.34-.45h-1.09a3.06,3.06,0,0,1,0-6.11h1A.4.4,0,0,0,303,698v-5a2.94,2.94,0,0,1,.9-2.18,3.08,3.08,0,0,1,4.31,0,2.94,2.94,0,0,1,.9,2.18v4.85a.4.4,0,0,0,.34.45h2.13a1.79,1.79,0,0,0,.85-.22l.9-.5a3.92,3.92,0,0,1,1.89-.5,4.82,4.82,0,0,1,1,.14Zm17.7,30h1.75c.27,0,.48-.18.63-.56a7.53,7.53,0,0,0,.32-2,1.85,1.85,0,0,1,1-1.53,2.4,2.4,0,0,1,.95-.22,2.33,2.33,0,0,1,.9.18,5.19,5.19,0,0,1,2,1.75,3.14,3.14,0,0,1,.54,1.75,2,2,0,0,1-.09.59,9,9,0,0,1-1.91,4.58,4.93,4.93,0,0,1-3.75,1.39h-3.55q-3.5,0-4.74-1.8t-1.23-6.78v-31a3,3,0,0,1,.94-2.23A3.16,3.16,0,0,1,333,693.6v8c0,.06,0,.09.07.09a.16.16,0,0,0,.11-.05c.48-1.13.93-2.24,1.35-3.32a2.82,2.82,0,0,1,1.61-1.75,2.67,2.67,0,0,1,2.34.09,3.17,3.17,0,0,1,1.62,1.93,3.74,3.74,0,0,1,.13.94,3.37,3.37,0,0,1-.4,1.58q-2.07,3.72-2.25,4.08a3.2,3.2,0,0,1-1.89,1.49,6,6,0,0,1-.85.09,3.15,3.15,0,0,1-1.53-.4.23.23,0,0,0-.2,0,.21.21,0,0,0-.11.16v4.22c0,.06,0,.1.05.11a.08.08,0,0,0,.09,0,2.21,2.21,0,0,1,1.43-.63h.09a2,2,0,0,1,1.4.54c1.61,1.47,3.07,2.9,4.35,4.31a3.35,3.35,0,0,1,.86,2.25,3.7,3.7,0,0,1-1,2.47,2.48,2.48,0,0,1-1.84.81h-.18a2.58,2.58,0,0,1-2-1c-.9-1.11-1.9-2.27-3-3.46a.18.18,0,0,0-.2,0,.17.17,0,0,0-.11.18v8.4a9.77,9.77,0,0,0,.13,2.16.66.66,0,0,0,.71.45Zm32.43-1.08h-5.8a.41.41,0,0,0-.45.35v3.79a3,3,0,0,1-.94,2.27,3.2,3.2,0,0,1-5.44-2.2v-3.75a.4.4,0,0,0-.34-.45H347.1a2.92,2.92,0,0,1,0-5.84h6.15a.4.4,0,0,0,.45-.34h0a.17.17,0,0,0,0-.1v-1.12a.41.41,0,0,0-.34-.46h-3.64a3.91,3.91,0,0,1-3.91-3.9v-9.84a3.91,3.91,0,0,1,3.91-3.91h13.79a.11.11,0,0,0-.05-.09,3,3,0,0,1-2-1.76,3.86,3.86,0,0,1-.27-1.34,3.3,3.3,0,0,1,.32-1.35l1.08-2.7a3.86,3.86,0,0,1,1.8-2.15,3.47,3.47,0,0,1,1.8-.5,3.75,3.75,0,0,1,.94.14A2.52,2.52,0,0,1,369,692.5a2.71,2.71,0,0,1,.27,1.12,2.57,2.57,0,0,1-.36,1.3q-1.85,3.38-3.28,5.57a.15.15,0,0,0,0,.16.15.15,0,0,0,.14.07,2.19,2.19,0,0,1,1.62.67,2.29,2.29,0,0,1,.67,1.66v11.41a3.91,3.91,0,0,1-3.91,3.91h-3.59a.4.4,0,0,0-.45.34h0a.17.17,0,0,0,0,.1v1.12a.4.4,0,0,0,.34.45h5.91a2.92,2.92,0,1,1,0,5.84ZM351.69,695.6a2.75,2.75,0,0,1-.18,2.34,3,3,0,0,1-1.84,1.52,2.09,2.09,0,0,1-.85.18,2.47,2.47,0,0,1-1.3-.36,3,3,0,0,1-1.44-1.8,22.15,22.15,0,0,0-.81-2.24,3.39,3.39,0,0,1-.18-1,2.43,2.43,0,0,1,.27-1.12,2.31,2.31,0,0,1,1.48-1.35,3.16,3.16,0,0,1,2.34.09,3.07,3.07,0,0,1,1.62,1.59C351.12,694.2,351.42,694.91,351.69,695.6Zm0,10a.4.4,0,0,0-.45.34h0a.17.17,0,0,0,0,.1v.85a.41.41,0,0,0,.34.46h2.13a.41.41,0,0,0,.45-.35v-1a.4.4,0,0,0-.34-.45h-2.13Zm0,6.25a.4.4,0,0,0-.45.34.21.21,0,0,0,0,.11v.85a.4.4,0,0,0,.34.45h2.13a.4.4,0,0,0,.45-.34h0v-1a.4.4,0,0,0-.34-.45h-.11Zm7.05-19.32c.24.72.46,1.42.67,2.11a2.5,2.5,0,0,1-.31,2.25,3.08,3.08,0,0,1-2.61,1.48,2.78,2.78,0,0,1-1.43-.4,2.92,2.92,0,0,1-1.3-1.84c-.18-.75-.38-1.5-.59-2.25A2.42,2.42,0,0,1,353,693a2.57,2.57,0,0,1,.36-1.3,2.53,2.53,0,0,1,1.66-1.21,3.26,3.26,0,0,1,2.25.27,2.89,2.89,0,0,1,1.43,1.71ZM362,707.36a.41.41,0,0,0,.45-.35.21.21,0,0,0,0-.11V706a.4.4,0,0,0-.34-.45h-1.9a.4.4,0,0,0-.45.34h0a.17.17,0,0,0,0,.1v.85a.41.41,0,0,0,.34.46H362Zm0,6.24a.4.4,0,0,0,.45-.34.21.21,0,0,0,0-.11v-.85a.4.4,0,0,0-.34-.45h-1.9a.4.4,0,0,0-.45.34.21.21,0,0,0,0,.11v.85a.4.4,0,0,0,.34.45Zm20.8-5.84c-.06,0-.1,0-.11.11a.14.14,0,0,0,.07.16l1.17.63a4.47,4.47,0,0,1,2.38,4,4.31,4.31,0,0,1-.36,1.66,45.33,45.33,0,0,1-4.63,8.27.8.8,0,0,0-.13.76c.54,1.38,1,2.08,1.52,2.11s.74-.85.95-2.56a1.34,1.34,0,0,1,.94-1.17,2,2,0,0,1,.59-.09,1.55,1.55,0,0,1,.94.36,5.54,5.54,0,0,1,1.66,2.2,3.59,3.59,0,0,1,.36,1.58,4.22,4.22,0,0,1-.13,1,12.26,12.26,0,0,1-2.43,5.26,3.93,3.93,0,0,1-2.79,1.39h-.13q-3.69-.13-6-4.62a.31.31,0,0,0-.24-.2.43.43,0,0,0-.29.06,34.79,34.79,0,0,1-4,3.37,3.59,3.59,0,0,1-2,.63h-.59a4.69,4.69,0,0,1-2.47-1.26,2.24,2.24,0,0,1-.76-1.71,1.22,1.22,0,0,1,0-.27,2.19,2.19,0,0,1,1.08-1.75A29.94,29.94,0,0,0,374,722.2a.87.87,0,0,0,.18-.76,91.61,91.61,0,0,1-1.66-12,.29.29,0,0,0-.36-.32h-.4a3,3,0,0,1-2.92-2.65l-.05-.14v-.4a3.15,3.15,0,0,1,.68-1.93,3.19,3.19,0,0,1,2.11-1.17h.13a.36.36,0,0,0,.36-.36h0q-.36-6.42-.36-9.16a3.08,3.08,0,0,1,3.11-3,3,3,0,0,1,2.16.7,3.23,3.23,0,0,1,1,2.23c0,2.54.12,5.3.27,8.26,0,.3.15.44.45.4l5.7-.71h.4a3.14,3.14,0,0,1,3,2.74v.36a3.15,3.15,0,0,1-2.74,3.1Zm-3.19,6.42a40.73,40.73,0,0,0,2.57-6,.25.25,0,0,0,0-.25.27.27,0,0,0-.22-.11l-2.74.36a.42.42,0,0,0-.4.44h0c.15,1.65.34,3.45.58,5.39,0,.09,0,.15.11.16a.14.14,0,0,0,.16-.07Zm5.62-21.34c.54.93,1,1.8,1.39,2.6a3.3,3.3,0,0,1,.32,1.35,3.2,3.2,0,0,1-1.84,2.92,2.41,2.41,0,0,1-1.17.31,2.72,2.72,0,0,1-2.57-1.7c-.38-.93-.82-1.87-1.3-2.83a2.59,2.59,0,0,1-.35-1.3,2.45,2.45,0,0,1,.13-.81,2.58,2.58,0,0,1,1.35-1.66,3.18,3.18,0,0,1,1.39-.32,4,4,0,0,1,.85.09,2.9,2.9,0,0,1,1.8,1.35Zm10,31.94a4.8,4.8,0,0,1,1.55-3.61,5.89,5.89,0,0,1,7.77,0,4.72,4.72,0,0,1,1.55,3.61,4.66,4.66,0,0,1-1.55,3.62,6,6,0,0,1-7.77,0A4.69,4.69,0,0,1,395.2,724.78Zm2.2-10.6-1.47-11.68-.14-3.73a3.5,3.5,0,0,1,1-2.76,3.67,3.67,0,0,1,2.7-1.15h2.29a3.67,3.67,0,0,1,2.7,1.15,3.5,3.5,0,0,1,1,2.76l-.13,3.73-1.48,11.68a3.36,3.36,0,0,1-1.1,2.05,3.24,3.24,0,0,1-4.32,0,3.42,3.42,0,0,1-1.11-2.05Zm20.8,10.6a4.8,4.8,0,0,1,1.55-3.61,5.89,5.89,0,0,1,7.77,0,4.72,4.72,0,0,1,1.55,3.61,4.66,4.66,0,0,1-1.55,3.62,6,6,0,0,1-7.77,0A4.69,4.69,0,0,1,418.2,724.78Zm2.2-10.6-1.47-11.68-.14-3.73a3.5,3.5,0,0,1,1-2.76,3.67,3.67,0,0,1,2.7-1.15h2.29a3.67,3.67,0,0,1,2.7,1.15,3.5,3.5,0,0,1,1,2.76l-.13,3.73-1.48,11.68a3.36,3.36,0,0,1-1.1,2.05,3.24,3.24,0,0,1-4.32,0,3.42,3.42,0,0,1-1.11-2.05Z"/><path class="cls-13" d="M1195.73,253.47h294c33.18,0,53.09,0,66.36,5.54a68.91,68.91,0,0,1,41.18,41.18c5.54,13.27,5.54,33.18,5.54,66.36V660.19c0,33.18,0,53.09-5.54,66.37a68.9,68.9,0,0,1-41.18,41.17c-13.27,5.54-33.18,5.54-66.36,5.54h-294c-33.18,0-53.09,0-66.36-5.54a68.83,68.83,0,0,1-41.17-41.17c-5.55-13.28-5.55-33.19-5.55-66.37V366.55c0-33.18,0-53.09,5.55-66.36A68.89,68.89,0,0,1,1129.37,259C1142.64,253.47,1162.55,253.47,1195.73,253.47Z"/><path class="cls-12" d="M1166.8,717.66a3.28,3.28,0,0,1-1,2.42,3.23,3.23,0,0,1-2.38,1h-1.89a1.53,1.53,0,0,1-1.52-1.53.16.16,0,0,0-.14-.18h-4.4a.16.16,0,0,0-.18.14h0a1.55,1.55,0,0,1-1.53,1.53h-1.84a3.37,3.37,0,0,1-3.41-3.33h0v-10a.4.4,0,0,0-.34-.45H1144a.39.39,0,0,0-.44.33v0a.17.17,0,0,0,0,.1v16.4a.4.4,0,0,0,.34.45h24.72a3.22,3.22,0,0,1,0,6.43h-24.8a.24.24,0,0,0-.27.2v.06a2.26,2.26,0,0,1-.72,1.69,2.4,2.4,0,0,1-1.7.7h-1a3.48,3.48,0,0,1-3.46-3.45V707.68a.4.4,0,0,0-.34-.45h-2.89a3.07,3.07,0,0,1-2.25-.94,3.27,3.27,0,0,1,0-4.58,3.1,3.1,0,0,1,2.25-1h2.79a.39.39,0,0,0,.44-.33h0a.17.17,0,0,0,0-.1v-5.48a3.46,3.46,0,1,1,6.92,0h0v5.5a.4.4,0,0,0,.34.45h4.15a.4.4,0,0,0,.45-.34h0a.17.17,0,0,0,0-.1V693.8a3.4,3.4,0,0,1,6.79,0v6.51a.4.4,0,0,0,.34.45h3.92a.4.4,0,0,0,.45-.34h0a.21.21,0,0,0,0-.11V694.2a3.4,3.4,0,0,1,6.79,0v6.11a.4.4,0,0,0,.34.45h3.16a3.07,3.07,0,0,1,2.25.94,3.25,3.25,0,0,1,0,4.58,3,3,0,0,1-2.25,1h-3a.4.4,0,0,0-.45.34v10.09Zm-11.5-4.95a.4.4,0,0,0,.34.45h3.93a.4.4,0,0,0,.45-.34h0v-5.14a.4.4,0,0,0-.34-.45h-3.93a.4.4,0,0,0-.45.34h0v5.13Zm59.57-4.76a3.92,3.92,0,0,1-3.91,3.91h-2.2c-.06,0-.1,0-.11.11a.12.12,0,0,0,.06.16h0a28.82,28.82,0,0,0,7.68,4,2.2,2.2,0,0,1,1.49,1.58,2.82,2.82,0,0,1,.09.71,2.42,2.42,0,0,1-.5,1.44,5.28,5.28,0,0,1-2.51,1.8,3.87,3.87,0,0,1-1.3.23,4.11,4.11,0,0,1-1.62-.36,26.46,26.46,0,0,1-3.14-1.71.28.28,0,0,0-.25,0,.21.21,0,0,0-.11.2V730a3.32,3.32,0,0,1-1,2.49,3.52,3.52,0,0,1-4.94,0,3.32,3.32,0,0,1-1-2.49v-9.66a3.07,3.07,0,0,1,.94-2.25,3.16,3.16,0,0,1,2.29-.94s.06,0,.09-.11a.25.25,0,0,0,0-.16,30,30,0,0,1-4.36-4.58.84.84,0,0,0-.71-.36h-3.55a.84.84,0,0,0-.72.36,31.81,31.81,0,0,1-4.31,4.45.1.1,0,0,0,0,.14h0a.13.13,0,0,0,.14.12,3.29,3.29,0,0,1,2.44,1,3.24,3.24,0,0,1,1,2.4q0,8.26-7.5,12.22a4.55,4.55,0,0,1-1.7.36,4.6,4.6,0,0,1-1.17-.18,5.2,5.2,0,0,1-2.47-1.71,2.18,2.18,0,0,1-.58-1.48,2.91,2.91,0,0,1,0-.59,2.32,2.32,0,0,1,1.35-1.7q5.16-2.52,5.16-7.28v-.36a.21.21,0,0,0-.13-.2.24.24,0,0,0-.23,0,33.87,33.87,0,0,1-3.86,2.15,4,4,0,0,1-1.66.36,3.86,3.86,0,0,1-1.17-.18,4.67,4.67,0,0,1-2.47-1.66,2.29,2.29,0,0,1-.54-1.48,2.45,2.45,0,0,1,1.53-2.25,31.84,31.84,0,0,0,7.64-4.22.12.12,0,0,0,0-.16.14.14,0,0,0-.13-.11H1185a3.91,3.91,0,0,1-3.9-3.91V695.42a3.91,3.91,0,0,1,3.9-3.91h26a3.91,3.91,0,0,1,3.91,3.91h0Zm-26.6-11.1a.4.4,0,0,0-.45.34h0v1.54a.4.4,0,0,0,.34.45H1194a.4.4,0,0,0,.45-.34h0a.17.17,0,0,0,0-.1V697.3a.4.4,0,0,0-.34-.45Zm0,7.28a.4.4,0,0,0-.45.34v1.59a.4.4,0,0,0,.34.45H1194a.4.4,0,0,0,.45-.34h0a.21.21,0,0,0,0-.11v-1.48a.4.4,0,0,0-.34-.45Zm19.14-4.94a.4.4,0,0,0,.45-.34h0V697.3a.4.4,0,0,0-.34-.45h-5.86a.4.4,0,0,0-.45.34h0v1.54a.4.4,0,0,0,.34.45Zm-6.2,6.87a.4.4,0,0,0,.34.45h5.86a.4.4,0,0,0,.45-.34v-1.59a.4.4,0,0,0-.34-.45h-5.86a.4.4,0,0,0-.45.34.21.21,0,0,0,0,.11Zm23-1.57q.32-3.91.72-6.51.63-2.88,4-2.7,2.88,0,2.7,3.23-.32,2.12-.63,6c-.21,2.59-.33,5.3-.36,8.15q0,4.55.36,8.43t.63,6q.18,3.18-2.7,3.23c-2.22.12-3.53-.78-4-2.7q-.4-2.6-.72-6.51c-.21-2.58-.33-5.33-.36-8.27h0q0-4.44.36-8.31Zm9.39,16.35a14.81,14.81,0,0,1,1-5.43,3,3,0,0,1,3.6-2c1.91.57,2.57,1.64,2,3.23a8.9,8.9,0,0,0-.31,2.29,3.22,3.22,0,0,0,.31,1.62,2.78,2.78,0,0,0,1.46,1.26,8.83,8.83,0,0,0,3.26.54,41,41,0,0,0,4.8-.14q3.24-.45,3.42,3.06c-.06,2.27-1,3.52-2.88,3.77a53.47,53.47,0,0,1-5.8.4q-5.25-.13-8-2.58a8.24,8.24,0,0,1-2.87-6Zm15-23.27c2.27,0,3.4,1.14,3.41,3.42s-1.13,3.43-3.41,3.45h-10.24c-2.28,0-3.41-1.13-3.41-3.41s1.13-3.46,3.41-3.46Zm40.34,29h3.14a1.19,1.19,0,0,0,1.19-.81,13.3,13.3,0,0,0,.52-3.37,1.86,1.86,0,0,1,1-1.66,2.47,2.47,0,0,1,1.13-.27,3,3,0,0,1,.94.18,5.42,5.42,0,0,1,2.24,1.84,3.86,3.86,0,0,1,.63,2.11,4.86,4.86,0,0,1,0,.54q-.63,4.36-2.18,6a6.2,6.2,0,0,1-4.78,1.66h-5q-4.3,0-5.82-1.77c-1-1.18-1.5-3.35-1.5-6.49v-12.4a.4.4,0,0,0-.34-.45h-5.18a.44.44,0,0,0-.5.39v.06c-.18,1.83-.39,3.44-.62,4.83a28.8,28.8,0,0,1-1.15,4.38,17.27,17.27,0,0,1-4.92,7.56,20.77,20.77,0,0,1-4.31,3.08,3.57,3.57,0,0,1-1.57.36,3.31,3.31,0,0,1-1.08-.18,4.46,4.46,0,0,1-2.25-1.66,2.56,2.56,0,0,1-.53-1.5,5.81,5.81,0,0,1,0-.59,2.61,2.61,0,0,1,1.3-1.8,15,15,0,0,0,3.26-2.27,13.44,13.44,0,0,0,2.17-2.53,11.69,11.69,0,0,0,1.33-3,23.13,23.13,0,0,0,.74-3.17c.15-1,.28-2.13.4-3.48a.48.48,0,0,0-.45-.45h-6.06a3.22,3.22,0,0,1-3.24-3.2h0a3.17,3.17,0,0,1,1-2.31,3.07,3.07,0,0,1,2.29-1h35.17a3.07,3.07,0,0,1,2.29,1,3.25,3.25,0,0,1-2.26,5.54h-8.07a.4.4,0,0,0-.45.34h0v12.46a3.53,3.53,0,0,0,.25,1.7c.17.25.6.38,1.28.37Zm2.56-33.65a3.22,3.22,0,1,1,.45,6.42h-27a3.22,3.22,0,0,1-.11-6.43Zm21.7,10.43a31.5,31.5,0,0,1-3.15,4.13.13.13,0,0,0,0,.2h0a.19.19,0,0,0,.16.11h24.39a3.91,3.91,0,0,1,3.91,3.91h0q0,15.31,2.6,15.32.54,0,.72-3a1.22,1.22,0,0,1,1.29-1.15h0a1.23,1.23,0,0,1,.82.38,6,6,0,0,1,2,4.18,4.12,4.12,0,0,1-.09.86,8.07,8.07,0,0,1-1.68,4.11,4.57,4.57,0,0,1-3.49,1.28,6.81,6.81,0,0,1-3.1-.68,6,6,0,0,1-2.26-2,14.17,14.17,0,0,1-1.6-3,19.71,19.71,0,0,1-1.08-4c-.27-1.57-.47-3.15-.61-4.74s-.23-3.38-.29-5.39a.4.4,0,0,0-.34-.45h-8.18a.1.1,0,0,0,.07.09l2.11.67a3.06,3.06,0,0,1,2,1.89,2.81,2.81,0,0,1,.22,1.07,3.08,3.08,0,0,1-.49,1.62c-.66,1-1.35,1.93-2.07,2.83a.37.37,0,0,0,0,.52.26.26,0,0,0,.14.11q2.07,1.39,3.6,2.61a3,3,0,0,1,1.16,2.47,3.33,3.33,0,0,1-1.07,2.51,3.7,3.7,0,0,1-2.61,1,4.17,4.17,0,0,1-2.74-1c-.9-.78-2-1.62-3.14-2.51a.55.55,0,0,0-.72,0,49.88,49.88,0,0,1-7.73,5.57,4.37,4.37,0,0,1-2,.54,3.45,3.45,0,0,1-.9-.14,5,5,0,0,1-2.61-1.48,2.29,2.29,0,0,1-.67-1.62,2,2,0,0,1,0-.49,2.3,2.3,0,0,1,1.34-1.75,39.57,39.57,0,0,0,7.06-4.45.29.29,0,0,0,.13-.27.28.28,0,0,0-.18-.27c-1.33-.84-2.64-1.63-3.91-2.38a2.39,2.39,0,0,1-1.17-1.84,1.71,1.71,0,0,1,0-.32,2.29,2.29,0,0,1,.76-1.71,4.47,4.47,0,0,1,2.56-1.16,2.91,2.91,0,0,1,.59,0,4.6,4.6,0,0,1,2.15.54l3.82,2.2a.51.51,0,0,0,.68-.09,35.37,35.37,0,0,0,2.78-4.36.25.25,0,0,0-.06-.35h0a.22.22,0,0,0-.16,0H1311.4a3.59,3.59,0,0,1-3.59-3.59.75.75,0,0,0-.32-.67c-.6-.48-1.36-1-2.29-1.71a2.75,2.75,0,0,1-1.25-2.2,1.22,1.22,0,0,1,0-.27,3.12,3.12,0,0,1,.9-2.2,28.87,28.87,0,0,0,5.8-9.66,4.39,4.39,0,0,1,1.84-2.25,4,4,0,0,1,1.93-.54,6.11,6.11,0,0,1,.86.09l.81.18a2.44,2.44,0,0,1,1.66,1.22,2.21,2.21,0,0,1,.36,1.17,2.09,2.09,0,0,1-.18.85.23.23,0,0,0,0,.2.23.23,0,0,0,.2.11h23.32a2.7,2.7,0,0,1,2.74,2.63v.09a2.74,2.74,0,0,1-.79,2,2.55,2.55,0,0,1-2,.81h-25.61a.65.65,0,0,0-.63.36l-.31.63c-.06.06-.06.13,0,.22a.24.24,0,0,0,.22.14h22.36a2.54,2.54,0,0,1,1.87.79,2.64,2.64,0,0,1,0,3.73l0,0h0a2.55,2.55,0,0,1-1.87.78H1316.3a2.9,2.9,0,0,1-2.92-2.85l-.07-.07a.08.08,0,0,0-.11,0Zm36.16-2c0-2.06,1-3.1,3.1-3.1H1359l.58-1.57q.81-2.91,4.54-2.06c1.77.8,2.32,2,1.66,3.63h7.14c2.07,0,3.1,1,3.1,3.1s-1,3.1-3.1,3.1h-10.1a6.16,6.16,0,0,1-.54,1.13c-.36.66-.67,1.27-.94,1.84,0,0,.2-.16.52-.38a2.59,2.59,0,0,1,.78-.43q3-1.12,4.69,0a5.31,5.31,0,0,1,2.27,3.36c1.68-.89,3.39-1.69,5.12-2.42q3.29-1.39,4.5,1.62.9,3.54-2.16,4.49a50.23,50.23,0,0,0-7,2.78v3.24q0,3-3.06,3c-2.06,0-3.1-1-3.1-3v-.18a3.13,3.13,0,0,1-.42.29,5.38,5.38,0,0,1-.66.38c-1.28,1.08-1.82,2.08-1.61,3s1.3,1.42,3.28,1.48a70.38,70.38,0,0,0,9-.76c2.27-.36,3.46.72,3.59,3.23q.18,3.42-2.87,3.78a82.07,82.07,0,0,1-10.16.45,10.69,10.69,0,0,1-5.81-1.71,7.17,7.17,0,0,1-3-4,7.56,7.56,0,0,1,.47-5.17,12.57,12.57,0,0,1,4.4-5c.63-.42,1.25-.82,1.87-1.21l1.86-1.17a1.54,1.54,0,0,0-.4-1.12,1.73,1.73,0,0,0-1.35-.18,7.69,7.69,0,0,0-2.13,1.05,27.3,27.3,0,0,0-2.67,2c-.93.8-2.07,1.85-3.42,3.17-1.25,1.08-2.62,1-4.13-.18-.93-1.65-.93-3,0-4a21.8,21.8,0,0,0,3-3.15c.89-1.17,1.84-2.51,2.83-4,.2-.36.42-.78.65-1.26s.35-.75.38-.81h-4.14c-2.06,0-3.1-1-3.1-3.1Zm44,.59a.4.4,0,0,0-.45.34v4.5q0,15-3.64,23.63a2.34,2.34,0,0,1-1.84,1.48,2.91,2.91,0,0,1-2.47-.49,3.74,3.74,0,0,1-1.57-2.11,4.16,4.16,0,0,1,.09-2.7,34.77,34.77,0,0,0,2.2-9.1,101,101,0,0,0,.54-10.72V699.4a3.91,3.91,0,0,1,3.9-3.91h11.73a.4.4,0,0,0,.45-.34h0V693.4a3.51,3.51,0,0,1,7,0v1.66a.4.4,0,0,0,.34.45h12.59a3.21,3.21,0,1,1,0,6.42h-28.88Zm25.56,14.2a86.92,86.92,0,0,1,6.29,10.91,3.43,3.43,0,0,1,0,3,3.83,3.83,0,0,1-2.11,2.16H1423a3.39,3.39,0,0,1-2.65,0,3.61,3.61,0,0,1-1.89-1.93.52.52,0,0,0-.58-.36q-11.55,1-22.42,1.71h-.27a3.53,3.53,0,0,1-3.46-3.19v-.36a3,3,0,0,1,.81-2.11,3.12,3.12,0,0,1,2.34-1.13h1.43a.58.58,0,0,0,.59-.45,118.69,118.69,0,0,0,4.58-16.89,3.78,3.78,0,0,1,1.62-2.47,3.71,3.71,0,0,1,2.11-.68,6.47,6.47,0,0,1,.76,0h0a3.65,3.65,0,0,1,2.87,4.54q-2.11,7.95-4.71,15.1a.27.27,0,0,0,.27.4L1415,724a.31.31,0,0,0,.26-.35v-.1q-1.3-2.38-2.7-4.63a2.89,2.89,0,0,1-.31-2.43,2.67,2.67,0,0,1,1.57-1.8,4.49,4.49,0,0,1,1.66-.31,3.86,3.86,0,0,1,1.17.18,4.08,4.08,0,0,1,2.29,1.61Zm13.21-11.64q.31-3.9.72-6.51c.42-1.92,1.73-2.82,4-2.7q2.88,0,2.7,3.23-.32,2.12-.63,6c-.21,2.6-.33,5.25-.36,8s.12,5.65.36,8.24.45,4.59.63,6q.18,3.19-2.7,3.24-3.33.18-4-2.7-.4-2.61-.72-6.52c-.21-2.57-.33-5.27-.36-8.08h0q0-4.26.36-8.13Zm12.62,4.27c-2.28,0-3.41-1.15-3.41-3.46s1.13-3.41,3.41-3.41h5.8v-4.27q0-3.37,3.37-3.37t3.37,3.37v4.27H1459c2.28,0,3.41,1.14,3.41,3.41s-1.13,3.46-3.41,3.46h-1.66V715a35.89,35.89,0,0,1-1.21,9.16,18.81,18.81,0,0,1-2.56,5.62q-2,2.6-4.5,1.44-2.55-1.31-1.25-4.14a27.45,27.45,0,0,0,2-5.48,29,29,0,0,0,.81-6.69v-6.15Zm14.33-13a1.34,1.34,0,0,1,1.13-1.52h0a1.21,1.21,0,0,1,.38,0,1.36,1.36,0,0,1,1.56,1.11v0a1.21,1.21,0,0,1,0,.38v3.42a1.35,1.35,0,0,1-1.14,1.53h-.39a1.38,1.38,0,0,1-1.56-1.14h0a1.28,1.28,0,0,1,0-.39Zm4.85,0a1.34,1.34,0,0,1,1.15-1.52,1.21,1.21,0,0,1,.38,0,1.37,1.37,0,0,1,1.57,1.14h0a1.21,1.21,0,0,1,0,.38v3.42a1.35,1.35,0,0,1-1.14,1.53h-.39a1.38,1.38,0,0,1-1.56-1.14h0a1.28,1.28,0,0,1,0-.39ZM1488,724.48a7.75,7.75,0,0,1-1,4.32,5.5,5.5,0,0,1-2.92,2.2,12.3,12.3,0,0,1-3.9.63,12.67,12.67,0,0,1-5-1.06,9.18,9.18,0,0,1-4-3.1,9,9,0,0,1,4.36-13.42,15.29,15.29,0,0,1,5.75-1v-15.7q0-3.37,3.37-3.37c2.24,0,3.37,1.12,3.37,3.37v3.5h6.82q3.42,0,3.42,3.41c0,2.27-1.14,3.43-3.42,3.46H1488v6.11a31.69,31.69,0,0,1,4.62,2.23,44.78,44.78,0,0,1,4.72,3.12c1.32,1.17,1.44,2.66.36,4.49-1.35,1.41-2.72,1.53-4.13.36-1.8-1.33-3.66-2.58-5.57-3.73Zm-7.55.77q.4,0,.63-.54a4.71,4.71,0,0,0,.18-1.75v-3.91a5.06,5.06,0,0,0-3.82.74,3.17,3.17,0,0,0-1.17,2.49,2.69,2.69,0,0,0,1.26,2.32,4.53,4.53,0,0,0,2.92.65Zm22.6-13.43a3.34,3.34,0,0,1,2.16-4,27.76,27.76,0,0,1,5.12-1.64,31.62,31.62,0,0,1,6.78-.78,21,21,0,0,1,6.76,1,9.69,9.69,0,0,1,4.92,3.57,10,10,0,0,1,1.84,5.84,14.54,14.54,0,0,1-2.47,8q-2.39,3.53-7.75,5.3a31.62,31.62,0,0,1-9.72,1.78c-1.86,0-2.79-1.07-2.79-3.19s1-3.21,3-3.33a21.42,21.42,0,0,0,7-1.21q3.57-1.21,4.81-3.12a7.19,7.19,0,0,0,1.1-4.38,3.52,3.52,0,0,0-1.33-2.9c-.88-.71-2.66-1.07-5.32-1.1a22.11,22.11,0,0,0-4.58.6q-2.43.57-6.07,1.6c-1.65.69-2.78,0-3.41-2.15Zm3.41-12.94q.09-2.93,2.7-3.15,4.44-.18,7.28-.09c1.91.06,4.43.23,7.54.5a3.43,3.43,0,0,1,3.33,3.53h0v.1q-.09,3.32-3.32,2.7c-3.12-.36-5.63-.57-7.55-.63h-5.75a10.2,10.2,0,0,0-1.35.09q-2.86.09-2.87-3.1Zm33.24,25.87a4.8,4.8,0,0,1,1.55-3.61,5.9,5.9,0,0,1,7.78,0,4.8,4.8,0,0,1,1.55,3.61,4.69,4.69,0,0,1-1.55,3.62,6,6,0,0,1-7.78,0,4.68,4.68,0,0,1-1.55-3.61Zm2.2-10.6-1.48-11.68-.13-3.72a3.52,3.52,0,0,1,1-2.77,3.64,3.64,0,0,1,2.69-1.14h2.3A3.63,3.63,0,0,1,1549,696a3.52,3.52,0,0,1,1,2.77l-.14,3.72-1.48,11.68a3.36,3.36,0,0,1-1.1,2.05,3.21,3.21,0,0,1-4.31,0,3.43,3.43,0,0,1-1.11-2Z"/><path class="cls-12" d="M1247.86,326.7a68,68,0,0,1-10.32,17.1,93,93,0,0,1-13.85,13.2q-6.42,4.47-9.84-.36-2.82-6.5,1.41-9.84a82.53,82.53,0,0,0,8.08-6.37,61.7,61.7,0,0,0,8.75-10,77.66,77.66,0,0,0,8.39-15.6h-20q-6.68,0-6.68-6.68t6.68-6.77h27.42v-4.13q0-6.86,6.86-6.86t6.85,6.86v4.13H1265q6.67,0,6.68,6.68t-6.68,6.77h-3.34v43.41q0,6.86-6.85,6.86t-6.86-6.86Zm54.67-24.43v-5.71c0-3.93,2-5.89,5.89-5.89s5.89,2,5.89,5.89v5.71h7.47q15.12.09,15.12,16a51.18,51.18,0,0,1-3.52,17.84,38.13,38.13,0,0,1-8.44,13.54,51.78,51.78,0,0,1-10.63,8.17,53.84,53.84,0,0,1-12.57,5.1q-5.88,1.75-8.44-3.16-2.1-7,3.87-8.79,10.38-3.44,15.65-7.82a26.63,26.63,0,0,0,7.82-10.86,27.6,27.6,0,0,0,2.28-11.47c0-3.63-1.52-5.41-4.57-5.36h-18.54c-3.52,0-5.27,1.76-5.27,5.28V333.3q0,6.76-6.77,6.77T1281,333.3V318.09q0-15.81,15.82-15.82Zm45.88.09q0-6.86,6.85-6.86H1396q6.86,0,6.85,6.86T1396,309.3h-13V346h14.76q6.85,0,6.86,6.86t-6.86,6.94h-44.12q-6.86,0-6.85-6.86t6.85-6.94h15V309.3h-13.45q-6.86,0-6.85-6.86Zm64.42-.88q0-6.86,6.86-6.86h15.11q6.85,0,6.86,6.86t-6.86,6.86h-15.12q-6.84,0-6.85-6.86Zm52.12,8.35c3.93,1.82,5.21,4.63,3.87,8.44q-2.37,8.18-9.19,17.8a70.48,70.48,0,0,1-14.76,15.64q-8,6-23.51,9.45c-4,.76-6.62-1.11-7.74-5.62q-.87-6.94,5.63-8.09,11.34-1.93,17.93-7.12a63.62,63.62,0,0,0,11.73-12.08,49.8,49.8,0,0,0,7.6-14.55q2.21-5.35,8.44-3.87Z"/><g class="cls-14"><path class="cls-15" d="M1300.44,533.09A54.84,54.84,0,1,0,1364,577.58h0a54.83,54.83,0,0,0-63.51-44.48m15.86,90A36.56,36.56,0,1,1,1346,580.74a36.57,36.57,0,0,1-29.65,42.36h0"/><path class="cls-16" d="M1182.58,507.68v.19c-8.66,3.56-13,19.88-9.76,38.44s13,32.4,22.31,32.77v.19l271,26.2-37.91-215Z"/><path class="cls-17" d="M1432.81,389.11c24.85-4.38,53.51,40.42,64,100.06s-1.1,111.56-26,116-53.52-40.42-64-100.07,1.11-111.56,26-115.94"/></g><path class="cls-18" d="M48,200.59V106.53H62.11a61.49,61.49,0,0,1,15,1.46,22.64,22.64,0,0,1,9.57,4.93,25.7,25.7,0,0,1,6.27,9,27.08,27.08,0,0,1,2.36,11A22.19,22.19,0,0,1,87.62,150,22.68,22.68,0,0,1,99.43,159a26.5,26.5,0,0,1-3.4,33.4,25.72,25.72,0,0,1-10.54,6.52,61.13,61.13,0,0,1-16,1.76Zm14.19-53.67h4.45q7.92,0,11.6-3.5a13.56,13.56,0,0,0,3.69-10.33A13,13,0,0,0,78.12,123a15.79,15.79,0,0,0-11-3.44h-5Zm0,40.34H71q9.63,0,14.14-3.78a13,13,0,0,0,4.75-10.35,13.29,13.29,0,0,0-4.57-10.24q-4.45-4.08-15.9-4.08H62.16Z"/><path class="cls-18" d="M173.15,174.15H130.63a18,18,0,0,0,4.75,11.64,14.49,14.49,0,0,0,10.78,4.27,14,14,0,0,0,8.47-2.44,34.67,34.67,0,0,0,7.49-9l11.57,6.46A45.86,45.86,0,0,1,168,192.9a30.23,30.23,0,0,1-6.4,5.37,25.64,25.64,0,0,1-7.37,3.07,35.94,35.94,0,0,1-8.58,1,27.94,27.94,0,0,1-21.32-8.52q-8-8.59-8-22.79t7.8-22.78A26.91,26.91,0,0,1,145,139.66q13.1,0,20.71,8.35t7.55,23Zm-14.07-11.21q-2.87-11-13.83-11a14.34,14.34,0,0,0-4.68.76,13.37,13.37,0,0,0-4,2.2,13.62,13.62,0,0,0-3.07,3.44,15.81,15.81,0,0,0-1.95,4.57Z"/><path class="cls-18" d="M206.83,189.56l-26.68-48.31h15.9l18.15,34.12,16.94-34.12h15.48l-47.29,91.63H183.69Z"/><path class="cls-18" d="M253.13,170.5a29.5,29.5,0,0,1,9.2-21.87,32.45,32.45,0,0,1,45,.06,31.31,31.31,0,0,1-22.78,53.6,30.16,30.16,0,0,1-22.36-9.15A30.75,30.75,0,0,1,253.13,170.5Zm14,.24a20,20,0,0,0,4.75,14.08,18.48,18.48,0,0,0,25.71.06,19.56,19.56,0,0,0,4.81-13.83,19.56,19.56,0,0,0-4.81-13.83,18.24,18.24,0,0,0-25.58,0A19.06,19.06,0,0,0,267.13,170.74Z"/><path class="cls-18" d="M330.92,141.25h13.76v5.49a22.48,22.48,0,0,1,16.2-7.13A20.47,20.47,0,0,1,377,146.13q5,5.53,5,18.09v36.37H368.25V167.45q0-8.77-2.43-12.12t-8.65-3.41q-6.82,0-9.69,4.5T344.67,172v28.64H330.9Z"/><path class="cls-18" d="M443.06,97.7h13.77V200.59H443.06v-6.22a25.52,25.52,0,0,1-18.34,7.92,26,26,0,0,1-20.22-8.9,33,33,0,0,1-8-22.66,31.91,31.91,0,0,1,8-22.17,25.63,25.63,0,0,1,36.13-2.8,27.3,27.3,0,0,1,2.43,2.38Zm-32.53,73a20.7,20.7,0,0,0,4.57,13.89A15,15,0,0,0,426.92,190a15.72,15.72,0,0,0,12.3-5.24,22.53,22.53,0,0,0,0-27.53A15.51,15.51,0,0,0,427,152a15.15,15.15,0,0,0-11.82,5.36,19.74,19.74,0,0,0-4.65,13.38Z"/><path class="cls-18" d="M584.74,111.59V128.4q-12.3-10.31-25.46-10.3a32.42,32.42,0,0,0-24.42,10.41,35.14,35.14,0,0,0-10,25.35,34.23,34.23,0,0,0,10,25A33,33,0,0,0,559.35,189a30.1,30.1,0,0,0,12.73-2.44,35.86,35.86,0,0,0,6.06-3.29,71.47,71.47,0,0,0,6.6-5V195.4a51.13,51.13,0,0,1-25.57,6.88,47.18,47.18,0,0,1-34.42-14.07A46.66,46.66,0,0,1,510.56,154a48.3,48.3,0,0,1,11.88-32,47.29,47.29,0,0,1,37.83-17.25A48.08,48.08,0,0,1,584.74,111.59Z"/><path class="cls-18" d="M598,153.13A46,46,0,0,1,612.52,119a48,48,0,0,1,34.85-14.25,49.19,49.19,0,0,1,48.91,48.92,46.21,46.21,0,0,1-14.5,34.41,49.7,49.7,0,0,1-67.86,1.59Q598,175.74,598,153.13Zm14.31.19A34,34,0,0,0,622.76,179a35.28,35.28,0,1,0-.36-50.62,33.92,33.92,0,0,0-10.12,24.94Z"/><path class="cls-18" d="M718.88,106.53l26,65.19,26.37-65.18h15.54L744.6,207.66,703.34,106.53Z"/><path class="cls-18" d="M812.68,106.53v94.06H798.49V106.53Z"/><path class="cls-18" d="M835.29,200.59V106.53H855a71.69,71.69,0,0,1,22.42,2.82,42,42,0,0,1,16,9.32Q908,131.95,908,153.57t-15.18,35.08a44.41,44.41,0,0,1-16,9.33,73.13,73.13,0,0,1-22.12,2.62Zm14.2-13.34h6.39a53.72,53.72,0,0,0,15.9-2,32.29,32.29,0,0,0,21.92-31.68,32.72,32.72,0,0,0-10.35-25.1q-9.33-8.59-27.48-8.59h-6.39Z"/><path class="cls-18" d="M914.6,164.47h27.17V176.4H914.6Z"/><path class="cls-18" d="M975.57,119.81H959.31l7.8-13.28h22.66v94.06H975.58Z"/><path class="cls-18" d="M1046.78,203.81l-10.42-7.73,22.48-30.64c-1.22.16-2.25.28-3.1.36a20.55,20.55,0,0,1-2.08.13,26.46,26.46,0,0,1-19.74-8.72,29,29,0,0,1-8.28-20.83A31.52,31.52,0,0,1,1057,104.94a31.2,31.2,0,0,1,22.35,9.15,28.64,28.64,0,0,1,9.5,21.44q0,11-9.25,23.7Zm-7.31-68.46a17.38,17.38,0,0,0,5.18,12.79A17.79,17.79,0,0,0,1069.84,123h0a17.81,17.81,0,0,0-25.1,0,16.89,16.89,0,0,0-5.24,12.37Z"/><path class="cls-18" d="M1215,111.59V128.4q-12.3-10.31-25.46-10.3a32.39,32.39,0,0,0-24.44,10.42,35.12,35.12,0,0,0-10,25.34,34.27,34.27,0,0,0,10,25A33,33,0,0,0,1189.6,189a29.92,29.92,0,0,0,12.73-2.44,35.86,35.86,0,0,0,6.06-3.29,68.21,68.21,0,0,0,6.61-5V195.4a51.21,51.21,0,0,1-25.59,6.88A47.23,47.23,0,0,1,1155,188.2a46.62,46.62,0,0,1-14.17-34.2,48.23,48.23,0,0,1,11.88-32,47.28,47.28,0,0,1,37.83-17.24A48,48,0,0,1,1215,111.59Z"/><path class="cls-18" d="M1227.5,170.5a29.5,29.5,0,0,1,9.2-21.87,32.45,32.45,0,0,1,45,.06,31.76,31.76,0,0,1-.06,44.65,31.4,31.4,0,0,1-22.72,8.94,30.16,30.16,0,0,1-22.36-9.14A30.8,30.8,0,0,1,1227.5,170.5Zm14,.24a20,20,0,0,0,4.75,14.08,18.47,18.47,0,0,0,25.7.06,19.47,19.47,0,0,0,4.81-13.83,19.47,19.47,0,0,0-4.81-13.83,18.23,18.23,0,0,0-25.57,0,19,19,0,0,0-4.88,13.51Z"/><path class="cls-18" d="M1305.3,141.25h13.77v5.49a22.48,22.48,0,0,1,16.2-7.13,20.45,20.45,0,0,1,16.14,6.52q5,5.53,5,18.09v36.37h-13.77V167.45q0-8.77-2.43-12.12t-8.65-3.41q-6.82,0-9.69,4.5t-2.8,15.54v28.63H1305.3Z"/><path class="cls-18" d="M1387.84,154.05v46.54h-13.7V154.05h-5.85v-12.8h5.85V119.51h13.7v21.74h10.66v12.81Z"/><path class="cls-18" d="M1461.85,174.15h-42.52a18,18,0,0,0,4.76,11.64,14.49,14.49,0,0,0,10.78,4.27,14,14,0,0,0,8.47-2.44,35,35,0,0,0,7.48-9l11.58,6.45a45.94,45.94,0,0,1-5.67,7.83,30.18,30.18,0,0,1-6.4,5.36,25.66,25.66,0,0,1-7.37,3.08,36,36,0,0,1-8.59,1,27.93,27.93,0,0,1-21.32-8.51q-8-8.6-8-22.79t7.8-22.78a26.91,26.91,0,0,1,20.83-8.59q13.11,0,20.71,8.35t7.56,23Zm-14.07-11.21q-2.87-11-13.83-11a14.4,14.4,0,0,0-4.69.76,13.37,13.37,0,0,0-4,2.2,14,14,0,0,0-3.08,3.44,16.21,16.21,0,0,0-2,4.57Z"/><path class="cls-18" d="M1511.32,151.37l-11.33,6q-2.68-5.48-6.64-5.48a4.51,4.51,0,0,0-3.23,1.25,4.15,4.15,0,0,0-1.34,3.19q0,3.42,7.92,6.77,10.89,4.68,14.68,8.65a14.8,14.8,0,0,1,3.77,10.66,18.65,18.65,0,0,1-6.33,14.37A21.58,21.58,0,0,1,1494,202.3q-14.93,0-21.13-14.56l11.69-5.42a25.48,25.48,0,0,0,3.73,5.42,8.45,8.45,0,0,0,6,2.31q6.93,0,6.94-6.33,0-3.66-5.36-6.82-2.08-1.05-4.14-2t-4.2-2A25.86,25.86,0,0,1,1479,167a14.43,14.43,0,0,1-3.11-9.56,17,17,0,0,1,5.3-12.8,18.64,18.64,0,0,1,13.16-5Q1505.78,139.61,1511.32,151.37Z"/><path class="cls-18" d="M1541.59,154.05v46.54h-13.71V154.05H1522v-12.8h5.85V119.51h13.71v21.74h10.67v12.81Z"/><path class="cls-18" d="M666.78,74.39A26.49,26.49,0,0,1,654,84.07l-4.06-5.66a18.5,18.5,0,0,0,9.9-5.89,17.23,17.23,0,0,0,4-10.94,13,13,0,0,0-4-9.63,14.11,14.11,0,0,0-9.36-3.69,77.87,77.87,0,0,1-6.82,24.48c-1.65,3.41-4.18,8-7,8-2,0-11-5-11-14.8a23.72,23.72,0,0,1,24-23.29h.13c11.44,0,20.47,7.75,20.47,20A20.53,20.53,0,0,1,666.78,74.39Zm-29.6-21.18a18,18,0,0,0-5.5,12.22c0,4.45,2.53,6.76,3.52,6.76,2.86,0,7.59-14.36,8.69-22.94a16.27,16.27,0,0,0-6.71,4Z"/><path class="cls-18" d="M706.87,80.17V78.24H678.1v-6h28.77V53.05H678.21V46.94h35.21V80.17Z"/><path class="cls-18" d="M757.1,81.72V79.34h-25v2.15h-6.55v-36h38.13V81.72Zm0-30h-25v21.4h25Z"/><path class="cls-18" d="M801.37,58.55c-1.6,14.63-5.72,20.58-17.6,27.56l-5.61-5.45c10.5-5.06,14.8-9.73,16.44-22.11h-20V52.17H795a79.82,79.82,0,0,0-.5-12.27l7.38.88c.77.11,1.65.28,1.65.83,0,.28-1.32,1.27-1.54,1.6-.11.16-.11.44-.11,2.7,0,.11-.06,3.41-.11,6.27h16.61v6.38Z"/><path class="cls-18" d="M870.85,80.28a57.91,57.91,0,0,1-11-13.92v19.7h-6.27V66.14A51.17,51.17,0,0,1,842.85,81l-5.72-3.41V86h-6V62.3A21.52,21.52,0,0,1,829,65.1l-5.5-3a60.11,60.11,0,0,0,11.78-22.78l6.1,1.82c.28,0,1.16.44,1.16.87a.61.61,0,0,1-.44.56c-1.1.32-1.27.38-1.43.83a64.27,64.27,0,0,1-3,6.47c.83.54,1,.71,1,1.21s-.55.77-.71.88-.83.55-.83,1V76.65A42.64,42.64,0,0,0,851.46,56H840V50.3h13.59V39.18l5.44.28c.39,0,1.82-.06,1.82.66,0,.44-.55.83-1,1.32V50.3h13.7V56H861a56.46,56.46,0,0,0,14.91,19.86Z"/><path class="cls-18" d="M922.44,75.38c-2.91-2.25-4.45-3.3-5.72-4.12A30.62,30.62,0,0,1,905.83,85l-5.45-3.8a26.54,26.54,0,0,0,11-12.93,34.07,34.07,0,0,0-11-3.08c-5.45,11.66-7.81,15.18-12.65,15.18-3.75,0-6.22-3-6.22-7.1A13.65,13.65,0,0,1,888,62.34a14.86,14.86,0,0,1,8.75-2.64c1.68-3.9,3.17-7.89,4.46-11.94a38.17,38.17,0,0,1-10,1.7l-2.47-5.55c8.47.05,15-1,17.93-3l3.63,3.63a22.33,22.33,0,0,0-2.86,4.67c0,.22-4,9.08-4.73,10.79a35.36,35.36,0,0,1,10.62,2.53,46.85,46.85,0,0,0,1.43-10.07l6.16,1.7c.55.17,1.32.44,1.32.94,0,.28,0,.33-.83.71-.44.28-.44.39-.6,1.16a65.78,65.78,0,0,1-1.88,8.2c3,1.7,4.74,2.75,7.1,4.29ZM887.18,72c0,1.43.71,1.49,1.1,1.49a2.49,2.49,0,0,0,2.31-1.32,63.64,63.64,0,0,0,3.63-6.82C889.49,66.8,887.18,69.94,887.18,72Z"/><path class="cls-18" d="M974.26,74.39a26.47,26.47,0,0,1-12.82,9.68l-4.07-5.66a18.5,18.5,0,0,0,9.9-5.89,17.23,17.23,0,0,0,4-10.94,13,13,0,0,0-4-9.63,14.11,14.11,0,0,0-9.36-3.69,78.14,78.14,0,0,1-6.82,24.48c-1.65,3.41-4.18,8-7,8-2,0-11-5-11-14.8A23.71,23.71,0,0,1,957.2,42.62h.16c11.43,0,20.46,7.75,20.46,20A20.59,20.59,0,0,1,974.26,74.39Zm-29.6-21.18a18.08,18.08,0,0,0-5.5,12.22c0,4.45,2.54,6.76,3.52,6.76,2.86,0,7.6-14.36,8.7-22.94a16.39,16.39,0,0,0-6.72,4Z"/><path class="cls-18" d="M1014.36,80.17V78.24H985.58v-6h28.78V53.05H985.69V46.94h35.21V80.17Z"/><path class="cls-18" d="M1040,54.53a49.81,49.81,0,0,0-11.27-6.93l3.35-5.17a51.49,51.49,0,0,1,11.55,6.82Zm16.12,15a73.93,73.93,0,0,1-20.74,12.27c-.27.77-.38,1.7-.83,1.7s-.83-.33-1.21-1l-3.85-6.6a51.55,51.55,0,0,0,20.41-9.52A76.68,76.68,0,0,0,1066,49.47l3.8,5.5a77,77,0,0,1-13.7,14.53Z"/><path class="cls-18" d="M1099,61.52a28.23,28.23,0,0,1-3.46,14.25A25.67,25.67,0,0,1,1083.28,86l-5.4-4.51c11-4,14.42-9.24,14.69-20h-18.48V55.85h41.53v5.67Zm-17.38-13.64V41.94h26.63v5.94Z"/><path class="cls-18" d="M1158.69,82.32a86.48,86.48,0,0,0-13.42-13.76,53.22,53.22,0,0,1-18.82,14.14l-4.84-5a48.85,48.85,0,0,0,17.55-11.89,44.06,44.06,0,0,0,9.36-15h-21v-6.4h23.7a5.11,5.11,0,0,0,2.86-1.21l4.24,4.68a7.66,7.66,0,0,0-3,3.3A66,66,0,0,1,1149,63.5a110.32,110.32,0,0,1,14.58,13.59Z"/><path class="cls-18" d="M1196.76,71.64a56.19,56.19,0,0,0-16.18-11V84.4h-6.49V40.84l6.6,1.15c.16.06,1.32.22,1.32.88,0,.33-1.43,1.21-1.43,1.49V58.82l2.59-4.07a48.85,48.85,0,0,1,9.35,5,68.72,68.72,0,0,1,8.59,6.6Z"/><g class="cls-19"><path class="cls-18" d="M496.68,73.46V71.17H483.53V87.42H477V71.17h-13v2.52h-6.58V48H477V38.28l7.15.63c.34.05.86.11.86.63s-.4.62-.63.8c-.46.28-.8.51-.8.85V48h19.73V73.46ZM477,54.24h-13V65h13Zm19.73,0H483.53V65h13.15Z"/><path class="cls-18" d="M513,47.31V42.22h20.82V38.1l6.93.58c.22,0,1.37,0,1.37.57,0,.29-.29.51-.63.69s-.57.45-.57.68v1.6h20.53v5.09Zm40.67,41h-3.09l-2.57-5.77c.46,0,2.23.11,2.92.11,1.77,0,2.17-.11,2.17-1.89V67.85H521.22V87.53h-6.41V63.28h44.8V83.64C559.61,86.27,557.37,88.27,553.71,88.27ZM523.39,61V49.6H551V61Zm8.81,20.59V83.7h-5.77V70.37h22.08V81.58Zm12.47-27.86H529.8v3.21h14.87Zm-2,20.48H532.2v3.09h10.47Z"/><path class="cls-18" d="M570,86.16V80.49h21.4V69.63h-13V63.68h13V54.47H579.16a77.44,77.44,0,0,1-5.26,8.69l-6.12-3.26a39.29,39.29,0,0,0,5.38-7.67A51.73,51.73,0,0,0,578,39.42l6,1.66c1.2.34,1.48.57,1.48.92s-.17.51-.68.74a1.91,1.91,0,0,0-1.2,1.14,48.71,48.71,0,0,1-1.72,4.81h9.5V38.56l6.92.35c.91.05,1.37.28,1.37.85,0,.29-.17.52-.63.8-.68.4-.86.69-.86,1.09v7h18.14v5.78H598.21v9.21h12.7v5.95h-12.7V80.49h20.65v5.67Z"/></g></svg>