<svg id="レイヤー_1" data-name="レイヤー 1" xmlns="http://www.w3.org/2000/svg" xmlns:xlink="http://www.w3.org/1999/xlink" viewBox="0 0 1602.828 773.271"><defs><style>.cls-1{fill:none;}.cls-2{fill:#00b9ff;}.cls-3{clip-path:url(#clip-path);}.cls-4{clip-path:url(#clip-path-2);}.cls-5{fill:#f6b821;}.cls-6{fill:#db8f00;}.cls-7{fill:#0097ff;}.cls-8{clip-path:url(#clip-path-3);}.cls-9{clip-path:url(#clip-path-4);}.cls-10{fill:#eee;}.cls-11{fill:#ccd6dd;}.cls-12{fill:#292f33;}.cls-13{fill:#fff;}.cls-14{fill:#006bff;}.cls-15{clip-path:url(#clip-path-5);}.cls-16{fill:#f83d8e;}.cls-17{fill:#ff63b7;}.cls-18{fill:#ee3564;}.cls-19{fill:#005b9e;}</style><clipPath id="clip-path"><rect class="cls-1" x="119.611" y="375.495" width="274.951" height="291.754"/></clipPath><clipPath id="clip-path-2"><rect class="cls-1" x="119.611" y="375.496" width="274.953" height="291.752"/></clipPath><clipPath id="clip-path-3"><rect class="cls-1" x="653.456" y="375.501" width="295.916" height="291.747"/></clipPath><clipPath id="clip-path-4"><rect class="cls-1" x="653.456" y="375.496" width="295.916" height="291.752"/></clipPath><clipPath id="clip-path-5"><rect class="cls-1" x="1171.757" y="388.812" width="328.952" height="253.082"/></clipPath></defs><path class="cls-2" d="M113.08,253.474H401.094c33.184,0,53.094,0,66.367,5.541a68.883,68.883,0,0,1,41.172,41.172c5.542,13.273,5.542,33.183,5.542,66.367V660.191c0,33.183,0,53.093-5.542,66.367a68.883,68.883,0,0,1-41.172,41.172c-13.273,5.541-33.183,5.541-66.367,5.541H113.08c-33.183,0-53.093,0-66.366-5.541A68.892,68.892,0,0,1,5.541,726.558C0,713.284,0,693.374,0,660.191V366.554c0-33.184,0-53.094,5.541-66.367a68.887,68.887,0,0,1,41.173-41.172C59.987,253.474,79.9,253.474,113.08,253.474Z"/><g class="cls-3"><g class="cls-4"><path class="cls-5" d="M386,580.116l-.092-.164c2.9,24.021,1.084,26.5-23.861,32.992-4.521,1.178-9.016,2.485-13.437,3.968C311.576,629.345,273.2,634.943,234.563,639.3c-29.354,3.307-59.04.97-88.354,5.335-11.456,1.705-16.958-5.383-12.381-16,3.948-9.153,3.922-18.392,1.779-27.516-10.665-45.444,3.7-84.264,31.26-119.7,3.006-3.863,6.925-7.764,11.123-1.519,3.625,5.394,8.132,11.108,9.142,17.189C193,532.47,188.941,566.58,170.809,598.2c-2.563,4.476-4.4,8.64-.84,12.838,3.5,4.146,8.47,3.388,13.1,1.947,3.351-1.044,6-5.94,10.03-2.9,11.316,8.552,14.942-.59,18.753-8.057a409.226,409.226,0,0,1,26-43.348c12.939-19.1,29.562-31.011,53.88-29.41,4.045.267,8.607,1.244,11.85-2.686,33.226.03,62.35,25.681,82.1,50.08"/><path class="cls-6" d="M303.587,526.58c-3.243,3.934-7.808,2.954-11.85,2.69-24.318-1.605-40.945,10.305-53.88,29.41a408.751,408.751,0,0,0-26.008,43.338c-3.815,7.467-7.437,16.609-18.753,8.061-4.034-3.046-6.679,1.854-10.03,2.894-4.625,1.445-9.592,2.2-13.1-1.947-3.556-4.194-1.724-8.362.843-12.838,18.132-31.613,22.189-65.727,16.319-101.107-1.007-6.085-5.513-11.8-9.142-17.193-4.194-6.244-8.113-2.344-11.122,1.52-27.561,35.439-41.926,74.26-31.261,119.7,2.144,9.127,2.17,18.362-1.776,27.515-4.58,10.621.925,17.709,12.382,16,29.31-4.361,59-2.028,88.354-5.334,38.631-4.354,77.009-9.953,114.043-22.386,4.424-1.482,8.919-2.79,13.436-3.968,24.945-6.49,26.762-8.971,23.861-32.991,8.488,5.9,9.956,15.179,7.73,23.492C389.149,620.2,380.81,634.37,363.58,642.55c-47.387,22.5-97.351,27.642-148.758,23.259-22.519-1.917-44.871-4.376-67.573-2.307-22.211,2.021-29.96-5.78-27.051-27.431,4.959-36.918.657-75.233,16.3-110.557,14.358-32.4,22.742-66.292,26.45-101.446.631-6.025,2.374-11.921,7.359-16.163-.791,14.54,4.458,28.6,3.187,43.237-.88,10.16,6.717,12.772,13.912,10.316,16.769-5.721,34.76-8.822,49.5-19.458,4.35-3.135,8.1-6.364,13.82-5.3-5.632,16.07-16.457,27.333-32.832,31.973-9.744,2.76-12.115,8.719-12.293,17.486-.464,22.943-1.872,45.89-1.582,68.814.152,11.921-7.512,22.947-3.132,37.513,11.917-18.7,23.329-35.351,38.538-48.932,18.533-16.546,40.3-20.581,64.159-16.985"/><path class="cls-5" d="M250.731,436.708c-5.724-1.063-9.473,2.165-13.823,5.3-14.737,10.635-32.728,13.737-49.5,19.458-7.195,2.456-14.792-.156-13.908-10.316,1.267-14.633-3.982-28.7-3.191-43.237l-.048.252c6.207.03,5.966-4.513,6.222-8.7,3.15-4.651,6.338-9.272,9.436-13.953,6.337-9.569,14.662-12.281,25.55-8.139,11.829,4.5,24.084,7.95,35.689,12.928,8.388,3.6,17.434,8.566,6.7,19.309-3.733,3.734.576,4.5,2.039,6.074,3.318,3.555,6.171,7.133,4.744,12.419-3.722.286-5.171,2.433-4.922,5.97l.1-.342-3.113,2.664-.948.408Zm-3.135-23.53c-8.455,3.633-14.013,6.906-20.012,8.347-6.412,1.542-13.927,2.24-13.719-8.11.059-2.89,3.462-7.429-2.073-7.348-7.244.108-3.042,8.73-7.14,11.992-2.192,1.75-3.258,4.562.331,6.75,7.277,4.435,33.712-1.453,42.613-11.631"/><path class="cls-6" d="M176.487,399.465c-.256,4.186-.014,8.733-6.226,8.7a10.016,10.016,0,0,1,6.226-8.7"/><path class="cls-6" d="M255.718,434.074c-.245-3.537,1.2-5.684,4.922-5.97.617,3.834-1.378,5.535-4.922,5.97"/><path class="cls-6" d="M252.7,436.394q1.554-1.332,3.113-2.66c-.349,1.686-1.271,2.708-3.113,2.66"/><path class="cls-6" d="M247.6,413.178c-8.9,10.178-35.336,16.066-42.613,11.631-3.589-2.188-2.523-5-.331-6.75,4.1-3.262-.1-11.884,7.14-11.992,5.535-.081,2.132,4.458,2.073,7.348-.208,10.35,7.307,9.652,13.719,8.11,6-1.441,11.557-4.714,20.012-8.347"/></g></g><path class="cls-7" d="M654.407,253.474H948.421c33.183,0,53.093,0,66.367,5.541a68.883,68.883,0,0,1,41.172,41.172c5.541,13.273,5.541,33.183,5.541,66.367V660.191c0,33.183,0,53.093-5.541,66.367a68.893,68.893,0,0,1-41.172,41.172c-13.274,5.541-33.184,5.541-66.367,5.541H654.407c-33.184,0-53.094,0-66.367-5.541a68.893,68.893,0,0,1-41.172-41.172c-5.541-13.274-5.541-33.184-5.541-66.367V366.554c0-33.184,0-53.094,5.541-66.367a68.883,68.883,0,0,1,41.172-41.172C601.313,253.474,621.223,253.474,654.407,253.474Z"/><g class="cls-8"><g class="cls-9"><path class="cls-10" d="M949.372,588.9c0,81.717-66.224,78.331-147.958,78.331S653.456,670.614,653.456,588.9c0-69.627,69.627-165.365,113.144-200.178,23.935-17.407,44.64-17.851,69.628,0C897.156,432.236,949.372,545.38,949.372,588.9"/><path class="cls-11" d="M881.991,620.592a8.805,8.805,0,1,1-9.957-14.526h0l14.535-9.957a8.8,8.8,0,0,1,9.939,14.517Zm21.219-61.751a8.7,8.7,0,0,1,6.363-16.2l.208.085L925.9,549.3a8.7,8.7,0,1,1-6.363,16.195l-.208-.085ZM864.1,513.1a8.8,8.8,0,0,1,6.623-16.31h0l16.319,6.658a8.8,8.8,0,0,1-6.649,16.3h0ZM681.316,574.02a8.805,8.805,0,0,1,6.641-16.31l16.3,6.649a8.8,8.8,0,0,1-6.632,16.31Zm30.958-53.52a8.8,8.8,0,0,1-9.956-14.517l14.538-9.963a8.8,8.8,0,0,1,9.94,14.526Zm78.575,32.543a13.058,13.058,0,0,1,9.852-24.187l24.178,9.878a13.046,13.046,0,0,1-9.852,24.161Zm-53.822,52.673a8.8,8.8,0,1,1,6.6,16.316c-.116.046-.233.091-.351.133l-16.467,6.267a8.8,8.8,0,0,1-6.24-16.467h0Z"/><path class="cls-12" d="M853.635,545.38H749.193a17.414,17.414,0,0,0-17.407,17.407v102.8c20.749,1.95,44.449,1.636,69.628,1.636s48.878.314,69.627-1.636v-102.8a17.413,17.413,0,0,0-17.406-17.407"/></g></g><path class="cls-13" d="M610.1,721.787a3.8,3.8,0,0,1-1.124,2.763,3.742,3.742,0,0,1-2.785,1.146h-2.066c-.03,0-.053.022-.067.067s.007.067.067.067q4.177,1.483,8.086,3.055a1.539,1.539,0,0,1,1.033,1.572,1.562,1.562,0,0,1-.988,1.528l-.225.09a8.014,8.014,0,0,1-3.279.718,8.9,8.9,0,0,1-3.774-.9q-2.651-1.214-5.525-2.336a1.872,1.872,0,0,1-1.258-1.617v-.27a1.794,1.794,0,0,1,.9-1.572l.269-.18a.133.133,0,0,0,.023-.134.107.107,0,0,0-.113-.09H588.4a.105.105,0,0,0-.112.09c-.015.06.007.089.067.089l.135.045a2,2,0,0,1,1.213,1.932,1.675,1.675,0,0,1-1.033,1.617,59.08,59.08,0,0,1-8.311,3.369,5.084,5.084,0,0,1-1.617.27,4.767,4.767,0,0,1-1.437-.225,5.91,5.91,0,0,1-2.651-1.572,1.64,1.64,0,0,1-.449-1.752,1.612,1.612,0,0,1,1.3-1.258,49.993,49.993,0,0,0,8.131-2.426.155.155,0,0,0,.044-.112c0-.045-.03-.067-.089-.067h-1.8a3.911,3.911,0,0,1-3.908-3.909v-12.71a3.911,3.911,0,0,1,3.908-3.909h24.392a3.742,3.742,0,0,1,2.785,1.146,3.8,3.8,0,0,1,1.124,2.763Zm-1.438-30.1a3.91,3.91,0,0,1,3.908,3.908v4.223a3.911,3.911,0,0,1-3.908,3.908H579.369a3.911,3.911,0,0,1-3.908-3.908V695.6a3.91,3.91,0,0,1,3.908-3.908Zm-23.09,7.142a.4.4,0,0,0,.449-.344.369.369,0,0,0,0-.105v-1.347a.4.4,0,0,0-.343-.45.376.376,0,0,0-.106,0h-3.459a.4.4,0,0,0-.449.344.376.376,0,0,0,0,.106v1.347a.4.4,0,0,0,.344.449.369.369,0,0,0,.105,0Zm-.539,10.467a.4.4,0,0,0-.449.344.369.369,0,0,0,0,.105v.629a.4.4,0,0,0,.343.45.376.376,0,0,0,.106,0h17.61a.4.4,0,0,0,.449-.344.376.376,0,0,0,0-.106v-.629a.4.4,0,0,0-.344-.449.369.369,0,0,0-.105,0Zm0,5.346a.4.4,0,0,0-.449.344.369.369,0,0,0,0,.105v.674a.4.4,0,0,0,.344.449.369.369,0,0,0,.105,0h17.61a.4.4,0,0,0,.449-.344.369.369,0,0,0,0-.105v-.674a.4.4,0,0,0-.344-.449.369.369,0,0,0-.105,0Zm0,5.391a.4.4,0,0,0-.449.344.369.369,0,0,0,0,.105v.719a.4.4,0,0,0,.344.449.369.369,0,0,0,.105,0h17.61a.4.4,0,0,0,.449-.344.369.369,0,0,0,0-.105v-.719a.4.4,0,0,0-.344-.449.369.369,0,0,0-.105,0Zm10.467-21.2a.4.4,0,0,0,.449-.344.369.369,0,0,0,0-.105v-1.347a.4.4,0,0,0-.343-.45.376.376,0,0,0-.106,0H592a.4.4,0,0,0-.449.344.376.376,0,0,0,0,.106v1.347a.4.4,0,0,0,.344.449.369.369,0,0,0,.105,0Zm10.107,0a.4.4,0,0,0,.45-.343.376.376,0,0,0,0-.106v-1.347a.4.4,0,0,0-.343-.45.383.383,0,0,0-.107,0H601.92a.4.4,0,0,0-.449.344.376.376,0,0,0,0,.106v1.347a.4.4,0,0,0,.344.449.369.369,0,0,0,.1,0Zm12.893,9.838q-.63-3.009,1.662-3.818a30.652,30.652,0,0,1,5.548-1.707,33.387,33.387,0,0,1,6.626-.719,16.36,16.36,0,0,1,6.581,1.37,10.388,10.388,0,0,1,4.6,3.931,12.563,12.563,0,0,1,1.8,6.424q.314,8-5.031,11.814t-14.061,4q-2.561,0-2.7-2.83a2.421,2.421,0,0,1,2.7-2.785,18.471,18.471,0,0,0,6.694-1.168,9.249,9.249,0,0,0,4.986-3.549,9.4,9.4,0,0,0,1.348-5.39,5.4,5.4,0,0,0-1.662-4.066q-1.664-1.593-5.75-1.819a15.79,15.79,0,0,0-4.29.4q-2.09.5-5.234,1.572-2.829,1.17-3.818-1.662Zm58.037-12.578a3.126,3.126,0,0,1,3.323,2.784q.359,3.1-1.707,3.909a28.736,28.736,0,0,0-5.548,2.627,21.358,21.358,0,0,0-5.256,4.313,12.51,12.51,0,0,0-2.807,4.784,6.8,6.8,0,0,0,.134,4.874,5.85,5.85,0,0,0,2.628,2.651,8.286,8.286,0,0,0,3.122.92q1.8.091,4.672-.044,3.235-.135,3.325,3.459-.092,3.772-3.325,3.728-3.189,0-5.211-.135a17.944,17.944,0,0,1-4.4-.876,13.559,13.559,0,0,1-4.559-2.448,10.6,10.6,0,0,1-3.145-4.447,14.08,14.08,0,0,1-.606-6.873,16.769,16.769,0,0,1,1.729-5.166,19.209,19.209,0,0,1,2.7-3.886,26.078,26.078,0,0,1,2.494-2.448,7.214,7.214,0,0,1,1.123-.854H654.431q-3.414,0-3.414-3.414,0-3.459,3.414-3.459Zm18.373,5.207a.4.4,0,0,0-.449.344.369.369,0,0,0,0,.105v4.672q0,15.139-3.549,23.944a2.471,2.471,0,0,1-1.842,1.527,2.957,2.957,0,0,1-.719.09,3.1,3.1,0,0,1-1.752-.539,4.15,4.15,0,0,1-1.617-2.157,4.568,4.568,0,0,1-.18-1.257,4.062,4.062,0,0,1,.27-1.438q2.7-6.873,2.7-20.17v-7.547a3.8,3.8,0,0,1,1.123-2.762,3.745,3.745,0,0,1,2.786-1.146h11.809a.4.4,0,0,0,.449-.344.369.369,0,0,0,0-.1V693.4a3.5,3.5,0,0,1,7.008,0v1.123a.4.4,0,0,0,.344.449.369.369,0,0,0,.105,0h12.533a3.048,3.048,0,0,1,2.269.943,3.105,3.105,0,0,1,.921,2.247,3.029,3.029,0,0,1-.921,2.223,3.085,3.085,0,0,1-2.269.921H709.371a.106.106,0,0,0-.113.09.11.11,0,0,0,.068.135,65.3,65.3,0,0,1,6.648,3.728,2.536,2.536,0,0,1,1.258,2.112v.269a2.965,2.965,0,0,1-.853,2.111,3.43,3.43,0,0,1-2.471,1.079h-.225a4.1,4.1,0,0,1-2.426-.764,57.217,57.217,0,0,0-4.941-3.19,2.87,2.87,0,0,1-1.482-2.156,2.918,2.918,0,0,1-.045-.494,2.719,2.719,0,0,1,.853-1.977l.629-.628q.09-.045.045-.18a.177.177,0,0,0-.18-.135Zm6.918,16.307a49.472,49.472,0,0,1-1.572,9.209,2.832,2.832,0,0,1-1.662,1.8,3.241,3.241,0,0,1-1.168.224,3.317,3.317,0,0,1-3.01-2.066,3.549,3.549,0,0,1-.315-1.438,3.822,3.822,0,0,1,.18-1.123,41.141,41.141,0,0,0,1.527-7.906,2.657,2.657,0,0,1,1.123-1.932,2.566,2.566,0,0,1,1.573-.539,4.4,4.4,0,0,1,.584.045,3.255,3.255,0,0,1,2.066,1.348,3.155,3.155,0,0,1,.719,2.021,1.564,1.564,0,0,1-.045.36Zm22.191-2.875a61.558,61.558,0,0,1,3.549,8.894,3.433,3.433,0,0,1,.18,1.078,3.711,3.711,0,0,1-.449,1.752,4.344,4.344,0,0,1-2.157,1.977,3.79,3.79,0,0,1-1.123.18,3.056,3.056,0,0,1-2.875-2.336q-.315-1.214-.718-2.561a.163.163,0,0,0-.113-.045c-.045,0-.067.03-.067.09q-.495,5.166-1.932,7.1t-4.672,1.931h-4.177q-3.954,0-5.324-1.684t-1.37-6.132V713.252a3.17,3.17,0,0,1,.989-2.358,3.254,3.254,0,0,1,2.358-.966,3.3,3.3,0,0,1,3.3,3.3v11.7a3.814,3.814,0,0,0,.2,1.6c.135.224.456.337.966.337h2.425a.926.926,0,0,0,.9-.652,10.591,10.591,0,0,0,.449-2.583,2.263,2.263,0,0,1,1.213-1.931,2.588,2.588,0,0,1,1.3-.36,2.776,2.776,0,0,1,1.078.225q.808.315,1.572.539a.2.2,0,0,0,.225-.045.207.207,0,0,0,.045-.225q-.808-2.38-1.842-4.761a3.17,3.17,0,0,1-.27-1.258,2.887,2.887,0,0,1,.225-1.123,2.688,2.688,0,0,1,1.662-1.662,3.266,3.266,0,0,1,1.3-.27,3.723,3.723,0,0,1,1.258.225,3.3,3.3,0,0,1,1.886,1.752Zm17.295-3.324a2.79,2.79,0,0,1,.674-.09,2.616,2.616,0,0,1,1.482.449,2.478,2.478,0,0,1,1.168,1.887,2.918,2.918,0,0,1,.045.494,3.536,3.536,0,0,1-2.515,3.324c-.3.06-.569.12-.809.18a.564.564,0,0,0-.449.584v8.535a11.27,11.27,0,0,1-.449,3.549,4.02,4.02,0,0,1-1.573,2.066,8.178,8.178,0,0,1-3.5,1.123,1.461,1.461,0,0,1-.36.045A3.033,3.033,0,0,1,733,732.79a4.31,4.31,0,0,1-1.438-2.291,2.524,2.524,0,0,1,.045-1.415,2.188,2.188,0,0,1,.809-1.123,2.48,2.48,0,0,1,1.347-.471h.315a.6.6,0,0,0,.719-.719V719.9a.363.363,0,0,0-.135-.292.274.274,0,0,0-.27-.068l-.539.135a2.416,2.416,0,0,1-.763.135,2.707,2.707,0,0,1-1.573-.494,2.78,2.78,0,0,1-1.264-2.016,3.024,3.024,0,0,1-.044-.494,3.372,3.372,0,0,1,.628-1.976A3.581,3.581,0,0,1,733,713.392q.674-.135,1.347-.314a.5.5,0,0,0,.45-.539V704.9a.4.4,0,0,0-.344-.449.376.376,0,0,0-.106,0h-.808a3.055,3.055,0,0,1,0-6.11h.808a.4.4,0,0,0,.45-.343.376.376,0,0,0,0-.106V693.04a2.916,2.916,0,0,1,.9-2.178,3.091,3.091,0,0,1,4.312,0,2.92,2.92,0,0,1,.9,2.178v4.9a.357.357,0,0,0,.4.4h.225a3.055,3.055,0,0,1,0,6.11h-.225a.357.357,0,0,0-.4.4v6.289a.277.277,0,0,0,.112.225.247.247,0,0,0,.247.045Zm24.168,4.087a10.8,10.8,0,0,1,3.729.539,2.119,2.119,0,0,1,1.123,1.034,2,2,0,0,1,.224.9,2.348,2.348,0,0,1-.089.629,22.225,22.225,0,0,1-3.909,7.322.4.4,0,0,0-.067.292.235.235,0,0,0,.2.2A31.773,31.773,0,0,0,771,727.624a1.929,1.929,0,0,1,1.437,1.258,2.428,2.428,0,0,1,.135.764,2.051,2.051,0,0,1-.4,1.168,5.021,5.021,0,0,1-2.247,1.842,3.962,3.962,0,0,1-1.617.359,4.942,4.942,0,0,1-1.123-.135,32.283,32.283,0,0,1-5.48-2.2.86.86,0,0,0-.809.045,25.558,25.558,0,0,1-3.863,1.842,4.469,4.469,0,0,1-1.483.269,4.053,4.053,0,0,1-1.662-.359,6.073,6.073,0,0,1-2.7-2.067c-.21-.24-.412-.471-.606-.7a.364.364,0,0,0-.5-.119.36.36,0,0,0-.105.1,22.166,22.166,0,0,1-1.887,1.842,2.8,2.8,0,0,1-1.752.628,3.35,3.35,0,0,1-.539-.044,3.661,3.661,0,0,1-2.156-1.258,2.663,2.663,0,0,1-.764-1.887,2.723,2.723,0,0,1,1.034-2.2q4.9-4.223,6.424-11.949a.342.342,0,0,0-.068-.315.363.363,0,0,0-.292-.135h-2.021a2.521,2.521,0,0,1-1.887-.786,2.71,2.71,0,0,1,0-3.773,2.524,2.524,0,0,1,1.887-.786h2.7a.4.4,0,0,0,.449-.344.376.376,0,0,0,0-.106l.045-.359a.48.48,0,0,0-.112-.314.363.363,0,0,0-.292-.135h-2.022a2.456,2.456,0,0,1-1.8-.764,2.508,2.508,0,0,1-.763-1.842V704.8a2.222,2.222,0,0,1,2.2-2.2q.223,0,.18-.225c-.061-.209-.12-.434-.18-.674a3.377,3.377,0,0,1-.18-1.078,3.474,3.474,0,0,1,.449-1.707,3.407,3.407,0,0,1,2.157-1.752c.029,0,.045-.022.045-.067s-.016-.067-.045-.067q-1.034.045-1.662.044h-.045a2.97,2.97,0,0,1-1.887-.673,3.373,3.373,0,0,1-1.168-1.8,1.841,1.841,0,0,1-.09-.584,1.792,1.792,0,0,1,.36-1.078,1.711,1.711,0,0,1,1.437-.809,157.9,157.9,0,0,0,17.789-1.527,7.3,7.3,0,0,1,.809-.045,5.269,5.269,0,0,1,1.886.359,4.806,4.806,0,0,1,2.157,1.617,1.8,1.8,0,0,1,.359,1.078,2.033,2.033,0,0,1-.135.719,1.7,1.7,0,0,1-1.392,1.168q-.855.135-1.887.27a.08.08,0,0,0-.09.069.074.074,0,0,0,0,.021c0,.06.015.089.045.089l.449.135a2.72,2.72,0,0,1,1.932,1.752,2.812,2.812,0,0,1,.225,1.078,2.582,2.582,0,0,1-.5,1.483q-.63,1.033-1.213,1.886a.241.241,0,0,0,0,.2.174.174,0,0,0,.18.112h.719a2.437,2.437,0,0,1,1.819.764,2.6,2.6,0,0,1,0,3.638,2.432,2.432,0,0,1-1.819.764H758.021a.443.443,0,0,0-.491.391.563.563,0,0,0,0,.058v.359a.321.321,0,0,0,.09.337.481.481,0,0,0,.314.113H770.42a2.673,2.673,0,0,1,0,5.345H757.3a.5.5,0,0,0-.539.45l-.09.224a.478.478,0,0,0,.113.315.319.319,0,0,0,.247.134Zm-11.949,9.164a19.892,19.892,0,0,1-2.2,3.5.123.123,0,0,0-.028.173l0,.007a.116.116,0,0,0,.158.045h0a30.253,30.253,0,0,0,4.312-1.348.337.337,0,0,0,.157-.247.279.279,0,0,0-.067-.247q-.808-.764-1.842-1.931a.237.237,0,0,0-.247-.113.35.35,0,0,0-.247.157Zm2.246-22.5c-.03-.27-.06-.569-.09-.9a3.565,3.565,0,0,1-.045-.584,3.957,3.957,0,0,1,.764-2.336,3.593,3.593,0,0,1,2.471-1.617l.4-.045v-.045q-3.279.225-6.559.36a.264.264,0,0,0-.224.134.3.3,0,0,0-.045.27q.493,1.259.988,2.56a1.923,1.923,0,0,1,.135.674,1.986,1.986,0,0,1-.225.9,2.064,2.064,0,0,1-1.213,1.033v.045h3.235a.433.433,0,0,0,.314-.135.311.311,0,0,0,.09-.314Zm5.615,21.158a13.8,13.8,0,0,0,2.022-2.7.256.256,0,0,0,.022-.27.251.251,0,0,0-.247-.135h-5.346a.217.217,0,0,0-.2.135.176.176,0,0,0,.023.225,17.034,17.034,0,0,0,3.054,2.785.463.463,0,0,0,.654-.023l.02-.022Zm-1.123-22.192a3.064,3.064,0,0,1-2.066,1.393.056.056,0,0,0-.012.078l.012.012h3.549a.727.727,0,0,0,.673-.4,44.834,44.834,0,0,0,2.651-5.75.274.274,0,0,0-.068-.27.217.217,0,0,0-.247-.09q-2.605.27-4.132.4a.291.291,0,0,0-.27.158.437.437,0,0,0-.045.337q.225.853.4,1.752a2.949,2.949,0,0,1,.09.718,2.82,2.82,0,0,1-.539,1.662Zm20.709,23.629a4.768,4.768,0,0,1,1.55-3.616,5.9,5.9,0,0,1,7.772,0,4.771,4.771,0,0,1,1.549,3.616,4.683,4.683,0,0,1-1.549,3.617,6.043,6.043,0,0,1-7.772,0,4.684,4.684,0,0,1-1.55-3.619Zm2.2-10.6-1.482-11.68-.135-3.728a3.5,3.5,0,0,1,1.033-2.763,3.637,3.637,0,0,1,2.7-1.146h2.291a3.642,3.642,0,0,1,2.7,1.146,3.5,3.5,0,0,1,1.033,2.763l-.135,3.728-1.482,11.68a3.339,3.339,0,0,1-1.1,2.044,3.212,3.212,0,0,1-4.312,0,3.337,3.337,0,0,1-1.105-2.047Zm17.969-10.287a48.33,48.33,0,0,0,6.2-10.6,3.863,3.863,0,0,1,1.842-1.932,3.657,3.657,0,0,1,1.572-.359,3.387,3.387,0,0,1,1.079.18,3.122,3.122,0,0,1,1.931,1.662,2.9,2.9,0,0,1,.315,1.3,2.859,2.859,0,0,1-.27,1.213q-1.258,2.964-2.785,5.794a2.078,2.078,0,0,0-.18.854V730.19a3.392,3.392,0,0,1-6.783,0V712.174a.107.107,0,0,0-.094-.119.11.11,0,0,0-.086.029,1.53,1.53,0,0,1-1.168.539H802.4a1.649,1.649,0,0,1-1.258-.988q-.36-.719-.674-1.437a5.48,5.48,0,0,1-.629-2.561,4.75,4.75,0,0,1,.045-.674,5.8,5.8,0,0,1,1.258-3.1Zm38.588-.18h-8.85a.4.4,0,0,0-.449.344.369.369,0,0,0,0,.105v2.92a.4.4,0,0,0,.344.449.369.369,0,0,0,.105,0h7.727a2.981,2.981,0,0,1,2.156.876,2.868,2.868,0,0,1,.9,2.134,3.069,3.069,0,0,1-3.055,3.055h-7.727a.4.4,0,0,0-.449.344.369.369,0,0,0,0,.105v3.234a.4.4,0,0,0,.343.45.376.376,0,0,0,.106,0h8.266a3.1,3.1,0,0,1,0,6.2h-8.266a.4.4,0,0,0-.449.344.369.369,0,0,0,0,.105v5.8a3.459,3.459,0,0,1-6.918,0V704.088q0-.4-.427-.4a.725.725,0,0,0-.651.359,56,56,0,0,1-3.459,5.481,2.848,2.848,0,0,1-2.2,1.168h-.135a3.139,3.139,0,0,1-2.246-.9,3.387,3.387,0,0,1-1.123-2.381v-.269a3.508,3.508,0,0,1,.764-2.2,44.748,44.748,0,0,0,6.244-11.5,3.455,3.455,0,0,1,1.752-1.977,3.391,3.391,0,0,1,1.662-.449,3.12,3.12,0,0,1,.9.135,3.071,3.071,0,0,1,2.291,2.875,2.793,2.793,0,0,1-.224,1.078q-.36.9-.719,1.8a.224.224,0,0,0,0,.269.3.3,0,0,0,.27.135h13.521a3,3,0,0,1,2.224.943,3.2,3.2,0,0,1,0,4.493,3,3,0,0,1-2.227.936Zm5.8,4.986q-.63-3.009,1.662-3.818a30.652,30.652,0,0,1,5.548-1.707,33.387,33.387,0,0,1,6.626-.719,16.36,16.36,0,0,1,6.581,1.37,10.388,10.388,0,0,1,4.6,3.931,12.563,12.563,0,0,1,1.8,6.424q.315,8-5.031,11.814t-14.06,4q-2.562,0-2.7-2.83a2.424,2.424,0,0,1,2.7-2.785,18.466,18.466,0,0,0,6.693-1.168,9.249,9.249,0,0,0,4.986-3.549,9.4,9.4,0,0,0,1.348-5.39,5.4,5.4,0,0,0-1.662-4.066q-1.663-1.593-5.75-1.819a15.79,15.79,0,0,0-4.29.4q-2.089.5-5.234,1.572-2.829,1.17-3.818-1.662ZM903.565,696.1a3.126,3.126,0,0,1,3.324,2.785q.36,3.1-1.707,3.909a28.736,28.736,0,0,0-5.548,2.627,21.358,21.358,0,0,0-5.256,4.313,12.53,12.53,0,0,0-2.807,4.784,6.79,6.79,0,0,0,.135,4.874,5.843,5.843,0,0,0,2.627,2.651,8.285,8.285,0,0,0,3.123.92q1.8.092,4.671-.044,3.236-.135,3.325,3.459-.091,3.773-3.325,3.728-3.189,0-5.21-.135a17.944,17.944,0,0,1-4.4-.876,13.559,13.559,0,0,1-4.559-2.448,10.62,10.62,0,0,1-3.145-4.447,14.08,14.08,0,0,1-.606-6.873,16.769,16.769,0,0,1,1.729-5.166,19.237,19.237,0,0,1,2.7-3.886,25.961,25.961,0,0,1,2.494-2.448,7.34,7.34,0,0,1,1.123-.854H881.464q-3.414,0-3.414-3.414,0-3.459,3.414-3.459Zm18.373,5.211a.4.4,0,0,0-.449.344.369.369,0,0,0,0,.105v4.672q0,15.139-3.549,23.944A2.471,2.471,0,0,1,916.1,731.9a2.909,2.909,0,0,1-.719.09,3.1,3.1,0,0,1-1.752-.539,4.15,4.15,0,0,1-1.617-2.157,4.53,4.53,0,0,1-.179-1.257,4.061,4.061,0,0,1,.269-1.438q2.7-6.873,2.7-20.17V698.88a3.8,3.8,0,0,1,1.123-2.762,3.745,3.745,0,0,1,2.786-1.146h11.814a.4.4,0,0,0,.449-.344.461.461,0,0,0,0-.105V693.4a3.5,3.5,0,0,1,7.008,0v1.123a.4.4,0,0,0,.344.449.369.369,0,0,0,.105,0h12.527a3.044,3.044,0,0,1,2.268.943,3.105,3.105,0,0,1,.921,2.247,3.029,3.029,0,0,1-.921,2.223,3.082,3.082,0,0,1-2.268.921H936.4a.105.105,0,0,0-.112.09.108.108,0,0,0,.067.135,65.3,65.3,0,0,1,6.648,3.728,2.536,2.536,0,0,1,1.258,2.112v.269a2.965,2.965,0,0,1-.853,2.111,3.43,3.43,0,0,1-2.471,1.079h-.225a4.1,4.1,0,0,1-2.425-.764,57.387,57.387,0,0,0-4.942-3.19,2.87,2.87,0,0,1-1.482-2.156,2.918,2.918,0,0,1-.045-.494,2.715,2.715,0,0,1,.853-1.977l.629-.628q.09-.045.045-.18a.177.177,0,0,0-.18-.135Zm6.918,16.3a49.472,49.472,0,0,1-1.572,9.209,2.832,2.832,0,0,1-1.662,1.8,3.241,3.241,0,0,1-1.168.224,3.317,3.317,0,0,1-3.01-2.066,3.549,3.549,0,0,1-.315-1.438,3.79,3.79,0,0,1,.18-1.123,41.141,41.141,0,0,0,1.527-7.906,2.657,2.657,0,0,1,1.123-1.932,2.566,2.566,0,0,1,1.573-.539,4.4,4.4,0,0,1,.584.045,3.255,3.255,0,0,1,2.066,1.348,3.155,3.155,0,0,1,.719,2.021,1.564,1.564,0,0,1-.045.36Zm22.191-2.875a61.558,61.558,0,0,1,3.549,8.894,3.377,3.377,0,0,1,.18,1.078,3.711,3.711,0,0,1-.449,1.752,4.336,4.336,0,0,1-2.157,1.977,3.79,3.79,0,0,1-1.123.18,3.056,3.056,0,0,1-2.875-2.336q-.314-1.213-.718-2.561a.163.163,0,0,0-.113-.045c-.045,0-.067.03-.067.09q-.5,5.166-1.932,7.1T940.67,732.8h-4.177q-3.954,0-5.324-1.684t-1.37-6.132V713.252a3.17,3.17,0,0,1,.989-2.358,3.254,3.254,0,0,1,2.358-.966,3.3,3.3,0,0,1,3.3,3.3v11.7a3.814,3.814,0,0,0,.2,1.6c.135.224.456.337.966.337h2.426a.925.925,0,0,0,.9-.652,10.591,10.591,0,0,0,.449-2.583A2.263,2.263,0,0,1,942.6,721.7a2.588,2.588,0,0,1,1.3-.36,2.776,2.776,0,0,1,1.078.225q.809.315,1.572.539a.2.2,0,0,0,.225-.045.207.207,0,0,0,.045-.225q-.809-2.38-1.842-4.761a3.17,3.17,0,0,1-.27-1.258,2.887,2.887,0,0,1,.225-1.123,2.693,2.693,0,0,1,1.662-1.662,3.266,3.266,0,0,1,1.3-.27,3.723,3.723,0,0,1,1.258.225,3.3,3.3,0,0,1,1.886,1.752Zm17.295-3.324a2.784,2.784,0,0,1,.674-.09,2.622,2.622,0,0,1,1.483.449,2.483,2.483,0,0,1,1.168,1.887,3.139,3.139,0,0,1,.044.494,3.536,3.536,0,0,1-2.515,3.324c-.3.06-.569.12-.809.18a.566.566,0,0,0-.449.584v8.535a11.27,11.27,0,0,1-.449,3.549,4.023,4.023,0,0,1-1.572,2.066,8.21,8.21,0,0,1-3.5,1.123,1.461,1.461,0,0,1-.36.045,3.033,3.033,0,0,1-2.021-.764A4.31,4.31,0,0,1,958.6,730.5a2.524,2.524,0,0,1,.045-1.415,2.188,2.188,0,0,1,.809-1.123,2.48,2.48,0,0,1,1.347-.471h.315a.6.6,0,0,0,.719-.719V719.9a.363.363,0,0,0-.135-.292.274.274,0,0,0-.27-.068l-.539.135a2.416,2.416,0,0,1-.763.135,2.707,2.707,0,0,1-1.573-.494,2.776,2.776,0,0,1-1.257-2.022,2.918,2.918,0,0,1-.045-.494,3.365,3.365,0,0,1,.628-1.976,3.581,3.581,0,0,1,2.157-1.438q.674-.135,1.347-.314a.5.5,0,0,0,.45-.539V704.9a.4.4,0,0,0-.344-.449.376.376,0,0,0-.106,0h-.808a3.055,3.055,0,0,1,0-6.11h.808a.4.4,0,0,0,.45-.343.376.376,0,0,0,0-.106V693.04a2.916,2.916,0,0,1,.9-2.178,3.092,3.092,0,0,1,4.313,0,2.925,2.925,0,0,1,.9,2.178v4.9a.357.357,0,0,0,.4.4h.225a3.055,3.055,0,0,1,0,6.11h-.225a.357.357,0,0,0-.4.4v6.289a.277.277,0,0,0,.112.225.247.247,0,0,0,.247.045ZM992.51,715.5a10.8,10.8,0,0,1,3.729.539,2.119,2.119,0,0,1,1.123,1.034,2,2,0,0,1,.224.9,2.348,2.348,0,0,1-.089.629,22.225,22.225,0,0,1-3.909,7.322.4.4,0,0,0-.067.292.234.234,0,0,0,.2.2,31.733,31.733,0,0,0,4.313,1.213,1.929,1.929,0,0,1,1.437,1.258,2.428,2.428,0,0,1,.135.764,2.051,2.051,0,0,1-.4,1.168,5.018,5.018,0,0,1-2.246,1.842,3.966,3.966,0,0,1-1.618.359,4.942,4.942,0,0,1-1.123-.135,32.25,32.25,0,0,1-5.48-2.2.86.86,0,0,0-.809.045,25.558,25.558,0,0,1-3.863,1.842,4.463,4.463,0,0,1-1.482.269,4.054,4.054,0,0,1-1.663-.359,6.073,6.073,0,0,1-2.7-2.067c-.21-.24-.412-.471-.606-.7a.364.364,0,0,0-.5-.119.36.36,0,0,0-.105.1,22.166,22.166,0,0,1-1.887,1.842,2.8,2.8,0,0,1-1.751.628,3.362,3.362,0,0,1-.54-.044,3.661,3.661,0,0,1-2.156-1.258,2.658,2.658,0,0,1-.763-1.887,2.722,2.722,0,0,1,1.033-2.2q4.9-4.223,6.424-11.949a.342.342,0,0,0-.068-.315.363.363,0,0,0-.292-.135h-2.021a2.521,2.521,0,0,1-1.887-.786,2.71,2.71,0,0,1,0-3.773,2.524,2.524,0,0,1,1.887-.786h2.7a.4.4,0,0,0,.449-.344.376.376,0,0,0,0-.106l.045-.359a.48.48,0,0,0-.112-.314.363.363,0,0,0-.292-.135h-2.022a2.453,2.453,0,0,1-1.8-.764,2.509,2.509,0,0,1-.764-1.842v-.359a2.223,2.223,0,0,1,2.2-2.2c.15,0,.209-.075.18-.225-.061-.209-.12-.434-.18-.674a3.377,3.377,0,0,1-.18-1.078,3.462,3.462,0,0,1,.45-1.707,3.4,3.4,0,0,1,2.156-1.752c.029,0,.045-.022.045-.067s-.016-.067-.045-.067q-1.034.045-1.662.044h-.045a2.976,2.976,0,0,1-1.887-.673,3.385,3.385,0,0,1-1.168-1.8,1.841,1.841,0,0,1-.09-.584,1.792,1.792,0,0,1,.36-1.078,1.711,1.711,0,0,1,1.437-.809,157.9,157.9,0,0,0,17.789-1.527,7.3,7.3,0,0,1,.809-.045,5.269,5.269,0,0,1,1.886.359,4.8,4.8,0,0,1,2.157,1.617,1.8,1.8,0,0,1,.359,1.078,2.033,2.033,0,0,1-.135.719,1.7,1.7,0,0,1-1.392,1.168q-.853.135-1.887.27a.08.08,0,0,0-.09.069.074.074,0,0,0,0,.021c0,.06.015.089.045.089l.449.135a2.72,2.72,0,0,1,1.932,1.752,2.776,2.776,0,0,1,.225,1.078,2.584,2.584,0,0,1-.5,1.483q-.629,1.034-1.212,1.886a.233.233,0,0,0,0,.2.172.172,0,0,0,.179.112h.719a2.435,2.435,0,0,1,1.819.764,2.6,2.6,0,0,1,0,3.638,2.432,2.432,0,0,1-1.819.764H985.056a.445.445,0,0,0-.491.393.525.525,0,0,0,0,.056v.359a.321.321,0,0,0,.09.337.479.479,0,0,0,.314.113h12.49a2.673,2.673,0,0,1,0,5.345H984.338a.5.5,0,0,0-.539.45l-.089.224a.477.477,0,0,0,.112.315.319.319,0,0,0,.247.134Zm-11.949,9.164a19.892,19.892,0,0,1-2.2,3.5.125.125,0,0,0-.027.175l0,0a.116.116,0,0,0,.158.045h0a30.253,30.253,0,0,0,4.312-1.348.337.337,0,0,0,.157-.247.279.279,0,0,0-.067-.247q-.808-.764-1.842-1.931a.237.237,0,0,0-.247-.113.348.348,0,0,0-.247.157Zm2.246-22.5c-.03-.27-.06-.569-.09-.9a3.565,3.565,0,0,1-.045-.584,3.964,3.964,0,0,1,.764-2.336,3.593,3.593,0,0,1,2.471-1.617l.4-.045v-.045q-3.279.225-6.559.36a.264.264,0,0,0-.224.134.3.3,0,0,0-.045.27q.493,1.259.988,2.56a1.923,1.923,0,0,1,.135.674,1.986,1.986,0,0,1-.225.9,2.064,2.064,0,0,1-1.213,1.033v.045H982.4a.433.433,0,0,0,.314-.135.311.311,0,0,0,.09-.314Zm5.615,21.158a13.8,13.8,0,0,0,2.022-2.7.254.254,0,0,0,.022-.27.251.251,0,0,0-.247-.135h-5.345a.217.217,0,0,0-.2.135.179.179,0,0,0,.023.225,17.04,17.04,0,0,0,3.055,2.785.463.463,0,0,0,.653-.022l.02-.023ZM987.3,701.128a3.064,3.064,0,0,1-2.066,1.393.056.056,0,0,0-.012.078l.012.012h3.549a.73.73,0,0,0,.674-.4,44.828,44.828,0,0,0,2.65-5.75.276.276,0,0,0-.067-.27.217.217,0,0,0-.247-.09q-2.607.27-4.133.4a.29.29,0,0,0-.27.158.437.437,0,0,0-.045.337q.225.854.4,1.752a3.049,3.049,0,0,1,.089.718,2.82,2.82,0,0,1-.539,1.662Zm20.709,23.629a4.768,4.768,0,0,1,1.55-3.616,5.9,5.9,0,0,1,7.772,0,4.771,4.771,0,0,1,1.549,3.616,4.683,4.683,0,0,1-1.549,3.617,6.045,6.045,0,0,1-7.772,0,4.684,4.684,0,0,1-1.549-3.622Zm2.2-10.6-1.482-11.68-.135-3.728a3.5,3.5,0,0,1,1.033-2.763,3.637,3.637,0,0,1,2.7-1.146h2.291a3.644,3.644,0,0,1,2.695,1.146,3.511,3.511,0,0,1,1.033,2.763l-.134,3.728-1.483,11.68a3.344,3.344,0,0,1-1.1,2.044,3.214,3.214,0,0,1-4.313,0,3.34,3.34,0,0,1-1.1-2.05Z"/><path class="cls-13" d="M752.766,290.67a2.642,2.642,0,0,1,2.989-2.988q3.075,0,3.076,2.988v6.68a2.641,2.641,0,0,1-2.241,2.988,2.67,2.67,0,0,1-.747,0h-.352q3.164,3.868,3.164,10.987V344.02q0,15.821-15.82,15.82H711.456q-6.855,0-6.856-6.855,0-6.942,6.856-6.944h27.6q5.273,0,5.273-5.273V314.577q0-5.274-5.273-5.274h-27.6q-6.855,0-6.856-6.855v-.088q0-6.857,6.856-6.856h31.377q6.15,0,9.931,2.461V290.67Zm9.493,0a2.641,2.641,0,0,1,2.241-2.988,2.67,2.67,0,0,1,.747,0q3.075,0,3.076,2.988v6.68a2.641,2.641,0,0,1-2.241,2.988,2.67,2.67,0,0,1-.747,0q-3.078,0-3.076-2.988Zm16.873,70.137q-6.328-2.285-4.219-8.789a174.529,174.529,0,0,0,5.23-20.7,120.641,120.641,0,0,0,1.713-20.169v-11.6q0-6.766,6.767-6.767,6.856,0,6.856,6.767v11.6a160.626,160.626,0,0,1-1.275,21.533,136.771,136.771,0,0,1-5.581,22.676q-2.462,7.295-9.492,5.449Zm50.449-8.789q2.111,6.506-4.218,8.789-7.034,1.845-9.492-5.449a136.551,136.551,0,0,1-5.582-22.676,160.625,160.625,0,0,1-1.274-21.533v-11.6q0-6.766,6.856-6.767,6.766,0,6.767,6.767v11.6a120.345,120.345,0,0,0,1.718,20.171,173.849,173.849,0,0,0,5.225,20.7Zm10.193-50.537q0-6.855,6.856-6.856h15.117q6.855,0,6.855,6.856t-6.855,6.855H846.63q-6.856,0-6.856-6.855Zm52.119,8.349q5.887,2.726,3.867,8.438-2.373,8.174-9.184,17.8a70.328,70.328,0,0,1-14.766,15.644q-7.956,6.021-23.511,9.449-6.064,1.14-7.734-5.625-.879-6.942,5.625-8.086,11.338-1.933,17.93-7.12a63.769,63.769,0,0,0,11.736-12.086,49.829,49.829,0,0,0,7.6-14.546q2.2-5.361,8.437-3.868Z"/><path class="cls-13" d="M97.082,324.245q0-6.857,6.856-6.856h16.7v-9.932H106.4q-6.856,0-6.856-6.855t6.856-6.856h38.935q6.856,0,6.856,6.856t-6.856,6.855H134.612v9.932h13.271q6.855,0,6.856,6.856t-6.856,6.855H134.524a29.487,29.487,0,0,1-4.922,14.5,41.423,41.423,0,0,1-9.1,9.58,52.415,52.415,0,0,1-13.052,6.68q-6.065,2.109-8.437-4.219-2.024-6.678,4.219-8.789,9.051-2.986,12.656-7.383A20.785,20.785,0,0,0,120.37,331.1H103.938q-6.855,0-6.856-6.855Zm70.754,1.055q-4.923,0-5.362-5.537,0-5.712,5.1-6.064l3.34-.088-.44-5.274q-.7-5.712,5.362-6.328,5.623-.086,5.976,5.362l.616,5.976,19.335-.439q6.592-.087,9.932,4.35t.879,11.03a46.945,46.945,0,0,1-5.449,9.449,39.281,39.281,0,0,1-8,7.6q-4.219,3.956-8.086-.615-1.846-4.746,1.494-7.734a41.073,41.073,0,0,0,8.086-9.229q1.23-3.514-1.582-3.428l-15.205.528,3.955,33.926q.7,5.184-4.746,5.976-5.627.439-6.5-5.1l-4.219-34.541Zm107.579-8.086q5.274,3.955,2.461,9.141-2.022,5.01-8.789,13.711a59.8,59.8,0,0,1-14.062,13.491q-7.3,4.791-10.108,5.493-7.824,2.724-12.964-1.582t-5.229-12.041V299.9q0-6.942,6.943-6.944,7.031,0,7.031,6.944v40.957q.175,4.218,3.78,3.34a40.5,40.5,0,0,0,5.669-3.516,39.454,39.454,0,0,0,9.14-9.009,65.7,65.7,0,0,0,6.988-11.294q2.987-6.238,9.14-3.164ZM290,301.482q0-6.855,6.856-6.856h15.117q6.855,0,6.855,6.856t-6.855,6.855H296.856q-6.856,0-6.856-6.855Zm52.119,8.349q5.888,2.726,3.868,8.438-2.373,8.173-9.185,17.8a70.261,70.261,0,0,1-14.766,15.644q-7.954,6.021-23.51,9.449-6.065,1.14-7.735-5.625-.879-6.942,5.625-8.086,11.338-1.934,17.93-7.12a63.682,63.682,0,0,0,11.733-12.084,49.829,49.829,0,0,0,7.6-14.546q2.2-5.361,8.437-3.868Zm67.853,0q5.887,2.726,3.868,8.438-2.373,8.173-9.185,17.8a66.463,66.463,0,0,1-15.117,15.644q-8.306,6.021-23.862,9.449-6.065,1.14-7.735-5.625-.879-6.942,5.625-8.086,11.339-1.934,18.281-7.12a59.024,59.024,0,0,0,12.085-12.084,49.829,49.829,0,0,0,7.6-14.546q2.2-5.361,8.437-3.868Zm-52.118-9.405q0-6.855,6.856-6.855h13.444q6.855,0,6.855,6.855,0,6.944-6.855,6.944H364.711q-6.857,0-6.856-6.856Zm0,21.358q0-6.856,6.856-6.856h13.444q6.855,0,6.855,6.856,0,6.944-6.855,6.943H364.711q-6.857,0-6.856-6.856ZM402.24,296.3a2.641,2.641,0,0,1,2.241-2.988,2.67,2.67,0,0,1,.747,0q3.076,0,3.076,2.988v6.68a2.641,2.641,0,0,1-2.241,2.988,2.67,2.67,0,0,1-.747,0q-3.078,0-3.076-2.988Zm9.492,0a2.641,2.641,0,0,1,2.241-2.988,2.67,2.67,0,0,1,.747,0q3.077,0,3.077,2.988v6.68a2.641,2.641,0,0,1-2.241,2.988,2.6,2.6,0,0,1-.748,0q-3.077,0-3.076-2.988Z"/><path class="cls-13" d="M95.1,718.329q1.122.719,3.639,2.605a2.649,2.649,0,0,1,1.168,1.977,2.158,2.158,0,0,1,.044.4,2.742,2.742,0,0,1-.673,1.8,2.387,2.387,0,0,1-1.932.943H97.3a2.48,2.48,0,0,1-1.932-.853l-.044-.045a.146.146,0,0,0-.18-.045.142.142,0,0,0-.09.134v5.077a3.235,3.235,0,0,1-6.469.114q0-.057,0-.114V726.37c0-.06-.038-.105-.112-.135s-.128-.015-.157.045q-1.035,1.347-2.157,2.56a2.636,2.636,0,0,1-1.931.809H84a3.352,3.352,0,0,1-2.2-1.123,2.808,2.808,0,0,1-.719-1.932,2.907,2.907,0,0,1,.989-2.246,29.491,29.491,0,0,0,5.031-5.7.252.252,0,0,0-.058-.353.248.248,0,0,0-.167-.047H83.735a2.69,2.69,0,0,1-1.977-.809,2.66,2.66,0,0,1-.808-1.954,2.74,2.74,0,0,1,.808-1.977,2.654,2.654,0,0,1,1.977-.831h4.4a.4.4,0,0,0,.449-.344.369.369,0,0,0,0-.105v-1.887a.4.4,0,0,0-.344-.449.369.369,0,0,0-.1,0H83.508a2.6,2.6,0,0,1-1.909-.786,2.766,2.766,0,0,1,0-3.863,2.6,2.6,0,0,1,1.909-.786h.629a.327.327,0,0,0,.27-.113.249.249,0,0,0,.044-.247,9.846,9.846,0,0,0-.359-1.662,2.136,2.136,0,0,1-.09-.584,2.384,2.384,0,0,1,.27-1.078,2.064,2.064,0,0,1,1.3-.988v-.045H84.045a2.562,2.562,0,0,1-1.909-.809,2.646,2.646,0,0,1-.786-1.909,2.684,2.684,0,0,1,2.7-2.673h4.133a.357.357,0,0,0,.4-.4v-.27a3.235,3.235,0,0,1,6.469-.114q0,.057,0,.114v.27a.357.357,0,0,0,.4.4H99.58a2.684,2.684,0,0,1,2.7,2.673,2.646,2.646,0,0,1-.786,1.909,2.562,2.562,0,0,1-1.909.809h-.808a1.364,1.364,0,0,1,.988.741,1.384,1.384,0,0,1,.045,1.235q-.9,2.067-1.033,2.381a.28.28,0,0,0,.022.247.22.22,0,0,0,.2.113h.854a2.6,2.6,0,0,1,1.909.786,2.766,2.766,0,0,1,0,3.863,2.6,2.6,0,0,1-1.909.786H95.49a.4.4,0,0,0-.449.344.369.369,0,0,0,0,.105v1.887a.4.4,0,0,0,.344.449.369.369,0,0,0,.1,0h3.819a2.658,2.658,0,0,1,1.976.831,2.741,2.741,0,0,1,.809,1.977,2.762,2.762,0,0,1-2.785,2.763H95.086c-.03,0-.045.007-.045.022s.015.038.045.068Zm-1.168-16.8q.224-.719.4-1.393a.317.317,0,0,0-.314-.4H89.21a.264.264,0,0,0-.247.112.371.371,0,0,0-.022.292,14.675,14.675,0,0,1,.673,1.932,2.918,2.918,0,0,1,.045.494,1.8,1.8,0,0,1-.269.943,1.972,1.972,0,0,1-1.213.9v.045h7.367c.03,0,.045-.007.045-.023s-.015-.022-.045-.022a2.185,2.185,0,0,1-1.437-1.078,2.124,2.124,0,0,1-.315-1.079,2.028,2.028,0,0,1,.135-.718Zm26.639-4.987a73.755,73.755,0,0,1-10.018,2.83.5.5,0,0,0-.449.54v4.582a.4.4,0,0,0,.344.449.369.369,0,0,0,.105,0h10.287a2.907,2.907,0,0,1,2.156.921,3.088,3.088,0,0,1,0,4.357,2.907,2.907,0,0,1-2.156.921h-.449a.357.357,0,0,0-.4.4v18.6a3.235,3.235,0,0,1-6.469.114q0-.057,0-.114V711.59a.4.4,0,0,0-.344-.449.369.369,0,0,0-.105,0h-2.516a.4.4,0,0,0-.449.344.369.369,0,0,0,0,.105q-.315,12.4-4.986,19.451a2.242,2.242,0,0,1-1.932,1.034h-.045a3.318,3.318,0,0,1-2.224-.966,3.688,3.688,0,0,1-1.145-2.224,3.565,3.565,0,0,1-.045-.584,3.623,3.623,0,0,1,.539-1.887,21.635,21.635,0,0,0,2.808-7.681,56.229,56.229,0,0,0,.7-9.209V696.856a2.56,2.56,0,0,1,2.515-2.606,2.633,2.633,0,0,1,.742.113,1.382,1.382,0,0,0,.741.022,63.673,63.673,0,0,0,7.547-2.471,5.328,5.328,0,0,1,2.246-.494,3.942,3.942,0,0,1,.853.09,5.215,5.215,0,0,1,2.83,1.258,2.218,2.218,0,0,1,.764,1.662,2.257,2.257,0,0,1-.045.449,1.921,1.921,0,0,1-1.392,1.662Zm15.722,22.6a6.915,6.915,0,0,0,.876,3.908,3.41,3.41,0,0,0,2.718,1.393A12.532,12.532,0,0,0,144.9,723.3a55.65,55.65,0,0,0,6.8-3.751,2.826,2.826,0,0,1,4.313.539,3.636,3.636,0,0,1-.719,5.032,39.751,39.751,0,0,1-4.4,2.987,30.47,30.47,0,0,1-5.256,2.4,19.987,19.987,0,0,1-6.154,1.123q-5.256-.09-7.592-3.077t-2.336-8.29V697.44q0-3.369,3.369-3.369t3.369,3.369Zm26.819-20.3q.18-3.369,3.5-3.369,3.144.18,3.055,3.369,0,1.213-.09,4t-.157,6.042q-.068,3.258-.112,6a39.483,39.483,0,0,0,.336,5.75q.338,2.2,1.46,2.335a6.392,6.392,0,0,0,2.381-.539q2.38-1.525,3.909,1.258a3.816,3.816,0,0,1-1.842,4.717,5.789,5.789,0,0,1-1.8,1.123,15.226,15.226,0,0,1-3.235.629,5.659,5.659,0,0,1-5.817-3.122q-1.91-3.436-1.909-10.489,0-2.876.022-6.4t.09-6.6q.075-3.1.209-4.714Zm19.317.225q-.673-3.144,2.875-3.234,3.009.045,3.594,3.234a74.854,74.854,0,0,1,1.959,11.378,117.425,117.425,0,0,1,.7,15.116q0,3.684-3.369,3.684-3.281,0-3.235-3.145.045-1.482-.067-5.256t-.517-8.265q-.4-4.493-.92-7.66t-1.02-5.862Zm17.028,22.316a11.209,11.209,0,0,1,2.875-6.873q1.707-2.2,4.223-.651t.809,4.065a4.574,4.574,0,0,0-.854,2.606,2.664,2.664,0,0,0,.449,1.549,3.233,3.233,0,0,0,1.955,1.011,23.533,23.533,0,0,0,4.694.4,82.926,82.926,0,0,0,8.67-.54q3.5-.539,3.594,3.415.088,3.234-3.594,3.773a56.87,56.87,0,0,1-9.658.674q-6.739,0-9.973-2.426a8.119,8.119,0,0,1-3.19-7.008Zm20.3-25.605q3.144,0,3.706,2.852t-2.987,5.458l-2.92,2.157a4.873,4.873,0,0,1-4.627,0q-1.662-2.067.045-3.594h-9.3q-3.414,0-3.414-3.414,0-3.459,3.414-3.459ZM259.6,707.323q-.046,3.369-2.875,3.414a52.136,52.136,0,0,0-10.512,1.392,16,16,0,0,0-4.874,2.449,4.939,4.939,0,0,0-2.089,4.02,4.77,4.77,0,0,0,1.527,3.684,6.548,6.548,0,0,0,3.572,1.572,24.581,24.581,0,0,0,4.514.135,74.9,74.9,0,0,0,7.5-.494q3.189-.315,3.235,3.234.089,3.279-2.875,3.639a43.916,43.916,0,0,1-7.727.494,36.452,36.452,0,0,1-8.063-.764,11.728,11.728,0,0,1-6.4-3.773q-2.65-2.966-2.336-8.131a13.68,13.68,0,0,1,1.236-4.784,9.531,9.531,0,0,1,2.627-3.28,39.15,39.15,0,0,1,3.28-2.358l-1.707-10.152q-.27-2.516,2.74-3.055,3.144-.27,3.5,2.515l1.3,8.536q3.953-1.527,11.545-1.842,2.829,0,2.875,3.549Zm6.424-2.83q.314-3.909.719-6.514.629-2.874,3.953-2.7,2.874.045,2.695,3.234-.315,2.112-.629,6t-.359,8.153q.043,4.539.359,8.423t.629,6q.18,3.19-2.695,3.235-3.325.179-3.953-2.7-.4-2.6-.719-6.513-.315-3.864-.359-8.266V712.8q.043-4.447.359-8.31Zm9.389,16.351a14.784,14.784,0,0,1,1.033-5.435,2.967,2.967,0,0,1,3.594-1.977q2.874.853,1.976,3.234a9.183,9.183,0,0,0-.314,2.291,3.32,3.32,0,0,0,.314,1.618,2.759,2.759,0,0,0,1.46,1.257,8.694,8.694,0,0,0,3.257.539q3.414,0,4.807-.134,3.234-.448,3.414,3.054-.091,3.415-2.875,3.774a54.512,54.512,0,0,1-5.8.4q-5.256-.135-8-2.583a8.225,8.225,0,0,1-2.875-6.042Zm15-23.269q3.412,0,3.414,3.414,0,3.459-3.414,3.459H280.178q-3.414,0-3.414-3.414,0-3.459,3.414-3.459Zm25.783-.315a3.585,3.585,0,0,1,2.291,1.752c.03.06.068.083.113.067a.1.1,0,0,0,.067-.112v-5.39a3.068,3.068,0,0,1,3.077-3.055,2.9,2.9,0,0,1,2.157.9,2.984,2.984,0,0,1,.875,2.157v16.98q0,3.459-.247,6.087a36.078,36.078,0,0,1-.965,5.458,17.411,17.411,0,0,1-6.065,9.434,3.212,3.212,0,0,1-2.56.673,4.539,4.539,0,0,1-2.426-1.257,2.609,2.609,0,0,1-.764-1.842,2.722,2.722,0,0,1,1.033-2.2,14.439,14.439,0,0,0,4.9-7.323.09.09,0,0,0-.024-.124l-.021-.01a.191.191,0,0,0-.18,0q-.5.448-1.213.988a2.617,2.617,0,0,1-1.707.629,4.068,4.068,0,0,1-.584-.045,2.721,2.721,0,0,1-1.931-1.348,3.3,3.3,0,0,1-.45-1.617,3.958,3.958,0,0,1,.09-.854,3.392,3.392,0,0,1,1.483-2.021q2.065-1.3,4.761-3.145a.5.5,0,0,1,.427-.067.631.631,0,0,1,.337.292v-5.75a.193.193,0,0,0-.09-.157.125.125,0,0,0-.175.016l0,.006a2.2,2.2,0,0,1-1.123.315,2.14,2.14,0,0,1-.764-.135,2.289,2.289,0,0,1-1.438-1.3q-.988-2.245-2.381-4.806a.108.108,0,0,0-.134-.068.107.107,0,0,0-.09.113v.9a3.069,3.069,0,0,1-3.055,3.055.317.317,0,0,0-.359.268.347.347,0,0,0,0,.091v3.773a.221.221,0,0,0,.112.2.2.2,0,0,0,.2.022,2.794,2.794,0,0,1,.944-.18,2.538,2.538,0,0,1,1.213.315,2.6,2.6,0,0,1,1.3,1.752,3.181,3.181,0,0,1-.359,2.381,3.377,3.377,0,0,1-1.8,1.617q-.5.225-1.168.494a.638.638,0,0,0-.449.629v10.961a11.266,11.266,0,0,1-.449,3.549,4.026,4.026,0,0,1-1.573,2.066,8.21,8.21,0,0,1-3.5,1.123,1.447,1.447,0,0,1-.359.045,3.033,3.033,0,0,1-2.021-.764,4.3,4.3,0,0,1-1.438-2.291,2.524,2.524,0,0,1,.045-1.415,2.188,2.188,0,0,1,.809-1.123,2.48,2.48,0,0,1,1.347-.471h.315a.6.6,0,0,0,.718-.438.606.606,0,0,0,0-.281v-8.715a.263.263,0,0,0-.112-.247.286.286,0,0,0-.247-.023l-.135.045a3.007,3.007,0,0,1-1.033.18,3.18,3.18,0,0,1-1.348-.314,2.877,2.877,0,0,1-1.437-1.887,2.947,2.947,0,0,1-.135-.854,3.151,3.151,0,0,1,.494-1.662,3.542,3.542,0,0,1,1.977-1.617q.764-.224,1.572-.494a.589.589,0,0,0,.4-.629V704.9a.4.4,0,0,0-.344-.449.369.369,0,0,0-.1,0h-.988a3.055,3.055,0,0,1,0-6.11h.988a.4.4,0,0,0,.449-.344.461.461,0,0,0,0-.1V693.04a2.916,2.916,0,0,1,.9-2.178,3.091,3.091,0,0,1,4.312,0,2.92,2.92,0,0,1,.9,2.178v4.852a.4.4,0,0,0,.344.449.369.369,0,0,0,.105,0h2.022a1.723,1.723,0,0,0,.853-.224l.9-.494a3.852,3.852,0,0,1,1.887-.5,4.293,4.293,0,0,1,1.033.135Zm17.7,30.053h1.757q.4,0,.628-.562a7.294,7.294,0,0,0,.315-2,1.823,1.823,0,0,1,.988-1.527,2.273,2.273,0,0,1,.944-.225,2.416,2.416,0,0,1,.9.18,5.238,5.238,0,0,1,2.021,1.752,3.094,3.094,0,0,1,.54,1.752,1.87,1.87,0,0,1-.09.584,8.983,8.983,0,0,1-1.909,4.582,4.936,4.936,0,0,1-3.751,1.393h-3.549q-3.5,0-4.74-1.8t-1.235-6.784v-31a3,3,0,0,1,.943-2.223,3.105,3.105,0,0,1,2.247-.921,3.144,3.144,0,0,1,3.144,3.144v7.952c0,.06.023.089.067.089a.151.151,0,0,0,.113-.045q.717-1.705,1.347-3.324a2.848,2.848,0,0,1,1.618-1.752,2.69,2.69,0,0,1,2.336.09,3.151,3.151,0,0,1,1.617,1.932,3.581,3.581,0,0,1,.135.943,3.319,3.319,0,0,1-.405,1.572q-2.067,3.73-2.246,4.088a3.2,3.2,0,0,1-1.887,1.483,4.365,4.365,0,0,1-.853.09,3.051,3.051,0,0,1-1.527-.4.2.2,0,0,0-.2.023.19.19,0,0,0-.112.157v4.223c0,.06.015.1.045.112a.072.072,0,0,0,.09-.023,2.247,2.247,0,0,1,1.437-.628h.09a1.983,1.983,0,0,1,1.393.539q2.425,2.2,4.357,4.312a3.341,3.341,0,0,1,.854,2.246,3.643,3.643,0,0,1-.944,2.471,2.442,2.442,0,0,1-1.841.809h-.18a2.557,2.557,0,0,1-1.977-.989q-1.347-1.661-3.009-3.459a.18.18,0,0,0-.2-.045.176.176,0,0,0-.112.18v8.4a10.053,10.053,0,0,0,.135,2.157.656.656,0,0,0,.711.452Zm32.433-1.078h-5.8a.4.4,0,0,0-.449.344.369.369,0,0,0,0,.105v3.684a3.044,3.044,0,0,1-.943,2.268,3.193,3.193,0,0,1-5.436-2.2v-3.75a.4.4,0,0,0-.344-.449.369.369,0,0,0-.105,0H347.1a2.92,2.92,0,0,1,0-5.84h6.154a.4.4,0,0,0,.449-.344.369.369,0,0,0,0-.105v-1.123a.4.4,0,0,0-.343-.45.376.376,0,0,0-.106,0h-3.539a3.91,3.91,0,0,1-3.908-3.908v-9.838a3.911,3.911,0,0,1,3.908-3.908h13.7q.09,0,.09-.045a.135.135,0,0,0-.045-.09,2.96,2.96,0,0,1-1.976-1.752,3.6,3.6,0,0,1-.27-1.347,3.162,3.162,0,0,1,.315-1.348l1.078-2.695a3.966,3.966,0,0,1,1.8-2.156,3.52,3.52,0,0,1,1.8-.495,3.588,3.588,0,0,1,.944.135,2.573,2.573,0,0,1,1.842,1.572,2.684,2.684,0,0,1,.269,1.123,2.6,2.6,0,0,1-.359,1.3q-1.843,3.369-3.28,5.571a.148.148,0,0,0,0,.157.151.151,0,0,0,.135.067,2.208,2.208,0,0,1,1.617.674,2.254,2.254,0,0,1,.674,1.662v11.41a3.91,3.91,0,0,1-3.908,3.908h-3.594a.4.4,0,0,0-.449.344.376.376,0,0,0,0,.106v1.123a.4.4,0,0,0,.344.449.461.461,0,0,0,.105,0h5.8a2.92,2.92,0,1,1,0,5.84ZM351.693,695.6a2.9,2.9,0,0,1,.179.988,2.844,2.844,0,0,1-.359,1.348,3.034,3.034,0,0,1-1.842,1.527,2.3,2.3,0,0,1-.853.18,2.587,2.587,0,0,1-1.3-.359,3.062,3.062,0,0,1-1.438-1.8,20.3,20.3,0,0,0-.808-2.246,3.148,3.148,0,0,1-.18-.989,2.479,2.479,0,0,1,.27-1.123,2.284,2.284,0,0,1,1.482-1.347,3.176,3.176,0,0,1,2.336.09,3.066,3.066,0,0,1,1.617,1.594Q351.288,694.565,351.693,695.6Zm-.045,9.973a.4.4,0,0,0-.449.344.369.369,0,0,0,0,.105v.853a.4.4,0,0,0,.343.45.376.376,0,0,0,.106,0h2.021a.4.4,0,0,0,.449-.344.376.376,0,0,0,0-.106v-.853a.4.4,0,0,0-.344-.449.369.369,0,0,0-.105,0Zm0,6.244a.4.4,0,0,0-.449.344.369.369,0,0,0,0,.105v.854a.4.4,0,0,0,.344.449.369.369,0,0,0,.105,0h2.021a.4.4,0,0,0,.449-.344.369.369,0,0,0,0-.105v-.854a.4.4,0,0,0-.344-.449.369.369,0,0,0-.105,0ZM358.7,692.5q.36,1.079.674,2.112a2.513,2.513,0,0,1-.314,2.246,3.067,3.067,0,0,1-2.606,1.482,2.738,2.738,0,0,1-1.437-.4,2.915,2.915,0,0,1-1.3-1.842q-.27-1.122-.584-2.246a2.533,2.533,0,0,1-.135-.809,2.585,2.585,0,0,1,.36-1.3,2.49,2.49,0,0,1,1.662-1.213,3.124,3.124,0,0,1,.764-.09,3.292,3.292,0,0,1,1.482.359,2.892,2.892,0,0,1,1.437,1.707Zm3.235,14.825a.4.4,0,0,0,.449-.344.376.376,0,0,0,0-.106v-.853a.4.4,0,0,0-.344-.449.369.369,0,0,0-.105,0h-1.8a.4.4,0,0,0-.449.344.369.369,0,0,0,0,.105v.853a.4.4,0,0,0,.343.45.376.376,0,0,0,.106,0Zm0,6.244a.4.4,0,0,0,.449-.344.369.369,0,0,0,0-.105v-.854a.4.4,0,0,0-.344-.449.369.369,0,0,0-.105,0h-1.8a.4.4,0,0,0-.449.344.369.369,0,0,0,0,.105v.854a.4.4,0,0,0,.344.449.369.369,0,0,0,.105,0Zm20.8-5.84c-.061,0-.1.038-.113.112a.127.127,0,0,0,.068.157l1.168.629a4.478,4.478,0,0,1,2.381,3.954,4.265,4.265,0,0,1-.36,1.662,44.659,44.659,0,0,1-4.627,8.265.8.8,0,0,0-.135.764q.81,2.067,1.528,2.111.629,0,.943-2.56a1.325,1.325,0,0,1,.944-1.168,1.837,1.837,0,0,1,.584-.09,1.5,1.5,0,0,1,.943.359,5.466,5.466,0,0,1,1.662,2.2,3.658,3.658,0,0,1,.359,1.573,3.79,3.79,0,0,1-.134.988,12.109,12.109,0,0,1-2.426,5.256,3.906,3.906,0,0,1-2.785,1.392H382.6q-3.684-.133-5.975-4.627a.332.332,0,0,0-.247-.2.409.409,0,0,0-.292.068,34.681,34.681,0,0,1-4,3.369,3.583,3.583,0,0,1-2.021.629,4.378,4.378,0,0,1-.584-.045,4.56,4.56,0,0,1-2.471-1.258,2.264,2.264,0,0,1-.764-1.707.827.827,0,0,1,.045-.27,2.2,2.2,0,0,1,1.078-1.752,29.954,29.954,0,0,0,6.649-5.48.857.857,0,0,0,.18-.764,93.027,93.027,0,0,1-1.662-12q-.045-.358-.359-.314a2.077,2.077,0,0,1-.4.045,2.967,2.967,0,0,1-2.92-2.651l-.045-.134v-.4a3.153,3.153,0,0,1,.674-1.931,3.191,3.191,0,0,1,2.111-1.168h.135a.367.367,0,0,0,.36-.374v-.026q-.36-6.423-.359-9.164a3.082,3.082,0,0,1,5.278-2.134,3.2,3.2,0,0,1,.966,2.224q.043,3.819.269,8.266,0,.448.45.4l5.7-.719h.4a3.139,3.139,0,0,1,3.01,2.741v.359a3.133,3.133,0,0,1-2.74,3.1Zm-3.19,6.424a40.747,40.747,0,0,0,2.561-5.975.252.252,0,0,0-.045-.247.281.281,0,0,0-.225-.112l-2.74.359a.428.428,0,0,0-.4.452.3.3,0,0,0,0,.042q.224,2.472.584,5.391c0,.09.037.142.112.157a.128.128,0,0,0,.157-.067Zm5.615-21.338q.81,1.393,1.393,2.6a3.18,3.18,0,0,1,.314,1.348,3.4,3.4,0,0,1-.179,1.078,3.332,3.332,0,0,1-1.662,1.842,2.437,2.437,0,0,1-1.17.312,2.878,2.878,0,0,1-.989-.179,2.907,2.907,0,0,1-1.572-1.528q-.584-1.392-1.3-2.83a2.577,2.577,0,0,1-.359-1.3,2.533,2.533,0,0,1,.135-.809,2.583,2.583,0,0,1,1.347-1.662,3.272,3.272,0,0,1,1.393-.315,4.375,4.375,0,0,1,.854.09,2.918,2.918,0,0,1,1.8,1.348Zm9.973,31.939a4.768,4.768,0,0,1,1.55-3.616,5.9,5.9,0,0,1,7.771,0,4.768,4.768,0,0,1,1.55,3.616,4.679,4.679,0,0,1-1.55,3.617,6.041,6.041,0,0,1-7.771,0,4.681,4.681,0,0,1-1.551-3.619Zm2.2-10.6-1.477-11.683-.135-3.728a3.5,3.5,0,0,1,1.033-2.763,3.637,3.637,0,0,1,2.7-1.146h2.291a3.638,3.638,0,0,1,2.695,1.146,3.5,3.5,0,0,1,1.033,2.763l-.135,3.728-1.482,11.68a3.339,3.339,0,0,1-1.1,2.044,3.212,3.212,0,0,1-4.312,0,3.34,3.34,0,0,1-1.111-2.044Zm20.8,10.6a4.768,4.768,0,0,1,1.55-3.616,5.9,5.9,0,0,1,7.771,0,4.768,4.768,0,0,1,1.55,3.616,4.679,4.679,0,0,1-1.55,3.617,6.041,6.041,0,0,1-7.771,0,4.681,4.681,0,0,1-1.551-3.619Zm2.2-10.6-1.477-11.683-.135-3.728a3.5,3.5,0,0,1,1.033-2.763,3.637,3.637,0,0,1,2.7-1.146h2.291a3.638,3.638,0,0,1,2.695,1.146,3.5,3.5,0,0,1,1.033,2.763l-.135,3.728-1.482,11.68a3.339,3.339,0,0,1-1.1,2.044,3.212,3.212,0,0,1-4.312,0,3.34,3.34,0,0,1-1.111-2.044Z"/><path class="cls-14" d="M1195.734,253.474h294.014c33.183,0,53.093,0,66.366,5.541a68.887,68.887,0,0,1,41.173,41.172c5.541,13.273,5.541,33.183,5.541,66.367V660.191c0,33.183,0,53.093-5.541,66.367a68.892,68.892,0,0,1-41.173,41.172c-13.273,5.541-33.183,5.541-66.366,5.541H1195.734c-33.184,0-53.094,0-66.367-5.541a68.888,68.888,0,0,1-41.172-41.172c-5.542-13.274-5.542-33.184-5.542-66.367V366.554c0-33.184,0-53.094,5.542-66.367a68.883,68.883,0,0,1,41.172-41.172C1142.64,253.474,1162.55,253.474,1195.734,253.474Z"/><path class="cls-13" d="M1166.8,717.655a3.3,3.3,0,0,1-.989,2.425,3.236,3.236,0,0,1-2.38.989h-1.887a1.533,1.533,0,0,1-1.527-1.528.159.159,0,0,0-.136-.179.162.162,0,0,0-.044,0h-4.358a.158.158,0,0,0-.179.134.17.17,0,0,0,0,.045,1.533,1.533,0,0,1-1.528,1.528h-1.841a3.376,3.376,0,0,1-3.414-3.338V707.682a.4.4,0,0,0-.344-.449.376.376,0,0,0-.106,0h-4.043a.4.4,0,0,0-.449.344.461.461,0,0,0,0,.105v16.4a.4.4,0,0,0,.344.449.369.369,0,0,0,.105,0h24.618a3.212,3.212,0,0,1,0,6.424h-24.8a.238.238,0,0,0-.27.2.258.258,0,0,0,0,.068,2.259,2.259,0,0,1-.719,1.685,2.371,2.371,0,0,1-1.707.7h-1.033a3.453,3.453,0,0,1-3.459-3.445V707.682a.4.4,0,0,0-.344-.449.369.369,0,0,0-.105,0h-2.785a3.067,3.067,0,0,1-2.246-.944,3.253,3.253,0,0,1,0-4.582,3.07,3.07,0,0,1,2.246-.943h2.785a.4.4,0,0,0,.449-.344.369.369,0,0,0,0-.1v-5.481a3.459,3.459,0,0,1,6.918-.021v5.5a.4.4,0,0,0,.344.449.369.369,0,0,0,.105,0h4.043a.4.4,0,0,0,.45-.343.376.376,0,0,0,0-.106V693.8a3.392,3.392,0,0,1,6.783,0v6.514a.4.4,0,0,0,.344.449.369.369,0,0,0,.105,0h3.818a.4.4,0,0,0,.45-.343.376.376,0,0,0,0-.106V694.2a3.392,3.392,0,0,1,6.783,0v6.11a.4.4,0,0,0,.344.449.369.369,0,0,0,.105,0h3.055a3.068,3.068,0,0,1,2.246.943,3.253,3.253,0,0,1,0,4.582,3.067,3.067,0,0,1-2.246.944h-3.049a.4.4,0,0,0-.449.344.369.369,0,0,0,0,.105Zm-11.5-4.942a.4.4,0,0,0,.344.449.369.369,0,0,0,.105,0h3.818a.4.4,0,0,0,.45-.343.376.376,0,0,0,0-.106v-5.031a.4.4,0,0,0-.344-.449.376.376,0,0,0-.106,0h-3.815a.4.4,0,0,0-.449.344.369.369,0,0,0,0,.105Zm59.566-4.761a3.911,3.911,0,0,1-3.908,3.908h-2.2c-.061,0-.1.038-.113.112a.128.128,0,0,0,.068.157,28.526,28.526,0,0,0,7.681,3.953,2.184,2.184,0,0,1,1.483,1.573,2.949,2.949,0,0,1,.09.718,2.392,2.392,0,0,1-.494,1.438,5.314,5.314,0,0,1-2.516,1.8,3.839,3.839,0,0,1-1.3.224,3.946,3.946,0,0,1-1.617-.359,26.3,26.3,0,0,1-3.144-1.707.292.292,0,0,0-.248.022.221.221,0,0,0-.112.2v9.927a3.349,3.349,0,0,1-1.033,2.494,3.526,3.526,0,0,1-4.941,0,3.344,3.344,0,0,1-1.034-2.494V720.26a3.067,3.067,0,0,1,.944-2.246,3.118,3.118,0,0,1,2.291-.943c.029,0,.059-.038.09-.113s.029-.127,0-.157a29.666,29.666,0,0,1-4.358-4.582.856.856,0,0,0-.719-.359h-3.548a.855.855,0,0,0-.719.359,31.923,31.923,0,0,1-4.313,4.447c-.06.031-.075.083-.045.158s.075.112.135.112a3.336,3.336,0,0,1,2.448,1.011,3.282,3.282,0,0,1,1.011,2.4q0,8.266-7.5,12.219a4.379,4.379,0,0,1-1.707.359,3.955,3.955,0,0,1-1.168-.18,5.139,5.139,0,0,1-2.471-1.707,2.212,2.212,0,0,1-.583-1.482,3.465,3.465,0,0,1,.044-.584,2.326,2.326,0,0,1,1.348-1.707q5.166-2.514,5.166-7.277v-.36a.217.217,0,0,0-.135-.2.247.247,0,0,0-.224-.022,34.023,34.023,0,0,1-3.864,2.156,4.04,4.04,0,0,1-1.662.359,3.922,3.922,0,0,1-1.168-.179,4.621,4.621,0,0,1-2.47-1.663,2.313,2.313,0,0,1-.539-1.482,2.455,2.455,0,0,1,1.527-2.246,32.194,32.194,0,0,0,7.637-4.223c.059-.029.074-.082.045-.157a.146.146,0,0,0-.135-.112h-1.842a3.91,3.91,0,0,1-3.908-3.908V695.418a3.911,3.911,0,0,1,3.908-3.908h25.92a3.911,3.911,0,0,1,3.908,3.908Zm-26.594-11.1a.4.4,0,0,0-.449.344.369.369,0,0,0,0,.105v1.438a.4.4,0,0,0,.344.449.369.369,0,0,0,.105,0h5.7a.4.4,0,0,0,.45-.343.376.376,0,0,0,0-.106V697.3a.4.4,0,0,0-.344-.449.376.376,0,0,0-.106,0Zm0,7.277a.4.4,0,0,0-.449.344.369.369,0,0,0,0,.105v1.483a.4.4,0,0,0,.344.449.369.369,0,0,0,.105,0h5.7a.4.4,0,0,0,.45-.343.376.376,0,0,0,0-.106v-1.483a.4.4,0,0,0-.344-.449.376.376,0,0,0-.106,0Zm19.137-4.941a.4.4,0,0,0,.449-.344.369.369,0,0,0,0-.105V697.3a.4.4,0,0,0-.344-.449.461.461,0,0,0-.105,0h-5.75a.4.4,0,0,0-.449.344.369.369,0,0,0,0,.105v1.438a.4.4,0,0,0,.344.449.369.369,0,0,0,.105,0Zm-6.2,6.873a.4.4,0,0,0,.344.449.369.369,0,0,0,.105,0h5.75a.4.4,0,0,0,.449-.344.369.369,0,0,0,0-.105v-1.483a.4.4,0,0,0-.344-.449.461.461,0,0,0-.105,0h-5.75a.4.4,0,0,0-.449.344.369.369,0,0,0,0,.105Zm23-1.572q.313-3.909.719-6.514.629-2.874,3.953-2.7,2.874.045,2.695,3.234-.315,2.112-.629,6t-.359,8.153q.043,4.539.359,8.423t.629,6q.179,3.19-2.695,3.235-3.326.178-3.953-2.7-.4-2.6-.719-6.513-.315-3.864-.359-8.266V712.8q.043-4.447.359-8.31Zm9.389,16.351a14.784,14.784,0,0,1,1.033-5.435,2.967,2.967,0,0,1,3.594-1.977q2.874.853,1.976,3.234a9.137,9.137,0,0,0-.314,2.291,3.32,3.32,0,0,0,.314,1.618,2.751,2.751,0,0,0,1.46,1.257,8.694,8.694,0,0,0,3.257.539q3.414,0,4.807-.134,3.234-.448,3.414,3.054-.091,3.415-2.875,3.774a54.605,54.605,0,0,1-5.8.4q-5.256-.135-8-2.583a8.217,8.217,0,0,1-2.875-6.042Zm15-23.269q3.414,0,3.415,3.414,0,3.459-3.415,3.459H1238.36q-3.414,0-3.414-3.414,0-3.459,3.414-3.459Zm40.339,29.019h3.144a1.2,1.2,0,0,0,1.191-.808,13.039,13.039,0,0,0,.516-3.37,1.867,1.867,0,0,1,1.034-1.662,2.478,2.478,0,0,1,1.123-.269,2.783,2.783,0,0,1,.943.179,5.427,5.427,0,0,1,2.246,1.842,3.864,3.864,0,0,1,.629,2.112,3.24,3.24,0,0,1-.045.539q-.63,4.357-2.179,6.019a6.245,6.245,0,0,1-4.784,1.662h-4.986q-4.311,0-5.818-1.774t-1.5-6.491v-12.4a.4.4,0,0,0-.344-.449.376.376,0,0,0-.106,0h-5.076a.445.445,0,0,0-.491.393.525.525,0,0,0,0,.056q-.27,2.74-.629,4.829a28.524,28.524,0,0,1-1.145,4.38,18.6,18.6,0,0,1-1.932,4.066,19.017,19.017,0,0,1-2.987,3.5,20.936,20.936,0,0,1-4.313,3.077,3.657,3.657,0,0,1-1.572.359,3.377,3.377,0,0,1-1.078-.18,4.527,4.527,0,0,1-2.246-1.662,2.564,2.564,0,0,1-.539-1.572,3.565,3.565,0,0,1,.045-.584,2.618,2.618,0,0,1,1.3-1.8,14.774,14.774,0,0,0,3.257-2.268,13.612,13.612,0,0,0,2.179-2.539,11.72,11.72,0,0,0,1.325-2.964,23.216,23.216,0,0,0,.741-3.167q.225-1.459.4-3.482a.461.461,0,0,0-.45-.449h-6.064a3.22,3.22,0,0,1-3.234-3.206v-.028a3.2,3.2,0,0,1,.943-2.314,3.084,3.084,0,0,1,2.291-.966H1295.9a3.082,3.082,0,0,1,2.291.966,3.256,3.256,0,0,1-2.263,5.548h-8.069a.4.4,0,0,0-.449.344.461.461,0,0,0,0,.105v12.354a3.62,3.62,0,0,0,.247,1.707q.254.377,1.287.371Zm2.56-33.646a3.212,3.212,0,1,1,.115,6.423c-.038,0-.077,0-.115,0H1265a3.212,3.212,0,0,1-.115-6.423H1291.5Zm21.7,10.422a31.306,31.306,0,0,1-3.145,4.132.15.15,0,0,0-.022.2.189.189,0,0,0,.157.113h24.392a3.911,3.911,0,0,1,3.909,3.908q0,15.319,2.605,15.318.54-.043.719-3.009a1.222,1.222,0,0,1,2.111-.764,5.986,5.986,0,0,1,1.977,4.178,4.365,4.365,0,0,1-.09.853,8.032,8.032,0,0,1-1.685,4.111,4.52,4.52,0,0,1-3.481,1.28,6.851,6.851,0,0,1-3.1-.674,6.022,6.022,0,0,1-2.268-2,15.079,15.079,0,0,1-1.6-3.01,20.1,20.1,0,0,1-1.078-4.043q-.4-2.358-.607-4.739t-.292-5.391a.4.4,0,0,0-.344-.449.461.461,0,0,0-.105,0h-8a.073.073,0,0,0-.067.045c-.016.03.007.06.067.09l2.111.674a3.1,3.1,0,0,1,1.977,1.886,2.781,2.781,0,0,1,.225,1.079,3.084,3.084,0,0,1-.494,1.617q-.99,1.482-2.067,2.83a.369.369,0,0,0,.09.629q2.065,1.392,3.594,2.605a3.028,3.028,0,0,1,1.168,2.471,3.355,3.355,0,0,1-1.078,2.516,3.633,3.633,0,0,1-2.606,1.033,4.115,4.115,0,0,1-2.74-1.033q-1.348-1.168-3.145-2.516a.545.545,0,0,0-.718,0,49.6,49.6,0,0,1-7.727,5.57,4.162,4.162,0,0,1-2.021.539,3.086,3.086,0,0,1-.9-.135,5,5,0,0,1-2.605-1.482,2.3,2.3,0,0,1-.674-1.617,2.558,2.558,0,0,1,.045-.494,2.313,2.313,0,0,1,1.347-1.752,39.472,39.472,0,0,0,7.053-4.447.3.3,0,0,0,.135-.27.289.289,0,0,0-.18-.27q-2.021-1.257-3.908-2.38a2.355,2.355,0,0,1-1.168-1.842.989.989,0,0,1-.045-.315,2.269,2.269,0,0,1,.764-1.707,4.5,4.5,0,0,1,2.56-1.168,4.4,4.4,0,0,1,.584-.045,4.609,4.609,0,0,1,2.157.539q1.887,1.079,3.818,2.2a.5.5,0,0,0,.674-.09,35.522,35.522,0,0,0,2.785-4.358.253.253,0,0,0-.225-.4h-10.634a3.6,3.6,0,0,1-3.594-3.594.775.775,0,0,0-.314-.673q-.9-.719-2.291-1.708a2.769,2.769,0,0,1-1.258-2.2.821.821,0,0,1-.045-.269,3.093,3.093,0,0,1,.9-2.2,28.82,28.82,0,0,0,5.8-9.659,4.389,4.389,0,0,1,1.842-2.246,3.855,3.855,0,0,1,1.932-.539,4.365,4.365,0,0,1,.853.09l.809.18a2.449,2.449,0,0,1,1.662,1.213,2.216,2.216,0,0,1,.359,1.168,2.085,2.085,0,0,1-.179.853.2.2,0,0,0,.022.2.221.221,0,0,0,.2.113h23.315a2.686,2.686,0,0,1,2.74,2.629v.088a2.7,2.7,0,0,1-.786,1.954,2.612,2.612,0,0,1-1.954.809h-25.606a.644.644,0,0,0-.629.359l-.314.629c-.061.061-.061.135,0,.225a.262.262,0,0,0,.224.135h22.362a2.553,2.553,0,0,1,1.865.786,2.657,2.657,0,0,1,.015,3.758l-.015.015a2.544,2.544,0,0,1-1.865.786H1316.3a2.811,2.811,0,0,1-2.066-.853,2.76,2.76,0,0,1-.854-2.022c0-.029-.022-.051-.067-.067a.1.1,0,0,0-.112.023Zm36.162-2.022q0-3.1,3.1-3.1h6.559l.584-1.572q.808-2.919,4.537-2.066,2.651,1.212,1.662,3.638h7.143q3.1,0,3.1,3.1t-3.1,3.1H1362.84a5.577,5.577,0,0,1-.539,1.123q-.538.988-.943,1.841c.029-.029.2-.157.517-.381a2.764,2.764,0,0,1,.786-.427q3.009-1.122,4.694-.045a5.378,5.378,0,0,1,2.269,3.369q2.514-1.347,5.121-2.426,3.278-1.392,4.492,1.618.9,3.549-2.156,4.492a50.129,50.129,0,0,0-7.053,2.785v3.234q0,3.056-3.055,3.055-3.1,0-3.1-3.055v-.179q-.046.045-.427.292a6.847,6.847,0,0,1-.652.381q-1.932,1.619-1.617,3.01t3.28,1.483q3.142-.045,9.029-.764,3.412-.538,3.594,3.234.179,3.414-2.875,3.774a82.171,82.171,0,0,1-10.153.449,10.733,10.733,0,0,1-5.817-1.707,7.206,7.206,0,0,1-2.965-4.021,7.557,7.557,0,0,1,.472-5.166,12.56,12.56,0,0,1,4.4-5.053q.943-.628,1.864-1.213t1.865-1.168a1.567,1.567,0,0,0-.4-1.123,1.749,1.749,0,0,0-1.347-.18,7.885,7.885,0,0,0-2.134,1.056,25.735,25.735,0,0,0-2.673,2.021q-1.394,1.191-3.414,3.167-1.887,1.617-4.133-.179-1.394-2.47,0-4.043a21.165,21.165,0,0,0,2.965-3.145q1.347-1.752,2.83-4.043.313-.539.651-1.258c.225-.478.352-.748.382-.808h-4.133q-3.1,0-3.1-3.1Zm43.98.584a.4.4,0,0,0-.449.344.369.369,0,0,0,0,.1v4.4q0,15.049-3.638,23.628a2.361,2.361,0,0,1-1.842,1.483,2.918,2.918,0,0,1-2.471-.494,3.72,3.72,0,0,1-1.572-2.112,4.191,4.191,0,0,1,.09-2.7,34.208,34.208,0,0,0,2.2-9.1,99.569,99.569,0,0,0,.539-10.713v-7.368a3.911,3.911,0,0,1,3.908-3.908h11.725a.4.4,0,0,0,.449-.344.369.369,0,0,0,0-.105V693.4a3.5,3.5,0,1,1,7.008,0v1.662a.4.4,0,0,0,.344.449.369.369,0,0,0,.105,0h12.488a3.212,3.212,0,0,1,0,6.424h0Zm25.561,14.2a87.141,87.141,0,0,1,6.289,10.916,3.439,3.439,0,0,1,.045,2.965,3.832,3.832,0,0,1-2.111,2.156l-.135.045a3.386,3.386,0,0,1-2.65,0,3.605,3.605,0,0,1-1.887-1.931.533.533,0,0,0-.584-.36q-11.546.988-22.416,1.707h-.27a3.532,3.532,0,0,1-3.459-3.189v-.359a3.058,3.058,0,0,1,.809-2.112,3.123,3.123,0,0,1,2.336-1.123c.539-.029,1.018-.045,1.437-.045a.563.563,0,0,0,.584-.449,117.172,117.172,0,0,0,4.582-16.891,3.794,3.794,0,0,1,1.618-2.47,3.672,3.672,0,0,1,2.111-.674,6.946,6.946,0,0,1,.764.045l.044.045a3.44,3.44,0,0,1,2.426,1.617,3.633,3.633,0,0,1,.584,1.932,3.708,3.708,0,0,1-.135.988q-2.112,7.951-4.716,15.094a.289.289,0,0,0,.045.269.3.3,0,0,0,.269.135q3.952-.178,10.512-.494a.306.306,0,0,0,.224-.449q-1.3-2.38-2.695-4.627a2.99,2.99,0,0,1-.449-1.528,3.12,3.12,0,0,1,.135-.9,2.7,2.7,0,0,1,1.572-1.8,4.551,4.551,0,0,1,1.662-.315,3.988,3.988,0,0,1,1.168.18,4.074,4.074,0,0,1,2.291,1.617Zm13.207-11.634q.313-3.909.719-6.514.629-2.874,3.953-2.7,2.874.045,2.7,3.234-.315,2.112-.629,6t-.359,7.974q.043,4.358.359,8.243t.629,6q.18,3.19-2.7,3.234-3.325.18-3.953-2.7-.4-2.606-.719-6.514-.315-3.862-.359-8.086v-.045q.043-4.266.359-8.13Zm12.623,4.267q-3.414,0-3.414-3.459,0-3.412,3.414-3.414h5.8V697.62q0-3.37,3.369-3.37t3.369,3.37v4.267h1.662q3.414,0,3.414,3.414,0,3.46-3.414,3.459h-1.662V715a35.539,35.539,0,0,1-1.213,9.164,18.554,18.554,0,0,1-2.56,5.616q-2.022,2.6-4.492,1.437-2.56-1.3-1.258-4.133a26.687,26.687,0,0,0,1.976-5.48,29.085,29.085,0,0,0,.809-6.694v-6.15Zm14.33-13.027a1.351,1.351,0,0,1,1.528-1.528,1.37,1.37,0,0,1,1.572,1.528v3.414a1.35,1.35,0,0,1-1.528,1.527,1.369,1.369,0,0,1-1.566-1.14,1.393,1.393,0,0,1-.006-.387Zm4.852,0a1.35,1.35,0,0,1,1.527-1.528,1.372,1.372,0,0,1,1.567,1.143,1.342,1.342,0,0,1,.005.385v3.414a1.35,1.35,0,0,1-1.527,1.527,1.369,1.369,0,0,1-1.566-1.14,1.393,1.393,0,0,1-.006-.387Zm24.124,28.75a7.785,7.785,0,0,1-1.033,4.312,5.432,5.432,0,0,1-2.92,2.2,12.243,12.243,0,0,1-3.908.629,12.757,12.757,0,0,1-5.009-1.055,9.245,9.245,0,0,1-3.976-3.1,8.538,8.538,0,0,1-1.527-5.009,9,9,0,0,1,1.572-5.233,9.11,9.11,0,0,1,4.313-3.19,15.448,15.448,0,0,1,5.75-1.01V697.35q0-3.369,3.369-3.369t3.369,3.369v3.5h6.828q3.414,0,3.414,3.414,0,3.459-3.414,3.459h-6.828v6.109a32.464,32.464,0,0,1,4.627,2.224,46.826,46.826,0,0,1,4.717,3.122q1.977,1.752.359,4.492-2.019,2.112-4.133.36a66.626,66.626,0,0,0-5.57-3.729Zm-7.547.763c.27,0,.479-.179.629-.539a4.5,4.5,0,0,0,.18-1.752v-3.908q-2.649-.269-3.819.741a3.172,3.172,0,0,0-1.167,2.494,2.683,2.683,0,0,0,1.257,2.313,4.566,4.566,0,0,0,2.922.655Zm22.6-13.431a3.338,3.338,0,0,1,2.156-3.953,26.847,26.847,0,0,1,5.121-1.64,31.662,31.662,0,0,1,6.783-.786,20.983,20.983,0,0,1,6.761,1.056,9.671,9.671,0,0,1,4.919,3.571,10.041,10.041,0,0,1,1.842,5.84,14.537,14.537,0,0,1-2.471,8.018q-2.382,3.528-7.749,5.3a31.28,31.28,0,0,1-9.726,1.774q-2.785,0-2.785-3.189.045-3.144,2.965-3.324a21.614,21.614,0,0,0,6.985-1.213q3.572-1.213,4.807-3.122a7.137,7.137,0,0,0,1.1-4.38,3.507,3.507,0,0,0-1.326-2.9q-1.324-1.055-5.323-1.1a22.467,22.467,0,0,0-4.582.606q-2.426.563-6.064,1.6-2.472,1.034-3.414-2.156Zm3.414-12.938q.088-2.919,2.695-3.144,4.447-.18,7.277-.09,2.875.09,7.547.494a3.436,3.436,0,0,1,3.33,3.537c0,.034,0,.068,0,.1q-.092,3.324-3.325,2.7-4.672-.538-7.547-.629-4.446,0-5.75.045a8.549,8.549,0,0,0-1.347.09q-2.876.09-2.875-3.1Zm33.241,25.875a4.772,4.772,0,0,1,1.549-3.616,5.9,5.9,0,0,1,7.772,0,4.768,4.768,0,0,1,1.55,3.616,4.679,4.679,0,0,1-1.55,3.617,6.043,6.043,0,0,1-7.772,0,4.678,4.678,0,0,1-1.55-3.613Zm2.2-10.6-1.483-11.68-.134-3.728a3.5,3.5,0,0,1,1.033-2.763,3.638,3.638,0,0,1,2.695-1.146h2.291a3.642,3.642,0,0,1,2.7,1.146,3.509,3.509,0,0,1,1.034,2.763l-.135,3.728-1.483,11.68a3.344,3.344,0,0,1-1.1,2.044,3.214,3.214,0,0,1-4.313,0,3.333,3.333,0,0,1-1.105-2.041Z"/><path class="cls-13" d="M1247.862,326.705a68.279,68.279,0,0,1-10.327,17.1,92.741,92.741,0,0,1-13.843,13.14q-6.417,4.482-9.843-.352-2.814-6.5,1.406-9.843a81.961,81.961,0,0,0,8.086-6.373,61.029,61.029,0,0,0,8.745-10.019,77.718,77.718,0,0,0,8.393-15.6H1220.44q-6.679,0-6.679-6.679,0-6.768,6.679-6.768h27.422V297.18q0-6.855,6.856-6.855t6.855,6.855v4.131h3.34q6.678,0,6.68,6.68,0,6.768-6.68,6.767h-3.34V358.17q0,6.856-6.855,6.856t-6.856-6.856Zm54.671-24.433v-5.713q0-5.887,5.889-5.889t5.888,5.889v5.713h7.471q15.115.089,15.117,16a51.208,51.208,0,0,1-3.515,17.842,38.229,38.229,0,0,1-8.438,13.535,52.164,52.164,0,0,1-10.635,8.174,54.224,54.224,0,0,1-12.568,5.1q-5.889,1.758-8.438-3.164-2.109-7.031,3.868-8.789,10.37-3.428,15.644-7.822a26.613,26.613,0,0,0,7.822-10.855,27.756,27.756,0,0,0,2.286-11.469q0-5.45-4.571-5.362h-18.545q-5.273,0-5.273,5.274V333.3q0,6.769-6.768,6.768T1281,333.3V318.092q0-15.82,15.82-15.82Zm45.875.088q0-6.857,6.855-6.856h40.693q6.855,0,6.855,6.856,0,6.943-6.855,6.943h-12.92v36.738H1397.8q6.857,0,6.856,6.856,0,6.944-6.856,6.943H1353.68q-6.855,0-6.855-6.855,0-6.942,6.855-6.944h15.029V309.3h-13.447q-6.855,0-6.855-6.855Zm64.424-.879q0-6.855,6.855-6.856H1434.8q6.856,0,6.856,6.856t-6.856,6.855h-15.117Q1412.832,308.336,1412.832,301.481Zm52.119,8.349q5.887,2.726,3.867,8.438-2.373,8.174-9.185,17.8a70.3,70.3,0,0,1-14.765,15.644q-7.956,6.021-23.511,9.449-6.064,1.14-7.734-5.625-.88-6.942,5.625-8.086,11.337-1.933,17.929-7.12a63.748,63.748,0,0,0,11.734-12.084,49.866,49.866,0,0,0,7.6-14.546q2.2-5.361,8.438-3.868Z"/><g class="cls-15"><path class="cls-16" d="M1300.435,533.09a54.835,54.835,0,1,0,63.515,44.492l0-.013a54.829,54.829,0,0,0-63.513-44.479m15.864,90a36.558,36.558,0,1,1,29.655-42.351A36.557,36.557,0,0,1,1316.3,623.09"/><path class="cls-17" d="M1182.577,507.683l.029.184c-8.655,3.563-13.034,19.885-9.761,38.439s12.967,32.4,22.316,32.772l.036.191,270.972,26.2L1428.261,390.5Z"/><path class="cls-18" d="M1432.805,389.109c24.852-4.379,53.518,40.422,64.047,100.061,10.509,59.663-1.105,111.561-25.964,115.948s-53.518-40.421-64.047-100.072c-10.509-59.649,1.108-111.559,25.964-115.937"/></g><path class="cls-19" d="M47.968,200.588V106.535H62.106a61.855,61.855,0,0,1,15.045,1.455,22.592,22.592,0,0,1,9.565,4.934,25.655,25.655,0,0,1,6.275,8.955,27.119,27.119,0,0,1,2.362,10.964,22.22,22.22,0,0,1-7.735,17.118,22.727,22.727,0,0,1,11.816,8.953,26.507,26.507,0,0,1-3.405,33.394,25.58,25.58,0,0,1-10.538,6.519,61.27,61.27,0,0,1-16.01,1.767ZM62.16,146.921h4.448q7.917,0,11.6-3.5A13.578,13.578,0,0,0,81.9,133.094a12.946,12.946,0,0,0-3.782-10.082,15.752,15.752,0,0,0-10.963-3.441H62.162Zm0,40.337h8.773q9.624,0,14.138-3.778a13.058,13.058,0,0,0,4.751-10.355,13.26,13.26,0,0,0-4.574-10.233q-4.448-4.08-15.9-4.082H62.16Z"/><path class="cls-19" d="M173.147,174.15H130.629a18.029,18.029,0,0,0,4.751,11.644,14.488,14.488,0,0,0,10.783,4.265,14.021,14.021,0,0,0,8.468-2.437,34.614,34.614,0,0,0,7.485-9.014l11.573,6.458a46.016,46.016,0,0,1-5.666,7.826,30.155,30.155,0,0,1-6.4,5.363,25.684,25.684,0,0,1-7.371,3.075,35.959,35.959,0,0,1-8.585.961,27.918,27.918,0,0,1-21.318-8.525q-8.044-8.589-8.043-22.782,0-14.069,7.8-22.782a26.882,26.882,0,0,1,20.834-8.589q13.1,0,20.711,8.346,7.55,8.281,7.552,22.956Zm-14.07-11.209q-2.867-10.967-13.823-10.969a14.135,14.135,0,0,0-4.689.761,13.362,13.362,0,0,0-3.99,2.193,13.854,13.854,0,0,0-3.077,3.441,15.962,15.962,0,0,0-1.948,4.574Z"/><path class="cls-19" d="M206.834,189.562l-26.683-48.307h15.9L214.2,175.369l16.943-34.114h15.472l-47.284,91.621H183.686Z"/><path class="cls-19" d="M253.128,170.5a29.491,29.491,0,0,1,9.206-21.873,32.447,32.447,0,0,1,44.955.062,31.764,31.764,0,0,1-.056,44.66,31.441,31.441,0,0,1-22.726,8.94,30.148,30.148,0,0,1-22.356-9.148A30.726,30.726,0,0,1,253.128,170.5Zm14.009.244a20.008,20.008,0,0,0,4.753,14.072,18.467,18.467,0,0,0,25.706.06,19.517,19.517,0,0,0,4.811-13.827,19.524,19.524,0,0,0-4.811-13.829,18.241,18.241,0,0,0-25.575,0,19.07,19.07,0,0,0-4.884,13.519Z"/><path class="cls-19" d="M330.915,141.255h13.767v5.483a22.465,22.465,0,0,1,16.2-7.127,20.457,20.457,0,0,1,16.143,6.518q4.99,5.543,4.99,18.089v36.37H368.251V167.449q0-8.771-2.436-12.122-2.373-3.411-8.65-3.412-6.822,0-9.685,4.508-2.809,4.447-2.809,15.532v28.631H330.905Z"/><path class="cls-19" d="M443.059,97.7h13.767V200.588H443.059v-6.215a25.577,25.577,0,0,1-18.336,7.92,26.1,26.1,0,0,1-20.223-8.9,33.066,33.066,0,0,1-7.98-22.664,31.971,31.971,0,0,1,7.98-22.172,25.623,25.623,0,0,1,38.559-.416ZM410.53,170.738a20.675,20.675,0,0,0,4.574,13.89,14.956,14.956,0,0,0,11.817,5.42,15.727,15.727,0,0,0,12.3-5.237,22.547,22.547,0,0,0,0-27.535,15.505,15.505,0,0,0-12.182-5.3,15.15,15.15,0,0,0-11.818,5.36A19.751,19.751,0,0,0,410.53,170.738Z"/><path class="cls-19" d="M584.745,111.591V128.4q-12.3-10.3-25.462-10.3a32.418,32.418,0,0,0-24.426,10.415,35.137,35.137,0,0,0-9.981,25.341,34.275,34.275,0,0,0,9.981,24.976A32.994,32.994,0,0,0,559.346,189a30.089,30.089,0,0,0,12.731-2.436,36.708,36.708,0,0,0,6.06-3.29,71.215,71.215,0,0,0,6.608-4.99V195.4a51.241,51.241,0,0,1-25.574,6.884,47.191,47.191,0,0,1-34.417-14.072,46.65,46.65,0,0,1-14.193-34.234,48.3,48.3,0,0,1,11.883-32.032,47.292,47.292,0,0,1,37.825-17.243A48,48,0,0,1,584.745,111.591Z"/><path class="cls-19" d="M597.965,153.134a46.06,46.06,0,0,1,14.554-34.112,47.923,47.923,0,0,1,34.848-14.249,49.186,49.186,0,0,1,48.913,48.914,46.244,46.244,0,0,1-14.5,34.417,49.692,49.692,0,0,1-67.857,1.582Q597.962,175.738,597.965,153.134Zm14.315.183a33.991,33.991,0,0,0,10.477,25.645,35.283,35.283,0,1,0-.361-50.621A33.931,33.931,0,0,0,612.28,153.317Z"/><path class="cls-19" d="M718.879,106.535l26.02,65.189,26.374-65.179h15.534L744.6,207.663,703.345,106.535Z"/><path class="cls-19" d="M812.681,106.535v94.053H798.488V106.535Z"/><path class="cls-19" d="M835.286,200.588V106.535h19.738a71.823,71.823,0,0,1,22.416,2.813,41.976,41.976,0,0,1,16.02,9.319q14.554,13.284,14.555,34.9,0,21.689-15.178,35.087a44.268,44.268,0,0,1-15.961,9.321,72.631,72.631,0,0,1-22.112,2.62Zm14.2-13.341h6.395a53.407,53.407,0,0,0,15.9-2.01A32.282,32.282,0,0,0,893.7,153.56a32.673,32.673,0,0,0-10.354-25.1q-9.324-8.589-27.473-8.589h-6.393Z"/><path class="cls-19" d="M914.6,164.47h27.167V176.4H914.6Z"/><path class="cls-19" d="M975.572,119.814H959.309l7.8-13.279h22.663v94.053H975.577Z"/><path class="cls-19" d="M1046.781,203.815l-10.417-7.735,22.479-30.641q-1.829.243-3.106.366c-.853.083-1.543.122-2.08.122a26.436,26.436,0,0,1-19.738-8.712,29.034,29.034,0,0,1-8.275-20.838,31.512,31.512,0,0,1,31.365-31.433,31.193,31.193,0,0,1,22.356,9.148,28.7,28.7,0,0,1,9.5,21.441q0,10.967-9.259,23.7Zm-7.31-68.467a17.381,17.381,0,0,0,5.179,12.792,17.79,17.79,0,0,0,25.188-25.13l-.029-.029a17.8,17.8,0,0,0-25.1,0,16.906,16.906,0,0,0-5.241,12.367Z"/><path class="cls-19" d="M1215.029,111.591V128.4q-12.3-10.3-25.464-10.3a32.425,32.425,0,0,0-24.437,10.421,35.119,35.119,0,0,0-9.98,25.342,34.281,34.281,0,0,0,9.98,24.975,32.985,32.985,0,0,0,24.5,10.163,30.019,30.019,0,0,0,12.731-2.436,36.6,36.6,0,0,0,6.061-3.29,71.376,71.376,0,0,0,6.61-4.99V195.4a51.237,51.237,0,0,1-25.593,6.876,47.2,47.2,0,0,1-34.415-14.072,46.648,46.648,0,0,1-14.195-34.234,48.3,48.3,0,0,1,11.878-32.041,47.3,47.3,0,0,1,37.83-17.239A48.025,48.025,0,0,1,1215.029,111.591Z"/><path class="cls-19" d="M1227.5,170.5a29.492,29.492,0,0,1,9.2-21.869,32.446,32.446,0,0,1,44.954.063,31.767,31.767,0,0,1-.06,44.649,31.438,31.438,0,0,1-22.728,8.94,30.148,30.148,0,0,1-22.356-9.148A30.729,30.729,0,0,1,1227.5,170.5Zm14.01.244a20,20,0,0,0,4.751,14.072,18.467,18.467,0,0,0,25.7.06,19.5,19.5,0,0,0,4.814-13.831,19.505,19.505,0,0,0-4.812-13.829,18.244,18.244,0,0,0-25.574,0,19.066,19.066,0,0,0-4.88,13.515Z"/><path class="cls-19" d="M1305.3,141.255h13.766v5.483a22.469,22.469,0,0,1,16.2-7.127,20.457,20.457,0,0,1,16.143,6.518q4.989,5.543,4.99,18.089v36.37h-13.766V167.449q0-8.771-2.437-12.122-2.378-3.411-8.65-3.412-6.819,0-9.685,4.508-2.8,4.447-2.8,15.534v28.631H1305.3Z"/><path class="cls-19" d="M1387.841,154.051v46.537h-13.7V154.051h-5.848v-12.8h5.848V119.509h13.7v21.746h10.66v12.8Z"/><path class="cls-19" d="M1461.852,174.15h-42.518a18.009,18.009,0,0,0,4.751,11.644,14.486,14.486,0,0,0,10.783,4.265,14.025,14.025,0,0,0,8.467-2.437,34.626,34.626,0,0,0,7.485-9.016l11.575,6.458a46.016,46.016,0,0,1-5.666,7.826,30.16,30.16,0,0,1-6.4,5.363,25.666,25.666,0,0,1-7.37,3.075,36.007,36.007,0,0,1-8.59.975,27.92,27.92,0,0,1-21.32-8.516q-8.04-8.59-8.04-22.782,0-14.07,7.8-22.782a26.883,26.883,0,0,1,20.834-8.59q13.1,0,20.711,8.346,7.551,8.285,7.551,22.965Zm-14.072-11.209q-2.863-10.967-13.831-10.969a14.141,14.141,0,0,0-4.69.761,13.429,13.429,0,0,0-3.99,2.193,13.87,13.87,0,0,0-3.076,3.441,16.023,16.023,0,0,0-1.95,4.574Z"/><path class="cls-19" d="M1511.317,151.371l-11.33,6.029q-2.682-5.482-6.639-5.483a4.574,4.574,0,0,0-3.229,1.248,4.172,4.172,0,0,0-1.343,3.2q0,3.411,7.92,6.761,10.9,4.69,14.679,8.65a14.807,14.807,0,0,1,3.778,10.66,18.678,18.678,0,0,1-6.336,14.376,21.568,21.568,0,0,1-14.864,5.483q-14.922,0-21.137-14.555l11.695-5.423a25.422,25.422,0,0,0,3.726,5.423,8.457,8.457,0,0,0,5.97,2.314q6.942,0,6.944-6.335,0-3.656-5.362-6.822-2.079-1.04-4.142-2.011t-4.2-2.01a25.74,25.74,0,0,1-8.406-5.847,14.416,14.416,0,0,1-3.106-9.564,16.937,16.937,0,0,1,5.3-12.792,18.6,18.6,0,0,1,13.16-5.056Q1505.771,139.61,1511.317,151.371Z"/><path class="cls-19" d="M1541.59,154.051v46.537h-13.706V154.051h-5.849v-12.8h5.849V119.509h13.706v21.746h10.666v12.8Z"/><path class="cls-19" d="M461.051,47.768v-4.9h20.016v-3.95l6.654.549c.22,0,1.32.056,1.32.551,0,.274-.274.494-.605.659-.385.276-.551.44-.551.661v1.541h19.753v4.886Zm39.114,39.388H497.2L494.72,81.6c.44,0,2.145.11,2.8.11,1.707,0,2.092-.11,2.092-1.815V67.518h-30.7V86.439h-6.161V63.116h43.075V82.7C505.833,85.231,503.687,87.156,500.165,87.156ZM471.008,60.925V49.968h26.573V60.925Zm8.473,19.807v2.025h-5.556V69.938H495.16V80.721Zm11.993-26.793h-14.3V57.02h14.3Zm-1.925,19.7H479.481V76.6h10.068Z"/><path class="cls-19" d="M530.582,68.177a40.482,40.482,0,0,1-2.971-3.412V86.607h-5.722V70.6a38.606,38.606,0,0,1-3.577,6.107l-4.782-2.751A40.315,40.315,0,0,0,521.5,54.479h-5.822V49.142H521.9V39.3l5.391.385c.441.056,1.267.11,1.267.551,0,.22-.057.384-.387.659-.329.22-.549.441-.549.6v7.641h6.05v5.337h-6.05A21.917,21.917,0,0,0,534.387,64Zm30.036,18.046a34.25,34.25,0,0,1-12.764-9.409,44.59,44.59,0,0,1-13.532,9.409l-4.237-4.3a40.63,40.63,0,0,0,14.469-9.519,70.24,70.24,0,0,1-4.9-9.242,12.047,12.047,0,0,1-1.1,1.595l-5.171-2.144A43.521,43.521,0,0,0,539.878,50.4l4.512,1.815c.438.164,1.1.5,1.1.88,0,.276-.441.441-.605.495-.551.22-.605.274-.716.494a52.862,52.862,0,0,1-3.412,7.209l3.412-1.871A43.659,43.659,0,0,0,548.02,67.9a31.636,31.636,0,0,0,3.8-9.519l3.63.771a40.753,40.753,0,0,0-5.666-6.162l4.574-3.08a68.448,68.448,0,0,1,9.627,11.278l-5.337,3.079a34.929,34.929,0,0,0-1.871-3.3,37.623,37.623,0,0,1-5.336,11.553,30.078,30.078,0,0,0,13.478,8.8ZM534.651,49.629V44.248h10.618V39.02l5.558.221c.832.054,1.264.164,1.264.659,0,.22-.11.331-.33.5-.716.551-.832.607-.832.832v3.021H563.2v5.389Z"/><path class="cls-19" d="M570.842,85.121V79.675h20.584V69.223H578.874V63.5h12.543V54.644H579.643a73.332,73.332,0,0,1-5.061,8.362L568.7,59.871a37.8,37.8,0,0,0,5.173-7.373,49.742,49.742,0,0,0,4.676-12.322l5.774,1.595c1.156.329,1.43.549,1.43.88,0,.274-.164.495-.659.715a1.888,1.888,0,0,0-1.156,1.1,45.611,45.611,0,0,1-1.651,4.622h9.134V39.351l6.654.329c.882.056,1.32.276,1.32.831,0,.277-.164.5-.605.77-.659.386-.831.661-.831,1.039v6.768H615.4v5.556h-17.44V63.5h12.231v5.722H597.973V79.675h19.861v5.446Z"/><path class="cls-19" d="M666.778,74.394a26.562,26.562,0,0,1-12.818,9.681L649.9,78.409a18.513,18.513,0,0,0,9.9-5.886,17.208,17.208,0,0,0,3.963-10.947,12.973,12.973,0,0,0-3.963-9.627,14.061,14.061,0,0,0-9.357-3.686,78.076,78.076,0,0,1-6.82,24.48c-1.651,3.41-4.181,8.032-7.042,8.032-1.981,0-11-4.95-11-14.8A23.728,23.728,0,0,1,649.7,42.648l.134,0c11.435,0,20.465,7.757,20.465,20.025A20.546,20.546,0,0,1,666.778,74.394Zm-29.6-21.181a18.014,18.014,0,0,0-5.5,12.213c0,4.456,2.531,6.768,3.52,6.768,2.861,0,7.594-14.359,8.694-22.942A16.247,16.247,0,0,0,637.181,53.213Z"/><path class="cls-19" d="M706.87,80.17V78.245H678.1V72.194H706.87V53.049H678.214V46.942h35.209V80.17Z"/><path class="cls-19" d="M757.1,81.717V79.345H732.066V81.49H725.52V45.512h38.125V81.717Zm0-29.982H732.066V73.128H757.1Z"/><path class="cls-19" d="M801.374,58.55c-1.6,14.634-5.72,20.585-17.605,27.56l-5.614-5.445c10.507-5.061,14.8-9.737,16.449-22.115H774.633V52.169h20.412a80.961,80.961,0,0,0-.5-12.267l7.373.882c.769.108,1.649.274,1.649.831,0,.273-1.321,1.264-1.541,1.595-.108.164-.108.439-.108,2.7,0,.11-.056,3.412-.11,6.273h16.612v6.381Z"/><path class="cls-19" d="M870.849,80.28a58.316,58.316,0,0,1-11-13.918V86.056h-6.271V66.142A51.079,51.079,0,0,1,842.846,81l-5.72-3.412V86h-6V62.3a21.787,21.787,0,0,1-2.144,2.805l-5.5-2.969a59.877,59.877,0,0,0,11.773-22.776l6.108,1.816c.275.054,1.156.44,1.156.879a.607.607,0,0,1-.44.551c-1.1.329-1.267.385-1.431.832a63.9,63.9,0,0,1-3.025,6.468c.832.549,1.04.713,1.04,1.21,0,.385-.551.77-.716.88-.108.054-.831.551-.831.989V76.65A42.606,42.606,0,0,0,851.46,55.964h-11.5V50.3h13.588V39.185l5.445.274c.387,0,1.815-.054,1.815.661,0,.441-.548.832-.989,1.321V50.3h13.7v5.666H861.033a56.315,56.315,0,0,0,14.91,19.861Z"/><path class="cls-19" d="M922.442,75.384c-2.911-2.256-4.453-3.3-5.722-4.125a30.655,30.655,0,0,1-10.891,13.7l-5.445-3.8a26.6,26.6,0,0,0,10.945-12.929,34.025,34.025,0,0,0-11-3.079c-5.448,11.662-7.812,15.178-12.654,15.178-3.743,0-6.217-3.027-6.217-7.1a13.682,13.682,0,0,1,6.491-10.893A14.864,14.864,0,0,1,896.7,59.7a127.146,127.146,0,0,0,4.457-11.937,38.431,38.431,0,0,1-10.013,1.7l-2.474-5.557c8.47.056,14.97-1.04,17.933-2.969l3.63,3.63a22.393,22.393,0,0,0-2.859,4.676c-.056.22-3.961,9.078-4.732,10.783a35.394,35.394,0,0,1,10.618,2.53,46.886,46.886,0,0,0,1.431-10.067l6.161,1.705c.549.166,1.32.44,1.32.935,0,.277-.054.331-.832.716-.438.274-.438.384-.605,1.156a66.488,66.488,0,0,1-1.871,8.2c3.025,1.7,4.732,2.751,7.1,4.291Zm-35.263-3.41c0,1.43.715,1.484,1.1,1.484a2.51,2.51,0,0,0,2.312-1.32,62.552,62.552,0,0,0,3.63-6.822C889.489,66.8,887.179,69.938,887.179,71.974Z"/><path class="cls-19" d="M974.256,74.394a26.547,26.547,0,0,1-12.818,9.681l-4.071-5.666a18.515,18.515,0,0,0,9.9-5.886,17.214,17.214,0,0,0,3.951-10.947,12.976,12.976,0,0,0-3.951-9.627,14.061,14.061,0,0,0-9.356-3.686,78.159,78.159,0,0,1-6.822,24.48c-1.651,3.41-4.181,8.032-7.04,8.032-1.984,0-11-4.95-11-14.8a23.726,23.726,0,0,1,24.116-23.329l.151,0c11.436,0,20.464,7.757,20.464,20.025A20.564,20.564,0,0,1,974.256,74.394ZM944.663,53.213a18.02,18.02,0,0,0-5.5,12.213c0,4.456,2.533,6.768,3.52,6.768,2.861,0,7.594-14.359,8.694-22.942A16.216,16.216,0,0,0,944.663,53.213Z"/><path class="cls-19" d="M1014.356,80.17V78.245H985.584V72.194h28.772V53.049H985.692V46.942H1020.9V80.17Z"/><path class="cls-19" d="M1039.984,54.533a49.8,49.8,0,0,0-11.277-6.932l3.351-5.171a51.381,51.381,0,0,1,11.55,6.822ZM1056.1,69.5a73.9,73.9,0,0,1-20.74,12.267c-.274.772-.384,1.7-.831,1.7-.331,0-.832-.328-1.21-1.04l-3.851-6.6a51.506,51.506,0,0,0,20.409-9.519A76.694,76.694,0,0,0,1066,49.475l3.8,5.5A77.348,77.348,0,0,1,1056.1,69.5Z"/><path class="cls-19" d="M1098.955,61.52a28.262,28.262,0,0,1-3.466,14.248A25.665,25.665,0,0,1,1083.276,86l-5.392-4.512c11-3.96,14.413-9.242,14.688-19.96H1074.09V55.854h41.532V61.52Zm-17.386-13.642V41.936H1108.2v5.942Z"/><path class="cls-19" d="M1158.693,82.316a86.675,86.675,0,0,0-13.424-13.754A53.075,53.075,0,0,1,1126.455,82.7l-4.841-5a48.829,48.829,0,0,0,17.549-11.885,44,44,0,0,0,9.356-15.018h-20.964V44.412h23.7a5.218,5.218,0,0,0,2.858-1.21l4.238,4.676a7.621,7.621,0,0,0-2.971,3.3A66.473,66.473,0,0,1,1149,63.5a110.02,110.02,0,0,1,14.577,13.588Z"/><path class="cls-19" d="M1196.757,71.643a56,56,0,0,0-16.174-11V84.405h-6.492V40.836l6.6,1.156c.164.054,1.32.22,1.32.879,0,.331-1.43,1.21-1.43,1.485V58.825l2.586-4.071a49.1,49.1,0,0,1,9.357,5.007,67.671,67.671,0,0,1,8.583,6.6Z"/></svg>