<svg id="レイヤー_1" data-name="レイヤー 1" xmlns="http://www.w3.org/2000/svg" viewBox="0 0 100.644 41.009"><defs><style>.cls-1{fill:#fff;}.cls-2{fill:#f2aa00;}.cls-3{fill:#f2ac00;}</style></defs><path class="cls-1" d="M91.468,5.344V27.649c-.334.063-.7.135-1.062.2-.241.042-.482.061-.6.337a.33.33,0,0,1-.238.125c-.259.027-.526,0-.78.047-1.287.241-2.569.5-3.855.747-.331.063-.706.033-.76.416a4.184,4.184,0,0,0-.678.006c-.492.088-.978.215-1.469.311a.5.5,0,0,0-.414.336,7.509,7.509,0,0,1-.429.89.517.517,0,0,1-.3.234c-.406.088-.818.14-1.228.207l-7.937,1.316-7.529,1.24L56.63,35.31q-3.764.623-7.529,1.242-3.574.59-7.15,1.181c-.42.07-.468.152-.419.641l1.483-.18q2.489-.3,4.979-.6c1.67-.2,3.34-.411,5.01-.613s3.319-.4,4.979-.6c1.839-.224,3.678-.454,5.517-.677s3.679-.439,5.519-.663c2.018-.245,4.036-.5,6.055-.744q2.822-.345,5.645-.685a4.337,4.337,0,0,1,1.076-.087,10.765,10.765,0,0,1,1.634.393.97.97,0,0,0,1.115-.268.5.5,0,0,1,.548-.129c.758.171,1.52.323,2.284.466a.5.5,0,0,0,.375-.072A2.732,2.732,0,0,1,90,33.276c.094.012.193-.009.287,0a3.084,3.084,0,0,0,2.223-.574,1.337,1.337,0,0,1,.713-.2c1.919-.012,3.839,0,5.758,0a1.321,1.321,0,0,0,.547-.124c1.126-.535,2.236-1.1,3.369-1.618a1.7,1.7,0,0,0,.7-.617c.272-.392.488-.822.731-1.243l-.945-1.32h2.648V23.171H95.861V18.549h8.772V14.128h-8.77v-4.4h9.48V5.344Z" transform="translate(-5.39 -4.64)"/><path class="cls-1" d="M54.083,27.567h4.4V14.258L74.7,28.263V5.344H70.309V18.653L54.083,4.64Z" transform="translate(-5.39 -4.64)"/><path class="cls-1" d="M22.769,20.4a6.976,6.976,0,0,1-9.461,2.137,7.1,7.1,0,1,1,8.6-11.165l3.087-3.086A11.485,11.485,0,0,0,6.627,21.563a11.355,11.355,0,0,0,14.2,5.714,11.278,11.278,0,0,0,7.562-11.255H18.808V20.4Z" transform="translate(-5.39 -4.64)"/><path class="cls-1" d="M33.654,27.561H48.247V23.166H38.07V18.541h8.783V14.126H38.065v-4.4h9.484V5.352H33.654Z" transform="translate(-5.39 -4.64)"/><path class="cls-1" d="M80.789,5.344V27.57H85.38V5.344Z" transform="translate(-5.39 -4.64)"/><path d="M91.468,5.344h13.875V9.732h-9.48v4.4h8.77v4.421H95.861v4.622h10.173v4.412h-2.648l.945,1.32c-.243.421-.459.851-.731,1.243a1.7,1.7,0,0,1-.7.617c-1.133.517-2.243,1.083-3.369,1.618a1.321,1.321,0,0,1-.547.124c-1.919.006-3.839-.008-5.758,0a1.337,1.337,0,0,0-.713.2,3.084,3.084,0,0,1-2.223.574c-.094-.012-.193.009-.287,0a2.732,2.732,0,0,0-2.251.638.5.5,0,0,1-.375.072c-.764-.143-1.526-.295-2.284-.466a.5.5,0,0,0-.548.129.97.97,0,0,1-1.115.268,10.765,10.765,0,0,0-1.634-.393,4.337,4.337,0,0,0-1.076.087q-2.823.339-5.645.685c-2.019.247-4.037.5-6.055.744-1.84.224-3.68.44-5.519.663s-3.678.453-5.517.677c-1.66.2-3.32.4-4.979.6s-3.34.41-5.01.613-3.32.4-4.979.6l-1.483.18c-.049-.489,0-.571.419-.641q3.575-.594,7.15-1.181,3.765-.621,7.529-1.242l7.56-1.251,7.529-1.24L79.656,31.5c.41-.067.822-.119,1.228-.207a.517.517,0,0,0,.3-.234,7.509,7.509,0,0,0,.429-.89.5.5,0,0,1,.414-.336c.491-.1.977-.223,1.469-.311a4.184,4.184,0,0,1,.678-.006c.054-.383.429-.353.76-.416,1.286-.246,2.568-.506,3.855-.747.254-.047.521-.02.78-.047a.33.33,0,0,0,.238-.125c.118-.276.359-.3.6-.337.365-.063.728-.135,1.062-.2Z" transform="translate(-5.39 -4.64)"/><path class="cls-2" d="M11.954,32.733l2.823-.7c.674-.167,1.346-.344,2.024-.492a.466.466,0,0,0,.4-.414c.394-1.609.8-3.214,1.217-4.85a.51.51,0,0,1,.117.268c.383,1.531.772,3.061,1.146,4.594a.478.478,0,0,0,.405.405c1.622.388,3.24.792,4.9,1.2a.781.781,0,0,1-.41.156c-1.478.366-2.956.734-4.438,1.087a.541.541,0,0,0-.468.464c-.367,1.523-.758,3.041-1.14,4.561a.382.382,0,0,1-.116.246c-.409-1.625-.821-3.24-1.218-4.86a.448.448,0,0,0-.38-.388c-1.5-.359-3-.735-4.5-1.107-.119-.029-.237-.063-.355-.094Z" transform="translate(-5.39 -4.64)"/><path class="cls-3" d="M33.025,41.552c1.035-.28,1.962-.543,2.9-.777a.628.628,0,0,0,.524-.516c.237-.933.506-1.857.765-2.794.144.089.123.241.157.359q.361,1.258.7,2.525a.47.47,0,0,0,.385.389c.976.25,1.945.529,3.006.822l-1.389.384c-.53.147-1.055.307-1.589.433a.485.485,0,0,0-.416.4c-.237.9-.494,1.792-.742,2.687-.018.064-.02.135-.112.187-.258-.929-.525-1.848-.762-2.774a.62.62,0,0,0-.513-.52c-.794-.2-1.579-.424-2.368-.64C33.416,41.674,33.269,41.625,33.025,41.552Z" transform="translate(-5.39 -4.64)"/><path class="cls-3" d="M28.853,33.072l1.57-.436c.453-.125.905-.256,1.362-.37a.364.364,0,0,0,.3-.306c.262-.972.54-1.94.813-2.912.127.026.106.135.127.211.244.862.493,1.723.72,2.589a.546.546,0,0,0,.445.455c.9.228,1.8.486,2.692.733.049.013.095.034.23.084-.839.233-1.579.5-2.341.631a1.266,1.266,0,0,0-1.189,1.171,13.056,13.056,0,0,1-.682,2.255c-.231-.823-.5-1.637-.678-2.47a.977.977,0,0,0-.862-.881c-.734-.147-1.45-.384-2.173-.584-.113-.031-.222-.071-.333-.107Z" transform="translate(-5.39 -4.64)"/><path d="M54.083,27.567V4.64L70.309,18.653V5.344H74.7V28.263L58.485,14.258V27.567Z" transform="translate(-5.39 -4.64)"/><path class="cls-2" d="M22.769,20.4H18.808V16.022h9.577a11.278,11.278,0,0,1-7.562,11.255,11.355,11.355,0,0,1-14.2-5.714A11.485,11.485,0,0,1,24.993,8.289l-3.087,3.086a7.1,7.1,0,1,0-8.6,11.165A6.976,6.976,0,0,0,22.769,20.4Z" transform="translate(-5.39 -4.64)"/><path d="M33.654,27.561V5.352H47.549V9.728H38.065v4.4h8.788v4.415H38.07v4.625H48.247v4.395Z" transform="translate(-5.39 -4.64)"/><path d="M80.789,5.344H85.38V27.57H80.789Z" transform="translate(-5.39 -4.64)"/></svg>