<svg id="レイヤー_1" data-name="レイヤー 1" xmlns="http://www.w3.org/2000/svg" xmlns:xlink="http://www.w3.org/1999/xlink" viewBox="0 0 499.87 500"><defs><style>.cls-1{fill:none;}.cls-2{fill:#00a5ff;}.cls-3{clip-path:url(#clip-path);}.cls-4{clip-path:url(#clip-path-2);}.cls-5{fill:#eee;}.cls-6{fill:#ccd6dd;}.cls-7{fill:#292f33;}.cls-8{fill:#fff;}</style><clipPath id="clip-path"><rect class="cls-1" x="107.89" y="117.38" width="284.44" height="280.64"/></clipPath><clipPath id="clip-path-2"><rect class="cls-1" x="107.89" y="117.38" width="284.44" height="280.64"/></clipPath></defs><path class="cls-2" d="M108.8,0H391.41c31.9,0,51,0,63.79,5.33a66.23,66.23,0,0,1,39.58,39.6c5.33,12.77,5.33,31.92,5.33,63.84V391.23c0,31.92,0,51.07-5.33,63.84a66.23,66.23,0,0,1-39.58,39.6C442.45,500,423.31,500,391.41,500H108.8c-31.9,0-51,0-63.79-5.33a66.28,66.28,0,0,1-39.58-39.6C.11,442.3.11,423.15.11,391.23V108.77c0-31.92,0-51.07,5.32-63.84A66.28,66.28,0,0,1,45,5.33C57.77,0,76.9,0,108.8,0Z"/><g class="cls-3"><g class="cls-4"><path class="cls-5" d="M392.33,322.65c0,78.6-63.66,75.35-142.22,75.35s-142.22,3.25-142.22-75.35c0-67,66.92-159.07,108.75-192.56,23-16.74,42.91-17.17,66.93,0C342.13,172,392.33,280.79,392.33,322.65"/><path class="cls-6" d="M327.56,353.14a8.47,8.47,0,0,1-9.57-14l14-9.57a8.46,8.46,0,0,1,9.55,14ZM348,293.74a8.37,8.37,0,0,1,6.32-15.5l15.49,6.32a8.37,8.37,0,1,1-6.31,15.5Zm-37.59-44a8.46,8.46,0,0,1,6.36-15.68l15.69,6.4A8.47,8.47,0,0,1,326,256.13ZM134.67,308.34a8.47,8.47,0,0,1,6.38-15.69L156.72,299a8.47,8.47,0,0,1-6.38,15.69Zm29.75-51.48a8.47,8.47,0,0,1-9.57-14l14-9.58a8.46,8.46,0,0,1,9.56,14ZM240,288.16a12.56,12.56,0,0,1,9.47-23.26l23.24,9.5a12.55,12.55,0,1,1-9.47,23.24Zm-51.73,50.67a8.46,8.46,0,1,1,6,15.82l-15.83,6a8.47,8.47,0,0,1-6-15.84Z"/><path class="cls-7" d="M300.3,280.79H199.91a16.74,16.74,0,0,0-16.73,16.74v98.89c19.94,1.88,42.72,1.58,66.93,1.58s47,.3,66.92-1.58V297.53a16.74,16.74,0,0,0-16.73-16.74"/></g></g><path class="cls-8" d="M66.21,450.48a3.65,3.65,0,0,1-1.08,2.65,3.58,3.58,0,0,1-2.68,1.11h-2a.07.07,0,0,0-.07.06s0,.07.07.07q4,1.42,7.77,2.93a1.49,1.49,0,0,1,1,1.52,1.51,1.51,0,0,1-1,1.47l-.22.08a7.65,7.65,0,0,1-3.15.69,8.44,8.44,0,0,1-3.62-.86Q58.74,459,56,458a1.77,1.77,0,0,1-1.2-1.55v-.26a1.7,1.7,0,0,1,.86-1.51l.26-.18s0-.07,0-.13a.11.11,0,0,0-.11-.08H45.35a.11.11,0,0,0-.11.08c0,.06,0,.09.07.09l.13,0a1.92,1.92,0,0,1,1.16,1.86,1.62,1.62,0,0,1-1,1.56,56.64,56.64,0,0,1-8,3.24,4.89,4.89,0,0,1-1.55.26,4.73,4.73,0,0,1-1.38-.22,5.69,5.69,0,0,1-2.55-1.51,1.57,1.57,0,0,1-.43-1.69A1.56,1.56,0,0,1,33,456.74a48.39,48.39,0,0,0,7.82-2.33.21.21,0,0,0,0-.11s0-.06-.09-.06H39a3.77,3.77,0,0,1-3.75-3.76V438.25A3.76,3.76,0,0,1,39,434.49H62.45a3.61,3.61,0,0,1,2.68,1.1,3.67,3.67,0,0,1,1.08,2.66Zm-1.38-29a3.76,3.76,0,0,1,3.75,3.76v4.06a3.77,3.77,0,0,1-3.75,3.76H36.67a3.77,3.77,0,0,1-3.75-3.76v-4.06a3.76,3.76,0,0,1,3.75-3.76Zm-22.2,6.87a.38.38,0,0,0,.43-.44v-1.29a.38.38,0,0,0-.43-.43H39.31a.38.38,0,0,0-.43.43V428a.38.38,0,0,0,.43.44Zm-.52,10.06a.39.39,0,0,0-.43.44v.6a.38.38,0,0,0,.43.43H59a.38.38,0,0,0,.43-.43v-.6a.38.38,0,0,0-.43-.44Zm0,5.15a.38.38,0,0,0-.43.43v.65a.38.38,0,0,0,.43.43H59a.38.38,0,0,0,.43-.43V444a.38.38,0,0,0-.43-.43Zm0,5.18a.39.39,0,0,0-.43.43v.7a.39.39,0,0,0,.43.43H59a.38.38,0,0,0,.43-.43v-.7a.38.38,0,0,0-.43-.43ZM52.17,428.4a.39.39,0,0,0,.44-.44v-1.29a.38.38,0,0,0-.44-.43H48.81a.38.38,0,0,0-.44.43V428a.39.39,0,0,0,.44.44Zm9.72,0a.38.38,0,0,0,.43-.44v-1.29a.38.38,0,0,0-.43-.43H58.35a.38.38,0,0,0-.43.43V428a.38.38,0,0,0,.43.44Zm12.39,9.46q-.6-2.89,1.6-3.67a29.41,29.41,0,0,1,5.33-1.65,32.37,32.37,0,0,1,6.37-.69,15.77,15.77,0,0,1,6.33,1.32A10,10,0,0,1,98.33,437a12.08,12.08,0,0,1,1.73,6.18q.3,7.69-4.84,11.37c-3.42,2.44-7.93,3.73-13.51,3.84-1.64,0-2.5-.91-2.59-2.72a2.33,2.33,0,0,1,2.59-2.68,17.8,17.8,0,0,0,6.43-1.12,8.11,8.11,0,0,0,6.09-8.6,5.16,5.16,0,0,0-1.6-3.91c-1.06-1-2.9-1.61-5.52-1.75A15,15,0,0,0,83,438c-1.34.31-3,.82-5,1.51-1.81.75-3,.21-3.67-1.6Zm55.79-12.1a3,3,0,0,1,3.19,2.68c.23,2-.31,3.24-1.64,3.76a27.53,27.53,0,0,0-5.33,2.53,20.24,20.24,0,0,0-5.05,4.15,11.9,11.9,0,0,0-2.7,4.6,6.5,6.5,0,0,0,.13,4.69,5.6,5.6,0,0,0,2.53,2.54,7.81,7.81,0,0,0,3,.89c1.15.06,2.64,0,4.49,0q3.1-.13,3.19,3.32-.09,3.63-3.19,3.59c-2,0-3.72,0-5-.13a17.48,17.48,0,0,1-4.23-.84,12.88,12.88,0,0,1-4.39-2.36,10.23,10.23,0,0,1-3-4.27,13.62,13.62,0,0,1-.58-6.62,15.93,15.93,0,0,1,1.66-5,18.61,18.61,0,0,1,2.59-3.74,26.86,26.86,0,0,1,2.4-2.36,7.33,7.33,0,0,1,1.08-.82H108.82c-2.18,0-3.28-1.09-3.28-3.28s1.1-3.33,3.28-3.33Zm17.66,5a.38.38,0,0,0-.43.44v4.49q0,14.57-3.41,23a2.38,2.38,0,0,1-1.77,1.47,2.74,2.74,0,0,1-.7.09,3,3,0,0,1-1.68-.52,3.94,3.94,0,0,1-1.55-2.08,4.17,4.17,0,0,1-.18-1.21,4,4,0,0,1,.26-1.38q2.59-6.62,2.59-19.4v-7.26a3.67,3.67,0,0,1,1.08-2.66,3.61,3.61,0,0,1,2.68-1.1H156a.38.38,0,0,0,.43-.43v-1.08a3.37,3.37,0,0,1,6.73,0v1.08a.38.38,0,0,0,.44.43h12a2.9,2.9,0,0,1,2.18.91,3,3,0,0,1,.89,2.16,3,3,0,0,1-3.07,3h-14a.1.1,0,0,0-.1.09.1.1,0,0,0,.06.13,60.34,60.34,0,0,1,6.39,3.59,2.43,2.43,0,0,1,1.21,2v.26a2.86,2.86,0,0,1-.82,2,3.27,3.27,0,0,1-2.38,1h-.21a3.91,3.91,0,0,1-2.33-.73q-2.08-1.51-4.75-3.07a2.77,2.77,0,0,1-1.43-2.07,2.82,2.82,0,0,1,0-.48,2.6,2.6,0,0,1,.82-1.9l.6-.6c.06,0,.08-.09,0-.18a.18.18,0,0,0-.18-.13Zm6.65,15.69a48.17,48.17,0,0,1-1.51,8.86,2.74,2.74,0,0,1-1.6,1.73,3.17,3.17,0,0,1-1.12.21,3.18,3.18,0,0,1-2.9-2,3.44,3.44,0,0,1-.3-1.38,3.9,3.9,0,0,1,.17-1.08,38.53,38.53,0,0,0,1.47-7.6,2.57,2.57,0,0,1,1.08-1.86,2.45,2.45,0,0,1,1.51-.52,3.69,3.69,0,0,1,.56,0,3.12,3.12,0,0,1,2,1.3,3,3,0,0,1,.69,1.94,1.39,1.39,0,0,1,0,.35Zm21.33-2.77a59.27,59.27,0,0,1,3.41,8.56,3.11,3.11,0,0,1,.17,1,3.56,3.56,0,0,1-.43,1.68,4.13,4.13,0,0,1-2.07,1.9,3.54,3.54,0,0,1-1.08.18,2.79,2.79,0,0,1-1.3-.35,2.75,2.75,0,0,1-1.46-1.9q-.31-1.17-.69-2.46a.16.16,0,0,0-.11,0c-.05,0-.07,0-.07.09q-.47,5-1.85,6.83a5.26,5.26,0,0,1-4.49,1.85h-4q-3.79,0-5.12-1.62c-.88-1.08-1.31-3-1.31-5.89V442.27a3,3,0,0,1,1-2.27,3.1,3.1,0,0,1,2.26-.93,3.18,3.18,0,0,1,3.18,3.2V453.5a3.73,3.73,0,0,0,.19,1.54c.13.21.44.32.93.32h2.33a.89.89,0,0,0,.86-.63,9.81,9.81,0,0,0,.44-2.48,2.15,2.15,0,0,1,1.16-1.86,2.48,2.48,0,0,1,1.25-.34,2.76,2.76,0,0,1,1,.21c.52.2,1,.38,1.51.52a.2.2,0,0,0,.26-.26c-.52-1.53-1.11-3-1.77-4.58a3.1,3.1,0,0,1-.26-1.21,2.71,2.71,0,0,1,.22-1.08,2.58,2.58,0,0,1,1.59-1.6,3.27,3.27,0,0,1,1.26-.26,3.48,3.48,0,0,1,1.21.22,3.18,3.18,0,0,1,1.81,1.68Zm16.62-3.19a2.6,2.6,0,0,1,.65-.09,2.53,2.53,0,0,1,1.43.43,2.4,2.4,0,0,1,1.12,1.82,2.71,2.71,0,0,1,0,.47,3.39,3.39,0,0,1-2.42,3.2l-.77.17a.55.55,0,0,0-.43.56v8.21a10.79,10.79,0,0,1-.44,3.42,3.89,3.89,0,0,1-1.51,2,8.06,8.06,0,0,1-3.37,1.08,2,2,0,0,1-.34,0,2.91,2.91,0,0,1-1.94-.74,4.08,4.08,0,0,1-1.39-2.2,2.42,2.42,0,0,1,0-1.36,2.06,2.06,0,0,1,.77-1.08,2.37,2.37,0,0,1,1.3-.45h.3a.71.71,0,0,0,.54-.16.76.76,0,0,0,.15-.54v-6.61a.34.34,0,0,0-.13-.28.26.26,0,0,0-.26-.06l-.51.13a2.46,2.46,0,0,1-2.25-.35,2.69,2.69,0,0,1-1.21-1.94,2.82,2.82,0,0,1,0-.48,3.27,3.27,0,0,1,.6-1.9,3.43,3.43,0,0,1,2.08-1.38c.43-.09.86-.19,1.29-.31a.47.47,0,0,0,.43-.51v-7.35a.38.38,0,0,0-.43-.43h-.78a2.83,2.83,0,0,1-2.07-.87,2.92,2.92,0,0,1,0-4.14,2.83,2.83,0,0,1,2.07-.87h.78a.38.38,0,0,0,.43-.43v-4.67a2.94,2.94,0,0,1,2.94-2.94,2.83,2.83,0,0,1,2.07.85,2.79,2.79,0,0,1,.87,2.09v4.71c0,.26.12.39.38.39h.22a2.94,2.94,0,0,1,0,5.88h-.22c-.26,0-.38.13-.38.39v6.05a.26.26,0,0,0,.1.21.26.26,0,0,0,.24.05Zm23.23,3.93a10.29,10.29,0,0,1,3.59.52,2,2,0,0,1,1.08,1,2,2,0,0,1,.21.86,2.49,2.49,0,0,1-.08.61,21.53,21.53,0,0,1-3.76,7,.36.36,0,0,0-.06.28.22.22,0,0,0,.19.2,30,30,0,0,0,4.15,1.16,1.87,1.87,0,0,1,1.38,1.21,2.57,2.57,0,0,1,.13.74,2,2,0,0,1-.39,1.12,4.78,4.78,0,0,1-2.16,1.77,3.84,3.84,0,0,1-1.56.35,4.53,4.53,0,0,1-1.07-.13,30.83,30.83,0,0,1-5.27-2.12.83.83,0,0,0-.78.05,25,25,0,0,1-3.71,1.77,4.38,4.38,0,0,1-1.43.26,3.91,3.91,0,0,1-1.6-.35,5.78,5.78,0,0,1-2.59-2l-.58-.67a.35.35,0,0,0-.58,0,19,19,0,0,1-1.82,1.77,2.64,2.64,0,0,1-1.68.61,4.55,4.55,0,0,1-.52,0,3.55,3.55,0,0,1-2.07-1.21,2.57,2.57,0,0,1-.73-1.82,2.64,2.64,0,0,1,1-2.12c3.14-2.7,5.19-6.54,6.17-11.49a.31.31,0,0,0-.06-.3.34.34,0,0,0-.28-.13h-1.95a2.4,2.4,0,0,1-1.81-.76,2.62,2.62,0,0,1,0-3.63,2.43,2.43,0,0,1,1.81-.75h2.6a.39.39,0,0,0,.43-.44l0-.34a.44.44,0,0,0-.11-.3.33.33,0,0,0-.28-.13h-1.94a2.38,2.38,0,0,1-1.73-.74,2.41,2.41,0,0,1-.73-1.77v-.35a2.12,2.12,0,0,1,2.11-2.11c.15,0,.2-.08.18-.22s-.12-.42-.18-.65a3.38,3.38,0,0,1-.17-1,3.32,3.32,0,0,1,.43-1.64,3.28,3.28,0,0,1,2.07-1.68s.05,0,.05-.07,0-.06-.05-.06c-.66,0-1.19,0-1.59,0h0a2.82,2.82,0,0,1-1.81-.65,3.18,3.18,0,0,1-1.12-1.73,1.69,1.69,0,0,1-.09-.56,1.71,1.71,0,0,1,.35-1,1.63,1.63,0,0,1,1.38-.78,152.31,152.31,0,0,0,17.1-1.47,6.74,6.74,0,0,1,.77,0,5.1,5.1,0,0,1,1.82.34,4.68,4.68,0,0,1,2.07,1.56,1.71,1.71,0,0,1,.35,1,2.16,2.16,0,0,1-.13.7,1.65,1.65,0,0,1-1.34,1.12c-.55.09-1.15.17-1.82.26a.07.07,0,0,0-.08.08c0,.06,0,.09,0,.09l.43.13a2.62,2.62,0,0,1,1.86,1.69,2.73,2.73,0,0,1,.22,1,2.48,2.48,0,0,1-.48,1.43c-.4.66-.79,1.27-1.16,1.81a.23.23,0,0,0,0,.2.16.16,0,0,0,.17.11H219a2.35,2.35,0,0,1,1.75.73,2.51,2.51,0,0,1,0,3.5A2.36,2.36,0,0,1,219,437H208.4a.43.43,0,0,0-.48.43v.34a.31.31,0,0,0,.09.33.44.44,0,0,0,.3.11h12a2.47,2.47,0,0,1,1.8.75,2.57,2.57,0,0,1,0,3.63,2.44,2.44,0,0,1-1.8.76h-12.6a.47.47,0,0,0-.52.43l-.09.22a.48.48,0,0,0,.11.3.33.33,0,0,0,.24.13Zm-11.48,8.81a18.81,18.81,0,0,1-2.12,3.37.13.13,0,0,0,0,.18.11.11,0,0,0,.15,0,29.62,29.62,0,0,0,4.15-1.3.34.34,0,0,0,.15-.23.27.27,0,0,0-.07-.24q-.76-.74-1.77-1.86a.21.21,0,0,0-.23-.11.36.36,0,0,0-.24.15Zm2.16-21.65c0-.26-.06-.54-.09-.86a3.28,3.28,0,0,1,0-.56,3.8,3.8,0,0,1,.73-2.25,3.46,3.46,0,0,1,2.38-1.55l.39-.05v0c-2.11.14-4.21.26-6.31.34a.26.26,0,0,0-.21.13.28.28,0,0,0-.05.26c.32.81.64,1.63,1,2.47a1.74,1.74,0,0,1,.13.64,2,2,0,0,1-1.38,1.86v0h3.11a.45.45,0,0,0,.3-.13.3.3,0,0,0,.09-.31Zm5.4,20.36a13.86,13.86,0,0,0,1.94-2.6.24.24,0,0,0,0-.26.25.25,0,0,0-.24-.13h-5.14a.22.22,0,0,0-.19.13.18.18,0,0,0,0,.22A16.49,16.49,0,0,0,211,452a.45.45,0,0,0,.65,0Zm-1.08-21.35a3,3,0,0,1-2,1.34.06.06,0,0,0,0,.09H212a.7.7,0,0,0,.65-.39,44.61,44.61,0,0,0,2.55-5.53.29.29,0,0,0-.07-.26.21.21,0,0,0-.24-.09l-4,.39a.29.29,0,0,0-.26.15.4.4,0,0,0,0,.32c.14.55.27,1.11.39,1.69a3.25,3.25,0,0,1,.08.69,2.74,2.74,0,0,1-.51,1.6Zm19.9,22.73a4.61,4.61,0,0,1,1.49-3.48,5.68,5.68,0,0,1,7.47,0,4.61,4.61,0,0,1,1.49,3.48,4.52,4.52,0,0,1-1.49,3.48,5.81,5.81,0,0,1-7.47,0A4.52,4.52,0,0,1,230.46,453.33Zm2.12-10.2-1.43-11.23-.13-3.59a3.38,3.38,0,0,1,1-2.66,3.51,3.51,0,0,1,2.59-1.1h2.2a3.51,3.51,0,0,1,2.59,1.1,3.37,3.37,0,0,1,1,2.66l-.13,3.59-1.42,11.23a3.26,3.26,0,0,1-1.06,2,3.08,3.08,0,0,1-4.14,0A3.16,3.16,0,0,1,232.58,443.13Zm17.27-9.89a46.72,46.72,0,0,0,6-10.2,3.65,3.65,0,0,1,1.77-1.86,3.51,3.51,0,0,1,1.51-.35,3.21,3.21,0,0,1,1,.18,3,3,0,0,1,1.85,1.6,2.77,2.77,0,0,1,.3,1.25A2.83,2.83,0,0,1,262,425q-1.21,2.85-2.68,5.57a1.91,1.91,0,0,0-.17.82v27.14a3.27,3.27,0,0,1-5.57,2.29,3.11,3.11,0,0,1-1-2.29V441.23a.11.11,0,0,0-.07-.11.14.14,0,0,0-.11,0,1.45,1.45,0,0,1-1.12.52h-.3a1.57,1.57,0,0,1-1.21-1c-.23-.46-.45-.92-.65-1.38a5.32,5.32,0,0,1-.6-2.46,4.45,4.45,0,0,1,0-.65,5.52,5.52,0,0,1,1.21-3Zm37.09-.18h-8.51a.39.39,0,0,0-.43.44v2.8a.39.39,0,0,0,.43.44h7.43a2.85,2.85,0,0,1,2.07.84,2.75,2.75,0,0,1,.87,2.05,3,3,0,0,1-2.94,2.94h-7.43a.38.38,0,0,0-.43.43v3.11a.39.39,0,0,0,.43.44h7.95a2.84,2.84,0,0,1,2.11.86,3,3,0,0,1-2.11,5.1h-7.95a.38.38,0,0,0-.43.43v5.57a3.33,3.33,0,0,1-5.68,2.36,3.24,3.24,0,0,1-1-2.36V433.45c0-.26-.13-.39-.41-.39a.69.69,0,0,0-.62.35,54.86,54.86,0,0,1-3.33,5.27,2.71,2.71,0,0,1-2.11,1.12h-.13a3,3,0,0,1-2.16-.86,3.21,3.21,0,0,1-1.08-2.29v-.26a3.39,3.39,0,0,1,.73-2.12,42.94,42.94,0,0,0,6-11.06,3.33,3.33,0,0,1,1.69-1.9,3.23,3.23,0,0,1,1.6-.43,2.9,2.9,0,0,1,.86.13,2.75,2.75,0,0,1,1.86,1.47,2.71,2.71,0,0,1,.34,1.29,2.76,2.76,0,0,1-.21,1c-.24.58-.47,1.15-.7,1.73a.24.24,0,0,0,0,.26.32.32,0,0,0,.26.13h13a2.9,2.9,0,0,1,2.14.9,3.1,3.1,0,0,1,0,4.33A2.9,2.9,0,0,1,286.94,433.06Zm5.57,4.8q-.6-2.89,1.6-3.67a29.41,29.41,0,0,1,5.33-1.65,32.29,32.29,0,0,1,6.37-.69,15.77,15.77,0,0,1,6.33,1.32,10,10,0,0,1,4.42,3.78,12.08,12.08,0,0,1,1.73,6.18q.3,7.69-4.84,11.37c-3.42,2.44-7.93,3.73-13.51,3.84-1.64,0-2.51-.91-2.59-2.72a2.33,2.33,0,0,1,2.59-2.68,17.8,17.8,0,0,0,6.43-1.12,8.13,8.13,0,0,0,6.09-8.6,5.16,5.16,0,0,0-1.6-3.91c-1.06-1-2.91-1.61-5.53-1.75a14.9,14.9,0,0,0-4.12.39c-1.34.31-3,.82-5,1.51-1.81.75-3,.21-3.67-1.6Zm55.79-12.1a3,3,0,0,1,3.19,2.68q.35,3-1.64,3.76a27.53,27.53,0,0,0-5.33,2.53,20.24,20.24,0,0,0-5,4.15,11.9,11.9,0,0,0-2.7,4.6,6.5,6.5,0,0,0,.13,4.69,5.58,5.58,0,0,0,2.52,2.54,7.91,7.91,0,0,0,3,.89c1.16.06,2.65,0,4.49,0,2.08-.09,3.14,1,3.2,3.32s-1.12,3.62-3.2,3.59-3.71,0-5-.13a17.64,17.64,0,0,1-4.24-.84,12.93,12.93,0,0,1-4.38-2.36,10.14,10.14,0,0,1-3-4.27,13.5,13.5,0,0,1-.58-6.62,15.93,15.93,0,0,1,1.66-5,18.21,18.21,0,0,1,2.59-3.74,24.42,24.42,0,0,1,2.4-2.36,7.33,7.33,0,0,1,1.08-.82H327.05q-3.29,0-3.28-3.28t3.28-3.33Zm17.66,5a.38.38,0,0,0-.43.44v4.49q0,14.57-3.42,23a2.34,2.34,0,0,1-1.77,1.47,2.72,2.72,0,0,1-.69.09,3,3,0,0,1-1.68-.52,4,4,0,0,1-1.56-2.08,4.53,4.53,0,0,1-.17-1.21,4,4,0,0,1,.26-1.38q2.6-6.62,2.59-19.4v-7.26a3.67,3.67,0,0,1,1.08-2.66,3.61,3.61,0,0,1,2.68-1.1H374.2a.38.38,0,0,0,.44-.43v-1.08a3.37,3.37,0,0,1,6.73,0v1.08a.38.38,0,0,0,.43.43h12.05a2.91,2.91,0,0,1,2.18.91,3,3,0,0,1,.89,2.16,2.93,2.93,0,0,1-.89,2.14,3,3,0,0,1-2.18.88h-14c-.06,0-.09,0-.11.09a.11.11,0,0,0,.07.13,62.41,62.41,0,0,1,6.39,3.59,2.43,2.43,0,0,1,1.21,2v.26a2.9,2.9,0,0,1-.82,2,3.29,3.29,0,0,1-2.38,1H384a4,4,0,0,1-2.34-.73,53.94,53.94,0,0,0-4.75-3.07,2.76,2.76,0,0,1-1.42-2.07,2.82,2.82,0,0,1,0-.48,2.6,2.6,0,0,1,.82-1.9l.6-.6c.06,0,.07-.09,0-.18a.16.16,0,0,0-.17-.13Zm6.65,15.69a48.17,48.17,0,0,1-1.51,8.86,2.77,2.77,0,0,1-1.6,1.73,3.21,3.21,0,0,1-1.12.21,3,3,0,0,1-1.3-.3,3.08,3.08,0,0,1-1.6-1.69,3.44,3.44,0,0,1-.3-1.38,3.9,3.9,0,0,1,.17-1.08,40,40,0,0,0,1.47-7.6,2.57,2.57,0,0,1,1.08-1.86,2.43,2.43,0,0,1,1.51-.52,3.78,3.78,0,0,1,.56,0,3.12,3.12,0,0,1,2,1.3,3,3,0,0,1,.69,1.94,1.39,1.39,0,0,1,0,.35Zm21.33-2.77a60.45,60.45,0,0,1,3.41,8.56,3.38,3.38,0,0,1,.17,1,3.56,3.56,0,0,1-.43,1.68,4.13,4.13,0,0,1-2.07,1.9,3.59,3.59,0,0,1-1.08.18,3,3,0,0,1-2.77-2.25q-.3-1.17-.69-2.46a.14.14,0,0,0-.1,0c-.05,0-.07,0-.07.09q-.48,5-1.86,6.83a5.24,5.24,0,0,1-4.49,1.85h-4c-2.54,0-4.24-.54-5.12-1.62s-1.32-3-1.32-5.89V442.27a3.06,3.06,0,0,1,.95-2.27,3.14,3.14,0,0,1,2.27-.93A3.06,3.06,0,0,1,379,440a3.11,3.11,0,0,1,.92,2.27V453.5a3.67,3.67,0,0,0,.2,1.54c.13.21.44.32.93.32h2.33a.89.89,0,0,0,.86-.63,9.94,9.94,0,0,0,.43-2.48,2.18,2.18,0,0,1,1.17-1.86,2.48,2.48,0,0,1,1.25-.34,2.76,2.76,0,0,1,1,.21c.52.2,1,.38,1.51.52a.2.2,0,0,0,.26-.26c-.52-1.53-1.11-3-1.77-4.58a3.1,3.1,0,0,1-.26-1.21,2.71,2.71,0,0,1,.22-1.08,2.58,2.58,0,0,1,1.59-1.6,3.22,3.22,0,0,1,1.25-.26,3.4,3.4,0,0,1,1.21.22,3.2,3.2,0,0,1,1.82,1.68Zm16.62-3.19a2.6,2.6,0,0,1,.65-.09,2.47,2.47,0,0,1,1.42.43,2.39,2.39,0,0,1,1.13,1.82,2.71,2.71,0,0,1,0,.47,3.39,3.39,0,0,1-2.42,3.2l-.78.17a.56.56,0,0,0-.43.56v8.21a10.83,10.83,0,0,1-.43,3.42,3.94,3.94,0,0,1-1.51,2,8.11,8.11,0,0,1-3.37,1.08,2,2,0,0,1-.34,0,3,3,0,0,1-1.95-.74,4.12,4.12,0,0,1-1.38-2.2,2.51,2.51,0,0,1,0-1.36,2.14,2.14,0,0,1,.78-1.08,2.37,2.37,0,0,1,1.3-.45h.3a.71.71,0,0,0,.54-.16.76.76,0,0,0,.15-.54v-6.61a.34.34,0,0,0-.13-.28.26.26,0,0,0-.26-.06l-.52.13a2.5,2.5,0,0,1-.73.13,2.58,2.58,0,0,1-1.51-.48,2.66,2.66,0,0,1-1.21-1.94,2.82,2.82,0,0,1,0-.48,3.27,3.27,0,0,1,.6-1.9,3.44,3.44,0,0,1,2.07-1.38c.44-.09.87-.19,1.3-.31a.47.47,0,0,0,.43-.51v-7.35a.38.38,0,0,0-.43-.43h-.78a2.94,2.94,0,0,1,0-5.88h.78a.38.38,0,0,0,.43-.43v-4.67a2.82,2.82,0,0,1,.86-2.09,3,3,0,0,1,4.15,0,2.82,2.82,0,0,1,.86,2.09v4.71a.34.34,0,0,0,.39.39h.22a2.83,2.83,0,0,1,2.07.87,2.92,2.92,0,0,1,0,4.14,2.83,2.83,0,0,1-2.07.87h-.22a.34.34,0,0,0-.39.39v6.05a.28.28,0,0,0,.11.21.26.26,0,0,0,.24.05Zm23.23,3.93a10.33,10.33,0,0,1,3.59.52,2,2,0,0,1,1.08,1,2,2,0,0,1,.21.86,2.49,2.49,0,0,1-.08.61,21.53,21.53,0,0,1-3.76,7,.41.41,0,0,0-.07.28.24.24,0,0,0,.2.2,29.85,29.85,0,0,0,4.14,1.16,1.9,1.9,0,0,1,1.39,1.21,2.54,2.54,0,0,1,.12.74,1.93,1.93,0,0,1-.38,1.12,4.78,4.78,0,0,1-2.16,1.77,3.84,3.84,0,0,1-1.56.35,4.67,4.67,0,0,1-1.08-.13,30.72,30.72,0,0,1-5.26-2.12.83.83,0,0,0-.78.05,24.67,24.67,0,0,1-3.72,1.77,4.32,4.32,0,0,1-1.42.26,3.91,3.91,0,0,1-1.6-.35,5.78,5.78,0,0,1-2.59-2l-.58-.67a.35.35,0,0,0-.58,0,20.18,20.18,0,0,1-1.82,1.77,2.66,2.66,0,0,1-1.68.61,4.55,4.55,0,0,1-.52,0,3.52,3.52,0,0,1-2.07-1.21,2.58,2.58,0,0,1-.74-1.82,2.62,2.62,0,0,1,1-2.12c3.13-2.7,5.19-6.54,6.17-11.49a.31.31,0,0,0-.06-.3.35.35,0,0,0-.28-.13H417a2.4,2.4,0,0,1-1.81-.76,2.6,2.6,0,0,1,0-3.63,2.43,2.43,0,0,1,1.81-.75h2.59a.38.38,0,0,0,.43-.44l0-.34a.44.44,0,0,0-.11-.3.34.34,0,0,0-.28-.13h-1.94a2.36,2.36,0,0,1-1.73-.74,2.41,2.41,0,0,1-.73-1.77v-.35a2,2,0,0,1,.62-1.49,2.06,2.06,0,0,1,1.49-.62c.14,0,.2-.08.17-.22l-.17-.65a3.38,3.38,0,0,1-.17-1,3.32,3.32,0,0,1,.43-1.64,3.28,3.28,0,0,1,2.07-1.68s.05,0,.05-.07,0-.06-.05-.06c-.66,0-1.19,0-1.6,0h0a2.8,2.8,0,0,1-1.81-.65,3.18,3.18,0,0,1-1.12-1.73,1.75,1.75,0,0,1,.25-1.59,1.66,1.66,0,0,1,1.39-.78,152.31,152.31,0,0,0,17.1-1.47,6.51,6.51,0,0,1,.77,0,5.1,5.1,0,0,1,1.82.34,4.68,4.68,0,0,1,2.07,1.56,1.7,1.7,0,0,1,.34,1,1.93,1.93,0,0,1-.13.7,1.64,1.64,0,0,1-1.33,1.12c-.55.09-1.16.17-1.82.26-.06,0-.08,0-.08.08s0,.09,0,.09l.43.13a2.62,2.62,0,0,1,1.86,1.69,2.71,2.71,0,0,1,.21,1,2.47,2.47,0,0,1-.47,1.43c-.4.66-.79,1.27-1.17,1.81a.23.23,0,0,0,0,.2.18.18,0,0,0,.18.11h.69a2.35,2.35,0,0,1,1.75.73,2.51,2.51,0,0,1,0,3.5,2.36,2.36,0,0,1-1.75.74H426.62a.43.43,0,0,0-.47.43v.34a.31.31,0,0,0,.09.33.44.44,0,0,0,.3.11h12a2.56,2.56,0,0,1,1.79,4.38,2.42,2.42,0,0,1-1.79.76H425.93a.47.47,0,0,0-.51.43l-.09.22a.43.43,0,0,0,.11.3.32.32,0,0,0,.23.13Zm-11.48,8.81a19.39,19.39,0,0,1-2.12,3.37.13.13,0,0,0,0,.18.11.11,0,0,0,.15,0,29.62,29.62,0,0,0,4.15-1.3.34.34,0,0,0,.15-.23.27.27,0,0,0-.07-.24q-.78-.74-1.77-1.86a.24.24,0,0,0-.24-.11.34.34,0,0,0-.23.15Zm2.16-21.65c0-.26-.06-.54-.09-.86a3.28,3.28,0,0,1,0-.56,3.8,3.8,0,0,1,.73-2.25,3.46,3.46,0,0,1,2.37-1.55l.39-.05v0c-2.1.14-4.2.26-6.3.34a.27.27,0,0,0-.22.13.31.31,0,0,0,0,.26c.32.81.63,1.63,1,2.47a1.74,1.74,0,0,1,.13.64,1.87,1.87,0,0,1-.22.87,2,2,0,0,1-1.16,1v0h3.11a.45.45,0,0,0,.3-.13.33.33,0,0,0,.09-.31ZM429.86,452a13.49,13.49,0,0,0,1.95-2.6.25.25,0,0,0-.22-.39h-5.14a.22.22,0,0,0-.19.13.17.17,0,0,0,0,.22,16.15,16.15,0,0,0,2.94,2.68.44.44,0,0,0,.64,0Zm-1.08-21.35a2.93,2.93,0,0,1-2,1.34.06.06,0,0,0,0,.09h3.41a.7.7,0,0,0,.65-.39,44.52,44.52,0,0,0,2.54-5.53.26.26,0,0,0-.06-.26.21.21,0,0,0-.24-.09l-4,.39a.28.28,0,0,0-.26.15.4.4,0,0,0,0,.32c.14.55.27,1.11.39,1.69a3.25,3.25,0,0,1,.08.69,2.68,2.68,0,0,1-.52,1.6Zm19.91,22.73a4.61,4.61,0,0,1,1.49-3.48,5.68,5.68,0,0,1,7.47,0,4.61,4.61,0,0,1,1.49,3.48,4.52,4.52,0,0,1-1.49,3.48,5.81,5.81,0,0,1-7.47,0A4.52,4.52,0,0,1,448.69,453.33Zm2.12-10.2-1.43-11.23-.13-3.59a3.37,3.37,0,0,1,1-2.66,3.52,3.52,0,0,1,2.59-1.1H455a3.52,3.52,0,0,1,2.59,1.1,3.37,3.37,0,0,1,1,2.66l-.13,3.59-1.42,11.23a3.26,3.26,0,0,1-1.06,2,3.09,3.09,0,0,1-4.15,0A3.2,3.2,0,0,1,450.81,443.13Z"/><path class="cls-8" d="M203.35,35.78a2.53,2.53,0,0,1,2.87-2.87c2,0,2.95,1,2.95,2.87v6.43a2.54,2.54,0,0,1-2.87,2.87H206q3,3.72,3,10.57V87.1q0,15.21-15.21,15.22H163.64q-6.58,0-6.59-6.6T163.64,89h26.53q5.07,0,5.07-5.07V58.78q0-5.09-5.07-5.08H163.64q-6.58,0-6.59-6.59V47q0-6.59,6.59-6.59H193.8a17.26,17.26,0,0,1,9.55,2.37v-7Zm9.12,0a2.54,2.54,0,0,1,2.87-2.87c2,0,3,1,3,2.87v6.43a2.54,2.54,0,0,1-2.87,2.87c-2,0-3-1-3-2.87Zm16.22,67.47q-6.09-2.2-4.06-8.46a167.33,167.33,0,0,0,5-19.91,116.52,116.52,0,0,0,1.65-19.4V44.32q0-6.51,6.5-6.51t6.59,6.51V55.48a155.79,155.79,0,0,1-1.22,20.71A131.68,131.68,0,0,1,237.81,98c-1.57,4.68-4.62,6.43-9.12,5.25Zm48.49-8.46q2,6.25-4.05,8.46Q266.37,105,264,98a130.52,130.52,0,0,1-5.36-21.81,154,154,0,0,1-1.23-20.71V44.32q0-6.51,6.59-6.51t6.51,6.51V55.48a115.52,115.52,0,0,0,1.64,19.4A169.29,169.29,0,0,0,277.18,94.79ZM287,46.18q0-6.6,6.59-6.6H308.1q6.58,0,6.59,6.6t-6.59,6.59H293.57q-6.58,0-6.59-6.59Zm50.1,8q5.66,2.63,3.71,8.12-2.28,7.86-8.82,17.12a67.71,67.71,0,0,1-14.2,15q-7.65,5.79-22.6,9.08-5.82,1.11-7.43-5.41-.84-6.67,5.41-7.78,10.89-1.85,17.23-6.84a61.61,61.61,0,0,0,11.28-11.63,48.1,48.1,0,0,0,7.31-14q2.1-5.16,8.11-3.72Z"/></svg>