<svg id="レイヤー_1" data-name="レイヤー 1" xmlns="http://www.w3.org/2000/svg" viewBox="0 0 132.68 133.19"><defs><style>.cls-1{fill:#ff93ff;}.cls-2{fill:#fff;}.cls-3{fill:#eb79e1;}.cls-4{fill:#9f00c9;}.cls-5{fill:#002a8a;}.cls-6{fill:none;stroke:#fff;stroke-width:0.25px;}</style></defs><path class="cls-1" d="M14.7,34.35V31.42a.19.19,0,0,0-.21-.21H11.74a1.3,1.3,0,0,1-1-.39,1.26,1.26,0,0,1-.39-.94,1.34,1.34,0,0,1,.39-1,1.31,1.31,0,0,1,1-.4h2.75a.19.19,0,0,0,.21-.21V25.43A1.4,1.4,0,0,1,16.1,24a1.35,1.35,0,0,1,1,.41,1.39,1.39,0,0,1,.41,1v2.88a.19.19,0,0,0,.21.21h2.77a1.32,1.32,0,0,1,.95.4,1.31,1.31,0,0,1,.4,1,1.23,1.23,0,0,1-.4.94,1.31,1.31,0,0,1-.95.39H17.71a.19.19,0,0,0-.21.21v2.93a1.34,1.34,0,0,1-.41,1,1.31,1.31,0,0,1-1,.41,1.4,1.4,0,0,1-1.4-1.38Z"/><path class="cls-1" d="M72.93,107.78v-2.92a.19.19,0,0,0-.21-.21H70a1.33,1.33,0,0,1-1.35-1.34,1.34,1.34,0,0,1,.39-1,1.31,1.31,0,0,1,1-.4h2.75a.19.19,0,0,0,.21-.21V98.86a1.35,1.35,0,0,1,.41-1,1.31,1.31,0,0,1,1-.41,1.4,1.4,0,0,1,1.4,1.4v2.88a.19.19,0,0,0,.21.21h2.77a1.32,1.32,0,0,1,1,.4,1.35,1.35,0,0,1,.4,1,1.35,1.35,0,0,1-1.35,1.34H75.94a.19.19,0,0,0-.21.21v2.92a1.36,1.36,0,0,1-.41,1,1.38,1.38,0,0,1-1,.41,1.4,1.4,0,0,1-1.4-1.39Z"/><path class="cls-1" d="M57,48.88V47.06c0-.09,0-.13-.13-.13H55.15a.83.83,0,0,1-.59-1.42.78.78,0,0,1,.59-.25h1.71a.12.12,0,0,0,.13-.13V43.34a.89.89,0,0,1,.87-.88.85.85,0,0,1,.62.26.83.83,0,0,1,.25.62v1.79a.12.12,0,0,0,.13.13h1.73a.83.83,0,0,1,.58,1.43.8.8,0,0,1-.58.24H58.86c-.09,0-.13,0-.13.13v1.82a.82.82,0,0,1-.25.6.85.85,0,0,1-.62.26.89.89,0,0,1-.87-.86Z"/><path class="cls-2" d="M66.44,3.77a62.34,62.34,0,0,0-6,124.39c2,.19,4,.29,6,.29a62.43,62.43,0,0,0,62.34-62.34A62.41,62.41,0,0,0,66.44,3.77Z"/><rect class="cls-1" x="39.07" y="27.53" width="45.46" height="69.93" transform="translate(9.69 -8.28) rotate(8.32)"/><rect class="cls-3" x="49.24" y="37.12" width="45.46" height="69.93" transform="translate(11.18 -9.65) rotate(8.32)"/><path class="cls-4" d="M66.44-.23a66.33,66.33,0,0,0-5.7,132.42c2,.17,3.92.26,5.7.26a67.56,67.56,0,0,0,8.61-.58A66.33,66.33,0,0,0,66.44-.23Zm8.69,128.06a63,63,0,0,1-8.69.62c-1.93,0-3.93-.1-6-.29a62.37,62.37,0,1,1,14.65-.33Z"/><path class="cls-5" d="M33,61.93H27.65a2.13,2.13,0,0,1-2.42-2.42,2.14,2.14,0,0,1,2.42-2.42H33V55.64a2,2,0,0,1,2.24-2.24,2,2,0,0,1,2.27,2.24v1.45h2.15a3.26,3.26,0,0,1-.4-1.61,3.32,3.32,0,0,1,1-2.39A3.36,3.36,0,0,1,45,57.85l-.06.06a2.6,2.6,0,0,1,.43,1.6,2.14,2.14,0,0,1-2.42,2.42H37.49V77a2,2,0,0,1-2.24,2.24A2,2,0,0,1,33,77Zm-2,3.55a79.55,79.55,0,0,1-1.06,11.83,1.93,1.93,0,0,1-2.39,1.82c-1.38-.14-1.94-.83-1.7-2.06A78.9,78.9,0,0,0,27,65.48c0-1.32.76-2,2.15-2A1.81,1.81,0,0,1,31,65.48Zm8.54,0a1.8,1.8,0,0,1,1.87-2c1.39,0,2.11.65,2.15,2a80.31,80.31,0,0,0,1.12,11.59C44.9,78.3,44.34,79,43,79.13a1.93,1.93,0,0,1-2.4-1.82A78.13,78.13,0,0,1,39.52,65.48Zm4.57-10a1.48,1.48,0,0,0-.44-1.09A1.51,1.51,0,0,0,42.57,54a1.46,1.46,0,0,0-1.06.42,1.5,1.5,0,0,0-.42,1.09A1.45,1.45,0,0,0,42.57,57a1.48,1.48,0,0,0,1.08-.43A1.41,1.41,0,0,0,44.09,55.48Z"/><path class="cls-5" d="M49.44,57.45A2.14,2.14,0,0,1,51.87,55h10A3.28,3.28,0,0,1,65.2,56.8,4.52,4.52,0,0,1,65,61.09,34.78,34.78,0,0,1,62,67c.91,1.19,1.85,2.4,2.84,3.62s2,2.33,2.91,3.34a2.49,2.49,0,0,1-.09,3.51,2.16,2.16,0,0,1-3-.42,20.82,20.82,0,0,1-2.45-2.66q-1.45-1.83-2.88-3.73a31.12,31.12,0,0,1-3.77,3.95,26.15,26.15,0,0,1-3.89,2.86,2.18,2.18,0,0,1-3.26-.6q-.91-2.4.84-3.51a16.28,16.28,0,0,0,3.83-2.76A32.3,32.3,0,0,0,57,66.17,24.3,24.3,0,0,0,60,61c.22-.72,0-1.09-.7-1.09H51.87a2.14,2.14,0,0,1-2.43-2.42Z"/><path class="cls-5" d="M80.6,56.18h5.72q5.39-.06,4.54,5.87a28.7,28.7,0,0,1-2,6.44,16,16,0,0,1-3.28,5,19.38,19.38,0,0,1-4,3.12,32.47,32.47,0,0,1-5,2.21,2.24,2.24,0,0,1-3.15-1.22c-.42-1.55,0-2.58,1.3-3.08a21.2,21.2,0,0,0,2.85-1.12,15,15,0,0,0,3.78-2.55,14.13,14.13,0,0,0,2-2.24H80.17a2.26,2.26,0,0,1,0-4.51H85.5a12.41,12.41,0,0,0,.42-1.75c.14-1-.32-1.59-1.39-1.61H78.75A22.45,22.45,0,0,1,75,65.93q-1.8,1.69-3.39.48-1.48-2,0-3.54a14.57,14.57,0,0,0,2-2.36,18.16,18.16,0,0,0,2.21-4.75c.43-1.52,1.48-2.12,3.15-1.82C80.38,54.34,80.92,55.09,80.6,56.18Z"/><path class="cls-5" d="M94.34,66.26A2.09,2.09,0,0,1,96.7,63.9H106a2.38,2.38,0,0,1,0,4.75H96.7a2.08,2.08,0,0,1-2.36-2.36Z"/><path class="cls-6" d="M33,61.93H27.65a2.13,2.13,0,0,1-2.42-2.42,2.14,2.14,0,0,1,2.42-2.42H33V55.64a2,2,0,0,1,2.24-2.24,2,2,0,0,1,2.27,2.24v1.45h2.15a3.26,3.26,0,0,1-.4-1.61,3.32,3.32,0,0,1,1-2.39A3.36,3.36,0,0,1,45,57.85l-.06.06a2.6,2.6,0,0,1,.43,1.6,2.14,2.14,0,0,1-2.42,2.42H37.49V77a2,2,0,0,1-2.24,2.24A2,2,0,0,1,33,77Zm-2,3.55a79.55,79.55,0,0,1-1.06,11.83,1.93,1.93,0,0,1-2.39,1.82c-1.38-.14-1.94-.83-1.7-2.06A78.9,78.9,0,0,0,27,65.48c0-1.32.76-2,2.15-2A1.81,1.81,0,0,1,31,65.48Zm8.54,0a1.8,1.8,0,0,1,1.87-2c1.39,0,2.11.65,2.15,2a80.31,80.31,0,0,0,1.12,11.59C44.9,78.3,44.34,79,43,79.13a1.93,1.93,0,0,1-2.4-1.82A78.13,78.13,0,0,1,39.52,65.48Zm4.57-10a1.48,1.48,0,0,0-.44-1.09A1.51,1.51,0,0,0,42.57,54a1.46,1.46,0,0,0-1.06.42,1.5,1.5,0,0,0-.42,1.09A1.45,1.45,0,0,0,42.57,57a1.48,1.48,0,0,0,1.08-.43A1.41,1.41,0,0,0,44.09,55.48Z"/><path class="cls-6" d="M49.44,57.45A2.14,2.14,0,0,1,51.87,55h10A3.28,3.28,0,0,1,65.2,56.8,4.52,4.52,0,0,1,65,61.09,34.78,34.78,0,0,1,62,67c.91,1.19,1.85,2.4,2.84,3.62s2,2.33,2.91,3.34a2.49,2.49,0,0,1-.09,3.51,2.16,2.16,0,0,1-3-.42,20.82,20.82,0,0,1-2.45-2.66q-1.45-1.83-2.88-3.73a31.12,31.12,0,0,1-3.77,3.95,26.15,26.15,0,0,1-3.89,2.86,2.18,2.18,0,0,1-3.26-.6q-.91-2.4.84-3.51a16.28,16.28,0,0,0,3.83-2.76A32.3,32.3,0,0,0,57,66.17,24.3,24.3,0,0,0,60,61c.22-.72,0-1.09-.7-1.09H51.87a2.14,2.14,0,0,1-2.43-2.42Z"/><path class="cls-6" d="M80.6,56.18h5.72q5.39-.06,4.54,5.87a28.7,28.7,0,0,1-2,6.44,16,16,0,0,1-3.28,5,19.38,19.38,0,0,1-4,3.12,32.47,32.47,0,0,1-5,2.21,2.24,2.24,0,0,1-3.15-1.22c-.42-1.55,0-2.58,1.3-3.08a21.2,21.2,0,0,0,2.85-1.12,15,15,0,0,0,3.78-2.55,14.13,14.13,0,0,0,2-2.24H80.17a2.26,2.26,0,0,1,0-4.51H85.5a12.41,12.41,0,0,0,.42-1.75c.14-1-.32-1.59-1.39-1.61H78.75A22.45,22.45,0,0,1,75,65.93q-1.8,1.69-3.39.48-1.48-2,0-3.54a14.57,14.57,0,0,0,2-2.36,18.16,18.16,0,0,0,2.21-4.75c.43-1.52,1.48-2.12,3.15-1.82C80.38,54.34,80.92,55.09,80.6,56.18Z"/><path class="cls-6" d="M94.34,66.26A2.09,2.09,0,0,1,96.7,63.9H106a2.38,2.38,0,0,1,0,4.75H96.7a2.08,2.08,0,0,1-2.36-2.36Z"/><path class="cls-1" d="M50.74,22.64V19.71a.19.19,0,0,0-.21-.21H47.78a1.3,1.3,0,0,1-1-.39,1.26,1.26,0,0,1-.39-.94,1.34,1.34,0,0,1,.39-1,1.31,1.31,0,0,1,1-.4h2.75a.19.19,0,0,0,.21-.21V13.72a1.39,1.39,0,0,1,.41-1,1.35,1.35,0,0,1,1-.41,1.4,1.4,0,0,1,1.4,1.41V16.6a.19.19,0,0,0,.21.21h2.77a1.32,1.32,0,0,1,.95.4,1.31,1.31,0,0,1,.4,1,1.23,1.23,0,0,1-.4.94,1.31,1.31,0,0,1-.95.39H53.75a.19.19,0,0,0-.21.21v2.93A1.4,1.4,0,0,1,52.14,24a1.31,1.31,0,0,1-1-.41A1.34,1.34,0,0,1,50.74,22.64Z"/><path class="cls-1" d="M50.74,118.14v-2.92a.19.19,0,0,0-.21-.21H47.78a1.3,1.3,0,0,1-1-.39,1.28,1.28,0,0,1-.39-1,1.3,1.3,0,0,1,.39-1,1.28,1.28,0,0,1,1-.4h2.75a.19.19,0,0,0,.21-.21v-2.88a1.37,1.37,0,0,1,.41-1,1.35,1.35,0,0,1,1-.41,1.4,1.4,0,0,1,1.4,1.41v2.88a.19.19,0,0,0,.21.21h2.77a1.29,1.29,0,0,1,.95.4,1.27,1.27,0,0,1,.4,1,1.25,1.25,0,0,1-.4,1,1.31,1.31,0,0,1-.95.39H53.75a.19.19,0,0,0-.21.21v2.92a1.34,1.34,0,0,1-.41,1,1.38,1.38,0,0,1-1,.41,1.4,1.4,0,0,1-1.4-1.39Z"/><path class="cls-1" d="M111.16,54.2V51.28a.19.19,0,0,0-.21-.21H108.2a1.3,1.3,0,0,1-1-.39,1.28,1.28,0,0,1-.39-.94,1.34,1.34,0,0,1,.39-1,1.28,1.28,0,0,1,1-.4H111a.19.19,0,0,0,.21-.21V45.29a1.39,1.39,0,0,1,.41-1,1.35,1.35,0,0,1,1-.41,1.4,1.4,0,0,1,1.4,1.41v2.88a.19.19,0,0,0,.21.21h2.77a1.29,1.29,0,0,1,1,.4,1.35,1.35,0,0,1,.4,1,1.29,1.29,0,0,1-.4.94,1.31,1.31,0,0,1-1,.39h-2.77a.19.19,0,0,0-.21.21V54.2a1.4,1.4,0,0,1-1.4,1.39,1.31,1.31,0,0,1-1-.41A1.34,1.34,0,0,1,111.16,54.2Z"/><path class="cls-1" d="M102.42,106.09v-1.82c0-.09,0-.13-.13-.13h-1.71a.83.83,0,0,1-.59-1.42.78.78,0,0,1,.59-.25h1.71a.12.12,0,0,0,.13-.13v-1.79a.89.89,0,0,1,.87-.88.85.85,0,0,1,.62.26.83.83,0,0,1,.25.62v1.79a.12.12,0,0,0,.13.13H106a.83.83,0,0,1,.58,1.43.8.8,0,0,1-.58.24h-1.73c-.09,0-.13,0-.13.13v1.82a.82.82,0,0,1-.25.6.85.85,0,0,1-.62.26.89.89,0,0,1-.87-.86Z"/><path class="cls-1" d="M20.7,54.78V53a.12.12,0,0,0-.13-.13H18.86a.83.83,0,0,1-.6-1.42.79.79,0,0,1,.6-.25h1.71c.09,0,.13,0,.13-.13V49.24a.84.84,0,0,1,.25-.62.85.85,0,0,1,.62-.26.83.83,0,0,1,.61.26.85.85,0,0,1,.26.62V51c0,.09,0,.13.13.13h1.72a.79.79,0,0,1,.59.25.83.83,0,0,1-.59,1.42H22.57a.12.12,0,0,0-.13.13v1.82a.85.85,0,0,1-.26.61.82.82,0,0,1-.61.25.85.85,0,0,1-.87-.86Z"/></svg>