<svg id="レイヤー_1" data-name="レイヤー 1" xmlns="http://www.w3.org/2000/svg" viewBox="0 0 132.68 133.19"><defs><style>.cls-1{fill:#ff93ff;}.cls-2{fill:#fff;}.cls-3{fill:#9f00c9;}.cls-4{fill:#002a8a;stroke:#fff;stroke-miterlimit:10;stroke-width:0.25px;}</style></defs><path class="cls-1" d="M14.7,34.35V31.42a.19.19,0,0,0-.21-.21H11.74a1.3,1.3,0,0,1-1-.39,1.26,1.26,0,0,1-.39-.94,1.34,1.34,0,0,1,.39-1,1.31,1.31,0,0,1,1-.4h2.75a.19.19,0,0,0,.21-.21V25.43A1.4,1.4,0,0,1,16.1,24a1.35,1.35,0,0,1,1,.41,1.39,1.39,0,0,1,.41,1v2.88a.19.19,0,0,0,.21.21h2.77a1.32,1.32,0,0,1,.95.4,1.31,1.31,0,0,1,.4,1,1.23,1.23,0,0,1-.4.94,1.31,1.31,0,0,1-.95.39H17.71a.19.19,0,0,0-.21.21v2.93a1.34,1.34,0,0,1-.41,1,1.31,1.31,0,0,1-1,.41,1.4,1.4,0,0,1-1.4-1.38Z"/><path class="cls-1" d="M72.93,107.78v-2.92a.19.19,0,0,0-.21-.21H70a1.33,1.33,0,0,1-1.35-1.34,1.34,1.34,0,0,1,.39-1,1.31,1.31,0,0,1,1-.4h2.75a.19.19,0,0,0,.21-.21V98.86a1.35,1.35,0,0,1,.41-1,1.31,1.31,0,0,1,1-.41,1.4,1.4,0,0,1,1.4,1.4v2.88a.19.19,0,0,0,.21.21h2.77a1.32,1.32,0,0,1,1,.4,1.35,1.35,0,0,1,.4,1,1.35,1.35,0,0,1-1.35,1.34H75.94a.19.19,0,0,0-.21.21v2.92a1.36,1.36,0,0,1-.41,1,1.38,1.38,0,0,1-1,.41,1.4,1.4,0,0,1-1.4-1.39Z"/><path class="cls-1" d="M57,48.88V47.06c0-.09,0-.13-.13-.13H55.15a.83.83,0,0,1-.59-1.42.78.78,0,0,1,.59-.25h1.71a.12.12,0,0,0,.13-.13V43.34a.89.89,0,0,1,.87-.88.85.85,0,0,1,.62.26.83.83,0,0,1,.25.62v1.79a.12.12,0,0,0,.13.13h1.73a.83.83,0,0,1,.58,1.43.8.8,0,0,1-.58.24H58.86c-.09,0-.13,0-.13.13v1.82a.82.82,0,0,1-.25.6.85.85,0,0,1-.62.26.89.89,0,0,1-.87-.86Z"/><path class="cls-2" d="M66.44,3.77a62.34,62.34,0,0,0-6,124.39c2,.19,4,.29,6,.29a62.43,62.43,0,0,0,62.34-62.34A62.41,62.41,0,0,0,66.44,3.77Z"/><path class="cls-1" d="M63.11,84.76l-4,4A9.1,9.1,0,0,1,56,90.86a9.53,9.53,0,0,1-5.38.55,9.43,9.43,0,0,1-4.9-2.57,9.42,9.42,0,0,1-2.65-8.5,9.34,9.34,0,0,1,2.58-4.89l10-10.11a9.44,9.44,0,0,1,3.12-2.1,9.57,9.57,0,0,1,5.39-.55,9.31,9.31,0,0,1,4.89,2.58A9.1,9.1,0,0,1,70.9,67.8l.1,0a5.52,5.52,0,0,0,3.14-.3A5.34,5.34,0,0,0,76,66.3l4-4a19.88,19.88,0,0,0-3.46-4.57,20.13,20.13,0,0,0-18.11-5.42,20,20,0,0,0-10.36,5.59L38.1,68a20,20,0,0,0-4.39,6.69,20.3,20.3,0,0,0-1,11.42,20.14,20.14,0,0,0,34.06,10.2l10-10.11a1.14,1.14,0,0,0,.15-.16l-.22.05A24.1,24.1,0,0,1,63.11,84.76Z"/><path class="cls-1" d="M101.87,48.51a20.14,20.14,0,0,0-34-10.4l-10,10-.23.24h.08a24,24,0,0,1,13.65,1.24l.07,0,4-4a9.46,9.46,0,0,1,13.39,0,9.31,9.31,0,0,1,2.08,3.13,9.55,9.55,0,0,1,.52,5.39,9.39,9.39,0,0,1-2.6,4.88l-10,10a9.25,9.25,0,0,1-3.13,2.09,9.61,9.61,0,0,1-5.38.52,9.52,9.52,0,0,1-6.68-5.1.7.7,0,0,0-.14,0,5.56,5.56,0,0,0-5,1.54l-4,4.06a19.91,19.91,0,0,0,3.37,4.46,20.13,20.13,0,0,0,28.47,0l10-10a19.91,19.91,0,0,0,4.43-6.66A20.19,20.19,0,0,0,101.87,48.51Z"/><path class="cls-3" d="M66.44-.23a66.33,66.33,0,0,0-5.7,132.42c2,.17,3.92.26,5.7.26a67.56,67.56,0,0,0,8.61-.58A66.33,66.33,0,0,0,66.44-.23Zm8.69,128.06a63,63,0,0,1-8.69.62c-1.93,0-3.93-.1-6-.29a62.37,62.37,0,1,1,14.65-.33Z"/><path class="cls-4" d="M31.45,54.64A2.38,2.38,0,0,1,34.14,52a2.4,2.4,0,0,1,2.73,2.69v11a2.38,2.38,0,0,1-2.69,2.7,2.4,2.4,0,0,1-2.73-2.7Zm6.61,20.61a10.83,10.83,0,0,0,4-2.42,11.86,11.86,0,0,0,2.13-3.27,11.67,11.67,0,0,0,.93-4.81V54.64A2.38,2.38,0,0,1,47.82,52a2.4,2.4,0,0,1,2.73,2.69V64.75a18.52,18.52,0,0,1-1.4,7.44,13.62,13.62,0,0,1-3.6,5,21.17,21.17,0,0,1-5.67,3.29q-2.76.84-3.64-1.68Q35.72,75.94,38.06,75.25Z"/><path class="cls-4" d="M58.42,53.24h6A2.41,2.41,0,0,1,67.17,56a2.41,2.41,0,0,1-2.73,2.73h-6A2.41,2.41,0,0,1,55.7,56,2.41,2.41,0,0,1,58.42,53.24ZM78,62.65a24.59,24.59,0,0,1-3.65,7.09A28.22,28.22,0,0,1,68.45,76q-3.17,2.39-9.36,3.76-2.42.45-3.08-2.24c-.23-1.84.51-2.92,2.24-3.22a15.58,15.58,0,0,0,7.14-2.84,25.08,25.08,0,0,0,4.67-4.81,19.82,19.82,0,0,0,3-5.79q.89-2.13,3.36-1.54Q78.8,60.39,78,62.65Z"/><path class="cls-4" d="M93.13,55.17h6.19c4.16-.05,5.9,2.21,5.25,6.78a25.6,25.6,0,0,1-2,6.6,18.42,18.42,0,0,1-3.8,5.72,22.09,22.09,0,0,1-4.67,3.6,37.23,37.23,0,0,1-5.21,2.42,2.59,2.59,0,0,1-3.64-1.4q-.74-2.7,1.5-3.57a19,19,0,0,0,3-1.23,17.69,17.69,0,0,0,4.1-2.87,15.6,15.6,0,0,0,3.44-4.44,13.38,13.38,0,0,0,1.56-4.55C99,61,98.5,60.4,97.26,60.38H91a26.3,26.3,0,0,1-4.06,5.21c-1.38,1.31-2.68,1.49-3.92.56q-1.71-2.31,0-4.09a16.76,16.76,0,0,0,2.3-2.73,21.51,21.51,0,0,0,2.56-5.49q.73-2.62,3.64-2.1C93.17,52.2,93.69,53.35,93.13,55.17Z"/><path class="cls-1" d="M50.74,22.64V19.71a.19.19,0,0,0-.21-.21H47.78a1.3,1.3,0,0,1-1-.39,1.26,1.26,0,0,1-.39-.94,1.34,1.34,0,0,1,.39-1,1.31,1.31,0,0,1,1-.4h2.75a.19.19,0,0,0,.21-.21V13.72a1.39,1.39,0,0,1,.41-1,1.35,1.35,0,0,1,1-.41,1.4,1.4,0,0,1,1.4,1.41V16.6a.19.19,0,0,0,.21.21h2.77a1.32,1.32,0,0,1,.95.4,1.31,1.31,0,0,1,.4,1,1.23,1.23,0,0,1-.4.94,1.31,1.31,0,0,1-.95.39H53.75a.19.19,0,0,0-.21.21v2.93A1.4,1.4,0,0,1,52.14,24a1.31,1.31,0,0,1-1-.41A1.34,1.34,0,0,1,50.74,22.64Z"/><path class="cls-1" d="M50.74,118.14v-2.92a.19.19,0,0,0-.21-.21H47.78a1.3,1.3,0,0,1-1-.39,1.28,1.28,0,0,1-.39-1,1.3,1.3,0,0,1,.39-1,1.28,1.28,0,0,1,1-.4h2.75a.19.19,0,0,0,.21-.21v-2.88a1.37,1.37,0,0,1,.41-1,1.35,1.35,0,0,1,1-.41,1.4,1.4,0,0,1,1.4,1.41v2.88a.19.19,0,0,0,.21.21h2.77a1.29,1.29,0,0,1,.95.4,1.27,1.27,0,0,1,.4,1,1.25,1.25,0,0,1-.4,1,1.31,1.31,0,0,1-.95.39H53.75a.19.19,0,0,0-.21.21v2.92a1.34,1.34,0,0,1-.41,1,1.38,1.38,0,0,1-1,.41,1.4,1.4,0,0,1-1.4-1.39Z"/><path class="cls-1" d="M111.16,54.2V51.28a.19.19,0,0,0-.21-.21H108.2a1.3,1.3,0,0,1-1-.39,1.28,1.28,0,0,1-.39-.94,1.34,1.34,0,0,1,.39-1,1.28,1.28,0,0,1,1-.4H111a.19.19,0,0,0,.21-.21V45.29a1.39,1.39,0,0,1,.41-1,1.35,1.35,0,0,1,1-.41,1.4,1.4,0,0,1,1.4,1.41v2.88a.19.19,0,0,0,.21.21h2.77a1.29,1.29,0,0,1,1,.4,1.35,1.35,0,0,1,.4,1,1.29,1.29,0,0,1-.4.94,1.31,1.31,0,0,1-1,.39h-2.77a.19.19,0,0,0-.21.21V54.2a1.4,1.4,0,0,1-1.4,1.39,1.31,1.31,0,0,1-1-.41A1.34,1.34,0,0,1,111.16,54.2Z"/><path class="cls-1" d="M102.42,106.09v-1.82c0-.09,0-.13-.13-.13h-1.71a.83.83,0,0,1-.59-1.42.78.78,0,0,1,.59-.25h1.71a.12.12,0,0,0,.13-.13v-1.79a.89.89,0,0,1,.87-.88.85.85,0,0,1,.62.26.83.83,0,0,1,.25.62v1.79a.12.12,0,0,0,.13.13H106a.83.83,0,0,1,.58,1.43.8.8,0,0,1-.58.24h-1.73c-.09,0-.13,0-.13.13v1.82a.82.82,0,0,1-.25.6.85.85,0,0,1-.62.26.89.89,0,0,1-.87-.86Z"/><path class="cls-1" d="M20.7,54.78V53a.12.12,0,0,0-.13-.13H18.86a.83.83,0,0,1-.6-1.42.79.79,0,0,1,.6-.25h1.71c.09,0,.13,0,.13-.13V49.24a.84.84,0,0,1,.25-.62.85.85,0,0,1,.62-.26.83.83,0,0,1,.61.26.85.85,0,0,1,.26.62V51c0,.09,0,.13.13.13h1.72a.79.79,0,0,1,.59.25.83.83,0,0,1-.59,1.42H22.57a.12.12,0,0,0-.13.13v1.82a.85.85,0,0,1-.26.61.82.82,0,0,1-.61.25.85.85,0,0,1-.87-.86Z"/></svg>