<svg id="レイヤー_1" data-name="レイヤー 1" xmlns="http://www.w3.org/2000/svg" viewBox="0 0 132.68 133.19"><defs><style>.cls-1{fill:#fff;}.cls-2{fill:#ff93ff;}.cls-3{fill:#9f00c9;}.cls-4{fill:#002a8a;}.cls-5{fill:none;stroke:#fff;stroke-width:0.25px;}</style></defs><path class="cls-1" d="M66.44,3.77a62.34,62.34,0,0,0-6,124.39c2,.19,4,.29,6,.29a62.43,62.43,0,0,0,62.34-62.34A62.41,62.41,0,0,0,66.44,3.77Z"/><path class="cls-2" d="M95.94,41.54l-59.49,0a13,13,0,0,0-12.82,13.2V76.77a12.92,12.92,0,0,0,.21,2.35L16.26,97.59,31.55,89a12.4,12.4,0,0,0,4.87,1l59.5,0a13,13,0,0,0,12.82-13.2V54.76A13,13,0,0,0,95.94,41.54Z"/><path class="cls-3" d="M66.44-.23a66.33,66.33,0,0,0-5.7,132.42c2,.17,3.92.26,5.7.26a67.56,67.56,0,0,0,8.61-.58A66.33,66.33,0,0,0,66.44-.23Zm8.69,128.06a63,63,0,0,1-8.69.62c-1.93,0-3.93-.1-6-.29a62.37,62.37,0,1,1,14.65-.33Z"/><path class="cls-4" d="M53.44,79.86h.21a2.74,2.74,0,0,1,1.39.36A1.9,1.9,0,0,1,56,81.46a3.08,3.08,0,0,1,.06.61,2.34,2.34,0,0,1-.27,1.09,1.75,1.75,0,0,1-1.3.93,15,15,0,0,1-2.21.15,11.25,11.25,0,0,1-6.13-1.63,10.42,10.42,0,0,1-3.92-4.42.62.62,0,0,0-.43-.33,9.5,9.5,0,0,1-5.69-4A13.61,13.61,0,0,1,34,66.08q0-5.56,2.9-8.7a10,10,0,0,1,7.69-3.14,10,10,0,0,1,7.69,3.14c1.92,2.09,2.89,5,2.89,8.7a13.8,13.8,0,0,1-1.87,7.45,9.39,9.39,0,0,1-5.1,4.09.18.18,0,0,0-.15.13.24.24,0,0,0,0,.2,4.48,4.48,0,0,0,2.06,1.47,8.16,8.16,0,0,0,2.76.47ZM39.67,66.08A10.13,10.13,0,0,0,41,71.65a4.23,4.23,0,0,0,7.19,0,10,10,0,0,0,1.31-5.57,9,9,0,0,0-1.31-5.21,4.39,4.39,0,0,0-7.19,0A9,9,0,0,0,39.67,66.08Z"/><path class="cls-4" d="M77.72,73a2.64,2.64,0,0,1,1.36,1.18,2.11,2.11,0,0,1,.3,1.06,2.44,2.44,0,0,1-1.21,2.09,2.07,2.07,0,0,1-1.06.31,2,2,0,0,1-.69-.13A21.25,21.25,0,0,1,72.91,76a.53.53,0,0,0-.52,0,12,12,0,0,1-7,2.12,8.15,8.15,0,0,1-5.77-1.91,6.63,6.63,0,0,1-1-8.35,10.26,10.26,0,0,1,2.89-2.67.31.31,0,0,0,.09-.45,10,10,0,0,1-1.24-4.45,5.88,5.88,0,0,1,1.76-4.33,6.3,6.3,0,0,1,4.66-1.76A6,6,0,0,1,71,55.62a5,5,0,0,1,1.59,3.86,5.57,5.57,0,0,1-.34,2,5.64,5.64,0,0,1-1,1.71,11.39,11.39,0,0,1-1.41,1.38,19.11,19.11,0,0,1-1.71,1.26q-.24.18-.06.39a27.73,27.73,0,0,0,4,3.54.25.25,0,0,0,.42-.06A15.31,15.31,0,0,0,74,66.9a3.89,3.89,0,0,1,1.36-1.71,3.3,3.3,0,0,1,2-.65,1.73,1.73,0,0,1,1.48.75,1.6,1.6,0,0,1,.33.94,1.63,1.63,0,0,1-.15.67A24.57,24.57,0,0,1,76.21,72c-.13.17-.09.29.09.37C76.8,72.62,77.28,72.83,77.72,73ZM62.79,71.14a2.51,2.51,0,0,0,.88,2,3.47,3.47,0,0,0,2.36.76,5.36,5.36,0,0,0,2.43-.63.15.15,0,0,0,.12-.16.24.24,0,0,0-.06-.18,29.29,29.29,0,0,1-4.18-4.08q-.18-.25-.39,0A3.39,3.39,0,0,0,62.79,71.14Zm2.06-10.87a5.32,5.32,0,0,0,.58,2.3q.15.3.39.12a7.31,7.31,0,0,0,1.89-1.48,2.57,2.57,0,0,0,.66-1.73c0-1.11-.51-1.66-1.52-1.66a1.8,1.8,0,0,0-1.42.65A2.58,2.58,0,0,0,64.85,60.27Z"/><path class="cls-4" d="M98.15,77.68A3.25,3.25,0,0,1,96.07,77a3.39,3.39,0,0,1-1.22-1.83l-.6-2.45a.33.33,0,0,0-.36-.3H87.65a.33.33,0,0,0-.36.3l-.61,2.45A3.32,3.32,0,0,1,85.47,77a3.27,3.27,0,0,1-2.09.72H83a1.9,1.9,0,0,1-1.94-1.91,2.2,2.2,0,0,1,.09-.61l5.6-18a3.38,3.38,0,0,1,1.29-1.82,3.54,3.54,0,0,1,2.13-.69h1.36a3.53,3.53,0,0,1,2.11.69A3.49,3.49,0,0,1,95,57.12l5.6,18a1.7,1.7,0,0,1,.12.61,1.77,1.77,0,0,1-.4,1.12,1.84,1.84,0,0,1-1.57.79ZM88.5,67.81a.25.25,0,0,0,0,.21.2.2,0,0,0,.18.09h4.12A.2.2,0,0,0,93,68a.25.25,0,0,0,0-.21l-.43-1.67c-.2-.81-.5-2-.9-3.74s-.7-2.89-.88-3.61a.09.09,0,0,0-.09-.07s-.06,0-.06.07q-1.22,5.15-1.76,7.35Z"/><path class="cls-5" d="M53.44,79.86h.21a2.74,2.74,0,0,1,1.39.36A1.9,1.9,0,0,1,56,81.46a3.08,3.08,0,0,1,.06.61,2.34,2.34,0,0,1-.27,1.09,1.75,1.75,0,0,1-1.3.93,15,15,0,0,1-2.21.15,11.25,11.25,0,0,1-6.13-1.63,10.42,10.42,0,0,1-3.92-4.42.62.62,0,0,0-.43-.33,9.5,9.5,0,0,1-5.69-4A13.61,13.61,0,0,1,34,66.08q0-5.56,2.9-8.7a10,10,0,0,1,7.69-3.14,10,10,0,0,1,7.69,3.14c1.92,2.09,2.89,5,2.89,8.7a13.8,13.8,0,0,1-1.87,7.45,9.39,9.39,0,0,1-5.1,4.09.18.18,0,0,0-.15.13.24.24,0,0,0,0,.2,4.48,4.48,0,0,0,2.06,1.47,8.16,8.16,0,0,0,2.76.47ZM39.67,66.08A10.13,10.13,0,0,0,41,71.65a4.23,4.23,0,0,0,7.19,0,10,10,0,0,0,1.31-5.57,9,9,0,0,0-1.31-5.21,4.39,4.39,0,0,0-7.19,0A9,9,0,0,0,39.67,66.08Z"/><path class="cls-5" d="M77.72,73a2.64,2.64,0,0,1,1.36,1.18,2.11,2.11,0,0,1,.3,1.06,2.44,2.44,0,0,1-1.21,2.09,2.07,2.07,0,0,1-1.06.31,2,2,0,0,1-.69-.13A21.25,21.25,0,0,1,72.91,76a.53.53,0,0,0-.52,0,12,12,0,0,1-7,2.12,8.15,8.15,0,0,1-5.77-1.91,6.63,6.63,0,0,1-1-8.35,10.26,10.26,0,0,1,2.89-2.67.31.31,0,0,0,.09-.45,10,10,0,0,1-1.24-4.45,5.88,5.88,0,0,1,1.76-4.33,6.3,6.3,0,0,1,4.66-1.76A6,6,0,0,1,71,55.62a5,5,0,0,1,1.59,3.86,5.57,5.57,0,0,1-.34,2,5.64,5.64,0,0,1-1,1.71,11.39,11.39,0,0,1-1.41,1.38,19.11,19.11,0,0,1-1.71,1.26q-.24.18-.06.39a27.73,27.73,0,0,0,4,3.54.25.25,0,0,0,.42-.06A15.31,15.31,0,0,0,74,66.9a3.89,3.89,0,0,1,1.36-1.71,3.3,3.3,0,0,1,2-.65,1.73,1.73,0,0,1,1.48.75,1.6,1.6,0,0,1,.33.94,1.63,1.63,0,0,1-.15.67A24.57,24.57,0,0,1,76.21,72c-.13.17-.09.29.09.37C76.8,72.62,77.28,72.83,77.72,73ZM62.79,71.14a2.51,2.51,0,0,0,.88,2,3.47,3.47,0,0,0,2.36.76,5.36,5.36,0,0,0,2.43-.63.15.15,0,0,0,.12-.16.24.24,0,0,0-.06-.18,29.29,29.29,0,0,1-4.18-4.08q-.18-.25-.39,0A3.39,3.39,0,0,0,62.79,71.14Zm2.06-10.87a5.32,5.32,0,0,0,.58,2.3q.15.3.39.12a7.31,7.31,0,0,0,1.89-1.48,2.57,2.57,0,0,0,.66-1.73c0-1.11-.51-1.66-1.52-1.66a1.8,1.8,0,0,0-1.42.65A2.58,2.58,0,0,0,64.85,60.27Z"/><path class="cls-5" d="M98.15,77.68A3.25,3.25,0,0,1,96.07,77a3.39,3.39,0,0,1-1.22-1.83l-.6-2.45a.33.33,0,0,0-.36-.3H87.65a.33.33,0,0,0-.36.3l-.61,2.45A3.32,3.32,0,0,1,85.47,77a3.27,3.27,0,0,1-2.09.72H83a1.9,1.9,0,0,1-1.94-1.91,2.2,2.2,0,0,1,.09-.61l5.6-18a3.38,3.38,0,0,1,1.29-1.82,3.54,3.54,0,0,1,2.13-.69h1.36a3.53,3.53,0,0,1,2.11.69A3.49,3.49,0,0,1,95,57.12l5.6,18a1.7,1.7,0,0,1,.12.61,1.77,1.77,0,0,1-.4,1.12,1.84,1.84,0,0,1-1.57.79ZM88.5,67.81a.25.25,0,0,0,0,.21.2.2,0,0,0,.18.09h4.12A.2.2,0,0,0,93,68a.25.25,0,0,0,0-.21l-.43-1.67c-.2-.81-.5-2-.9-3.74s-.7-2.89-.88-3.61a.09.09,0,0,0-.09-.07s-.06,0-.06.07q-1.22,5.15-1.76,7.35Z"/><path class="cls-3" d="M29.36,45.49c-.15,1.39-.66,2.23-1.54,2.53l-.13,0A2.15,2.15,0,0,1,26,48a1.38,1.38,0,0,1-.77-.82,1.84,1.84,0,0,1-.08-.42,6.24,6.24,0,0,1,.28-2,11.68,11.68,0,0,1,.71-1.83,10,10,0,0,0,.62-1.6,2.48,2.48,0,0,0,0-1.42,1.64,1.64,0,0,0-.92-1.07,2.06,2.06,0,0,0-1.49,0,3,3,0,0,0-1.15.69,2.82,2.82,0,0,1-1.23.79,1.92,1.92,0,0,1-1.4,0,1.69,1.69,0,0,1-.95-1,1.38,1.38,0,0,1,.19-1.28,7.42,7.42,0,0,1,3.88-3,6.65,6.65,0,0,1,4.52-.09,4.84,4.84,0,0,1,2.81,3.28,4.17,4.17,0,0,1,.16,2,6,6,0,0,1-.56,1.83c-.26.52-.53,1.12-.8,1.79A6.73,6.73,0,0,0,29.36,45.49Zm.7,9.8a2.63,2.63,0,0,1-2.2-.17,3.2,3.2,0,0,1-1.33-4,2.87,2.87,0,0,1,3.88-1.28,3.14,3.14,0,0,1,1.33,4A2.7,2.7,0,0,1,30.06,55.29Z"/><path class="cls-2" d="M92.64,28.47c-.64,1.23-1.42,1.81-2.34,1.76h-.13a2.09,2.09,0,0,1-1.52-.71,1.35,1.35,0,0,1-.41-1,1.49,1.49,0,0,1,.08-.41,5.82,5.82,0,0,1,1-1.76,10,10,0,0,1,1.32-1.44,8.57,8.57,0,0,0,1.15-1.25,2.32,2.32,0,0,0,.55-1.28A1.65,1.65,0,0,0,91.89,21a2,2,0,0,0-1.36-.54,3,3,0,0,0-1.32.21,2.81,2.81,0,0,1-1.42.28,1.88,1.88,0,0,1-1.27-.54A1.67,1.67,0,0,1,86,19.1,1.41,1.41,0,0,1,86.66,18a7.32,7.32,0,0,1,4.66-1.31,6.61,6.61,0,0,1,4.19,1.55,4.81,4.81,0,0,1,1.39,4.05,4.14,4.14,0,0,1-.59,1.92,6,6,0,0,1-1.18,1.48c-.43.38-.89.83-1.39,1.35A6.57,6.57,0,0,0,92.64,28.47Zm-2.93,9.28a2.64,2.64,0,0,1-2-1,2.93,2.93,0,0,1-.67-2.14,2.9,2.9,0,0,1,.91-2,2.83,2.83,0,0,1,4,.23A3,3,0,0,1,92.71,35a2.91,2.91,0,0,1-.93,2A2.72,2.72,0,0,1,89.71,37.75Z"/><path class="cls-3" d="M63,112.74c-.64.9-1.31,1.28-2,1.14l-.1,0a1.66,1.66,0,0,1-1.12-.72,1.12,1.12,0,0,1-.21-.85,1.35,1.35,0,0,1,.11-.32,4.63,4.63,0,0,1,1-1.27,8.75,8.75,0,0,1,1.19-1,6.94,6.94,0,0,0,1-.85,1.9,1.9,0,0,0,.57-1,1.28,1.28,0,0,0-.22-1.08,1.6,1.6,0,0,0-1-.58,2.65,2.65,0,0,0-1.05,0,2.09,2.09,0,0,1-1.14.07,1.53,1.53,0,0,1-.94-.55,1.36,1.36,0,0,1-.25-1.08,1.1,1.1,0,0,1,.62-.8,5.8,5.8,0,0,1,3.78-.54A5.2,5.2,0,0,1,66.31,105a3.75,3.75,0,0,1,.66,3.31,3.27,3.27,0,0,1-.66,1.44,5,5,0,0,1-1.08,1c-.38.25-.79.56-1.23.91A5.3,5.3,0,0,0,63,112.74Zm-3.27,7a2.09,2.09,0,0,1-1.44-1,2.49,2.49,0,0,1,.63-3.24,2.06,2.06,0,0,1,1.69-.35,2.09,2.09,0,0,1,1.44,1,2.23,2.23,0,0,1,.31,1.74,2.29,2.29,0,0,1-.93,1.5A2.15,2.15,0,0,1,59.72,119.7Z"/></svg>