<svg id="レイヤー_1" data-name="レイヤー 1" xmlns="http://www.w3.org/2000/svg" viewBox="0 0 132.68 133.19"><defs><style>.cls-1{fill:#fff;}.cls-2{fill:#ff93ff;}.cls-3{fill:#9f00c9;}.cls-4{fill:#002a8a;}.cls-5{fill:none;stroke:#fff;stroke-width:0.25px;}</style></defs><path class="cls-1" d="M66.34,4.51a62.34,62.34,0,0,0-6,124.39c2,.19,4,.29,6,.29a62.42,62.42,0,0,0,62.34-62.34A62.4,62.4,0,0,0,66.34,4.51Z"/><path class="cls-2" d="M97.72,72.09a2,2,0,0,0,1.55-3L69.42,21.32a3.63,3.63,0,0,0-6.15,0L33.41,69.08a2,2,0,0,0,1.55,3H46.31a1.86,1.86,0,0,1,1.78,1.42l12.2,56.38c2,.19,4,.3,6.05.3a64.17,64.17,0,0,0,8.83-.63L85,72.09Z"/><path class="cls-3" d="M66.34.51a66.33,66.33,0,0,0-5.69,132.42c2.05.17,3.91.26,5.69.26a67.43,67.43,0,0,0,8.61-.58A66.33,66.33,0,0,0,66.34.51ZM75,128.57a63.17,63.17,0,0,1-8.7.62c-1.92,0-3.92-.1-6-.29A62.36,62.36,0,1,1,75,128.57Z"/><path class="cls-1" d="M85,128.41a64.52,64.52,0,0,0,45.68-61.56A64.67,64.67,0,0,1,85,128.41Z"/><path class="cls-1" d="M8.26,94.52A64.06,64.06,0,0,1,2,66.87,64.06,64.06,0,0,0,8.26,94.52Z"/><path class="cls-4" d="M19.54,60.25c-.21,0-.31.1-.31.3v3.18Q19.23,74,16.82,80a1.67,1.67,0,0,1-1.25,1,2.08,2.08,0,0,1-1.68-.31,2.77,2.77,0,0,1-1.1-1.46,3.19,3.19,0,0,1-.12-.86,2.77,2.77,0,0,1,.18-1q1.83-4.68,1.83-13.71V58.6a2.58,2.58,0,0,1,.77-1.88,2.53,2.53,0,0,1,1.89-.78h8a.27.27,0,0,0,.3-.3v-.77a2.3,2.3,0,0,1,.71-1.68,2.26,2.26,0,0,1,1.68-.7,2.29,2.29,0,0,1,1.68.7,2.33,2.33,0,0,1,.7,1.68v.77a.27.27,0,0,0,.3.3h8.52a2,2,0,0,1,1.54.64,2.12,2.12,0,0,1,.63,1.53,2.15,2.15,0,0,1-2.17,2.14H29.37a.08.08,0,0,0,0,.15,45.19,45.19,0,0,1,4.52,2.53,1.73,1.73,0,0,1,.85,1.44v.18A2,2,0,0,1,34.13,66a2.37,2.37,0,0,1-1.68.73H32.3a2.77,2.77,0,0,1-1.65-.52A39.41,39.41,0,0,0,27.29,64a1.93,1.93,0,0,1-1-1.46,1.48,1.48,0,0,1,0-.34,1.85,1.85,0,0,1,.58-1.34l.43-.43s0-.06,0-.12a.12.12,0,0,0-.12-.09Zm3.63,17.34A1.9,1.9,0,0,1,22,78.81a2.21,2.21,0,0,1-2.84-1.25,2.47,2.47,0,0,1-.21-1,2.61,2.61,0,0,1,.12-.76,28.38,28.38,0,0,0,1-5.38A1.9,1.9,0,0,1,22,68.76a2,2,0,0,1,.4,0,2.19,2.19,0,0,1,1.4.91,2.13,2.13,0,0,1,.49,1.37,1,1,0,0,1,0,.25A33.22,33.22,0,0,1,23.17,77.59Zm18.57-2.17a2.37,2.37,0,0,1,.12.73,2.54,2.54,0,0,1-.31,1.19,3,3,0,0,1-1.46,1.35,2.68,2.68,0,0,1-.77.12,1.94,1.94,0,0,1-.91-.24,2,2,0,0,1-1-1.35c-.14-.55-.31-1.13-.49-1.74a.11.11,0,0,0-.08,0s0,0,0,.06a10.36,10.36,0,0,1-1.31,4.83,3.74,3.74,0,0,1-3.18,1.31H29.43c-1.79,0-3-.38-3.62-1.15s-.93-2.15-.93-4.16v-8a2.17,2.17,0,0,1,.67-1.61,2.24,2.24,0,0,1,1.61-.65,2.16,2.16,0,0,1,1.58.65,2.2,2.2,0,0,1,.66,1.61v7.94a2.58,2.58,0,0,0,.14,1.08c.09.15.31.23.65.23h1.65a.63.63,0,0,0,.61-.44,7.21,7.21,0,0,0,.31-1.76,1.52,1.52,0,0,1,.82-1.31,1.82,1.82,0,0,1,.89-.25,1.75,1.75,0,0,1,.73.16c.37.14.72.26,1.07.36a.14.14,0,0,0,.18-.18C36.09,73.12,35.67,72,35.2,71a2.16,2.16,0,0,1-.18-.85,2,2,0,0,1,.15-.77,1.86,1.86,0,0,1,1.13-1.13,2.28,2.28,0,0,1,.89-.18,2.58,2.58,0,0,1,.85.15,2.25,2.25,0,0,1,1.28,1.2A41.48,41.48,0,0,1,41.74,75.42Z"/><path class="cls-4" d="M70.71,72H68.39a.08.08,0,0,0-.08.06.09.09,0,0,0,0,.09,18.42,18.42,0,0,0,3.08,1.32,1.37,1.37,0,0,1,1,1,1.76,1.76,0,0,1,.06.46,1.4,1.4,0,0,1-.34.89,3.24,3.24,0,0,1-1.55,1.13,3.08,3.08,0,0,1-.83.12,2.63,2.63,0,0,1-1-.22c-.34-.16-.69-.34-1-.54a.24.24,0,0,0-.2,0,.18.18,0,0,0-.11.17c-.26,2.36-.69,3.86-1.28,4.49a4,4,0,0,1-2.5,1,16,16,0,0,1-1.93.13h0a2,2,0,0,1-1.34-.52,2.93,2.93,0,0,1-.83-1.32,1.43,1.43,0,0,1-.06-.39,1,1,0,0,1,.25-.7,1,1,0,0,1,.88-.49h.06l.92,0a1.46,1.46,0,0,0,1-.31,2.73,2.73,0,0,0,.48-1.22.37.37,0,0,0-.06-.21.2.2,0,0,0-.18-.09H58.89a.42.42,0,0,0-.42.27A8.32,8.32,0,0,1,55.72,80a15.94,15.94,0,0,1-4.92,1.93,1.72,1.72,0,0,1-.55.1,2.27,2.27,0,0,1-1.06-.28,3.14,3.14,0,0,1-1.29-1.19,1.3,1.3,0,0,1-.21-.7,1.37,1.37,0,0,1,.09-.49,1.13,1.13,0,0,1,.92-.76A12.84,12.84,0,0,0,53,77s0-.06,0-.11a.09.09,0,0,0-.09-.07H50a.91.91,0,0,1-.67-.28.89.89,0,0,1-.28-.67q0-.12-.09-.06c-.45.24-.94.48-1.46.7a2.68,2.68,0,0,1-.89.15,2.42,2.42,0,0,1-.76-.12,2.8,2.8,0,0,1-1.38-1,1.38,1.38,0,0,1-.3-.85,2.31,2.31,0,0,1,0-.37,1.26,1.26,0,0,1,.82-.91,21.42,21.42,0,0,0,2.84-1.29.17.17,0,0,0,0-.12.08.08,0,0,0-.08-.06H45.89a1.71,1.71,0,0,1-1.24-.5,1.75,1.75,0,0,1,0-2.45,1.71,1.71,0,0,1,1.24-.5h5.77a.51.51,0,0,0,.46-.27l.15-.22a.17.17,0,0,0,0-.18.14.14,0,0,0-.13-.09H50a2.66,2.66,0,0,1-2.66-2.66V61.41A2.66,2.66,0,0,1,50,58.75H66.68a2.54,2.54,0,0,1,1.89.78,2.58,2.58,0,0,1,.77,1.88V65.1A2.6,2.6,0,0,1,68.57,67a2.54,2.54,0,0,1-1.89.78H57.43A.43.43,0,0,0,57,68l-.12.22a.23.23,0,0,0,0,.18.18.18,0,0,0,.17.09H70.71a1.73,1.73,0,1,1,0,3.45ZM51.63,58.29a.7.7,0,0,1-.52-.21.73.73,0,0,1-.22-.52q0-.09-.06-.09H46.31a1.78,1.78,0,0,1-1.77-1.77,1.69,1.69,0,0,1,.52-1.24,1.73,1.73,0,0,1,1.25-.5h4.43c.1,0,.15-.05.15-.16a1.31,1.31,0,0,1,1.32-1.31H54a1.27,1.27,0,0,1,.93.38,1.3,1.3,0,0,1,.38.93c0,.11,0,.16.15.16H61c.1,0,.15-.05.15-.16a1.27,1.27,0,0,1,.39-.93,1.23,1.23,0,0,1,.9-.38h1.89a1.3,1.3,0,0,1,1.31,1.31.14.14,0,0,0,.16.16h4.42a1.7,1.7,0,0,1,1.25.5A1.65,1.65,0,0,1,72,55.7a1.78,1.78,0,0,1-1.77,1.77H65.73s-.06,0-.06.09a.72.72,0,0,1-.73.73h-3a.7.7,0,0,1-.52-.21.73.73,0,0,1-.22-.52.08.08,0,0,0-.09-.09H55.38s-.06,0-.06.09a.72.72,0,0,1-.73.73Zm.39,3a.27.27,0,0,0-.3.31v.18c0,.21.1.31.3.31H64.48a.27.27,0,0,0,.31-.31v-.18a.28.28,0,0,0-.31-.31Zm0,3.18a.27.27,0,0,0-.3.3v.16a.27.27,0,0,0,.3.3H64.48c.21,0,.31-.1.31-.3v-.16c0-.2-.1-.3-.31-.3Zm3.24,9.1a1.45,1.45,0,0,1,.47-.83,1.35,1.35,0,0,1,.9-.33h1.93a1,1,0,0,1,.79.35,1,1,0,0,1,.25.81q0,.15.09.15h4a.12.12,0,0,0,.09-.21c-.33-.31-.73-.74-1.22-1.29A.67.67,0,0,0,62,72H54.56a.67.67,0,0,0-.52.24q-.74.74-1.44,1.32s-.05,0,0,.1,0,.08.1.08h2.41A.17.17,0,0,0,55.26,73.56Z"/><path class="cls-4" d="M77.58,58.29H87.2v-1a2.17,2.17,0,0,1,4.33,0v1H94a2.17,2.17,0,0,1,0,4.34H91.53v6a12.52,12.52,0,0,1,.89,3.67,13.13,13.13,0,0,1-.49,4.47,16.16,16.16,0,0,1-1.53,3.59,2.29,2.29,0,0,1-2.93,1c-1.24-.67-1.52-1.56-.85-2.68a13.09,13.09,0,0,0,.94-2.55c.07-.42.1-.65.1-.69A7.35,7.35,0,0,1,85.93,77a4.24,4.24,0,0,1-2.12.6,5.35,5.35,0,0,1-3.08-.84,5.86,5.86,0,0,1-2.11-2.5,8.85,8.85,0,0,1-.73-3.9,8,8,0,0,1,.91-3.51,6,6,0,0,1,2.32-2.46,7.17,7.17,0,0,1,3.61-.84,6.15,6.15,0,0,1,1.49.29,4.17,4.17,0,0,1,1,.45V62.63H77.58a2.17,2.17,0,0,1,0-4.34Zm10,12.12a5.5,5.5,0,0,0-.27-1.28,3.17,3.17,0,0,0-.7-1,2.67,2.67,0,0,0-1.83-.69,2.64,2.64,0,0,0-2.17.9,3.3,3.3,0,0,0-.61,2,3.16,3.16,0,0,0,.79,2.38,2.36,2.36,0,0,0,2.08.58,3,3,0,0,0,1.74-.88,4.11,4.11,0,0,0,.78-1.29A5,5,0,0,0,87.53,70.41Z"/><path class="cls-4" d="M113.49,56.52a2.4,2.4,0,0,1,2.49,1.7c.39,1.13-.06,2.19-1.36,3.19l-4.49,3.38a7.47,7.47,0,0,1,4.59.3,6.13,6.13,0,0,1,2.83,2.64,9,9,0,0,1,1.07,4.21,8.09,8.09,0,0,1-1.21,4.53,7.72,7.72,0,0,1-3.21,2.9A12.32,12.32,0,0,1,110,80.58a11.31,11.31,0,0,1-4.38-.37,5.33,5.33,0,0,1-2.76-1.68,4.61,4.61,0,0,1-1-3,5.6,5.6,0,0,1,.54-2.41,3.87,3.87,0,0,1,1.88-2,6,6,0,0,1,3.57-.34,6.07,6.07,0,0,1,3.17,1.5,8.06,8.06,0,0,1,1.9,2.81,3.87,3.87,0,0,0,.94-1.5,5,5,0,0,0,.25-1.8A3,3,0,0,0,113,69.42a5.47,5.47,0,0,0-3.55-.81,10.18,10.18,0,0,0-4,.84,12.81,12.81,0,0,0-2.85,1.85l-.46.36a1.77,1.77,0,0,1-2.81-.36,2.65,2.65,0,0,1,.73-3.54l8.46-6.48h-5a2.1,2.1,0,0,1-2.38-2.38,2.1,2.1,0,0,1,2.38-2.38ZM107,73.86a1.25,1.25,0,0,0-1.22.55,1.35,1.35,0,0,0,0,1.27,2,2,0,0,0,1.35,1,5,5,0,0,0,1.84.19,4.48,4.48,0,0,0,.81-.13,3.37,3.37,0,0,0-1-1.9A3.18,3.18,0,0,0,107,73.86Z"/><path class="cls-5" d="M19.54,60.25c-.21,0-.31.1-.31.3v3.18Q19.23,74,16.82,80a1.67,1.67,0,0,1-1.25,1,2.08,2.08,0,0,1-1.68-.31,2.77,2.77,0,0,1-1.1-1.46,3.19,3.19,0,0,1-.12-.86,2.77,2.77,0,0,1,.18-1q1.83-4.68,1.83-13.71V58.6a2.58,2.58,0,0,1,.77-1.88,2.53,2.53,0,0,1,1.89-.78h8a.27.27,0,0,0,.3-.3v-.77a2.3,2.3,0,0,1,.71-1.68,2.26,2.26,0,0,1,1.68-.7,2.29,2.29,0,0,1,1.68.7,2.33,2.33,0,0,1,.7,1.68v.77a.27.27,0,0,0,.3.3h8.52a2,2,0,0,1,1.54.64,2.12,2.12,0,0,1,.63,1.53,2.15,2.15,0,0,1-2.17,2.14H29.37a.08.08,0,0,0,0,.15,45.19,45.19,0,0,1,4.52,2.53,1.73,1.73,0,0,1,.85,1.44v.18A2,2,0,0,1,34.13,66a2.37,2.37,0,0,1-1.68.73H32.3a2.77,2.77,0,0,1-1.65-.52A39.41,39.41,0,0,0,27.29,64a1.93,1.93,0,0,1-1-1.46,1.48,1.48,0,0,1,0-.34,1.85,1.85,0,0,1,.58-1.34l.43-.43s0-.06,0-.12a.12.12,0,0,0-.12-.09Zm3.63,17.34A1.9,1.9,0,0,1,22,78.81a2.21,2.21,0,0,1-2.84-1.25,2.47,2.47,0,0,1-.21-1,2.61,2.61,0,0,1,.12-.76,28.38,28.38,0,0,0,1-5.38A1.9,1.9,0,0,1,22,68.76a2,2,0,0,1,.4,0,2.19,2.19,0,0,1,1.4.91,2.13,2.13,0,0,1,.49,1.37,1,1,0,0,1,0,.25A33.22,33.22,0,0,1,23.17,77.59Zm18.57-2.17a2.37,2.37,0,0,1,.12.73,2.54,2.54,0,0,1-.31,1.19,3,3,0,0,1-1.46,1.35,2.68,2.68,0,0,1-.77.12,1.94,1.94,0,0,1-.91-.24,2,2,0,0,1-1-1.35c-.14-.55-.31-1.13-.49-1.74a.11.11,0,0,0-.08,0s0,0,0,.06a10.36,10.36,0,0,1-1.31,4.83,3.74,3.74,0,0,1-3.18,1.31H29.43c-1.79,0-3-.38-3.62-1.15s-.93-2.15-.93-4.16v-8a2.17,2.17,0,0,1,.67-1.61,2.24,2.24,0,0,1,1.61-.65,2.16,2.16,0,0,1,1.58.65,2.2,2.2,0,0,1,.66,1.61v7.94a2.58,2.58,0,0,0,.14,1.08c.09.15.31.23.65.23h1.65a.63.63,0,0,0,.61-.44,7.21,7.21,0,0,0,.31-1.76,1.52,1.52,0,0,1,.82-1.31,1.82,1.82,0,0,1,.89-.25,1.75,1.75,0,0,1,.73.16c.37.14.72.26,1.07.36a.14.14,0,0,0,.18-.18C36.09,73.12,35.67,72,35.2,71a2.16,2.16,0,0,1-.18-.85,2,2,0,0,1,.15-.77,1.86,1.86,0,0,1,1.13-1.13,2.28,2.28,0,0,1,.89-.18,2.58,2.58,0,0,1,.85.15,2.25,2.25,0,0,1,1.28,1.2A41.48,41.48,0,0,1,41.74,75.42Z"/><path class="cls-5" d="M70.71,72H68.39a.08.08,0,0,0-.08.06.09.09,0,0,0,0,.09,18.42,18.42,0,0,0,3.08,1.32,1.37,1.37,0,0,1,1,1,1.76,1.76,0,0,1,.06.46,1.4,1.4,0,0,1-.34.89,3.24,3.24,0,0,1-1.55,1.13,3.08,3.08,0,0,1-.83.12,2.63,2.63,0,0,1-1-.22c-.34-.16-.69-.34-1-.54a.24.24,0,0,0-.2,0,.18.18,0,0,0-.11.17c-.26,2.36-.69,3.86-1.28,4.49a4,4,0,0,1-2.5,1,16,16,0,0,1-1.93.13h0a2,2,0,0,1-1.34-.52,2.93,2.93,0,0,1-.83-1.32,1.43,1.43,0,0,1-.06-.39,1,1,0,0,1,.25-.7,1,1,0,0,1,.88-.49h.06l.92,0a1.46,1.46,0,0,0,1-.31,2.73,2.73,0,0,0,.48-1.22.37.37,0,0,0-.06-.21.2.2,0,0,0-.18-.09H58.89a.42.42,0,0,0-.42.27A8.32,8.32,0,0,1,55.72,80a15.94,15.94,0,0,1-4.92,1.93,1.72,1.72,0,0,1-.55.1,2.27,2.27,0,0,1-1.06-.28,3.14,3.14,0,0,1-1.29-1.19,1.3,1.3,0,0,1-.21-.7,1.37,1.37,0,0,1,.09-.49,1.13,1.13,0,0,1,.92-.76A12.84,12.84,0,0,0,53,77s0-.06,0-.11a.09.09,0,0,0-.09-.07H50a.91.91,0,0,1-.67-.28.89.89,0,0,1-.28-.67q0-.12-.09-.06c-.45.24-.94.48-1.46.7a2.68,2.68,0,0,1-.89.15,2.42,2.42,0,0,1-.76-.12,2.8,2.8,0,0,1-1.38-1,1.38,1.38,0,0,1-.3-.85,2.31,2.31,0,0,1,0-.37,1.26,1.26,0,0,1,.82-.91,21.42,21.42,0,0,0,2.84-1.29.17.17,0,0,0,0-.12.08.08,0,0,0-.08-.06H45.89a1.71,1.71,0,0,1-1.24-.5,1.75,1.75,0,0,1,0-2.45,1.71,1.71,0,0,1,1.24-.5h5.77a.51.51,0,0,0,.46-.27l.15-.22a.17.17,0,0,0,0-.18.14.14,0,0,0-.13-.09H50a2.66,2.66,0,0,1-2.66-2.66V61.41A2.66,2.66,0,0,1,50,58.75H66.68a2.54,2.54,0,0,1,1.89.78,2.58,2.58,0,0,1,.77,1.88V65.1A2.6,2.6,0,0,1,68.57,67a2.54,2.54,0,0,1-1.89.78H57.43A.43.43,0,0,0,57,68l-.12.22a.23.23,0,0,0,0,.18.18.18,0,0,0,.17.09H70.71a1.73,1.73,0,1,1,0,3.45ZM51.63,58.29a.7.7,0,0,1-.52-.21.73.73,0,0,1-.22-.52q0-.09-.06-.09H46.31a1.78,1.78,0,0,1-1.77-1.77,1.69,1.69,0,0,1,.52-1.24,1.73,1.73,0,0,1,1.25-.5h4.43c.1,0,.15-.05.15-.16a1.31,1.31,0,0,1,1.32-1.31H54a1.27,1.27,0,0,1,.93.38,1.3,1.3,0,0,1,.38.93c0,.11,0,.16.15.16H61c.1,0,.15-.05.15-.16a1.27,1.27,0,0,1,.39-.93,1.23,1.23,0,0,1,.9-.38h1.89a1.3,1.3,0,0,1,1.31,1.31.14.14,0,0,0,.16.16h4.42a1.7,1.7,0,0,1,1.25.5A1.65,1.65,0,0,1,72,55.7a1.78,1.78,0,0,1-1.77,1.77H65.73s-.06,0-.06.09a.72.72,0,0,1-.73.73h-3a.7.7,0,0,1-.52-.21.73.73,0,0,1-.22-.52.08.08,0,0,0-.09-.09H55.38s-.06,0-.06.09a.72.72,0,0,1-.73.73Zm.39,3a.27.27,0,0,0-.3.31v.18c0,.21.1.31.3.31H64.48a.27.27,0,0,0,.31-.31v-.18a.28.28,0,0,0-.31-.31Zm0,3.18a.27.27,0,0,0-.3.3v.16a.27.27,0,0,0,.3.3H64.48c.21,0,.31-.1.31-.3v-.16c0-.2-.1-.3-.31-.3Zm3.24,9.1a1.45,1.45,0,0,1,.47-.83,1.35,1.35,0,0,1,.9-.33h1.93a1,1,0,0,1,.79.35,1,1,0,0,1,.25.81q0,.15.09.15h4a.12.12,0,0,0,.09-.21c-.33-.31-.73-.74-1.22-1.29A.67.67,0,0,0,62,72H54.56a.67.67,0,0,0-.52.24q-.74.74-1.44,1.32s-.05,0,0,.1,0,.08.1.08h2.41A.17.17,0,0,0,55.26,73.56Z"/><path class="cls-5" d="M77.58,58.29H87.2v-1a2.17,2.17,0,0,1,4.33,0v1H94a2.17,2.17,0,0,1,0,4.34H91.53v6a12.52,12.52,0,0,1,.89,3.67,13.13,13.13,0,0,1-.49,4.47,16.16,16.16,0,0,1-1.53,3.59,2.29,2.29,0,0,1-2.93,1c-1.24-.67-1.52-1.56-.85-2.68a13.09,13.09,0,0,0,.94-2.55c.07-.42.1-.65.1-.69A7.35,7.35,0,0,1,85.93,77a4.24,4.24,0,0,1-2.12.6,5.35,5.35,0,0,1-3.08-.84,5.86,5.86,0,0,1-2.11-2.5,8.85,8.85,0,0,1-.73-3.9,8,8,0,0,1,.91-3.51,6,6,0,0,1,2.32-2.46,7.17,7.17,0,0,1,3.61-.84,6.15,6.15,0,0,1,1.49.29,4.17,4.17,0,0,1,1,.45V62.63H77.58a2.17,2.17,0,0,1,0-4.34Zm10,12.12a5.5,5.5,0,0,0-.27-1.28,3.17,3.17,0,0,0-.7-1,2.67,2.67,0,0,0-1.83-.69,2.64,2.64,0,0,0-2.17.9,3.3,3.3,0,0,0-.61,2,3.16,3.16,0,0,0,.79,2.38,2.36,2.36,0,0,0,2.08.58,3,3,0,0,0,1.74-.88,4.11,4.11,0,0,0,.78-1.29A5,5,0,0,0,87.53,70.41Z"/><path class="cls-5" d="M113.49,56.52a2.4,2.4,0,0,1,2.49,1.7c.39,1.13-.06,2.19-1.36,3.19l-4.49,3.38a7.47,7.47,0,0,1,4.59.3,6.13,6.13,0,0,1,2.83,2.64,9,9,0,0,1,1.07,4.21,8.09,8.09,0,0,1-1.21,4.53,7.72,7.72,0,0,1-3.21,2.9A12.32,12.32,0,0,1,110,80.58a11.31,11.31,0,0,1-4.38-.37,5.33,5.33,0,0,1-2.76-1.68,4.61,4.61,0,0,1-1-3,5.6,5.6,0,0,1,.54-2.41,3.87,3.87,0,0,1,1.88-2,6,6,0,0,1,3.57-.34,6.07,6.07,0,0,1,3.17,1.5,8.06,8.06,0,0,1,1.9,2.81,3.87,3.87,0,0,0,.94-1.5,5,5,0,0,0,.25-1.8A3,3,0,0,0,113,69.42a5.47,5.47,0,0,0-3.55-.81,10.18,10.18,0,0,0-4,.84,12.81,12.81,0,0,0-2.85,1.85l-.46.36a1.77,1.77,0,0,1-2.81-.36,2.65,2.65,0,0,1,.73-3.54l8.46-6.48h-5a2.1,2.1,0,0,1-2.38-2.38,2.1,2.1,0,0,1,2.38-2.38ZM107,73.86a1.25,1.25,0,0,0-1.22.55,1.35,1.35,0,0,0,0,1.27,2,2,0,0,0,1.35,1,5,5,0,0,0,1.84.19,4.48,4.48,0,0,0,.81-.13,3.37,3.37,0,0,0-1-1.9A3.18,3.18,0,0,0,107,73.86Z"/></svg>