<svg id="レイヤー_1" data-name="レイヤー 1" xmlns="http://www.w3.org/2000/svg" viewBox="0 0 132.68 133.19"><defs><style>.cls-1{fill:#fff;}.cls-2{fill:#46dcff;}.cls-3{fill:#f9eb00;}.cls-4{fill:#313133;}</style></defs><path class="cls-1" d="M66.34,4.51a62.34,62.34,0,0,0-6,124.39c2,.19,4,.29,6,.29a62.42,62.42,0,0,0,62.34-62.34A62.4,62.4,0,0,0,66.34,4.51Z"/><path class="cls-2" d="M66.34.51a66.33,66.33,0,0,0-5.69,132.42c2.05.17,3.91.26,5.69.26a67.43,67.43,0,0,0,8.61-.58A66.33,66.33,0,0,0,66.34.51ZM75,128.57a63.17,63.17,0,0,1-8.7.62c-1.92,0-3.92-.1-6-.29A62.36,62.36,0,1,1,75,128.57Z"/><polygon class="cls-3" points="27.19 63.73 48.26 84.8 103.85 29.21 114.62 39.98 47.3 107.29 16.34 76.33 27.19 63.73"/><path class="cls-4" d="M31.8,69.07a7.86,7.86,0,0,1,2.65.36,1.37,1.37,0,0,1,.81.7,1.29,1.29,0,0,1,.16.64,1.11,1.11,0,0,1-.08.42,16.7,16.7,0,0,1-2.7,5.15c-.13.15-.12.27,0,.37a15,15,0,0,0,2.46,1.11,1.27,1.27,0,0,1,.83.87,1,1,0,0,1,.09.41,1.29,1.29,0,0,1-.28.78,3,3,0,0,1-1.37,1.06,2.23,2.23,0,0,1-.81.14,2.19,2.19,0,0,1-.83-.16,15.88,15.88,0,0,1-2.85-1.54.33.33,0,0,0-.44,0,15.64,15.64,0,0,1-2,1.28,2.69,2.69,0,0,1-1.12.26,2.55,2.55,0,0,1-.75-.12A3.36,3.36,0,0,1,24,79.61a3.58,3.58,0,0,0-.28-.37.12.12,0,0,0-.11,0s-.05,0-.05.1v.33A1.89,1.89,0,0,1,23,81a1.93,1.93,0,0,1-1.39.57h-.14a1.81,1.81,0,0,1-1.84-1.84c0-.13-.08-.19-.23-.19l-6.83.5H12.4a1.76,1.76,0,0,1-1.15-.42,1.58,1.58,0,0,1-.58-1.2.39.39,0,0,1,0-.14,1.66,1.66,0,0,1,.45-1.14,1.76,1.76,0,0,1,1.22-.59h.34a.25.25,0,0,0,.25-.27v-7.7c0-.15-.08-.22-.23-.22h-.25a1.59,1.59,0,0,1-1.17-.48,1.55,1.55,0,0,1-.47-1.14,1.65,1.65,0,0,1,.47-1.16,1.59,1.59,0,0,1,1.17-.48H34.87a1.59,1.59,0,0,1,1.17.48,1.65,1.65,0,0,1,.47,1.16A1.55,1.55,0,0,1,36,67.92a1.59,1.59,0,0,1-1.17.48h-11c-.18,0-.27.09-.27.28V78a.19.19,0,0,0,.08.17.2.2,0,0,0,.17,0,13.23,13.23,0,0,0,2.81-1.47q.25-.18.06-.39c-.41-.54-.81-1.13-1.2-1.76a1.69,1.69,0,0,1-.2-.75,1.53,1.53,0,0,1,.14-.64,1.52,1.52,0,0,1,1.09-.92v-.06a0,0,0,0,0,0,0h-.86a1.53,1.53,0,0,1-1.1-.44,1.56,1.56,0,0,1,0-2.21,1.53,1.53,0,0,1,1.1-.44ZM30.74,55.41a2.42,2.42,0,0,1,2.43,2.42V62a2.42,2.42,0,0,1-2.43,2.43H16.55A2.44,2.44,0,0,1,14.12,62V57.83a2.44,2.44,0,0,1,2.43-2.42ZM19.62,68.68a.25.25,0,0,0-.28-.28h-2.4a.24.24,0,0,0-.28.28v.14a.25.25,0,0,0,.28.28h2.4a.25.25,0,0,0,.28-.28Zm-2.68,3.2a.25.25,0,0,0-.28.28v.23c0,.18.09.27.28.27h2.4a.25.25,0,0,0,.28-.27v-.23a.25.25,0,0,0-.28-.28Zm-.28,4.21a.27.27,0,0,0,.09.2.19.19,0,0,0,.19,0l2.4-.14a.25.25,0,0,0,.28-.27v-.2a.25.25,0,0,0-.28-.28h-2.4a.24.24,0,0,0-.28.28ZM28.71,58.7a.25.25,0,0,0,.27-.28v-.14c0-.19-.09-.28-.27-.28H18.36a.25.25,0,0,0-.28.28v.14a.25.25,0,0,0,.28.28Zm0,3.15a.25.25,0,0,0,.27-.28V61.4a.25.25,0,0,0-.27-.28H18.36a.25.25,0,0,0-.28.28v.17a.25.25,0,0,0,.28.28Zm1.92,10.56a.12.12,0,0,0,0-.16.16.16,0,0,0-.14-.09H28.34a.16.16,0,0,0-.15.09.18.18,0,0,0,0,.16A11.44,11.44,0,0,0,29.26,74c.13.15.25.15.37,0A13.09,13.09,0,0,0,30.63,72.41Z"/><path class="cls-4" d="M50.12,73.75A1.65,1.65,0,0,1,50.84,75a1.13,1.13,0,0,1,0,.25,1.67,1.67,0,0,1-.42,1.11,1.5,1.5,0,0,1-1.2.59h0A1.53,1.53,0,0,1,48,76.4l0,0a.1.1,0,0,0-.11,0,.1.1,0,0,0-.06.09v3.15a2,2,0,1,1-4,0V77.12s0-.06-.07-.08-.08,0-.1,0c-.43.56-.88,1.09-1.34,1.59a1.64,1.64,0,0,1-1.2.5H41a2.08,2.08,0,0,1-1.36-.7,1.72,1.72,0,0,1-.45-1.2,1.8,1.8,0,0,1,.61-1.39,18.56,18.56,0,0,0,3.13-3.54.17.17,0,0,0,0-.17.16.16,0,0,0-.15-.08h-2a1.67,1.67,0,0,1-1.22-.5,1.74,1.74,0,0,1,0-2.44,1.61,1.61,0,0,1,1.22-.52h2.74a.25.25,0,0,0,.28-.28V67.17a.25.25,0,0,0-.28-.28H40.67A1.66,1.66,0,0,1,39,65.21a1.67,1.67,0,0,1,1.68-1.69h.39a.18.18,0,0,0,.16-.07.14.14,0,0,0,0-.15,6.37,6.37,0,0,0-.22-1A1.29,1.29,0,0,1,41,61.9a1.55,1.55,0,0,1,.17-.67,1.26,1.26,0,0,1,.81-.61v0H41a1.59,1.59,0,0,1-1.19-.5,1.65,1.65,0,0,1-.48-1.18,1.63,1.63,0,0,1,.48-1.18A1.65,1.65,0,0,1,41,57.25h2.56a.23.23,0,0,0,.26-.25v-.17a1.92,1.92,0,0,1,.58-1.42,2,2,0,0,1,3.43,1.42V57a.22.22,0,0,0,.25.25h2.57a1.66,1.66,0,0,1,1.18,2.84,1.56,1.56,0,0,1-1.18.5h-.51a.89.89,0,0,1,.65,1.23c-.38.85-.59,1.35-.65,1.48a.2.2,0,0,0,0,.15.13.13,0,0,0,.12.07h.53A1.61,1.61,0,0,1,52,64a1.64,1.64,0,0,1,.49,1.2,1.67,1.67,0,0,1-.49,1.2,1.64,1.64,0,0,1-1.19.48h-2.7a.25.25,0,0,0-.28.28v1.17a.24.24,0,0,0,.28.28h2.37a1.65,1.65,0,0,1,1.23.52,1.72,1.72,0,0,1-1.23,2.94H47.86s0,0,0,0a.05.05,0,0,0,0,0C48.32,72.43,49.08,73,50.12,73.75ZM47.38,60.84a.18.18,0,0,0,0-.16.2.2,0,0,0-.17-.09h-3a.19.19,0,0,0-.16.07.22.22,0,0,0,0,.18,8.53,8.53,0,0,1,.42,1.2,1.72,1.72,0,0,1,0,.31,1.1,1.1,0,0,1-.16.58,1.22,1.22,0,0,1-.76.56v0h4.58s0,0,0,0l0,0a1.36,1.36,0,0,1-.9-.67,1.29,1.29,0,0,1-.19-.67,1.36,1.36,0,0,1,.08-.44C47.23,61.41,47.31,61.12,47.38,60.84Zm10.07-.47a.31.31,0,0,0-.28.33v2.85a.25.25,0,0,0,.28.28h6.38a1.81,1.81,0,0,1,1.34.57,1.91,1.91,0,0,1,0,2.7,1.81,1.81,0,0,1-1.34.57h-.28a.23.23,0,0,0-.25.25V79.47a2,2,0,1,1-4,0V68a.25.25,0,0,0-.28-.28H57.45a.25.25,0,0,0-.28.28Q57,75.65,54.07,80a1.36,1.36,0,0,1-1.19.64h0a2,2,0,0,1-1.38-.59,2.31,2.31,0,0,1-.71-1.38,2.22,2.22,0,0,1,0-.37,2.25,2.25,0,0,1,.33-1.17,13.37,13.37,0,0,0,1.75-4.76,35.9,35.9,0,0,0,.43-5.72V58.81a1.52,1.52,0,0,1,.61-1.28,1.54,1.54,0,0,1,.95-.34,1.51,1.51,0,0,1,.46.07.8.8,0,0,0,.46,0,37.86,37.86,0,0,0,4.68-1.53,3.4,3.4,0,0,1,1.4-.31,2.33,2.33,0,0,1,.53.06,3.19,3.19,0,0,1,1.75.78,1.37,1.37,0,0,1,.48,1,1.27,1.27,0,0,1,0,.28,1.19,1.19,0,0,1-.87,1A45.36,45.36,0,0,1,57.45,60.37Z"/><path class="cls-4" d="M86.75,63.16a.25.25,0,0,0,.28.28H92.8a1.37,1.37,0,0,1,1,.43,1.43,1.43,0,0,1,.42,1,1.43,1.43,0,0,1-1.45,1.44h-16a1.43,1.43,0,0,1-1-.42,1.36,1.36,0,0,1-.43-1,1.47,1.47,0,0,1,1.47-1.46h5.55a.25.25,0,0,0,.28-.28v-.23c0-.18-.09-.27-.28-.27H77.16q-.09,0-.09-.06v0l-.39.2a1.71,1.71,0,0,1-.72.16,1.69,1.69,0,0,1-.7-.16,1.79,1.79,0,0,1-1-1,0,0,0,1,0-.06,0v18a1.75,1.75,0,0,1-.56,1.33,1.83,1.83,0,0,1-1.32.54A1.87,1.87,0,0,1,71,81.07a1.77,1.77,0,0,1-.55-1.33V64.89h0c-.09.81-.21,1.61-.36,2.39a1.29,1.29,0,0,1-.64.92,1.41,1.41,0,0,1-.7.2,1.2,1.2,0,0,1-.45-.09,1.56,1.56,0,0,1-.94-.8,1.71,1.71,0,0,1-.23-.87,2.38,2.38,0,0,1,0-.36c.22-1.1.41-2.34.56-3.74A2.22,2.22,0,0,1,68.54,61a2.14,2.14,0,0,1,1.37-.5h.31a.19.19,0,0,0,.18,0,.29.29,0,0,0,.07-.18V56.38a1.88,1.88,0,0,1,1.88-1.89,1.89,1.89,0,0,1,1.88,1.89v2.37a.13.13,0,0,0,0,.1s.07,0,.13,0l.64-.28a.91.91,0,0,1,.67,0,.9.9,0,0,1,.5.46h0v-.31a2.42,2.42,0,0,1,2.42-2.42h3.8c.13,0,.19-.07.19-.2A1.58,1.58,0,0,1,83.11,55a1.5,1.5,0,0,1,1.13-.47h.89a1.52,1.52,0,0,1,1.14.47,1.56,1.56,0,0,1,.48,1.14c0,.13.06.2.19.2h5a1.38,1.38,0,0,1,1,.42,1.39,1.39,0,0,1,0,2,1.38,1.38,0,0,1-1,.42H87a.24.24,0,0,0-.28.28v.22A.24.24,0,0,0,87,60h4.12a1.35,1.35,0,0,1,1,2.32,1.32,1.32,0,0,1-1,.39H87c-.19,0-.28.09-.28.27Zm-9.38-2.92a1,1,0,0,1,.71-.29h4.29a.24.24,0,0,0,.28-.28v-.22a.24.24,0,0,0-.28-.28H76.55a.16.16,0,0,0-.14.08.24.24,0,0,0,0,.2c.09.19.21.46.36.82L77,61s0,0,0,0A1,1,0,0,1,77.37,60.24Zm12.7,6.9a2.42,2.42,0,0,1,2.42,2.43v8.28a5.55,5.55,0,0,1-.32,2.09A2.19,2.19,0,0,1,91,81.08a7.25,7.25,0,0,1-2.76.56h-.11a2,2,0,0,1-1.28-.47A2.65,2.65,0,0,1,86,79.88a1.4,1.4,0,0,1-.06-.41,1.31,1.31,0,0,1,.25-.73,1.19,1.19,0,0,1,1-.5h.55l.34,0a.62.62,0,0,0,.4-.1.39.39,0,0,0,.13-.34v0a.24.24,0,0,0-.28-.28h-7c-.18,0-.27.09-.27.28v2a1.91,1.91,0,0,1-1.91,1.9,1.88,1.88,0,0,1-1.36-.56,1.83,1.83,0,0,1-.55-1.34V69.57a2.42,2.42,0,0,1,2.42-2.43Zm-1.48,3.27a.24.24,0,0,0-.28-.28h-7c-.18,0-.27.09-.27.28v.3c0,.19.09.28.27.28h7a.24.24,0,0,0,.28-.28Zm-7.58,4c0,.19.09.28.27.28h7a.24.24,0,0,0,.28-.28v-.22a.25.25,0,0,0-.28-.28h-7a.25.25,0,0,0-.27.28Z"/><path class="cls-4" d="M104.73,60.2a.25.25,0,0,0-.28.28v.92a.24.24,0,0,0,.28.28h2.51a1.69,1.69,0,0,1,1.21.5,1.68,1.68,0,0,1,0,2.43,1.69,1.69,0,0,1-1.21.5h-.17s0,0,0,0,0,0,0,0a.66.66,0,0,1,.46.39.69.69,0,0,1,0,.61c-.1.2-.22.5-.38.89a7.61,7.61,0,0,1-.38.84.23.23,0,0,0,0,.11.09.09,0,0,0,.08.06,1.57,1.57,0,0,1,1.59,1.58v.14A1.68,1.68,0,0,1,108,71a1.64,1.64,0,0,1-1.22.51h-2a.25.25,0,0,0-.28.28v1.14a.24.24,0,0,0,.28.28h1.76a1.74,1.74,0,0,1,1.73,1.73,1.72,1.72,0,0,1-1.73,1.73h-1.76a.24.24,0,0,0-.28.28v2.7a1.8,1.8,0,0,1-.56,1.34,1.91,1.91,0,0,1-3.26-1.34v-2.7a.24.24,0,0,0-.28-.28h-2a1.72,1.72,0,0,1-1.22-.5,1.66,1.66,0,0,1-.51-1.23,1.64,1.64,0,0,1,.51-1.22,1.69,1.69,0,0,1,1.22-.51h2a.24.24,0,0,0,.28-.28V71.77a.25.25,0,0,0-.28-.28H98.12A1.64,1.64,0,0,1,96.9,71a1.68,1.68,0,0,1-.5-1.22v-.08A1.62,1.62,0,0,1,98,68c.13,0,.18-.07.14-.2a17.21,17.21,0,0,0-.48-1.7.91.91,0,0,1,.07-.63.73.73,0,0,1,.46-.37s0,0,0,0,0,0,0,0h-.78a1.67,1.67,0,0,1-1.22-.5,1.73,1.73,0,0,1,0-2.43,1.67,1.67,0,0,1,1.22-.5h2.9a.24.24,0,0,0,.28-.28v-.92a.25.25,0,0,0-.28-.28H98.43a1.66,1.66,0,0,1-1.2-.49,1.6,1.6,0,0,1-.5-1.19,1.71,1.71,0,0,1,1.7-1.72h2a.19.19,0,0,0,.22-.22v-.06a1.85,1.85,0,0,1,.56-1.34,1.93,1.93,0,0,1,2.7,0,1.81,1.81,0,0,1,.56,1.34v.06a.2.2,0,0,0,.22.22h1.57a1.71,1.71,0,0,1,1.7,1.72,1.6,1.6,0,0,1-.5,1.19,1.66,1.66,0,0,1-1.2.49ZM104.31,68v0a.75.75,0,0,1-.5-.92c.19-.56.35-1.13.5-1.7a.23.23,0,0,0,0-.2.18.18,0,0,0-.16-.08H101a.21.21,0,0,0-.17.08.23.23,0,0,0,0,.2c.23.61.4,1.17.54,1.67a.73.73,0,0,1-.1.59.88.88,0,0,1-.49.36v0Zm15-2.51a1.74,1.74,0,0,1,.45-.06,1.81,1.81,0,0,1,.69.14l.67.25a1.47,1.47,0,0,1,.84.67,1.55,1.55,0,0,1,.19.75,1.67,1.67,0,0,1,0,.31,28.35,28.35,0,0,1-2.43,7.72.38.38,0,0,0,.08.45,12.84,12.84,0,0,0,1.71,1.53,1.89,1.89,0,0,1,.75,1.26v.28a1.69,1.69,0,0,1-.42,1.11,2.17,2.17,0,0,1-1.39.86l-.37,0a1.79,1.79,0,0,1-1.14-.42,15.07,15.07,0,0,1-1.28-1.25.21.21,0,0,0-.36,0l-.81.92a2,2,0,0,1-1.42.58h-.2a2.76,2.76,0,0,1-1.64-.81l-.06,0a.06.06,0,0,0-.08,0s-.06,0-.06.08a1.66,1.66,0,0,1-1.67,1.67h-.2a1.86,1.86,0,0,1-1.87-1.86V58.06a2.44,2.44,0,0,1,2.43-2.43h7.53a2.42,2.42,0,0,1,2.42,2.43V61a5.34,5.34,0,0,1-.33,2.09,2.21,2.21,0,0,1-1.26,1.15,9.31,9.31,0,0,1-3,.53H117a2.06,2.06,0,0,1-1.34-.48,2.57,2.57,0,0,1-.89-1.31,1.64,1.64,0,0,1-.06-.42,1.26,1.26,0,0,1,.23-.72,1.15,1.15,0,0,1,1-.53h1.37a1,1,0,0,0,.44-.1c.08,0,.11-.14.11-.29V59.5c0-.18-.09-.27-.28-.27h-4.26c-.19,0-.28.09-.28.27v5.78c0,.18.09.27.28.27h5.88A.36.36,0,0,0,119.31,65.53Zm-6.22,5.8s0-.06,0,0a.05.05,0,0,0,0,0v6.44a.11.11,0,0,0,.2.08,13.7,13.7,0,0,0,1.72-1.92.36.36,0,0,0,0-.45A31.53,31.53,0,0,1,113.09,71.33ZM118,69.07a.18.18,0,0,0,0-.17.22.22,0,0,0-.18-.08h-1.9a.17.17,0,0,0-.15.08.13.13,0,0,0,0,.17,18.26,18.26,0,0,0,1.2,2.73.11.11,0,0,0,.11.08c.06,0,.1,0,.11-.08A17.38,17.38,0,0,0,118,69.07Z"/><path class="cls-3" d="M35.06,34.52V31.6a.19.19,0,0,0-.21-.21H32.09a1.32,1.32,0,0,1-1.34-1.34,1.33,1.33,0,0,1,.38-.95,1.28,1.28,0,0,1,1-.4h2.76a.19.19,0,0,0,.21-.21V25.61a1.4,1.4,0,0,1,1.39-1.41,1.35,1.35,0,0,1,1,.41,1.34,1.34,0,0,1,.41,1v2.88a.19.19,0,0,0,.21.21h2.78a1.34,1.34,0,0,1,.94,2.3,1.29,1.29,0,0,1-.94.39H38.06a.19.19,0,0,0-.21.21v2.92a1.31,1.31,0,0,1-.41,1,1.39,1.39,0,0,1-2,0A1.31,1.31,0,0,1,35.06,34.52Z"/><path class="cls-3" d="M93.28,108V105a.19.19,0,0,0-.21-.21H90.32a1.3,1.3,0,0,1-1-.39,1.28,1.28,0,0,1-.39-.94,1.32,1.32,0,0,1,.39-1,1.28,1.28,0,0,1,1-.4h2.75a.19.19,0,0,0,.21-.21V99a1.4,1.4,0,0,1,1.4-1.41,1.35,1.35,0,0,1,1,.41,1.37,1.37,0,0,1,.41,1v2.88a.19.19,0,0,0,.21.21h2.78a1.26,1.26,0,0,1,.94.4,1.29,1.29,0,0,1,.4,1,1.25,1.25,0,0,1-.4.94,1.29,1.29,0,0,1-.94.39H96.29a.19.19,0,0,0-.21.21V108a1.4,1.4,0,0,1-1.4,1.39,1.38,1.38,0,0,1-1-.41A1.34,1.34,0,0,1,93.28,108Z"/><path class="cls-3" d="M77.35,49.05V47.23a.12.12,0,0,0-.13-.13H75.5a.81.81,0,0,1-.59-.24.79.79,0,0,1-.24-.59.84.84,0,0,1,.83-.84h1.72a.12.12,0,0,0,.13-.13V43.51a.87.87,0,1,1,1.73,0V45.3a.12.12,0,0,0,.13.13h1.73a.85.85,0,0,1,.59.25.82.82,0,0,1,.24.59.79.79,0,0,1-.24.59.84.84,0,0,1-.59.24H79.21a.12.12,0,0,0-.13.13v1.82a.82.82,0,0,1-.25.61.88.88,0,0,1-1.23,0A.82.82,0,0,1,77.35,49.05Z"/></svg>