<svg id="レイヤー_1" data-name="レイヤー 1" xmlns="http://www.w3.org/2000/svg" viewBox="0 0 132.68 133.19"><defs><style>.cls-1{fill:#ff93ff;}.cls-2{fill:#fff;}.cls-3{fill:#9f00c9;}.cls-4{fill:#002a8a;stroke:#fff;stroke-miterlimit:10;stroke-width:0.25px;}</style></defs><path class="cls-1" d="M14.7,34.35V31.42a.19.19,0,0,0-.21-.21H11.74a1.3,1.3,0,0,1-1-.39,1.26,1.26,0,0,1-.39-.94,1.34,1.34,0,0,1,.39-1,1.31,1.31,0,0,1,1-.4h2.75a.19.19,0,0,0,.21-.21V25.43A1.4,1.4,0,0,1,16.1,24a1.35,1.35,0,0,1,1,.41,1.39,1.39,0,0,1,.41,1v2.88a.19.19,0,0,0,.21.21h2.77a1.32,1.32,0,0,1,.95.4,1.31,1.31,0,0,1,.4,1,1.23,1.23,0,0,1-.4.94,1.31,1.31,0,0,1-.95.39H17.71a.19.19,0,0,0-.21.21v2.93a1.34,1.34,0,0,1-.41,1,1.31,1.31,0,0,1-1,.41,1.4,1.4,0,0,1-1.4-1.38Z"/><path class="cls-1" d="M72.93,107.78v-2.92a.19.19,0,0,0-.21-.21H70a1.33,1.33,0,0,1-1.35-1.34,1.34,1.34,0,0,1,.39-1,1.31,1.31,0,0,1,1-.4h2.75a.19.19,0,0,0,.21-.21V98.86a1.35,1.35,0,0,1,.41-1,1.31,1.31,0,0,1,1-.41,1.4,1.4,0,0,1,1.4,1.4v2.88a.19.19,0,0,0,.21.21h2.77a1.32,1.32,0,0,1,1,.4,1.35,1.35,0,0,1,.4,1,1.35,1.35,0,0,1-1.35,1.34H75.94a.19.19,0,0,0-.21.21v2.92a1.36,1.36,0,0,1-.41,1,1.38,1.38,0,0,1-1,.41,1.4,1.4,0,0,1-1.4-1.39Z"/><path class="cls-1" d="M57,48.88V47.06c0-.09,0-.13-.13-.13H55.15a.83.83,0,0,1-.59-1.42.78.78,0,0,1,.59-.25h1.71a.12.12,0,0,0,.13-.13V43.34a.89.89,0,0,1,.87-.88.85.85,0,0,1,.62.26.83.83,0,0,1,.25.62v1.79a.12.12,0,0,0,.13.13h1.73a.83.83,0,0,1,.58,1.43.8.8,0,0,1-.58.24H58.86c-.09,0-.13,0-.13.13v1.82a.82.82,0,0,1-.25.6.85.85,0,0,1-.62.26.89.89,0,0,1-.87-.86Z"/><path class="cls-2" d="M66.44,3.77a62.34,62.34,0,0,0-6,124.39c2,.19,4,.29,6,.29a62.43,62.43,0,0,0,62.34-62.34A62.41,62.41,0,0,0,66.44,3.77Z"/><path class="cls-3" d="M66.44-.23a66.33,66.33,0,0,0-5.7,132.42c2,.17,3.92.26,5.7.26a67.56,67.56,0,0,0,8.61-.58A66.33,66.33,0,0,0,66.44-.23Zm8.69,128.06a63,63,0,0,1-8.69.62c-1.93,0-3.93-.1-6-.29a62.37,62.37,0,1,1,14.65-.33Z"/><path class="cls-1" d="M43,58H40.18A10.86,10.86,0,1,0,26.5,58H23.74a4.23,4.23,0,0,0-4.24,4.23v29.4a4.24,4.24,0,0,0,4.24,4.24H43a4.23,4.23,0,0,0,4.23-4.24V62.22A4.23,4.23,0,0,0,43,58Z"/><path class="cls-1" d="M75.86,57.65H73.09a10.86,10.86,0,1,0-13.68,0H56.64a4.24,4.24,0,0,0-4.23,4.24v29.4a4.23,4.23,0,0,0,4.23,4.23H75.86a4.23,4.23,0,0,0,4.23-4.23V61.89A4.23,4.23,0,0,0,75.86,57.65Z"/><path class="cls-1" d="M109.06,57.65h-2.77a10.87,10.87,0,1,0-13.67,0H89.85a4.24,4.24,0,0,0-4.24,4.24v29.4a4.23,4.23,0,0,0,4.24,4.23h19.21a4.23,4.23,0,0,0,4.24-4.23V61.89A4.24,4.24,0,0,0,109.06,57.65Z"/><path class="cls-4" d="M33,79.17a3.82,3.82,0,0,1-2.42-.83,3.92,3.92,0,0,1-1.4-2.11l-.7-2.84a.38.38,0,0,0-.42-.35h-7.2a.38.38,0,0,0-.42.35l-.7,2.84a3.92,3.92,0,0,1-1.4,2.11,3.82,3.82,0,0,1-2.42.83h-.42a2.22,2.22,0,0,1-1.82-.91,2.29,2.29,0,0,1-.42-1.3,2.49,2.49,0,0,1,.11-.7l6.47-20.85a4,4,0,0,1,1.49-2.1,4.12,4.12,0,0,1,2.47-.8h1.57a4,4,0,0,1,2.43.8,3.94,3.94,0,0,1,1.49,2.1l6.47,20.85a2,2,0,0,1,.14.7,2.12,2.12,0,0,1-.45,1.3,2.16,2.16,0,0,1-1.82.91ZM21.85,67.76a.27.27,0,0,0,0,.25.24.24,0,0,0,.21.1h4.76a.24.24,0,0,0,.21-.1.31.31,0,0,0,0-.25l-.49-1.92q-.36-1.41-1.05-4.32c-.47-2-.81-3.35-1-4.18a.1.1,0,0,0-.1-.07c-.05,0-.07,0-.07.07-.94,4-1.61,6.79-2,8.5Z"/><path class="cls-4" d="M49.84,79.66A7,7,0,0,1,44.62,77a.32.32,0,0,0-.14,0,.06.06,0,0,0-.07.07l0,.14a2.51,2.51,0,0,1-.89,1.41,2.42,2.42,0,0,1-1.56.55h-.49A2.48,2.48,0,0,1,39,76.68V53.59a2.9,2.9,0,0,1,.89-2.15A2.94,2.94,0,0,1,42,50.55h.24a3,3,0,0,1,2.16.89,2.94,2.94,0,0,1,.89,2.15V57.4l-.14,2.7a.18.18,0,0,0,.09.16.11.11,0,0,0,.15,0,7.67,7.67,0,0,1,5-2,7,7,0,0,1,5.84,2.82,11.94,11.94,0,0,1,2.17,7.5,14.6,14.6,0,0,1-.72,4.69,10.17,10.17,0,0,1-1.92,3.5A8.81,8.81,0,0,1,53,78.9,7.08,7.08,0,0,1,49.84,79.66Zm-1.51-5.22A2.94,2.94,0,0,0,50.87,73a7.67,7.67,0,0,0,1-4.3,7.82,7.82,0,0,0-.8-4,2.74,2.74,0,0,0-2.49-1.29,4.3,4.3,0,0,0-3,1.47.85.85,0,0,0-.24.63V72.9a.65.65,0,0,0,.28.56A4.26,4.26,0,0,0,48.33,74.44Z"/><path class="cls-4" d="M71.35,79.66a9.88,9.88,0,0,1-3.76-.74,10.27,10.27,0,0,1-3.2-2.06,9.48,9.48,0,0,1-2.22-3.38A11.88,11.88,0,0,1,61.35,69a12.07,12.07,0,0,1,.82-4.52,9.52,9.52,0,0,1,2.22-3.39A10.12,10.12,0,0,1,67.59,59a9.87,9.87,0,0,1,3.76-.73,9.62,9.62,0,0,1,3.71.73,10.31,10.31,0,0,1,3.19,2.07,9.52,9.52,0,0,1,2.22,3.39A12.07,12.07,0,0,1,81.29,69a11.88,11.88,0,0,1-.82,4.49,9.48,9.48,0,0,1-2.22,3.38,10.46,10.46,0,0,1-3.19,2.06A9.63,9.63,0,0,1,71.35,79.66Zm0-5.15a2.78,2.78,0,0,0,2.57-1.45A8,8,0,0,0,74.78,69a8.1,8.1,0,0,0-.86-4.1,2.78,2.78,0,0,0-2.57-1.47,2.86,2.86,0,0,0-2.62,1.47,8.09,8.09,0,0,0-.87,4.1,8,8,0,0,0,.87,4.07A2.86,2.86,0,0,0,71.35,74.51Z"/><path class="cls-4" d="M91.44,79.66a5.52,5.52,0,0,1-4.8-2.15A10.44,10.44,0,0,1,85.1,71.4V61.81a3.06,3.06,0,0,1,3.05-3h.28a3,3,0,0,1,3,3v8.78A5.41,5.41,0,0,0,92,73.45a2.05,2.05,0,0,0,1.81.78,3.45,3.45,0,0,0,1.74-.42A5,5,0,0,0,97,72.41a.92.92,0,0,0,.21-.63v-10a3.06,3.06,0,0,1,3.05-3h.28a3,3,0,0,1,3,3V76.58A2.58,2.58,0,0,1,101,79.17H101A2.87,2.87,0,0,1,99,78.45a2.94,2.94,0,0,1-1-1.8l0-.21a.12.12,0,0,0-.11-.07.1.1,0,0,0-.1.07,10.4,10.4,0,0,1-2.87,2.39A7.08,7.08,0,0,1,91.44,79.66Z"/><path class="cls-4" d="M116.73,79.66q-3.7,0-5.46-2.12a9.09,9.09,0,0,1-1.75-5.93V64.05a.25.25,0,0,0-.28-.28h-.1a2.29,2.29,0,0,1-1.68-.7,2.26,2.26,0,0,1-.7-1.68,2.52,2.52,0,0,1,.68-1.75,2.48,2.48,0,0,1,1.7-.8l.42,0a.37.37,0,0,0,.38-.35l.32-2.41a2.83,2.83,0,0,1,1-1.87,3,3,0,0,1,2-.75,2.66,2.66,0,0,1,2.66,2.66v2.34a.31.31,0,0,0,.35.35h2a2.5,2.5,0,0,1,0,5h-2a.31.31,0,0,0-.35.35v7.42c0,1.89.71,2.93,2.13,3.11a4.83,4.83,0,0,1,1.84.63,2,2,0,0,1,1,1.33,2.58,2.58,0,0,1,.07.6,2.28,2.28,0,0,1-.39,1.26,2,2,0,0,1-1.46,1A15.3,15.3,0,0,1,116.73,79.66Z"/><path class="cls-1" d="M50.74,22.64V19.71a.19.19,0,0,0-.21-.21H47.78a1.3,1.3,0,0,1-1-.39,1.26,1.26,0,0,1-.39-.94,1.34,1.34,0,0,1,.39-1,1.31,1.31,0,0,1,1-.4h2.75a.19.19,0,0,0,.21-.21V13.72a1.39,1.39,0,0,1,.41-1,1.35,1.35,0,0,1,1-.41,1.4,1.4,0,0,1,1.4,1.41V16.6a.19.19,0,0,0,.21.21h2.77a1.32,1.32,0,0,1,.95.4,1.31,1.31,0,0,1,.4,1,1.23,1.23,0,0,1-.4.94,1.31,1.31,0,0,1-.95.39H53.75a.19.19,0,0,0-.21.21v2.93A1.4,1.4,0,0,1,52.14,24a1.31,1.31,0,0,1-1-.41A1.34,1.34,0,0,1,50.74,22.64Z"/><path class="cls-1" d="M50.74,118.14v-2.92a.19.19,0,0,0-.21-.21H47.78a1.3,1.3,0,0,1-1-.39,1.28,1.28,0,0,1-.39-1,1.3,1.3,0,0,1,.39-1,1.28,1.28,0,0,1,1-.4h2.75a.19.19,0,0,0,.21-.21v-2.88a1.37,1.37,0,0,1,.41-1,1.35,1.35,0,0,1,1-.41,1.4,1.4,0,0,1,1.4,1.41v2.88a.19.19,0,0,0,.21.21h2.77a1.29,1.29,0,0,1,.95.4,1.27,1.27,0,0,1,.4,1,1.25,1.25,0,0,1-.4,1,1.31,1.31,0,0,1-.95.39H53.75a.19.19,0,0,0-.21.21v2.92a1.34,1.34,0,0,1-.41,1,1.38,1.38,0,0,1-1,.41,1.4,1.4,0,0,1-1.4-1.39Z"/><path class="cls-1" d="M98.34,32.82V29.9a.19.19,0,0,0-.21-.21H95.37A1.33,1.33,0,0,1,94,28.35a1.3,1.3,0,0,1,.39-1,1.25,1.25,0,0,1,1-.4h2.76a.19.19,0,0,0,.21-.21V23.91a1.4,1.4,0,0,1,1.39-1.41,1.35,1.35,0,0,1,1,.41,1.34,1.34,0,0,1,.41,1v2.88a.19.19,0,0,0,.21.21h2.78a1.34,1.34,0,0,1,.94,2.3,1.29,1.29,0,0,1-.94.39h-2.78a.19.19,0,0,0-.21.21v2.92a1.31,1.31,0,0,1-.41,1,1.39,1.39,0,0,1-2,0A1.31,1.31,0,0,1,98.34,32.82Z"/><path class="cls-1" d="M102.42,106.09v-1.82c0-.09,0-.13-.13-.13h-1.71a.83.83,0,0,1-.59-1.42.78.78,0,0,1,.59-.25h1.71a.12.12,0,0,0,.13-.13v-1.79a.89.89,0,0,1,.87-.88.85.85,0,0,1,.62.26.83.83,0,0,1,.25.62v1.79a.12.12,0,0,0,.13.13H106a.83.83,0,0,1,.58,1.43.8.8,0,0,1-.58.24h-1.73c-.09,0-.13,0-.13.13v1.82a.82.82,0,0,1-.25.6.85.85,0,0,1-.62.26.89.89,0,0,1-.87-.86Z"/><path class="cls-1" d="M15.24,52.51V50.7a.12.12,0,0,0-.13-.13H13.39a.81.81,0,0,1-.59-.24.82.82,0,0,1-.24-.59.85.85,0,0,1,.24-.6.82.82,0,0,1,.59-.25h1.72a.12.12,0,0,0,.13-.13V47a.84.84,0,0,1,.25-.62.82.82,0,0,1,.61-.25A.85.85,0,0,1,17,47v1.79a.12.12,0,0,0,.13.13h1.73a.84.84,0,0,1,.83.85.82.82,0,0,1-.24.59.84.84,0,0,1-.59.24H17.1a.12.12,0,0,0-.13.13v1.81a.82.82,0,0,1-.25.61.85.85,0,0,1-.62.26.83.83,0,0,1-.61-.26A.82.82,0,0,1,15.24,52.51Z"/></svg>