<svg id="レイヤー_1" data-name="レイヤー 1" xmlns="http://www.w3.org/2000/svg" viewBox="0 0 89 35"><defs><style>.cls-1{fill:#e3538e;}.cls-2{fill:#ff64af;}.cls-3{fill:none;}.cls-4{fill:#ff348e;}.cls-5{fill:#df348e;}.cls-6{fill:#ffcf00;}</style></defs><path class="cls-1" d="M16.393,20.347a6.078,6.078,0,1,0,7.074,4.878,6.076,6.076,0,0,0-7.074-4.878m1.83,9.962a4.052,4.052,0,1,1,3.253-4.718,4.053,4.053,0,0,1-3.253,4.718"/><path class="cls-2" d="M3.31,17.625l0,.02c-.957.4-1.429,2.215-1.052,4.268s1.464,3.581,2.5,3.615l0,.021,30.053,2.687L30.446,4.442Z"/><path class="cls-3" d="M59.2,13.371A2.335,2.335,0,0,0,57.1,16.2a2.4,2.4,0,1,0,4.766-.518A2.336,2.336,0,0,0,59.2,13.371Z"/><path class="cls-3" d="M42.155,15.609a1.965,1.965,0,0,0-2.568.338,2.125,2.125,0,0,0-.459,1.092l3.718-.405A1.965,1.965,0,0,0,42.155,15.609Z"/><path class="cls-3" d="M78.4,11.284A2.351,2.351,0,0,0,76.449,14.1a2.357,2.357,0,0,0,2.508,2.312,2.3,2.3,0,0,0,1.994-2.782A2.314,2.314,0,0,0,78.4,11.284Z"/><path class="cls-4" d="M38.09,15.144c-1.239-6.511-4.416-11.361-7.142-10.86-1.76.323-2.9,2.8-3.178,6.274l1.148-.125c1.64-.178,2.691-.08,3.615.61a3.279,3.279,0,0,1,1.285,2.405A2.794,2.794,0,0,1,33.6,15a2.127,2.127,0,0,1-.858.98,3.532,3.532,0,0,1,1.74.737,3.33,3.33,0,0,1,1.1,2.292,3.117,3.117,0,0,1-.59,2.378,4.956,4.956,0,0,1-3.431,1.627l-1.545.168c1.509,3.309,3.517,5.347,5.329,5.014,1.869-.343,3.041-3.116,3.221-6.928a4.378,4.378,0,0,1-1.34-2.765A4.75,4.75,0,0,1,38.09,15.144Z"/><path class="cls-5" d="M33.649,19a1.921,1.921,0,0,0-.659-1.278,2.806,2.806,0,0,0-2.064-.354l-1.22.132.415,3.812,1.181-.128a3.374,3.374,0,0,0,1.872-.705A1.827,1.827,0,0,0,33.649,19Z"/><path class="cls-5" d="M31.651,15.17a1.943,1.943,0,0,0,.339-1.5A1.583,1.583,0,0,0,31.4,12.5a2.1,2.1,0,0,0-1.6-.308l-.666.072.395,3.641.59-.063A2.253,2.253,0,0,0,31.651,15.17Z"/><path class="cls-6" d="M34.989,21.384a3.117,3.117,0,0,0,.59-2.378,3.33,3.33,0,0,0-1.1-2.292,3.532,3.532,0,0,0-1.74-.737A2.127,2.127,0,0,0,33.6,15a2.794,2.794,0,0,0,.218-1.549,3.279,3.279,0,0,0-1.285-2.405c-.924-.69-1.975-.788-3.615-.61l-1.148.125a25.722,25.722,0,0,0,.393,6.6,26.013,26.013,0,0,0,1.85,6.025l1.545-.168A4.956,4.956,0,0,0,34.989,21.384Zm-5.852-9.123.666-.072a2.1,2.1,0,0,1,1.6.308,1.583,1.583,0,0,1,.591,1.171,1.943,1.943,0,0,1-.339,1.5,2.253,2.253,0,0,1-1.529.669l-.59.063Zm.984,9.054L29.706,17.5l1.22-.132a2.806,2.806,0,0,1,2.064.354A1.921,1.921,0,0,1,33.649,19a1.827,1.827,0,0,1-.475,1.479,3.374,3.374,0,0,1-1.872.705Z"/><path class="cls-6" d="M42.742,19.944a1.977,1.977,0,0,1-1.234.538,1.92,1.92,0,0,1-1.485-.358,2.669,2.669,0,0,1-.862-1.546l5.757-.626-.025-.229A4.853,4.853,0,0,0,43.4,14.452a3.473,3.473,0,0,0-2.688-.768,3.675,3.675,0,0,0-2.57,1.378c-.021.025-.032.056-.052.082.011.06.025.118.037.178a26.426,26.426,0,0,1,.436,5.943c.061.056.111.124.176.176a3.584,3.584,0,0,0,2.818.734,4.449,4.449,0,0,0,2.3-.867,4.232,4.232,0,0,0,1.194-1.615l-1.658-.707A2.922,2.922,0,0,1,42.742,19.944Zm-3.155-4a1.965,1.965,0,0,1,2.568-.338,1.965,1.965,0,0,1,.691,1.025l-3.718.405A2.125,2.125,0,0,1,39.587,15.947Z"/><path class="cls-6" d="M38.127,15.322c-.012-.06-.026-.118-.037-.178a4.75,4.75,0,0,0-.867,3.356,4.378,4.378,0,0,0,1.34,2.765A26.426,26.426,0,0,0,38.127,15.322Z"/><polygon class="cls-6" points="50.358 17.592 47.56 13.151 45.311 13.395 49.479 19.791 47.136 25.735 49.232 25.507 54.272 12.421 52.174 12.649 50.358 17.592"/><path class="cls-6" d="M59.017,11.693a4.169,4.169,0,0,0-3.831,4.7,4.315,4.315,0,0,0,8.58-.932A4.168,4.168,0,0,0,59.017,11.693Zm.739,6.806A2.323,2.323,0,0,1,57.1,16.2a2.4,2.4,0,1,1,4.766-.518A2.324,2.324,0,0,1,59.756,18.5Z"/><path class="cls-6" d="M71.757,11.407a2.7,2.7,0,0,0-2.482-.828,2.777,2.777,0,0,0-2.069,1.188l-.081-.743-1.868.2.872,8.026L68,19.05l-.418-3.85c-.282-2.593.563-2.8,1.4-2.892.706-.077,1.474-.1,1.7,1.937l.485,4.46,1.87-.2L72.5,13.585A3.6,3.6,0,0,0,71.757,11.407Z"/><path class="cls-6" d="M81.624,3.507l-1.868.2.74,6.806a2.945,2.945,0,0,0-2.507-.885,3.946,3.946,0,0,0-3.45,4.637c.24,2.212,1.875,4.118,4.353,3.848a3.1,3.1,0,0,0,2.284-1.348l.091.839,1.868-.2ZM78.957,16.412A2.357,2.357,0,0,1,76.449,14.1,2.351,2.351,0,0,1,78.4,11.284a2.314,2.314,0,0,1,2.551,2.346A2.3,2.3,0,0,1,78.957,16.412Z"/><path class="cls-6" d="M60.6,22.341l.064,8.882-9.059.065L51.6,29.779l7.385-.053-.042-5.863-7.385.053-.011-1.51Z"/><path class="cls-6" d="M65.632,31.364l-1.761.012L63.8,22.143l9.889-.072L73.76,31.3l-8.128.06-.011-1.534,6.367-.046-.044-6.165-6.367.046Z"/><path class="cls-6" d="M80.883,23.617l-.017-2.352,1.762-.013.017,2.353,4.025-.03.011,1.6-4.025.03,0,.289c.028,3.749-1.456,5.583-4.975,6.288l-.539-1.556c2.814-.573,3.774-1.762,3.752-4.72l0-.289-4.856.035-.011-1.6Z"/></svg>