<svg id="レイヤー_1" data-name="レイヤー 1" xmlns="http://www.w3.org/2000/svg" xmlns:xlink="http://www.w3.org/1999/xlink" viewBox="0 0 499.87 500"><defs><style>.cls-1{fill:none;}.cls-2{fill:#107eff;}.cls-3{fill:#fff;}.cls-4{clip-path:url(#clip-path);}.cls-5{fill:#f83d8e;}.cls-6{fill:#ff63b7;}.cls-7{fill:#ee3564;}</style><clipPath id="clip-path"><rect class="cls-1" x="85.58" y="130.18" width="316.19" height="243.44"/></clipPath></defs><path class="cls-2" d="M108.63,0H391.24c31.9,0,51,0,63.79,5.33a66.25,66.25,0,0,1,39.58,39.6c5.33,12.77,5.33,31.92,5.33,63.84V391.23c0,31.92,0,51.07-5.33,63.84A66.25,66.25,0,0,1,455,494.67C442.27,500,423.14,500,391.24,500H108.63c-31.9,0-51,0-63.79-5.33a66.25,66.25,0,0,1-39.58-39.6C-.06,442.3-.06,423.15-.06,391.23V108.77c0-31.92,0-51.07,5.32-63.84A66.25,66.25,0,0,1,44.84,5.33C57.6,0,76.73,0,108.63,0Z"/><path class="cls-3" d="M80.82,446.5a3.18,3.18,0,0,1-.95,2.34,3.12,3.12,0,0,1-2.29,1H75.77a1.49,1.49,0,0,1-1.47-1.47c0-.12-.06-.18-.17-.18H69.94c-.11,0-.17.06-.17.18a1.49,1.49,0,0,1-1.47,1.47H66.53a3.24,3.24,0,0,1-3.28-3.29v-9.59a.38.38,0,0,0-.43-.43H58.93a.38.38,0,0,0-.43.43v15.77a.38.38,0,0,0,.43.43H82.59a3.08,3.08,0,0,1,2.16,5.27,2.92,2.92,0,0,1-2.16.91H58.76a.23.23,0,0,0-.26.26,2.19,2.19,0,0,1-.69,1.62,2.27,2.27,0,0,1-1.64.67h-1a3.31,3.31,0,0,1-3.32-3.33v-21.6a.38.38,0,0,0-.43-.43H48.74a3,3,0,0,1-2.16-.91,3.13,3.13,0,0,1,0-4.41,3,3,0,0,1,2.16-.91h2.68a.38.38,0,0,0,.43-.43v-5.27a3.33,3.33,0,0,1,3.32-3.33,3.33,3.33,0,0,1,3.33,3.33v5.27a.38.38,0,0,0,.43.43h3.89a.38.38,0,0,0,.43-.43v-6.26a3.24,3.24,0,0,1,3.26-3.24,3.24,3.24,0,0,1,3.26,3.24v6.26a.38.38,0,0,0,.43.43h3.67a.38.38,0,0,0,.43-.43V424a3.26,3.26,0,0,1,5.57-2.29,3.08,3.08,0,0,1,.95,2.29v5.87a.38.38,0,0,0,.43.43h2.94a3,3,0,0,1,2.16.91,3.13,3.13,0,0,1,0,4.41,3,3,0,0,1-2.16.91H81.25a.38.38,0,0,0-.43.43Zm-11-4.75a.38.38,0,0,0,.43.43h3.67a.38.38,0,0,0,.43-.43v-4.84a.38.38,0,0,0-.43-.43H70.2a.38.38,0,0,0-.43.43ZM127,437.17a3.76,3.76,0,0,1-3.75,3.76h-2.12c-.06,0-.09,0-.11.11a.13.13,0,0,0,.07.15,27.59,27.59,0,0,0,7.38,3.8,2.1,2.1,0,0,1,1.43,1.51,3.25,3.25,0,0,1,.08.69,2.31,2.31,0,0,1-.47,1.39,5.07,5.07,0,0,1-2.42,1.72,3.54,3.54,0,0,1-1.25.22,3.68,3.68,0,0,1-1.56-.35,23.64,23.64,0,0,1-3-1.64.29.29,0,0,0-.24,0,.22.22,0,0,0-.1.2v9.55a3.25,3.25,0,0,1-1,2.4,3.39,3.39,0,0,1-4.75,0,3.24,3.24,0,0,1-1-2.4V449a2.92,2.92,0,0,1,.91-2.16,3,3,0,0,1,2.2-.91s.06,0,.09-.11a.19.19,0,0,0,0-.15,27.92,27.92,0,0,1-4.19-4.41.83.83,0,0,0-.69-.34H109.1a.83.83,0,0,0-.69.34,30,30,0,0,1-4.14,4.28c-.06,0-.07.08,0,.15a.14.14,0,0,0,.12.11,3.2,3.2,0,0,1,2.36,1,3.15,3.15,0,0,1,1,2.31q0,8-7.21,11.76a4.23,4.23,0,0,1-1.64.34,3.58,3.58,0,0,1-1.12-.17,5,5,0,0,1-2.38-1.64,2.15,2.15,0,0,1-.56-1.43,3.28,3.28,0,0,1,0-.56,2.26,2.26,0,0,1,1.3-1.64c3.31-1.61,5-3.95,5-7v-.35a.2.2,0,0,0-.13-.19.23.23,0,0,0-.21,0A31.43,31.43,0,0,1,97,450.26a3.87,3.87,0,0,1-1.59.35,3.7,3.7,0,0,1-1.13-.18,4.45,4.45,0,0,1-2.37-1.59,2.23,2.23,0,0,1-.52-1.43,2.38,2.38,0,0,1,1.47-2.16,31.34,31.34,0,0,0,7.34-4.06c.06,0,.07-.08,0-.15s-.07-.11-.13-.11H98.35a3.76,3.76,0,0,1-3.75-3.76V425.11a3.76,3.76,0,0,1,3.75-3.76h24.92a3.76,3.76,0,0,1,3.75,3.76ZM101.46,426.5a.38.38,0,0,0-.43.43v1.38a.38.38,0,0,0,.43.43H107a.38.38,0,0,0,.43-.43v-1.38a.38.38,0,0,0-.43-.43Zm0,7a.38.38,0,0,0-.43.43v1.42a.38.38,0,0,0,.43.44H107a.39.39,0,0,0,.43-.44v-1.42a.38.38,0,0,0-.43-.43Zm18.4-4.76a.38.38,0,0,0,.43-.43v-1.38a.38.38,0,0,0-.43-.43h-5.53a.38.38,0,0,0-.43.43v1.38a.38.38,0,0,0,.43.43Zm-6,6.61a.38.38,0,0,0,.43.44h5.53a.39.39,0,0,0,.43-.44v-1.42a.38.38,0,0,0-.43-.43h-5.53a.38.38,0,0,0-.43.43ZM136,433.84c.2-2.51.43-4.59.69-6.26.4-1.85,1.67-2.71,3.8-2.6q2.76,0,2.59,3.11c-.2,1.36-.41,3.28-.61,5.77s-.31,5.11-.34,7.85q0,4.37.34,8.1c.2,2.49.41,4.41.61,5.77q.16,3.06-2.59,3.11c-2.13.11-3.4-.75-3.8-2.6-.26-1.67-.49-3.75-.69-6.26s-.32-5.13-.35-7.95v0c0-2.86.14-5.52.35-8Zm9,15.73a14.22,14.22,0,0,1,1-5.23,2.86,2.86,0,0,1,3.46-1.9c1.84.55,2.47,1.58,1.9,3.11a8.16,8.16,0,0,0-.3,2.2,3.2,3.2,0,0,0,.3,1.56,2.68,2.68,0,0,0,1.4,1.21,8.38,8.38,0,0,0,3.13.52c2.19,0,3.73,0,4.62-.13,2.07-.29,3.17.69,3.28,2.94-.05,2.19-1,3.4-2.76,3.63a52.68,52.68,0,0,1-5.57.39q-5.05-.14-7.69-2.49a8,8,0,0,1-2.76-5.81Zm14.42-22.38q3.28,0,3.28,3.28t-3.28,3.33h-9.84q-3.29,0-3.28-3.29t3.28-3.32Zm38.78,27.91h3a1.14,1.14,0,0,0,1.14-.78,12.51,12.51,0,0,0,.5-3.24,1.81,1.81,0,0,1,1-1.6,2.45,2.45,0,0,1,1.08-.26,2.58,2.58,0,0,1,.91.18,5.2,5.2,0,0,1,2.16,1.77,3.73,3.73,0,0,1,.6,2,3,3,0,0,1,0,.52q-.6,4.18-2.1,5.79a6,6,0,0,1-4.59,1.6h-4.8q-4.14,0-5.59-1.71t-1.44-6.24V441.23a.38.38,0,0,0-.44-.43h-4.88a.43.43,0,0,0-.47.43c-.17,1.76-.38,3.31-.61,4.65a26.81,26.81,0,0,1-1.1,4.21,17.91,17.91,0,0,1-1.85,3.91,18.46,18.46,0,0,1-2.87,3.37,20.21,20.21,0,0,1-4.15,3,3.51,3.51,0,0,1-1.51.35,3.16,3.16,0,0,1-1-.18,4.4,4.4,0,0,1-2.16-1.6,2.48,2.48,0,0,1-.51-1.51,3.28,3.28,0,0,1,0-.56,2.52,2.52,0,0,1,1.25-1.73,14.13,14.13,0,0,0,3.13-2.18,13.3,13.3,0,0,0,2.1-2.44,11.69,11.69,0,0,0,1.27-2.85,22,22,0,0,0,.71-3.05c.15-.94.27-2.05.39-3.35a.39.39,0,0,0-.13-.3.41.41,0,0,0-.3-.13h-5.83a3.11,3.11,0,0,1-3.11-3.11,3.06,3.06,0,0,1,.91-2.23,3,3,0,0,1,2.2-.93h33.81a3,3,0,0,1,2.2.93,3.06,3.06,0,0,1,.91,2.23,3.11,3.11,0,0,1-3.11,3.11h-7.73a.38.38,0,0,0-.43.43v11.88a3.5,3.5,0,0,0,.24,1.65C197.15,455,197.56,455.1,198.23,455.1Zm2.46-32.36a3.09,3.09,0,1,1,0,6.17H175.21a3,3,0,0,1-2.2-.9,3.08,3.08,0,0,1,0-4.37,3,3,0,0,1,2.2-.9Zm20.85,10a30.36,30.36,0,0,1-3,4,.14.14,0,0,0,0,.19.18.18,0,0,0,.15.11H242.1a3.76,3.76,0,0,1,3.75,3.76q0,14.73,2.51,14.73c.34,0,.57-1,.69-2.89a1.08,1.08,0,0,1,.78-1,1.1,1.1,0,0,1,1.25.3,5.8,5.8,0,0,1,1.9,4,4,4,0,0,1-.09.82,7.78,7.78,0,0,1-1.62,4,4.34,4.34,0,0,1-3.34,1.23,6.57,6.57,0,0,1-3-.65,5.72,5.72,0,0,1-2.18-1.92,14.46,14.46,0,0,1-1.54-2.9,19.44,19.44,0,0,1-1-3.89c-.26-1.51-.46-3-.59-4.56s-.22-3.25-.28-5.18a.38.38,0,0,0-.43-.43h-7.68a.07.07,0,0,0-.07,0s0,.06.07.09l2,.64a3,3,0,0,1,1.9,1.82,2.59,2.59,0,0,1,.22,1,3,3,0,0,1-.47,1.55c-.64.95-1.3,1.86-2,2.72a.36.36,0,0,0,.09.61c1.32.89,2.47,1.73,3.45,2.51a2.88,2.88,0,0,1,1.12,2.37,3.22,3.22,0,0,1-1,2.42,3.51,3.51,0,0,1-2.51,1,4,4,0,0,1-2.63-1c-.87-.75-1.87-1.55-3-2.42a.54.54,0,0,0-.7,0,47.34,47.34,0,0,1-7.42,5.36,4,4,0,0,1-1.95.52,2.9,2.9,0,0,1-.86-.13,4.78,4.78,0,0,1-2.5-1.43,2.18,2.18,0,0,1-.65-1.55,2.39,2.39,0,0,1,0-.48,2.22,2.22,0,0,1,1.3-1.68,38.66,38.66,0,0,0,6.78-4.28.3.3,0,0,0,.13-.26.29.29,0,0,0-.18-.26q-1.94-1.22-3.75-2.29a2.25,2.25,0,0,1-1.13-1.77,1.36,1.36,0,0,1,0-.3,2.23,2.23,0,0,1,.73-1.65,4.42,4.42,0,0,1,2.47-1.12,3.69,3.69,0,0,1,.56,0,4.35,4.35,0,0,1,2.07.52l3.67,2.11a.47.47,0,0,0,.65-.08,34.86,34.86,0,0,0,2.68-4.19.27.27,0,0,0,0-.26.25.25,0,0,0-.24-.13H219.82a3.48,3.48,0,0,1-3.46-3.46.75.75,0,0,0-.3-.65c-.58-.46-1.31-1-2.2-1.64a2.67,2.67,0,0,1-1.21-2.12.75.75,0,0,1-.05-.26,3,3,0,0,1,.87-2.11,27.84,27.84,0,0,0,5.57-9.29,4.16,4.16,0,0,1,1.77-2.17,3.73,3.73,0,0,1,1.86-.51,4.93,4.93,0,0,1,.82.08l.77.18a2.34,2.34,0,0,1,1.6,1.16,2.16,2.16,0,0,1,.35,1.13,2,2,0,0,1-.18.82.17.17,0,0,0,0,.19.2.2,0,0,0,.19.11h22.41a2.58,2.58,0,0,1,2.63,2.61,2.6,2.6,0,0,1-.75,1.88,2.52,2.52,0,0,1-1.88.78H224.05a.63.63,0,0,0-.61.35l-.3.6c-.06.06-.06.13,0,.22a.27.27,0,0,0,.22.13h21.5a2.56,2.56,0,0,1,1.79,4.38,2.42,2.42,0,0,1-1.79.76H224.52a2.8,2.8,0,0,1-2.8-2.77s0-.05-.07-.06a.09.09,0,0,0-.11,0Zm34.76-1.94a2.64,2.64,0,0,1,3-3h6.31l.56-1.51q.78-2.81,4.36-2,2.55,1.17,1.6,3.5H279c2,0,3,1,3,3a2.64,2.64,0,0,1-3,3h-9.71a6.31,6.31,0,0,1-.52,1.08c-.35.63-.65,1.22-.91,1.77l.5-.37a2.87,2.87,0,0,1,.75-.41q2.9-1.08,4.52,0a5.18,5.18,0,0,1,2.18,3.24q2.42-1.29,4.92-2.33,3.15-1.35,4.32,1.55.86,3.42-2.08,4.32a48.72,48.72,0,0,0-6.77,2.68v3.11a2.6,2.6,0,0,1-2.94,2.94c-2,0-3-1-3-2.94v-.17l-.41.28a7.08,7.08,0,0,1-.63.37c-1.23,1-1.75,2-1.55,2.89s1.25,1.37,3.15,1.43a85.31,85.31,0,0,0,8.68-.74q3.28-.51,3.45,3.12c.12,2.19-.8,3.39-2.76,3.63a79.76,79.76,0,0,1-9.76.43,10.41,10.41,0,0,1-5.59-1.64,7,7,0,0,1-2.85-3.87,7.3,7.3,0,0,1,.45-5,12.1,12.1,0,0,1,4.24-4.86c.6-.41,1.2-.79,1.79-1.17l1.79-1.12a1.5,1.5,0,0,0-.39-1.08,1.7,1.7,0,0,0-1.29-.18,7.88,7.88,0,0,0-2.06,1,24.36,24.36,0,0,0-2.56,1.94c-.9.77-2,1.78-3.29,3.05q-1.82,1.56-4-.17c-.89-1.59-.89-2.88,0-3.89a19.57,19.57,0,0,0,2.85-3c.86-1.12,1.77-2.42,2.72-3.88.2-.35.41-.75.63-1.21s.34-.72.36-.78h-4a2.64,2.64,0,0,1-3-3Zm42.28.56a.38.38,0,0,0-.43.43V436q0,14.49-3.5,22.73a2.27,2.27,0,0,1-1.77,1.43,2.72,2.72,0,0,1-.69.09,2.8,2.8,0,0,1-1.69-.57,3.56,3.56,0,0,1-1.51-2,4.05,4.05,0,0,1,.09-2.59,32.89,32.89,0,0,0,2.11-8.75,94.61,94.61,0,0,0,.52-10.31V429a3.76,3.76,0,0,1,3.76-3.76h11.27a.38.38,0,0,0,.43-.43v-1.6a3.37,3.37,0,0,1,6.74,0v1.6a.38.38,0,0,0,.43.43h12a3.09,3.09,0,0,1,0,6.18ZM323.15,445a84.18,84.18,0,0,1,6,10.5,3.44,3.44,0,0,1,.35,1.47,3.29,3.29,0,0,1-.31,1.38,3.65,3.65,0,0,1-2,2.08l-.13,0a3.33,3.33,0,0,1-1.28.26,3.24,3.24,0,0,1-1.27-.26,3.45,3.45,0,0,1-1.82-1.86.5.5,0,0,0-.56-.34q-11.1.94-21.54,1.64h-.26a3.19,3.19,0,0,1-2.16-.82,3.24,3.24,0,0,1-1.17-2.25v-.34a3.16,3.16,0,0,1,3-3.11c.51,0,1-.05,1.38-.05a.55.55,0,0,0,.56-.43,113.13,113.13,0,0,0,4.4-16.25,3.6,3.6,0,0,1,1.56-2.37,3.47,3.47,0,0,1,2-.65,6.29,6.29,0,0,1,.73,0l0,0a3.37,3.37,0,0,1,2.34,1.56,3.53,3.53,0,0,1,.56,1.86,3.88,3.88,0,0,1-.13.95q-2,7.65-4.54,14.52a.28.28,0,0,0,0,.26.29.29,0,0,0,.26.13l10.1-.48a.25.25,0,0,0,.22-.15.28.28,0,0,0,0-.28q-1.26-2.3-2.59-4.45a2.87,2.87,0,0,1-.44-1.47,3.14,3.14,0,0,1,.13-.86,2.59,2.59,0,0,1,1.51-1.73,4.42,4.42,0,0,1,1.6-.31,3.59,3.59,0,0,1,1.12.18,3.89,3.89,0,0,1,2.21,1.55Zm12.69-11.19c.2-2.51.43-4.59.69-6.26.41-1.85,1.67-2.71,3.8-2.6,1.84,0,2.71,1.07,2.59,3.11q-.3,2-.6,5.77t-.35,7.67q0,4.2.35,7.93c.2,2.49.4,4.42.6,5.77.12,2-.75,3.08-2.59,3.11-2.13.12-3.39-.75-3.8-2.59q-.39-2.5-.69-6.27c-.2-2.47-.32-5.07-.34-7.77v0c0-2.73.14-5.34.34-7.82ZM348,438c-2.18,0-3.28-1.11-3.28-3.33s1.1-3.29,3.28-3.29h5.58v-4.1c0-2.16,1.07-3.24,3.23-3.24s3.24,1.08,3.24,3.24v4.1h1.6q3.28,0,3.28,3.29T361.62,438H360v6a34.11,34.11,0,0,1-1.16,8.82,18,18,0,0,1-2.47,5.4q-1.93,2.5-4.31,1.38c-1.64-.83-2.05-2.16-1.21-4a25.75,25.75,0,0,0,1.9-5.28,27.89,27.89,0,0,0,.78-6.43V438Zm13.78-12.54a1.3,1.3,0,0,1,1.47-1.46,1.32,1.32,0,0,1,1.51,1.46v3.29a1.3,1.3,0,0,1-1.47,1.47,1.32,1.32,0,0,1-1.51-1.47Zm4.66,0a1.3,1.3,0,0,1,1.47-1.46,1.31,1.31,0,0,1,1.51,1.46v3.29a1.3,1.3,0,0,1-1.47,1.47,1.32,1.32,0,0,1-1.51-1.47Zm23.19,27.66a7.52,7.52,0,0,1-1,4.15,5.25,5.25,0,0,1-2.81,2.12,11.89,11.89,0,0,1-3.76.6,12.2,12.2,0,0,1-4.81-1,8.82,8.82,0,0,1-3.82-3,8.2,8.2,0,0,1-1.47-4.81A8.25,8.25,0,0,1,377.6,443a14.88,14.88,0,0,1,5.52-1V427q0-3.24,3.24-3.24T389.6,427v3.37h6.56c2.19,0,3.29,1.1,3.29,3.28s-1.1,3.33-3.29,3.33H389.6v5.88a31.47,31.47,0,0,1,4.45,2.14,45.45,45.45,0,0,1,4.53,3c1.27,1.12,1.38,2.57.35,4.32-1.3,1.36-2.62,1.47-4,.35a64,64,0,0,0-5.36-3.59Zm-7.25.73q.39,0,.6-.51a4.23,4.23,0,0,0,.17-1.69v-3.76a4.86,4.86,0,0,0-3.67.71,3.08,3.08,0,0,0-1.12,2.4,2.59,2.59,0,0,0,1.21,2.23A4.39,4.39,0,0,0,382.35,453.8Zm21.72-12.92a3.21,3.21,0,0,1,2.07-3.8,26.71,26.71,0,0,1,4.92-1.58,30.9,30.9,0,0,1,6.52-.75,20.36,20.36,0,0,1,6.5,1,9.34,9.34,0,0,1,4.73,3.44,9.68,9.68,0,0,1,1.77,5.62,14,14,0,0,1-2.38,7.71q-2.28,3.39-7.44,5.1a30,30,0,0,1-9.35,1.71c-1.79,0-2.68-1-2.68-3.07s1-3.08,2.85-3.2a20.67,20.67,0,0,0,6.71-1.17,8.61,8.61,0,0,0,4.63-3,6.84,6.84,0,0,0,1.05-4.21,3.38,3.38,0,0,0-1.27-2.79q-1.27-1-5.12-1.06a21.56,21.56,0,0,0-4.4.58q-2.34.56-5.83,1.54c-1.58.66-2.68,0-3.28-2.08Zm3.28-12.44c.06-1.87.92-2.88,2.59-3q4.28-.17,7-.08c1.85.06,4.26.21,7.26.47a3.3,3.3,0,0,1,3.19,3.5c-.05,2.14-1.12,3-3.19,2.6-3-.35-5.41-.55-7.26-.61-2.85,0-4.69,0-5.52,0a8,8,0,0,0-1.3.09c-1.84.06-2.76-.93-2.76-3Zm31.95,24.89a4.61,4.61,0,0,1,1.49-3.48,5.68,5.68,0,0,1,7.47,0,4.61,4.61,0,0,1,1.49,3.48,4.52,4.52,0,0,1-1.49,3.48,5.81,5.81,0,0,1-7.47,0A4.52,4.52,0,0,1,439.3,453.33Zm2.12-10.2L440,431.9l-.13-3.59a3.37,3.37,0,0,1,1-2.66,3.53,3.53,0,0,1,2.6-1.1h2.2a3.51,3.51,0,0,1,2.59,1.1,3.37,3.37,0,0,1,1,2.66l-.13,3.59-1.42,11.23a3.26,3.26,0,0,1-1.06,2,3.09,3.09,0,0,1-4.15,0A3.2,3.2,0,0,1,441.42,443.13Z"/><path class="cls-3" d="M158.74,70.44a65.93,65.93,0,0,1-9.93,16.45A89.4,89.4,0,0,1,135.5,99.53q-6.17,4.31-9.46-.34-2.7-6.25,1.35-9.47a78.64,78.64,0,0,0,7.78-6.13,59,59,0,0,0,8.4-9.64,74.76,74.76,0,0,0,8.07-15H132.38q-6.42,0-6.42-6.42T132.38,46h26.36V42q0-6.6,6.59-6.6t6.59,6.6v4h3.21q6.42,0,6.42,6.43t-6.42,6.5h-3.21v41.77q0,6.6-6.59,6.59t-6.59-6.59Zm52.55-23.5v-5.5c0-3.77,1.88-5.66,5.66-5.66s5.66,1.89,5.66,5.66v5.5h7.18q14.52.09,14.53,15.39a49.22,49.22,0,0,1-3.38,17.16,36.67,36.67,0,0,1-8.11,13,50.26,50.26,0,0,1-10.22,7.86,52.15,52.15,0,0,1-12.08,4.9q-5.67,1.7-8.11-3-2-6.76,3.71-8.45,10-3.3,15-7.53a25.59,25.59,0,0,0,7.52-10.44,26.74,26.74,0,0,0,2.2-11c0-3.5-1.47-5.21-4.4-5.16H208.67q-5.07,0-5.07,5.07V76.78q0,6.51-6.51,6.51t-6.5-6.51V62.16q0-15.22,15.21-15.22Zm44.09.08q0-6.59,6.59-6.59h39.12q6.59,0,6.59,6.59t-6.59,6.68H288.67V89h14.19q6.58,0,6.59,6.6t-6.59,6.68H260.45q-6.58,0-6.59-6.6T260.45,89H274.9V53.7H262q-6.59,0-6.59-6.59Zm61.93-.84q0-6.6,6.59-6.6h14.53q6.58,0,6.59,6.6t-6.59,6.59H323.9q-6.6,0-6.59-6.59Zm50.1,8q5.65,2.63,3.71,8.12-2.28,7.86-8.83,17.12a67.45,67.45,0,0,1-14.19,15q-7.65,5.79-22.6,9.08-5.82,1.11-7.43-5.41c-.57-4.45,1.24-7,5.4-7.78q10.9-1.85,17.24-6.84A61.61,61.61,0,0,0,352,71.92a48.1,48.1,0,0,0,7.31-14q2.1-5.16,8.11-3.72Z"/><g class="cls-4"><path class="cls-5" d="M209.27,269a52.74,52.74,0,1,0,61,42.78,52.74,52.74,0,0,0-61-42.78m15.25,86.57A35.16,35.16,0,1,1,253,314.8a35.15,35.15,0,0,1-28.5,40.74"/><path class="cls-6" d="M96,244.53l0,.17c-8.32,3.43-12.53,19.13-9.38,37s12.46,31.16,21.45,31.52l0,.19,260.47,25.2L332.14,131.81Z"/><path class="cls-7" d="M336.51,130.47c23.88-4.21,51.44,38.88,61.56,96.25S397,334,373.11,338.25,321.67,299.37,311.55,242s1.06-107.31,25-111.52"/></g></svg>