<svg id="レイヤー_1" data-name="レイヤー 1" xmlns="http://www.w3.org/2000/svg" xmlns:xlink="http://www.w3.org/1999/xlink" viewBox="0 0 1920 1080"><defs><style>.cls-1{fill:none;}.cls-2{clip-path:url(#clip-path);}.cls-3{fill:#fff;}.cls-4{fill:#07006f;}.cls-5{fill:#e6e6e6;}.cls-6{clip-path:url(#clip-path-2);}.cls-7{fill:#17005e;}.cls-8{clip-path:url(#clip-path-3);}.cls-9{fill:#080057;}.cls-10{clip-path:url(#clip-path-4);}.cls-11{fill:#d392eb;}.cls-12{clip-path:url(#clip-path-5);}.cls-13{fill:#b068e9;}.cls-14{clip-path:url(#clip-path-6);}.cls-15{fill:#8b41dd;}.cls-16{clip-path:url(#clip-path-7);}.cls-17{fill:#ae6ffc;}.cls-18{clip-path:url(#clip-path-8);}.cls-19{clip-path:url(#clip-path-10);}.cls-20{fill:#f4900c;}.cls-21{fill:#ffcc4d;}.cls-22{opacity:0.79;isolation:isolate;}.cls-23{clip-path:url(#clip-path-13);}.cls-24{clip-path:url(#clip-path-14);}.cls-25{fill:#f9dc11;}.cls-26{clip-path:url(#clip-path-16);}.cls-27{clip-path:url(#clip-path-17);}.cls-28{clip-path:url(#clip-path-18);}.cls-29{fill:#a0041e;}.cls-30{fill:#ffac33;}.cls-31{fill:#55acee;}.cls-32{clip-path:url(#clip-path-20);}.cls-33{clip-path:url(#clip-path-23);}.cls-34{clip-path:url(#clip-path-24);}.cls-35{fill:#7bbdf7;}.cls-36{fill:#4c9026;}.cls-37{clip-path:url(#clip-path-25);}.cls-38{clip-path:url(#clip-path-26);}.cls-39{clip-path:url(#clip-path-27);}.cls-40{clip-path:url(#clip-path-28);}.cls-41{clip-path:url(#clip-path-29);}.cls-42{clip-path:url(#clip-path-31);}.cls-43{clip-path:url(#clip-path-32);}.cls-44{clip-path:url(#clip-path-34);}</style><clipPath id="clip-path"><rect class="cls-1" width="1920" height="1080"/></clipPath><clipPath id="clip-path-2"><rect class="cls-1" y="122.07" width="1920" height="957.93"/></clipPath><clipPath id="clip-path-3"><rect class="cls-1" y="394.443" width="1920" height="685.557"/></clipPath><clipPath id="clip-path-4"><rect class="cls-1" x="227.811" y="661.669" width="1483.026" height="419.817"/></clipPath><clipPath id="clip-path-5"><rect class="cls-1" x="250.013" y="733.12" width="1439.371" height="346.88"/></clipPath><clipPath id="clip-path-6"><rect class="cls-1" x="250.013" y="927.711" width="1372.569" height="153.289"/></clipPath><clipPath id="clip-path-7"><rect class="cls-1" x="46.969" y="8.842" width="1920" height="1080"/></clipPath><clipPath id="clip-path-8"><rect class="cls-1" x="150.994" y="406.423" width="62.131" height="58.748" transform="translate(-202.783 162.007) rotate(-31.897)"/></clipPath><clipPath id="clip-path-10"><rect class="cls-1" y="65.063" width="1920" height="1080"/></clipPath><clipPath id="clip-path-13"><rect class="cls-1" x="1362" y="389" width="576" height="182"/></clipPath><clipPath id="clip-path-14"><rect class="cls-1" x="1347" y="375" width="573" height="582"/></clipPath><clipPath id="clip-path-16"><rect class="cls-1" x="1109" y="45" width="190" height="110"/></clipPath><clipPath id="clip-path-17"><rect class="cls-1" x="1094" y="30" width="826" height="168"/></clipPath><clipPath id="clip-path-18"><rect class="cls-1" x="193.971" y="542.78" width="114.083" height="113.999"/></clipPath><clipPath id="clip-path-20"><rect class="cls-1" x="1567.117" y="135.05" width="62.131" height="58.748" transform="translate(154.446 869.298) rotate(-31.897)"/></clipPath><clipPath id="clip-path-23"><rect class="cls-1" x="1707.025" y="599.779" width="154.535" height="154.809"/></clipPath><clipPath id="clip-path-24"><rect class="cls-1" x="1707.025" y="599.779" width="154.534" height="154.809"/></clipPath><clipPath id="clip-path-25"><rect class="cls-1" x="40.003" y="1" width="1920" height="1080"/></clipPath><clipPath id="clip-path-26"><rect class="cls-1" x="202.998" y="176.78" width="191" height="107"/></clipPath><clipPath id="clip-path-27"><rect class="cls-1" x="187.998" y="162.78" width="400" height="293"/></clipPath><clipPath id="clip-path-28"><rect id="SVGID" class="cls-1" x="496.378" y="715.361" width="973.664" height="175.411"/></clipPath><clipPath id="clip-path-29"><rect id="SVGID-2" data-name="SVGID" class="cls-1" x="734.531" y="78.179" width="50.472" height="47.724" transform="translate(60.807 416.865) rotate(-31.897)"/></clipPath><clipPath id="clip-path-31"><rect id="SVGID-4" data-name="SVGID" class="cls-1" x="-538.522" y="-31.529" width="1559.719" height="877.342"/></clipPath><clipPath id="clip-path-32"><rect id="SVGID-5" data-name="SVGID" class="cls-1" x="1631.38" y="960.362" width="50.472" height="47.724" transform="translate(-269.908 1023.964) rotate(-31.897)"/></clipPath><clipPath id="clip-path-34"><rect id="SVGID-7" data-name="SVGID" class="cls-1" x="358.327" y="850.654" width="1559.719" height="877.342"/></clipPath></defs><g class="cls-2"><rect class="cls-3" width="1920" height="1080"/><rect class="cls-4" y="0.425" width="1920" height="1079.15"/><circle class="cls-5" cx="285.477" cy="31.25" r="4.094"/></g><g class="cls-6"><ellipse class="cls-7" cx="936.297" cy="1006.085" rx="1031.095" ry="883.014"/></g><g class="cls-8"><ellipse class="cls-9" cx="936.297" cy="1278.458" rx="1031.095" ry="883.014"/></g><g class="cls-10"><ellipse class="cls-11" cx="969.324" cy="1399.49" rx="740.432" ry="736.74"/></g><g class="cls-12"><ellipse class="cls-13" cx="969.698" cy="1449.223" rx="718.637" ry="715.053"/></g><g class="cls-14"><ellipse class="cls-15" cx="936.297" cy="1610.578" rx="685.284" ry="681.867"/></g><g class="cls-16"><ellipse class="cls-17" cx="801.848" cy="855.258" rx="37.772" ry="37.698"/><ellipse class="cls-17" cx="601.903" cy="976.117" rx="27.978" ry="28.956"/><ellipse class="cls-17" cx="1006.969" cy="847.042" rx="48.673" ry="45.914"/><ellipse class="cls-17" cx="1222.28" cy="892.956" rx="27.978" ry="28.956"/><ellipse class="cls-17" cx="1431.135" cy="1005.072" rx="48.673" ry="48.096"/><circle class="cls-5" cx="145.24" cy="153.064" r="6.528"/><circle class="cls-5" cx="389.06" cy="364.709" r="6.528"/><circle class="cls-5" cx="1243.729" cy="217.487" r="6.529"/></g><g class="cls-18"><g class="cls-18"><g class="cls-19"><path class="cls-20" d="M196.145,461.629a29.314,29.314,0,0,0,7.658-6.883c-8.325,4.245-15.009,2.558-15.859-3.023-.795-5.228,7.843-6.747,11.267-8.593,5.8-3.132,11.973-7.476,10.973-20.936-5.443,9.239-12.777,8.63-15.516,4.909-3.039-4.129-1.445-10.634,6.07-13.276-6.457-2.572-12.434.957-15.333,4.8-3.021,4-7.312,4.465-10,.966-3-3.911.427-9.258,9.519-11.955a29.374,29.374,0,1,0,11.219,54"/><path class="cls-21" d="M182.779,456.5c-4.389,3.033-8.636.163-9.11-2.51-.686-3.859,1.954-4.352,5.86-7.886s5.06-8.491,3.59-13.851c-7.236,9.082-13.852,6.083-16.138,3.775-2.334-2.357-3.425-5.506,2.257-9.478a20.669,20.669,0,0,0-15.708,2.578c-.54.336-1.05.7-1.548,1.077a29.35,29.35,0,0,0,21.812,35.046c.557-.283,1.109-.58,1.649-.916a20.621,20.621,0,0,0,7.336-7.835"/></g></g></g><g class="cls-2"><circle class="cls-5" cx="971.784" cy="137.693" r="6.528"/></g><g class="cls-2"><g class="cls-22"><g class="cls-23"><g class="cls-24"><path class="cls-25" d="M1514.175,527.851l.052-.016Zm338.378-105.58c-1.5.436-7.378,2.254-10.855,3.245C1841.135,424.97,1854.637,421.336,1852.553,422.271Zm-22.1,6.5c-1.555.452-7.431,2.269-10.86,3.233C1819.03,431.465,1832.532,427.831,1830.449,428.766Zm-193.476,43.913c3.6-1.144,6.735-2.145.988-.457l-6.623,1.957Zm12.885,12.366a28.688,28.688,0,0,1,4.179-1.463c-5.577,1.688-16.739,5.039-16.165,5.068C1641.6,487.545,1645.677,486.317,1649.858,485.045Zm5.011-1.693c8.208-2.495,16.393-5.061,8.116-2.608l-5.635,1.68Zm5.071-1.865c4.019-1.247,8.8-2.756,13.646-4.268l-12.753,3.865Zm38.086-11.981c1.127-.372.652-.264-2.092.54-14.591,4.315-23.261,6.773-14.081,3.953,7.839-2.408,24.892-7.71,19.864-6.255l-20.2,6.077c-5.235,1.7-10.273,3.489-15.395,5.37C1677.374,475.773,1688.161,472.485,1698.026,469.506Zm-51.975.757c13.689-3.577,41.892-12.817,43.846-13.071l8.735-2.8C1679.794,460.129,1659.6,466.241,1646.051,470.263Zm186.174-55.007-6.749,2.1c3.3-1,5.839-1.755,8.167-2.445Zm34.358-.962c2.531-.765,5.509-1.91,8.364-2.723,2.685-.812,5.456-1.714,9.57-2.837-.322.24-6.987,2.428-12.207,3.993.022.07.043.139.065.211,2.56-.671,5.573-1.519,9.131-2.612l3.648-1.172a9.423,9.423,0,0,0-2.585.589,76.855,76.855,0,0,1,8.04-2.855l1.46-.576c.51-.362-2.613.5.849-.543-2.488.533-8.726,2.642-12.664,3.787,4.52-.9-12.121,3.9-16.138,5.342Zm27.915-12.755c3.736-1.25,10.565-3.271,14.5-4.608-4.614,1.148-10.214,2.945-15.906,4.809Zm-531.723,164.8c.386-2.786,7.819-7.249,16.2-11.388l6.355-3.016c15.815-6.025,31.891-11.566,48.054-16.825l9.708-3.123c9.9-3.233,19.883-6.377,29.926-9.513l10.1-3.14c11.971-4.023,23.625-7.244,35.476-10.923,5.927-1.833,11.929-3.792,18.017-6.021,3.04-1.127,16.313-5.139,21.071-6.37-4.7.879,17.132-5.6,16.156-5.283,2.481-.557,5.044-1.216,7.586-1.946s-.628.347-3.807,1.388c2.869-.766,5.72-1.591,8.611-2.466l9.166-2.867c10.095-3.331,21.079-6.526,30.593-9.179,25.772-7.967,96.6-29.48,83.842-25.446-14.4,4.577-6.91,2.5-3.031,1.342,2.273-.686,5.323-1.6,8.734-2.619a1.772,1.772,0,0,0-.945.047c6.425-2.051,15.412-5.132,24.365-7.587-1.636.554-3.75,1.2-4.484,1.57,4.483-1.39,1.007-.028,3.972-.849,8.222-2.448,12.163-3.582,2.667-.69,8.891-2.475,14.631-3.815,23.451-6.152,3.287-1.061,1.489-.483.469-.311,5.733-1.915,19.006-5.928,20.2-6.437,1.191-.532-35.913,10.967-29.366,8.764,2.66-.894,8.245-2.558,10.33-3.3-4.7,1.407-10.476,3.193-13.5,4.006,3.235-1.045,7.825-2.454,10.33-3.3-3.146.966-5.323,1.6-6.28,1.788,4.587-1.422,8.028-2.53,13.5-4.186,2.449-.662-2,.845,3.159-.739.968-.157-3.389,1.092-3.044,1.114,4.2-1.213,12.5-3.775,14.58-4.35,2.036-.536-5.054,1.553-5.184,1.682,16.168-4.876,34.542-10.469,40.237-12.142,5.743-1.7.379-.052-2.027.751,6.682-1.949,11.685-3.486,19.586-5.875,5.065-1.517,3.065-.864,1.174-.219,1.348-.389,2.542-.73,3.323-.944.574-.151,2.025-.571,3.02-.825-3.08,1-8.871,2.725-11.373,3.583,4.692-1.262,15.678-4.816,19.762-5.852-6.355,2.093-13.225,4.165-20.369,6.449,14.013-4.176,28.185-9.119,39.568-12.116-2,.653-2.831,1.075-4.456,1.664,4.241-1.444,10.531-3.568,14.441-4.436,2.125-.614,6.335-1.792,10.527-3.028-7.3,2.32-12.187,3.871-17.322,5.346a7.721,7.721,0,0,0,1.484-.315c-11.338,3.88-18.1,5.213-26.281,7.6l-1.894.633c-2.558,1.042,6.7-1.892,7.679-2.013-12.043,3.789-25.245,7.665-31.1,9.733,14.362-4.322,26.965-8.309,37.816-11.386-2.7,1.114-13.59,4.265-18.7,6,23.541-6.962,25.917-7.679,27.84-8.218l-5.445,1.75,1.435-.288c10.322-3.145,22.438-6.879,21.845-6.607-.447.2-9.87,3.147-19.824,6.2l3.247-.639c11.67-3.533,25.01-7.143,36.611-10.9-1.836.82-.867.484,1.6-.12-3.618,1.266-8.827,2.866-12.711,4.187,1.363-.342,3.776-1.122,4.582-1.254-1.938.673-5.044,1.588-5.973,2.053,5.544-1.613,11.489-3.388,17.335-5.12,1.258-.13-2.513.824-2.157.881,5.544-1.613,13.247-4.095,17.339-5.108-4.592,1.59-13.715,4.226-16.512,5.226l5.634-1.5c3.772-1.133,5.592-1.641,1.392-.248-2.252.756-2.2.752-1.622.6,2.626-.64,11.592-3.42,11.435-3.013-2.269.7-11.247,3.442-13.447,4.362,1.777-.277,6.324-1.827,6.857-1.747-9.987,2.952-9.59,2.958-12.115,3.554a34.023,34.023,0,0,0,3.78-1.289l-18.563,5.715c.621,0,.48.275-.051.567,2.685-.812,5.488-1.609,10.48-3.181-1.237.752-5.841,2.115-10.1,3.308l.15.121c6.856-2.119,17.358-5.229,24.426-7.208-3.176,1.053-14.986,4.68-23.05,7.093l.831-.05c-10.13,3.035-21.9,6.971-33.291,10.316,5.593-1.269,11.887-3.562,18.981-5.638,3.264-.951,6.295-1.741,9.48-2.579,8.949-2.838,35.6-11.075,38.688-11.858,3.4-.865-23.622,7.436-23.748,7.577s12.49-3.619,6.552-1.82c-3.1.927-9.868,2.967-14.779,4.437l-.335.744c4.284-1.3,9.367-2.762,9.458-3.2,2.129-.6,6.517-2.118,7.245-2.136a9.651,9.651,0,0,0-1.776.648,19.791,19.791,0,0,1,2.707-.742c-5.146,1.62-12.231,3.911-17.856,5.626l-1.362.713c.114,0,4.523-1.261,8.3-2.37,3.989-1.161-4.234,1.467-10.791,3.456l-3.056,1.259c2.265-.709,4.9-1.517,8-2.444,3.646-.992,3.6-.761,7.251-1.753-6.632,2.114-14.674,4.6-21.138,6.519l-6.952,2.725c5.389-1.565,10.387-2.934,13.366-3.708,2.365-.752,4.834-1.536,5.75-1.676-2.193.763,3.594-.976,2.79-.473-3.215.744-9.478,2.771-11.841,3.163-4.951,1.521-10.362,3.2-15.162,4.657l-1.828.665c4.081-1.229,7.964-2.37,12.328-3.595-1.859.93-13.82,4.617-22.542,7.091-17.566,5.652-35.778,9.938-53.47,15.18-.722.222-1.743.574-2.863.97l-3.785,1.457c4.236-1.275,8.015-2.385,11.131-3.265-12.4,4.079,17.9-5.294,19.938-5.65-20.095,6.608-58.04,17.943-81.32,25.389,5.629-1.7,7.445-2.222,1.436-.287l-4.93,1.591c23.844-7.08,48.39-15.184,67.468-20.506-11.228,3.5-28.353,8.568-32.953,10.315,3.3-1,8.086-2.523,8.793-2.611-5.7,2.008-25.138,7.644-30.736,9.633,27.8-8.347,65.385-20.123,85.952-25.927-30.947,9.313-72.539,22.371-99.1,30.146,4.576-1.456,4.6-1.554,2.138-.938l-24.916,7.448c-1.684.581-1.106.442,2.994-.727,3.374-.96,5.326-1.585,6.449-1.789-2.251.755-28.406,8.764-7.6,2.462,20.758-6.287,56.7-17.16,35.735-10.631s-29.211,9.268-17.737,5.833c11.526-3.451,47.931-14.287,35.771-10.513-12.109,3.758-37.629,11.815-52.087,16.192-14.51,4.393,9.54-3.854-11.767,2.665s-3.476,1.363-7.554,2.6c-6.45,1.968-18.309,5.624-29.548,9.089-7.877,2.47-18.04,5.58-23.106,7.277.4.03,24.4-7.458,14.958-4.4-23.362,7.177-49.441,15.251-38.814,11.628-14.43,4.471-25.061,7.711-34.105,10.425-13.927,4.637-30.242,9.584-32.022,10.22-2.082.755-40.555,11.842-54.66,17.188-1.09.309-26.949,8-29.249,8.407-24.459,7.834-20.935,7-45.156,14.319-20.242,6.128-26.481,7.865-29.892,8.887-21.35,6.379-21.1,6.648-31.9,8.606-3.258.6-8.109,2.08-9.95,1.966C1364.4,569.781,1362.359,568.663,1362.775,566.342Zm496.491-145.735c3.349-1.042,6.252-1.882,8.2-2.339C1864.035,419.411,1860.756,420.5,1859.266,420.607Zm-.679-.741c-9.289,2.648-24.032,7.2-30.769,9.157-6.685,1.938,11.794-3.867,28.828-9.048,17.088-5.185,3.149-.4,10.14-2.448,6.944-2.017-6.584,2.266-13.535,4.26C1846.352,423.765,1857.816,420.3,1858.587,419.866Zm-13.241-9.666c.576-.331,14.832-4.633,22.78-6.869C1861.432,405.425,1844.77,410.53,1845.346,410.2Zm-24.057,7.12c-2.785.855-5.017,1.49-6.4,1.773C1817.474,418.312,1821.055,417.11,1821.289,417.32Zm70.638-7.8c-4.155,1.173-7.089,2.28-9.877,3.123C1868.059,416.893,1889.067,409.952,1891.927,409.523Zm-100.066,15.99c3.875-1.165,8-2.432,7.3-1.96C1797.861,423.734,1792.36,425.667,1791.861,425.513Zm-16.523,5.191a56.128,56.128,0,0,1,7.245-2.136C1780.4,429.186,1776.069,430.7,1775.338,430.7Zm-28.7,8.186c1.15-.481,6.242-2.1,6.317-1.851C1751.087,437.563,1747.063,438.978,1746.641,438.89Zm145.567-40.212c2.751-.781,7.755-2.5,9.054-2.679C1898.51,396.78,1893.507,398.5,1892.208,398.678Zm-15.946,4.128a56.131,56.131,0,0,1,7.249-2.124C1881.327,401.289,1876.993,402.8,1876.262,402.806Zm10.3-3.035c1.15-.482,6.241-2.1,6.369-1.867C1891.007,398.444,1886.983,399.859,1886.561,399.771Z"/></g></g></g></g><g class="cls-2"><g class="cls-22"><g class="cls-26"><g class="cls-27"><path class="cls-25" d="M1162.519,129.847l.017-.01Zm110.326-62.634c-.5.248-2.424,1.322-3.592,1.882C1268.8,68.56,1273.419,66.574,1272.845,67.213Zm-7.356,3.734c-.519.258-2.44,1.332-3.6,1.872C1261.447,72.294,1266.063,70.309,1265.489,70.947Zm-69.163,21.2c1.166-.685,2.179-1.286.267-.315l-2.2,1.129Zm10.258,12.163c-.008-.094.413-.41,1.3-.915-1.838.986-5.525,2.935-5.261,3.014C1203.861,105.774,1205.208,105.059,1206.584,104.314Zm1.586-1.043c2.7-1.461,5.364-2.986,2.618-1.569l-1.867.973Zm1.548-1.19c1.313-.738,2.868-1.637,4.445-2.535l-4.2,2.26C1209.883,101.9,1209.8,101.988,1209.718,102.081Zm12.382-7.136c.36-.226.19-.174-.724.287-4.845,2.49-7.763,3.876-4.754,2.216,2.57-1.417,8.137-4.557,6.456-3.728l-6.67,3.538a54.98,54.98,0,0,0-4.81,3.353C1215.3,98.611,1218.847,96.683,1222.1,94.945Zm-22.66-4.1c4.719-1.917,13.752-7.529,14.521-7.574l2.821-1.682C1210.587,84.944,1203.934,88.515,1199.44,90.84Zm61.84-31.724-2.2,1.243c1.088-.586,1.928-1.022,2.7-1.42Zm14.809,2.3c.834-.446,1.725-1.19,2.685-1.649.885-.474,1.774-1.02,3.175-1.639a24.452,24.452,0,0,1-3.911,2.423l.106.193a29.114,29.114,0,0,0,3.065-1.48l1.177-.7c-.032-.136-.7.123-.924.286a10.17,10.17,0,0,1,2.494-1.8l.431-.377c.092-.275-.97.2.174-.4a43.275,43.275,0,0,0-4.189,2.2c1.662-.384-3.908,2.351-5.149,3.259Zm7.606-8.758c1.187-.767,3.454-1.933,4.7-2.758a31.55,31.55,0,0,0-5.243,2.807ZM1109.922,150.1c-.859-2.438.772-5.718,2.941-8.622.558-.69,1.115-1.381,1.69-2.093a134.244,134.244,0,0,1,14.991-10.521l3.13-1.881c3.175-1.96,6.419-3.833,9.692-5.695l3.3-1.859c3.8-2.472,7.749-4.26,11.62-6.437a47.738,47.738,0,0,0,5.727-3.69,52.007,52.007,0,0,1,6.946-3.718c-1.749.348,5.493-3.394,5.178-3.206a17.593,17.593,0,0,0,2.629-1.03c.858-.4-.149.25-1.168.882.984-.416,1.937-.886,2.89-1.4l2.986-1.7a90.241,90.241,0,0,1,10.11-5.338c8.43-4.705,31.74-17.294,27.6-14.885-4.663,2.74-2.128,1.58-.842.913.75-.4,1.759-.929,2.887-1.523a.431.431,0,0,0-.4-.045,75.833,75.833,0,0,1,7.95-4.5,7.954,7.954,0,0,0-1.4.981c1.465-.822.435.069,1.44-.388,2.724-1.418,4.044-2.062.921-.368,3.01-1.38,5.048-2.042,8.077-3.306,1.059-.64.479-.292.092-.233,1.823-1.173,6.2-3.516,6.539-3.858.328-.363-11.8,6.436-9.722,5.082.843-.549,2.693-1.514,3.339-1.982-1.556.817-3.444,1.872-4.478,2.316,1.041-.631,2.546-1.46,3.339-1.982a11.573,11.573,0,0,1-2.111,1.01c1.5-.84,2.608-1.508,4.412-2.475.836-.363-.57.567,1.121-.366.37-.05-1.092.658-.931.71,1.4-.691,4.121-2.2,4.827-2.522.7-.289-1.657.914-1.666,1.017,5.333-2.844,11.376-6.12,13.271-7.081,1.907-.982.148-.012-.617.48,2.229-1.117,3.869-2.022,6.473-3.416,1.675-.882,1.033-.486.437-.087.452-.221.853-.414,1.118-.532.2-.081.683-.321,1.028-.455-.991.6-2.908,1.6-3.7,2.135,1.6-.688,5.14-2.834,6.559-3.379-2.031,1.274-4.3,2.482-6.606,3.854,4.641-2.42,9.069-5.506,12.986-7.12a13.989,13.989,0,0,0-1.352,1.067,21.549,21.549,0,0,1,4.734-2.61c.711-.35,2.134-1.009,3.527-1.721-2.365,1.388-3.948,2.317-5.669,3.154a1.113,1.113,0,0,0,.538-.143c-3.57,2.4-6.06,2.964-8.791,4.33l-.6.388c-.744.69,2.258-1.063,2.646-1.081-3.915,2.257-8.31,4.485-10.13,5.782,4.742-2.517,8.831-4.9,12.483-6.632-.783.74-4.422,2.537-6.036,3.609,7.817-4.017,8.6-4.435,9.25-4.737l-1.756,1.052.527-.123c3.394-1.843,7.361-4.045,7.2-3.858-.123.138-3.193,1.887-6.457,3.687l1.2-.269c3.845-2.064,8.4-4.043,12.131-6.311-.507.559-.2.35.662.041-1.129.79-2.837,1.732-4.063,2.548.475-.178,1.252-.648,1.559-.692a12.92,12.92,0,0,0-1.878,1.274c1.851-.923,3.819-1.952,5.759-2.952.507,0-.805.5-.626.583,1.85-.922,4.333-2.417,5.765-2.941-1.439.99-4.492,2.491-5.357,3.122l1.933-.814c1.246-.659,1.861-.942.522-.092-.714.464-.691.465-.493.384.922-.326,3.852-1.97,3.933-1.623a36.72,36.72,0,0,0-4.323,2.636c.682-.082,2.116-1.041,2.381-.921-3.317,1.7-3.139,1.745-4.034,2.043.338-.228,1.3-.688,1.192-.8l-6.081,3.368c.275.058.314.289.187.5.885-.475,1.828-.924,3.45-1.861-.268.554-1.8,1.341-3.236,2.009l.111.12c2.243-1.25,5.728-3.047,8.117-4.154-1.013.643-4.885,2.778-7.552,4.179l.348.032c-3.349,1.763-7.09,4.176-10.881,6.1,2-.612,3.93-2.069,6.294-3.261,1.089-.544,2.135-.967,3.231-1.417,2.9-1.7,11.618-6.562,12.693-6.972,1.182-.456-7.678,4.43-7.681,4.544s4.175-2.065,2.219-1.014c-1.027.538-3.259,1.727-4.883,2.581l.127.63c1.409-.763,3.113-1.591,2.992-1.972a14.447,14.447,0,0,1,2.408-1.23c-.225.152-.592.326-.544.412.344-.176.816-.479.92-.41-1.673.965-3.953,2.348-5.8,3.354l-.337.508c.052.013,1.53-.7,2.788-1.342,1.332-.664-1.326.913-3.485,2.076l-.884.837c.738-.421,1.6-.9,2.627-1.434,1.243-.546,1.31-.344,2.552-.89-2.145,1.267-4.777,2.733-6.92,3.845l-2.061,1.78c1.8-.894,3.5-1.65,4.529-2.063a8.117,8.117,0,0,1,1.918-.96c-.686.476,1.226-.536,1.057-.163-1.144.365-3.159,1.588-4.057,1.719-1.623.9-3.393,1.885-4.971,2.742l-.562.421c1.348-.715,2.64-1.371,4.113-2.058-.476.655-4.393,2.829-7.328,4.224-5.664,3.4-12.118,5.534-17.99,8.562a10.811,10.811,0,0,0-.9.6l-1.132.946c1.4-.743,2.656-1.381,3.706-1.876-3.967,2.482,5.945-3.055,6.712-3.183-6.427,4.02-18.985,10.6-26.508,15.066,1.855-.995,2.464-1.289.528-.123l-1.588.96c7.907-4.095,15.745-9.034,22.2-12-3.662,2.076-9.347,5-10.732,6.129a25.143,25.143,0,0,1,2.916-1.51c-1.776,1.259-8.27,4.476-10,5.727,9.185-4.855,21.421-11.855,28.353-15.118-10.217,5.424-23.748,13.194-32.6,17.656,1.481-.873,1.457-.957.6-.637l-8.244,4.322c-.529.362-.325.291,1.052-.37a14.265,14.265,0,0,1,2.185-1c-.714.464-9.3,5.17-2.443,1.488,6.839-3.673,18.683-10.024,11.843-6.153s-9.467,5.543-5.672,3.548c3.812-2,15.875-8.279,11.9-6.046-3.955,2.223-12.241,7.031-17,9.588-4.78,2.566,2.786-2.545-4.208,1.285s-1.031.89-2.372,1.616c-2.12,1.155-6,3.31-9.683,5.353-2.563,1.47-5.9,3.3-7.508,4.337.189.064,8.015-4.378,4.975-2.534-7.659,4.224-16.185,9-12.834,6.756-4.716,2.643-8.211,4.542-11.2,6.121-4.433,2.836-9.8,5.729-10.356,6.13-.64.479-13.523,6.786-17.772,10.236-.367.174-8.939,4.621-9.8,4.775-7.9,4.707-6.655,4.286-14.638,8.563-6.67,3.58-8.781,4.548-9.909,5.142-7.066,3.7-6.855,3.963-10.9,4.709-1.215.236-2.81,1.1-3.665.831A5.512,5.512,0,0,1,1109.922,150.1Zm165.271-83.752a17.27,17.27,0,0,1,2.754-1.323A6.635,6.635,0,0,1,1275.193,66.352Zm-.574-.72c-3.121,1.5-7.945,4.186-10.2,5.3-2.234,1.106,3.776-2.348,9.38-5.382,5.626-3.033,1.241-.069,3.571-1.242,2.319-1.153-2.069,1.407-4.4,2.538C1270.66,67.969,1274.438,65.942,1274.619,65.632Zm-9.417-9.8a74.932,74.932,0,0,1,7.516-4C1270.538,53.073,1265.07,56.074,1265.2,55.833Zm-7.986,4.11a10.424,10.424,0,0,1-2.169.986C1255.9,60.474,1257.035,59.735,1257.216,59.943Zm28.3-.43c-1.4.66-2.286,1.373-3.2,1.866C1277.7,63.863,1284.408,59.632,1285.511,59.513Zm-38.256,5c1.28-.677,2.633-1.423,2.5-1.069C1249.246,63.484,1247.533,64.695,1247.255,64.512Zm-5.374,3.09a7.252,7.252,0,0,1,2.409-1.23A13.529,13.529,0,0,1,1241.881,67.6Zm-9.64,4.63c.33-.321,1.98-1.287,2.1-1.062C1233.713,71.463,1232.46,72.35,1232.241,72.232Zm49.386-22.321a22.955,22.955,0,0,1,3.006-1.546A23.08,23.08,0,0,1,1281.627,49.911Zm-5.512,2.2a7.263,7.263,0,0,1,2.414-1.22A14.281,14.281,0,0,1,1276.115,52.111Zm3.424-1.749c.329-.321,1.98-1.287,2.121-1.071C1281.011,49.593,1279.758,50.48,1279.539,50.362Z"/></g></g></g><path class="cls-5" d="M686.308,143.128a7.686,7.686,0,1,1,10.869,0A7.686,7.686,0,0,1,686.308,143.128Z"/><circle class="cls-5" cx="47.393" cy="516.6" r="7.685"/><path class="cls-5" d="M1729.96,419.016a7.685,7.685,0,1,1,10.869,0A7.685,7.685,0,0,1,1729.96,419.016Z"/><circle class="cls-5" cx="1764.302" cy="638.284" r="7.685"/><path class="cls-5" d="M1661.419,501.14a7.686,7.686,0,1,1,10.869,0A7.686,7.686,0,0,1,1661.419,501.14Z"/><path class="cls-5" d="M1123.373,75.334a7.686,7.686,0,1,1,10.869,0A7.686,7.686,0,0,1,1123.373,75.334Z"/><circle class="cls-5" cx="1343.179" cy="307.554" r="7.685"/></g><g class="cls-28"><g class="cls-28"><path class="cls-29" d="M194.059,598.151l26.057-22.8,52.114,3.257,3.257,52.114-22.8,26.056s0-19.539-19.543-39.085-39.085-19.542-39.085-19.542"/><path class="cls-30" d="M193.972,656.778s-.117-25.988,9.722-35.828,35.965-9.162,35.965-9.162,0,25.448-9.774,35.219-35.913,9.771-35.913,9.771"/><path class="cls-21" d="M220.113,617.693a13.029,13.029,0,1,1-13.029,13.029,13.029,13.029,0,0,1,13.029-13.029"/><path class="cls-31" d="M308.054,542.78s-32.571,0-71.656,32.571c-19.542,16.285-19.542,45.6-13.028,52.114s35.828,6.514,52.113-13.029c32.571-39.085,32.571-71.656,32.571-71.656"/><path d="M278.741,559.065a13.018,13.018,0,0,0-11.86,7.687,12.983,12.983,0,0,1,17.2,17.2,13.013,13.013,0,0,0-5.344-24.885"/><path class="cls-29" d="M216.859,633.979s0-13.029,3.257-16.286,42.345-35.825,45.6-32.571-29.317,42.343-32.574,45.6-16.282,3.257-16.282,3.257"/></g></g><g class="cls-32"><g class="cls-32"><g class="cls-2"><path class="cls-20" d="M1612.267,190.256a29.32,29.32,0,0,0,7.659-6.883c-8.325,4.245-15.009,2.558-15.859-3.023-.8-5.228,7.843-6.747,11.267-8.593,5.8-3.132,11.973-7.476,10.973-20.936-5.443,9.239-12.777,8.63-15.516,4.909-3.039-4.129-1.445-10.634,6.07-13.276-6.457-2.572-12.434.957-15.333,4.795-3.021,4-7.312,4.465-10,.965-3-3.91.427-9.257,9.519-11.954a29.374,29.374,0,1,0,11.218,54"/><path class="cls-21" d="M1598.9,185.129c-4.389,3.033-8.635.163-9.11-2.51-.686-3.859,1.954-4.352,5.86-7.886s5.06-8.492,3.59-13.852c-7.236,9.083-13.852,6.084-16.138,3.776-2.334-2.357-3.425-5.506,2.257-9.478a20.669,20.669,0,0,0-15.708,2.578c-.54.336-1.05.7-1.548,1.077a29.35,29.35,0,0,0,21.812,35.046c.557-.284,1.109-.58,1.648-.916a20.616,20.616,0,0,0,7.337-7.835"/></g></g></g><g class="cls-33"><g class="cls-34"><path class="cls-35" d="M1749.878,608.674c.583-2.415,2.946-2.178,4.562-2.878,3.676-1.592,7.642-2.5,11.385-3.814,10.032-3.527,20.239-1.814,30.3-1.6,5.542.118,11.141,2.654,16.512,4.642a73.039,73.039,0,0,1,29.248,20.182c8.754,9.765,14.251,21.084,17.792,33.825,2.867,10.321,1.666,20.494,1.474,30.674-.1,5.414-2.742,10.877-4.708,16.142a73.307,73.307,0,0,1-20.515,29.444c-9.625,8.529-20.789,13.859-33.263,17.376-10.306,2.906-20.485,1.7-30.662,1.508-5.417-.1-10.887-2.7-16.149-4.66a73.147,73.147,0,0,1-28.738-19.693c-9-9.89-14.651-21.378-18.236-34.371-2.848-10.321-1.593-20.489-1.471-30.675.062-5.185,2.632-10.414,4.456-15.483A68.937,68.937,0,0,1,1720,633.619a3.408,3.408,0,0,1,2.208-1.642,5.87,5.87,0,0,0,6.3-.747c2.783-2.12,6.118-.942,7.442,2.244a7.949,7.949,0,0,1,.143,6.277c-2.232,5.019-.762,9.214,2.243,13.261,1.2,1.617,2.192,3.4,3.481,4.935,1.76,2.094,3.7,3.881,6.692,4.3,3.871.55,7.242,1.964,8.324,6.4a6.4,6.4,0,0,0,2.017,3.3c5.078,4.044,10.032,8.465,16,11a29.819,29.819,0,0,1,8.614,5.345,51.57,51.57,0,0,0,4.356,3.561c3.828,2.791,3.87,2.732,1.378,6.85-4.022,6.642-3.735,8.671,1.393,14.828,1.766,2.12,4.136,3.123,6.357,4.413a4.975,4.975,0,0,1,2.833,4.237c.176,5.6-.013,11.081-3.635,15.927-1.965,2.628-3.695,5.572-3.454,9.162.167,2.5,1.36,3.225,3.424,1.826,1.563-1.058,2.939-2.388,4.432-3.55,3.449-2.684,6.03-6.355,9.889-8.583,8.538-4.926,17.469-9.5,19.19-20.77.116-.761.83-1.419,1.2-2.158,1.67-3.347,5.45-4.042,7.958-6.363,3.337-3.088,3.484-3.809-.6-5.394-3.724-1.448-6.607-3.309-7.86-7.319-1.9-6.07-6.659-8.26-12.509-8.739-2.226-.182-4.165-.794-5.567-2.668a2.429,2.429,0,0,0-2.423-1.241c-4.68,1.077-9.5,2.012-13.035,5.6-2.775,2.817-6.426,3.009-9.516-.418-2.765-3.064,1.488-3.322,2.433-4.922a.823.823,0,0,1,.275-.222c.731-.473,1.386-1.026,1.118-2.009-.312-1.136-1.267-1.333-2.265-1.31-2.314.059-4.532-2.225-6.97-.187-.512.429-1.3-.227-1.879-.691-2.377-1.9-2.677-9.66-.427-11.747,3.526-3.27,8.005-2.193,9.3,2.3.449,1.567,1.3,2.755,2.9,2.569,1.77-.206,1.417-1.881,1.5-3.158.1-1.646-.6-3.582.484-4.882,3.359-4.033,5.08-8.991,7.9-13.305,1.31-2,2.824-4.058,5.733-3.206,2.939.86,5.916.345,8.874.493,2.152.108,3.01-.872,2.9-3-.292-5.961.61-6.853,6.309-6.36,1.684.146,3.083-.755,1.965-2.107-2.276-2.755-3.852-6.509-7.514-7.677a8.581,8.581,0,0,1-5.558-5.025,14.655,14.655,0,0,0-5.929-6.427c-.919-.556-1.853-1.125-2.907-.138a2.582,2.582,0,0,0-.97,2.861c2.5,6.809-2.611,10.143-8.617,9.377-1.958-.248-4.381-.01-5.123-2.335a5.7,5.7,0,0,1,2.441-6.884c2.076-1.368,4.213-2.659,6.406-3.828,2.957-1.577,3.036-3.716.264-5.755a7.908,7.908,0,0,0-4.959-1.617,21.6,21.6,0,0,1-8.316-1.294,11.424,11.424,0,0,0-10.94.843c-1.653,1.093-3.658,1.675-5.264,2.822-3.734,2.667-8.43,1.942-12.456,3.8-2.221,1.025-5.526,1.29-6.014-3-.115-1-1.364-1.868-2.091-2.8"/><path class="cls-36" d="M1749.878,608.674c.727.928,1.976,1.8,2.091,2.8.488,4.292,3.793,4.027,6.014,3,4.026-1.857,8.722-1.132,12.456-3.8,1.606-1.147,3.611-1.729,5.264-2.822a11.424,11.424,0,0,1,10.94-.843,21.6,21.6,0,0,0,8.316,1.294,7.908,7.908,0,0,1,4.959,1.617c2.772,2.039,2.693,4.178-.264,5.755-2.193,1.169-4.33,2.46-6.406,3.828a5.7,5.7,0,0,0-2.441,6.884c.742,2.325,3.165,2.087,5.123,2.335,6.006.766,11.118-2.568,8.617-9.377a2.582,2.582,0,0,1,.97-2.861c1.054-.987,1.988-.418,2.907.138a14.655,14.655,0,0,1,5.929,6.427,8.581,8.581,0,0,0,5.558,5.025c3.662,1.168,5.238,4.922,7.514,7.677,1.118,1.352-.281,2.253-1.965,2.107-5.7-.493-6.6.4-6.309,6.36.105,2.131-.753,3.111-2.9,3-2.958-.148-5.935.367-8.874-.493-2.909-.852-4.423,1.2-5.733,3.206-2.821,4.314-4.542,9.272-7.9,13.305-1.083,1.3-.381,3.236-.484,4.882-.079,1.277.274,2.952-1.5,3.158-1.608.186-2.454-1-2.9-2.569-1.291-4.494-5.77-5.571-9.3-2.3-2.25,2.087-1.95,9.847.427,11.747.58.464,1.367,1.12,1.879.691,2.438-2.038,4.656.246,6.97.187,1-.023,1.953.174,2.265,1.31.268.983-.387,1.536-1.118,2.009a.823.823,0,0,0-.275.222c-.945,1.6-5.2,1.858-2.433,4.922,3.09,3.427,6.741,3.235,9.516.418,3.535-3.586,8.355-4.521,13.035-5.6a2.429,2.429,0,0,1,2.423,1.241c1.4,1.874,3.341,2.486,5.567,2.668,5.85.479,10.61,2.669,12.509,8.739,1.253,4.01,4.136,5.871,7.86,7.319,4.083,1.585,3.936,2.306.6,5.394-2.508,2.321-6.288,3.016-7.958,6.363-.369.739-1.083,1.4-1.2,2.158-1.721,11.269-10.652,15.844-19.19,20.77-3.859,2.228-6.44,5.9-9.889,8.583-1.493,1.162-2.869,2.492-4.432,3.55-2.064,1.4-3.257.675-3.424-1.826-.241-3.59,1.489-6.534,3.454-9.162,3.622-4.846,3.811-10.324,3.635-15.927a4.975,4.975,0,0,0-2.833-4.237c-2.221-1.29-4.591-2.293-6.357-4.413-5.128-6.157-5.415-8.186-1.393-14.828,2.492-4.118,2.45-4.059-1.378-6.85a51.57,51.57,0,0,1-4.356-3.561,29.819,29.819,0,0,0-8.614-5.345c-5.971-2.536-10.925-6.957-16-11a6.4,6.4,0,0,1-2.017-3.3c-1.082-4.44-4.453-5.854-8.324-6.4-2.993-.424-4.932-2.211-6.692-4.3-1.289-1.537-2.282-3.318-3.481-4.935-3.005-4.047-4.475-8.242-2.243-13.261a7.949,7.949,0,0,0-.143-6.277c-1.324-3.186-4.659-4.364-7.442-2.244a5.87,5.87,0,0,1-6.3.747c-.62-1.844.826-2.845,1.718-4,6.128-7.952,14-13.854,22.524-18.964a4.405,4.405,0,0,1,3.433-.336"/></g></g><g class="cls-37"><path class="cls-3" d="M489.475,402.676a129.056,129.056,0,0,0-16.381.779v-8.32a121.63,121.63,0,0,1-11.571,5.331c-3.77-8.971-5.2-11.831-10.14-19.241a99.683,99.683,0,0,0,29.641-14.431c9.88-6.76,16.381-13,21.841-21.19h21.581c6.24,8.32,12.61,14.169,22.361,20.54a103.228,103.228,0,0,0,30.421,14.17,97.8,97.8,0,0,0-9.491,20.541,105.387,105.387,0,0,1-12.35-5.59v8.19a128.936,128.936,0,0,0-15.731-.779h-15.6v11.309h18.2a129.79,129.79,0,0,0,16.511-.779v19.631a134.78,134.78,0,0,0-16.641-.78h-18.07v13h28.211a176.289,176.289,0,0,0,18.981-.78v19.891a169.587,169.587,0,0,0-18.591-.78H475.174a158.043,158.043,0,0,0-17.941.78V444.277a163.958,163.958,0,0,0,18.461.78h27.691v-13H486.744a130.046,130.046,0,0,0-16.38.78V413.206a139.139,139.139,0,0,0,16.38.779h16.641V402.676Zm48.751-17.812c-11.44-7.929-16.77-12.74-24.181-21.71-6.5,8.45-13,14.3-23.791,21.71Z"/><path class="cls-3" d="M586.843,363.284c0-5.07-.26-9.49-.78-15.341,4.42.521,7.8.521,15.341.521l86.323.13c5.85,0,10.4-.261,15.211-.651a131.98,131.98,0,0,0-.65,15.341v85.543a155.192,155.192,0,0,0,.779,17.941h-20.54v-6.89H606.6v6.89H586.063a146.142,146.142,0,0,0,.78-17.941ZM606.6,442.2H682.4V366.4H606.6Zm16.771-54.472a67.48,67.48,0,0,0-11.441.65V370.694a81.355,81.355,0,0,0,11.441.52h42.511a83.525,83.525,0,0,0,11.571-.52v17.681a68.258,68.258,0,0,0-11.571-.65h-12.87v7.41h10.66a53.774,53.774,0,0,0,10.531-.65v17.551a33.551,33.551,0,0,0-5.071-.52,35.271,35.271,0,0,1,3.9,7.41l-6.63,1.69a70.554,70.554,0,0,0,12.091-.65v17.81a93.214,93.214,0,0,0-11.831-.519H622.205a81.105,81.105,0,0,0-11.7.519v-17.81a68.188,68.188,0,0,0,11.7.65h11.7v-9.23h-8.45a56.11,56.11,0,0,0-10.661.65V394.485a55.278,55.278,0,0,0,10.661.65h8.45v-7.41Zm29.641,32.891h7.93a39.262,39.262,0,0,0-4.16-8.06l4.68-1.17h-8.45Z"/><path class="cls-3" d="M766.051,427.108c-6.84,15.48-14.52,22.56-24.36,22.56-13.679,0-23.519-13.92-23.519-33.239a51.545,51.545,0,0,1,13.2-34.918c10.08-11.04,24.239-16.8,41.278-16.8,28.8,0,47.518,17.519,47.518,44.518,0,20.759-10.8,37.319-29.158,44.758-5.76,2.4-10.44,3.6-18.84,5.04a38.294,38.294,0,0,0-7.319-14.04c11.039-1.439,18.239-3.359,23.878-6.6,10.44-5.76,16.68-17.159,16.68-30,0-11.52-5.16-20.88-14.76-26.64-3.719-2.159-6.839-3.119-12.119-3.6C776.25,396.989,772.05,413.549,766.051,427.108Zm-17.64-42.958a40.178,40.178,0,0,0-16.319,32.4c0,9.84,4.2,17.639,9.479,17.639,3.96,0,8.04-5.04,12.36-15.359,4.56-10.8,8.52-27,9.96-40.558A30.546,30.546,0,0,0,748.411,384.15Z"/><path class="cls-3" d="M904.469,312.259a52.154,52.154,0,0,0-.905-11.223h30.408a66.2,66.2,0,0,0-.9,10.318v.905h50.5a127.815,127.815,0,0,0,19.911-1.086V336.15c-5.612-.723-10.318-.9-19.73-.9H855.961c-9.231,0-13.756.182-19.367.9V311.173a167.45,167.45,0,0,0,21,1.086ZM961.3,445.836c3.8.182,5.249.182,6.515.182,3.258,0,4.163-.725,4.163-3.44V407.646H867.907V450c0,10.68.181,15.566.9,21.539h-28.96A166.8,166.8,0,0,0,840.938,450V402.216a164.726,164.726,0,0,0-.724-16.472c6.335.543,11.765.725,19.91.725h121.27a157.256,157.256,0,0,0,18.281-.725,146.892,146.892,0,0,0-.725,16.472v42.173c0,14.3-1.266,18.28-6.515,21.719-4.344,2.9-12.309,4.163-24.8,4.163-3.44,0-9.231-.18-14.118-.362a62.473,62.473,0,0,0-1.811-14.661H903.926v6.878H877.5a98.308,98.308,0,0,0,.724-14.48V422.487a83.641,83.641,0,0,0-.543-10.5c4.344.363,8.145.543,14.661.543h55.929a114.443,114.443,0,0,0,13.575-.543,87.8,87.8,0,0,0-.543,10.861v22.986ZM861.753,351.9a83.4,83.4,0,0,0-.724-12.307c5.43.361,9.593.543,18.281.543h82.9c7.783,0,11.946-.182,17.2-.543a81.349,81.349,0,0,0-.723,12.488v17.558a78.4,78.4,0,0,0,.723,12.488c-5.611-.361-9.773-.543-17.738-.543H878.948c-7.6,0-12.127.182-17.919.543a86,86,0,0,0,.724-12.488Zm26.607,12.67h63.349v-7.24H888.36Zm15.566,72.038h33.123V430.09H903.926Z"/><path class="cls-3" d="M1158.05,345.562a77.658,77.658,0,0,0,7.421,11.765,109.1,109.1,0,0,0,21.9,21.9c-6.335,7.963-9.412,12.85-14.842,24.073-4.524-3.8-6.515-5.612-9.23-7.964a145.764,145.764,0,0,1-15.747,28.055c11.584,9.412,22.805,15.022,40.544,20.271-5.792,9.051-9.232,16.29-13.395,28.417-20.091-8.326-31.855-15.747-44.888-28.055-12.307,12.308-24.434,20.091-43.621,28.417-4.886-10.678-8.144-16.29-15.565-25.159,19.909-6.7,29.5-11.945,41.991-23.348A142.425,142.425,0,0,1,1097.6,396.6c-2.715,2.9-3.8,4.164-7.421,7.6a79.487,79.487,0,0,0-10.137-14.842,126.332,126.332,0,0,0-7.059,19.91,70.8,70.8,0,0,1-9.049-15.747c.362,10.136.543,15.385.543,19v36.381c0,9.412.18,16.833,1.086,23.35h-28.78a195.651,195.651,0,0,0,1.268-23.35V425.2c0-6.515.181-12.488.361-17.737-4.524,13.756-7.964,20.814-14.117,29.14-3.439-12.489-5.974-19.547-11.223-30.408,10.68-12.67,18.282-29.321,22.807-49.231h-3.62a91.43,91.43,0,0,0-14.481.9V331.083a84.732,84.732,0,0,0,14.481.9h5.61V320.223a131.533,131.533,0,0,0-1.086-18.825h28.6a133.975,133.975,0,0,0-.9,18.825v11.764H1069a57.187,57.187,0,0,0,9.955-.723v26.425a54.952,54.952,0,0,0-9.411-.723h-4.888c2.715,7.782,6.517,13.936,13.033,21.539,10.135-8.869,16.652-18.462,22.987-32.943a161.839,161.839,0,0,0-18.644,1.086V318.774a163.547,163.547,0,0,0,21.359,1.086h13.032v-5.249a64.966,64.966,0,0,0-.9-12.67h29.5a74.914,74.914,0,0,0-.725,12.127v5.792h18.1a170.56,170.56,0,0,0,21.539-1.086v27.874a188.961,188.961,0,0,0-21.72-1.086Zm-39.278,36.2c3.8,9.955,5.792,13.936,11.041,21.9,4.887-7.782,6.878-12.308,10.318-22.625l17.557,8.689c-9.413-10.318-15.205-19.187-22.988-35.295l15.2-8.87h-41.63l17.557,9.05c-8.325,16.29-13.574,24.617-21.9,34.752Z"/><path class="cls-3" d="M1237.327,359.861c-7.421,14.842-14.842,26.245-24.8,37.467-6.878-11.584-9.592-14.842-18.1-23.529,16.652-16.29,30.226-44.889,31.674-67.152l28.237,6.7c-2.172,6.154-2.172,6.154-3.62,11.041-.906,3.62-1.811,6.335-3.077,10.316h21.719v-8.325a203.878,203.878,0,0,0-1.086-24.254h30.951c-.9,6.335-1.085,12.488-1.085,24.254V334.7h31.494c10.678,0,19.548-.361,28.235-1.086v27.331c-9.05-.723-17.557-1.086-27.331-1.086h-32.4v27.151h26.606a249.216,249.216,0,0,0,25.341-1.086v27.331c-8.146-.725-15.567-1.086-25.159-1.086h-26.788v29.5h37.286a266.591,266.591,0,0,0,28.778-1.268v28.055c-10.316-.9-17.919-1.267-27.874-1.267H1230.812c-10.318,0-19.368.363-29.866,1.267V440.406a287.793,287.793,0,0,0,28.78,1.268h39.638v-29.5h-22.443c-9.594,0-17.015.361-24.8,1.086V386.106a221.957,221.957,0,0,0,24.254.906h22.986V359.861Z"/><path class="cls-3" d="M1429.092,371.22a116.068,116.068,0,0,0-.714,15.81c0,1.428,0,1.734.1,6.63,12.241-.1,23.461-1.326,29.888-3.468l1.02,12.343c-2.04.1-2.04.1-6.63.611a219.707,219.707,0,0,1-23.972,1.837c.2,7.956.408,12.546,1.122,22.543a75.3,75.3,0,0,1,15.913,6.936c3.672,2.041,5.407,3.265,13.159,8.671,1.327.918,1.836,1.326,3.06,2.04l-7.956,11.526a40.249,40.249,0,0,0-7.242-6.732,64.256,64.256,0,0,0-13.465-8.364c-1.326-.714-2.143-1.123-3.265-1.836a23.591,23.591,0,0,1,.2,3.264c0,11.424-8.058,17.443-23.256,17.443-10.4,0-17.648-2.958-21.421-8.773a18.382,18.382,0,0,1-2.551-9.078c0-10.608,10.507-18.259,25.195-18.259a37.7,37.7,0,0,1,9.488,1.02,2.269,2.269,0,0,1-.1-1.02c-.408-3.673-1.326-31.519-1.428-44.27a60.214,60.214,0,0,0-.51-8.977Zm-20.606,64.058c-7.65,0-12.751,3.061-12.751,7.549,0,2.447,1.122,4.08,3.469,5.3a18.246,18.246,0,0,0,7.446,1.53c3.876,0,7.243-1.02,9.283-2.754,1.428-1.224,2.142-3.162,2.142-5.713,0-1.836-.1-4.691-.1-4.794A33.1,33.1,0,0,0,1408.486,435.278Z"/><path class="cls-3" d="M1485.692,433.085a112.217,112.217,0,0,1,21.6,21.118l-8.927,8.352c-7.008-9.5-12.479-15.263-20.831-21.887Z"/></g><g class="cls-22"><g class="cls-38"><g class="cls-39"><path class="cls-25" d="M256.482,259.859l.017-.009Zm110.569-61.136c-.5.242-2.429,1.289-3.6,1.834C363.009,200.016,367.629,198.092,367.051,198.723Zm-7.368,3.635c-.52.251-2.445,1.3-3.6,1.823C355.642,203.651,360.261,201.727,359.683,202.358Zm-69.142,20.283c1.168-.669,2.184-1.256.269-.312l-2.2,1.1Zm10.108,12.284c-.007-.094.416-.4,1.308-.9-1.841.961-5.536,2.861-5.273,2.942C297.921,236.348,299.271,235.651,300.649,234.925Zm1.591-1.021c2.7-1.424,5.376-2.914,2.624-1.534l-1.869.948Zm1.555-1.168c1.315-.721,2.874-1.6,4.455-2.475l-4.208,2.2Zm12.41-6.968c.361-.222.191-.172-.725.277-4.853,2.424-7.775,3.77-4.759,2.152,2.575-1.383,8.154-4.447,6.47-3.641l-6.682,3.449a54.179,54.179,0,0,0-4.827,3.286C309.393,229.341,312.945,227.462,316.205,225.768Zm-22.548-4.4c4.723-1.853,13.78-7.342,14.546-7.377l2.828-1.644C304.824,215.627,298.159,219.107,293.657,221.371ZM355.6,190.484l-2.208,1.213c1.09-.572,1.932-1,2.706-1.383Zm14.739,2.494c.836-.435,1.731-1.166,2.692-1.612.887-.462,1.778-1,3.181-1.6a24.477,24.477,0,0,1-3.922,2.37l.1.194a28.906,28.906,0,0,0,3.069-1.439l1.179-.689c-.029-.137-.7.113-.923.273a10.128,10.128,0,0,1,2.5-1.761l.434-.372c.093-.272-.97.187.177-.4a43.156,43.156,0,0,0-4.2,2.142c1.66-.363-3.917,2.3-5.163,3.189Zm7.665-8.65c1.191-.751,3.462-1.886,4.708-2.695a31.377,31.377,0,0,0-5.253,2.737ZM203.862,279.412c-.833-2.447.824-5.7,3.014-8.575l1.7-2.069a133.365,133.365,0,0,1,15.043-10.316l3.138-1.837c3.183-1.918,6.435-3.747,9.716-5.564l3.3-1.815c3.808-2.42,7.766-4.155,11.645-6.279a47.419,47.419,0,0,0,5.743-3.612,51.678,51.678,0,0,1,6.959-3.624c-1.746.325,5.508-3.318,5.192-3.135a17.464,17.464,0,0,0,2.63-1c.86-.391-.15.248-1.172.866.984-.4,1.939-.86,2.894-1.358l2.992-1.663a89.545,89.545,0,0,1,10.129-5.2c8.448-4.591,31.8-16.864,27.653-14.511-4.674,2.676-2.136,1.55-.848.9.752-.389,1.763-.9,2.893-1.483a.432.432,0,0,0-.4-.051,75.264,75.264,0,0,1,7.968-4.388,7.805,7.805,0,0,0-1.4.963c1.468-.8.432.073,1.439-.369,2.728-1.382,4.051-2.008.922-.356,3.013-1.339,5.051-1.974,8.082-3.2,1.061-.626.48-.286.094-.232,1.828-1.148,6.211-3.431,6.554-3.768.331-.359-11.821,6.276-9.739,4.95.846-.538,2.7-1.477,3.347-1.936-1.559.795-3.451,1.824-4.485,2.255,1.044-.617,2.552-1.426,3.347-1.937a11.527,11.527,0,0,1-2.114.982c1.5-.82,2.614-1.473,4.422-2.415.837-.352-.574.558,1.121-.351.368-.045-1.095.643-.936.7,1.407-.672,4.129-2.146,4.836-2.456.7-.279-1.66.891-1.671.994,5.344-2.771,11.4-5.966,13.3-6.9,1.91-.956.148-.01-.62.471,2.232-1.087,3.876-1.969,6.485-3.328,1.678-.859,1.034-.472.437-.081.452-.215.853-.4,1.119-.517.2-.079.684-.312,1.029-.442-.994.589-2.914,1.565-3.7,2.086,1.606-.667,5.151-2.765,6.571-3.291-2.037,1.247-4.308,2.424-6.623,3.764,4.65-2.357,9.093-5.382,13.013-6.943a13.957,13.957,0,0,0-1.358,1.048,21.374,21.374,0,0,1,4.744-2.546c.712-.341,2.136-.98,3.532-1.674-2.371,1.357-3.958,2.264-5.681,3.078a1.1,1.1,0,0,0,.538-.136c-3.581,2.354-6.069,2.882-8.8,4.211l-.6.38c-.748.68,2.261-1.033,2.647-1.045-3.924,2.2-8.325,4.372-10.152,5.644,4.751-2.452,8.849-4.778,12.506-6.463-.787.729-4.432,2.477-6.051,3.527,7.831-3.912,8.616-4.319,9.266-4.612l-1.761,1.028.527-.116c3.4-1.8,7.376-3.945,7.213-3.76-.124.135-3.2,1.843-6.471,3.6l1.2-.252c3.852-2.012,8.41-3.93,12.152-6.148-.511.553-.207.348.659.05-1.133.775-2.844,1.694-4.074,2.493.475-.172,1.254-.632,1.561-.671a12.815,12.815,0,0,0-1.884,1.248c1.853-.9,3.825-1.9,5.768-2.874.506.007-.807.489-.63.575,1.854-.9,4.343-2.359,5.775-2.864-1.444.97-4.5,2.43-5.369,3.05.638-.26,1.276-.521,1.934-.788,1.248-.643,1.864-.918.521-.086-.716.455-.693.456-.495.378.922-.314,3.858-1.919,3.936-1.571a36.506,36.506,0,0,0-4.334,2.577c.68-.073,2.119-1.012,2.381-.888-3.322,1.658-3.145,1.7-4.039,1.987.338-.223,1.3-.669,1.195-.781l-6.093,3.285c.273.062.31.293.181.5.887-.462,1.831-.9,3.457-1.814-.272.55-1.8,1.316-3.245,1.965l.109.122c2.248-1.22,5.739-2.97,8.131-4.044-1.016.628-4.9,2.711-7.568,4.076l.347.036c-3.355,1.718-7.107,4.08-10.9,5.951,2-.586,3.937-2.016,6.305-3.176,1.09-.53,2.137-.938,3.234-1.374,2.907-1.658,11.643-6.4,12.718-6.8,1.183-.44-7.695,4.326-7.7,4.44s4.182-2.009,2.222-.984c-1.028.524-3.265,1.683-4.892,2.514l.121.631c1.412-.744,3.118-1.549,3-1.931a14.449,14.449,0,0,1,2.412-1.2c-.225.149-.593.318-.546.4.344-.171.818-.467.921-.4-1.677.942-3.962,2.294-5.815,3.275l-.341.5c.051.014,1.532-.683,2.792-1.3,1.333-.646-1.331.895-3.494,2.029l-.889.824c.74-.41,1.6-.874,2.632-1.4,1.244-.528,1.309-.326,2.553-.855-2.151,1.238-4.788,2.668-6.935,3.751l-2.071,1.752c1.8-.871,3.5-1.6,4.534-2a8.087,8.087,0,0,1,1.921-.934c-.688.467,1.227-.52,1.055-.149-1.144.35-3.165,1.546-4.061,1.665-1.626.873-3.4,1.839-4.981,2.674l-.563.414c1.35-.7,2.644-1.336,4.119-2-.482.648-4.406,2.769-7.345,4.124-5.679,3.327-12.132,5.372-18.013,8.32a10.672,10.672,0,0,0-.909.585l-1.137.931c1.4-.724,2.661-1.345,3.712-1.826-3.978,2.428,5.955-2.974,6.721-3.093-6.445,3.933-19.025,10.338-26.567,14.707,1.859-.97,2.469-1.256.527-.116l-1.591.938c7.92-3.988,15.78-8.82,22.242-11.7-3.67,2.026-9.365,4.874-10.756,5.983a25.134,25.134,0,0,1,2.92-1.471c-1.781,1.235-8.285,4.365-10.027,5.592,9.2-4.731,21.465-11.565,28.406-14.734-10.235,5.285-23.8,12.872-32.662,17.214,1.485-.853,1.461-.938.6-.629l-8.259,4.211c-.53.354-.326.286,1.053-.357a14.105,14.105,0,0,1,2.187-.965c-.716.454-9.317,5.043-2.449,1.454,6.851-3.581,18.718-9.771,11.864-5.993s-9.49,5.414-5.689,3.471c3.819-1.953,15.9-8.064,11.922-5.885-3.964,2.169-12.269,6.864-17.042,9.357-4.789,2.5,2.8-2.506-4.207,1.229s-1.035.876-2.38,1.583c-2.123,1.126-6.014,3.229-9.7,5.222-2.569,1.435-5.912,3.216-7.526,4.235.188.066,8.031-4.269,4.984-2.466-7.675,4.12-16.219,8.776-12.857,6.582-4.727,2.579-8.229,4.431-11.222,5.968-4.446,2.777-9.829,5.6-10.381,5.991-.643.47-13.545,6.6-17.813,9.993-.368.17-8.955,4.5-9.817,4.644-7.919,4.6-6.674,4.195-14.672,8.363-6.682,3.49-8.8,4.43-9.926,5.009-7.078,3.6-6.871,3.869-10.908,4.561-1.213.22-2.812,1.065-3.661.783A5.528,5.528,0,0,1,203.862,279.412ZM369.4,197.893a17.229,17.229,0,0,1,2.758-1.286A6.582,6.582,0,0,1,369.4,197.893Zm-.564-.726c-3.126,1.455-7.96,4.078-10.214,5.163-2.238,1.076,3.786-2.3,9.4-5.255,5.637-2.957,1.238-.053,3.572-1.194,2.322-1.121-2.076,1.379-4.41,2.478C364.866,199.45,368.651,197.474,368.835,197.167Zm-9.293-9.912a74.257,74.257,0,0,1,7.529-3.9C364.886,184.567,359.408,187.494,359.542,187.255Zm-8,4a10.374,10.374,0,0,1-2.171.957C350.224,191.77,351.363,191.047,351.542,191.257Zm28.208-.061c-1.4.641-2.292,1.342-3.212,1.822C371.923,195.439,378.649,191.3,379.75,191.2Zm-38.18,4.5c1.282-.66,2.638-1.388,2.5-1.035C343.564,194.691,341.845,195.879,341.57,195.692Zm-5.386,3.017a7.219,7.219,0,0,1,2.412-1.2A13.42,13.42,0,0,1,336.184,198.709Zm-9.654,4.5c.332-.317,1.986-1.261,2.108-1.034C328.005,202.46,326.748,203.329,326.53,203.209Zm49.44-21.657a22.871,22.871,0,0,1,3.011-1.5A22.746,22.746,0,0,1,375.97,181.552Zm-5.515,2.126a7.171,7.171,0,0,1,2.418-1.186A14.128,14.128,0,0,1,370.455,183.678Zm3.429-1.7c.332-.318,1.986-1.261,2.125-1.043C375.359,181.227,374.1,182.1,373.884,181.977Z"/></g></g></g><path class="cls-3" d="M496.818,641.571c-15.548,0-21.295.169-28.9,1.014V611.826c8.112,1.183,12.676,1.352,29.407,1.352h67.6V547.1H499.354c-15.549,0-21.971.169-29.07.844V517.183c8.112,1.182,13.521,1.52,29.576,1.52h77.575c9.126,0,13.858-.169,18.759-.507-.338,5.915-.507,8.788-.507,17.239v88.221c0,14.2.169,18.084,1.014,27.886H564.928v-9.971Z"/><path class="cls-3" d="M665.818,640.219V651.88H635.059a215.311,215.311,0,0,0,1.352-27.548V537.463c0-7.268-.169-12.507-.676-19.436a197.893,197.893,0,0,0,20.45.676h91.094c10.479,0,13.014,0,20.957-.676-.338,5.915-.507,12-.507,19.943v85.686c0,13.014.338,21.126,1.183,27.886h-30.59V640.219Zm72.5-94.475h-72.5v67.434h72.5Z"/><path class="cls-3" d="M918.477,544.73c13.351,0,17.576-.168,25.35-1.352v29.745a247.541,247.541,0,0,0-24.844-.845H889.069c-1.69,22.14-4.563,33.294-11.83,46.139A93.806,93.806,0,0,1,850.2,647.993a163,163,0,0,1-17.239,10.817c-6.253-10.986-11.154-16.563-22.309-25.859,19.774-8.281,32.112-18.083,39.886-31.265a52.984,52.984,0,0,0,7.1-21.3c.338-2.536.338-2.536.845-8.113H822.312c-12.168,0-16.056.169-24.506.845V543.378c7.6,1.184,10.986,1.352,25.013,1.352H860c0-2.366,0-2.366.169-6.76V525.126a136.944,136.944,0,0,0-1.014-17.915H891.6c-.676,4.9-.676,5.408-1.014,18.422-.169,6.422-.169,6.422-.169,13.182,0,2.2-.169,4.225-.169,5.915Z"/><path class="cls-3" d="M1011.424,511.267c-6.592,19.267-11.662,50.871-12.845,81.63l13.014,4.394A166.736,166.736,0,0,0,1005,644.613a47.324,47.324,0,0,0,.507,8.282l-29.069,1.351a67.574,67.574,0,0,0-.845-8.957c-3.211-22.646-4.394-37.351-4.394-53.406,0-19.436,2.028-40.731,6.422-65.068,2.028-11.83,2.2-13.013,2.535-18.084Zm46.645,73.856c-7.774,9.971-11.323,17.238-11.323,23.322,0,7.775,7.605,12,21.971,12a125.6,125.6,0,0,0,42.082-6.929l1.69,29.914c-4.394.507-4.394.507-14.365,2.028a206.976,206.976,0,0,1-29.238,2.2c-15.718,0-26.2-2.2-34.985-7.1a31.309,31.309,0,0,1-15.548-26.872c0-8.282,2.873-17.577,8.112-26.366,2.366-3.886,3.38-5.577,7.943-12.168Zm-33.125-61.012c7.943,1.691,16.9,2.535,30.083,2.535,22.478,0,39.04-1.351,50.364-4.225l1.183,28.9c-1.521,0-3.211.169-12.507,1.184-11.661,1.183-24,1.858-35.66,1.858a279.145,279.145,0,0,1-29.069-1.351c-1.352-.169-2.535-.169-4.9-.338Z"/><path class="cls-3" d="M1227.238,560.278c0,35.324-4.394,58.646-14.7,77.068-5.239,9.295-10.816,15.717-21.464,25.012-5.408-8.281-8.788-12.5-17.576-21.295,9.126-6.421,12.845-9.97,17.069-16.562a65.617,65.617,0,0,0,9.3-22.984c-2.366,1.858-8.281,5.746-17.577,12l-4.393-18.929c-2.367.676-3.043,1.015-5.24,1.69v43.266c0,16.562-5.746,21.295-25.52,21.295-2.873,0-5.577-.169-10.985-.507-1.014-10.478-2.029-14.873-5.578-24,5.409.507,9.634.845,12.845.845,3.38,0,4.225-1.014,4.225-5.239V603.375c-3.887.846-3.887.846-5.24,1.184-5.069,1.182-8.112,2.028-9.125,2.366l-4.056-26.028c4.562-.168,9.3-.844,18.421-2.535v-23.83h-4.9a99.806,99.806,0,0,0-11.831.677V530.364a67.561,67.561,0,0,0,12.169.846h4.563V519.718c0-8.958-.169-12.507-.845-17.408h26.7c-.676,5.07-.845,8.619-.845,17.408V531.21h2.028a35.324,35.324,0,0,0,4.225-.169,20.781,20.781,0,0,1-1.69-4.057l16.9-8.112c2.873,7.606,4.732,13.352,8.957,26.872v-24a184.191,184.191,0,0,0-.844-19.266h25.688a129.162,129.162,0,0,0-.676,16.224ZM1186,583.939a110.184,110.184,0,0,0,16.9-9.126c.169-3.379.169-4.225.169-6.421v-8.958l-12.507,8.281c-5.408-19.943-5.915-21.464-8.619-28.9V554.87c-2.873-.169-4.9-.338-7.267-.338h-2.028v18.253c3.549-.845,6.253-1.69,13.352-3.718Zm72,50.027c0,1.52,1.015,2.2,3.55,2.2,6.929,0,7.6-1.69,8.112-24.676,8.45,4.733,13.182,6.592,21.633,8.282-1.353,19.605-3.043,27.717-6.761,32.619-4.225,5.577-10.309,7.266-25.858,7.266-18.59,0-24.844-3.886-24.844-15.548V518.2a128.653,128.653,0,0,0-.676-15.717h25.69c-.677,4.9-.846,8.619-.846,18.759v19.943c5.746-7.944,8.45-13.013,12.338-22.985l18.929,14.7c-7.268,13.69-11.493,20.282-20.451,31.943L1258,555.209v10.985c14.873,11.324,20.957,16.563,31.436,27.717l-13.69,19.267A205.357,205.357,0,0,0,1258,593.573Z"/><path class="cls-3" d="M1349.254,511.1a115.938,115.938,0,0,0,3.55,25.013,84.053,84.053,0,0,1,28.9-5.239h3.719c3.549-14.7,4.224-18.76,4.393-25.014l29.747,5.578a90.835,90.835,0,0,0-3.042,9.464c-2.536,8.788-3.719,13.521-3.888,14.028,9.972,3.042,15.887,6.084,22.477,11.661,12.676,10.647,19.268,25.182,19.268,42.759,0,26.872-15.042,48.505-40.9,58.983-9.126,3.718-17.577,6.253-30.421,8.788-3.38-11.83-6.591-18.421-13.521-28.223,17.746-1.522,31.267-5.409,39.717-11.155,10.478-7.267,15.549-17.408,15.549-30.76s-6.085-21.97-19.437-27.547c-9.126,26.534-17.745,44.449-28.561,58.983-14.029,18.929-26.872,27.548-41.239,27.548-20.449,0-34.307-17.576-34.307-43.435,0-21.464,9.464-40.392,27.21-53.913-2.029-8.112-3.042-12.337-4.9-21.633-1.182-5.746-1.521-6.759-3.042-10.309Zm-21.8,89.573c0,10.309,3.719,16.732,9.465,16.732,3.38,0,6.929-2.366,10.479-7.1a177.981,177.981,0,0,1-11.663-32.787A38.729,38.729,0,0,0,1327.452,600.671Zm38.2-14.7a158.943,158.943,0,0,0,12.506-29.914c-8.619.338-13.858,1.521-20.449,4.732A181.57,181.57,0,0,0,1365.648,585.968Z"/><path class="cls-3" d="M1508.918,631.627a25.687,25.687,0,1,1-25.687-25.688A25.786,25.786,0,0,1,1508.918,631.627Zm-39.519,0a13.832,13.832,0,1,0,13.832-13.832A13.915,13.915,0,0,0,1469.4,631.627Z"/><circle class="cls-5" cx="1639.108" cy="788.538" r="6.528"/><path class="cls-5" d="M111.521,770.488a7.685,7.685,0,1,1,10.868,0A7.684,7.684,0,0,1,111.521,770.488Z"/><rect class="cls-1" x="10.998" y="2.78" width="1920" height="1080"/><path class="cls-3" d="M1106.712,923.809h45.836v14.5h-31.317v14.536H1150.2v14.605h-28.978v15.269h33.607V997.29h-8.748l3.122,4.36c-.8,1.391-1.517,2.812-2.415,4.107a5.628,5.628,0,0,1-2.313,2.038c-3.742,1.708-7.409,3.578-11.129,5.345a4.374,4.374,0,0,1-1.807.41c-6.34.019-12.682-.027-19.022,0a4.418,4.418,0,0,0-2.355.66,10.191,10.191,0,0,1-7.344,1.9c-.311-.04-.638.029-.948,0a9.022,9.022,0,0,0-7.436,2.107,1.652,1.652,0,0,1-1.239.238c-2.524-.472-5.041-.975-7.545-1.539a1.651,1.651,0,0,0-1.811.426,3.2,3.2,0,0,1-3.683.885,35.5,35.5,0,0,0-5.4-1.3,14.337,14.337,0,0,0-3.555.287q-9.325,1.121-18.648,2.263c-6.67.816-13.336,1.652-20,2.458-6.078.74-12.157,1.453-18.232,2.19s-12.15,1.5-18.225,2.237l-16.449,1.982c-5.48.66-11.033,1.354-16.55,2.025s-10.968,1.321-16.449,1.982l-4.9.6c-.162-1.616,0-1.887,1.384-2.118q11.811-1.962,23.621-3.9l24.872-4.1,24.974-4.133,24.873-4.1,26.216-4.377c1.355-.221,2.716-.393,4.057-.684a1.7,1.7,0,0,0,.991-.773,24.6,24.6,0,0,0,1.417-2.94,1.654,1.654,0,0,1,1.368-1.11c1.622-.33,3.228-.736,4.853-1.027a13.846,13.846,0,0,1,2.24-.02c.178-1.265,1.417-1.166,2.51-1.374,4.249-.813,8.484-1.672,12.735-2.468.84-.155,1.722-.066,2.577-.155a1.089,1.089,0,0,0,.786-.413c.39-.912,1.186-.991,1.983-1.113,1.2-.208,2.4-.446,3.508-.661Z"/><path class="cls-3" d="M844.035,1014.29l9.326-2.313c2.227-.552,4.447-1.136,6.687-1.625a1.539,1.539,0,0,0,1.321-1.368c1.3-5.315,2.643-10.617,4.02-16.022a1.685,1.685,0,0,1,.387.885c1.265,5.058,2.55,10.112,3.786,15.177a1.579,1.579,0,0,0,1.338,1.338c5.358,1.281,10.7,2.616,16.187,3.964a2.578,2.578,0,0,1-1.354.515c-4.883,1.209-9.766,2.425-14.661,3.591a1.789,1.789,0,0,0-1.547,1.533c-1.212,5.031-2.5,10.046-3.766,15.067a1.26,1.26,0,0,1-.383.813c-1.351-5.368-2.712-10.7-4.023-16.055a1.482,1.482,0,0,0-1.256-1.282c-4.955-1.186-9.91-2.428-14.866-3.657-.393-.1-.783-.208-1.172-.31Z"/><path class="cls-3" d="M913.644,1043.423c3.419-.925,6.481-1.794,9.58-2.567a2.073,2.073,0,0,0,1.731-1.7c.783-3.082,1.672-6.135,2.527-9.23.476.294.407.8.519,1.186q1.193,4.155,2.313,8.341a1.551,1.551,0,0,0,1.271,1.285c3.225.826,6.426,1.748,9.931,2.716l-4.589,1.268c-1.751.486-3.485,1.014-5.249,1.431a1.6,1.6,0,0,0-1.374,1.321c-.783,2.973-1.632,5.92-2.452,8.877-.059.211-.066.446-.37.617-.852-3.069-1.734-6.1-2.517-9.164a2.048,2.048,0,0,0-1.7-1.717c-2.623-.661-5.216-1.4-7.822-2.115C914.936,1043.826,914.45,1043.664,913.644,1043.423Z"/><path class="cls-3" d="M899.862,1015.409l5.186-1.44c1.5-.413,2.99-.846,4.5-1.222a1.2,1.2,0,0,0,.991-1.011c.865-3.211,1.784-6.409,2.685-9.62.42.086.351.446.42.7.806,2.848,1.629,5.692,2.378,8.553a1.805,1.805,0,0,0,1.471,1.5c2.973.753,5.946,1.606,8.893,2.422.162.042.313.112.759.277-2.771.77-5.216,1.652-7.733,2.085a4.182,4.182,0,0,0-3.928,3.868,43.119,43.119,0,0,1-2.253,7.449c-.763-2.718-1.652-5.407-2.24-8.159a3.228,3.228,0,0,0-2.847-2.911c-2.425-.485-4.791-1.268-7.179-1.929-.373-.1-.733-.234-1.1-.353Z"/><path class="cls-3" d="M983.209,997.224v-75.74l53.6,46.292V923.809h14.506v75.714l-53.566-46.266v43.967Z"/><path class="cls-3" d="M879.763,973.547H866.678V959.084h31.638a37.918,37.918,0,0,1-71.892,18.305,37.941,37.941,0,0,1,60.686-43.851l-10.2,10.195a23.455,23.455,0,1,0-28.41,36.884A23.046,23.046,0,0,0,879.763,973.547Z"/><path class="cls-3" d="M915.722,997.2V923.836h45.9v14.456h-31.33v14.536h29.031v14.585H930.31v15.278h33.62V997.21Z"/><path class="cls-3" d="M1071.433,923.809H1086.6v73.424h-15.167Z"/><g class="cls-40"><path class="cls-3" d="M845.661,864.592c-.922-1.875-2.339-3.255-5.706-3.255-4.217,0-6.556,1.592-6.556,5.024,0,3.007,2.445,3.856,5.458,4.528,3.862.884,6.449,2.654,6.449,6.05,0,3.856-2.267,7.323-9.214,7.323-4.04,0-6.591-1.592-7.9-4.069l1.772-1.1c1.169,1.91,2.622,3.255,6.272,3.255,5.139,0,6.946-2.159,6.946-5.1,0-2.512-1.595-3.82-5.422-4.6-3.863-.779-6.45-2.618-6.45-6.085,0-3.679,2.375-7.146,8.789-7.146,3.9,0,6.025,1.45,7.406,4.033Z"/><path class="cls-3" d="M861.889,884.05H859.94l.426-2.264a6.665,6.665,0,0,1-5.493,2.476c-3.65,0-6.238-2.4-5.245-7.429l2.055-10.472h1.949l-2.055,10.472c-.78,4,.921,5.59,3.65,5.59,3.367,0,5.457-2.229,6.1-5.449l2.055-10.613h1.949Z"/><path class="cls-3" d="M882.548,876.443c-1.028,5.343-3.827,7.819-8.4,7.819-2.445,0-4.075-.708-4.961-2.264l-1.7,8.773h-1.949l4.75-24.41h1.949l-.355,1.875a7.413,7.413,0,0,1,5.635-2.087c4.147,0,6.45,3.007,5.528,7.747Zm-1.949,0,.5-2.547c.709-3.714-.6-5.943-3.969-5.943-3.757,0-5.564,1.91-6.308,5.731l-.6,3.078c-.637,3.325.213,5.7,4.111,5.7,3.4,0,5.493-1.946,6.273-6.015"/><path class="cls-3" d="M900.833,876.443c-1.028,5.343-3.828,7.819-8.4,7.819-2.444,0-4.075-.708-4.961-2.264l-1.7,8.773h-1.949l4.749-24.41h1.949l-.354,1.875a7.41,7.41,0,0,1,5.635-2.087c4.146,0,6.449,3.007,5.527,7.747Zm-1.949,0,.5-2.547c.71-3.714-.6-5.943-3.969-5.943-3.756,0-5.564,1.91-6.308,5.731l-.6,3.078c-.638,3.325.212,5.7,4.111,5.7,3.4,0,5.493-1.946,6.273-6.015"/><path class="cls-3" d="M918.373,876.479c-.957,5.059-3.615,7.783-8.612,7.783-4.323,0-6.7-2.971-5.776-7.783l.5-2.583c.957-5.023,3.827-7.747,8.612-7.747,4.5,0,6.7,2.971,5.776,7.747ZM916.92,873.9c.744-3.856-.709-5.943-4.075-5.943-3.757,0-5.671,2.087-6.415,5.943l-.5,2.583c-.709,3.714.5,5.979,4.075,5.979,3.792,0,5.706-2.265,6.415-5.979Z"/><path class="cls-3" d="M925.033,873.4l-2.09,10.649h-1.949l3.437-17.689h1.949l-.426,2.229a6.056,6.056,0,0,1,4.926-2.441,4.751,4.751,0,0,1,4.36,2.547l-1.7,1.1a3.257,3.257,0,0,0-3.118-1.8c-2.836,0-4.75,2.194-5.388,5.413"/><path class="cls-3" d="M936.585,866.361h2.268l.78-3.892h1.949l-.78,3.892h4.36l-.319,1.8h-4.395l-1.914,9.906c-.567,2.83-.461,4.1,2.41,4.1h1.17l-.39,1.875h-1.241c-3.508,0-4.748-1.7-4-5.449l2.02-10.436h-2.232Z"/><path class="cls-3" d="M948.315,875.7l-.142.742c-.709,3.644.283,6.015,4.217,6.015a5.636,5.636,0,0,0,5-2.229l1.383,1.167c-1.383,1.84-3.367,2.866-6.627,2.866-4.961,0-6.769-3.4-5.918-7.819l.5-2.547c1.028-5.377,3.934-7.748,8.363-7.748s6.2,3.291,5.281,7.925l-.32,1.628Zm.354-1.769h9.781c.744-3.892-.5-5.979-3.721-5.979s-5.316,1.768-6.06,5.943Z"/><path class="cls-3" d="M978.9,859.638h1.949L976.1,884.05h-1.949l.355-1.84c-1.348,1.486-3.084,2.052-5.529,2.052-4.111,0-6.557-2.972-5.6-7.819l.5-2.547c1.027-5.307,4-7.747,8.4-7.747,2.657,0,4.182,1.131,4.925,2.37Zm-3.3,16.841.5-2.547c.709-3.609-.249-5.979-4.04-5.979-3.367,0-5.422,1.8-6.237,5.943l-.5,2.547c-.709,3.715.5,6.015,3.933,6.015,3.969,0,5.6-2.158,6.344-5.979"/><path class="cls-3" d="M994.947,868.236a7.486,7.486,0,0,1,5.528-2.087c4.608,0,6.486,3.325,5.635,7.747l-.5,2.547c-1.028,5.343-3.827,7.819-8.434,7.819-2.693,0-4.146-.885-4.926-2.264l-.39,2.052h-1.949l4.749-24.411h1.949Zm8.718,8.207.5-2.547c.744-3.856-.708-5.943-3.969-5.943-4.075,0-5.634,2.264-6.308,5.731l-.6,3.078c-.637,3.325.213,5.7,4.111,5.7,3.4,0,5.493-1.981,6.273-6.015"/><path class="cls-3" d="M1007.349,888.861c3.118,0,3.9-1.061,5.67-4.493l.106-.212-3.72-17.795h1.984l3.189,15.248,8.151-15.248h2.233l-9.994,18.4c-2.3,4.246-3.3,6.014-7.973,6.014Z"/><path class="cls-3" d="M1046.79,884.05l-2.516-9.587h-4.182l-1.878,9.587h-4.962L1038,859.639h8.753c4.927,0,7.868,2.441,7.868,6.332,0,3.963-1.985,6.44-5.635,7.748l3.048,10.331Zm-2.552-13.762c3.473,0,5.351-.814,5.351-3.892,0-1.981-1.524-2.547-4.111-2.547h-3.33l-1.241,6.439Z"/><polygon class="cls-3" points="1063.089 884.05 1058.128 884.05 1062.877 859.639 1067.838 859.639 1063.089 884.05"/><polygon class="cls-3" points="1084.316 872.941 1093.707 859.639 1098.704 859.639 1093.955 884.05 1089.207 884.05 1092.148 868.908 1084.741 879.663 1081.729 879.663 1078.574 869.014 1075.633 884.05 1070.92 884.05 1075.668 859.639 1080.028 859.639 1084.316 872.941"/><polygon class="cls-3" points="1106.746 884.05 1101.784 884.05 1106.533 859.639 1111.494 859.639 1106.746 884.05"/><polygon class="cls-3" points="1112.627 884.05 1122.089 871.349 1118.12 859.639 1123.294 859.639 1125.774 867.493 1131.126 859.639 1136.69 859.639 1128.078 871.632 1132.685 884.05 1127.546 884.05 1124.428 875.701 1118.226 884.05 1112.627 884.05"/><path class="cls-3" d="M812.26,736.72c-7.37,0-8.3-1.253-8.3-3.936V717.391l2.758.4c.5.075.752.25.752.4,0,.125-.151.251-.251.351-.276.2-.3.275-.3.326v6.041a26.213,26.213,0,0,0,5.916-1.6,21,21,0,0,0,4.187-2.031l2.081,2.081c.025.025.376.376.376.576,0,.026,0,.2-.226.2-.075,0-.552-.1-.677-.1s-3.109,1.253-3.71,1.453a54.461,54.461,0,0,1-7.947,2.181v3.961c0,1.455.151,2.232,4.337,2.232a52.788,52.788,0,0,0,8.273-.7v3.259c-1.2.075-3.911.3-7.271.3m6.719-16.17a14.6,14.6,0,0,0-2.381-2.08l1.253-1.129a15.135,15.135,0,0,1,2.407,2.081Zm2.382-1.98a12.568,12.568,0,0,0-2.382-2.081l1.279-1.128a14.468,14.468,0,0,1,2.381,2.056Z"/><polygon class="cls-3" points="842.464 736.394 842.464 735.291 829.353 735.291 829.353 732.709 842.464 732.709 842.464 728.446 829.829 728.446 829.829 725.89 842.464 725.89 842.464 721.628 829.553 721.628 829.553 719.046 845.322 719.046 845.322 736.394 842.464 736.394"/><path class="cls-3" d="M859.857,723.533a22.677,22.677,0,0,0-5.139-3.158l1.529-2.357a23.393,23.393,0,0,1,5.264,3.109Zm7.345,6.819a33.718,33.718,0,0,1-9.452,5.591c-.124.351-.175.777-.375.777-.151,0-.376-.151-.552-.476l-1.755-3.009a23.47,23.47,0,0,0,9.3-4.337,34.971,34.971,0,0,0,7.346-7.671l1.729,2.507a35.23,35.23,0,0,1-6.242,6.618"/><path class="cls-3" d="M896.653,731.38a24.955,24.955,0,0,0-7.245-4.939v10.7h-3.084V717.291l3.109.552c.05,0,.6.1.6.4,0,.151-.627.552-.627.677v6.494l1.153-1.755a30.108,30.108,0,0,1,8.072,5.214Zm.727-8.6a10.372,10.372,0,0,0-2.257-2.207l1.379-1.1a10.39,10.39,0,0,1,2.257,2.206Zm2.933-1.63a10.446,10.446,0,0,0-2.332-2.257l1.3-1.1a10.439,10.439,0,0,1,2.331,2.257Z"/><path class="cls-3" d="M915.675,730.1a2.808,2.808,0,1,1,2.808-2.807,2.8,2.8,0,0,1-2.808,2.807"/><polygon class="cls-3" points="946.681 735.216 946.681 734.338 933.569 734.338 933.569 731.581 946.681 731.581 946.681 722.856 933.619 722.856 933.619 720.074 949.663 720.074 949.663 735.216 946.681 735.216"/><path class="cls-3" d="M973.5,735.917v-1.078H962.093v.978h-2.984V719.422h17.374v16.5Zm0-13.662H962.093v9.752H973.5Z"/><path class="cls-3" d="M996.081,725.363c-.727,6.669-2.606,9.377-8.022,12.56l-2.557-2.481c4.788-2.307,6.744-4.438,7.5-10.079h-9.1v-2.908h9.3a36.785,36.785,0,0,0-.226-5.59l3.359.4c.351.05.752.126.752.376,0,.126-.6.577-.7.727-.05.076-.05.2-.05,1.229,0,.05-.025,1.554-.05,2.857h7.571v2.908Z"/><path class="cls-3" d="M1019.942,730.1a2.808,2.808,0,1,1,2.808-2.807,2.8,2.8,0,0,1-2.808,2.807"/><polygon class="cls-3" points="1050.947 735.216 1050.947 734.338 1037.836 734.338 1037.836 731.581 1050.947 731.581 1050.947 722.856 1037.886 722.856 1037.886 720.074 1053.93 720.074 1053.93 735.216 1050.947 735.216"/><path class="cls-3" d="M1068.39,723.533a22.655,22.655,0,0,0-5.139-3.158l1.529-2.357a23.4,23.4,0,0,1,5.265,3.109Zm7.345,6.819a33.7,33.7,0,0,1-9.451,5.591c-.125.351-.175.777-.376.777-.15,0-.376-.151-.551-.476l-1.755-3.009a23.482,23.482,0,0,0,9.3-4.337,34.985,34.985,0,0,0,7.345-7.671l1.729,2.507a35.23,35.23,0,0,1-6.242,6.618"/><path class="cls-3" d="M1100.022,726.717a12.875,12.875,0,0,1-1.58,6.493,11.686,11.686,0,0,1-5.565,4.663l-2.457-2.056c5.015-1.805,6.569-4.212,6.694-9.1h-8.424v-2.582h18.928v2.582Zm-7.922-8.924h12.133V720.5H1092.1Z"/><path class="cls-3" d="M1131.5,736.193a39.56,39.56,0,0,0-6.117-6.267,24.208,24.208,0,0,1-8.573,6.443l-2.207-2.282a22.207,22.207,0,0,0,8-5.414,20.032,20.032,0,0,0,4.262-6.844h-9.551V718.92h10.8a2.373,2.373,0,0,0,1.3-.551l1.93,2.131A3.475,3.475,0,0,0,1130,722a30.3,30.3,0,0,1-2.908,5.615,50.124,50.124,0,0,1,6.643,6.193Z"/><path class="cls-3" d="M1157.6,731.33a25.519,25.519,0,0,0-7.371-5.014v10.83h-2.958V717.291l3.008.527c.076.025.6.1.6.4,0,.15-.652.551-.652.677v6.592l1.179-1.855a22.468,22.468,0,0,1,4.262,2.282,30.706,30.706,0,0,1,3.91,3.008Z"/><path class="cls-3" d="M515.655,765.254c3.4,0,11.151.189,16.065,4.812,4.064,3.868,4.537,9.152,4.537,11.888a14.763,14.763,0,0,1-2.08,8.02,11.535,11.535,0,0,1-5.292,4.623,16.426,16.426,0,0,1,8.694,4.245c2.079,2.077,4.063,5.661,4.063,11.228,0,6.321-2.456,10.284-4.913,12.737-5.2,5-12.758,5.378-16.632,5.378H496.378V765.254Zm-4.914,25.569H513.1c1.985,0,5.292-.283,7.37-1.793a6.673,6.673,0,0,0,2.552-5.566,6.408,6.408,0,0,0-2.457-5.284c-2.079-1.6-4.914-1.6-7.56-1.6h-2.268Zm0,26.04h3.5c3.685,0,8.127-.1,10.773-2.547a6.948,6.948,0,0,0,2.079-5.284,6.756,6.756,0,0,0-1.985-5.094c-2.552-2.359-7.465-2.359-10.395-2.359h-3.969Z"/><path class="cls-3" d="M589.362,809.5H557.893a11.482,11.482,0,0,0,2.552,7.17,9.138,9.138,0,0,0,6.993,2.642,11.181,11.181,0,0,0,5.481-1.227,8.236,8.236,0,0,0,2.93-3.49L588.7,815.92a18.819,18.819,0,0,1-8.127,10.566c-4.064,2.454-8.6,3.115-13.325,3.115-6.331,0-11.906-1.133-16.821-6.039a22.583,22.583,0,0,1-6.331-16.229,23.941,23.941,0,0,1,6.425-16.605c5.1-5.094,11.435-6.038,16.16-6.038s11.529.85,16.727,6.322c5.008,5.283,5.953,11.887,5.953,17.077Zm-12.568-8.114a10.709,10.709,0,0,0-2.741-4.906,10,10,0,0,0-13.324.378,9.438,9.438,0,0,0-2.363,4.528Z"/><polygon class="cls-3" points="608.165 822.807 588.037 786.106 603.724 786.106 615.631 808.938 627.254 786.106 642.563 786.106 608.637 849.791 593.329 849.791 608.165 822.807"/><path class="cls-3" d="M682.438,822.807c-3.779,3.774-10.206,6.793-18.427,6.793s-14.647-3.019-18.427-6.793a22.538,22.538,0,0,1,0-31.324c3.78-3.774,10.206-6.793,18.427-6.793s14.648,3.019,18.427,6.793a22.536,22.536,0,0,1,0,31.324M656.357,799.22a11.628,11.628,0,0,0,0,15.85,10.486,10.486,0,0,0,7.749,3.02,10.337,10.337,0,0,0,7.56-3.02,11.63,11.63,0,0,0,0-15.85,11.213,11.213,0,0,0-15.309,0"/><path class="cls-3" d="M692.548,786.106h13.607v5a15.4,15.4,0,0,1,13.041-6.132c3.686,0,8.5.66,12.1,4.245,3.969,3.963,4.252,8.963,4.252,12.36v26.606H721.937V806.579c0-2.736-.094-6.227-2.268-8.4a7.15,7.15,0,0,0-5.2-1.887,7.405,7.405,0,0,0-5.67,2.264c-2.268,2.265-2.646,5.284-2.646,8.02v21.606H692.548Z"/><path class="cls-3" d="M787.327,828.185H773.719V823.09c-2.079,3.019-5.859,6.51-13.325,6.51-6.236,0-10.773-1.981-14.458-5.755a23.563,23.563,0,0,1-6.615-16.888c0-6.982,2.551-12.737,6.615-16.606a21.25,21.25,0,0,1,14.647-5.661c4.631,0,9.734,1.51,13.136,6.133V759.405h13.608ZM756.615,799.22a10.829,10.829,0,0,0-3.308,8.02,10.655,10.655,0,0,0,3.308,7.737A10.443,10.443,0,0,0,763.7,817.9a11.618,11.618,0,0,0,7.749-3.114,10.226,10.226,0,0,0,3.119-7.547,10.834,10.834,0,0,0-3.025-7.737,9.994,9.994,0,0,0-7.654-3.113,9.892,9.892,0,0,0-7.276,2.83"/><path class="cls-3" d="M861.882,779.124a31.048,31.048,0,0,0-8.222-5.85,26.877,26.877,0,0,0-10.868-2.453c-14.552,0-25.325,11.7-25.325,26.229,0,17.077,13.891,25.663,25.42,25.663a26.237,26.237,0,0,0,11.718-2.925,28.659,28.659,0,0,0,7.277-5.284v8.681a32.861,32.861,0,0,1-19,6.132c-18.711,0-32.6-14.152-32.6-32.362,0-18.775,14.08-32.738,32.98-32.738a29.746,29.746,0,0,1,18.617,6.226Z"/><path class="cls-3" d="M866.6,796.767c0-18.776,14.648-32.551,32.792-32.551s32.791,13.775,32.791,32.551c0,18.681-14.553,32.55-32.791,32.55S866.6,815.448,866.6,796.767m7.182,0a25.612,25.612,0,1,0,25.61-25.946,25.692,25.692,0,0,0-25.61,25.946"/><polygon class="cls-3" points="940.688 765.254 958.453 813.278 976.219 765.254 983.968 765.254 958.453 831.959 932.938 765.254 940.688 765.254"/><rect class="cls-3" x="988.124" y="765.254" width="6.993" height="62.931"/><path class="cls-3" d="M1006.643,765.254H1019.5c6.332,0,15.309.661,23.247,7.36,5.765,4.811,10.774,12.831,10.774,24.152,0,13.21-6.521,20.286-11.057,24.154-5.765,4.906-11.812,7.265-23.058,7.265h-12.758Zm6.994,56.327h6.142c5.008,0,11.907-.566,18.049-5.662,4.725-3.962,8.505-10.189,8.505-19.153,0-15.095-10.583-24.907-26.554-24.907h-6.142Z"/><rect class="cls-3" x="1058.237" y="804.598" width="20.79" height="6.982"/><polygon class="cls-3" points="1091.877 771.859 1081.294 771.859 1084.979 765.254 1098.871 765.254 1098.871 828.185 1091.877 828.185 1091.877 771.859"/><path class="cls-3" d="M1125.706,825.826l14.458-20.1a18.135,18.135,0,0,1-5.575.849c-12.1,0-20.412-9.058-20.412-20.756,0-12.549,9.072-21.607,21.64-21.607,14.837,0,21.83,11.511,21.83,21.418,0,2.358-.473,7.925-5.2,14.435L1131,829.7Zm-4.536-40.192c0,8.4,6.237,14.529,14.837,14.529a14.166,14.166,0,0,0,14.647-14.529c0-8.4-5.953-15-14.742-15-8.694,0-14.742,6.51-14.742,15"/><path class="cls-3" d="M1221.943,768.812v11.36q-8.314-6.956-17.2-6.956a21.905,21.905,0,0,0-16.506,7.039,23.726,23.726,0,0,0-6.75,17.122,23.158,23.158,0,0,0,6.75,16.877,22.293,22.293,0,0,0,16.546,6.874,20.3,20.3,0,0,0,8.6-1.647,24.851,24.851,0,0,0,4.1-2.222,48.465,48.465,0,0,0,4.466-3.376v11.566a34.631,34.631,0,0,1-17.288,4.651,31.893,31.893,0,0,1-23.255-9.508,31.519,31.519,0,0,1-9.592-23.132,32.636,32.636,0,0,1,8.027-21.651q9.879-11.648,25.561-11.648a32.444,32.444,0,0,1,16.547,4.651"/><path class="cls-3" d="M1233.753,808.615a19.919,19.919,0,0,1,6.215-14.777,21.927,21.927,0,0,1,30.377.041,21.465,21.465,0,0,1-.042,30.171,21.241,21.241,0,0,1-15.352,6.051,20.371,20.371,0,0,1-15.106-6.174,20.764,20.764,0,0,1-6.092-15.312m9.467.164q0,6.01,3.21,9.508a12.477,12.477,0,0,0,17.37.042q3.252-3.5,3.252-9.344t-3.252-9.344a12.325,12.325,0,0,0-17.287,0,12.883,12.883,0,0,0-3.293,9.138"/><path class="cls-3" d="M1289.687,788.857h9.3v3.7a15.179,15.179,0,0,1,10.948-4.815q7,0,10.908,4.4,3.375,3.747,3.375,12.225v24.573h-9.3V806.556q0-5.927-1.647-8.191-1.6-2.3-5.844-2.3-4.611,0-6.545,3.045-1.895,3.006-1.893,10.5v19.345h-9.3Z"/><polygon class="cls-3" points="1348.832 797.501 1348.832 828.948 1339.571 828.948 1339.571 797.501 1335.62 797.501 1335.62 788.858 1339.571 788.858 1339.571 774.163 1348.832 774.163 1348.832 788.858 1356.036 788.858 1356.036 797.501 1348.832 797.501"/><path class="cls-3" d="M1402.215,811.084h-28.73a12.171,12.171,0,0,0,3.211,7.862,9.785,9.785,0,0,0,7.285,2.881,9.478,9.478,0,0,0,5.722-1.646,23.456,23.456,0,0,0,5.062-6.092l7.821,4.363a31.184,31.184,0,0,1-3.828,5.29,20.365,20.365,0,0,1-4.323,3.621,17.313,17.313,0,0,1-4.979,2.079,24.255,24.255,0,0,1-5.8.659q-8.974,0-14.406-5.763-5.435-5.8-5.434-15.394,0-9.508,5.269-15.394,5.308-5.8,14.077-5.8,8.85,0,13.994,5.639,5.1,5.6,5.1,15.517Zm-9.508-7.573q-1.935-7.409-9.343-7.409a9.6,9.6,0,0,0-3.17.514,9.069,9.069,0,0,0-2.7,1.482,9.392,9.392,0,0,0-2.078,2.326,10.75,10.75,0,0,0-1.317,3.087Z"/><path class="cls-3" d="M1439.01,795.69l-7.656,4.075q-1.812-3.705-4.486-3.7a3.087,3.087,0,0,0-2.182.843,2.824,2.824,0,0,0-.9,2.162q0,2.3,5.35,4.568,7.368,3.171,9.92,5.845a10.006,10.006,0,0,1,2.552,7.2,12.621,12.621,0,0,1-4.281,9.714,14.567,14.567,0,0,1-10.043,3.705q-10.084,0-14.282-9.838l7.9-3.663a17.149,17.149,0,0,0,2.512,3.663,5.723,5.723,0,0,0,4.032,1.564q4.693,0,4.693-4.281,0-2.469-3.622-4.61-1.4-.7-2.8-1.358t-2.84-1.358a17.382,17.382,0,0,1-5.68-3.951,9.734,9.734,0,0,1-2.1-6.463,11.432,11.432,0,0,1,3.581-8.643,12.559,12.559,0,0,1,8.89-3.417q7.7,0,11.443,7.944"/><polygon class="cls-3" points="1462.839 797.501 1462.839 828.948 1453.578 828.948 1453.578 797.501 1449.626 797.501 1449.626 788.858 1453.578 788.858 1453.578 774.163 1462.839 774.163 1462.839 788.858 1470.042 788.858 1470.042 797.501 1462.839 797.501"/></g><g class="cls-41"><g class="cls-41"><g class="cls-42"><path class="cls-20" d="M771.209,123.026a23.823,23.823,0,0,0,6.222-5.591c-6.763,3.448-12.193,2.078-12.883-2.456-.646-4.247,6.371-5.481,9.152-6.981,4.714-2.544,9.727-6.073,8.914-17.007-4.421,7.5-10.379,7.011-12.6,3.988-2.469-3.354-1.174-8.639,4.931-10.785-5.245-2.089-10.1.778-12.456,3.895-2.454,3.25-5.94,3.627-8.122.785-2.44-3.177.347-7.521,7.733-9.712a23.862,23.862,0,1,0,9.113,43.864"/><path class="cls-21" d="M760.352,118.861c-3.566,2.464-7.015.132-7.4-2.038-.557-3.135,1.588-3.536,4.761-6.407s4.11-6.9,2.916-11.252c-5.878,7.378-11.253,4.942-13.11,3.067-1.9-1.915-2.782-4.473,1.834-7.7a16.8,16.8,0,0,0-12.761,2.094c-.438.273-.853.569-1.257.875a23.842,23.842,0,0,0,17.719,28.47c.452-.23.9-.471,1.339-.744a16.752,16.752,0,0,0,5.96-6.365"/></g></g></g><g class="cls-43"><g class="cls-43"><g class="cls-44"><path class="cls-20" d="M1668.057,1005.209a23.811,23.811,0,0,0,6.222-5.592c-6.763,3.449-12.192,2.078-12.883-2.455-.646-4.247,6.371-5.482,9.153-6.981,4.714-2.544,9.726-6.074,8.914-17.008-4.422,7.506-10.38,7.011-12.605,3.988-2.468-3.354-1.174-8.639,4.931-10.784-5.245-2.09-10.1.777-12.456,3.9-2.454,3.25-5.939,3.627-8.121.784-2.441-3.177.346-7.52,7.732-9.711a23.862,23.862,0,1,0,9.113,43.864"/><path class="cls-21" d="M1657.2,1001.044c-3.565,2.463-7.014.132-7.4-2.039-.558-3.135,1.587-3.535,4.76-6.407s4.111-6.9,2.916-11.252c-5.878,7.379-11.252,4.942-13.109,3.067-1.9-1.915-2.783-4.473,1.833-7.7a16.783,16.783,0,0,0-12.76,2.094c-.439.273-.853.568-1.258.875a23.841,23.841,0,0,0,17.719,28.469c.453-.23.9-.471,1.339-.744a16.742,16.742,0,0,0,5.96-6.364"/></g></g></g><path class="cls-3" d="M754.715,977.312h12.639v3.061H738.418v-3.061h12.639V969.8h-9.646V966.8h9.646v-6.22H739.083v-3.094h27.606v3.094H754.715v6.22h9.646V969.8h-9.646Zm-8.98-23.514,1.1-3.027A73.278,73.278,0,0,1,760,954.03l-1.264,3.027A71.969,71.969,0,0,0,745.735,953.8Z"/><path class="cls-3" d="M793.531,967.567h6.752v2.5h-6.752v2.261h6.752v2.462h-6.752v2.262h7.916v2.927H783.985v1.463h-3.559V970.494a18.133,18.133,0,0,1-1.663,3.16l-1.863-2v9.712h-3.392V966.8a26.934,26.934,0,0,1-2.3,3.325l-1.43-3.991a37.308,37.308,0,0,0,6.153-14.834l3.293.6a42.687,42.687,0,0,1-2.329,8.482v8.847a38.848,38.848,0,0,0,4.99-9.545l3.591.731q-.366,1.131-.731,2.063h5.787q.533-1.4.932-2.794l3.492.731q-.267,1-.632,2.063h6.785v2.86h-7.583Zm3.758-15.2h3.326v6.885H779.994v-6.885h3.326v4.058h5.222v-5.056h3.525v5.056h5.222Zm-7.217,15.2v-2.228h-6.087v2.228Zm0,4.756v-2.261h-6.087v2.261Zm0,2.462h-6.087v2.262h6.087Z"/><path class="cls-3" d="M807.167,965.405v-4.989h4.324v4.989Zm0,12.972v-4.989h4.324v4.989Z"/></svg>