<svg id="レイヤー_1" data-name="レイヤー 1" xmlns="http://www.w3.org/2000/svg" xmlns:xlink="http://www.w3.org/1999/xlink" viewBox="0 0 1920 1080"><defs><style>.cls-1{fill:none;}.cls-2{clip-path:url(#clip-path);}.cls-3{fill:#fff;}.cls-4{fill:#07006f;}.cls-5{fill:#e6e6e6;}.cls-6{clip-path:url(#clip-path-2);}.cls-7{fill:#17005e;}.cls-8{clip-path:url(#clip-path-3);}.cls-9{fill:#080057;}.cls-10{clip-path:url(#clip-path-4);}.cls-11{fill:#d392eb;}.cls-12{clip-path:url(#clip-path-5);}.cls-13{fill:#b068e9;}.cls-14{clip-path:url(#clip-path-6);}.cls-15{fill:#8b41dd;}.cls-16{clip-path:url(#clip-path-7);}.cls-17{fill:#ae6ffc;}.cls-18{clip-path:url(#clip-path-8);}.cls-19{clip-path:url(#clip-path-10);}.cls-20{fill:#f4900c;}.cls-21{fill:#ffcc4d;}.cls-22{opacity:0.79;}.cls-23{clip-path:url(#clip-path-13);}.cls-24{clip-path:url(#clip-path-14);}.cls-25{fill:#f9dc11;}.cls-26{clip-path:url(#clip-path-16);}.cls-27{clip-path:url(#clip-path-17);}.cls-28{clip-path:url(#clip-path-18);}.cls-29{fill:#a0041e;}.cls-30{fill:#ffac33;}.cls-31{fill:#55acee;}.cls-32{clip-path:url(#clip-path-20);}.cls-33{clip-path:url(#clip-path-23);}.cls-34{clip-path:url(#clip-path-24);}.cls-35{fill:#7bbdf7;}.cls-36{fill:#4c9026;}.cls-37{clip-path:url(#clip-path-25);}.cls-38{clip-path:url(#clip-path-26);}.cls-39{clip-path:url(#clip-path-27);}.cls-40{clip-path:url(#clip-path-28);}.cls-41{clip-path:url(#clip-path-29);}.cls-42{clip-path:url(#clip-path-31);}.cls-43{clip-path:url(#clip-path-32);}.cls-44{clip-path:url(#clip-path-34);}</style><clipPath id="clip-path"><rect class="cls-1" width="1920" height="1080"/></clipPath><clipPath id="clip-path-2"><rect class="cls-1" y="122.07" width="1920" height="957.93"/></clipPath><clipPath id="clip-path-3"><rect class="cls-1" y="394.44" width="1920" height="685.56"/></clipPath><clipPath id="clip-path-4"><rect class="cls-1" x="227.81" y="661.67" width="1483.03" height="419.82"/></clipPath><clipPath id="clip-path-5"><rect class="cls-1" x="250.01" y="733.12" width="1439.37" height="346.88"/></clipPath><clipPath id="clip-path-6"><rect class="cls-1" x="250.01" y="927.71" width="1372.57" height="153.29"/></clipPath><clipPath id="clip-path-7"><rect class="cls-1" x="46.97" y="8.84" width="1920" height="1080"/></clipPath><clipPath id="clip-path-8"><rect class="cls-1" x="150.99" y="406.43" width="62.13" height="58.75" transform="translate(-202.78 162) rotate(-31.9)"/></clipPath><clipPath id="clip-path-10"><rect class="cls-1" y="65.06" width="1920" height="1080"/></clipPath><clipPath id="clip-path-13"><rect class="cls-1" x="1362" y="389" width="576" height="182"/></clipPath><clipPath id="clip-path-14"><rect class="cls-1" x="1347" y="375" width="573" height="582"/></clipPath><clipPath id="clip-path-16"><rect class="cls-1" x="1109" y="45" width="190" height="110"/></clipPath><clipPath id="clip-path-17"><rect class="cls-1" x="1094" y="30" width="826" height="168"/></clipPath><clipPath id="clip-path-18"><rect class="cls-1" x="193.97" y="542.78" width="114.08" height="114"/></clipPath><clipPath id="clip-path-20"><rect class="cls-1" x="1567.12" y="135.05" width="62.13" height="58.75" transform="translate(154.45 869.3) rotate(-31.9)"/></clipPath><clipPath id="clip-path-23"><rect class="cls-1" x="1707.03" y="599.78" width="154.54" height="154.81"/></clipPath><clipPath id="clip-path-24"><rect class="cls-1" x="1707.03" y="599.78" width="154.53" height="154.81"/></clipPath><clipPath id="clip-path-25"><rect class="cls-1" x="40" y="1" width="1920" height="1080"/></clipPath><clipPath id="clip-path-26"><rect class="cls-1" x="203" y="176.78" width="191" height="107"/></clipPath><clipPath id="clip-path-27"><rect class="cls-1" x="188" y="162.78" width="400" height="293"/></clipPath><clipPath id="clip-path-28"><rect class="cls-1" x="496.38" y="715.36" width="973.66" height="175.41"/></clipPath><clipPath id="clip-path-29"><rect class="cls-1" x="734.53" y="78.18" width="50.47" height="47.72" transform="translate(60.81 416.86) rotate(-31.9)"/></clipPath><clipPath id="clip-path-31"><rect class="cls-1" x="-538.52" y="-31.53" width="1559.72" height="877.34"/></clipPath><clipPath id="clip-path-32"><rect class="cls-1" x="1631.38" y="960.36" width="50.47" height="47.72" transform="translate(-269.91 1023.96) rotate(-31.9)"/></clipPath><clipPath id="clip-path-34"><rect class="cls-1" x="358.33" y="850.65" width="1559.72" height="877.34"/></clipPath></defs><g class="cls-2"><rect class="cls-3" width="1920" height="1080"/><rect class="cls-4" y="0.42" width="1920" height="1079.15"/><circle class="cls-5" cx="285.48" cy="31.25" r="4.09"/></g><g class="cls-6"><ellipse class="cls-7" cx="936.3" cy="1006.09" rx="1031.09" ry="883.01"/></g><g class="cls-8"><ellipse class="cls-9" cx="936.3" cy="1278.46" rx="1031.09" ry="883.01"/></g><g class="cls-10"><ellipse class="cls-11" cx="969.32" cy="1399.49" rx="740.43" ry="736.74"/></g><g class="cls-12"><ellipse class="cls-13" cx="969.7" cy="1449.22" rx="718.64" ry="715.05"/></g><g class="cls-14"><ellipse class="cls-15" cx="936.3" cy="1610.58" rx="685.28" ry="681.87"/></g><g class="cls-16"><ellipse class="cls-17" cx="801.85" cy="855.26" rx="37.77" ry="37.7"/><ellipse class="cls-17" cx="601.9" cy="976.12" rx="27.98" ry="28.96"/><ellipse class="cls-17" cx="1006.97" cy="847.04" rx="48.67" ry="45.91"/><ellipse class="cls-17" cx="1222.28" cy="892.96" rx="27.98" ry="28.96"/><ellipse class="cls-17" cx="1431.14" cy="1005.07" rx="48.67" ry="48.1"/><circle class="cls-5" cx="145.24" cy="153.06" r="6.53"/><circle class="cls-5" cx="389.06" cy="364.71" r="6.53"/><circle class="cls-5" cx="1243.73" cy="217.49" r="6.53"/></g><g class="cls-18"><g class="cls-18"><g class="cls-19"><path class="cls-20" d="M196.15,461.63a29.55,29.55,0,0,0,7.65-6.88c-8.32,4.24-15,2.55-15.86-3-.79-5.23,7.85-6.74,11.27-8.59,5.8-3.13,12-7.48,11-20.94-5.44,9.24-12.77,8.63-15.51,4.91-3-4.13-1.45-10.63,6.07-13.27-6.46-2.57-12.44.95-15.33,4.8s-7.32,4.46-10,1c-3-3.91.42-9.26,9.51-11.95a29.37,29.37,0,1,0,11.22,54"/><path class="cls-21" d="M182.78,456.5c-4.39,3-8.64.16-9.11-2.51-.69-3.86,2-4.35,5.86-7.89s5.06-8.49,3.59-13.85c-7.24,9.08-13.85,6.09-16.14,3.78s-3.42-5.51,2.26-9.48a20.69,20.69,0,0,0-15.71,2.58c-.54.33-1.05.7-1.55,1.07a29.35,29.35,0,0,0,21.81,35.05c.56-.28,1.11-.58,1.65-.92a20.53,20.53,0,0,0,7.34-7.83"/></g></g></g><g class="cls-2"><circle class="cls-5" cx="971.78" cy="137.69" r="6.53"/></g><g class="cls-2"><g class="cls-22"><g class="cls-23"><g class="cls-24"><path class="cls-25" d="M1514.18,527.85h0Zm338.37-105.58c-1.5.44-7.38,2.25-10.85,3.25C1841.14,425,1854.64,421.34,1852.55,422.27Zm-22.1,6.5c-1.55.45-7.43,2.27-10.86,3.23-.56-.54,12.94-4.17,10.86-3.23ZM1637,472.68c3.6-1.14,6.73-2.14,1-.45l-6.63,1.95Zm12.88,12.37a29.57,29.57,0,0,1,4.18-1.46c-5.58,1.68-16.74,5-16.16,5.06,3.72-1.1,7.8-2.33,12-3.6Zm5-1.69c8.21-2.5,16.4-5.06,8.12-2.61l-5.64,1.68Zm5.07-1.87,13.65-4.27-12.75,3.87Zm38.09-12c1.13-.37.65-.26-2.09.54-14.59,4.32-23.26,6.77-14.08,3.95,7.84-2.4,24.89-7.71,19.86-6.25l-20.2,6.08c-5.23,1.7-10.27,3.49-15.39,5.37,11.24-3.43,22-6.72,31.9-9.69Zm-52,.76c13.68-3.58,41.89-12.82,43.84-13.07l8.74-2.8c-18.85,5.73-39,11.84-52.59,15.86Zm186.17-55-6.75,2.1c3.3-1,5.84-1.75,8.17-2.44Zm34.36-1c2.53-.77,5.51-1.91,8.36-2.72,2.69-.82,5.46-1.72,9.57-2.84-.32.24-7,2.43-12.21,4a1.72,1.72,0,0,1,.07.21c2.56-.67,5.57-1.52,9.13-2.61l3.65-1.17a9.2,9.2,0,0,0-2.59.59,79.19,79.19,0,0,1,8-2.86l1.46-.57c.51-.36-2.61.5.85-.55-2.49.54-8.72,2.65-12.66,3.79,4.52-.9-12.12,3.9-16.14,5.34Zm27.91-12.76c3.74-1.25,10.57-3.27,14.5-4.6-4.61,1.14-10.21,2.94-15.9,4.8Zm-531.72,164.8c.39-2.78,7.82-7.25,16.2-11.38l6.35-3c15.82-6,31.89-11.57,48.06-16.83l9.71-3.12q14.85-4.85,29.92-9.51l10.1-3.14c12-4,23.63-7.25,35.48-10.92,5.92-1.84,11.93-3.8,18-6,3-1.12,16.32-5.13,21.08-6.37-4.7.88,17.13-5.6,16.15-5.28,2.48-.56,5.05-1.21,7.59-1.94s-.63.34-3.81,1.38c2.87-.76,5.72-1.59,8.61-2.46l9.17-2.87c10.09-3.33,21.08-6.53,30.59-9.18,25.77-8,96.6-29.48,83.84-25.44-14.4,4.57-6.91,2.5-3,1.34l8.74-2.62a1.8,1.8,0,0,0-1,.05c6.43-2.05,15.41-5.14,24.37-7.59-1.64.55-3.75,1.2-4.49,1.57,4.49-1.39,1,0,4-.85,8.23-2.45,12.17-3.58,2.67-.69,8.89-2.47,14.63-3.81,23.45-6.15,3.29-1.06,1.49-.48.47-.31,5.73-1.92,19-5.93,20.2-6.44s-35.91,11-29.36,8.76c2.66-.89,8.24-2.55,10.33-3.3-4.7,1.41-10.48,3.2-13.5,4,3.23-1,7.82-2.45,10.33-3.3-3.15,1-5.33,1.6-6.29,1.79,4.59-1.42,8-2.53,13.5-4.19,2.45-.66-2,.85,3.16-.74,1-.15-3.38,1.1-3,1.12,4.2-1.22,12.5-3.78,14.58-4.35s-5,1.55-5.18,1.68c16.16-4.88,34.54-10.47,40.23-12.14s.38-.05-2,.75c6.68-1.95,11.68-3.49,19.58-5.88,5.07-1.51,3.07-.86,1.18-.22,1.34-.38,2.54-.73,3.32-.94.57-.15,2-.57,3-.82-3.08,1-8.87,2.72-11.37,3.58,4.69-1.26,15.67-4.82,19.76-5.85-6.36,2.09-13.23,4.16-20.37,6.45,14-4.18,28.18-9.12,39.57-12.12-2,.65-2.83,1.07-4.46,1.66,4.24-1.44,10.53-3.56,14.44-4.43,2.13-.62,6.34-1.79,10.53-3-7.3,2.32-12.19,3.87-17.32,5.35a8.31,8.31,0,0,0,1.48-.32c-11.34,3.88-18.1,5.21-26.28,7.6l-1.89.63c-2.56,1,6.7-1.89,7.67-2-12,3.79-25.24,7.67-31.1,9.73,14.37-4.32,27-8.31,37.82-11.38-2.7,1.11-13.59,4.26-18.7,6,23.54-7,25.92-7.68,27.84-8.22l-5.44,1.75,1.43-.29c10.32-3.14,22.44-6.88,21.85-6.61s-9.87,3.15-19.83,6.2l3.25-.63c11.67-3.54,25-7.15,36.61-10.9-1.84.82-.87.48,1.6-.12-3.62,1.26-8.83,2.86-12.71,4.18,1.36-.34,3.77-1.12,4.58-1.25-1.94.67-5,1.59-6,2.05,5.54-1.61,11.49-3.39,17.33-5.12,1.26-.13-2.51.83-2.15.88,5.54-1.61,13.24-4.09,17.33-5.11-4.59,1.59-13.71,4.23-16.51,5.23l5.64-1.5c3.77-1.13,5.59-1.64,1.39-.25-2.25.76-2.2.75-1.62.6,2.62-.64,11.59-3.42,11.43-3-2.27.7-11.24,3.44-13.44,4.36,1.77-.28,6.32-1.83,6.85-1.75-10,3-9.59,3-12.11,3.56a36.59,36.59,0,0,0,3.78-1.29l-18.57,5.71c.63,0,.48.28-.05.57,2.69-.81,5.49-1.61,10.48-3.18-1.23.75-5.84,2.12-10.1,3.31l.15.12c6.86-2.12,17.36-5.23,24.43-7.21-3.18,1.05-15,4.68-23,7.09l.83-.05c-10.13,3-21.9,7-33.29,10.32,5.59-1.27,11.89-3.56,19-5.64,3.26-.95,6.3-1.74,9.48-2.58,9-2.83,35.6-11.07,38.69-11.85,3.4-.87-23.62,7.43-23.75,7.57s12.49-3.62,6.55-1.82L1902,402.19l-.33.74c4.28-1.3,9.37-2.76,9.46-3.2,2.13-.6,6.51-2.11,7.24-2.13a8.54,8.54,0,0,0-1.77.65,19.28,19.28,0,0,1,2.7-.75c-5.14,1.62-12.23,3.91-17.85,5.63l-1.37.71c.12,0,4.53-1.26,8.3-2.37,4-1.16-4.23,1.47-10.79,3.46l-3,1.26c2.26-.71,4.9-1.52,8-2.45,3.64-1,3.6-.76,7.25-1.75-6.63,2.11-14.68,4.6-21.14,6.52l-7,2.72c5.39-1.56,10.39-2.93,13.36-3.7,2.37-.76,4.84-1.54,5.75-1.68-2.19.76,3.6-1,2.79-.47-3.21.74-9.47,2.77-11.84,3.16-5,1.52-10.36,3.2-15.16,4.66l-1.83.66c4.08-1.23,8-2.37,12.33-3.59-1.86.93-13.82,4.61-22.54,7.09-17.57,5.65-35.78,9.94-53.47,15.18-.72.22-1.74.57-2.86,1l-3.79,1.46c4.24-1.28,8-2.39,11.13-3.27-12.4,4.08,17.9-5.29,19.94-5.65-20.09,6.61-58,17.94-81.32,25.39,5.63-1.7,7.45-2.22,1.44-.29l-4.93,1.59c23.84-7.08,48.39-15.18,67.46-20.5-11.22,3.5-28.35,8.57-33,10.31,3.3-1,8.09-2.52,8.79-2.61-5.7,2-25.13,7.65-30.73,9.63,27.8-8.34,65.38-20.12,86-25.92-31,9.31-72.54,22.37-99.1,30.14,4.58-1.45,4.6-1.55,2.14-.93l-24.92,7.44c-1.68.58-1.1.45,3-.72,3.37-1,5.32-1.59,6.45-1.79-2.26.75-28.41,8.76-7.6,2.46s56.7-17.16,35.73-10.63-29.21,9.27-17.74,5.83,47.93-14.29,35.77-10.51-37.62,11.81-52.08,16.19,9.54-3.85-11.77,2.67-3.48,1.36-7.55,2.6c-6.45,2-18.31,5.62-29.55,9.08-7.88,2.47-18,5.58-23.11,7.28.4,0,24.4-7.46,15-4.4-23.36,7.18-49.44,15.25-38.81,11.63-14.43,4.47-25.06,7.71-34.11,10.42-13.93,4.64-30.24,9.59-32,10.22-2.08.76-40.56,11.85-54.66,17.19-1.09.31-27,8-29.25,8.41-24.46,7.83-20.93,7-45.16,14.32-20.24,6.13-26.48,7.86-29.89,8.89-21.35,6.37-21.1,6.64-31.9,8.6-3.26.6-8.11,2.08-10,2-3.68-.23-5.72-1.35-5.3-3.67Zm496.49-145.73c3.35-1,6.25-1.88,8.2-2.34-3.43,1.14-6.71,2.23-8.2,2.34Zm-.68-.74c-9.29,2.65-24,7.2-30.77,9.16s11.8-3.87,28.83-9,3.15-.4,10.14-2.45-6.58,2.27-13.53,4.26,4.56-1.49,5.33-1.92Zm-13.24-9.67c.58-.33,14.83-4.63,22.78-6.87-6.7,2.09-23.36,7.2-22.78,6.87Zm-24.06,7.12c-2.78.86-5,1.49-6.4,1.78,2.58-.79,6.17-2,6.4-1.78Zm70.64-7.8c-4.15,1.18-7.09,2.28-9.88,3.13-14,4.24,7-2.7,9.88-3.13Zm-100.06,16c3.87-1.16,8-2.43,7.3-2-1.31.18-6.81,2.12-7.31,2Zm-16.53,5.19a57.32,57.32,0,0,1,7.25-2.13c-2.19.62-6.52,2.13-7.25,2.13Zm-28.7,8.19c1.15-.48,6.24-2.1,6.32-1.85-1.87.52-5.9,1.94-6.32,1.85Zm145.57-40.21c2.75-.78,7.75-2.5,9-2.68-2.75.78-7.75,2.5-9,2.68Zm-16,4.13a57.32,57.32,0,0,1,7.25-2.13c-2.18.61-6.52,2.12-7.25,2.13Zm10.3-3c1.15-.48,6.24-2.1,6.37-1.87-1.92.54-6,2-6.37,1.87Z"/></g></g></g></g><g class="cls-2"><g class="cls-22"><g class="cls-26"><g class="cls-27"><path class="cls-25" d="M1162.52,129.85h0Zm110.33-62.64c-.5.25-2.43,1.32-3.6,1.88-.45-.53,4.17-2.52,3.59-1.88ZM1265.49,71c-.52.25-2.44,1.33-3.6,1.87-.44-.53,4.17-2.51,3.6-1.87Zm-69.16,21.2c1.16-.69,2.18-1.29.26-.32l-2.2,1.13Zm10.25,12.16c0-.09.42-.41,1.3-.92-1.83,1-5.52,2.94-5.26,3,1.24-.64,2.59-1.35,4-2.1Zm1.59-1c2.7-1.46,5.36-3,2.62-1.57l-1.87,1Zm1.55-1.19,4.44-2.54-4.2,2.26-.24.28Zm12.38-7.14c.36-.23.19-.17-.72.29-4.85,2.49-7.77,3.87-4.76,2.21,2.57-1.41,8.14-4.55,6.46-3.72l-6.67,3.53a55.19,55.19,0,0,0-4.81,3.36c3.7-2,7.25-3.93,10.5-5.67Zm-22.66-4.1c4.72-1.92,13.75-7.53,14.52-7.57l2.82-1.69c-6.19,3.36-12.85,6.93-17.34,9.26Zm61.84-31.72-2.2,1.24c1.09-.59,1.93-1,2.7-1.42Zm14.81,2.3c.83-.45,1.72-1.19,2.68-1.65s1.78-1,3.18-1.64a24.23,24.23,0,0,1-3.91,2.42l.1.19a28.81,28.81,0,0,0,3.07-1.47l1.18-.71c0-.13-.7.13-.93.29a10.33,10.33,0,0,1,2.5-1.8l.43-.38c.09-.27-1,.2.17-.4a45.18,45.18,0,0,0-4.19,2.2c1.66-.38-3.91,2.36-5.15,3.26Zm7.61-8.76c1.18-.77,3.45-1.93,4.7-2.76a31.51,31.51,0,0,0-5.25,2.81ZM1109.92,150.1c-.86-2.44.77-5.72,2.94-8.62l1.69-2.09a134.55,134.55,0,0,1,15-10.53l3.13-1.88c3.18-2,6.42-3.83,9.7-5.69l3.3-1.86c3.8-2.47,7.75-4.26,11.62-6.44a47.23,47.23,0,0,0,5.72-3.69,53.26,53.26,0,0,1,7-3.72c-1.75.35,5.49-3.39,5.18-3.2a17.92,17.92,0,0,0,2.63-1c.85-.4-.15.25-1.17.88,1-.42,1.94-.89,2.89-1.4l3-1.7a92,92,0,0,1,10.11-5.34c8.43-4.7,31.74-17.29,27.6-14.88-4.66,2.74-2.12,1.58-.84.91l2.89-1.52a.44.44,0,0,0-.4,0,75.83,75.83,0,0,1,8-4.5,8.57,8.57,0,0,0-1.4,1c1.46-.82.43.07,1.44-.38,2.72-1.42,4-2.07.92-.37,3-1.38,5-2,8.08-3.31,1.06-.64.48-.29.09-.23,1.82-1.17,6.2-3.52,6.54-3.86s-11.8,6.44-9.72,5.08c.84-.55,2.69-1.51,3.33-2-1.55.82-3.44,1.87-4.47,2.32,1-.63,2.54-1.46,3.34-2a11.14,11.14,0,0,1-2.12,1c1.5-.84,2.61-1.5,4.42-2.47.83-.36-.57.57,1.12-.37.37-.05-1.09.66-.93.71,1.4-.69,4.12-2.2,4.82-2.52s-1.65.92-1.66,1c5.33-2.85,11.37-6.12,13.27-7.08s.15,0-.62.48c2.23-1.12,3.87-2,6.47-3.42,1.68-.88,1-.48.44-.09l1.12-.53c.2-.08.68-.32,1-.45-1,.6-2.91,1.6-3.7,2.13,1.6-.69,5.14-2.83,6.56-3.38-2,1.28-4.3,2.49-6.61,3.86,4.64-2.42,9.07-5.51,13-7.12a12.71,12.71,0,0,0-1.36,1.06,22.12,22.12,0,0,1,4.74-2.61c.71-.35,2.13-1,3.53-1.72-2.37,1.39-4,2.32-5.67,3.16a1,1,0,0,0,.53-.15c-3.57,2.4-6.06,3-8.79,4.33l-.6.39c-.74.69,2.26-1.06,2.65-1.08-3.92,2.26-8.31,4.49-10.13,5.78,4.74-2.51,8.83-4.9,12.48-6.63-.78.74-4.42,2.54-6,3.61,7.81-4,8.6-4.43,9.25-4.74l-1.76,1.06.53-.13c3.39-1.84,7.36-4,7.2-3.86s-3.2,1.89-6.46,3.69l1.2-.27c3.85-2.06,8.4-4,12.13-6.31-.51.56-.2.35.66,0-1.13.79-2.83,1.73-4.06,2.55a16.23,16.23,0,0,1,1.56-.69,13.19,13.19,0,0,0-1.88,1.27c1.85-.92,3.82-1.95,5.76-2.95.51,0-.8.5-.63.58,1.85-.92,4.34-2.41,5.77-2.94-1.44,1-4.49,2.49-5.36,3.12l1.94-.81c1.24-.66,1.86-.94.52-.09-.72.46-.69.46-.5.38.93-.32,3.86-2,3.94-1.62a36.8,36.8,0,0,0-4.33,2.64c.69-.09,2.12-1.05,2.39-.93-3.32,1.7-3.14,1.75-4,2,.34-.23,1.3-.69,1.19-.8l-6.08,3.37c.28.05.32.28.19.5.88-.48,1.83-.93,3.45-1.87-.27.56-1.8,1.35-3.24,2l.11.12c2.25-1.25,5.73-3,8.12-4.15-1,.64-4.88,2.78-7.55,4.18l.35,0c-3.35,1.76-7.09,4.18-10.88,6.1,2-.61,3.93-2.07,6.29-3.26,1.09-.54,2.14-1,3.23-1.42,2.9-1.7,11.62-6.56,12.69-7s-7.67,4.43-7.68,4.54,4.18-2.06,2.22-1l-4.88,2.58.13.63c1.41-.76,3.11-1.59,3-2a13.68,13.68,0,0,1,2.41-1.23c-.23.15-.6.33-.55.41.35-.17.82-.48.92-.41-1.67,1-4,2.35-5.8,3.36l-.33.5s1.53-.7,2.78-1.34-1.32.91-3.48,2.08l-.89.83c.74-.42,1.6-.9,2.63-1.43,1.24-.55,1.31-.34,2.55-.89-2.14,1.27-4.77,2.73-6.92,3.85l-2.06,1.78c1.8-.9,3.5-1.65,4.53-2.07a8.41,8.41,0,0,1,1.92-1c-.69.48,1.22-.53,1.06-.16-1.15.36-3.16,1.59-4.06,1.72-1.62.9-3.39,1.88-5,2.74l-.56.42c1.34-.71,2.64-1.37,4.11-2.06-.48.66-4.39,2.83-7.33,4.23-5.66,3.4-12.12,5.53-18,8.56a8.8,8.8,0,0,0-.9.6l-1.13,1c1.4-.75,2.65-1.39,3.71-1.88-4,2.48,5.94-3.06,6.71-3.18-6.43,4-19,10.6-26.51,15.06,1.85-1,2.46-1.29.53-.12l-1.59,1c7.91-4.1,15.74-9,22.2-12-3.66,2.08-9.35,5-10.73,6.13a24.3,24.3,0,0,1,2.91-1.51c-1.77,1.26-8.27,4.47-10,5.73,9.19-4.86,21.42-11.86,28.36-15.12-10.22,5.42-23.75,13.19-32.6,17.65,1.48-.87,1.45-1,.6-.63l-8.25,4.32c-.53.36-.32.29,1-.37a13.52,13.52,0,0,1,2.19-1c-.72.46-9.3,5.17-2.44,1.49s18.68-10,11.84-6.16-9.47,5.55-5.67,3.55,15.87-8.28,11.9-6-12.24,7-17,9.59,2.78-2.54-4.21,1.29-1,.89-2.37,1.61c-2.12,1.16-6,3.31-9.69,5.36-2.56,1.47-5.9,3.3-7.5,4.33.18.07,8-4.37,5-2.53-7.66,4.22-16.18,9-12.83,6.76-4.72,2.64-8.21,4.54-11.2,6.12-4.44,2.83-9.8,5.73-10.36,6.13s-13.52,6.78-17.77,10.23c-.37.18-8.94,4.62-9.8,4.78-7.9,4.7-6.66,4.28-14.64,8.56-6.67,3.58-8.78,4.55-9.91,5.14-7.06,3.7-6.85,4-10.9,4.71-1.21.24-2.81,1.1-3.66.83A5.48,5.48,0,0,1,1109.92,150.1Zm165.27-83.75A16.64,16.64,0,0,1,1278,65a6.67,6.67,0,0,1-2.76,1.32Zm-.57-.72c-3.12,1.5-7.95,4.18-10.2,5.3s3.78-2.35,9.38-5.38,1.24-.07,3.57-1.25-2.07,1.41-4.4,2.54,1.47-.9,1.65-1.21Zm-9.42-9.8a74.14,74.14,0,0,1,7.52-4c-2.18,1.24-7.65,4.24-7.52,4Zm-8,4.11a10.32,10.32,0,0,1-2.17,1c.85-.45,2-1.19,2.17-1Zm28.3-.43c-1.4.66-2.29,1.37-3.2,1.86-4.62,2.49,2.09-1.74,3.19-1.86Zm-38.26,5c1.28-.68,2.63-1.42,2.5-1.07-.51,0-2.23,1.25-2.5,1.07Zm-5.37,3.09a7,7,0,0,1,2.41-1.23,14.12,14.12,0,0,1-2.42,1.23Zm-9.64,4.63c.33-.32,2-1.29,2.1-1.06-.64.29-1.89,1.18-2.11,1.06Zm49.38-22.32a22.51,22.51,0,0,1,3-1.55,23.13,23.13,0,0,1-3,1.55Zm-5.51,2.2a7.13,7.13,0,0,1,2.41-1.22,14.07,14.07,0,0,1-2.42,1.22Zm3.42-1.75c.33-.32,2-1.29,2.13-1.07-.66.3-1.91,1.19-2.13,1.07Z"/></g></g></g><path class="cls-5" d="M686.31,143.13a7.69,7.69,0,1,1,10.87,0h0A7.69,7.69,0,0,1,686.31,143.13Z"/><circle class="cls-5" cx="47.39" cy="516.6" r="7.68"/><path class="cls-5" d="M1730,419a7.69,7.69,0,1,1,10.87,0,7.69,7.69,0,0,1-10.87,0Z"/><circle class="cls-5" cx="1764.3" cy="638.28" r="7.69"/><path class="cls-5" d="M1661.42,501.14a7.69,7.69,0,1,1,10.87,0h0A7.69,7.69,0,0,1,1661.42,501.14Z"/><path class="cls-5" d="M1123.37,75.33a7.69,7.69,0,1,1,10.87,0h0A7.67,7.67,0,0,1,1123.37,75.33Z"/><circle class="cls-5" cx="1343.18" cy="307.55" r="7.69"/></g><g class="cls-28"><g class="cls-28"><path class="cls-29" d="M194.06,598.15l26.06-22.8,52.11,3.26,3.26,52.11-22.8,26.06s0-19.54-19.55-39.09-39.08-19.54-39.08-19.54"/><path class="cls-30" d="M194,656.78s-.12-26,9.72-35.83,36-9.16,36-9.16,0,25.45-9.78,35.22S194,656.78,194,656.78"/><path class="cls-21" d="M220.11,617.69a13,13,0,1,1-13,13h0a13,13,0,0,1,13-13"/><path class="cls-31" d="M308.05,542.78s-32.57,0-71.65,32.57c-19.54,16.29-19.54,45.6-13,52.12s35.83,6.51,52.11-13c32.57-39.09,32.57-71.66,32.57-71.66"/><path d="M278.74,559.06a13,13,0,0,0-11.86,7.69,13,13,0,0,1,17.2,17.2,13,13,0,0,0-5.34-24.88"/><path class="cls-29" d="M216.86,634s0-13,3.26-16.29,42.34-35.82,45.6-32.57-29.32,42.35-32.58,45.6S216.86,634,216.86,634"/></g></g><g class="cls-32"><g class="cls-32"><g class="cls-2"><path class="cls-20" d="M1612.27,190.26a29.45,29.45,0,0,0,7.66-6.89c-8.33,4.25-15,2.56-15.86-3-.8-5.23,7.84-6.75,11.26-8.59,5.8-3.14,12-7.48,11-20.94-5.45,9.24-12.78,8.63-15.52,4.91-3-4.13-1.44-10.63,6.07-13.28-6.46-2.57-12.43,1-15.33,4.8-3,4-7.31,4.46-10,1-3-3.91.42-9.25,9.52-12a29.38,29.38,0,1,0,11.21,54"/><path class="cls-21" d="M1598.9,185.13c-4.39,3-8.64.16-9.11-2.51-.69-3.86,2-4.35,5.86-7.89s5.06-8.49,3.59-13.85c-7.24,9.08-13.85,6.08-16.14,3.78s-3.42-5.51,2.26-9.48a20.65,20.65,0,0,0-15.71,2.58c-.54.33-1.05.7-1.55,1.07a29.35,29.35,0,0,0,21.81,35c.56-.28,1.11-.58,1.65-.92a20.53,20.53,0,0,0,7.34-7.83"/></g></g></g><g class="cls-33"><g class="cls-34"><path class="cls-35" d="M1749.88,608.67c.58-2.41,2.94-2.17,4.56-2.87,3.68-1.6,7.64-2.5,11.39-3.82,10-3.52,20.23-1.81,30.3-1.6,5.54.12,11.14,2.66,16.51,4.64a73,73,0,0,1,29.25,20.19c8.75,9.76,14.25,21.08,17.79,33.82,2.86,10.32,1.66,20.5,1.47,30.68-.1,5.41-2.74,10.87-4.71,16.14a73.27,73.27,0,0,1-20.51,29.44c-9.63,8.53-20.79,13.86-33.26,17.38-10.31,2.9-20.49,1.7-30.67,1.51-5.41-.1-10.88-2.7-16.15-4.66a73.14,73.14,0,0,1-28.73-19.7c-9-9.89-14.66-21.38-18.24-34.37-2.85-10.32-1.59-20.49-1.47-30.67.06-5.19,2.63-10.42,4.46-15.49a68.6,68.6,0,0,1,8.13-15.67,3.39,3.39,0,0,1,2.21-1.64,5.88,5.88,0,0,0,6.3-.75c2.78-2.12,6.12-.94,7.44,2.24a7.93,7.93,0,0,1,.14,6.28c-2.23,5-.76,9.21,2.25,13.26,1.2,1.62,2.19,3.4,3.48,4.94,1.76,2.09,3.7,3.88,6.69,4.3,3.87.55,7.24,2,8.32,6.4a6.43,6.43,0,0,0,2,3.3c5.08,4,10,8.46,16,11a29.51,29.51,0,0,1,8.61,5.34,49.41,49.41,0,0,0,4.36,3.56c3.83,2.79,3.87,2.73,1.38,6.85-4,6.64-3.74,8.67,1.39,14.83,1.77,2.12,4.14,3.12,6.36,4.41a5,5,0,0,1,2.83,4.24c.18,5.6,0,11.08-3.63,15.93-2,2.63-3.7,5.57-3.46,9.16.17,2.5,1.36,3.22,3.43,1.83,1.56-1.06,2.93-2.39,4.43-3.55,3.45-2.69,6-6.36,9.89-8.59,8.53-4.92,17.47-9.5,19.19-20.77.11-.76.83-1.42,1.2-2.16,1.67-3.34,5.45-4,8-6.36,3.34-3.09,3.49-3.81-.6-5.39-3.72-1.45-6.6-3.31-7.86-7.32-1.9-6.07-6.65-8.26-12.5-8.74-2.23-.18-4.17-.79-5.57-2.67a2.43,2.43,0,0,0-2.42-1.24c-4.68,1.08-9.5,2-13,5.6-2.77,2.82-6.43,3-9.52-.42-2.76-3.06,1.49-3.32,2.44-4.92a.82.82,0,0,1,.27-.22c.73-.47,1.39-1,1.12-2-.31-1.14-1.27-1.33-2.26-1.31-2.32.06-4.54-2.23-7-.19-.52.43-1.3-.22-1.88-.69-2.38-1.9-2.68-9.66-.43-11.75,3.53-3.27,8-2.19,9.3,2.3.45,1.57,1.3,2.76,2.9,2.57,1.77-.2,1.42-1.88,1.5-3.15.1-1.65-.6-3.59.48-4.89,3.36-4,5.08-9,7.9-13.3,1.31-2,2.83-4.06,5.74-3.21s5.91.35,8.87.5c2.15.1,3-.88,2.9-3-.29-6,.61-6.86,6.31-6.36,1.68.14,3.08-.76,2-2.11-2.28-2.76-3.86-6.51-7.52-7.68a8.61,8.61,0,0,1-5.56-5,14.58,14.58,0,0,0-5.93-6.43c-.91-.56-1.85-1.13-2.9-.14a2.57,2.57,0,0,0-1,2.86c2.5,6.81-2.61,10.15-8.62,9.38-2-.25-4.38,0-5.12-2.34a5.69,5.69,0,0,1,2.44-6.88c2.07-1.37,4.21-2.66,6.4-3.83,3-1.57,3-3.71.27-5.75a7.86,7.86,0,0,0-5-1.62,21.63,21.63,0,0,1-8.32-1.29,11.4,11.4,0,0,0-10.94.84c-1.65,1.09-3.65,1.67-5.26,2.82-3.73,2.67-8.43,1.94-12.46,3.8-2.22,1-5.52,1.29-6-3-.12-1-1.36-1.87-2.09-2.8"/><path class="cls-36" d="M1749.88,608.67c.73.93,2,1.8,2.09,2.8.49,4.3,3.79,4,6,3,4-1.85,8.73-1.13,12.46-3.8,1.61-1.14,3.61-1.72,5.26-2.82a11.43,11.43,0,0,1,10.94-.84,21.63,21.63,0,0,0,8.32,1.29,8,8,0,0,1,5,1.62c2.77,2,2.69,4.18-.27,5.75-2.19,1.17-4.33,2.47-6.4,3.83a5.7,5.7,0,0,0-2.44,6.89c.74,2.32,3.16,2.08,5.12,2.33,6,.77,11.12-2.57,8.62-9.38a2.57,2.57,0,0,1,1-2.86c1-1,2-.41,2.9.14a14.58,14.58,0,0,1,5.93,6.43,8.58,8.58,0,0,0,5.56,5c3.66,1.17,5.24,4.93,7.51,7.68,1.12,1.35-.28,2.25-2,2.11-5.7-.5-6.6.4-6.31,6.36.11,2.13-.75,3.11-2.9,3-3-.15-5.93.36-8.87-.5s-4.43,1.2-5.74,3.21c-2.82,4.31-4.54,9.27-7.9,13.31-1.08,1.3-.38,3.23-.48,4.88-.08,1.27.27,3-1.5,3.16-1.61.18-2.45-1-2.9-2.57-1.29-4.5-5.77-5.57-9.3-2.3-2.25,2.08-2,9.84.43,11.74.58.47,1.36,1.12,1.88.7,2.43-2,4.65.24,7,.18,1,0,2,.18,2.26,1.31s-.39,1.54-1.12,2a.82.82,0,0,0-.27.22c-1,1.6-5.2,1.86-2.44,4.92,3.09,3.43,6.75,3.24,9.52.42,3.54-3.58,8.36-4.52,13-5.6a2.43,2.43,0,0,1,2.42,1.24c1.4,1.88,3.34,2.49,5.57,2.67,5.85.48,10.61,2.67,12.5,8.74,1.26,4,4.14,5.87,7.86,7.32,4.09,1.59,3.94,2.31.6,5.39-2.5,2.33-6.28,3-8,6.37-.37.74-1.09,1.4-1.2,2.16C1827.91,727.46,1819,732,1810.44,737c-3.86,2.22-6.44,5.9-9.89,8.58-1.5,1.16-2.87,2.49-4.43,3.55-2.07,1.4-3.26.67-3.43-1.83-.24-3.59,1.49-6.53,3.46-9.16,3.62-4.85,3.81-10.32,3.63-15.93A5,5,0,0,0,1797,718c-2.22-1.29-4.59-2.3-6.36-4.42-5.13-6.15-5.41-8.18-1.39-14.82,2.49-4.12,2.45-4.06-1.38-6.85a51.38,51.38,0,0,1-4.36-3.57,29.72,29.72,0,0,0-8.61-5.34c-6-2.54-10.93-7-16-11a6.43,6.43,0,0,1-2-3.3c-1.08-4.44-4.45-5.85-8.32-6.4-3-.42-4.93-2.21-6.69-4.3-1.29-1.54-2.29-3.32-3.48-4.94-3-4-4.48-8.24-2.25-13.26a7.9,7.9,0,0,0-.14-6.27c-1.32-3.19-4.66-4.37-7.44-2.25a5.88,5.88,0,0,1-6.3.75c-.62-1.84.82-2.85,1.72-4,6.12-8,14-13.85,22.52-19a4.37,4.37,0,0,1,3.43-.34"/></g></g><g class="cls-37"><path class="cls-3" d="M489.48,402.68a130,130,0,0,0-16.39.77v-8.32a122.32,122.32,0,0,1-11.57,5.34c-3.77-9-5.2-11.84-10.14-19.25A99.35,99.35,0,0,0,481,366.79c9.88-6.76,16.38-13,21.84-21.19h21.59c6.24,8.32,12.61,14.17,22.36,20.54a102.89,102.89,0,0,0,30.42,14.17,97.87,97.87,0,0,0-9.49,20.54,103.06,103.06,0,0,1-12.35-5.59v8.19a127.28,127.28,0,0,0-15.73-.77h-15.6V414h18.2a128.27,128.27,0,0,0,16.51-.77v19.63a132.24,132.24,0,0,0-16.64-.78H524.06v13h28.21a177,177,0,0,0,19-.78v19.89a169.77,169.77,0,0,0-18.59-.78H475.17a158,158,0,0,0-17.94.78V444.28a167.41,167.41,0,0,0,18.46.78h27.7v-13H486.74a128.07,128.07,0,0,0-16.38.78V413.21a137.87,137.87,0,0,0,16.38.77h16.64v-11.3Zm48.75-17.82c-11.44-7.93-16.77-12.74-24.18-21.71-6.5,8.45-13,14.3-23.8,21.71Z"/><path class="cls-3" d="M586.84,363.28c0-5.07-.26-9.49-.78-15.34,4.42.52,7.8.52,15.34.52l86.33.13c5.85,0,10.4-.26,15.21-.65a131,131,0,0,0-.65,15.34v85.55a153.54,153.54,0,0,0,.78,17.94H682.53v-6.89H606.6v6.89H586.06a145.27,145.27,0,0,0,.78-17.94ZM606.6,442.2h75.8V366.4H606.6Zm16.77-54.47a67.39,67.39,0,0,0-11.44.65V370.69a79.54,79.54,0,0,0,11.44.52h42.51a82.78,82.78,0,0,0,11.57-.52v17.68a68.86,68.86,0,0,0-11.57-.65H653v7.42h10.66a54.55,54.55,0,0,0,10.53-.65V412a31.92,31.92,0,0,0-5.07-.52,35,35,0,0,1,3.9,7.41l-6.63,1.69a70.83,70.83,0,0,0,12.09-.65v17.81a91.67,91.67,0,0,0-11.83-.52H622.21a80.21,80.21,0,0,0-11.7.52V420a68.26,68.26,0,0,0,11.7.65h11.7v-9.23h-8.45a55.24,55.24,0,0,0-10.67.65V394.48a54.46,54.46,0,0,0,10.67.65h8.45v-7.41ZM653,420.62h7.93a38.94,38.94,0,0,0-4.16-8.06l4.68-1.17H653Z"/><path class="cls-3" d="M766.05,427.11c-6.84,15.48-14.52,22.56-24.36,22.56-13.68,0-23.52-13.92-23.52-33.24a51.53,51.53,0,0,1,13.2-34.92c10.08-11,24.24-16.8,41.28-16.8,28.8,0,47.52,17.52,47.52,44.52,0,20.76-10.8,37.32-29.16,44.76-5.76,2.4-10.44,3.6-18.84,5a38.24,38.24,0,0,0-7.32-14c11-1.44,18.24-3.36,23.88-6.6,10.44-5.76,16.68-17.16,16.68-30,0-11.52-5.16-20.88-14.76-26.64-3.72-2.16-6.84-3.12-12.12-3.6C776.25,397,772.05,413.55,766.05,427.11Zm-17.64-43a40.2,40.2,0,0,0-16.32,32.4c0,9.84,4.2,17.64,9.48,17.64,4,0,8-5,12.36-15.36,4.56-10.8,8.52-27,10-40.56A30.56,30.56,0,0,0,748.41,384.15Z"/><path class="cls-3" d="M1429.09,371.22a116,116,0,0,0-.71,15.81c0,1.43,0,1.73.1,6.63,12.24-.1,23.46-1.33,29.89-3.47l1,12.34c-2,.11-2,.11-6.63.62a218.75,218.75,0,0,1-24,1.83c.2,8,.41,12.55,1.13,22.55a75.2,75.2,0,0,1,15.91,6.93c3.67,2,5.41,3.27,13.16,8.67a36.09,36.09,0,0,0,3.06,2l-8,11.53a40.17,40.17,0,0,0-7.24-6.73,64.16,64.16,0,0,0-13.46-8.37c-1.33-.71-2.15-1.12-3.27-1.83a23.68,23.68,0,0,1,.2,3.26c0,11.43-8.06,17.44-23.26,17.44-10.4,0-17.64-3-21.42-8.77a18.46,18.46,0,0,1-2.55-9.08c0-10.61,10.51-18.26,25.2-18.26a37.79,37.79,0,0,1,9.48,1,2.33,2.33,0,0,1-.1-1c-.4-3.67-1.32-31.52-1.42-44.27a61.1,61.1,0,0,0-.51-9Zm-20.6,64.06c-7.65,0-12.75,3.06-12.75,7.55,0,2.44,1.12,4.08,3.46,5.3a18.37,18.37,0,0,0,7.45,1.53c3.88,0,7.24-1,9.28-2.76,1.43-1.22,2.15-3.16,2.15-5.71,0-1.84-.1-4.69-.1-4.79a33.07,33.07,0,0,0-9.49-1.12Z"/><path class="cls-3" d="M1485.69,433.08a112.25,112.25,0,0,1,21.6,21.12l-8.93,8.35c-7-9.5-12.47-15.26-20.83-21.88Z"/></g><g class="cls-22"><g class="cls-38"><g class="cls-39"><path class="cls-25" d="M256.48,259.86h0Zm110.57-61.14c-.5.25-2.43,1.29-3.6,1.84C363,200,367.63,198.09,367.05,198.72Zm-7.37,3.64c-.52.25-2.44,1.3-3.6,1.82-.44-.53,4.18-2.45,3.6-1.82Zm-69.14,20.28c1.17-.67,2.18-1.25.27-.31l-2.2,1.1Zm10.11,12.28c0-.09.41-.39,1.31-.89-1.84,1-5.54,2.86-5.28,2.94C297.92,236.35,299.27,235.65,300.65,234.92Zm1.59-1c2.7-1.42,5.38-2.91,2.62-1.53l-1.87.95Zm1.55-1.16c1.32-.72,2.88-1.6,4.46-2.48l-4.21,2.2Zm12.41-7c.37-.22.2-.17-.72.27-4.85,2.43-7.78,3.77-4.76,2.16,2.58-1.39,8.15-4.45,6.47-3.64L310.51,228a54.76,54.76,0,0,0-4.83,3.29C309.39,229.34,313,227.46,316.2,225.77Zm-22.54-4.4c4.72-1.85,13.78-7.34,14.54-7.38l2.83-1.64c-6.21,3.28-12.87,6.76-17.37,9Zm61.94-30.89-2.21,1.22c1.09-.58,1.93-1,2.71-1.39Zm14.74,2.5c.84-.44,1.73-1.17,2.69-1.61s1.78-1,3.18-1.6a24.77,24.77,0,0,1-3.92,2.37l.1.19a28.6,28.6,0,0,0,3.07-1.44l1.18-.69c0-.14-.7.11-.93.27a10.36,10.36,0,0,1,2.5-1.76l.44-.37c.09-.27-1,.19.18-.4a43.61,43.61,0,0,0-4.2,2.14c1.66-.36-3.92,2.3-5.17,3.19Zm7.66-8.65c1.2-.75,3.47-1.89,4.71-2.7a31.56,31.56,0,0,0-5.25,2.74ZM203.86,279.41c-.83-2.45.83-5.7,3-8.57l1.7-2.07a133,133,0,0,1,15-10.32l3.14-1.84c3.18-1.91,6.43-3.74,9.71-5.56l3.3-1.81c3.81-2.42,7.77-4.16,11.65-6.28a47.38,47.38,0,0,0,5.74-3.62,52.2,52.2,0,0,1,7-3.62c-1.75.33,5.51-3.32,5.19-3.13a19,19,0,0,0,2.63-1c.86-.4-.15.24-1.17.86,1-.4,1.94-.86,2.89-1.36l3-1.66a88.73,88.73,0,0,1,10.13-5.2c8.44-4.59,31.8-16.86,27.65-14.51-4.68,2.68-2.14,1.55-.85.9l2.89-1.48a.41.41,0,0,0-.4,0,74.44,74.44,0,0,1,8-4.39,7.89,7.89,0,0,0-1.4,1c1.47-.8.43.07,1.44-.37,2.73-1.38,4.05-2,.92-.35,3-1.34,5.05-2,8.08-3.2,1.07-.63.48-.29.1-.24,1.83-1.14,6.21-3.43,6.55-3.76S327.92,204,330,202.69c.85-.54,2.7-1.48,3.35-1.94-1.56.79-3.45,1.82-4.48,2.25,1-.61,2.55-1.42,3.34-1.93a11.88,11.88,0,0,1-2.11,1c1.5-.82,2.61-1.47,4.42-2.42.84-.35-.57.56,1.12-.35.37,0-1.09.65-.94.7,1.41-.67,4.13-2.14,4.84-2.45s-1.66.89-1.67,1c5.34-2.77,11.4-6,13.3-6.9s.15,0-.62.47c2.23-1.08,3.88-2,6.48-3.33,1.68-.85,1-.47.44-.08.45-.21.85-.4,1.12-.51s.68-.32,1-.45c-1,.59-2.91,1.57-3.7,2.09,1.61-.67,5.15-2.76,6.57-3.29-2,1.25-4.31,2.42-6.62,3.76,4.65-2.35,9.09-5.38,13-6.94a13.69,13.69,0,0,0-1.36,1,21.31,21.31,0,0,1,4.75-2.55c.71-.34,2.13-1,3.53-1.67-2.37,1.36-4,2.26-5.68,3.08a1.14,1.14,0,0,0,.54-.14c-3.59,2.35-6.07,2.88-8.8,4.21l-.6.38c-.75.68,2.26-1,2.64-1-3.92,2.2-8.32,4.37-10.15,5.64,4.75-2.45,8.85-4.78,12.51-6.46-.79.73-4.44,2.47-6.05,3.52,7.83-3.91,8.61-4.31,9.26-4.61l-1.76,1,.53-.12c3.4-1.8,7.37-3.94,7.21-3.76s-3.2,1.85-6.47,3.6l1.2-.25c3.85-2,8.41-3.93,12.15-6.15-.51.56-.2.35.66.05-1.13.78-2.84,1.7-4.07,2.5a16.94,16.94,0,0,1,1.56-.67,12.56,12.56,0,0,0-1.89,1.24c1.86-.9,3.83-1.9,5.77-2.87.51,0-.8.49-.63.58,1.86-.9,4.35-2.36,5.78-2.87-1.45,1-4.5,2.43-5.37,3.05l1.93-.79c1.25-.64,1.87-.91.52-.08-.71.45-.69.45-.49.38.92-.32,3.86-1.92,3.93-1.57a35,35,0,0,0-4.33,2.57c.68-.07,2.12-1,2.38-.89-3.32,1.66-3.14,1.7-4,2,.34-.22,1.3-.67,1.2-.78l-6.1,3.28a.31.31,0,0,1,.19.5c.88-.46,1.83-.89,3.45-1.81-.27.55-1.8,1.32-3.24,2l.11.12c2.24-1.22,5.74-3,8.13-4.05-1,.63-4.9,2.71-7.57,4.08l.35,0c-3.36,1.71-7.11,4.08-10.9,6,2-.59,3.93-2,6.3-3.18,1.09-.53,2.14-.94,3.24-1.37,2.9-1.66,11.64-6.4,12.71-6.8s-7.69,4.32-7.7,4.44,4.19-2,2.23-1l-4.9,2.52.12.63c1.42-.75,3.12-1.55,3-1.93a14,14,0,0,1,2.42-1.2c-.23.15-.6.32-.55.4.34-.17.82-.47.92-.4-1.68.94-4,2.29-5.81,3.27l-.34.5c.05,0,1.53-.68,2.79-1.3s-1.33.9-3.5,2l-.89.83c.74-.41,1.6-.88,2.64-1.4,1.24-.53,1.3-.33,2.55-.86-2.15,1.24-4.79,2.67-6.94,3.75l-2.07,1.75c1.8-.87,3.5-1.6,4.54-2a7.93,7.93,0,0,1,1.92-.93c-.69.47,1.22-.52,1.05-.15-1.14.35-3.16,1.55-4.06,1.67l-5,2.67-.56.41c1.35-.7,2.64-1.33,4.12-2-.49.65-4.41,2.77-7.35,4.13-5.68,3.32-12.13,5.37-18,8.32a10.77,10.77,0,0,0-.91.58l-1.14.93c1.4-.72,2.66-1.34,3.71-1.82-4,2.43,6-3,6.73-3.1-6.45,3.94-19,10.34-26.57,14.71,1.86-1,2.47-1.25.53-.11l-1.59.93c7.92-4,15.78-8.82,22.24-11.7-3.67,2-9.37,4.88-10.76,6a23.46,23.46,0,0,1,2.92-1.47c-1.78,1.23-8.28,4.36-10,5.59,9.2-4.73,21.47-11.57,28.41-14.74-10.23,5.29-23.8,12.88-32.66,17.22,1.48-.86,1.46-.94.6-.63l-8.26,4.21c-.53.35-.33.29,1.05-.36a14.25,14.25,0,0,1,2.19-1c-.72.45-9.32,5-2.45,1.45s18.72-9.77,11.86-6-9.49,5.41-5.68,3.47,15.9-8.06,11.92-5.89-12.27,6.87-17,9.36,2.8-2.5-4.21,1.23-1,.88-2.38,1.58c-2.12,1.13-6,3.23-9.7,5.23-2.57,1.43-5.91,3.21-7.53,4.23.19.07,8-4.27,5-2.47-7.68,4.12-16.22,8.78-12.86,6.59-4.73,2.58-8.23,4.43-11.22,6-4.45,2.78-9.83,5.6-10.38,6s-13.55,6.6-17.82,10c-.36.17-8.95,4.5-9.81,4.64-7.92,4.6-6.68,4.2-14.68,8.37-6.68,3.49-8.8,4.43-9.92,5-7.08,3.6-6.87,3.87-10.91,4.57-1.21.22-2.81,1.06-3.66.78A5.56,5.56,0,0,1,203.86,279.41ZM369.4,197.89a16.46,16.46,0,0,1,2.76-1.28A6.47,6.47,0,0,1,369.4,197.89Zm-.56-.72c-3.13,1.45-8,4.08-10.22,5.16s3.79-2.3,9.4-5.26,1.24,0,3.57-1.19-2.07,1.38-4.41,2.48,1.47-.89,1.65-1.19Zm-9.3-9.92a74.44,74.44,0,0,1,7.53-3.89c-2.18,1.21-7.66,4.13-7.53,3.89Zm-8,4a9.57,9.57,0,0,1-2.17,1c.85-.44,2-1.16,2.17-1Zm28.21-.06c-1.4.64-2.29,1.35-3.21,1.83-4.62,2.42,2.11-1.72,3.21-1.82Zm-38.18,4.5c1.28-.66,2.64-1.38,2.5-1-.51,0-2.22,1.22-2.5,1Zm-5.38,3a7.17,7.17,0,0,1,2.41-1.2,13.63,13.63,0,0,1-2.42,1.2Zm-9.66,4.5c.33-.32,2-1.26,2.11-1-.63.28-1.89,1.15-2.11,1ZM376,181.55a24.12,24.12,0,0,1,3-1.5,21.11,21.11,0,0,1-3,1.5Zm-5.51,2.13a7.24,7.24,0,0,1,2.41-1.19,13.94,13.94,0,0,1-2.42,1.19Zm3.43-1.7c.33-.32,2-1.26,2.12-1-.65.29-1.91,1.16-2.13,1Z"/></g></g></g><path class="cls-3" d="M496.82,641.57c-15.55,0-21.3.17-28.9,1V611.83c8.11,1.18,12.67,1.35,29.41,1.35h67.59V547.1H499.35c-15.55,0-22,.17-29.07.84V517.18c8.12,1.18,13.52,1.52,29.58,1.52h77.57c9.13,0,13.86-.17,18.76-.5-.33,5.91-.5,8.78-.5,17.23v88.23c0,14.2.17,18.08,1,27.88H564.93v-10Z"/><path class="cls-3" d="M665.82,640.22v11.66H635.06a214.87,214.87,0,0,0,1.35-27.55V537.46c0-7.26-.17-12.5-.68-19.43a199.5,199.5,0,0,0,20.45.67h91.1a193.9,193.9,0,0,0,21-.67c-.34,5.91-.51,12-.51,19.94v85.69c0,13,.34,21.12,1.18,27.88H738.32V640.22Zm72.5-94.48h-72.5v67.44h72.5Z"/><path class="cls-3" d="M918.48,544.73c13.35,0,17.57-.17,25.35-1.35v29.74a248.28,248.28,0,0,0-24.85-.84H889.07c-1.69,22.14-4.56,33.29-11.83,46.14a93.75,93.75,0,0,1-27,29.57A162.81,162.81,0,0,1,833,658.81c-6.25-11-11.15-16.56-22.31-25.86,19.78-8.28,32.11-18.08,39.89-31.26a53.11,53.11,0,0,0,7.1-21.3c.34-2.54.34-2.54.84-8.12H822.31a244.74,244.74,0,0,0-24.5.85V543.38c7.6,1.18,11,1.35,25,1.35H860c0-2.37,0-2.37.17-6.76V525.13a139.31,139.31,0,0,0-1-17.92H891.6c-.68,4.9-.68,5.41-1,18.42-.17,6.42-.17,6.42-.17,13.18,0,2.21-.17,4.23-.17,5.92Z"/><path class="cls-3" d="M1011.42,511.27c-6.59,19.26-11.66,50.87-12.84,81.63l13,4.39a166.51,166.51,0,0,0-6.59,47.32,47.79,47.79,0,0,0,.51,8.28l-29.07,1.36a67.09,67.09,0,0,0-.85-9c-3.21-22.65-4.39-37.35-4.39-53.41,0-19.43,2-40.73,6.42-65.07,2-11.83,2.2-13,2.54-18.08Zm46.65,73.85c-7.78,10-11.32,17.24-11.32,23.33,0,7.77,7.6,12,22,12a125.79,125.79,0,0,0,42.08-6.93l1.69,29.91c-4.4.51-4.4.51-14.37,2a207.26,207.26,0,0,1-29.23,2.2c-15.72,0-26.2-2.2-35-7.1a31.34,31.34,0,0,1-15.55-26.87c0-8.29,2.88-17.58,8.11-26.37,2.37-3.89,3.38-5.58,8-12.17Zm-33.13-61c8,1.69,16.9,2.54,30.09,2.54,22.48,0,39-1.36,50.36-4.23l1.18,28.9c-1.52,0-3.21.17-12.5,1.18-11.66,1.19-24,1.86-35.66,1.86a276.62,276.62,0,0,1-29.07-1.35c-1.35-.17-2.54-.17-4.9-.34Z"/><path class="cls-3" d="M1227.24,560.28c0,35.32-4.4,58.64-14.7,77.07-5.24,9.29-10.82,15.71-21.47,25-5.4-8.28-8.78-12.5-17.57-21.3,9.12-6.42,12.84-10,17.07-16.56a65.64,65.64,0,0,0,9.3-23c-2.37,1.85-8.28,5.74-17.58,12l-4.39-18.93c-2.37.67-3.05,1-5.24,1.69v43.26c0,16.57-5.75,21.3-25.52,21.3-2.88,0-5.58-.17-11-.51-1-10.48-2-14.87-5.58-24,5.41.51,9.64.85,12.85.85,3.38,0,4.22-1,4.22-5.24V603.37c-3.88.85-3.88.85-5.24,1.19-5.06,1.18-8.11,2-9.12,2.37l-4.06-26c4.57-.17,9.3-.85,18.42-2.54V554.53h-4.9a99.59,99.59,0,0,0-11.83.68V530.36a67.09,67.09,0,0,0,12.17.85h4.56V519.72c0-9-.16-12.51-.84-17.41h26.7c-.68,5.07-.85,8.62-.85,17.41v11.49h2a35.2,35.2,0,0,0,4.23-.17,20.6,20.6,0,0,1-1.69-4.06l16.9-8.11c2.87,7.61,4.73,13.35,9,26.87v-24a182.13,182.13,0,0,0-.84-19.26h25.69a129.27,129.27,0,0,0-.68,16.22ZM1186,583.94a110.6,110.6,0,0,0,16.9-9.13c.17-3.38.17-4.22.17-6.42v-9l-12.51,8.29c-5.41-20-5.91-21.47-8.62-28.91v16.06c-2.87-.17-4.9-.34-7.26-.34h-2v18.25c3.55-.84,6.25-1.69,13.35-3.71Zm72,50c0,1.52,1,2.2,3.55,2.2,6.93,0,7.6-1.69,8.11-24.68,8.45,4.73,13.18,6.59,21.64,8.28-1.36,19.61-3,27.72-6.77,32.62-4.22,5.58-10.3,7.27-25.85,7.27-18.59,0-24.85-3.89-24.85-15.55V518.2a128.92,128.92,0,0,0-.67-15.72h25.69c-.68,4.9-.85,8.62-.85,18.76v19.94c5.75-7.94,8.45-13,12.34-23l18.93,14.7a191.48,191.48,0,0,1-20.45,31.94L1258,555.21v11c14.87,11.33,21,16.57,31.44,27.72l-13.69,19.27A206.08,206.08,0,0,0,1258,593.57Z"/><path class="cls-3" d="M1349.25,511.1a116,116,0,0,0,3.55,25,84.17,84.17,0,0,1,28.9-5.24h3.72c3.55-14.7,4.23-18.76,4.4-25l29.74,5.58a91.38,91.38,0,0,0-3,9.46c-2.54,8.79-3.72,13.52-3.89,14,10,3,15.89,6.08,22.48,11.66,12.68,10.65,19.27,25.18,19.27,42.76,0,26.87-15,48.51-40.9,59-9.13,3.72-17.58,6.26-30.42,8.79-3.38-11.83-6.59-18.42-13.52-28.22,17.74-1.52,31.26-5.41,39.71-11.16,10.48-7.26,15.55-17.41,15.55-30.76s-6.08-22-19.44-27.54c-9.12,26.53-17.74,44.44-28.56,59-14,18.93-26.87,27.55-41.24,27.55-20.44,0-34.3-17.58-34.3-43.44,0-21.46,9.46-40.39,27.21-53.91-2-8.11-3-12.34-4.9-21.63-1.18-5.75-1.52-6.76-3-10.31Zm-21.8,89.57c0,10.31,3.72,16.73,9.47,16.73,3.38,0,6.93-2.36,10.48-7.1a178.14,178.14,0,0,1-11.67-32.78,38.72,38.72,0,0,0-8.28,23.15Zm38.2-14.7a159,159,0,0,0,12.51-29.91c-8.62.34-13.86,1.52-20.45,4.73a180.74,180.74,0,0,0,7.94,25.18Z"/><path class="cls-3" d="M1508.92,631.63a25.69,25.69,0,1,1-25.69-25.69A25.69,25.69,0,0,1,1508.92,631.63Zm-39.52,0a13.83,13.83,0,1,0,13.83-13.83,13.83,13.83,0,0,0-13.83,13.83Z"/><circle class="cls-5" cx="1639.11" cy="788.54" r="6.53"/><path class="cls-5" d="M111.52,770.49a7.69,7.69,0,1,1,10.87,0h0a7.69,7.69,0,0,1-10.87,0Z"/><rect class="cls-1" x="11" y="2.78" width="1920" height="1080"/><path class="cls-3" d="M1106.71,923.81h45.84v14.5h-31.32v14.54h29v14.6h-29v15.27h33.61v14.57h-8.75l3.12,4.36c-.8,1.39-1.51,2.81-2.41,4.11a5.63,5.63,0,0,1-2.32,2c-3.74,1.71-7.4,3.58-11.12,5.35a4.55,4.55,0,0,1-1.81.41c-6.34,0-12.68,0-19,0a4.39,4.39,0,0,0-2.36.66,10.18,10.18,0,0,1-7.34,1.9c-.31,0-.64,0-1,0a9,9,0,0,0-7.44,2.11,1.64,1.64,0,0,1-1.24.23c-2.52-.47-5-1-7.54-1.53a1.64,1.64,0,0,0-1.81.42,3.2,3.2,0,0,1-3.68.89,34.8,34.8,0,0,0-5.4-1.3,14.16,14.16,0,0,0-3.56.28l-18.65,2.27c-6.67.81-13.33,1.65-20,2.45l-18.23,2.19-18.22,2.24-16.45,2c-5.48.66-11,1.36-16.55,2l-16.45,2-4.9.6c-.16-1.61,0-1.89,1.38-2.12l23.62-3.9,24.87-4.1,25-4.13,24.87-4.1,26.22-4.38c1.35-.22,2.71-.39,4-.68a1.72,1.72,0,0,0,1-.77,24.78,24.78,0,0,0,1.41-2.94,1.64,1.64,0,0,1,1.37-1.11c1.62-.33,3.23-.74,4.85-1a14,14,0,0,1,2.24,0c.18-1.27,1.42-1.17,2.51-1.38,4.25-.81,8.49-1.67,12.74-2.46.84-.16,1.72-.07,2.58-.16a1.1,1.1,0,0,0,.78-.41c.39-.91,1.19-1,2-1.11,1.2-.21,2.4-.45,3.51-.67Z"/><path class="cls-3" d="M844,1014.29l9.33-2.31c2.23-.56,4.45-1.14,6.69-1.63a1.53,1.53,0,0,0,1.32-1.37c1.3-5.31,2.64-10.61,4-16a1.71,1.71,0,0,1,.39.89c1.26,5.06,2.55,10.11,3.78,15.17a1.58,1.58,0,0,0,1.34,1.34c5.36,1.28,10.7,2.62,16.19,4a2.7,2.7,0,0,1-1.36.51c-4.88,1.21-9.76,2.43-14.66,3.59a1.77,1.77,0,0,0-1.54,1.54c-1.22,5-2.5,10-3.77,15.06a1.28,1.28,0,0,1-.38.82c-1.35-5.37-2.72-10.7-4-16.06a1.46,1.46,0,0,0-1.25-1.28c-5-1.19-9.91-2.43-14.87-3.66l-1.17-.31Z"/><path class="cls-3" d="M913.64,1043.42c3.42-.92,6.48-1.79,9.58-2.56a2.09,2.09,0,0,0,1.74-1.7c.78-3.09,1.67-6.14,2.52-9.23.48.29.41.8.52,1.18q1.2,4.16,2.31,8.34a1.56,1.56,0,0,0,1.27,1.29c3.23.82,6.43,1.75,9.94,2.71l-4.59,1.27c-1.75.49-3.49,1-5.25,1.43a1.61,1.61,0,0,0-1.38,1.32c-.78,3-1.63,5.92-2.45,8.88-.06.21-.06.45-.37.62-.85-3.07-1.73-6.1-2.52-9.17a2,2,0,0,0-1.7-1.71c-2.62-.66-5.21-1.4-7.82-2.12C914.94,1043.83,914.45,1043.66,913.64,1043.42Z"/><path class="cls-3" d="M899.86,1015.41l5.19-1.44c1.5-.41,3-.85,4.5-1.22a1.22,1.22,0,0,0,1-1c.86-3.21,1.78-6.41,2.68-9.62.42.08.36.44.42.7.81,2.84,1.63,5.69,2.38,8.55a1.81,1.81,0,0,0,1.47,1.5c3,.75,6,1.61,8.9,2.42.16,0,.31.11.75.28-2.77.77-5.21,1.65-7.73,2.08a4.19,4.19,0,0,0-3.93,3.87,42.08,42.08,0,0,1-2.25,7.45c-.76-2.72-1.65-5.41-2.24-8.16a3.23,3.23,0,0,0-2.85-2.91c-2.42-.49-4.79-1.27-7.17-1.93-.38-.1-.74-.23-1.1-.35Z"/><path class="cls-3" d="M983.21,997.22V921.48l53.6,46.3v-44h14.5v75.71l-53.56-46.26v44Z"/><path class="cls-3" d="M879.76,973.55H866.68V959.08h31.64a38,38,0,1,1-11.21-25.54l-10.2,10.19a23.46,23.46,0,1,0-33,33.38,23.81,23.81,0,0,0,4.55,3.51A23,23,0,0,0,879.76,973.55Z"/><path class="cls-3" d="M915.72,997.2V923.84h45.9v14.45H930.29v14.54h29v14.58h-29v15.28h33.62v14.52Z"/><path class="cls-3" d="M1071.43,923.81h15.17v73.42h-15.17Z"/><g class="cls-40"><path class="cls-3" d="M845.66,864.59c-.92-1.87-2.34-3.25-5.7-3.25-4.22,0-6.56,1.59-6.56,5,0,3,2.44,3.86,5.46,4.53,3.86.88,6.45,2.65,6.45,6.05,0,3.85-2.27,7.32-9.22,7.32-4,0-6.59-1.59-7.9-4.07l1.77-1.1c1.17,1.91,2.63,3.26,6.28,3.26,5.13,0,6.94-2.16,6.94-5.1,0-2.51-1.59-3.82-5.42-4.6s-6.45-2.62-6.45-6.09c0-3.68,2.37-7.14,8.79-7.14,3.9,0,6,1.45,7.4,4Z"/><path class="cls-3" d="M861.89,884.05h-1.95l.43-2.26a6.68,6.68,0,0,1-5.5,2.47c-3.65,0-6.23-2.4-5.24-7.43l2-10.47h2l-2,10.47c-.78,4,.92,5.59,3.65,5.59,3.36,0,5.45-2.23,6.1-5.45l2-10.61h2Z"/><path class="cls-3" d="M882.55,876.44c-1,5.35-3.83,7.82-8.4,7.82-2.45,0-4.08-.71-5-2.26l-1.7,8.77h-2l4.75-24.41h2l-.36,1.88a7.43,7.43,0,0,1,5.64-2.09c4.14,0,6.45,3,5.52,7.75Zm-1.95,0,.5-2.54c.71-3.72-.6-5.95-4-5.95-3.76,0-5.56,1.91-6.31,5.73l-.6,3.08c-.63,3.33.22,5.7,4.11,5.7,3.4,0,5.5-1.94,6.28-6"/><path class="cls-3" d="M900.83,876.44c-1,5.35-3.82,7.82-8.4,7.82-2.44,0-4.07-.71-5-2.26l-1.7,8.77h-1.95l4.75-24.41h1.95l-.35,1.88a7.41,7.41,0,0,1,5.63-2.09c4.15,0,6.45,3,5.53,7.75Zm-2,0,.5-2.54c.71-3.72-.6-5.95-4-5.95-3.76,0-5.57,1.91-6.31,5.73l-.6,3.08c-.64,3.33.21,5.7,4.11,5.7,3.4,0,5.49-1.94,6.27-6"/><path class="cls-3" d="M918.37,876.48c-1,5.06-3.61,7.78-8.61,7.78-4.32,0-6.7-3-5.78-7.78l.5-2.58c1-5,3.83-7.75,8.62-7.75,4.5,0,6.7,3,5.77,7.75Zm-1.45-2.58c.74-3.86-.71-5.94-4.08-5.94-3.75,0-5.67,2.08-6.41,5.94l-.5,2.58c-.71,3.72.5,6,4.08,6,3.79,0,5.7-2.26,6.41-6Z"/><path class="cls-3" d="M925,873.4l-2.09,10.65h-2l3.44-17.69h2l-.43,2.23a6.05,6.05,0,0,1,4.93-2.44,4.74,4.74,0,0,1,4.36,2.55l-1.7,1.09a3.26,3.26,0,0,0-3.12-1.8c-2.83,0-4.75,2.2-5.39,5.42"/><path class="cls-3" d="M936.59,866.36h2.26l.78-3.89h2l-.78,3.89h4.36l-.32,1.8h-4.39l-1.92,9.91c-.56,2.83-.46,4.1,2.41,4.1h1.17l-.39,1.87h-1.24c-3.51,0-4.75-1.7-4-5.45l2-10.43h-2.23Z"/><path class="cls-3" d="M948.32,875.7l-.15.74c-.71,3.65.29,6,4.22,6a5.66,5.66,0,0,0,5-2.23l1.38,1.17c-1.38,1.84-3.36,2.86-6.62,2.86-5,0-6.77-3.4-5.92-7.82l.5-2.54c1-5.38,3.93-7.75,8.36-7.75s6.2,3.29,5.28,7.92l-.32,1.63Zm.35-1.77h9.78c.74-3.89-.5-6-3.72-6s-5.32,1.77-6.06,5.95Z"/><path class="cls-3" d="M978.9,859.64h2l-4.75,24.41h-2l.36-1.84c-1.35,1.49-3.09,2-5.53,2-4.11,0-6.56-3-5.6-7.82l.5-2.54c1-5.31,4-7.75,8.4-7.75,2.65,0,4.18,1.13,4.92,2.37Zm-3.3,16.84.5-2.55c.71-3.61-.25-6-4-6-3.37,0-5.42,1.8-6.24,5.95l-.5,2.54c-.71,3.72.5,6,3.94,6,4,0,5.6-2.16,6.34-6"/><path class="cls-3" d="M995,868.24a7.47,7.47,0,0,1,5.53-2.09c4.6,0,6.48,3.32,5.63,7.75l-.5,2.54c-1,5.35-3.83,7.82-8.43,7.82-2.7,0-4.15-.88-4.93-2.26l-.39,2h-2l4.75-24.41h2Zm8.72,8.2.5-2.54c.74-3.86-.71-5.95-4-5.95-4.08,0-5.64,2.27-6.31,5.73l-.6,3.08c-.64,3.33.21,5.7,4.11,5.7,3.4,0,5.49-2,6.27-6"/><path class="cls-3" d="M1007.35,888.86c3.12,0,3.9-1.06,5.67-4.49l.1-.21-3.71-17.8h2l3.19,15.25,8.15-15.25H1025l-10,18.4c-2.3,4.25-3.3,6-8,6Z"/><path class="cls-3" d="M1046.79,884.05l-2.52-9.59h-4.18l-1.88,9.59h-5l4.75-24.41h8.75c4.93,0,7.87,2.44,7.87,6.33s-2,6.44-5.63,7.75l3,10.33Zm-2.55-13.76c3.47,0,5.35-.82,5.35-3.89,0-2-1.53-2.55-4.11-2.55h-3.33l-1.24,6.44Z"/><polygon class="cls-3" points="1063.09 884.05 1058.13 884.05 1062.88 859.64 1067.84 859.64 1063.09 884.05"/><polygon class="cls-3" points="1084.32 872.94 1093.71 859.64 1098.7 859.64 1093.95 884.05 1089.21 884.05 1092.15 868.91 1084.74 879.66 1081.73 879.66 1078.57 869.01 1075.63 884.05 1070.92 884.05 1075.67 859.64 1080.03 859.64 1084.32 872.94"/><polygon class="cls-3" points="1106.75 884.05 1101.78 884.05 1106.53 859.64 1111.49 859.64 1106.75 884.05"/><polygon class="cls-3" points="1112.63 884.05 1122.09 871.35 1118.12 859.64 1123.29 859.64 1125.77 867.49 1131.13 859.64 1136.69 859.64 1128.08 871.63 1132.68 884.05 1127.55 884.05 1124.43 875.7 1118.23 884.05 1112.63 884.05"/><path class="cls-3" d="M812.26,736.72c-7.37,0-8.3-1.25-8.3-3.94V717.39l2.76.4c.5.08.75.25.75.4s-.15.25-.25.35c-.28.2-.3.28-.3.33v6a26.46,26.46,0,0,0,5.92-1.6,21,21,0,0,0,4.18-2l2.08,2.08s.38.38.38.58c0,0,0,.2-.23.2-.07,0-.55-.1-.67-.1s-3.11,1.25-3.71,1.45a56,56,0,0,1-8,2.18v4c0,1.46.15,2.23,4.34,2.23a52.15,52.15,0,0,0,8.27-.7v3.26c-1.2.08-3.91.3-7.27.3M819,720.55a15.17,15.17,0,0,0-2.38-2.08l1.25-1.13a15.93,15.93,0,0,1,2.41,2.08Zm2.38-2a12.43,12.43,0,0,0-2.38-2.08l1.28-1.13a15,15,0,0,1,2.38,2.06Z"/><polygon class="cls-3" points="842.46 736.39 842.46 735.29 829.35 735.29 829.35 732.71 842.46 732.71 842.46 728.45 829.83 728.45 829.83 725.89 842.46 725.89 842.46 721.63 829.55 721.63 829.55 719.05 845.32 719.05 845.32 736.39 842.46 736.39"/><path class="cls-3" d="M859.86,723.53a23.22,23.22,0,0,0-5.14-3.16l1.53-2.35a23.07,23.07,0,0,1,5.26,3.11Zm7.34,6.82a33.55,33.55,0,0,1-9.45,5.59c-.12.35-.18.78-.38.78s-.37-.15-.55-.48l-1.75-3a23.48,23.48,0,0,0,9.3-4.33,35.14,35.14,0,0,0,7.34-7.67l1.73,2.5a34.66,34.66,0,0,1-6.24,6.62"/><path class="cls-3" d="M896.65,731.38a24.94,24.94,0,0,0-7.24-4.94v10.7h-3.09V717.29l3.11.55c.05,0,.6.1.6.4s-.62.56-.62.68v6.49l1.15-1.75a29.92,29.92,0,0,1,8.07,5.21Zm.73-8.6a10.52,10.52,0,0,0-2.26-2.21l1.38-1.1a10.52,10.52,0,0,1,2.26,2.21Zm2.93-1.63a10.41,10.41,0,0,0-2.33-2.26l1.3-1.1a10.41,10.41,0,0,1,2.33,2.26Z"/><path class="cls-3" d="M915.67,730.1a2.81,2.81,0,1,1,2.81-2.81h0a2.79,2.79,0,0,1-2.79,2.81h0"/><polygon class="cls-3" points="946.68 735.22 946.68 734.34 933.57 734.34 933.57 731.58 946.68 731.58 946.68 722.86 933.62 722.86 933.62 720.07 949.66 720.07 949.66 735.22 946.68 735.22"/><path class="cls-3" d="M973.5,735.92v-1.08H962.09v1h-3v-16.4h17.37v16.5Zm0-13.67H962.09V732H973.5Z"/><path class="cls-3" d="M996.08,725.36c-.73,6.67-2.61,9.38-8,12.56l-2.56-2.48c4.79-2.31,6.75-4.44,7.5-10.08h-9.1v-2.91h9.3a37.34,37.34,0,0,0-.22-5.59l3.36.4c.35,0,.75.13.75.38s-.6.58-.7.73,0,.2,0,1.23c0,0,0,1.55-.05,2.85h7.57v2.91Z"/><path class="cls-3" d="M1019.94,730.1a2.81,2.81,0,1,1,2.81-2.81h0a2.8,2.8,0,0,1-2.79,2.81h0"/><polygon class="cls-3" points="1050.95 735.22 1050.95 734.34 1037.84 734.34 1037.84 731.58 1050.95 731.58 1050.95 722.86 1037.89 722.86 1037.89 720.07 1053.93 720.07 1053.93 735.22 1050.95 735.22"/><path class="cls-3" d="M1068.39,723.53a22.77,22.77,0,0,0-5.14-3.16l1.53-2.35a23.35,23.35,0,0,1,5.27,3.11Zm7.34,6.82a33.42,33.42,0,0,1-9.45,5.59c-.12.35-.17.78-.37.78s-.38-.15-.55-.48l-1.76-3a23.48,23.48,0,0,0,9.3-4.33,35.19,35.19,0,0,0,7.35-7.67l1.73,2.5a35,35,0,0,1-6.25,6.62"/><path class="cls-3" d="M1100,726.72a12.81,12.81,0,0,1-1.58,6.49,11.62,11.62,0,0,1-5.56,4.66l-2.46-2c5-1.81,6.57-4.22,6.69-9.1h-8.42v-2.58h18.93v2.58Zm-7.92-8.93h12.13v2.71H1092.1Z"/><path class="cls-3" d="M1131.5,736.19a39,39,0,0,0-6.12-6.26,24.24,24.24,0,0,1-8.57,6.44l-2.21-2.28a22.23,22.23,0,0,0,8-5.42,20,20,0,0,0,4.26-6.84h-9.55v-2.91h10.8a2.37,2.37,0,0,0,1.3-.55l1.93,2.13A3.54,3.54,0,0,0,1130,722a30.14,30.14,0,0,1-2.91,5.61,50,50,0,0,1,6.64,6.2Z"/><path class="cls-3" d="M1157.6,731.33a25.38,25.38,0,0,0-7.37-5v10.83h-3V717.29l3,.53c.08,0,.6.1.6.4,0,.15-.65.55-.65.68v6.59l1.18-1.86a23.27,23.27,0,0,1,4.26,2.28,31.74,31.74,0,0,1,3.91,3Z"/><path class="cls-3" d="M515.66,765.25c3.4,0,11.15.19,16.06,4.82,4.06,3.86,4.54,9.15,4.54,11.88a14.85,14.85,0,0,1-2.08,8,11.56,11.56,0,0,1-5.29,4.63,16.49,16.49,0,0,1,8.69,4.24c2.08,2.08,4.06,5.66,4.06,11.23,0,6.32-2.45,10.28-4.91,12.74-5.2,5-12.76,5.38-16.63,5.38H496.38V765.25Zm-4.92,25.57h2.36c2,0,5.29-.28,7.37-1.79a6.68,6.68,0,0,0,2.55-5.57,6.42,6.42,0,0,0-2.45-5.28c-2.08-1.6-4.92-1.6-7.56-1.6h-2.27Zm0,26h3.5c3.69,0,8.13-.1,10.77-2.54a7,7,0,0,0,2.08-5.29,6.72,6.72,0,0,0-2-5.09c-2.55-2.36-7.47-2.36-10.4-2.36h-4Z"/><path class="cls-3" d="M589.36,809.5H557.89a11.43,11.43,0,0,0,2.56,7.17,9.1,9.1,0,0,0,7,2.64,11.2,11.2,0,0,0,5.48-1.22,8.35,8.35,0,0,0,2.93-3.49l12.85,1.32a18.84,18.84,0,0,1-8.13,10.57c-4.06,2.45-8.6,3.11-13.32,3.11-6.33,0-11.91-1.13-16.82-6a22.54,22.54,0,0,1-6.33-16.23,23.88,23.88,0,0,1,6.42-16.6c5.1-5.1,11.44-6,16.16-6s11.53.85,16.73,6.32c5,5.28,6,11.89,6,17.08Zm-12.57-8.11a10.65,10.65,0,0,0-2.74-4.91,10,10,0,0,0-13.32.38,9.35,9.35,0,0,0-2.36,4.53Z"/><polygon class="cls-3" points="608.16 822.81 588.04 786.11 603.72 786.11 615.63 808.94 627.25 786.11 642.56 786.11 608.64 849.79 593.33 849.79 608.16 822.81"/><path class="cls-3" d="M682.44,822.81c-3.78,3.77-10.21,6.79-18.43,6.79s-14.65-3-18.43-6.79a22.55,22.55,0,0,1,0-31.33c3.78-3.77,10.21-6.79,18.43-6.79s14.65,3,18.43,6.79a22.55,22.55,0,0,1,0,31.33m-26.08-23.59a11.63,11.63,0,0,0,0,15.85,10.5,10.5,0,0,0,7.75,3,10.34,10.34,0,0,0,7.56-3,11.65,11.65,0,0,0,0-15.85,11.21,11.21,0,0,0-15.31,0"/><path class="cls-3" d="M692.55,786.11h13.6v5A15.42,15.42,0,0,1,719.2,785c3.68,0,8.5.66,12.1,4.25,4,4,4.25,9,4.25,12.36v26.6H721.94v-21.6c0-2.74-.1-6.23-2.27-8.4a7.17,7.17,0,0,0-5.2-1.89,7.41,7.41,0,0,0-5.67,2.27c-2.27,2.26-2.65,5.28-2.65,8v21.6h-13.6Z"/><path class="cls-3" d="M787.33,828.18H773.72v-5.09c-2.08,3-5.86,6.51-13.33,6.51-6.23,0-10.77-2-14.45-5.75A23.58,23.58,0,0,1,739.32,807c0-7,2.55-12.74,6.62-16.61a21.24,21.24,0,0,1,14.64-5.66c4.63,0,9.74,1.51,13.14,6.13V759.41h13.61Zm-30.72-29a10.81,10.81,0,0,0-3.3,8,10.68,10.68,0,0,0,3.3,7.74,10.48,10.48,0,0,0,7.09,2.92,11.62,11.62,0,0,0,7.75-3.11,10.27,10.27,0,0,0,3.12-7.55,10.84,10.84,0,0,0-3-7.74,10.87,10.87,0,0,0-14.93-.28"/><path class="cls-3" d="M861.88,779.12a31.16,31.16,0,0,0-8.22-5.85,27,27,0,0,0-10.87-2.45c-14.55,0-25.32,11.7-25.32,26.23,0,17.08,13.89,25.66,25.42,25.66a26.29,26.29,0,0,0,11.72-2.92,28.65,28.65,0,0,0,7.27-5.29v8.69a32.92,32.92,0,0,1-19,6.13c-18.71,0-32.6-14.15-32.6-32.36,0-18.78,14.08-32.74,33-32.74a29.77,29.77,0,0,1,18.62,6.22Z"/><path class="cls-3" d="M866.6,796.77c0-18.78,14.65-32.55,32.79-32.55s32.79,13.77,32.79,32.55-14.55,32.55-32.79,32.55-32.79-13.87-32.79-32.55m7.18,0a25.86,25.86,0,1,0,0-.18v.18"/><polygon class="cls-3" points="940.69 765.25 958.45 813.28 976.22 765.25 983.97 765.25 958.45 831.96 932.94 765.25 940.69 765.25"/><rect class="cls-3" x="988.12" y="765.25" width="6.99" height="62.93"/><path class="cls-3" d="M1006.64,765.25h12.86c6.33,0,15.31.67,23.25,7.36,5.76,4.81,10.77,12.84,10.77,24.16,0,13.21-6.52,20.28-11.06,24.15-5.76,4.91-11.81,7.26-23.05,7.26h-12.76Zm7,56.33h6.14c5,0,11.91-.56,18-5.66,4.72-4,8.5-10.19,8.5-19.15,0-15.1-10.58-24.91-26.55-24.91h-6.14Z"/><rect class="cls-3" x="1058.24" y="804.6" width="20.79" height="6.98"/><polygon class="cls-3" points="1091.88 771.86 1081.29 771.86 1084.98 765.25 1098.87 765.25 1098.87 828.18 1091.88 828.18 1091.88 771.86"/><path class="cls-3" d="M1125.71,825.83l14.45-20.1a18.45,18.45,0,0,1-5.57.85c-12.1,0-20.41-9.06-20.41-20.76,0-12.55,9.07-21.61,21.64-21.61,14.83,0,21.83,11.51,21.83,21.42,0,2.36-.48,7.92-5.2,14.43L1131,829.7Zm-4.54-40.2c0,8.4,6.24,14.53,14.84,14.53a14.16,14.16,0,0,0,14.64-13.67c0-.28,0-.57,0-.86,0-8.4-6-15-14.74-15s-14.74,6.51-14.74,15"/><path class="cls-3" d="M1221.94,768.81v11.36q-8.31-7-17.2-6.95a21.9,21.9,0,0,0-16.5,7,23.69,23.69,0,0,0-6.75,17.13,23.1,23.1,0,0,0,6.75,16.87,22.28,22.28,0,0,0,16.54,6.88,20.29,20.29,0,0,0,8.6-1.65,24.21,24.21,0,0,0,4.1-2.22,47.62,47.62,0,0,0,4.47-3.38v11.57a34.66,34.66,0,0,1-17.29,4.65,31.84,31.84,0,0,1-23.25-9.51,31.52,31.52,0,0,1-9.6-23.13,32.68,32.68,0,0,1,8-21.65q9.89-11.65,25.56-11.65a32.49,32.49,0,0,1,16.55,4.65"/><path class="cls-3" d="M1233.75,808.61a19.92,19.92,0,0,1,6.22-14.77,21.92,21.92,0,0,1,30.37,0,21.46,21.46,0,0,1,0,30.17A21.23,21.23,0,0,1,1255,830.1a20.39,20.39,0,0,1-15.11-6.17,20.79,20.79,0,0,1-6.09-15.31m9.47.16q0,6,3.21,9.51a12.48,12.48,0,0,0,17.37,0q3.26-3.5,3.25-9.34t-3.25-9.35a12.33,12.33,0,0,0-17.29,0,12.9,12.9,0,0,0-3.29,9.14"/><path class="cls-3" d="M1289.69,788.86h9.3v3.7a15.15,15.15,0,0,1,11-4.82q7,0,10.9,4.4,3.38,3.75,3.38,12.23v24.57h-9.3V806.56q0-5.94-1.65-8.19c-1.07-1.54-3-2.3-5.84-2.3q-4.62,0-6.55,3t-1.89,10.5V829h-9.3Z"/><polygon class="cls-3" points="1348.83 797.5 1348.83 828.95 1339.57 828.95 1339.57 797.5 1335.62 797.5 1335.62 788.86 1339.57 788.86 1339.57 774.16 1348.83 774.16 1348.83 788.86 1356.04 788.86 1356.04 797.5 1348.83 797.5"/><path class="cls-3" d="M1402.21,811.08h-28.73a12.22,12.22,0,0,0,3.22,7.87,9.81,9.81,0,0,0,7.28,2.88,9.46,9.46,0,0,0,5.72-1.65,23.55,23.55,0,0,0,5.07-6.09l7.82,4.36a31.13,31.13,0,0,1-3.83,5.29,20.52,20.52,0,0,1-4.32,3.62,17.54,17.54,0,0,1-5,2.08,24.12,24.12,0,0,1-5.8.66q-9,0-14.41-5.76t-5.43-15.4q0-9.5,5.27-15.39t14.07-5.8q8.85,0,14,5.64t5.1,15.52Zm-9.5-7.57q-1.93-7.41-9.35-7.41a9.54,9.54,0,0,0-3.17.52,8.91,8.91,0,0,0-2.7,1.48,9.35,9.35,0,0,0-2.07,2.32,10.68,10.68,0,0,0-1.32,3.09Z"/><path class="cls-3" d="M1439,795.69l-7.66,4.08c-1.2-2.48-2.7-3.71-4.48-3.71a3.08,3.08,0,0,0-2.18.85,2.79,2.79,0,0,0-.9,2.16c0,1.53,1.78,3.06,5.35,4.57q7.36,3.17,9.92,5.84a10,10,0,0,1,2.55,7.2,12.65,12.65,0,0,1-4.28,9.72,14.58,14.58,0,0,1-10,3.7q-10.08,0-14.28-9.84l7.9-3.66a17.09,17.09,0,0,0,2.51,3.66,5.77,5.77,0,0,0,4,1.57c3.12,0,4.69-1.43,4.69-4.28q0-2.47-3.62-4.61c-.94-.47-1.87-.92-2.8-1.36s-1.88-.89-2.84-1.36a17.39,17.39,0,0,1-5.68-4,9.7,9.7,0,0,1-2.1-6.46,11.43,11.43,0,0,1,3.58-8.65,12.52,12.52,0,0,1,8.89-3.41q7.7,0,11.44,7.94"/><polygon class="cls-3" points="1462.84 797.5 1462.84 828.95 1453.58 828.95 1453.58 797.5 1449.63 797.5 1449.63 788.86 1453.58 788.86 1453.58 774.16 1462.84 774.16 1462.84 788.86 1470.04 788.86 1470.04 797.5 1462.84 797.5"/></g><g class="cls-41"><g class="cls-41"><g class="cls-42"><path class="cls-20" d="M771.21,123a23.91,23.91,0,0,0,6.22-5.6c-6.76,3.45-12.19,2.08-12.88-2.45-.65-4.25,6.37-5.48,9.15-7,4.71-2.55,9.73-6.08,8.91-17-4.42,7.5-10.38,7-12.6,4-2.47-3.36-1.17-8.64,4.94-10.79-5.25-2.09-10.1.78-12.46,3.9s-5.94,3.63-8.12.78c-2.44-3.17.34-7.52,7.73-9.71A23.86,23.86,0,1,0,771.21,123"/><path class="cls-21" d="M760.35,118.86c-3.56,2.46-7,.13-7.4-2-.56-3.13,1.59-3.53,4.76-6.4s4.11-6.9,2.92-11.26c-5.88,7.38-11.25,5-13.11,3.07s-2.78-4.47,1.83-7.7a16.83,16.83,0,0,0-12.76,2.09c-.44.28-.85.57-1.26.88A23.85,23.85,0,0,0,753.05,126c.46-.23.9-.47,1.34-.74a16.73,16.73,0,0,0,6-6.37"/></g></g></g><g class="cls-43"><g class="cls-43"><g class="cls-44"><path class="cls-20" d="M1668.06,1005.21a24,24,0,0,0,6.22-5.59c-6.76,3.45-12.19,2.07-12.88-2.46-.65-4.25,6.37-5.48,9.15-7,4.71-2.54,9.72-6.07,8.91-17-4.42,7.51-10.38,7-12.6,4-2.47-3.35-1.18-8.64,4.93-10.78-5.25-2.09-10.1.77-12.46,3.9s-5.94,3.62-8.12.78c-2.44-3.18.35-7.52,7.73-9.71a23.86,23.86,0,1,0,9.12,43.86"/><path class="cls-21" d="M1657.2,1001c-3.56,2.47-7,.14-7.4-2-.56-3.13,1.59-3.53,4.76-6.4s4.11-6.9,2.92-11.25c-5.88,7.38-11.26,4.94-13.11,3.06s-2.79-4.47,1.83-7.7a16.78,16.78,0,0,0-12.76,2.1c-.44.27-.85.56-1.26.87a23.85,23.85,0,0,0,17.72,28.47c.45-.23.9-.47,1.34-.74a16.81,16.81,0,0,0,6-6.37"/></g></g></g><path class="cls-3" d="M754.72,977.31h12.63v3.06H738.42v-3.06h12.64V969.8h-9.65v-3h9.65v-6.22h-12v-3.09h27.61v3.09h-12v6.22h9.64v3h-9.64Zm-9-23.51,1.1-3A73.81,73.81,0,0,1,760,954l-1.26,3a72,72,0,0,0-13-3.26Z"/><path class="cls-3" d="M793.53,967.57h6.75v2.5h-6.75v2.26h6.75v2.46h-6.75v2.26h7.92V980H784v1.46h-3.55v-11a17.66,17.66,0,0,1-1.67,3.16l-1.86-2v9.72h-3.39V966.8a26.17,26.17,0,0,1-2.3,3.32l-1.43-4a37.36,37.36,0,0,0,6.15-14.83l3.29.6a42.93,42.93,0,0,1-2.32,8.48v8.85a39.51,39.51,0,0,0,5-9.55l3.59.73c-.25.76-.49,1.45-.74,2.07h5.79c.36-.94.67-1.87.93-2.8l3.5.73c-.18.67-.39,1.36-.64,2.07h6.79v2.86h-7.58Zm3.76-15.2h3.32v6.88H780v-6.88h3.33v4h5.22v-5h3.53v5h5.22Zm-7.22,15.2v-2.23H784v2.23Zm0,4.75v-2.26H784v2.26Zm0,2.46H784v2.27h6.08Z"/><path class="cls-3" d="M807.17,965.41v-5h4.32v5Zm0,13v-5h4.32v5Z"/><path class="cls-3" d="M905.53,322c0-10.12-.18-14.1-1.09-20.42h30.72c-.91,5.78-1.09,9.94-1.09,19.15v8.49h46.26a170,170,0,0,0,19-.72,152.24,152.24,0,0,0-.72,17.35v59.8c0,10.12.18,14.28.9,19.7H970.57V416h-36.5v31.8c0,11.38.37,17.71,1.27,24.21H904.26a178.24,178.24,0,0,0,1.27-24.21V416H870.66v9.4H841.75a145.63,145.63,0,0,0,.9-19.7v-60a154.9,154.9,0,0,0-.72-17.17c6.5.54,10.3.72,18.79.72h44.81Zm-34.87,33.6v34h34.87v-34Zm99.91,34v-34h-36.5v34Z"/><path class="cls-3" d="M1085.84,312.8a51.5,51.5,0,0,0-.91-11.2h30.36a66.34,66.34,0,0,0-.9,10.3v.9h50.4a127.91,127.91,0,0,0,19.88-1.08v24.93c-5.6-.72-10.3-.9-19.69-.9H1037.42c-9.22,0-13.74.18-19.34.9V311.72a167.73,167.73,0,0,0,21,1.08Zm56.73,133.34c3.8.18,5.24.18,6.51.18,3.25,0,4.15-.72,4.15-3.43V408H1049.34V450.3c0,10.66.18,15.54.9,21.5h-28.9a167.17,167.17,0,0,0,1.08-21.5V402.6c0-5.6-.18-11-.72-16.44,6.32.54,11.74.72,19.87.72h121.06a157.66,157.66,0,0,0,18.25-.72,144.64,144.64,0,0,0-.73,16.44v42.1c0,14.27-1.26,18.25-6.5,21.68-4.34,2.89-12.29,4.16-24.75,4.16-3.44,0-9.22-.18-14.1-.37a62.61,62.61,0,0,0-1.8-14.63h-47.7v6.86h-26.38a98.36,98.36,0,0,0,.72-14.45V422.84a83.75,83.75,0,0,0-.54-10.48c4.33.36,8.13.54,14.63.54h55.83a114.8,114.8,0,0,0,13.55-.54,88.09,88.09,0,0,0-.54,10.84v22.94Zm-99.37-93.77a83.43,83.43,0,0,0-.72-12.28c5.42.36,9.57.54,18.24.54h82.75c7.77,0,11.93-.18,17.17-.54a81.38,81.38,0,0,0-.72,12.46v17.53a78.43,78.43,0,0,0,.72,12.46c-5.6-.36-9.76-.54-17.71-.54h-82.57c-7.59,0-12.1.18-17.88.54a86,86,0,0,0,.72-12.46ZM1069.76,365H1133v-7.23h-63.24Zm15.54,71.91h33.06v-6.51H1085.3Z"/><path class="cls-3" d="M1237.42,360.32c-7.41,14.82-14.81,26.2-24.75,37.4-6.87-11.56-9.58-14.81-18.07-23.49,16.62-16.26,30.17-44.81,31.62-67l28.18,6.69c-2.16,6.14-2.16,6.14-3.61,11-.9,3.61-1.81,6.32-3.07,10.3h21.68V326.9a204.66,204.66,0,0,0-1.08-24.22h30.89c-.9,6.33-1.08,12.47-1.08,24.22v8.31h31.44c10.66,0,19.51-.36,28.18-1.09v27.29c-9-.73-17.52-1.09-27.28-1.09h-32.34v27.1h26.56a249.17,249.17,0,0,0,25.29-1.08v27.28c-8.13-.72-15.53-1.08-25.11-1.08h-26.74V442h37.22a264.76,264.76,0,0,0,28.73-1.27v28c-10.3-.9-17.89-1.27-27.83-1.27H1230.92c-10.3,0-19.34.37-29.82,1.27v-28a285.64,285.64,0,0,0,28.73,1.27h39.57V412.54H1247c-9.58,0-17,.36-24.76,1.08v-27.1a222.56,222.56,0,0,0,24.22.9h22.94v-27.1Z"/></svg>